<?xml version="1.0" standalone="no"?>
<!DOCTYPE svg PUBLIC "-//W3C//DTD SVG 20010904//EN"
 "http://www.w3.org/TR/2001/REC-SVG-20010904/DTD/svg10.dtd">
<svg version="1.0" xmlns="http://www.w3.org/2000/svg"
 width="700.000000pt" height="700.000000pt" viewBox="0 0 700.000000 700.000000"
 preserveAspectRatio="xMidYMid meet">
<metadata>
Created by potrace 1.11, written by Peter Selinger 2001-2013
</metadata>
<g transform="translate(0.000000,700.000000) scale(0.100000,-0.100000)"
fill="#000000" stroke="none">
<path d="M3802 5959 c2 -8 -3 -13 -9 -11 -7 1 -13 -3 -13 -9 0 -5 -5 -7 -12
-3 -7 5 -9 2 -5 -8 3 -9 3 -19 -1 -22 -3 -4 -8 -19 -10 -34 -2 -14 -7 -31 -12
-37 -5 -7 -8 -21 -5 -33 2 -12 -1 -22 -6 -22 -6 0 -7 -4 -4 -10 3 -5 0 -10 -7
-10 -10 0 -9 -3 2 -10 13 -8 12 -10 -1 -15 -9 -3 -15 -16 -14 -28 1 -12 -3
-28 -9 -36 -9 -12 -8 -13 4 -6 8 4 5 -3 -8 -17 -15 -17 -20 -28 -13 -33 8 -4
8 -12 0 -27 -11 -21 -20 -59 -20 -90 0 -10 -5 -21 -11 -24 -7 -5 -8 -2 -3 6 5
9 4 11 -4 6 -9 -6 -9 -11 -1 -21 7 -9 7 -15 1 -19 -5 -4 -8 -15 -6 -26 2 -11
0 -20 -4 -20 -4 0 -8 -6 -9 -12 -3 -36 -15 -84 -24 -95 -5 -7 -7 -16 -4 -21 3
-5 -1 -18 -8 -28 -11 -15 -12 -22 -3 -33 9 -11 9 -13 0 -8 -7 5 -12 1 -12 -10
0 -16 -6 -48 -11 -63 -1 -3 -2 -8 -1 -12 0 -5 -3 -8 -9 -8 -5 0 -7 -7 -3 -16
3 -9 0 -20 -8 -25 -12 -8 -12 -10 0 -18 9 -6 10 -10 2 -12 -7 -3 -13 -16 -15
-30 -1 -13 -6 -30 -10 -37 -4 -7 -4 -16 -1 -22 3 -5 1 -10 -6 -10 -6 0 -9 -8
-6 -20 3 -11 1 -20 -4 -20 -5 0 -9 -14 -9 -31 0 -16 -4 -28 -9 -25 -5 4 -8 -5
-6 -19 1 -14 -1 -25 -5 -25 -4 0 -7 -6 -7 -12 2 -27 -16 -98 -24 -98 -5 0 -8
-3 -8 -7 4 -27 -3 -73 -10 -69 -5 4 -7 -4 -3 -16 3 -12 1 -19 -4 -15 -6 3 -9
-7 -8 -24 1 -16 -3 -29 -8 -29 -6 0 -8 -7 -4 -15 3 -8 2 -15 -2 -15 -4 0 -8
-8 -9 -17 -4 -51 -8 -63 -21 -58 -8 3 -10 0 -5 -8 11 -18 12 -37 2 -37 -4 0
-6 -7 -3 -15 4 -8 2 -15 -3 -15 -8 0 -10 -8 -15 -65 -1 -14 -6 -25 -11 -25 -4
0 -5 -5 -2 -10 4 -6 1 -17 -5 -25 -7 -8 -10 -20 -8 -27 3 -7 -2 -19 -11 -26
-12 -10 -13 -12 -1 -6 13 7 13 5 2 -9 -8 -9 -11 -21 -7 -27 3 -5 2 -10 -2 -10
-5 0 -9 -12 -9 -27 1 -16 -4 -27 -10 -26 -6 1 -10 -8 -9 -20 1 -12 -3 -28 -9
-36 -8 -11 -8 -13 1 -8 7 5 9 0 6 -13 -3 -11 -9 -18 -13 -15 -4 2 -7 -6 -7
-18 -1 -41 -3 -48 -14 -41 -8 4 -8 0 0 -15 7 -11 8 -21 3 -21 -10 0 -26 -68
-31 -128 -1 -7 -5 -10 -11 -7 -5 3 -10 1 -10 -4 0 -6 6 -11 13 -11 8 0 8 -3
-2 -9 -12 -8 -19 -32 -23 -78 -1 -7 -4 -13 -8 -13 -4 0 -7 -6 -7 -12 -1 -29
-30 -137 -40 -151 -5 -7 -8 -24 -7 -39 0 -16 -4 -28 -10 -28 -6 0 -4 -5 4 -10
13 -8 12 -10 -3 -10 -10 0 -16 -4 -13 -9 4 -5 4 -15 1 -23 -4 -10 -33 -13
-120 -13 -72 1 -115 -3 -115 -10 0 -5 -4 -4 -9 4 -6 10 -10 10 -16 1 -6 -9
-10 -9 -16 1 -7 11 -9 11 -9 1 0 -9 -5 -10 -17 -4 -21 11 -46 5 -37 -9 3 -5
-6 -5 -20 1 -17 6 -27 6 -32 -1 -4 -8 -9 -7 -15 2 -5 8 -9 9 -9 3 0 -7 -20
-11 -50 -10 -28 1 -52 -3 -54 -9 -3 -6 -9 -3 -15 5 -8 12 -11 12 -11 1 0 -7
-6 -11 -14 -8 -7 3 -19 0 -25 -6 -8 -8 -11 -7 -11 3 0 11 -3 11 -12 2 -16 -16
-31 -15 -22 1 6 9 5 9 -8 0 -8 -7 -18 -10 -21 -6 -4 3 -7 1 -7 -6 0 -9 -5 -9
-20 -1 -12 6 -20 7 -20 1 0 -5 -8 -8 -17 -6 -10 1 -24 -3 -32 -9 -12 -9 -13
-8 -6 4 7 13 6 13 -7 2 -13 -10 -17 -10 -21 0 -4 11 -6 10 -6 0 -1 -7 -5 -10
-11 -7 -5 3 -10 1 -10 -6 0 -10 -3 -10 -11 -2 -7 7 -20 8 -33 4 -11 -5 -29 -7
-38 -6 -10 2 -18 -2 -18 -8 0 -7 -5 -5 -10 3 -8 12 -10 12 -10 1 0 -9 -8 -12
-25 -9 -14 3 -25 2 -25 -1 0 -4 -18 -7 -41 -6 -22 1 -42 -3 -45 -7 -3 -4 -14
-8 -25 -8 -13 0 -18 4 -13 12 4 7 3 8 -5 4 -6 -4 -9 -11 -6 -16 3 -5 -10 -8
-30 -6 -19 1 -35 0 -35 -4 0 -5 -23 -9 -73 -11 -9 0 -15 -4 -13 -8 7 -10 -25
-7 -43 4 -10 6 -12 4 -6 -5 6 -10 4 -12 -8 -7 -10 3 -17 2 -17 -3 0 -5 -9 -7
-20 -5 -11 2 -22 0 -25 -6 -4 -5 -17 -7 -31 -5 -13 3 -24 0 -24 -6 0 -6 -7 -5
-17 3 -14 12 -16 12 -11 -1 4 -12 -1 -16 -23 -15 -25 1 -56 15 -32 15 6 0 13
9 16 20 3 11 0 20 -6 20 -7 0 -6 4 2 9 8 5 11 16 8 26 -4 9 -3 14 3 10 6 -3
10 1 10 9 0 9 6 16 13 16 7 0 8 3 2 8 -13 10 -17 32 -6 32 6 0 8 9 6 20 -2 11
0 18 4 15 5 -2 11 4 14 15 3 11 0 20 -6 20 -8 0 -7 4 2 9 7 5 10 14 7 20 -4 6
-1 11 7 11 9 0 12 9 9 30 -2 17 0 30 5 30 10 0 12 8 15 55 1 15 8 25 18 26 10
0 11 2 2 6 -6 2 -9 10 -5 16 4 7 9 23 11 37 2 13 8 28 14 31 7 4 5 9 -3 12
-10 4 -10 6 -1 6 6 1 12 12 12 26 0 14 4 25 10 25 5 0 6 7 3 17 -4 10 -2 14 4
10 7 -5 9 0 6 13 -3 11 1 28 8 37 9 11 10 14 2 9 -9 -5 -11 -2 -7 8 3 9 9 14
13 11 4 -2 7 6 6 18 -1 12 2 27 6 33 5 6 7 20 4 33 -2 12 0 19 5 16 13 -8 19
18 8 38 -7 13 -4 19 14 27 13 5 17 9 9 9 -11 1 -11 4 2 19 10 11 13 22 7 31
-5 9 -3 20 6 28 8 8 12 19 9 24 -4 5 0 9 7 9 9 0 9 3 -2 10 -9 6 -10 10 -3 10
6 0 10 9 8 20 -2 11 0 20 6 20 5 0 9 10 9 23 0 13 5 28 12 35 9 9 9 12 -2 12
-12 0 -12 2 -2 9 7 4 15 17 17 27 2 10 4 19 6 19 3 0 10 47 12 77 1 15 5 24 9
22 7 -5 12 13 11 44 -1 6 3 12 7 12 5 0 7 12 5 26 -1 14 3 28 10 30 7 3 11 16
9 30 -1 13 2 24 7 24 6 0 8 4 4 9 -3 5 -1 13 5 16 6 4 10 14 9 23 -4 40 1 51
19 46 12 -4 13 -3 4 3 -10 8 -10 16 -2 39 6 16 11 31 11 34 -1 15 13 57 23 69
8 11 8 13 -1 7 -9 -5 -11 -2 -7 8 3 9 9 14 13 12 3 -2 7 12 7 31 1 19 5 38 10
42 8 5 12 22 17 74 1 9 5 17 10 17 4 0 6 4 2 9 -3 5 -1 12 4 16 5 3 8 14 6 25
-2 11 1 20 7 20 5 0 8 7 4 15 -3 8 -1 15 4 15 6 0 10 7 10 15 0 8 -5 15 -11
15 -5 0 -7 5 -4 10 3 6 0 10 -9 10 -8 0 -16 4 -18 9 -1 5 -10 11 -18 13 -8 2
-21 9 -29 16 -7 7 -20 11 -27 8 -7 -3 -17 0 -21 7 -5 7 -17 13 -28 15 -75 9
-94 15 -88 26 4 7 1 6 -9 -1 -8 -7 -18 -10 -22 -6 -10 11 -156 11 -156 1 0 -4
-7 -8 -15 -8 -8 0 -15 -7 -15 -15 0 -8 -6 -15 -12 -15 -9 0 -8 -4 2 -10 12 -8
12 -10 -5 -10 -16 0 -17 -2 -5 -10 12 -7 11 -12 -5 -31 -11 -12 -14 -19 -7
-15 6 4 12 2 12 -3 0 -6 -4 -11 -8 -11 -5 0 -9 -6 -10 -12 -3 -37 -8 -54 -17
-60 -6 -5 -4 -8 4 -8 11 0 10 -4 -5 -16 -10 -8 -12 -12 -4 -8 13 7 13 5 2 -8
-7 -9 -12 -20 -11 -24 1 -5 0 -11 -1 -14 -4 -12 -12 -47 -17 -77 -3 -18 -9
-30 -14 -27 -5 3 -9 2 -8 -3 5 -28 -2 -63 -12 -57 -8 4 -8 0 0 -15 8 -15 9
-21 1 -21 -6 0 -8 -4 -5 -10 3 -5 2 -10 -4 -10 -5 0 -8 -11 -5 -24 3 -16 -2
-26 -12 -30 -13 -5 -14 -9 -4 -21 7 -8 8 -15 3 -15 -8 0 -12 -15 -15 -57 -1
-7 -5 -13 -10 -13 -5 0 -6 -4 -3 -10 3 -5 3 -16 -2 -22 -4 -7 -8 -24 -9 -38
-1 -14 -3 -26 -4 -27 -1 -2 -4 -7 -5 -13 -1 -5 -4 -11 -5 -12 -1 -2 -4 -13 -6
-25 -2 -13 -6 -33 -8 -45 -2 -13 -4 -27 -5 -31 0 -5 -7 -5 -14 -1 -8 5 -8 2 2
-9 7 -10 9 -17 3 -17 -6 0 -9 -8 -7 -17 1 -10 0 -22 -4 -28 -3 -5 -6 -13 -7
-17 -1 -5 -3 -10 -4 -13 -1 -3 -3 -13 -4 -22 -1 -10 -5 -23 -9 -29 -4 -7 -8
-29 -9 -50 -2 -22 -6 -42 -11 -45 -7 -5 -17 -51 -20 -91 -1 -10 -6 -18 -11
-18 -5 0 -6 -3 -3 -7 4 -3 2 -12 -4 -20 -6 -7 -8 -13 -4 -13 4 0 1 -8 -6 -17
-12 -14 -12 -16 0 -8 11 6 13 4 8 -9 -4 -10 -7 -20 -7 -22 0 -3 -4 -3 -9 0 -4
3 -7 -8 -5 -24 2 -17 -1 -30 -6 -30 -5 0 -7 -6 -4 -14 3 -8 0 -17 -6 -21 -9
-6 -9 -10 1 -16 10 -6 11 -9 2 -9 -8 0 -13 -13 -13 -31 0 -16 -4 -28 -9 -25
-5 4 -7 -3 -4 -14 3 -11 1 -20 -4 -20 -5 0 -8 -12 -7 -27 2 -37 -6 -54 -20
-46 -6 4 -5 -1 3 -10 10 -13 10 -17 1 -17 -7 0 -10 -8 -7 -20 3 -11 1 -23 -4
-26 -6 -3 -5 -12 3 -22 12 -14 10 -14 -12 -2 -21 11 -23 11 -14 -1 6 -8 10
-23 7 -34 -2 -11 -5 -30 -6 -43 -1 -14 -7 -20 -16 -17 -11 4 -11 2 -2 -9 9
-10 9 -16 1 -21 -6 -4 -8 -16 -4 -27 4 -13 -1 -25 -13 -34 -10 -9 -11 -12 -3
-8 10 5 8 -1 -5 -16 -11 -13 -15 -20 -8 -17 8 5 11 0 10 -13 -1 -11 -8 -20
-17 -21 -10 0 -11 -2 -2 -6 6 -2 9 -10 5 -16 -4 -7 -9 -21 -10 -32 -2 -11 -6
-31 -10 -45 -3 -14 -6 -28 -5 -32 1 -5 -2 -8 -7 -8 -5 0 -8 -11 -5 -25 2 -14
0 -25 -6 -25 -5 0 -9 -3 -9 -7 4 -28 -3 -40 -23 -39 -13 1 -29 -4 -36 -11 -7
-6 -21 -10 -32 -8 -11 2 -20 -1 -20 -6 0 -6 -4 -8 -8 -5 -5 3 -20 -1 -33 -8
-14 -7 -33 -12 -42 -10 -10 1 -14 -2 -10 -9 4 -6 0 -8 -10 -4 -9 3 -19 2 -23
-4 -3 -6 -12 -8 -19 -5 -8 3 -15 1 -17 -5 -2 -5 -13 -11 -26 -14 -12 -2 -27
-7 -32 -10 -6 -3 -10 0 -11 7 0 7 -4 4 -9 -8 -6 -16 -16 -20 -43 -19 -20 0
-33 -3 -31 -7 3 -4 0 -8 -6 -8 -6 0 -9 -4 -6 -8 3 -5 -1 -9 -9 -9 -8 0 -15 5
-15 11 0 5 -6 2 -13 -7 -10 -14 -34 -23 -70 -26 -5 -1 -5 -5 -2 -11 3 -6 -1
-7 -9 -4 -9 4 -16 1 -16 -6 0 -10 -3 -10 -15 0 -12 10 -15 9 -15 -4 0 -13 -5
-16 -21 -11 -15 5 -19 4 -15 -4 6 -10 -6 -15 -26 -12 -5 0 -8 -4 -8 -10 0 -5
-4 -8 -9 -5 -5 3 -12 -1 -15 -10 -3 -8 -10 -13 -15 -9 -5 3 -26 -6 -46 -20
-21 -13 -41 -22 -46 -19 -5 3 -9 1 -9 -5 0 -5 -9 -13 -20 -16 -11 -4 -18 -11
-14 -16 3 -5 2 -8 -3 -7 -15 4 -53 -13 -48 -22 3 -4 -2 -11 -11 -14 -9 -4 -14
-9 -11 -12 3 -4 -1 -13 -9 -21 -8 -8 -12 -19 -9 -24 4 -5 2 -9 -4 -9 -5 0 -8
-9 -6 -20 2 -11 0 -20 -4 -20 -11 0 -10 -33 1 -47 5 -7 5 -14 -2 -18 -5 -3
-10 -13 -10 -21 0 -9 5 -12 12 -8 7 5 8 3 3 -7 -12 -18 -14 -49 -3 -43 7 5 12
-19 11 -53 -1 -7 3 -13 8 -13 5 0 9 -9 9 -21 0 -11 5 -17 10 -14 6 3 11 1 11
-4 1 -6 2 -16 3 -23 1 -14 46 -19 46 -5 0 6 3 8 6 4 4 -3 13 1 21 9 8 8 19 11
25 8 7 -4 8 -2 4 4 -4 7 -1 12 8 12 9 0 16 5 16 11 0 5 5 7 10 4 6 -3 10 -1
10 5 0 7 6 10 14 7 8 -3 17 1 20 9 3 8 12 14 21 14 8 0 15 5 15 11 0 5 5 7 10
4 6 -3 10 -1 10 4 0 6 7 11 15 11 8 0 15 5 15 11 0 5 5 7 10 4 6 -3 10 -1 10
4 0 6 9 11 21 11 11 0 17 4 14 10 -3 6 1 7 9 4 9 -3 16 -1 16 5 0 6 9 11 20
11 11 0 23 6 26 13 2 7 13 13 23 14 9 1 41 15 70 32 28 17 58 31 65 31 6 0 21
7 32 15 10 8 29 15 42 15 13 0 20 4 17 10 -4 6 5 10 19 10 14 0 26 5 26 11 0
5 5 7 10 4 6 -3 10 -1 10 6 0 7 3 9 7 6 3 -4 12 -2 20 5 7 6 16 8 20 5 3 -4
11 0 17 8 9 12 13 12 23 0 10 -11 10 -17 -3 -29 -10 -10 -11 -16 -3 -16 8 0 9
-3 0 -13 -6 -8 -8 -17 -4 -20 3 -4 2 -7 -4 -7 -6 0 -9 -9 -5 -22 4 -16 2 -19
-9 -13 -11 6 -12 5 -2 -5 10 -11 9 -16 -5 -27 -9 -8 -11 -12 -4 -8 14 7 17
-11 3 -19 -5 -4 -8 -17 -7 -31 2 -13 -1 -22 -5 -19 -8 4 -13 -40 -6 -49 1 -2
-3 -10 -9 -18 -6 -8 -10 -24 -9 -36 1 -12 -2 -20 -6 -18 -4 3 -9 -4 -12 -15
-3 -11 0 -20 5 -20 7 0 6 -5 -1 -14 -6 -7 -12 -25 -13 -40 -1 -14 -6 -26 -10
-26 -4 0 -5 -9 -3 -20 2 -11 -1 -20 -6 -20 -6 0 -8 -4 -5 -9 4 -5 0 -12 -6
-14 -10 -4 -9 -6 1 -6 11 -1 10 -6 -5 -23 -10 -12 -13 -18 -5 -13 11 6 13 4 8
-9 -4 -10 -7 -22 -7 -27 0 -6 -4 -7 -10 -4 -6 4 -7 -1 -3 -10 3 -10 0 -21 -8
-26 -11 -6 -11 -9 -1 -9 10 0 10 -5 1 -23 -7 -12 -12 -23 -11 -24 1 -2 2 -4 1
-5 -6 -20 -11 -47 -12 -65 0 -13 -5 -23 -10 -23 -5 0 -4 -7 3 -15 10 -12 10
-15 -3 -15 -9 0 -14 -7 -12 -17 1 -10 -3 -31 -10 -48 -6 -16 -10 -36 -8 -42 3
-7 1 -13 -5 -13 -5 0 -8 -13 -7 -30 1 -16 -2 -30 -7 -30 -5 0 -6 -4 -3 -10 3
-5 2 -10 -4 -10 -6 0 -8 -12 -5 -29 4 -21 2 -30 -11 -35 -14 -5 -15 -9 -5 -21
7 -8 8 -15 3 -15 -5 0 -10 -10 -11 -22 -2 -13 -4 -32 -6 -43 -2 -11 -4 -24 -5
-28 0 -5 -4 -6 -9 -3 -4 2 -7 -11 -6 -30 1 -19 -3 -34 -8 -34 -6 0 -5 -7 2
-16 11 -12 11 -14 1 -12 -8 2 -14 -11 -16 -36 -3 -22 -10 -43 -17 -48 -10 -6
-10 -8 2 -8 9 0 11 -3 5 -8 -6 -4 -11 -22 -10 -41 0 -19 -6 -41 -13 -48 -10
-10 -11 -17 -3 -27 6 -7 8 -16 5 -19 -4 -4 3 -5 15 -2 11 2 21 0 21 -4 0 -8 9
-10 55 -13 14 -1 25 -6 25 -11 0 -5 6 -4 14 2 8 7 16 8 19 4 8 -13 149 -8 175
6 16 9 22 19 19 32 -3 10 0 17 7 16 6 -1 10 7 8 19 -1 12 4 26 12 33 8 7 12
19 9 27 -3 8 1 22 8 31 12 14 12 16 -1 8 -12 -7 -13 -6 -3 7 7 8 10 18 6 21
-3 4 -1 7 6 7 7 0 9 4 6 10 -3 5 0 10 7 10 10 0 10 2 -1 9 -9 6 -10 11 -2 15
6 4 9 12 6 17 -4 5 -2 9 4 9 6 0 8 6 5 14 -3 8 -1 17 5 20 6 4 8 13 4 21 -3 8
-1 15 5 15 6 0 9 8 7 17 -1 10 0 23 4 28 3 6 6 16 7 23 2 8 6 21 10 30 4 9 9
28 11 42 2 13 10 31 16 39 10 12 9 13 -3 6 -12 -7 -13 -6 -3 7 7 8 10 18 6 21
-3 4 -1 7 6 7 7 0 11 6 8 14 -4 9 1 17 11 19 15 4 14 5 -2 6 -16 1 -17 3 -5
17 13 15 17 29 21 67 1 9 6 17 11 17 5 0 5 9 2 20 -4 13 -2 20 6 20 7 0 10 3
6 6 -3 4 0 21 7 38 7 17 11 37 9 44 -3 6 0 12 6 12 5 0 8 9 6 20 -2 11 0 20 6
20 5 0 9 14 9 30 0 17 4 30 8 30 5 0 8 15 7 34 0 19 3 32 7 30 4 -3 9 -2 9 3
1 4 3 18 5 30 2 13 5 32 6 43 2 12 10 25 18 30 11 7 11 10 2 10 -8 0 -10 5 -5
13 8 12 13 32 15 55 1 6 6 12 11 12 5 0 7 7 3 15 -3 8 0 15 6 15 7 0 6 5 -2
15 -10 12 -9 16 3 21 9 3 13 12 10 21 -4 10 -2 14 4 10 5 -3 9 3 8 16 -1 12 2
28 8 35 5 6 6 12 2 12 -4 0 -3 6 2 12 6 7 9 21 7 31 -2 14 2 17 14 12 13 -5
14 -4 5 6 -9 9 -9 20 2 47 18 42 18 45 3 37 -7 -4 -6 -1 2 7 8 7 17 24 18 38
2 14 8 27 13 28 6 2 5 10 -2 18 -9 11 -8 15 3 19 10 4 14 18 13 41 -1 26 2 33
12 29 10 -3 13 1 8 15 -4 11 -2 20 4 20 6 0 7 7 4 17 -4 11 -3 14 5 9 7 -4 12
-2 12 3 0 6 3 10 8 9 4 -1 16 2 27 8 11 5 31 9 45 9 14 0 31 7 38 15 12 13 13
13 6 0 -5 -12 -4 -12 6 -3 7 6 19 9 26 6 8 -3 14 0 14 6 0 6 3 10 8 10 4 -1 9
-1 12 1 5 1 33 7 75 14 11 2 19 10 17 17 -3 10 0 10 12 -1 10 -7 16 -8 16 -2
0 6 9 9 20 7 11 -2 26 3 34 11 18 17 29 18 21 2 -4 -7 1 -4 9 6 10 12 16 15
16 7 0 -9 6 -11 18 -6 9 4 23 8 30 8 6 0 12 4 12 9 0 5 4 7 9 4 5 -4 12 0 14
6 4 10 6 10 6 0 1 -10 6 -10 21 -2 11 6 24 9 29 6 5 -3 14 0 19 7 6 7 29 13
52 12 30 -1 40 3 40 14 0 13 2 13 9 2 6 -9 10 -10 16 -2 5 9 10 9 21 0 11 -9
14 -9 14 1 0 8 9 11 25 8 14 -3 25 -1 25 4 0 5 6 8 13 5 6 -2 20 3 30 11 16
15 17 14 11 -4 -7 -16 -6 -17 8 -6 9 7 32 14 51 16 19 2 40 6 45 10 6 3 13 0
15 -6 4 -10 6 -10 6 0 1 7 6 10 11 7 6 -3 10 -2 10 2 0 5 20 9 45 8 25 0 45 4
45 10 0 5 4 4 9 -4 6 -9 11 -10 15 -3 4 6 14 8 23 5 11 -5 14 -3 8 6 -6 10 -3
11 14 2 17 -10 21 -9 21 4 0 9 5 13 10 10 6 -4 7 -12 3 -18 -4 -7 0 -6 10 2 9
7 17 10 17 7 0 -4 9 -2 19 4 14 7 21 6 24 -3 4 -9 6 -8 6 2 1 11 4 11 16 1 12
-10 15 -10 15 0 0 8 3 10 7 7 3 -4 13 -1 21 6 11 8 14 9 9 0 -5 -8 -1 -11 12
-10 11 0 17 5 15 9 -6 10 -6 10 34 -1 23 -7 30 -7 26 1 -5 7 -1 9 9 5 10 -4
17 -1 17 6 0 8 3 7 9 -2 8 -12 12 -12 25 -2 10 9 16 10 16 2 0 -7 8 -8 25 -1
34 13 44 -12 21 -49 -7 -11 -6 -12 5 -6 11 7 12 6 2 -7 -7 -8 -10 -18 -6 -21
3 -4 1 -7 -6 -7 -7 0 -9 -5 -6 -10 4 -6 1 -18 -6 -26 -6 -8 -9 -17 -5 -21 3
-3 -1 -17 -9 -29 -10 -15 -11 -24 -3 -26 7 -3 5 -10 -6 -20 -19 -20 -21 -32
-3 -23 6 4 4 0 -6 -8 -14 -11 -15 -16 -5 -20 8 -3 9 -6 1 -6 -6 -1 -9 -10 -5
-23 4 -16 2 -19 -8 -13 -9 5 -11 4 -6 -4 4 -6 1 -25 -8 -41 -8 -17 -10 -32 -5
-35 5 -4 3 -16 -5 -28 -8 -12 -12 -30 -11 -39 2 -10 -1 -18 -6 -18 -4 0 -6 -6
-3 -14 3 -8 1 -17 -5 -21 -6 -3 -11 -19 -11 -36 0 -16 -4 -29 -9 -29 -6 0 -8
-9 -6 -20 2 -11 1 -20 -4 -20 -4 0 -7 -12 -6 -27 0 -16 -3 -30 -7 -33 -3 -3
-8 -17 -10 -30 -2 -14 -7 -31 -11 -37 -5 -7 -6 -17 -2 -22 3 -5 1 -12 -5 -16
-6 -4 -8 -11 -5 -16 4 -5 2 -9 -4 -9 -5 0 -8 -9 -6 -20 2 -11 0 -20 -5 -20 -5
0 -7 -7 -4 -15 4 -8 1 -15 -6 -15 -6 0 -9 -4 -6 -9 8 -13 -5 -72 -14 -66 -4 3
-6 -9 -5 -25 1 -17 -2 -30 -9 -30 -7 0 -6 -4 2 -9 11 -7 11 -9 -2 -14 -9 -4
-16 -22 -18 -49 -2 -24 -8 -42 -14 -41 -6 1 -9 -8 -7 -21 3 -13 0 -34 -7 -46
-9 -17 -9 -21 0 -15 9 5 9 2 1 -14 -6 -12 -16 -30 -22 -42 -8 -17 -8 -19 3
-13 10 6 11 5 1 -8 -7 -8 -10 -18 -6 -21 3 -4 2 -7 -4 -7 -5 0 -10 -17 -11
-37 -1 -21 -6 -39 -12 -41 -6 -2 -8 -8 -4 -13 3 -5 0 -9 -6 -9 -7 0 -8 -6 -2
-17 8 -17 -9 -69 -19 -59 -3 3 -4 -15 -4 -39 0 -28 -4 -40 -10 -35 -6 5 -10
-3 -9 -23 0 -18 -4 -38 -10 -45 -5 -8 -11 -32 -14 -55 -2 -23 -8 -44 -13 -47
-5 -4 -10 -25 -12 -47 -1 -23 -5 -39 -8 -37 -4 2 -10 -3 -13 -12 -3 -8 -2 -12
4 -9 6 3 10 1 10 -4 0 -6 -5 -11 -11 -11 -6 0 -9 -9 -6 -20 3 -11 1 -20 -4
-20 -4 0 -5 -7 -2 -17 5 -12 3 -14 -7 -8 -10 6 -12 4 -7 -7 3 -9 0 -21 -6 -28
-9 -10 -9 -11 3 -5 13 8 13 7 1 -8 -7 -9 -10 -17 -5 -17 5 0 3 -4 -4 -9 -11
-7 -9 -13 10 -31 12 -13 17 -19 9 -15 -9 5 -12 4 -8 -3 4 -5 15 -9 25 -7 9 1
26 -5 36 -14 16 -13 18 -13 11 -1 -6 12 -5 13 6 3 7 -7 28 -13 47 -13 19 0 31
-4 27 -10 -3 -6 1 -7 9 -4 9 3 16 11 17 18 0 6 4 2 9 -9 6 -13 9 -15 9 -5 1
13 2 13 11 0 6 -9 10 -11 10 -3 0 7 7 10 15 7 8 -4 15 -1 15 6 0 6 3 9 8 7 4
-3 13 1 20 9 7 8 9 14 5 14 -4 0 0 5 10 11 9 6 15 15 11 20 -3 5 -1 16 6 24 8
10 8 15 0 20 -8 5 -6 13 5 25 9 10 14 23 11 29 -4 5 2 14 11 20 12 7 13 10 4
11 -11 0 -11 3 -1 15 7 8 9 15 5 15 -4 0 -3 6 3 13 10 12 12 17 12 38 0 5 4 8
8 5 5 -3 8 5 7 17 -1 12 5 30 13 40 15 16 14 17 -4 12 -19 -7 -19 -6 0 9 11 9
17 19 13 22 -4 4 1 13 11 21 9 8 11 12 5 8 -7 -3 -13 -1 -13 4 0 6 4 11 10 11
5 0 9 3 8 8 -1 4 5 27 12 52 8 25 14 48 16 53 1 4 3 9 4 12 1 3 4 10 5 15 1 6
4 13 5 18 2 4 4 12 5 17 7 37 19 65 27 65 5 0 7 4 4 9 -4 5 -1 22 6 38 6 15
10 32 9 37 -1 4 3 13 8 20 5 6 11 22 13 36 1 14 6 27 10 30 6 5 18 50 20 78 1
6 5 12 9 12 4 0 10 7 13 16 3 8 2 12 -4 9 -5 -3 -1 15 10 40 11 26 18 51 15
55 -3 5 3 13 12 19 12 7 13 10 4 11 -11 0 -11 3 -1 15 7 9 13 25 14 38 1 13 7
21 16 19 11 -3 11 0 0 12 -9 12 -9 16 -1 16 7 0 9 5 6 10 -4 6 -2 17 4 24 6 7
12 27 14 45 2 18 8 36 13 39 5 4 9 12 10 17 3 35 18 74 27 68 6 -3 7 -1 3 5
-10 17 4 63 18 55 6 -4 5 0 -2 9 -9 12 -10 18 -2 23 6 4 9 14 6 22 -3 8 -2 12
3 9 11 -7 25 60 16 74 -4 6 -1 9 7 8 7 -2 14 8 16 22 2 14 9 31 14 38 6 7 8
15 4 19 -3 3 1 17 9 30 9 13 13 28 10 33 -3 6 -1 10 6 10 7 0 9 3 6 7 -4 3 -1
13 6 21 9 13 9 14 0 8 -9 -5 -11 -2 -7 8 3 9 11 16 16 16 6 0 8 9 5 20 -3 11
-1 20 4 20 4 0 5 7 2 17 -4 10 -2 14 5 9 7 -4 10 1 7 14 -2 11 1 22 6 25 5 4
7 10 4 15 -3 4 1 13 9 19 8 7 12 21 9 31 -3 12 0 20 6 20 7 0 10 4 7 9 -3 5 1
25 9 45 8 20 12 36 8 36 -4 0 2 7 13 16 10 8 13 13 7 9 -15 -7 -18 11 -4 20 6
3 8 14 6 25 -2 12 0 18 6 15 8 -6 13 8 10 28 -1 4 4 18 11 30 11 20 15 34 20
75 1 6 5 12 10 12 5 0 7 4 3 9 -3 5 -1 12 4 15 5 4 8 17 7 31 -2 14 3 26 12
30 8 3 12 13 9 25 -3 11 -2 20 2 20 4 0 8 6 9 13 6 48 16 76 25 70 5 -3 7 -2
4 4 -3 5 0 22 8 37 10 18 10 25 2 20 -9 -5 -9 -4 0 6 6 7 9 19 6 28 -5 11 -3
13 7 7 10 -6 11 -2 6 19 -5 19 -2 28 8 32 8 3 13 14 11 25 -2 10 1 19 7 19 6
0 9 3 5 6 -3 4 0 18 7 33 7 14 12 34 11 44 -2 9 1 17 6 17 6 0 7 5 4 10 -3 6
-2 10 2 10 5 0 10 12 11 26 1 15 7 33 13 40 6 7 8 18 4 24 -3 5 -2 10 4 10 6
0 8 7 5 15 -4 8 -1 15 6 15 6 0 8 5 5 10 -3 6 -2 10 3 10 5 0 8 13 7 30 -1 16
4 31 11 34 7 3 11 14 9 25 -2 11 0 23 6 26 5 4 9 15 9 26 0 11 4 18 9 15 5 -4
7 3 4 14 -3 11 0 20 6 20 5 0 8 7 5 15 -4 9 -1 15 7 15 10 0 10 3 2 11 -9 9
-7 17 7 32 11 11 17 24 14 28 -2 4 2 24 10 43 8 19 12 37 8 40 -3 3 -1 6 5 6
6 0 9 9 5 22 -4 16 -2 19 9 13 11 -7 11 -5 -1 10 -9 11 -10 16 -2 11 11 -6 17
11 13 37 0 4 3 7 7 7 5 0 9 6 10 13 1 12 9 47 12 57 1 3 2 8 1 13 0 4 3 7 8 7
6 0 8 9 6 20 -2 11 1 20 6 20 6 0 7 5 4 10 -3 6 -2 10 2 10 5 0 9 8 10 18 3
35 10 56 21 60 7 2 10 8 6 13 -3 5 2 32 11 59 9 27 14 54 10 60 -4 6 -1 9 5 8
12 -3 17 12 22 59 1 12 6 19 10 17 7 -4 13 35 9 59 0 4 4 7 10 7 5 0 7 5 4 10
-3 6 -2 10 4 10 5 0 8 9 6 20 -2 11 3 24 13 30 14 8 14 9 2 10 -13 0 -13 1 0
10 8 5 11 12 7 16 -4 4 -2 13 4 21 6 7 8 13 5 13 -4 0 -1 7 7 15 9 8 13 24 10
35 -3 11 0 20 6 20 6 0 10 3 10 8 -1 4 -1 9 1 12 1 3 3 16 6 30 2 14 7 32 11
40 3 8 7 18 8 23 2 4 4 9 5 12 1 3 3 13 4 23 1 9 7 27 14 40 7 12 10 22 6 22
-3 0 -1 7 6 15 6 8 9 18 6 24 -3 5 1 12 10 15 8 3 12 11 9 16 -4 6 -1 18 7 27
11 14 11 16 -2 8 -13 -8 -13 -7 -1 8 7 9 10 17 6 17 -4 0 -2 6 4 13 6 8 7 18
3 22 -4 5 2 5 12 1 15 -5 16 -4 8 7 -7 8 -7 18 -2 27 5 8 6 18 4 22 -3 4 0 8
7 8 8 0 8 4 -1 16 -11 12 -11 15 0 12 7 -2 14 9 17 27 2 16 8 32 12 35 5 3 7
13 5 22 -1 10 5 23 14 29 13 8 14 11 4 16 -10 4 -10 8 0 21 7 10 9 14 4 10
-11 -9 -36 14 -28 26 3 5 -2 7 -11 3 -10 -4 -20 0 -26 11 -5 9 -12 16 -15 15
-16 -7 -26 -2 -20 10 6 9 5 9 -7 0 -9 -7 -20 -9 -25 -4 -15 14 -97 38 -121 36
-13 -1 -23 2 -23 6 0 4 -8 6 -17 4 -10 -1 -27 5 -38 14 -19 15 -19 15 -5 -3
14 -18 14 -19 -7 -7 -13 6 -23 8 -23 4 0 -4 -5 -1 -10 7 -8 12 -10 12 -10 1 0
-10 -3 -11 -13 -2 -10 8 -17 7 -25 -1 -7 -7 -12 -8 -12 -2 0 5 -9 10 -20 10
-11 0 -20 -4 -20 -9 0 -5 -7 -4 -16 3 -12 11 -15 11 -12 -1z"/>
<path d="M6541 4583 c-6 -10 -11 -13 -11 -8 0 18 -41 15 -61 -4 -10 -9 -21
-28 -23 -42 -2 -13 -5 -26 -6 -29 -2 -3 -2 -8 -1 -12 0 -5 -5 -8 -11 -8 -9 0
-8 -4 2 -10 8 -5 10 -10 3 -10 -6 0 -10 -13 -9 -29 1 -16 0 -29 -3 -29 -20 2
-31 -3 -26 -12 4 -6 11 -7 17 -4 6 4 4 -3 -5 -16 -12 -17 -14 -28 -6 -43 8
-14 8 -18 0 -13 -6 4 -11 0 -11 -9 0 -10 -5 -14 -12 -9 -10 5 -10 4 -1 -6 11
-12 10 -19 -16 -69 -10 -19 -10 -22 1 -15 11 6 11 5 0 -9 -8 -9 -11 -21 -7
-27 3 -5 2 -10 -2 -10 -5 0 -9 -8 -10 -17 -2 -28 -8 -52 -15 -59 -4 -3 -4 -12
-1 -20 3 -8 1 -14 -4 -14 -5 0 -10 -17 -11 -37 -2 -21 -7 -40 -11 -43 -5 -3
-11 -21 -14 -40 -4 -19 -11 -55 -17 -80 -5 -25 -13 -55 -15 -68 -3 -13 -9 -21
-13 -18 -5 3 -7 -8 -6 -25 1 -16 -2 -32 -7 -35 -5 -3 -7 -10 -3 -15 3 -5 0
-16 -6 -24 -6 -8 -9 -19 -5 -25 3 -5 2 -10 -4 -10 -6 0 -8 -7 -5 -15 4 -8 2
-15 -3 -15 -5 0 -10 -10 -11 -22 -3 -42 -7 -63 -18 -83 -6 -11 -10 -32 -9 -47
0 -15 -3 -24 -9 -21 -5 4 -7 -1 -3 -10 3 -10 2 -17 -3 -17 -5 0 -6 -7 -3 -17
5 -11 3 -14 -6 -8 -10 6 -11 3 -1 -15 8 -15 8 -20 1 -16 -9 6 -17 -17 -8 -27
1 -2 -6 -15 -15 -29 -12 -19 -14 -29 -7 -34 7 -4 8 -9 1 -13 -9 -5 -21 -50
-24 -88 -1 -7 -4 -13 -7 -13 -4 0 -8 -12 -9 -26 -1 -15 -6 -32 -11 -38 -5 -6
-8 -22 -7 -36 1 -14 -5 -31 -12 -39 -11 -12 -11 -15 0 -22 10 -7 10 -9 -1 -9
-8 0 -11 -3 -8 -7 4 -3 -1 -15 -10 -26 -10 -11 -12 -17 -5 -13 6 4 12 2 12 -3
0 -6 -4 -11 -8 -11 -4 0 -8 -8 -9 -18 -2 -31 -8 -47 -18 -54 -6 -5 -4 -8 5 -8
13 -1 13 -2 0 -13 -9 -7 -16 -20 -17 -29 0 -10 -1 -22 -2 -27 -1 -10 -26 -9
-37 2 -5 5 -37 -6 -50 -17 0 -1 -9 6 -19 14 -11 8 -16 10 -12 4 5 -8 -10 -11
-48 -10 -30 0 -55 -3 -55 -8 0 -5 -7 -3 -15 4 -12 10 -15 10 -15 0 0 -7 -6
-10 -14 -7 -8 3 -17 3 -21 -1 -4 -4 -37 -7 -73 -8 -37 0 -78 -4 -91 -9 -18 -5
-22 -4 -17 6 4 8 0 5 -8 -5 -9 -11 -16 -15 -16 -10 0 6 -7 11 -15 11 -8 0 -12
-4 -9 -8 2 -4 -18 -7 -46 -6 -27 1 -50 -1 -50 -5 0 -4 -10 -7 -22 -7 -13 1
-39 -2 -58 -6 -19 -4 -47 -8 -62 -9 -15 -1 -30 -5 -34 -9 -4 -4 -13 -2 -20 3
-8 8 -16 7 -26 -3 -7 -7 -19 -12 -26 -9 -7 2 -19 -2 -28 -9 -11 -9 -18 -9 -26
-1 -8 8 -18 6 -39 -9 -17 -12 -30 -15 -34 -9 -4 7 -12 7 -26 0 -10 -6 -19 -8
-19 -4 0 3 -6 1 -13 -5 -20 -16 -28 -2 -15 23 7 11 11 29 9 40 -1 10 2 15 7
12 11 -7 11 12 -1 30 -4 7 0 15 9 18 8 3 13 10 10 14 -3 5 1 18 8 28 10 13 11
23 4 31 -7 9 -7 13 1 13 7 0 9 5 6 10 -3 6 -2 10 3 10 5 0 9 10 8 23 -1 12 5
28 14 35 10 10 11 11 1 6 -10 -5 -12 -3 -5 7 5 8 10 25 12 39 2 13 9 31 15 39
10 12 9 13 -3 6 -12 -7 -12 -5 1 11 9 10 14 25 11 33 -2 8 0 11 5 8 6 -4 9 4
7 18 -1 14 2 25 7 25 6 0 7 5 4 11 -4 5 1 19 11 30 9 10 12 19 6 19 -6 0 -13
-6 -15 -12 -4 -10 -6 -10 -6 0 -1 7 6 15 14 18 8 4 13 9 10 13 -2 4 3 30 12
57 8 27 15 58 15 68 -1 11 7 26 16 33 11 9 12 12 2 7 -13 -7 -13 -5 -1 9 7 9
10 17 6 17 -4 0 -2 7 5 15 10 12 10 15 -1 15 -11 0 -11 2 -1 9 7 4 14 18 15
29 1 12 5 22 10 22 5 0 5 9 2 20 -4 11 -2 20 4 20 6 0 11 12 11 27 0 14 8 35
17 45 16 18 16 19 -3 13 -17 -6 -17 -5 -3 7 9 7 15 23 14 35 -1 12 2 20 6 17
4 -2 8 4 8 13 1 41 8 65 22 74 9 6 10 9 2 9 -7 0 -10 7 -7 15 4 8 9 13 13 11
3 -2 6 6 7 17 2 30 8 60 16 72 4 6 5 23 4 37 -2 20 1 25 12 20 9 -3 13 -1 9 4
-3 6 -2 27 3 47 7 34 5 39 -20 57 -15 11 -36 20 -45 20 -9 0 -14 4 -11 9 3 4
-6 7 -19 5 -14 -1 -25 1 -25 6 0 4 -13 6 -30 5 -16 -1 -30 1 -30 5 0 4 -20 7
-45 5 -40 -2 -44 -1 -33 14 7 9 1 6 -14 -7 -17 -16 -27 -19 -30 -11 -2 7 -11
-3 -20 -22 -9 -18 -13 -36 -9 -39 4 -3 2 -15 -4 -27 -7 -13 -14 -21 -17 -18
-2 3 -5 -2 -5 -10 0 -8 5 -15 11 -15 6 0 5 -5 -2 -12 -7 -7 -12 -20 -12 -30 0
-10 -4 -18 -9 -18 -6 0 -8 -9 -6 -20 2 -11 -1 -22 -6 -25 -5 -4 -7 -11 -3 -16
3 -5 2 -15 -3 -22 -5 -7 -10 -25 -12 -41 -1 -16 -9 -36 -17 -43 -16 -17 -19
-27 -4 -18 14 8 13 1 -5 -41 -8 -19 -10 -32 -4 -28 6 3 4 -5 -5 -18 -9 -14
-13 -28 -10 -31 4 -4 1 -13 -6 -22 -10 -12 -10 -15 1 -15 11 0 11 -2 2 -8 -7
-4 -14 -17 -16 -27 -1 -11 -7 -26 -11 -34 -6 -10 -5 -12 2 -7 8 5 10 2 6 -8
-3 -9 -10 -16 -16 -16 -5 0 -6 -4 -3 -10 3 -5 3 -16 -2 -22 -8 -14 -9 -19 -11
-61 -1 -16 -6 -26 -10 -23 -5 3 -8 -15 -7 -38 0 -27 -4 -42 -10 -40 -6 3 -11
-12 -13 -33 -3 -60 -5 -64 -17 -59 -6 2 -12 -2 -12 -9 0 -7 7 -11 16 -8 14 4
14 3 1 -9 -9 -7 -15 -23 -14 -35 1 -13 -4 -23 -10 -23 -6 0 -4 -4 4 -10 12 -8
12 -10 -2 -15 -10 -4 -14 -14 -11 -26 3 -10 1 -19 -4 -19 -13 0 -12 -30 1 -30
6 0 3 -5 -7 -11 -9 -6 -15 -15 -11 -20 3 -5 0 -17 -8 -26 -11 -14 -11 -16 2
-8 12 7 13 6 3 -6 -11 -14 -29 -86 -25 -101 1 -5 -3 -8 -9 -8 -8 0 -8 -4 0
-14 9 -10 8 -16 -3 -25 -8 -7 -13 -21 -11 -32 2 -10 -1 -19 -6 -19 -6 0 -7 -4
-4 -10 3 -5 2 -10 -4 -10 -5 0 -8 -13 -6 -30 2 -16 0 -30 -5 -30 -6 0 -9 -3
-9 -7 1 -5 0 -10 -1 -13 -1 -3 -3 -13 -5 -23 -6 -34 -15 -48 -25 -42 -5 3 -10
1 -10 -4 0 -6 -10 -11 -22 -11 -13 0 -36 -7 -51 -15 -15 -8 -25 -10 -22 -5 3
5 -7 3 -21 -5 -15 -8 -31 -12 -36 -9 -4 3 -8 1 -8 -5 0 -6 -6 -8 -14 -5 -8 3
-17 0 -21 -5 -3 -6 -11 -9 -16 -6 -5 4 -9 2 -9 -4 0 -6 -7 -8 -15 -5 -8 4 -15
1 -15 -5 0 -6 -9 -11 -20 -11 -11 0 -20 -4 -20 -9 0 -6 -9 -8 -20 -6 -11 2
-20 -1 -20 -7 0 -5 -7 -7 -16 -4 -8 3 -12 2 -9 -4 6 -10 -15 -14 -44 -11 -7 2
-10 -2 -7 -7 5 -9 -39 -27 -56 -24 -4 1 -5 -4 -2 -12 4 -9 -2 -13 -20 -11 -15
2 -24 -1 -20 -6 3 -5 -1 -9 -9 -9 -8 0 -20 -7 -27 -15 -7 -9 -15 -13 -17 -11
-8 8 -64 -52 -68 -71 -2 -10 -4 -19 -5 -20 -2 -2 -3 -7 -4 -12 0 -5 -4 -13 -8
-17 -4 -4 -3 -13 3 -21 9 -10 8 -13 -2 -13 -11 0 -11 -2 1 -10 8 -5 11 -10 7
-10 -4 0 -2 -10 4 -22 12 -22 11 -22 -7 -8 -18 14 -18 14 -4 -4 8 -10 15 -25
16 -33 1 -8 10 -25 18 -39 19 -28 66 -34 66 -8 0 8 4 13 9 9 5 -3 17 2 25 11
9 8 16 13 16 9 0 -3 14 3 30 15 17 12 30 18 30 13 0 -4 5 0 11 10 6 9 14 15
18 12 5 -2 14 2 21 10 7 8 16 12 21 9 5 -3 9 0 9 6 0 6 5 8 10 5 6 -3 10 -1
10 5 0 6 5 8 10 5 6 -3 10 -1 10 5 0 6 5 8 10 5 6 -3 10 -1 10 4 0 6 9 11 20
11 11 0 20 5 20 12 0 6 3 8 7 5 3 -4 12 1 19 11 11 14 13 14 14 2 1 -13 2 -13
13 0 12 15 30 22 54 23 7 0 10 4 7 8 -6 10 33 22 46 14 6 -3 13 0 16 8 8 23
34 16 34 -10 0 -12 -5 -23 -11 -23 -5 0 -7 -5 -4 -10 4 -6 2 -16 -3 -23 -5 -7
-9 -25 -8 -41 1 -15 -4 -31 -11 -33 -10 -4 -11 -9 -2 -19 9 -11 8 -14 -1 -14
-7 0 -10 -7 -6 -15 3 -8 1 -15 -4 -15 -5 0 -7 -9 -5 -20 2 -11 0 -20 -6 -20
-5 0 -9 -13 -9 -30 0 -17 -5 -30 -12 -30 -10 0 -9 -3 1 -9 9 -6 10 -11 2 -15
-6 -4 -11 -20 -11 -36 0 -16 -4 -31 -10 -35 -5 -3 -6 -13 -3 -22 4 -9 2 -14
-3 -10 -6 3 -10 -4 -11 -16 -1 -49 -3 -58 -14 -51 -8 4 -8 0 0 -15 9 -16 9
-21 0 -21 -7 0 -9 -10 -7 -25 3 -13 2 -22 -2 -20 -4 3 -10 -10 -13 -28 -3 -17
-8 -41 -10 -52 -3 -11 -6 -28 -6 -38 -1 -10 -5 -16 -10 -13 -4 3 -7 -8 -5 -24
2 -17 0 -30 -5 -30 -4 0 -7 -11 -6 -25 2 -14 -1 -25 -6 -25 -5 0 -8 -3 -8 -7
4 -25 -2 -73 -9 -69 -4 2 -9 -5 -9 -17 -3 -48 -8 -67 -18 -67 -5 0 -3 -5 5
-10 8 -5 10 -10 4 -10 -6 0 -11 -6 -11 -12 0 -7 -2 -17 -3 -23 -5 -22 1 -46
10 -40 6 3 10 2 10 -3 0 -5 10 -9 23 -8 12 1 28 -5 35 -14 10 -13 11 -13 6 3
-5 13 -2 16 10 11 9 -3 16 -11 16 -18 0 -6 5 -4 10 4 9 13 11 13 20 0 7 -11
10 -11 10 -2 0 8 5 10 12 6 17 -11 48 -12 42 -3 -3 5 7 11 21 15 14 3 24 9 21
12 -3 2 -1 14 5 25 9 15 8 18 -3 11 -11 -6 -11 -5 1 9 7 9 10 17 5 17 -5 0 -3
4 4 9 7 4 14 26 15 48 1 23 5 39 10 36 7 -4 8 -2 12 34 1 13 8 30 16 40 12 15
12 16 -1 8 -13 -8 -13 -6 -2 8 8 9 11 21 7 27 -3 5 -2 10 4 10 5 0 8 11 7 25
-2 13 2 23 8 22 6 -1 10 6 8 16 -2 10 3 26 10 35 9 11 10 14 1 8 -9 -5 -11 -2
-7 8 3 9 9 14 14 11 4 -2 6 7 4 20 -1 14 2 27 7 31 14 8 11 26 -3 18 -7 -4 -2
5 11 19 14 15 19 27 13 27 -8 0 -9 7 -3 23 20 48 24 63 25 77 0 8 4 18 9 21 5
4 10 23 11 43 1 23 6 36 15 36 11 0 11 3 1 15 -9 10 -9 15 -1 15 6 0 11 14 11
31 0 16 4 28 9 24 6 -3 10 3 11 12 0 10 1 33 2 51 1 17 7 32 13 32 6 0 11 12
10 28 0 15 6 37 13 49 8 13 11 23 7 23 -4 0 -2 6 4 14 9 11 9 15 -1 19 -11 4
-10 6 0 6 7 1 10 6 7 11 -3 6 -2 10 2 10 5 0 10 8 11 18 1 9 4 26 6 37 2 11 5
24 5 28 1 5 5 6 9 3 4 -2 8 5 7 17 0 12 4 23 9 24 5 0 13 8 18 16 4 9 19 14
32 13 15 -2 27 3 31 13 5 13 7 14 15 1 6 -9 10 -10 10 -3 0 6 9 10 20 8 12 -2
18 0 14 6 -3 6 2 9 12 7 11 -2 18 2 17 7 -1 6 14 10 33 9 19 -1 34 2 34 6 0 5
9 7 20 5 11 -2 20 0 20 4 0 5 12 8 28 7 15 0 26 4 25 10 -1 6 5 11 13 11 7 0
14 -5 14 -11 0 -6 4 -5 9 3 5 8 16 11 25 8 9 -4 16 -1 16 6 0 8 4 6 10 -3 8
-13 14 -8 12 11 -1 3 5 6 13 6 8 0 11 -5 8 -11 -4 -6 1 -5 11 3 9 8 34 15 54
15 20 0 43 7 50 16 12 13 13 13 8 -4 -5 -15 -4 -17 7 -8 8 7 18 8 22 4 5 -4 5
-1 0 7 -6 10 -2 12 13 7 12 -4 30 -2 42 4 15 8 20 8 20 -2 0 -9 3 -9 10 2 5 8
10 11 10 5 0 -5 5 -3 10 5 5 8 10 10 10 4 0 -6 7 -11 15 -11 8 0 12 3 10 7 -2
4 17 6 43 6 30 -1 52 4 60 14 8 8 11 9 7 3 -3 -7 -2 -13 2 -13 5 0 15 6 22 13
11 10 13 10 7 0 -9 -16 -1 -16 26 -2 16 9 19 8 12 -3 -6 -11 -5 -11 8 0 13 10
17 10 21 0 4 -10 6 -10 6 0 1 19 121 17 121 -3 0 -8 -4 -15 -8 -15 -4 0 -9
-17 -10 -37 -2 -20 -8 -43 -13 -50 -6 -6 -8 -17 -4 -23 3 -5 1 -10 -5 -10 -6
0 -8 -4 -5 -10 3 -5 1 -18 -4 -29 -8 -14 -8 -21 2 -24 8 -4 6 -6 -4 -6 -11 -1
-15 -11 -14 -35 0 -19 -3 -32 -7 -30 -8 5 -12 -18 -9 -45 2 -7 -2 -10 -7 -7
-5 3 -8 -8 -7 -24 1 -17 -1 -30 -5 -30 -4 0 -7 -6 -8 -12 -4 -47 -11 -71 -23
-79 -12 -7 -12 -9 0 -9 10 0 11 -3 2 -13 -6 -8 -8 -17 -4 -20 3 -4 1 -7 -7 -7
-10 0 -10 -3 0 -15 10 -12 9 -16 -3 -20 -8 -4 -15 -17 -16 -31 -3 -47 -4 -54
-12 -54 -5 0 -6 -7 -3 -15 4 -8 2 -15 -4 -15 -5 0 -8 -11 -7 -25 2 -14 0 -25
-4 -25 -6 0 -12 -28 -14 -72 -1 -10 -8 -18 -17 -18 -13 0 -13 -1 0 -10 11 -7
12 -10 2 -10 -9 0 -11 -7 -7 -20 3 -11 2 -20 -4 -20 -5 0 -8 -9 -6 -20 2 -11
-1 -20 -7 -20 -5 0 -8 -7 -4 -15 3 -8 2 -15 -3 -15 -5 0 -7 -12 -5 -26 2 -20
-1 -24 -14 -19 -13 5 -14 3 -5 -6 8 -8 9 -19 2 -38 -6 -14 -10 -27 -10 -28 4
-12 -1 -23 -7 -19 -4 2 -7 -11 -7 -30 1 -19 -2 -34 -5 -34 -4 0 -7 -10 -6 -23
1 -14 -4 -21 -13 -19 -11 2 -12 0 -3 -11 9 -10 9 -16 0 -25 -6 -6 -13 -28 -15
-48 -5 -50 -7 -58 -14 -64 -13 -10 -18 -81 -6 -77 7 2 18 -3 26 -10 7 -8 20
-12 27 -9 8 3 14 1 14 -3 0 -5 9 -7 20 -4 13 3 20 0 20 -8 0 -11 2 -11 10 1 9
13 11 13 20 0 9 -13 12 -12 25 4 8 11 15 14 15 8 0 -10 3 -10 14 0 7 7 11 19
8 27 -3 9 -1 12 6 7 7 -4 10 1 7 14 -2 11 0 20 6 20 5 0 8 3 7 8 -4 17 15 81
22 77 5 -3 7 6 4 20 -3 19 0 25 13 25 14 0 15 2 4 9 -9 6 -10 11 -2 15 6 4 9
12 6 17 -4 5 -1 9 6 9 8 0 9 3 0 14 -9 10 -8 16 4 26 8 7 15 20 15 29 0 9 6
23 13 30 10 11 9 12 -2 6 -9 -5 -7 1 4 19 10 14 14 26 10 26 -4 0 -1 8 6 17
12 14 12 16 -1 9 -12 -6 -11 -4 1 6 9 7 14 19 12 26 -3 6 0 12 6 12 6 0 7 7 4
17 -4 9 -2 14 3 10 6 -3 9 7 8 24 -1 19 3 32 13 36 12 5 12 7 1 14 -10 7 -8 9
7 9 14 0 16 3 8 11 -12 12 0 45 22 61 6 5 6 8 -2 8 -8 0 -8 7 0 30 6 17 15 30
18 30 4 0 6 8 5 17 -2 10 2 21 8 25 7 5 6 8 -4 8 -13 0 -13 2 -1 9 8 5 16 18
18 28 6 32 8 38 17 52 7 10 5 12 -5 7 -8 -4 -5 0 5 8 11 9 16 16 12 16 -5 0
-3 6 3 14 9 11 9 15 0 18 -8 3 -8 8 2 18 8 8 15 24 15 35 0 11 4 19 10 18 5
-1 10 11 10 27 1 15 8 42 17 59 11 21 12 31 3 35 -7 3 -7 5 2 5 7 1 10 5 7 11
-3 6 -1 10 6 10 7 0 9 3 6 7 -4 3 -2 12 4 19 6 8 9 20 6 29 -4 8 1 21 10 30 9
10 14 27 11 44 -3 19 0 27 7 25 11 -5 13 1 17 50 1 14 6 22 12 19 5 -4 7 1 3
10 -4 10 -1 17 5 17 6 0 8 3 5 7 -4 3 -2 12 4 20 9 10 8 13 -2 13 -9 1 -8 4 4
11 9 6 15 14 12 20 -4 5 0 9 7 9 9 0 9 3 -2 10 -10 6 -11 10 -2 10 6 0 11 3
11 8 -3 14 14 72 20 72 4 0 7 8 7 18 1 29 8 46 24 60 13 12 12 13 -4 7 -19 -6
-19 -5 -3 13 9 10 17 28 17 40 0 12 4 22 10 22 5 0 6 7 3 17 -5 12 -3 14 7 8
9 -5 11 -4 6 4 -4 6 -2 19 6 28 9 12 9 15 1 9 -9 -5 -11 -2 -7 8 3 9 10 14 14
11 5 -3 7 3 5 12 -1 10 3 24 9 32 9 12 8 13 -4 6 -12 -7 -12 -5 1 11 9 10 15
31 14 46 -1 20 1 25 10 18 8 -7 11 0 10 25 0 19 3 35 8 35 4 0 5 5 2 10 -3 6
-1 10 5 10 7 0 10 7 6 15 -3 8 -2 15 3 15 4 0 8 7 9 15 1 8 3 22 4 30 1 8 6
15 11 15 6 0 8 3 4 6 -9 9 14 64 25 58 6 -4 6 1 -1 13 -6 11 -7 24 -3 28 4 3
7 10 7 13 1 4 6 17 13 28 6 12 9 24 6 27 -3 3 2 17 12 31 9 15 14 29 10 33 -3
3 -1 12 5 20 6 7 8 13 4 13 -4 0 0 11 8 24 12 18 13 26 4 36 -8 9 -8 11 -1 7
12 -7 23 17 31 68 3 16 9 33 15 36 6 4 8 14 5 23 -4 9 -2 16 4 16 6 0 7 5 4
10 -3 6 -2 10 2 10 5 0 10 12 11 26 1 15 6 32 12 39 5 6 7 15 3 18 -3 4 -1 7
6 7 7 0 9 4 6 10 -3 5 1 23 10 40 8 16 15 32 15 35 -1 28 1 35 10 30 6 -3 7 1
4 10 -4 8 -1 21 5 29 6 7 9 15 6 18 -3 3 2 21 10 41 8 21 12 37 8 37 -5 0 -1
5 7 10 9 5 16 21 15 37 0 15 6 34 15 41 13 12 13 12 0 6 -13 -7 -13 -5 -2 9 8
9 11 21 7 27 -3 5 -1 10 4 10 6 0 10 3 10 8 -1 4 0 10 1 15 1 4 4 12 5 17 1 6
4 12 5 15 3 7 7 22 9 36 0 5 7 7 14 3 8 -5 8 -2 -2 9 -8 11 -9 17 -3 17 6 0 9
7 6 15 -4 8 -1 15 6 15 7 0 10 7 6 15 -3 8 -1 15 4 15 6 0 9 3 9 8 -5 28 3 62
12 56 6 -3 3 5 -6 20 -17 25 -34 38 -19 14 4 -7 -6 -3 -22 9 -16 11 -35 18
-41 16 -7 -3 -13 1 -13 7 0 7 -7 10 -16 6 -9 -4 -23 -1 -30 5 -7 6 -18 8 -24
4 -5 -3 -10 -1 -10 5 0 6 -8 10 -18 8 -11 -2 -26 3 -36 11 -14 12 -16 12 -10
-2 4 -12 1 -14 -15 -10 -11 3 -18 9 -15 14 3 5 3 9 0 9 -3 0 -10 -8 -15 -17z"/>
<path d="M1520 2830 c-9 -6 -10 -10 -3 -10 6 0 15 5 18 10 8 12 4 12 -15 0z"/>
</g>
</svg>
