<?xml version="1.0" encoding="utf-8"?>
<!-- Generator: Adobe Illustrator 22.1.0, SVG Export Plug-In . SVG Version: 6.00 Build 0)  -->
<svg version="1.1" id="Layer_1" xmlns="http://www.w3.org/2000/svg" xmlns:xlink="http://www.w3.org/1999/xlink" x="0px" y="0px"
	 viewBox="0 0 2175.8 545.5" style="enable-background:new 0 0 2175.8 545.5;" xml:space="preserve">
<style type="text/css">
	.st0{fill:#7BCEF4;}
	.st1{fill:#F0F9FA;}
	.st2{fill:#30A5CC;}
	.st3{fill:#FFFFFF;}
	.st4{fill:#B6E4F5;}
	.st5{fill:#215064;}
</style>
<path class="st0" d="M2175.9,0v545.5H800.7c1.2,0.8,2.3,1.5,3.5,2.3c-14.9-0.1-46.3-0.9-87.5-2.3H-4.4V0H2175.9z"/>
<g id="mountain_bg_1_">
	<g id="left_mountain_1_">
		<path class="st1" d="M948.8,520.9c-1.3,7.1-3,13.8-4.2,18.1c-0.6,2.1-1,3.6-1.2,4.3c-0.1,0.6-0.2,1.3-0.3,2.1H800.7
			c1.2,0.8,2.3,1.5,3.5,2.3c-14.9-0.1-46.3-0.9-87.5-2.3C536,539.5,166,523.8,166,523.8s12.1-43.5,27.3-67.6c2.6-4.2,5.1-7.3,7.2-10
			c0.9-1.1,1.7-2.3,2.5-3.3c2-2.8,3.7-5.6,4.8-9.2c6.2-17,15.8-34,15.8-34l51-41.2l18.3,5l18.3-21.1c0,0,30-12,32.6-17.2
			c2.6-5.2,26.7-13.3,32.6-25.5c5.9-12.2,48.9-15.7,63.9-27.9c15-12.2,48.7-36,56-49.3c0,0,0-0.1,0.1-0.1c0.3-0.5,0.6-1,1.1-1.4
			c0.1-0.1,0.2-0.2,0.3-0.3c10.7-9.3,55.9,12.5,65.1,17.4c9.7,5.2,22.2,19.7,40.4,16.2c18.3-3.5,36.5-2.9,56.1,18.6
			c19.6,21.5,33.3,36.6,47,42.9c13.7,6.4,40.4,20.4,47,26.5c1,0.9,2.6,2.1,4.6,3.4c0.4,0.3,0.9,0.5,1.3,0.8
			c10.4,6.6,29.3,15.8,37.9,18.6c0.1,0,0.1,0,0.2,0.1c0.6,0.2,1.1,0.3,1.6,0.5c0.2,0,0.3,0.1,0.6,0.2c0.1,0,0.2,0.1,0.3,0.2
			c9.6,5.3,65.9,60.2,105.4,95.5c15.7,14,28.8,25,35.2,28.5c0,0,0.1,0,0.1,0.1c0,0,0.1,0,0.1,0c1,0.5,1.8,0.9,2.4,1
			c0.1,0,0.1,0,0.2,0C951.8,492.8,951.2,507.5,948.8,520.9z"/>
		<path class="st2" d="M948.7,520.9c-1.3,7-3,13.8-4.2,18.1c-0.6,2.1-1,3.7-1.2,4.4c-0.1,0.5-0.2,1.2-0.3,2H800.7
			c-31.6-21-57-37.7-57.7-37.7c-1-0.1-2.6-1.8-4.1-4.1c-1.6-2.3-3.1-5.2-3.8-7.3c-0.5-1.6-0.1-2.8,0.4-3.9c0.8-1.8,1.9-3.2-1.1-5.2
			c-4.8-3.2-7-4.8-17.6-6.5c-10.6-1.7-8.1-5.9-13.2-8.5c-5.2-2.6-6.6-10.8-17.6-4.6c-11,6.2-12.8-10.7-18.3-14.3
			c-5.5-3.6-12.4-21.8-16.8-24.1c-4.4-2.3-25.2-22.4-30-23.4c-4.8-1-7.3-31.6-6.6-38.3c0.8-6.7-16.4-29.4-21.9-33.3
			s-13.2-20.5-18.3-22.8c-5.2-2.3-8.5-10.1-15.4-7.2c-6.9,2.9-17.9-6.5-23.8-7.8c-5.9-1.3-0.6-30.9-6.1-33.8
			c-5.5-3-15-18.2-15.4-25.4c-0.4-7-16.3-14.5-17.1-14.9c0,0,0,0,0,0c0.3-0.6,0.7-1.1,1.2-1.5c0.1-0.1,0.2-0.2,0.3-0.3
			c10.8-9,55.8,12.6,65,17.5c9.7,5.2,22.1,19.7,40.4,16.2s36.5-2.9,56.1,18.6c19.6,21.4,33.3,36.5,47,42.9s40.4,20.5,47,26.5
			c0.9,0.8,2.1,1.7,3.6,2.8l0,0c10.3,7.1,33.9,19.3,42,20.6c0.1,0,0.1,0,0.2,0c0,0,0,0,0,0c0.1,0,0.3,0,0.4,0.1
			c57.7,9.8,111.1,93,134.6,118.3l0,0c2.5,2.7,4.7,4.8,6.5,6c0.1,0.1,0.3,0.2,0.4,0.2c0.1,0,0.2,0.1,0.2,0.1
			c0.7,0.4,1.3,0.7,1.9,0.8C951.7,492.9,951.1,507.5,948.7,520.9z"/>
		<path id="mount_left_3_" class="st2" d="M943.4,491.3c-15-2.9-79.2-104.7-144.3-125.6c-8.3-2.7-39.1-17.4-45.7-23.4L943.4,491.3z"
			/>
	</g>
	<path class="st1" d="M1811.5,536.9c6.8,2.9,13.7,5.9,20.3,8.6h-751.1l-0.7-4.7c0.6,0,1.5-1.2,2.6-3.2c5.2-9.3,14.6-35.5,14.6-35.5
		l35.2-21.8l16.2-37.8l34.5-31.1l41.3-27.1c0,0,15.2-32.9,15.9-33.6c2.2-2.1,13.1-14.4,16.8-17.1c3.7-2.7,29.9-13,35.3-16
		c0,0,29.1,14.2,53.2,15.4c24.1,1.3,51.8,3.2,67.3-6.5s74.1-34.3,85.5-31c0.2,0,0.3,0.1,0.5,0.2c0,0,0.1,0,0.1,0.1
		c1.7,0.8,4.4,2.8,7.9,5.7c0.1,0,0.1,0.1,0.1,0.1c19.1,16.1,60.6,59.1,88.4,72.7c1.3,0.6,2.5,1.2,3.7,1.7c0,0,0,0,0,0
		c4.5,1.8,8.5,2.7,11.9,2.4c1.6-0.1,3.1-0.1,4.6,0c0,0,0,0,0.1,0c2.3,0.2,4.5,0.8,6.6,1.7c0.2,0.1,0.4,0.1,0.5,0.2
		c0.2,0.1,0.3,0.1,0.5,0.2c13.1,5.9,22.4,22.5,31.2,34.6c0,0,0,0,0,0.1c3.7,5.2,7.4,9.6,11.2,12c0,0,0,0,0,0c1,0.6,2,1.2,3.1,1.5h0
		c0.2,0.1,0.3,0.1,0.5,0.2c1.6,0.4,3.2,1.3,4.7,2.4c0,0,0,0,0,0c11.6,8.8,20.6,36.2,30.8,49.2c0,0,0,0,0,0c1,1.2,2,2.4,3,3.3
		c0,0,0,0,0.1,0.1c1.3,1.2,2.7,2.2,4.1,2.8c3.9,1.8,8.2,4.6,13,8.1c0,0,0.1,0,0.1,0c3,2.1,6.1,4.4,9.4,6.8c0,0,0,0,0.1,0.1
		c11.9,8.7,26.2,18.3,43,22.8C1787.5,527,1799.4,531.8,1811.5,536.9z"/>
	<path class="st1" d="M2096.4,545.5h-194.7c18.1-10.1,37.7-23.4,46.1-27.6c13.3-6.7,44.9-29,58.7-24.4h0c0.8,0.3,1.5,0.6,2.2,1.1
		c8.1,5.6,18.5,10.3,31,14.9c0.3,0.1,0.7,0.3,1,0.4c0,0,0,0,0,0c6.1,2.2,12.7,4.4,19.8,6.7c22.3,7.1,25,17.5,35.5,28.4
		C2096.1,545.2,2096.2,545.3,2096.4,545.5z"/>
	<path class="st2" d="M1813.6,545.1c0,0.1,0,0.3-0.1,0.4h-254.3c-0.9-4-1.5-8-1.4-11.2c0.4-9.4,13.7-12.8,12.4-18.8
		c-1.3-6.1,0.4-18.6,2-29c1.6-10.4,5.2-12.2,0-18.2c-5.2-6-19.5-37-19.5-37s-13-37.5-22.8-44.4c-9.8-7-6.5-38-17.6-37.2
		c-11,0.8-18.2-54.5-13.9-54.2c0.1,0,0.3,0.1,0.5,0.2c0,0,0.1,0,0.1,0.1c1.3,0.7,4.1,2.7,7.9,5.7c0.1,0,0.1,0.1,0.1,0.1
		c22.5,17.5,80.4,67.4,88.4,72.7c0.2,0.1,0.3,0.2,0.5,0.3c1.1,0.6,2.1,1,3.2,1.4c0,0,0,0,0,0c4.9,1.6,10.2,1.3,16.5,2.5
		c0,0,0,0,0.1,0c1.9,0.3,3.9,0.8,6.1,1.5c0.2,0,0.3,0.1,0.5,0.2c0.2,0.1,0.4,0.1,0.5,0.2c0.2,0.1,0.3,0.1,0.5,0.2
		c9.4,4.6,23.7,24.3,31.2,34.6c0,0,0,0,0,0.1c1.2,1.7,2.3,3.1,3,4.2c3.6,4.9,5.2,6.3,8.1,7.8c0,0,0,0,0,0c0.9,0.4,1.9,0.9,3.1,1.5h0
		c1.4,0.6,3,1.4,5,2.5c0.1,0,0.1,0.1,0.2,0.1c0,0,0,0,0,0c9.5,5.4,25.3,40.6,30.8,49.2c0,0,0,0,0,0c0.1,0.2,0.3,0.4,0.4,0.6
		c0.8,1.2,1.7,2.1,2.6,2.7c0,0,0,0,0.1,0.1c4.5,3.2,9.6,0.8,16.9,10.7c0.1,0,0.1,0.1,0.2,0.2c0,0,0.1,0,0.1,0
		c3.1,2.4,6.2,4.7,9.4,6.8c0,0,0,0,0.1,0.1c33.7,22.6,71.9,30.3,71.9,30.3s2.9,1.9,5,5C1813.1,539.1,1814.2,541.9,1813.6,545.1z"/>
	<path class="st2" d="M2061.1,545.5c-4.1-3.7-8.8-7.4-13.9-10.4c-11.9-7-15.8-6.1-26.2-10.3c-10.3-4.2-16-30.9-14.6-31.3h0
		c0,0,0,0,0,0c1.5,0,8.4,4.6,33.2,16c0.2,0.1,0.4,0.2,0.6,0.3c0.1,0,0.3,0,0.4,0.1c0,0,0,0,0,0c30.8,6.5,40,17.5,46.9,22.2
		c4.2,2.9,9.1,9,12.4,13.4H2061.1z"/>
</g>
<g id="snow_2_">
	<path class="st3" d="M800.7,545.5c1.2,0.8,2.3,1.5,3.5,2.3c-14.9-0.1-46.3-0.9-87.5-2.3H2V457c0,0,36.8-11.8,201-14.2
		c18.7-0.3,39.1-0.4,61.2-0.4c98,0,270.5,23,471.3,50.1c68.4,9.2,140,19,213.2,28.4c0,0,0,0,0.1,0c44.2,5.7,89,11.3,133.9,16.6
		c22.8,2.7,45.6,5.4,68.4,7.9H800.7z"/>
</g>
<g id="snow_shadows">
	<path class="st4" d="M1151.1,545.5h-169c-12.5-2.1-25-4.3-37.5-6.4c0,0-0.1,0-0.1,0c-69.6-11.9-138.9-24-205.6-35.4
		c-191.8-32.6-361.5-59.2-450.8-59.2c-34.3,0-62.5,0.5-87.6,1.7c-22.5,1-42.5,2.5-62,4.3C33.9,460.6,2,470.3,2,470.3V457
		c0,0,36.8-11.8,201-14.2c18.7-0.3,39.1-0.4,61.2-0.4c98,0,270.5,23,471.3,50.1c68.4,9.2,140,19,213.2,28.4c0,0,0,0,0.1,0
		c44.2,5.7,89,11.3,133.9,16.6C1105.4,540.3,1128.3,542.9,1151.1,545.5z"/>
</g>
<path id="clouds" class="st3" d="M257.6,160.8c0-8.3-6.7-15-15-15h-0.8c-3.4-8.1-11.4-13.4-20.2-13.4h-1.3
	c-4.1-14.2-17.1-24.5-32.6-24.5c-16,0-29.5,11.1-33,26.1c-8.1,2.5-14.1,9.8-14.9,18.6c-1.7-0.5-3.6-0.8-5.4-0.8
	c-7.3,0-13.7,4.1-17,10.1h140.1v0.1C257.5,161.6,257.6,161.2,257.6,160.8z M1710.8,253.9c-3.3-9.8-13.9-9-22.1-4.9
	c-2.4-30.2-35.1-19.6-39.2,4.1c-15.5-3.2-40.9-2.4-50.7,12.3c0,0,93.4-0.4,140.4-0.4C1731.1,257.6,1721.4,250.6,1710.8,253.9z
	 M2088.7,106.8c0-8.3-6.7-15-15-15h-0.8c-3.4-8.1-11.4-13.4-20.2-13.4h-1.3c-4.1-14.2-17.1-24.5-32.6-24.5c-16,0-29.5,11.1-33,26.1
	c-8.1,2.5-14.1,9.8-14.9,18.6c-1.7-0.5-3.6-0.8-5.4-0.8c-7.3,0-13.7,4.1-17,10.1h140.1v0.1C2088.6,107.6,2088.7,107.2,2088.7,106.8z
	"/>
<g>
	<path class="st5" d="M896.5,255.8c0.8-0.1,3.8-0.4,5-0.1l0.2,0.1l1.3-0.1c1.3,0.1,2.3,0.6,3.2,1.7c0,0,0,0.2,0.5,0.1
		c0.6,1.1,0.1,1.9-1,2.2c-1.8,0-4,0.1-6.9,0.4l-1,0.1c-2.7,0.2-5.6,0.6-8.6,0.6c-4.9,0.4-9.4,0.5-14.4,0.9c-2.1,0.2-3.8,0.1-5.8,0.3
		c-1.7,0.3-2.8-0.8-3-3.3c0-0.6,0.2-1,0.7-1c2.7-0.2,4.8-0.4,6.2-0.6c0,0,0.5-0.2,0.9-0.2c3.9-0.9,5.8,0.5,7.3-2.8
		c1.5-3.3,3.7-9.9,4.9-13.4c6.3-16,12.6-32.4,19.3-48.8c0,0.2,0.2,0.1,0.2,0.1c0,0.5,0.2,0.3,0.2,0.3l0.8-2.3l-0.3,0.2V190
		c3.5-8.6,5.8-14.7,6.8-18.2c1-3.6,2.2-6.7,3.8-9.6c-4,0.3-7.9,0.1-11.2,0.8c-2.7,0.5-4.2-0.6-4.4-3.5c-0.1-0.8,0.4-1.3,1.2-1.4
		c6.2-0.9,12.2-1.6,18.1-2c0.2,0,0.7,0.1,1.1,0.1c2.1-0.5,3.6-0.6,4.9-0.4l-0.1,0.5c0.5,0.1,1,0.2,1.3,0.1c0.8,0.4,1.3,0.5,1.3,0.5
		c0.8-0.2,0.5-0.2-0.6,0.2c-1.1,0.2-1.4,0.3-0.7-0.3c0,0,0.8-0.1,2.2-0.2c0.5,0,1.3-0.3,2.2-0.5l-1.5-0.7c1.6-0.4,3-0.4,4.2,0
		l-1.4,0.6h-0.2l-1.1,0.1c0.5,0.1,0.8,0.1,1.3-0.1c1.7,0.8,3.1,0.7,4.2-0.2l-1.3-0.5c0.5-0.4,0.9-0.6,1.1-0.6c1.3-0.1,2.2,0,3.5-0.1
		c1.8-0.1,3.3,0.6,4.3,1.9c0,0,0.2,0.1,0.5,0.3c0.9,1.7,0.5,2.8-1.2,3.1c-4.3,0.2-7.2,0.4-8.8,0.5c-1.4-0.1-4.2,0.2-8,0.4
		c-1.9,4.5-3.9,9.9-6.2,16.2c-2.3,6.1-4.2,10.9-6,14.4c-5.1,10.5-9.2,20.4-12.2,30.1c-3,9.5-6.6,19.4-10.6,29.7
		C891.4,256,891.5,256.2,896.5,255.8L896.5,255.8z M885.6,245.8c-0.2,0,0,0.2,0.3,0.3c0,0,0-0.2,0.1-0.2v-0.5
		C885.8,245.5,885.6,245.7,885.6,245.8L885.6,245.8z M887.9,240.1c-1.3,1.9-2,3.5-1.9,5.1C887.4,243.5,888,241.8,887.9,240.1z
		 M886.1,245.5v-0.3V245.5z M889.1,243c-0.5,1.8-0.9,3.1-1.3,4.1c0,0,0.2,0.3,0.3,0.3h0.5c1.1-2.3,1.6-4.1,1.5-5.2
		C889.4,242.7,889.1,242.9,889.1,243L889.1,243z M888.4,239.5c0,0-0.3-0.1-0.4-0.6c0,0.2,0,0.3-0.1,0.5v0.5
		C888.1,239.9,888.2,239.7,888.4,239.5z M887.9,239.9v0.2V239.9z M888.5,236.8c0,0.2,0.2,0.5,0.2,0.5c0.1-0.2,0.3-0.2,0.3-0.3
		c0,0,0.1-0.2,0.1-0.6C888.8,236.6,888.6,236.8,888.5,236.8L888.5,236.8z M891,236.1c-0.2-0.9-0.6-1.6-0.8-2h-0.6
		c-0.1,0.6-0.5,1.5-0.5,2.1C889.8,235.9,890.5,235.9,891,236.1L891,236.1z M891.7,239.3V239l-0.2-0.3c-0.5-0.3-0.7-0.3-0.6,0
		c-0.6,0.5-0.8,1.7-0.7,3.3L891.7,239.3z M890.2,242.1v-0.2V242.1z M891.3,236.1H891H891.3z M891.7,237c0,0,0.3,0,0.5-0.2
		c0.1-0.7,0.5-1.5,0.9-2.3c0,0-0.2-0.5-0.2-0.6c-0.2,0-0.3,0-0.5,0.2c-0.6,0.7-1,1.4-1.1,2C891.3,236.3,891.5,236.6,891.7,237
		L891.7,237z M897,223.8l-0.2-0.3l-0.1,0.3l0.2,0.1L897,223.8z M899.1,219.6c-0.2,0-0.3-0.3-0.3-0.3c-0.6,0.2-0.9,0.9-1.1,0.9v0.3
		c0,0,0.2,0.1,0.3,0.1c0.5-0.2,0.9-0.6,1.1-0.7V219.6z M903.6,256.7c-0.8-0.3-1.3-0.4-1.6-0.4v0.6
		C902.4,257.1,902.8,256.9,903.6,256.7z M903.9,256.7h-0.3H903.9z M903.9,256.7h0.3H903.9z M903,208h-0.5c-0.4,0.8-0.5,1.5-0.7,2
		c0,0,0,0.2,0.2,0.1h0.3c0.4-0.8,0.7-1.3,0.8-1.8L903,208z M901.9,201.6c0,0.2,0.2,0.5,0.2,0.5s0.3-0.2,0.3-0.3v-0.5
		C902.3,201.4,901.9,201.6,901.9,201.6z M902.3,201.3h0.2V201L902.3,201.3z M902.5,200.9c0.3-0.2,0.4-0.5,0.4-1.3
		C902.5,200,902.4,200.5,902.5,200.9z M903,203.8l0.2,0.1h0.2L903,203.8z M903,199.6h-0.2c0,0,0.2,0,0.1-0.2L903,199.6L903,199.6z
		 M905.2,205.2c0.3-0.7-0.1-1.1-0.9-1.2c-1-0.4-1.3-0.5-1-0.1c-0.1,0.5-0.1,1,0,1.8c0,0.5,0.1,0.8,0.2,0.9c0.5-0.4,0.6-0.5,0.6-0.4
		L905.2,205.2L905.2,205.2z M903,199.4c0.5-0.2,0.6-0.8,0.5-2C903,197.8,902.9,198.5,903,199.4z M903.5,197.5h0.2H903.5z
		 M903.6,197.5c0.3-0.3,0.4-0.8,0.4-1.6C903.7,196.2,903.6,196.7,903.6,197.5z M904.3,195.8H904H904.3z M904.8,195.8
		c-0.2-0.5-0.4-0.5-0.5,0H904.8z M905.4,201.4l0.3-0.3l-0.2-0.5c-0.1,0.2-0.4,0.5-0.4,0.5L905.4,201.4L905.4,201.4z M904.8,195.8
		h0.2H904.8z M905,195.8c0.2,0.5,0.4,0.5,0.6,0H905z M906.2,195.7c-0.2-0.1-0.5-0.1-0.6,0H906.2z M906.2,195.7
		c-0.1,0.8-0.4,1.5-0.3,2.1c0,0.5,0.1,1,0.2,1.1c0.7,0.6,1,0.2,0.9-1C907.1,196.9,906.9,196.1,906.2,195.7L906.2,195.7z
		 M906.6,189.9c0.5-0.2,0.6-0.7,0.5-1.3L906.6,189.9z M906.6,190v-0.2V190z M909.1,192.7c-0.6,0-0.8-0.3-0.8-0.3
		c-0.4,0.7-0.7,1.3-0.8,1.8c-0.2,0,0,0.3,0,0.3c0.5,0,0.8-0.1,0.8-0.1C907.8,194.9,908,194.3,909.1,192.7z M907.1,188.2l0.3-0.2
		l-0.3,0.5C907.1,188.5,907.2,188.7,907.1,188.2z M908.1,185.8c-0.1,0.2,0,0.5,0.2,0.6v-0.3c0.1-0.2,0.3-0.5,0.3-0.7
		C908.2,185.6,908.1,185.8,908.1,185.8z M908.5,185.4c0.5-0.2,0.6-0.7,0.5-1.5C908.6,184.3,908.5,184.8,908.5,185.4z M909.2,190.2
		l-0.1,0.2c0,0,0,0.2,0.2,0.1h0.2C909.4,190.5,909.2,190.3,909.2,190.2L909.2,190.2z M909,183.9c0-0.3,0-0.6,0.1-0.8v-0.2
		c0.3,0.3,0.5,0.4,0.4,0.5C909.5,183.6,909.3,183.7,909,183.9z M915.2,175.9c-2.1,4-3.6,8.1-5.2,12.1c-0.3,0-0.3,0.2,0.2,0.6
		c0,0,0.3-0.2,0.5-0.4l1.9-2.5l0.8-1.7c0-1.6,0.7-3.3,2.3-5.2c0.7-1,0.8-2.1-0.1-3.4C915.5,175.7,915.2,175.9,915.2,175.9
		L915.2,175.9z M910.3,180.9l-0.1,0.3L910.3,180.9l0.3-0.3L910.3,180.9z M911.4,178.6c0-0.3,0.1-0.5,0.3-0.7c-0.2,0-0.5,0.2-0.6,0.5
		l0.2,0.3L911.4,178.6z M911.6,177.8c0.3-0.2,0.4-0.7,0.4-1.3L911.6,177.8z M911.6,177.8v0.2V177.8z M912,176.5c0,0,0.2,0,0.1-0.2
		L912,176.5z M913.3,174.1c-0.8,0.5-1.2,1.2-1.1,2.2C912.9,176.1,913.4,175.2,913.3,174.1z M913.3,174.1h0.2v-0.3L913.3,174.1z
		 M915.6,175.6c0,0,0,0.2,0.1-0.3C915.6,175.2,915.6,175.6,915.6,175.6z M917.1,173.7c-0.5,0-0.8,0.1-0.8,0.1
		c-0.6,0.8-0.5,1.3-0.5,1.5c0.2,0,0.8-0.1,1.4-0.6C917.2,174.6,917.1,173.8,917.1,173.7L917.1,173.7z M915.9,168.8l-0.1,0.3
		L915.9,168.8h0.2H915.9z M916.1,168.8c0.3-0.3,0.4-0.8,0.4-1.3L916.1,168.8z M916.5,167.5v-0.2l0.1-0.2l-0.1,0.2V167.5z
		 M918.9,168.4l-0.1,0.2c-0.6,0.7-0.9,1.3-1,2.2c-0.1,0.2,0,0.3,0.2,0.5c0,0.2,0.5,0.1,0.5,0c0.7-0.7,1.2-1.5,0.9-2.5
		C919.4,168.7,919,168.6,918.9,168.4L918.9,168.4z M921.4,164.2c-0.6,0.2-1.1,0.4-1.2,0.6c0,0,0,0.3,0.1,1c1.1-0.6,1.4-0.7,0.9-0.2
		C921.1,165.4,921.2,164.7,921.4,164.2L921.4,164.2z M921.8,163.5c0.1-0.2,0-0.3-0.2-0.5c0,0.2-0.1,0.2-0.3,0.3v0.6
		C921.7,164,921.8,163.9,921.8,163.5L921.8,163.5z M921.3,164.1v0.2C921.4,164.2,921.4,164.2,921.3,164.1z M921.4,157h-0.2H921.4z
		 M921.7,156.3l0.5,0.6l-0.8,0.1L921.7,156.3L921.7,156.3z M921.6,156.3h0.2H921.6z M926.6,156.6h-0.2l0.1-0.2L926.6,156.6
		L926.6,156.6z M929.1,158l-0.3,0.2c0,0.3,0,0.5,0.2,0.5h0.2C929.1,158.7,929.1,158.2,929.1,158L929.1,158z M937.9,156.1h-0.2H937.9
		z M942.1,155.9c-1.5-0.4-2.7-0.3-4.2,0.2C939.1,156.8,940.5,156.7,942.1,155.9z M942.2,155.9H942H942.2z M942.2,155.9h0.5H942.2z"
		/>
	<path class="st5" d="M913,244.4c0.2-1.4,0.5-2.7,0.6-3.5c0.8-2.6,1.8-5.3,2.2-8c2.2-7.5,3.8-12.5,4.6-14.7c1-2.4,2.1-4.6,3.2-7
		c2.1-5.1,4.6-10.6,6.7-15.8c3-7.5,7-14.9,10.9-22.1c0.5-0.8,1.1-2.2,1.9-4.2c0.3-1.1,1-1.4,1.9-0.8c1.1,0.6,2.7,1.6,4.6,3
		c1.6,1.4,1.9,3.2,1.1,5.3l-1.4,2.6c-3.7,5.3-6.6,10.6-8.6,15.7c-1.3,2.6-2.9,5-4,7.5c-2.2,5.1-4.8,11.5-7.8,19.4
		c-3,7.7-5.3,14.1-6.9,19.4c-1.1,3.4-1.8,6.7-2.2,10.1c-0.2,1.6,0.5,2.2,2.2,1.9c1.8-0.5,3.4-1.4,4.6-2.6c0.2-0.2,0.3-0.2,0.8-0.2
		c0,0.2,0.2,0.5,0.2,0.6c-0.3,1.3-1,1.9-1.9,2.1c-1.1,1.1-3,2.1-5.9,3.2c-2.7,1-5-1.3-6.4-6.7L913,244.4L913,244.4z M916,242.3
		c0.8-1.1,1.6-2.2,2.2-3.5c0.2-0.2,0.2-0.3,0.2-0.6c-0.3-0.8-0.5-1.1-0.5-1.1c-0.3-0.3-0.6-0.2-1.1,0.3c-0.8,0.8-1.1,2.4-1.1,4.6
		v0.3H916L916,242.3z M923.9,218.4c0-0.2-0.2-0.6-0.2-1.1c-0.5,0.3-0.6,0.5-0.6,0.3v1.1C923.5,218.6,923.9,218.4,923.9,218.4z
		 M937,236.2c-3,6.4-5.1,10.4-6.2,11.8c0,0.2-1.9,2.6-1.9,2.6c-0.8-0.6-1-1.1-0.8-1.3c0.3-0.8,2.6-5.1,6.7-13
		c4.3-7.8,6.6-12,6.9-12.2c1.4-1.3,2.4,0.2,1.9,0.6C942.3,226,940,229.6,937,236.2L937,236.2z M930.7,201.6c-0.2,0-0.3,0.2-0.5,0.5
		c0.2,0.2,0.3,0.3,0.5,0.3c0.3,0,0.6-0.2,0.8-0.3C931.4,202.1,931.2,201.6,930.7,201.6z M932.8,196v-0.5c0.2,0,0.6,0.2,1.1,0.2
		c0,0.3,0.2,0.5,0.3,0.5c0.5,0,0.8-0.2,1-0.5v-0.2c-0.2-0.5-0.3-0.5-0.8-0.2c-0.5,0.2-0.6,0.3-0.6,0.3c-0.2-0.3-0.5-0.3-1,0V196z
		 M937.5,190.1h-0.3v0.3h0.3V190.1z"/>
	<path class="st5" d="M935.8,244.4c0.2-1.4,0.5-2.7,0.6-3.5c0.8-2.6,1.8-5.3,2.2-8c2.2-7.5,3.8-12.5,4.6-14.7c1-2.4,2.1-4.6,3.2-7
		c2.1-5.1,4.6-10.6,6.7-15.8c3-7.5,7-14.9,10.9-22.1c0.5-0.8,1.1-2.2,1.9-4.2c0.3-1.1,1-1.4,1.9-0.8c1.1,0.6,2.7,1.6,4.6,3
		c1.6,1.4,1.9,3.2,1.1,5.3l-1.4,2.6c-3.7,5.3-6.6,10.6-8.6,15.7c-1.3,2.6-2.9,5-4,7.5c-2.2,5.1-4.8,11.5-7.8,19.4
		c-3,7.7-5.3,14.1-6.9,19.4c-1.1,3.4-1.8,6.7-2.2,10.1c-0.2,1.6,0.5,2.2,2.2,1.9c1.8-0.5,3.4-1.4,4.6-2.6c0.2-0.2,0.3-0.2,0.8-0.2
		c0,0.2,0.2,0.5,0.2,0.6c-0.3,1.3-1,1.9-1.9,2.1c-1.1,1.1-3,2.1-5.9,3.2c-2.7,1-5-1.3-6.4-6.7L935.8,244.4L935.8,244.4z
		 M938.9,242.3c0.8-1.1,1.6-2.2,2.2-3.5c0.2-0.2,0.2-0.3,0.2-0.6c-0.3-0.8-0.5-1.1-0.5-1.1c-0.3-0.3-0.6-0.2-1.1,0.3
		c-0.8,0.8-1.1,2.4-1.1,4.6v0.3H938.9L938.9,242.3z M946.7,218.4c0-0.2-0.2-0.6-0.2-1.1c-0.5,0.3-0.6,0.5-0.6,0.3v1.1
		C946.4,218.6,946.7,218.4,946.7,218.4z M959.8,236.2c-3,6.4-5.1,10.4-6.2,11.8c0,0.2-1.9,2.6-1.9,2.6c-0.8-0.6-1-1.1-0.8-1.3
		c0.3-0.8,2.6-5.1,6.7-13c4.3-7.8,6.6-12,6.9-12.2c1.4-1.3,2.4,0.2,1.9,0.6C965.1,226,962.9,229.6,959.8,236.2L959.8,236.2z
		 M953.6,201.6c-0.2,0-0.3,0.2-0.5,0.5c0.2,0.2,0.3,0.3,0.5,0.3c0.3,0,0.6-0.2,0.8-0.3C954.2,202.1,954.1,201.6,953.6,201.6z
		 M955.7,196v-0.5c0.2,0,0.6,0.2,1.1,0.2c0,0.3,0.2,0.5,0.3,0.5c0.5,0,0.8-0.2,1-0.5v-0.2c-0.2-0.5-0.3-0.5-0.8-0.2
		c-0.5,0.2-0.6,0.3-0.6,0.3c-0.2-0.3-0.5-0.3-1,0V196z M960.3,190.1H960v0.3h0.3V190.1z"/>
	<path class="st5" d="M965,223.2l8.2-19l1.6-4.2c0.8-1.4,1.4-2.6,2.1-3.2c0.3-0.8,1-1,1.9-0.3c1.3,0.6,2.1,1.8,3.5,2.4
		c1.4,0.8,1.9,2.1,1.4,3.5s-0.8,2.6-1.3,3c-5,8.8-8,17.9-11.7,26.7c-1.4,3-2.2,7-2.6,12.3c0,0.6,0.2,1,0.5,1.1
		c0.2,0.2,0.6,0.2,1.3-0.2c2.4-1.6,5-3.7,7.4-6.4c2.9-3,5.6-7.4,8.3-12.8c3-5.3,5.6-10.9,8.6-16.5l1-2.2c2.2-3.5,3.8-7,4.8-10.6
		c0.2-1,0.8-1.4,1.9-1.3c2.2,0.5,4,1.6,5.4,3.4c0.5,0.8,0.5,1.9,0.3,3.5c-0.5,1.8-1.3,3.7-2.4,6.1l-5.6,10.9
		c-2.1,4.3-4.3,9.8-6.4,16c-1.1,2.9-1.6,6.2-1.8,9.9c-0.5,1.4,0,1.9,1.4,1.1c2.2-1.4,3.8-2.6,4.6-3.4c2.7-2.7,5-6.4,7.7-9.8
		c1.3-1.8,2.4-3.7,3.8-5.6c0.6-1.4,1.9-3.2,2.7-5.1c0.3-0.2,0.6-0.3,1.1-0.3c0.2,0,0.3,0.3,0.3,0.8c0.3,1,0.2,2.2-0.6,4
		c-2.7,5.1-5.3,10.1-9,13.9c-0.6,0.8-1.1,1.6-1.6,2.4c-1.3,1.8-3,3.4-5.3,4.6c-5.1,3-9.8,0-11.2-3.7c-1.1-2.6-1.4-5-0.8-7.2l0.6-3.7
		c0-0.5-0.2-0.6-0.5-0.6c-0.2-0.2-0.5,0-0.6,0.2c-0.6,0.6-1,1.1-1.1,1.6c-1.4,3.4-4.3,7-8.3,11l-2.9,2.2c-3.7,2.4-6.6,1.6-8.6-2.1
		c-1.4-2.1-2.1-4.2-1.9-6.6C961.9,234.3,963,228.8,965,223.2L965,223.2z M968.6,222.3c1.3-1.1,2.1-2.4,1.3-2.2
		c-0.8,0.5-1.1,1.1-1.1,2.2l-1,1l-0.3,0.3l0.2-0.3L968.6,222.3L968.6,222.3z M972.2,217.3c0,0,0.5-0.2,0.6-0.2
		c-0.2,0-0.3-0.6-0.3-0.8c-0.2,0-0.5,0.2-0.6,0.2C971.8,217,972,217.3,972.2,217.3z M975.2,211.6c0,0,0.2,0.3,0.5,0.8
		c0.3-0.8,0.5-1,0.5-0.8c0.8-1.4,1.6-3.2,2.2-5c0.2-0.8,0.2-1.3-0.2-1.4c-0.5,0-1,0.2-1.3,0.6c-1.4,1.4-2.1,2.9-1.8,4.5L975.2,211.6
		L975.2,211.6z M989.4,238.3c0.8-0.2,1-1,0.8-2.4c0.3-0.2,0.5-1,0.5-2.6c1.3-1.1,1.8-2.4,1.6-4.2c0.5-0.3,0.8-1,0.6-1.8
		c1.1-0.8,1.8-1.8,1.6-3.2c0-0.5,0.8-0.3,1-0.8c1.4-3.7,3.2-7.4,5.1-11c0.5-0.5,0.8-1.1,0.6-1.9c1.9-1.4,2.9-3.7,2.9-6.7h0.3
		c0,0,0-0.2,0.2-0.2l-0.3,0.3c-1.1,1.3-2.1,3.5-2.9,6.6c-0.5,0.3-0.8,1-0.8,1.9c-0.8,0.2-1.3,0.6-1.6,1.4c-1.3,2.1-2.6,4.3-3.4,6.4
		c-0.6,1.4-1,2.7-1.1,4c-1,0.5-1.4,1.4-1.4,3.2c-0.5,0.5-0.8,1.1-0.8,1.9c-1.4,0.8-1.3,2.6-1.4,4c-0.5,0.5-0.6,1.4-0.6,2.6
		c-0.5,0.2-0.6,1.1-0.6,2.6c-0.2,0.5-0.5,1-0.6,1.8c-0.5,0.3-0.6,0.5-0.6,0.5c0,0.2,0.2,0.3,0.2,0.3s0.2-0.2,0.2-0.3v-0.8
		C989.1,239.7,989.4,239.1,989.4,238.3z"/>
	<path class="st5" d="M1014.1,253.8c-3.7-0.6-6.7-1.1-10.4-1.9c-2.4-0.5-3.2-2.6-5.1-4v-1.3c0.5-0.8,0.8-1.3,1-2.1l7.7-13.8
		c1.3-2.6,2.2-5.1,3.7-7.7c0.8-2.6,2.2-5,3.4-7.4c1.8-3.5,2.9-6.1,3.4-7.8c0.8-3.7,2.9-7.5,6.2-11.8c0.3-0.5,1-1.1,2.1-1.8
		c1.8-0.6,4.3,1,6.1,1.4c0.2,0,2.9,1.9,2.7,2.7c-1.4,2.4-6.4,7-7.7,9.1c-2.6,4.8-2.9,8.8-1,11.8c1.1,1.9,2.1,3.8,3.4,5.6l2.4,4.3
		c2.4,5,1.4,10.2-2.6,16c-1.4,2.1-3.2,4-5.6,5.9c-1.3,0.6-2.4,1.3-3,1.8C1018.2,253.2,1015.8,254,1014.1,253.8L1014.1,253.8z
		 M1010.2,229.3c-0.2-0.3-0.3-0.5-0.3-0.5v0.5c0,0.2,0.3,0.5,0.5,0.5c-0.3,1-0.5,1.4-0.5,1.4c-1.8,1.6-3.2,3.8-4.3,6.7
		c-0.6,2.1-1.8,3.8-2.6,5.9c-0.6,1.9,0.3,4,1.8,3.2c1.8-0.5,2.7-0.2,4.2-0.2c0.8,0,2.1,0.2,3.4,0c5.6-0.2,9.6-3.4,12.3-9.9
		c1.1-2.7,1.1-5,0.3-6.9c-0.8-1.4-2.1-3.5-3.5-6.2c-1.4-1.9-2.4-3.7-3.7-5.6c-0.2-0.5-0.5-0.6-0.6-0.6l-0.6,0.8
		c-1.8,3.8-3.8,7.7-6.2,11.5v-0.6L1010.2,229.3L1010.2,229.3z M1027.2,241.2c1.1-2.7,1.1-5.1,0-7c0,0.2-0.2,0.2-0.6-0.3
		c-0.2,0.2-0.2,0.5-0.2,0.6c-0.5,2.7-0.6,5.1-1.1,7.5c-1.8,1.4-2.7,2.7-3,3.8c-0.2,0.2,0,0.3,0.2,0.8c0,0,0.2,0,0.3-0.2
		c1.8-1.8,2.6-3.2,2.4-4.5C1026.2,242,1027,241.6,1027.2,241.2L1027.2,241.2z M1067.4,238.1c-2.7,5.8-5.1,9.9-7.4,12.5
		c-2.7,3.4-5.6,5.3-8.6,5.9c-1.9,0.2-3.4,0.3-4.2,0.3c-3.2,0-5.3-1.4-6.4-4.2c-2.7-5.3-3.5-10.6-2.4-15.8
		c2.1-10.7,5.3-21.4,9.9-31.8c1.9-4.5,3.7-9.1,6.1-13.8c-0.3,0.2-0.8,0.2-1.3,0.2c-1.4,0-3.4,0.2-4.8,0.2c-1.4,0.2-2.7,0.3-4.2,0.3
		c-0.5,0-0.6-0.2-0.8-0.5c-0.5-0.5-0.5-0.8-0.3-1.3l0.8-1.8c0.5-0.5,1-0.8,1.6-0.8c2.1,0.2,3.8,0.2,5.4-0.2h1.1
		c1.4,0,2.7-0.3,4.2-0.5c2.6-4,5.4-7.8,7.5-12.2c0.3-0.2,0.6-0.6,0.8-1.3l1.3-2.2c1.4-0.3,3-0.3,4.6,0c2.4,0.5,3.7,2.1,3.7,5.1
		c0,0.6-0.5,1.3-0.5,1.9l-5.3,8.5h1c1.4,0.2,3.2,0,5,0c1.3,0,4,0.2,5.4,0c0,0,0.6-0.2,0.8-0.2l0.3,0.3c0,0.8,0,1.6,0.5,2.2
		c0.3,1-0.2,1.6-1.4,1.9h-0.5c-1.8,0-3.7,0.2-5.1,0c-2.9-0.2-5.8-0.2-8.5,0h-0.2c-4,6.4-7.5,13.6-10.6,21.4
		c-4.3,10.6-7.4,20.5-9.3,29.6c-0.8,3.7-0.8,6.9,0,9.6c0.5,1.8,1.4,2.4,3,2.1c5.4-1.1,10.1-5.1,13.9-12.3c4-7.2,6.9-13,9-17.3
		c0.6-2.1,2.7-0.5,2.2,0.3C1072.3,227.7,1070.1,232.2,1067.4,238.1L1067.4,238.1z M1042.1,230.8c0,0-0.3-0.2-0.3-0.6
		c-0.2,0-0.3,0.2-0.3,0.5c-0.3,1.8-0.5,2.7-0.5,2.9c0,2.4,0.3,4.2-0.2,6.1c0,0.2,0.2,0.6,0.2,0.6c0.2-0.3,0.3-0.5,0.3-0.6
		c0.2-2.7,0.3-4.3,0.5-4.8C1041.9,233.8,1042.1,232.5,1042.1,230.8L1042.1,230.8z M1042.2,228.2l0.2,0.2c0,0,0.2-0.2,0.3-0.2
		c0.5-1.4,0.6-1.9,0.3-1.4l-0.2-0.5l-0.5,0.5c-0.2,0.2-0.2,0.3-0.2,0.6C1042.2,228,1042.2,228.2,1042.2,228.2L1042.2,228.2z
		 M1043,223.9l0.5,0.5c0.2,0,0.3-0.2,0.5-0.5c-0.2,0.3,0-0.2,0.5-1.3c0-0.8,0.6-2.1,0.5-3.5c-1.4,0.8-1.1,2.6-1.6,3.4
		c-0.2,0.2-0.3,0.6-0.3,1.1L1043,223.9z M1045.9,217c1.1-3,2.2-6.4,4.2-9.4c0.2-0.2,0.2-0.5,0.2-1c0-0.2-0.2-0.3-0.3-0.3
		c-0.5,1.4-2.1,1-2.6,1.6c-0.5,0.5-0.5,0.8,0.2,0.8c0.5,0,0.8,0.3,0.6,0.8c-0.5,1.1-1,2.2-1.6,3.4c-0.5,1.4-1.1,2.7-1.3,4
		c0,0.2,0.2,0.5,0.2,0.6C1045.8,217.3,1045.9,217.2,1045.9,217L1045.9,217z M1052.6,198.8l-1.3,1.1c-0.3,0.3-0.3,0.6,0,1.1
		c0.8,0.8,1.3,0.8,1.8,0c0.6-1.4,1.1-2.7,1.6-3.5c0-0.2-0.2-0.6-0.2-1.3c-0.3-0.3-0.5-0.5-0.6-0.5s-0.5,0.3-0.5,0.3
		c-0.2,0.8-0.6,1.4-1.1,1.9c0-0.2,0.2,0.2,0.5,1L1052.6,198.8L1052.6,198.8z M1052.5,188l-0.3-0.2l-0.2,0.2l0.2,0.2L1052.5,188
		c0.2,0.2,0.5,0.2,1,0c0,0,0.2,0.2,0.2,0h-0.2C1053.3,187.9,1053,187.9,1052.5,188z M1054.9,187.9h-0.2c-0.2,0-0.3,0.2-0.3,0.2h0.2
		C1054.6,188,1054.7,187.9,1054.9,187.9z M1055.8,194.4c0,0.2,0,0.3,0.2,0.5c0,0,0.2,0,0.2-0.5c0-0.2,0.2-0.6,0.6-1.3l-0.3-0.2
		c-0.3,0-0.5,0-0.5,0.2c-0.2,0.2-0.2,0.3-0.2,0.6L1055.8,194.4L1055.8,194.4z M1067.8,187.7l0.2-0.2h0.3h-0.3L1067.8,187.7z
		 M1069.3,187.4l-0.2,0.2c0,0,0,0.2,0.2,0.2c0.2,0.2,0.5,0.2,1-0.2c0.2,0.2,0.2,0.3,0.3,0.2h-0.3
		C1069.9,187.2,1069.6,187.2,1069.3,187.4z M1071.5,187.7c0,0-0.3-0.2-0.3,0h0.5c0.2,0.2,0.5,0.2,0.6,0h0.5h-0.5
		C1072.2,187.6,1071.8,187.6,1071.5,187.7L1071.5,187.7z"/>
	<path class="st5" d="M1080.2,230.8c3.2-4.5,6.2-8.6,9.9-13c1.9-2.2,3.8-5.6,5.8-9.9c1.9-4.3,4-8.3,6.4-11.7
		c0.8-1.4,2.1-1.6,3.5-0.5l2.7,2.7c1.1,0.8,1.4,2.1,1.1,3.7l-1.4,2.6c-0.8,0.8-1.6,1.8-2.2,2.9c-1.6,2.2-3,5.8-4.3,10.4
		c-1.1,4.6-0.2,7.8,3,9.3c0.6,0.5,0.8,1,0.5,1.4c-0.5,1-0.8,1.6-1.3,2.1c-0.8,0.8-1.6,1-2.4,0.2c-3.2-1.8-7.7-5.6-8.5-9.4
		c-0.5-1.4-1.3-1.4-2.1-0.2c-1.8,2.4-3.4,4.5-4.8,6.9c-0.8,1.3-2.2,3.4-4.3,6.1c-4.3,5.6-8.2,10.9-11.5,15.7l-0.3,0.3
		c-0.6,0.8-0.3,2.6-2.1,2.7c-1.4-1.3-3.5-1-4.6-3.4c0-0.5-0.2-1-0.3-1.3c-0.8-1-1-2.2-0.3-4c1.3-3,2.4-6.2,3.7-9
		c3.4-6.6,6.2-13.6,9.6-20.6l7-15c0.5-1.4,1.3-1.6,2.4-0.8c1.3,1.1,2.4,1.9,3.8,2.6c1.6,1.4,2.2,2.9,1.8,4.5
		c-0.3,0.8-0.8,1.8-1.6,2.9l-9.1,18.2c-1.1,2.4-1.4,4.2-1.3,5h-0.3l-0.3,0.2c0.3,0,0.5-0.2,0.5-0.3
		C1079.5,231.4,1080,230.9,1080.2,230.8L1080.2,230.8z M1069.4,241c0.6-0.2,1-0.6,1-1.8c0.3-0.5,0.5-0.6,0.5-0.6s-0.2-0.3-0.2-0.5
		c0,0.2-0.2,0.3-0.2,0.3c0,0.5,0,0.8-0.2,1c-0.5,0.3-0.8,1-0.8,1.8c-0.5,0.3-0.8,1-0.8,1.9c-0.3,0.2-0.5,0.5-0.6,0.8v0.3
		c0,0,0.3-0.2,0.3-0.3v-1C1069.4,242.9,1069.8,242.3,1069.4,241L1069.4,241z M1071.8,236.2V236h-0.2L1071.8,236.2z M1077.3,222.9
		c2.2-5.3,3.5-8,3.7-8.2c0,0-0.3-0.6-0.3-0.8c-0.2,0.3-0.3,0.5-0.3,0.6C1080.3,214.8,1079.4,217.6,1077.3,222.9c-2.1,5.3-3,7.8-3,8
		c-0.2,0.2-0.5,0.3-0.6,0.6v0.6l0.5-0.5v-0.8C1074.1,230.8,1075.2,228.2,1077.3,222.9L1077.3,222.9z M1122.2,231.2
		c-1.8,3-3.7,5.4-5.1,8.2c-1.8,2.7-3.2,5.4-5.3,7.5c-0.8,0.8-1,1.8-1.8,2.2c-0.3,0.6-0.8,0.8-1.3,0.3c-2.4-0.6-3.8-2.6-4-5.9
		c-0.2-4.3,0.6-8.8,2.4-13.4c1.4-3.8,2.4-8.2,4.8-11.8c0-1.1,0.5-2.2,1.6-3.2c2.6-2.4,3.7-5.9,6.4-8.5c1.6-1.4,3.5-2.9,5.9-4.3
		c2.9-1.4,5.8-1.4,8.5,0c-0.2-0.2,0.5,0.3,1.9,1.3c1.8,1.1,3.2,0.8,4.3-0.8c0.2-0.2,0.2-0.3,0.2-0.5c1.8-2.2,3.5-2.2,5.3,0
		c0.2,0.6,0.6,1.6,1.3,2.4c0.2,0.5,0.2,1.1,0,1.8c-1.8,2.7-2.4,5.6-4.2,8.3c-1.9,3-2.7,6.4-4,9.1c-0.6,1.1-0.8,2.2-1.3,3
		c-2.1,3.7-3.2,7.5-5.6,11.2c-1.3,2.4-1.8,4.6-1.6,7c0,0.2,0.2,0.3,0.3,0.3c0.5,0,0.6,0,0.8-0.2c2.7-3.7,5.8-7,8.8-10.7
		c1.8-2.1,5.6-8.3,7.5-11c-0.2,0.5,0.3,0,1.8-1.4c0.2,1.1-0.3,2.6-1.1,4l-5.3,8c-2.1,3.2-3.8,5.8-5.3,7.5c-1.9,2.7-3.5,4.5-4.8,5.6
		c-2.4,2.7-5,2.6-7.7-0.2c-1.1-0.8-1.6-2.1-1.6-3.5c-0.3-3,0.2-5.9,1.4-8.6c0.6-2.1,1.1-4.6,2.6-6.7c1.4-1.8,1.9-4.3,2.7-6.9
		c0.5-1.6,1.1-3.7,1.6-6.1c0.5-2.6,0.8-3.8,0.8-4c0.6-0.6,1-1.9,1.8-2.7c0,0-0.3,0-0.3-0.5l-0.3-0.2c-0.8,0.6-1.9,0.8-2.6,1
		c-2.6,0.8-4.6,1.8-6.2,2.9c-0.8,0.8-1.1,1.3-1.1,1.4c-0.2,1.9-1.9,2.7-2.6,4.2c-2.1,3.4-4.5,6.7-5.6,10.7c-2.4,3.7-3.5,8.2-5,12.2
		c0.2-0.2,0.3,0,0.3,0.8c0,0,0.5-0.3,0.6-0.5c1.8-2.4,3-4.3,3.8-5.8c0.8-0.6,1.1-1.8,1.9-2.6c2.1-1.8,3.7-4.3,5.4-6.7
		c1.4-2.4,3.2-4.2,4.6-6.9c1.4-2.4,2.7-4.2,3.8-5.1c1.1-1,0.6,0.6-1.8,4.8C1127.7,222.9,1124.8,226.9,1122.2,231.2L1122.2,231.2z
		 M1113,230.4c0-0.2-0.2-0.5-0.5-0.6c-0.2,0.2-0.3,0.5-0.3,0.8c0,0.2,0.2,0.5,0.5,1c0,0,0.3-0.3,0.3-0.8V230.4z M1131.8,232.8
		c0,0.2,0.2,0.6,0.2,0.6l0.3-0.2c0-0.2-0.2-0.3-0.2-1C1132,232.7,1131.8,232.8,1131.8,232.8L1131.8,232.8z M1133.1,230.8l-0.2-0.2
		v0.2H1133.1z M1135,226c-0.3,0.2-0.5,0.5-0.5,0.8c0,0,0,0.3,0.5,0.3c0-0.2,0.2-0.6,0.2-0.8C1135.2,226.3,1135,226.1,1135,226z
		 M1137.9,220.2v-0.6l-0.5,0.5c-0.5,0.2-0.3,0.8-0.3,0.8l-0.5,0.5v1l0.5-0.5v-1C1137.6,220.7,1137.8,220.5,1137.9,220.2z"/>
	<path class="st5" d="M1173.1,238.1c-2.7,5.8-5.1,9.9-7.4,12.5c-2.7,3.4-5.6,5.3-8.6,5.9c-1.9,0.2-3.4,0.3-4.2,0.3
		c-3.2,0-5.3-1.4-6.4-4.2c-2.7-5.3-3.5-10.6-2.4-15.8c2.1-10.7,5.3-21.4,9.9-31.8c1.9-4.5,3.7-9.1,6.1-13.8
		c-0.3,0.2-0.8,0.2-1.3,0.2c-1.4,0-3.4,0.2-4.8,0.2c-1.4,0.2-2.7,0.3-4.2,0.3c-0.5,0-0.6-0.2-0.8-0.5c-0.5-0.5-0.5-0.8-0.3-1.3
		l0.8-1.8c0.5-0.5,1-0.8,1.6-0.8c2.1,0.2,3.8,0.2,5.4-0.2h1.1c1.4,0,2.7-0.3,4.2-0.5c2.6-4,5.4-7.8,7.5-12.2
		c0.3-0.2,0.6-0.6,0.8-1.3l1.3-2.2c1.4-0.3,3-0.3,4.6,0c2.4,0.5,3.7,2.1,3.7,5.1c0,0.6-0.5,1.3-0.5,1.9l-5.3,8.5h1
		c1.4,0.2,3.2,0,5,0c1.3,0,4,0.2,5.4,0c0,0,0.6-0.2,0.8-0.2l0.3,0.3c0,0.8,0,1.6,0.5,2.2c0.3,1-0.2,1.6-1.4,1.9h-0.5
		c-1.8,0-3.7,0.2-5.1,0c-2.9-0.2-5.8-0.2-8.5,0h-0.2c-4,6.4-7.5,13.6-10.6,21.4c-4.3,10.6-7.4,20.5-9.3,29.6c-0.8,3.7-0.8,6.9,0,9.6
		c0.5,1.8,1.4,2.4,3,2.1c5.4-1.1,10.1-5.1,13.9-12.3c4-7.2,6.9-13,9-17.3c0.6-2.1,2.7-0.5,2.2,0.3
		C1178.1,227.7,1175.8,232.2,1173.1,238.1L1173.1,238.1z M1147.8,230.8c0,0-0.3-0.2-0.3-0.6c-0.2,0-0.3,0.2-0.3,0.5
		c-0.3,1.8-0.5,2.7-0.5,2.9c0,2.4,0.3,4.2-0.2,6.1c0,0.2,0.2,0.6,0.2,0.6c0.2-0.3,0.3-0.5,0.3-0.6c0.2-2.7,0.3-4.3,0.5-4.8
		C1147.7,233.8,1147.8,232.5,1147.8,230.8L1147.8,230.8z M1148,228.2l0.2,0.2c0,0,0.2-0.2,0.3-0.2c0.5-1.4,0.6-1.9,0.3-1.4l-0.2-0.5
		l-0.5,0.5c-0.2,0.2-0.2,0.3-0.2,0.6C1148,228,1148,228.2,1148,228.2L1148,228.2z M1148.8,223.9l0.5,0.5c0.2,0,0.3-0.2,0.5-0.5
		c-0.2,0.3,0-0.2,0.5-1.3c0-0.8,0.6-2.1,0.5-3.5c-1.4,0.8-1.1,2.6-1.6,3.4c-0.2,0.2-0.3,0.6-0.3,1.1L1148.8,223.9z M1151.7,217
		c1.1-3,2.2-6.4,4.2-9.4c0.2-0.2,0.2-0.5,0.2-1c0-0.2-0.2-0.3-0.3-0.3c-0.5,1.4-2.1,1-2.6,1.6c-0.5,0.5-0.5,0.8,0.2,0.8
		c0.5,0,0.8,0.3,0.6,0.8c-0.5,1.1-1,2.2-1.6,3.4c-0.5,1.4-1.1,2.7-1.3,4c0,0.2,0.2,0.5,0.2,0.6
		C1151.5,217.3,1151.7,217.2,1151.7,217L1151.7,217z M1158.4,198.8l-1.3,1.1c-0.3,0.3-0.3,0.6,0,1.1c0.8,0.8,1.3,0.8,1.8,0
		c0.6-1.4,1.1-2.7,1.6-3.5c0-0.2-0.2-0.6-0.2-1.3c-0.3-0.3-0.5-0.5-0.6-0.5s-0.5,0.3-0.5,0.3c-0.2,0.8-0.6,1.4-1.1,1.9
		c0-0.2,0.2,0.2,0.5,1L1158.4,198.8L1158.4,198.8z M1158.2,188l-0.3-0.2l-0.2,0.2l0.2,0.2L1158.2,188c0.2,0.2,0.5,0.2,1,0
		c0,0,0.2,0.2,0.2,0h-0.2C1159,187.9,1158.7,187.9,1158.2,188z M1160.6,187.9h-0.2c-0.2,0-0.3,0.2-0.3,0.2h0.2
		C1160.3,188,1160.5,187.9,1160.6,187.9z M1161.6,194.4c0,0.2,0,0.3,0.2,0.5c0,0,0.2,0,0.2-0.5c0-0.2,0.2-0.6,0.6-1.3l-0.3-0.2
		c-0.3,0-0.5,0-0.5,0.2c-0.2,0.2-0.2,0.3-0.2,0.6L1161.6,194.4L1161.6,194.4z M1173.6,187.7l0.2-0.2h0.3h-0.3L1173.6,187.7z
		 M1175,187.4l-0.2,0.2c0,0,0,0.2,0.2,0.2c0.2,0.2,0.5,0.2,1-0.2c0.2,0.2,0.2,0.3,0.3,0.2h-0.3
		C1175.7,187.2,1175.4,187.2,1175,187.4z M1177.3,187.7c0,0-0.3-0.2-0.3,0h0.5c0.2,0.2,0.5,0.2,0.6,0h0.5h-0.5
		C1177.9,187.6,1177.6,187.6,1177.3,187.7L1177.3,187.7z"/>
	<path class="st5" d="M1190.2,235.1c-2.7,4.5-5.3,7.8-7.7,10.1l-2.2,2.4c-1,0.5-1.6,0.8-2.1,0.8c-2.7,0.3-4.5-0.6-5.3-2.9
		c-1.1-3.2-1.3-6.4-0.5-9.4c1.1-3,1.8-6.1,3.5-9.1l1-2.6c2.6-7.5,6.7-15,9.8-20.6c0.3-0.8,0.8-1.1,1.4-0.6c1,1.1,2.2,1.8,3.7,1.9
		c1.6,0.5,2.1,1.8,1.6,3.5c0.2-0.5,0-0.2-0.5,1.3c-2.4,4.3-4.3,8.3-5.9,12c-2.1,3.8-4.2,8.3-6.2,13.4c-1.3,2.2-2.1,4.8-2.4,7.5
		c-0.3,0.8-0.3,1.4,0,2.1c0,0.6,0.2,0.8,0.6,0.3c2.1-1.1,3.7-2.4,4.8-4.2c1-1.1,2.9-4,5.6-8.5c2.9-4.5,4.8-7.5,5.6-9
		c0,0,2.1-0.6,1.6,0.6C1195.2,226.9,1193,230.6,1190.2,235.1z M1174.7,232v0.3l0.3-0.3c0-0.2,0-0.3-0.2-0.5h0.3V231
		c0,0.2-0.2,0.5-0.2,0.5C1174.9,231.7,1174.7,231.9,1174.7,232L1174.7,232z M1176,234.8l-0.2,0.2v0.3
		C1175.8,234.9,1175.8,234.8,1176,234.8c0.6-0.8,1-1.6,1-2.7c0.3-0.2,0.5-0.6,0.5-1.4c1.6-1.6,2.6-3.7,2.7-6.2c0.5,0,1-0.6,1.4-2.1
		c1.1-1.9,1.9-4.5,3-6.6l1.6-3.5c0.2-0.2,0-0.3-0.2-0.6l-0.2,0.2c-0.5,0.5-0.8,1-1.3,1.8c-1.4,3-2.7,5.9-3.8,9
		c-0.3,0.8-0.5,1.4-0.5,2.1c-0.6,0.5-1.6,1.9-2.7,4.6c-0.2,0.2-0.2,0.6-0.2,1.4c-0.3,0.2-0.5,0.6-0.5,1.4
		C1176.2,232.7,1175.8,233.6,1176,234.8z M1177.3,226.8c-0.8,0.2-1,0.6-0.6,1.4c-0.3,0.2-0.5,0.5-0.5,1.3c-0.3,0-0.3,0.2-0.2,0.3
		c0,0,0.2-0.2,0.2-0.3c0.2-0.2,0.3-0.6,0.3-1.4c0.5-0.2,0.8-0.5,0.6-1.3c0.3-0.2,0.5-0.8,0.5-1.6c0.5,0,0.6-0.2,0.2-0.3
		c0,0.2,0,0.5-0.2,0.6C1177.1,225.6,1177.1,226.1,1177.3,226.8z M1179.4,222l0.2-0.2c0-0.8,0.2-1.1,0.5-1.3c0-0.5,0.2-0.8,0.6-1.4
		c0,0,0.2-0.3-0.3-0.2c-0.2,0.8-0.5,1-0.5,1.6c-0.2,0.5-0.5,0.8-0.5,1.3L1179.4,222L1179.4,222z M1182.1,215.4
		c0.5-0.2,0.6-0.6,0.5-1.3c0.5-0.2,1-0.5,1.1-1.3c0,0-0.2,0-0.2-0.5c0,0.2-0.2,0.3-0.2,0.3l-0.6,1.4l-0.5,1.6
		c-0.2,0.5-0.6,1.1-0.6,1.3l-0.2,0.2v0.2c0-0.2,0-0.3,0.2-0.3C1181.9,216.8,1182.1,216.4,1182.1,215.4L1182.1,215.4z M1183,222
		c0,0.2,0.2,0.5,0.2,0.5s0.2-0.2,0.2-0.3v-0.8h0.2l0.2-0.2l-0.3,0.3C1183.4,222,1183,222,1183,222L1183,222z M1187.4,209.5
		c0,0,0-0.3,0.2-0.3h0.2c0-0.2,0.2-0.3,0.3-0.3v0.2h-0.5C1187.5,209.2,1187.5,209.3,1187.4,209.5L1187.4,209.5z M1194.6,203.4
		c-0.2,0.3-1.3,0-3.2-1s-2.7-1.8-2.6-2.2c0.5-1.8,0.6-2.7,0.8-2.9s0.5-1.3,0.8-3c1.3-1.6,2.7-1.6,4.5-0.2c1.8,1.4,2.9,2.7,3.7,3.5
		c0.8-1.1,0.8-1-0.3,0.3C1197.6,200.4,1195.2,201.3,1194.6,203.4L1194.6,203.4z"/>
	<path class="st5" d="M1209.9,234.1c-0.8-1.1-1-1.9-0.2-2.6c0-0.2,0.3-0.8,0.8-1.6c3.2-5.3,5.4-11.5,6.7-18.7
		c0.8-5-0.2-9.4-2.7-13.4c-0.5-0.8-1.1-1.9-1.9-3.7c-0.3-0.6-0.3-1.4,0.2-2.6c0.5-1,1-1.1,1.3-0.3c1.1,1.8,3,2.7,5.4,3.2
		c1.4,0.3,2.6,1.3,3.5,2.9c0.8,2.1,1.8,4.8,3,6.9c0.2,0.2,0.2,0.3,0.2,0.8c-0.5,3.2,0.2,6.4-0.3,9.4c-1.6,7.5-5,14.9-9.9,21.8
		l-3.2,4.2c-2.6,3.7-6.4,5.6-10.1,7.5c-2.4,1.1-4.5,0.8-6.6-1.3c-2.7-2.7-4.2-6.1-4-10.4c0.5-6.7,1.9-13.3,4.5-19.8
		c0.6-1.6,1.8-3.8,3.5-6.7c1.4-3,4.3-4.8,7-6.9c0.8-0.6,2.1-0.6,3.7,0l2.4,1.4c1.1,1.1,1.1,2.1,0.3,3.2c-0.8,0.8-1.9,1.9-3.4,3
		c-1.1,1.1-1.6,2.1-1.8,2.9c-0.2,0.5-0.6,1.4-1.8,2.7c-2.7,3.7-4.6,7.7-5.6,12c-1.3,4-2.4,8-2.4,12.3v1.8c0,0.8,0.3,1,1.1,0.8l1.9-1
		c3.4-1.3,5.6-4.6,6.9-7.4c3.7-0.6,5.1,0.8,5.9-2.4c0,0-0.6-0.5-0.8-0.5c-0.5,0-1,0.2-1.4,0.5c-1.1,0.5-1.1,1.9-2.6,1.9h0.4V234.1
		L1209.9,234.1z M1221.9,211.4c-0.3-0.2-0.6,0-0.8,0.2c-0.3,0.8-0.5,1.1-0.5,1.1c0,1-0.3,2.4-1.1,4.2c-1.1,2.1-1.9,4.5-2.6,6.6
		c0,0.5,0.2,0.8,0.3,0.8h0.6c1.1-0.5,1.8-1.4,2.2-2.7c1-3.8,1.8-6.7,2.4-8.8c0-0.2-0.2-0.3-0.2-1
		C1222.2,211.6,1222.1,211.4,1221.9,211.4L1221.9,211.4z M1218.7,198l0.2-0.2h-0.2V198z M1222.4,206.3c0-0.2-0.2-0.3-0.3-0.5
		c0,0-0.2,0.2-0.5,0.6c0,0.5,0.2,0.6,0.3,0.8c0,0.5,0.2,0.6,0.2,0.6l0.3-0.5V206.3L1222.4,206.3z M1266.9,235.6
		c-3.7,5.6-6.1,9-7,10.2c-0.6,1-1.8,2.2-3.2,3.8c-1.4,1.3-3,1.3-4.5,0c-2.9-2.1-4.5-4.3-4.6-6.9c-0.3-2.1,0-4.8,1-8
		c2.1-7,3-12.5,6.7-19.5c2.7-5,3.8-7.5,3.4-7.7c-1.1,0.2-2.2,1.1-3.4,2.6c-2.6,3.4-5.1,6.2-7.7,9.4c-4.5,5.8-8.8,11.8-12.5,18.2
		c-1.1,2.1-2.2,3.7-3.7,5l-1.9,2.7c-0.6,0.6-1.1,1.6-1.6,2.4c-1.1,1.6-2.6,1.8-4.3,0.6c-2.9-1.4-3.5-3.8-2.1-7.4
		c1.9-3.7,3.8-7.7,5.1-11.7c0.5-1.3,1.1-2.2,1.3-3.5c4.3-8.2,7.7-16.5,11.4-25.3c0.5-1.8,1.6-2.4,3.2-1.6l4.2,2.6
		c1.6,1.1,2.1,2.7,1.3,4.6c-2.4,4.6-5,9.6-7,13.9c-1.8,3.8-3.7,7.2-5,10.6v1c0,0,0.3,0,0.5-0.5s0.8-0.6,1.3-1.4
		c3.7-5.8,8.3-11.4,13.3-17.1c1.8-2.1,2.1-3.4,4.2-5.9c1.8-2.1,3.8-4.8,5.8-6.9c0.8-0.8,1.3-1,1.6-0.6c1.4,1.1,2.9,1,4.3,1.4
		c0.6,0.6,3.2,2.9,3.2,3.5c0,4.6-3.7,9.9-5.8,14.4c-0.6,1.1-1.4,2.7-2.4,5c-0.2,0-0.2-0.2-0.2-0.2h-0.5c-0.2,0.2-0.3,0.5-0.3,0.8
		c0,0.2,0.2,0.5,0.3,0.5l-2.2,5.9c-0.3-0.5-0.5-0.6-0.6-0.6c-0.5,0-0.6,0.3-0.6,1c0,0.2,0.3,0.5,0.8,1l0.2-0.6
		c-0.2,1.1-0.5,1.9-0.6,2.6l-0.5-0.2v-0.6l-0.2-0.2v0.3c0,0.2,0.2,0.3,0.3,0.3v1.3l-0.2,0.2v0.3l0.2-0.3c-1.8,1.1-2.4,2.7-1.9,4.6
		c-0.2,0.2-0.8,0.3-0.8,0.3l-2.6,4.5c-0.2,0.2-0.2,0.3-0.2,0.5c0,0.5,0.2,0.6,0.2,0.6c0.5,0.3,0.6,0.3,0.6,0
		c1.4-1.8,2.2-3.8,2.7-6.1c0.3-0.3,0.8-0.8,1.3-1.6l-0.3,1.1c-0.6,2.7-0.8,4.5-0.6,5.3c2.1,0,3.4-1.9,4.8-3.4
		c0.5-0.6,2.6-3.4,6.1-8.3c3.5-5,5.6-7.8,6.1-8.3c0.6-1.1,1.9-0.8,1.3,0.6C1273.1,226.3,1270.7,230,1266.9,235.6L1266.9,235.6z
		 M1230.9,237c-0.3,0-0.5,0-0.6,0.2c0,0.5-0.2,0.8-0.2,1s0.2,0.5,0.2,0.5c0.2,0,0.3-0.2,0.6-0.3c0.2-0.2,0.2-0.3,0.2-0.8
		C1231,237.3,1231,237.2,1230.9,237L1230.9,237z M1232.8,223.9l-0.2,0.3c-0.2,0.5-0.3,0.6-0.3,0.8c0,0,0.2,0.5,0.3,0.5
		c0,0,0.2,0.2,0.2-0.3c0.2-0.2,0.3-0.5,0.3-0.6C1233,224.5,1232.8,224.4,1232.8,223.9z M1234.9,217.8c0.2,0.5,0.5,0.8,1,0.8
		s0.6-0.3,0.5-1c0,0.3-0.2,0.2-0.5-0.6C1235.2,217.5,1234.9,217.8,1234.9,217.8z M1236.3,213.6c1.8-0.8,2.4-2.4,2.1-4.5
		c0,0,0.5-0.3,0.6-0.5l2.6-4.5c0.2-0.2,0.3-0.3,0.3-0.5c0,0-0.3-0.2-0.3-0.6h-0.5c-1.4,1.9-2.4,4-2.7,6.1c-1.3,1.3-1.9,2.9-1.9,4.6
		c-0.6,0.5-0.6,1,0,1.3v0.6l0.2,0.2c0,0,0.2,0,0.2-0.5c-0.2,0-0.5-0.2-0.5-0.3L1236.3,213.6L1236.3,213.6z M1263.2,211.7
		c0,0,0.3-0.2,0.5-0.3c0,0,0.3-0.3,0.3-1c0,0-0.3-0.3-0.3-0.5c-0.2,0.2-0.5,0.3-0.5,0.3c-0.2,0.2-0.2,0.3-0.2,0.8
		C1263,211.4,1263,211.6,1263.2,211.7z"/>
	<path class="st5" d="M1274.9,253.8c-3.7-0.6-6.7-1.1-10.4-1.9c-2.4-0.5-3.2-2.6-5.1-4v-1.3c0.5-0.8,0.8-1.3,1-2.1l7.7-13.8
		c1.3-2.6,2.2-5.1,3.7-7.7c0.8-2.6,2.2-5,3.4-7.4c1.8-3.5,2.9-6.1,3.4-7.8c0.8-3.7,2.9-7.5,6.2-11.8c0.3-0.5,1-1.1,2.1-1.8
		c1.8-0.6,4.3,1,6.1,1.4c0.2,0,2.9,1.9,2.7,2.7c-1.4,2.4-6.4,7-7.7,9.1c-2.6,4.8-2.9,8.8-1,11.8c1.1,1.9,2.1,3.8,3.4,5.6l2.4,4.3
		c2.4,5,1.4,10.2-2.6,16c-1.4,2.1-3.2,4-5.6,5.9c-1.3,0.6-2.4,1.3-3,1.8C1279,253.2,1276.6,254,1274.9,253.8z M1271,229.3
		c-0.2-0.3-0.3-0.5-0.3-0.5v0.5c0,0.2,0.3,0.5,0.5,0.5c-0.3,1-0.5,1.4-0.5,1.4c-1.8,1.6-3.2,3.8-4.3,6.7c-0.6,2.1-1.8,3.8-2.6,5.9
		c-0.6,1.9,0.3,4,1.8,3.2c1.8-0.5,2.7-0.2,4.2-0.2c0.8,0,2.1,0.2,3.4,0c5.6-0.2,9.6-3.4,12.3-9.9c1.1-2.7,1.1-5,0.3-6.9
		c-0.8-1.4-2.1-3.5-3.5-6.2c-1.4-1.9-2.4-3.7-3.7-5.6c-0.2-0.5-0.5-0.6-0.6-0.6l-0.6,0.8c-1.8,3.8-3.8,7.7-6.2,11.5v-0.6L1271,229.3
		L1271,229.3z M1288,241.2c1.1-2.7,1.1-5.1,0-7c0,0.2-0.2,0.2-0.6-0.3c-0.2,0.2-0.2,0.5-0.2,0.6c-0.5,2.7-0.6,5.1-1.1,7.5
		c-1.8,1.4-2.7,2.7-3,3.8c-0.2,0.2,0,0.3,0.2,0.8c0,0,0.2,0,0.3-0.2c1.8-1.8,2.6-3.2,2.4-4.5C1287,242,1287.8,241.6,1288,241.2
		L1288,241.2z"/>
</g>
</svg>
