<?xml version="1.0" encoding="utf-8"?>
<!-- Generator: Adobe Illustrator 22.1.0, SVG Export Plug-In . SVG Version: 6.00 Build 0)  -->
<svg version="1.1" id="Layer_1" xmlns="http://www.w3.org/2000/svg" xmlns:xlink="http://www.w3.org/1999/xlink" x="0px" y="0px"
	 viewBox="0 0 2175.8 545.5" style="enable-background:new 0 0 2175.8 545.5;" xml:space="preserve">
<style type="text/css">
	.st0{fill:#7BCEF4;}
	.st1{fill:#F0F9FA;}
	.st2{fill:#30A5CC;}
	.st3{fill:#FFFFFF;}
	.st4{fill:#B6E4F5;}
	.st5{fill:#215064;}
</style>
<path class="st0" d="M2175.9,0v545.5H800.7c1.2,0.8,2.3,1.5,3.5,2.3c-14.9-0.1-46.3-0.9-87.5-2.3H-4.4V0H2175.9z"/>
<g id="mountain_bg_1_">
	<g id="left_mountain_1_">
		<path class="st1" d="M948.8,520.9c-1.3,7.1-3,13.8-4.2,18.1c-0.6,2.1-1,3.6-1.2,4.3c-0.1,0.6-0.2,1.3-0.3,2.1H800.7
			c1.2,0.8,2.3,1.5,3.5,2.3c-14.9-0.1-46.3-0.9-87.5-2.3C536,539.5,166,523.8,166,523.8s12.1-43.5,27.3-67.6c2.6-4.2,5.1-7.3,7.2-10
			c0.9-1.1,1.7-2.3,2.5-3.3c2-2.8,3.7-5.6,4.8-9.2c6.2-17,15.8-34,15.8-34l51-41.2l18.3,5l18.3-21.1c0,0,30-12,32.6-17.2
			c2.6-5.2,26.7-13.3,32.6-25.5c5.9-12.2,48.9-15.7,63.9-27.9c15-12.2,48.7-36,56-49.3c0,0,0-0.1,0.1-0.1c0.3-0.5,0.6-1,1.1-1.4
			c0.1-0.1,0.2-0.2,0.3-0.3c10.7-9.3,55.9,12.5,65.1,17.4c9.7,5.2,22.2,19.7,40.4,16.2c18.3-3.5,36.5-2.9,56.1,18.6
			c19.6,21.5,33.3,36.6,47,42.9c13.7,6.4,40.4,20.4,47,26.5c1,0.9,2.6,2.1,4.6,3.4c0.4,0.3,0.9,0.5,1.3,0.8
			c10.4,6.6,29.3,15.8,37.9,18.6c0.1,0,0.1,0,0.2,0.1c0.6,0.2,1.1,0.3,1.6,0.5c0.2,0,0.3,0.1,0.6,0.2c0.1,0,0.2,0.1,0.3,0.2
			c9.6,5.3,65.9,60.2,105.4,95.5c15.7,14,28.8,25,35.2,28.5c0,0,0.1,0,0.1,0.1c0,0,0.1,0,0.1,0c1,0.5,1.8,0.9,2.4,1
			c0.1,0,0.1,0,0.2,0C951.8,492.8,951.2,507.5,948.8,520.9z"/>
		<path class="st2" d="M948.7,520.9c-1.3,7-3,13.8-4.2,18.1c-0.6,2.1-1,3.7-1.2,4.4c-0.1,0.5-0.2,1.2-0.3,2H800.7
			c-31.6-21-57-37.7-57.7-37.7c-1-0.1-2.6-1.8-4.1-4.1c-1.6-2.3-3.1-5.2-3.8-7.3c-0.5-1.6-0.1-2.8,0.4-3.9c0.8-1.8,1.9-3.2-1.1-5.2
			c-4.8-3.2-7-4.8-17.6-6.5c-10.6-1.7-8.1-5.9-13.2-8.5c-5.2-2.6-6.6-10.8-17.6-4.6c-11,6.2-12.8-10.7-18.3-14.3
			c-5.5-3.6-12.4-21.8-16.8-24.1c-4.4-2.3-25.2-22.4-30-23.4c-4.8-1-7.3-31.6-6.6-38.3c0.8-6.7-16.4-29.4-21.9-33.3
			s-13.2-20.5-18.3-22.8c-5.2-2.3-8.5-10.1-15.4-7.2c-6.9,2.9-17.9-6.5-23.8-7.8c-5.9-1.3-0.6-30.9-6.1-33.8
			c-5.5-3-15-18.2-15.4-25.4c-0.4-7-16.3-14.5-17.1-14.9c0,0,0,0,0,0c0.3-0.6,0.7-1.1,1.2-1.5c0.1-0.1,0.2-0.2,0.3-0.3
			c10.8-9,55.8,12.6,65,17.5c9.7,5.2,22.1,19.7,40.4,16.2s36.5-2.9,56.1,18.6c19.6,21.4,33.3,36.5,47,42.9s40.4,20.5,47,26.5
			c0.9,0.8,2.1,1.7,3.6,2.8l0,0c10.3,7.1,33.9,19.3,42,20.6c0.1,0,0.1,0,0.2,0c0,0,0,0,0,0c0.1,0,0.3,0,0.4,0.1
			c57.7,9.8,111.1,93,134.6,118.3l0,0c2.5,2.7,4.7,4.8,6.5,6c0.1,0.1,0.3,0.2,0.4,0.2c0.1,0,0.2,0.1,0.2,0.1
			c0.7,0.4,1.3,0.7,1.9,0.8C951.7,492.9,951.1,507.5,948.7,520.9z"/>
		<path id="mount_left_3_" class="st2" d="M943.4,491.3c-15-2.9-79.2-104.7-144.3-125.6c-8.3-2.7-39.1-17.4-45.7-23.4L943.4,491.3z"
			/>
	</g>
	<path class="st1" d="M1811.5,536.9c6.8,2.9,13.7,5.9,20.3,8.6h-751.1l-0.7-4.7c0.6,0,1.5-1.2,2.6-3.2c5.2-9.3,14.6-35.5,14.6-35.5
		l35.2-21.8l16.2-37.8l34.5-31.1l41.3-27.1c0,0,15.2-32.9,15.9-33.6c2.2-2.1,13.1-14.4,16.8-17.1c3.7-2.7,29.9-13,35.3-16
		c0,0,29.1,14.2,53.2,15.4c24.1,1.3,51.8,3.2,67.3-6.5s74.1-34.3,85.5-31c0.2,0,0.3,0.1,0.5,0.2c0,0,0.1,0,0.1,0.1
		c1.7,0.8,4.4,2.8,7.9,5.7c0.1,0,0.1,0.1,0.1,0.1c19.1,16.1,60.6,59.1,88.4,72.7c1.3,0.6,2.5,1.2,3.7,1.7c0,0,0,0,0,0
		c4.5,1.8,8.5,2.7,11.9,2.4c1.6-0.1,3.1-0.1,4.6,0c0,0,0,0,0.1,0c2.3,0.2,4.5,0.8,6.6,1.7c0.2,0.1,0.4,0.1,0.5,0.2
		c0.2,0.1,0.3,0.1,0.5,0.2c13.1,5.9,22.4,22.5,31.2,34.6c0,0,0,0,0,0.1c3.7,5.2,7.4,9.6,11.2,12c0,0,0,0,0,0c1,0.6,2,1.2,3.1,1.5h0
		c0.2,0.1,0.3,0.1,0.5,0.2c1.6,0.4,3.2,1.3,4.7,2.4c0,0,0,0,0,0c11.6,8.8,20.6,36.2,30.8,49.2c0,0,0,0,0,0c1,1.2,2,2.4,3,3.3
		c0,0,0,0,0.1,0.1c1.3,1.2,2.7,2.2,4.1,2.8c3.9,1.8,8.2,4.6,13,8.1c0,0,0.1,0,0.1,0c3,2.1,6.1,4.4,9.4,6.8c0,0,0,0,0.1,0.1
		c11.9,8.7,26.2,18.3,43,22.8C1787.5,527,1799.4,531.8,1811.5,536.9z"/>
	<path class="st1" d="M2096.4,545.5h-194.7c18.1-10.1,37.7-23.4,46.1-27.6c13.3-6.7,44.9-29,58.7-24.4h0c0.8,0.3,1.5,0.6,2.2,1.1
		c8.1,5.6,18.5,10.3,31,14.9c0.3,0.1,0.7,0.3,1,0.4c0,0,0,0,0,0c6.1,2.2,12.7,4.4,19.8,6.7c22.3,7.1,25,17.5,35.5,28.4
		C2096.1,545.2,2096.2,545.3,2096.4,545.5z"/>
	<path class="st2" d="M1813.6,545.1c0,0.1,0,0.3-0.1,0.4h-254.3c-0.9-4-1.5-8-1.4-11.2c0.4-9.4,13.7-12.8,12.4-18.8
		c-1.3-6.1,0.4-18.6,2-29c1.6-10.4,5.2-12.2,0-18.2c-5.2-6-19.5-37-19.5-37s-13-37.5-22.8-44.4c-9.8-7-6.5-38-17.6-37.2
		c-11,0.8-18.2-54.5-13.9-54.2c0.1,0,0.3,0.1,0.5,0.2c0,0,0.1,0,0.1,0.1c1.3,0.7,4.1,2.7,7.9,5.7c0.1,0,0.1,0.1,0.1,0.1
		c22.5,17.5,80.4,67.4,88.4,72.7c0.2,0.1,0.3,0.2,0.5,0.3c1.1,0.6,2.1,1,3.2,1.4c0,0,0,0,0,0c4.9,1.6,10.2,1.3,16.5,2.5
		c0,0,0,0,0.1,0c1.9,0.3,3.9,0.8,6.1,1.5c0.2,0,0.3,0.1,0.5,0.2c0.2,0.1,0.4,0.1,0.5,0.2c0.2,0.1,0.3,0.1,0.5,0.2
		c9.4,4.6,23.7,24.3,31.2,34.6c0,0,0,0,0,0.1c1.2,1.7,2.3,3.1,3,4.2c3.6,4.9,5.2,6.3,8.1,7.8c0,0,0,0,0,0c0.9,0.4,1.9,0.9,3.1,1.5h0
		c1.4,0.6,3,1.4,5,2.5c0.1,0,0.1,0.1,0.2,0.1c0,0,0,0,0,0c9.5,5.4,25.3,40.6,30.8,49.2c0,0,0,0,0,0c0.1,0.2,0.3,0.4,0.4,0.6
		c0.8,1.2,1.7,2.1,2.6,2.7c0,0,0,0,0.1,0.1c4.5,3.2,9.6,0.8,16.9,10.7c0.1,0,0.1,0.1,0.2,0.2c0,0,0.1,0,0.1,0
		c3.1,2.4,6.2,4.7,9.4,6.8c0,0,0,0,0.1,0.1c33.7,22.6,71.9,30.3,71.9,30.3s2.9,1.9,5,5C1813.1,539.1,1814.2,541.9,1813.6,545.1z"/>
	<path class="st2" d="M2061.1,545.5c-4.1-3.7-8.8-7.4-13.9-10.4c-11.9-7-15.8-6.1-26.2-10.3c-10.3-4.2-16-30.9-14.6-31.3h0
		c0,0,0,0,0,0c1.5,0,8.4,4.6,33.2,16c0.2,0.1,0.4,0.2,0.6,0.3c0.1,0,0.3,0,0.4,0.1c0,0,0,0,0,0c30.8,6.5,40,17.5,46.9,22.2
		c4.2,2.9,9.1,9,12.4,13.4H2061.1z"/>
</g>
<g id="snow_2_">
	<path class="st3" d="M800.7,545.5c1.2,0.8,2.3,1.5,3.5,2.3c-14.9-0.1-46.3-0.9-87.5-2.3H2V457c0,0,36.8-11.8,201-14.2
		c18.7-0.3,39.1-0.4,61.2-0.4c98,0,270.5,23,471.3,50.1c68.4,9.2,140,19,213.2,28.4c0,0,0,0,0.1,0c44.2,5.7,89,11.3,133.9,16.6
		c22.8,2.7,45.6,5.4,68.4,7.9H800.7z"/>
</g>
<g id="snow_shadows">
	<path class="st4" d="M1151.1,545.5h-169c-12.5-2.1-25-4.3-37.5-6.4c0,0-0.1,0-0.1,0c-69.6-11.9-138.9-24-205.6-35.4
		c-191.8-32.6-361.5-59.2-450.8-59.2c-34.3,0-62.5,0.5-87.6,1.7c-22.5,1-42.5,2.5-62,4.3C33.9,460.6,2,470.3,2,470.3V457
		c0,0,36.8-11.8,201-14.2c18.7-0.3,39.1-0.4,61.2-0.4c98,0,270.5,23,471.3,50.1c68.4,9.2,140,19,213.2,28.4c0,0,0,0,0.1,0
		c44.2,5.7,89,11.3,133.9,16.6C1105.4,540.3,1128.3,542.9,1151.1,545.5z"/>
</g>
<path id="clouds" class="st3" d="M257.6,160.8c0-8.3-6.7-15-15-15h-0.8c-3.4-8.1-11.4-13.4-20.2-13.4h-1.3
	c-4.1-14.2-17.1-24.5-32.6-24.5c-16,0-29.5,11.1-33,26.1c-8.1,2.5-14.1,9.8-14.9,18.6c-1.7-0.5-3.6-0.8-5.4-0.8
	c-7.3,0-13.7,4.1-17,10.1h140.1v0.1C257.5,161.6,257.6,161.2,257.6,160.8z M1710.8,253.9c-3.3-9.8-13.9-9-22.1-4.9
	c-2.4-30.2-35.1-19.6-39.2,4.1c-15.5-3.2-40.9-2.4-50.7,12.3c0,0,93.4-0.4,140.4-0.4C1731.1,257.6,1721.4,250.6,1710.8,253.9z
	 M2088.7,106.8c0-8.3-6.7-15-15-15h-0.8c-3.4-8.1-11.4-13.4-20.2-13.4h-1.3c-4.1-14.2-17.1-24.5-32.6-24.5c-16,0-29.5,11.1-33,26.1
	c-8.1,2.5-14.1,9.8-14.9,18.6c-1.7-0.5-3.6-0.8-5.4-0.8c-7.3,0-13.7,4.1-17,10.1h140.1v0.1C2088.6,107.6,2088.7,107.2,2088.7,106.8z
	"/>
<g>
	<path class="st5" d="M1014.2,189.9c-0.5,0.6-1,1.6-1.4,2.9c-0.2,1.3-0.8,2.6-1.9,3.7c-1,1.4-1.9,3.5-2.7,5.9
		c-0.5,1.4-1,2.7-1.8,3.5c-3,3.4-4.5,9.6-5.9,13.4c-0.8,1.3,0.2,0.6-0.6,1.4c-0.5,0.8-1.1,1.6-1.6,2.6c-1.8,5-2.7,8.6-4.5,12.3
		c-5,16-8.6,30.5-4,40.8c0.6,1.4,0.3,2.6-1,3.4c-1.1,0.8-2.9-0.2-5-2.9c-3.7-5.1-5.6-11-5.9-17.9c-0.3-6.9,1.9-16.2,6.9-27.8
		c3.4-10.7,9-20.3,13.4-30.7c1.8-4.3,3.5-7.5,5.9-11.8c1.4-1.9,2.4-4.2,3.7-6.1c0,0,0.2-0.2,0.2-0.3l-0.2-0.2l1.3-2.9
		c0,0,0-0.2,0.2-0.2c1.8-3,3.2-6.1,4.6-9.1c0.2-0.8-0.5-1.6-1.3-0.5c-2.6,3.2-5.1,6.6-7.8,9.6h-0.8h0.8c-0.8,1.3-2.2,2.9-3.7,4.2
		c-0.2,0.2-0.2,0.3-0.3,0.3c-0.8,1.4-1.6,2.2-2.2,3.4c-0.2,0.5,0.8-0.8,3.2-3.5c2.4-2.9,3.5-4.2,3.4-3.7c-2.4,3.8-6.2,9.6-11.2,17.1
		s-8.8,13.1-11.5,16.8c-5.8,9.8-13.1,18.4-18.7,28.1c-1.1,1.9-1.9,3.4-2.2,4.2c-0.8,3.5-2.6,4.6-5.3,3.2c-1.8-0.8-4.6-3.7-3.8-6.1
		c1.1-6.1,3.2-12.5,5.9-19.4c4.5-10.9,10.1-22.4,15-33.4l2.2-5.3c0.5-0.8,1.1-2.4,2.1-5.1c1.8-3.8,1.6-4.6-0.6-2.6
		c-2.1,2.1-4.8,5.1-8,9.3s-6.2,8.3-9.3,12.6l-4.6,6.4c-6.4,9.6-11.7,20-17,29.7c-1.9,3.8-3.4,6.7-4.2,8.6c-0.8,1.8-2.2,4.3-4.3,7.7
		c-0.2,0.5-1.8,0.2-5.1-1c-3.4-1.1-4.3-3-3.2-5.8c0.6-3,2.1-5.4,2.9-8.2c0-0.6,0.3-1.1,0.8-1.8c0.2-0.5,0.3-1,0.8-1.3
		c1.4-4.6,4.5-10.9,6.2-15.5c1.1-5.1,3.4-8.5,4.2-13.6c0-0.2,0.5-1,1.6-2.7c1.1-1.8,1.6-2.7,1.6-3c0-1.8,0.2-2.9,0.5-3
		c0.3-0.2,1-1.3,1.8-3.4c0.8-1.9,2.4-4.3,3-6.7l0.6-1.6c0.6-1.3,1.4-3.4,1.6-4.6c1.9-3.7,2.4-7.2,3.2-11c0.5-2.4-0.8-3.2-3.7-2.2
		c-6.2,2.6-11.4,5.4-15.7,8.8c-1.1,0.8-1.3,0.8-0.6-0.3c0.8-1.1,0.6-1.4-0.2-0.6c-0.6,0.8,0.5,0.5-0.3,1.9l-5,4.5
		c-2.2,2.1-3.8,4-4.6,5.6c-0.3,0.3-0.3-0.3,0.2-1.8c0.5-1.4,0.8-2.4,0.8-2.9c-0.2,0-1.1,4.5-1.8,5.1c-7.5,9.8-13.1,20.8-17.8,29.3
		c-0.5,1.6-1.3,1-2.6-1.9c-1.1-3-1.4-5.6-1-7.7c0.8-1.3,1.3-0.5,2.1-2.6c0.3-0.8,0.2-0.6-0.5,0.5s-0.8,1.1-0.6,0.2
		c0.5-1.8,1.8-4.3,3.7-8l4.2-7.7l0.3-0.2c-0.5,0.2,0.2-0.6,0.2-0.6c1.1-1.1,2.1-2.2,2.9-3.4c0.5-0.8-0.5,1.1,0,0.6
		c0.5-0.6,2.6-4,3.4-4.8l0.6-1.3l2.1-1.6c5.9-5.9,12.8-10.7,20.8-14.4c2.1-0.8,4.6-1.6,7.4-2.4c7.2-1.4,11.8-0.8,13.6,2.2
		s2.1,7.4,0.8,13.1c-1.9,7.7-5.3,15.7-8.3,23.3c-4.5,9-8.5,18.4-12.5,27.2c-0.2,0.6-0.3,1.3-0.3,1.8c1-1.1,1.4-1.6,1.4-1.6
		c4-6.6,7.5-13.3,11.4-20.2c4.2-6.9,8-12.5,11.5-17.1c3.7-4.6,8.3-10.1,14.1-16c2.6-2.9,5.3-3.5,8.3-2.1c3.7,1.8,4.8,4.3,3.4,7.5
		c-0.8,2.7-1.6,4.3-2.2,5.1c-0.5,0.8-1.4,2.4-2.7,5c-4.3,10.9-9.3,21.6-13.6,32.5c-0.2,0.2-0.3,1-0.8,2.4c0.5-0.6,2.4-1,3-1.8
		l1.4-2.1c-0.5,0.5-0.6,1.3-0.8,2.2l-0.6,0.6c0,0,0.2-0.2,0.6-0.2c0.8-0.8,1.4-1.9,2.1-2.7c1.8-2.7,3.2-5,4.5-7.7
		c0.3-0.2,1.1-0.8,2.4-2.1v-1c-0.5,0.3-0.6,0.5-0.6,0.3c-0.2,0.5-0.8,1.3-1.6,2.7c0,0-0.3,0.2-1,0.6l5.3-7.4v0.2l0.2-0.2
		c0.2-0.2,0.2-0.2,0-0.2l1.8-2.6v0.5c0.3,0,0.6-0.2,0.8-0.3c-0.5,0.3-0.2-0.3,0.6-1.9c1.4-1,1.9-1.3,1.6-1.1c0,0-0.5-0.2,0-0.3
		c-0.2,0-0.5,0-0.6,0.2c-0.5,0.5-1,0.8-1,1.3l-1,1.3c6.6-9,13.3-18.6,20.2-27.7c2.2-3.5,4-6.1,5.3-7.7c2.1-2.1,5.8-3.8,7.7-1.4
		c3.4,3,4.5,5.8,3.7,7.8c-0.8,2.1-2.2,5.6-4.6,10.4l-0.5,0.2C1016,187,1015,188.9,1014.2,189.9L1014.2,189.9z M903.7,207.5
		c0,0,0,0.3,0.2,0.3c0,0,0.2,0.2,0.2-0.3s0-0.8,0.5-1.6l1.9-3c0.2-0.6,0.6-1.4,0.8-2.1c0.2-0.6,0.8-1.1,1.6-1.6
		c0.2-0.3,0.3-0.5,0.3-0.6c0-0.3,0.3-0.8,0.8-1.3l0.5-0.5c0,0,0.3-0.5,0.5-0.6c0-0.3,0.3-1,1-2.1c0.6-1.1,0-0.5-1.9,1.9l-1.6,1.6
		c-0.2,0.6-0.6,0.8-0.5,1c-0.8,1.4-1.8,2.2-2.4,3.5c-0.6,1.1-1.1,2.2-1.6,3.5c-0.2,0.5-0.3,0.8-0.2,1.3
		C903.7,207,903.7,207.5,903.7,207.5L903.7,207.5z M929.2,228.3c-0.5,0.2-0.6,0.5-0.6,0.8C928.7,228.6,929,228.3,929.2,228.3z
		 M932.2,220.7c-1.1,0.6-1.6,1.4-1.8,2.2c0.2,0.2,0.2,0.3,0.3,0.3c0,0.5,0.3,0,0.3,0C930.9,222.7,932,221.9,932.2,220.7
		c0.5-0.3,0.6-1,0.6-1.8l0.2-0.5l-0.2,0.5C932.8,219.6,932.2,220.1,932.2,220.7z M935.4,212.7c0,0-0.5-0.5-0.5-0.6v0.5
		c0,0-0.2,0.3-0.3,0.8c-0.5,0.5-0.6,1.1-0.5,1.9c-0.2,0.2-0.6,0.5-0.6,0.5l0.6,0.6c0,0,0.2,0,0.2-0.5c0,0-0.2-0.5-0.2-0.6
		c0.3-0.5,0.5-1.1,0.3-1.9L935.4,212.7z M935.2,234c-0.5,0,0,0.2,0,0.2c0,0.2,0.2,0,0.3-0.3C935.6,234,935.4,234,935.2,234z
		 M936.2,210.2c0-0.3,0.2-0.5,0.3-0.5c0-0.2,0-0.3,0.2-0.5c-0.2,0.2-0.2,0.3-0.2,0.3C936.4,209.7,936.2,209.9,936.2,210.2z
		 M938.3,204.1c1.1-0.6,1.4-1.6,1.3-2.9l0.2-0.3v0.3c-1,0.6-1.4,1.6-1.3,2.9c-0.5,0.5-0.6,1.1-0.8,1.8c-0.3,0.2-0.5,0.5-0.6,0.8
		c0,0,0.2,0.5,0.6,0.5l0.2-0.3c-0.2-0.2-0.2-0.8-0.2-1C938.1,205.7,938.3,205.1,938.3,204.1z M943.4,192.7c0,0,0.2-0.2,0.2-0.3
		C943.5,192.6,943.5,192.7,943.4,192.7c-0.2,0.8-0.6,1.3-0.5,1.9c-0.2,0.2-0.2,0.2-0.2,0.3v-0.3
		C943.1,194.3,943.2,193.7,943.4,192.7z M946.9,201.5V201l-0.2,0.2C946.9,201.2,946.9,201.4,946.9,201.5z M947.1,200.9
		c0-0.2,0-0.2,0.2-0.3H947L947.1,200.9z M949.1,194.3h0.2c-0.6,1.4-1.3,2.6-1.8,4c0,0-0.2,0.6-0.5,1.8c0.8-0.5,1.4-0.3,1.9-1
		c1.3-4,3-8.3,4.8-12.3c0.2-0.3,0.2-0.5,0-0.6c0-0.2,0.3-0.8,0.5-1c0.5-1,1-2.4,1.3-4.2c0.2-0.8,0.2-1.3,0.2-1.4
		c-0.5,0.5-0.6,0.6-0.6,0.8c-0.5,0.8-0.8,1.9-1,3.4c-0.3,1-0.5,1.3-0.5,1.1c-0.2,0.2-0.3,0.5-0.3,1l-0.6,0.5L949.1,194.3
		L949.1,194.3z M956.7,177.7c0,0,0.2-0.5,0.3-1.4c-0.5,0.5-0.8,0.8-1,0.8c-0.2,0.2-0.3,0.8-0.5,1.9L956.7,177.7z M957,232.4
		c0,0,0.3-0.5,0.8-0.6c0-0.2-0.2-0.3-0.3-0.5c0,0.2-0.2,0.3-0.2,0.3c-0.5,0.5-0.3,0.8-0.3,1c-0.5,0.2-0.6,0.8-0.8,1.6l-0.6,0.8
		c0,0,0,0.5,0.2,0.5l0.3-0.3c0-0.2,0.2-0.3,0.2-1C956.3,233.7,956.8,233,957,232.4L957,232.4z M960.2,224.1
		c-0.8,1.4-1.6,3.8-2.7,6.9v0.3c0,0,0.6-0.2,0.8-0.3c0.6-2.6,2.2-4.8,2.4-7.2l0.5-0.5c-0.2,0.2-0.2,0.3-0.2,0.5
		C960.5,223.9,960.2,223.9,960.2,224.1z M963.5,216.4c-1.4,1.6-1.8,3-1.3,4.2c-0.5,0.5-0.6,1-0.6,1.1c0,0.3-0.2,0.6-0.6,1.1v0.3
		c-0.2-0.2-0.2-0.2,0-0.3c0.2-0.2,0.5-0.6,0.6-1.1c0-0.2,0.2-0.6,0.6-1.1C963.4,219.1,963.7,217.7,963.5,216.4
		c-0.2,0.2,0-0.2,0.2-1.3c0.2,0,0.2-0.2,0-0.5c0.2,0.2,0.2,0.5,0.2,0.5L963.5,216.4z M965.1,227.3l-0.2,0.2h0.3L965.1,227.3z
		 M976.2,214.5c0,0,0,0.3-0.2,0.8c-0.2,0.2-0.5,0.6-0.8,1.4L976.2,214.5z M979.9,265.4c0,0.5,0.2,0.6,0.8,1.3c0,0,0,0.2,0.2,0.2
		s0.3-0.2,0.5-0.5c-0.2-1.1-0.3-2.2-0.3-3.4c0.2-1.4,0.2-3.7,0.3-6.7c0.2-1.8,0.2-3.4,0.2-4.6c0.2-1.4,0.5-2.6,0.8-3.4
		c0.2-0.8,0.2-1.3,0.2-1.6c0-0.6,0.3-1.6,1-2.7c0,0,0.2-0.5,0.5-1.4c0.5-1.4,0.6-1.9,0.5-1.4c-0.2-0.8-0.2-2.2,0.2-4.5
		c0.3-2.4-0.5-0.6-2.2,5c-0.6,1.3-1.1,2.7-1.4,4.5c-0.5,0.8-0.6,1.3-0.6,1.8c-0.3,1.9-0.6,4.5-0.8,7.5c-0.5,2.6,0.2,5.1-0.3,7.2
		c0.5,1.3,0.6,2.2,0.6,2.9h-0.2V265.4z M989.8,197.9c0-0.2,0.2-0.5,0.3-1h-0.3c-0.2,0.2-0.2,0.5-0.2,1H989.8z M1013.3,172.3
		c-0.8,2.1-2.6,4.3-3.8,6.4l0.2,0.3c0.5-0.2,0.6-0.3,0.6-0.3c2.4-3,3.7-5.4,3.8-6.9c0,0,0.2-0.2,0.2-0.3c0,0.2,0,0.2-0.2,0.3
		C1013.4,172.3,1013.1,172.4,1013.3,172.3z"/>
	<path class="st5" d="M1027,227c1.8-2.2,2.6-3.8,2.7-4.8v0.3c0.8-0.5,0.8-1.3,0-2.2v0.2c1.4-3,3.4-5.8,5.1-8.8l0.2-0.5l3.5-3.7
		c1.1-1.1,1.9-2.6,3.2-4c0.6-0.8,1.3-1,1.9-0.3c2.1,1.4,3.5,2.7,4.3,3.7c0.5,0.6,0.6,1.4,0.5,2.6c0,0.5-0.3,1.8-0.8,3.5l-1,1.6
		c-6.2,8.2-9.9,17.3-13,26.7c-2.1,7.2-4.8,14.1-7.4,21c-0.6,2.6-1.9,4.6-2.7,7c-1.3,3.4-3.2,6.1-5,8.8c-1.8,2.6-4.5,5.1-8.2,7.5
		c-0.6,0.5-2.1,1.1-4.5,1.6c-5,0.8-9.4-0.2-13.6-2.9c-3.5-2.1-6.4-5.1-8.6-9c-1.3-2.1-1.4-4.3-0.5-6.7c0.2,0,0.5-0.5,0.5-0.6
		c0.2,0.2,0.3,0.5,0.3,0.8l0.5,1.9c0.8,4.3,3.7,7.2,8.6,8.6c6.6,1.9,12,0.3,16.3-5c2.7-3.2,5.3-8,7.7-14.2
		c1.9-5.1,3.5-10.7,5.4-16.3c0.8-3,1.9-5.6,3.2-8.6c0,0-0.2-0.3-0.2-1c-0.5,0.5-0.6,0.6-0.6,0.5c-2.1,3-3.4,5.1-3.8,6.2
		c-1.1,2.7-3.5,5.4-7.2,8.2c-2.7,2.1-5.1,1.8-7.4-1.3c-2.1-2.7-3-5.4-3-8.5c0.2-5.9,1.6-11.8,4-17.9c1.9-4.5,4.5-8.5,6.6-13
		c1.3-2.1,2.9-4.6,2.9-7.7c-0.2-0.8,1.1-1,1.8-0.8c2.4,2.2,4.3,4,5.4,5.3c0.8,1,1,2.2,0.3,4c-1.3,3-2.2,5.8-3.5,8.5
		c-1.4,3.2-2.9,5.8-4.2,8.8c-2.6,4-3.8,8.6-5.1,13.1c-0.2,0.2-0.3,1.3-0.5,3.7c0,0.5,0.2,0.8,0.5,0.8c0.5,0.3,1,0.2,1.4-0.3
		c2.2-2.1,4.5-5,6.9-8.6c1.4-2.6,3.2-4.6,5-7.2l-0.2-0.2c0.5,0.8,0.8,0.8,1.1,0l-0.2,0.2l1.1-1.1v0.1L1027,227L1027,227z
		 M995.4,281.3h-1c0.5,0.2,0.8,0.3,1,0.3c0.6,0,1.3,0,2.1-0.2C996.6,281.3,996,281.3,995.4,281.3L995.4,281.3z M1014.6,271.9v-0.3
		c-0.5,0-0.5,0.2-0.5,0.2c0,0.3,0,0.6-0.2,1c-0.2,0.2-0.5,0.6-1,0.8c-3.4,3.2-5.8,5.6-7,7c0,0.2-0.3,0.5-0.5,0.5l0.2,0.3
		c0,0.2,0.2,0.2,0.5,0.2c3.4-2.2,5.6-4.6,6.7-7.2v-1c0.2-0.2,0.6-0.3,1.1-1C1013.9,272.4,1014.1,272.1,1014.6,271.9z M1099.3,210.8
		c2.1-4.6,5-9.6,7.7-14.7c2.1-4.5,5.4-8.6,7.5-13.3c3-5.8,5.6-11.5,7.5-17.8c1.4-4.8-0.5-6.6-5.6-5.4c-9,2.4-15,8.6-21.3,15.2
		c-7.7,8.2-10.6,17.6-14.2,27.2c-1.1,2.6-2.7,3.7-4.6,3.5c-3-0.2-4.2-1.6-3.4-4.5c2.4-6.4,4-13.1,7.8-18.9
		c5.3-9.1,12.6-17.6,22.4-23.3c5.9-3.7,11.8-5.3,17.4-4.6c7.5,1.3,12.5,6.1,10.1,14.2c-2.1,7.2-5.6,14.2-9,21.1
		c-5,9.6-10.2,19-15.2,28.6c-4,7.5-7.5,15-10.6,22.2c-1.9,4.6-3.2,8.6-4,11.8c-0.2,0.2,0,0.6,0.3,1.4c0.8-0.2,1.4-0.5,1.6-1
		c4.5-5.8,9.8-11.5,13.4-18.1c6.4-11,12.8-21.3,19.4-32.3c3.7-5.9,7.7-12.8,12.6-18.7c2.4-2.1,3.8-0.3,5.6,0.3
		c3,1.8,3.8,3.5,2.6,5.4c-1.1,1.4-2.2,2.7-3.7,4.2c-4.3,6.9-9.9,15.8-16.6,26.9c-6.7,11-9.3,20-7.5,27c0.8,3.7,2.9,4.2,6.6,1.3
		l13.1-10.7c0.8-0.5,1,1,2.1,0.3c0.2-0.5,0.5-0.8,1-1.4c-2.4,0.5-3.2,0.3-2.1-0.8s1.9-2.1,2.1-2.9c4.5-7.2,9.8-14.7,13.4-22.5
		c6.6-14.1,13.8-28.1,13.8-42.9c0-5.1,0.3-9.8-0.2-14.9c0-0.5,0.5-1.4,1.6-2.6c1.1-1.1,2.2-1.4,3.4-1l1.1,1.6
		c2.9,10.7,15.5,36.1,32.1,22.5c2.6,3-0.8,6.9-2.9,8.2c-2.2,1.9-6.4,2.4-12.3,1.4s-10.1-4.2-12.2-9.6c-2.1,8.8-5.3,18.1-9.4,27.7
		l-1,2.9c-1.8,3.8-2.1,4.2-3.5,7.5c-1.1,2.4-2.6,5-3.4,7.5c-1.8,3.8-2.9,6.1-3.7,6.6c-0.6,0.5-2.2,2.6-4.8,6.1
		c-5,7.5-10.2,13.9-17.8,19c-13.4,9-22.4,4.6-26.1-7c-0.6-1.9-0.5-4.3-0.5-6.9c-0.5-0.2-0.6-0.6-0.6-1.3c-0.8,0.5-1.3,1-1.4,1.1
		c-4.5,6.6-8.6,13-12.6,19.4c-1.9,3-4.3,4-7,2.6c-3-1.4-4.3-3.7-4-6.7c0.2-5.3,1.4-11,3.8-17.4s5-12.2,7.5-17.4
		C1096.4,215.1,1097.9,213.2,1099.3,210.8L1099.3,210.8z M1078.1,191.9c0,0.5-0.2,0.6-0.2,1.1c0-0.5,0.6-0.5,0.8-1
		c1.9-3.7,4.6-6.9,4.5-11.2c1.1-1.3,2.4-2.6,3.8-3.8l-0.2-0.3c-1,0.8-2.1,2.2-3.5,4.3C1081.6,184.8,1079.5,188.1,1078.1,191.9
		L1078.1,191.9z M1088.9,174.4c0.5-0.6,0.8-1.1,1-1.6l1.1-1.3c0.3-0.3,0.6-0.6,1-0.8l1.8-2.1v-0.2l-1.8,2.1c-0.6,0.6-1,0.8-1,0.8
		c-0.5,0.8-1,1.3-1.1,1.4c-0.8,1.1-1.1,1.6-1,1.4V174.4L1088.9,174.4z M1090,234.8l0.2-0.2v-0.5C1090,234.3,1090,234.5,1090,234.8z
		 M1092.4,229.9c0-0.5-0.2-0.5-0.2-0.6h-0.2c-0.8,0.5-1.1,1.3-1,2.1c0,0,0,0.2,0.2,0.2c0,0,0.2,0,0.2-0.2L1092.4,229.9z M1094.7,223
		c0,0,0.2,0.2,0.3,0.2v0.5c0,0.2,0.2,0.3,0.5,0.5c0-0.2,0.3-0.3,0.5-1h-1.1L1094.7,223L1094.7,223z M1095.8,166.4l-0.2-0.2
		L1095.8,166.4z M1099.8,217.1c0,0-0.2-0.5-0.2-0.6c-0.3,0-0.5,0-0.5,0.2c-0.3,0.2-0.6,0.8-0.8,1.8c-0.2,0.3-0.3,0.6-0.8,1
		c0,0,0.3,0.3,0.5,0.3c0,0,0.2,0,0.2-0.2s0.2-0.5,0.2-1.1C1099.2,218.2,1099.6,217.9,1099.8,217.1L1099.8,217.1z M1103,210.3
		c0,0,0,0.2,0.2,0.2s0.3,0,0.3-0.2c0.2-0.6,0.3-1.9,0.8-3.7c0,0,0.3,0,0.5-0.5c0-0.2,0-0.3-0.2-0.5c0,0.2-0.2,0.3-0.2,0.3
		c0,0.3,0,0.5-0.2,0.6C1103.6,207.1,1103.2,208.3,1103,210.3L1103,210.3z M1106.2,204.3c0.8-1.8,1.4-2.9,1.9-3.5
		c1.8-1.9,2.2-4.5,3.4-6.6c-0.2,0.2-0.3-0.2-0.3-1c-0.5,0.2-0.6,0.3-0.6,0.5c-1.3,1.9-1.9,4.2-3,5.6s-1.3,3.4-1.9,4.8
		c0,0,0,0.2,0.2,0.2H1106.2z M1108,207.5v0.3h0.3C1108.1,207.6,1108.1,207.5,1108,207.5z M1116.3,191.5h0.3c0,0,0.2-0.3,0.3-0.5
		l-0.2-0.2L1116.3,191.5L1116.3,191.5z M1121.6,182.2h-0.2l-0.2,0.2l0.2,0.2C1121.6,182.4,1121.6,182.4,1121.6,182.2z M1143.8,238.8
		c0,0.2,1.1,0.3,1.1,0.3s0.2-0.2,0.3-0.2C1145.1,239,1143.8,238.8,1143.8,238.8z M1155.3,221.7c-0.6,0-0.8-0.2-0.6-0.3
		c1.8-2.7,3.5-8.6,6.7-12.3l0.6-1.1c0.2-0.3,0.2-0.6,0.2-1.1c-1.1,1.4-1.6,2.2-1.6,2.2c-2.4,4-4.3,8.2-6.7,12.5v-0.2
		c0,0.2-0.5,0.8-1.4,2.2c-1,1.4-1.3,2.1-1.1,2.1s1.4-2.4,2.6-3.2c0.5-0.5,1-0.6,1.3-0.6V221.7L1155.3,221.7z M1164.7,201.1v0.2
		c-0.2,0.2-0.2,0.3-0.3,0.3c0,0-0.3,0.5-0.8,1.4c-0.2,0-0.2,0-0.2-0.2c0.2-0.5,0.6-0.6,1.1-1.1
		C1164.6,201.7,1164.7,201.2,1164.7,201.1L1164.7,201.1z M1167.8,191.9v2.2l1.3-2.4l2.1-5.8c1.1-5.8,2.1-11.2,3.4-17.1
		c0,0-0.2-0.3-0.5-1.1c-0.5,0.5-0.6,1-0.6,1.1c-1.4,7.7-3.2,15.4-4.6,22.9C1168.2,191.8,1167.9,191.9,1167.8,191.9L1167.8,191.9z"/>
	<path class="st5" d="M1183.3,233.5c-0.8-1.1-1-1.9-0.2-2.6c0-0.2,0.3-0.8,0.8-1.6c3.2-5.3,5.4-11.5,6.7-18.7
		c0.8-5-0.2-9.4-2.7-13.4c-0.5-0.8-1.1-1.9-1.9-3.7c-0.3-0.6-0.3-1.4,0.2-2.6c0.5-1,1-1.1,1.3-0.3c1.1,1.8,3,2.7,5.4,3.2
		c1.4,0.3,2.6,1.3,3.5,2.9c0.8,2.1,1.8,4.8,3,6.9c0.2,0.2,0.2,0.3,0.2,0.8c-0.5,3.2,0.2,6.4-0.3,9.4c-1.6,7.5-5,14.9-9.9,21.8
		l-3.2,4.2c-2.6,3.7-6.4,5.6-10.1,7.5c-2.4,1.1-4.5,0.8-6.6-1.3c-2.7-2.7-4.2-6.1-4-10.4c0.5-6.7,1.9-13.3,4.5-19.8
		c0.6-1.6,1.8-3.8,3.5-6.7c1.4-3,4.3-4.8,7-6.9c0.8-0.6,2.1-0.6,3.7,0l2.4,1.4c1.1,1.1,1.1,2.1,0.3,3.2c-0.8,0.8-1.9,1.9-3.4,3
		c-1.1,1.1-1.6,2.1-1.8,2.9c-0.2,0.5-0.6,1.4-1.8,2.7c-2.7,3.7-4.6,7.7-5.6,12c-1.3,4-2.4,8-2.4,12.3v1.8c0,0.8,0.3,1,1.1,0.8l1.9-1
		c3.4-1.3,5.6-4.6,6.9-7.4c3.7-0.6,5.1,0.8,5.9-2.4c0,0-0.6-0.5-0.8-0.5c-0.5,0-1,0.2-1.4,0.5c-1.1,0.5-1.1,1.9-2.6,1.9h0.4V233.5
		L1183.3,233.5z M1195.3,210.8c-0.3-0.2-0.6,0-0.8,0.2c-0.3,0.8-0.5,1.1-0.5,1.1c0,1-0.3,2.4-1.1,4.2c-1.1,2.1-1.9,4.5-2.6,6.6
		c0,0.5,0.2,0.8,0.3,0.8h0.6c1.1-0.5,1.8-1.4,2.2-2.7c1-3.8,1.8-6.7,2.4-8.8c0-0.2-0.2-0.3-0.2-1
		C1195.6,211,1195.4,210.8,1195.3,210.8L1195.3,210.8z M1192.1,197.4l0.2-0.2h-0.2V197.4z M1195.8,205.7c0-0.2-0.2-0.3-0.3-0.5
		c0,0-0.2,0.2-0.5,0.6c0,0.5,0.2,0.6,0.3,0.8c0,0.5,0.2,0.6,0.2,0.6l0.3-0.5V205.7L1195.8,205.7z M1210.8,230.2
		c3.2-4.5,6.2-8.6,9.9-13c1.9-2.2,3.8-5.6,5.8-9.9c1.9-4.3,4-8.3,6.4-11.7c0.8-1.4,2.1-1.6,3.5-0.5l2.7,2.7c1.1,0.8,1.4,2.1,1.1,3.7
		l-1.4,2.6c-0.8,0.8-1.6,1.8-2.2,2.9c-1.6,2.2-3,5.8-4.3,10.4c-1.1,4.6-0.2,7.8,3,9.3c0.6,0.5,0.8,1,0.5,1.4c-0.5,1-0.8,1.6-1.3,2.1
		c-0.8,0.8-1.6,1-2.4,0.2c-3.2-1.8-7.7-5.6-8.5-9.4c-0.5-1.4-1.3-1.4-2.1-0.2c-1.8,2.4-3.4,4.5-4.8,6.9c-0.8,1.3-2.2,3.4-4.3,6.1
		c-4.3,5.6-8.2,10.9-11.5,15.7l-0.3,0.3c-0.6,0.8-0.3,2.6-2.1,2.7c-1.4-1.3-3.5-1-4.6-3.4c0-0.5-0.2-1-0.3-1.3c-0.8-1-1-2.2-0.3-4
		c1.3-3,2.4-6.2,3.7-9c3.4-6.6,6.2-13.6,9.6-20.6l7-15c0.5-1.4,1.3-1.6,2.4-0.8c1.3,1.1,2.4,1.9,3.8,2.6c1.6,1.4,2.2,2.9,1.8,4.5
		c-0.3,0.8-0.8,1.8-1.6,2.9l-9.1,18.2c-1.1,2.4-1.4,4.2-1.3,5h-0.3l-0.3,0.2c0.3,0,0.5-0.2,0.5-0.3
		C1210.2,230.8,1210.6,230.3,1210.8,230.2L1210.8,230.2z M1200.1,240.4c0.6-0.2,1-0.6,1-1.8c0.3-0.5,0.5-0.6,0.5-0.6
		s-0.2-0.3-0.2-0.5c0,0.2-0.2,0.3-0.2,0.3c0,0.5,0,0.8-0.2,1c-0.5,0.3-0.8,1-0.8,1.8c-0.5,0.3-0.8,1-0.8,1.9
		c-0.3,0.2-0.5,0.5-0.6,0.8v0.3c0,0,0.3-0.2,0.3-0.3v-1C1200.1,242.3,1200.4,241.7,1200.1,240.4L1200.1,240.4z M1202.5,235.6v-0.2
		h-0.2L1202.5,235.6z M1207.9,222.3c2.2-5.3,3.5-8,3.7-8.2c0,0-0.3-0.6-0.3-0.8c-0.2,0.3-0.3,0.5-0.3,0.6
		C1211,214.2,1210,217.1,1207.9,222.3c-2.1,5.3-3,7.8-3,8c-0.2,0.2-0.5,0.3-0.6,0.6v0.6l0.5-0.5v-0.8
		C1204.8,230,1205.8,227.6,1207.9,222.3L1207.9,222.3z M1275.9,200.9c0.3,0,0.6,0.2,1,0.3c0.8,1.1,1.1,2.4,1.1,3.5
		c0.2,4-0.5,7.5-1.8,10.6c-1.1,3-2.4,5.4-3.7,8c-1.4,3.4-3.7,6.2-6.4,9c-1.4,1.4-3.2,2.7-5,3.8s-3.4,1.4-5.1,0.8l0.2,0.5
		c-0.2,0.2-0.2,0.3-0.2,0.6c0.5,4.8,1.4,9.6,3,14.2c0.3,1.8,1.8,4.2,4.3,7.4c0,0.2,1,0.5,2.7,0.8c0.6,0,1,0.3,1,1v1.8
		c-0.5,2.6-1.6,3-3.4,1.6c-2.6-1.8-4.3-3.4-5.4-5c-4.5-4.8-6.9-10.6-7.4-17.3c-0.5-1.8-0.5-3.5-0.5-5.6c0-0.5-0.3-1-1.1-1.8
		c-0.3-0.2-0.6-0.2-0.8,0c-0.3,0.2-0.8,0.8-1.3,1.6l-6.9,10.7c-0.8,1.3-1.6,1.6-2.7,1c-1.4-0.5-2.4-1.3-2.7-2.4
		c-0.8-1.1-1.1-1.6-1-1.4c-0.6-0.8-0.8-2.2-0.5-4.2c1.1-1.8,1.8-3.5,2.1-5.3l0.2,0.2c0,0,0.2-0.3,0.2-0.5c0.8-0.2,1-0.6,0.6-1.6
		c0-0.2,0-0.2-0.2-0.3c1.4-4,2.6-6.9,3.2-9l7.2-17.3c3-6.6,6.1-13.6,9.4-20.2c2.1-5,4.6-9.8,7.2-14.7c0.2-0.5,0.6-0.6,1.3-0.5
		c2.1,0.5,3.8,2.1,5.6,4.8c0.5,0.8,0.6,1.4,0.5,1.9c-0.6,2.1-1,3.4-1.1,3.5l-4,7.5c-5.3,9.6-9.4,19.5-13.4,29.1
		c-1.8,3.4-2.9,5.9-3.7,7.7c-0.8,1.9-1.1,3.4-0.8,4.2l-0.2-0.2c1.8-2.4,3.4-4.8,5.3-7.2c5-6.6,10.9-15.2,16.8-21.6
		c1.4-1.3,3-1.4,5-0.5C1274.9,201.1,1275.4,201.1,1275.9,200.9L1275.9,200.9z M1235.9,234.2v0.6c0,0.2-0.2,0.2-0.2,0.2L1235.9,234.2
		z M1239.9,231.1v0.2h0.2L1239.9,231.1z M1241.3,228.7c0.2-0.2,0-0.3-0.2-0.6l-0.5,0.5v0.6c0,0.5,0,0.8-0.2,0.6c0,0,0.2-0.5,0.2-0.6
		C1241.2,228.9,1241.3,228.7,1241.3,228.7z M1251.7,199.5c-0.3,0.2-0.5,0.6-0.5,1.4c0,0.2-0.2,0.2-0.3,0.2c-1.3,1.6-2.2,3.5-3,5.9
		c0,0.5,0.2,0.8,0.2,1.3c-0.8,0.2-1.3,0.8-1.4,1.9c-1.8,4.3-3.5,8.3-5.4,12c0,0.5,0.2,0.8,0.2,0.8c0.3,0,0.5,0,0.6-0.2
		c0.8-1.3,1.1-1.8,1.1-1.4c1.4-3.8,3.2-7.5,4.6-11.2c0-0.6,0.2-1.1,0.3-1.9c2.1-1.9,3.2-4,3.4-6.4c0-0.2-0.2-0.5-0.2-1
		C1251.9,200.7,1252.1,200.3,1251.7,199.5c1.1-0.5,1.8-1.3,1.6-2.4C1252.2,197.4,1251.7,198.2,1251.7,199.5L1251.7,199.5z
		 M1242.6,225.5h-0.2v0.2L1242.6,225.5z M1242.9,224.1l0.2-0.2h-0.2V224.1z M1244.2,220.6l-0.2,0.2l0.2,0.2V220.6z M1245.3,217.9
		l0.2-0.2l-0.2-0.2V217.9z M1246.1,216.3c-0.2,0,0-0.2,0.3-0.6c0,0,0.2-0.3,0.2-0.5c-0.2-0.2-0.2,0-0.2,0.5
		C1246.3,215.8,1246.1,216.3,1246.1,216.3z M1247.3,213.5l0.2,0.3v-0.3H1247.3z M1248.5,211.1l0.2,0.3v-0.5L1248.5,211.1z
		 M1250.3,207.5c0,0,0.8,0.2,0.2-0.5C1250.5,207.1,1250.3,207.5,1250.3,207.5c-0.5,0.3-0.6,1-0.6,1.8c0,0.5-0.2,0.6-0.3,0.5
		c0,0,0.3-0.3,0.3-0.5C1250.1,209.2,1250.3,208.6,1250.3,207.5z M1250.9,231.4c-0.5-0.8-0.2-1.1,0.8-1.1h2.6c1.4,0,2.1,0,2.1,0.2
		c0.8-1.3,2.7-0.6,2.9-2.4c0.3-0.5,0.6-0.6,0.8-0.8c3.8-4,5.3-5.4,7.4-10.1c1.4-2.7,3.4-5.9,4-9.8c0.5-1.1,0.6-2.4,1.1-3.8
		c0-0.2,0-0.2-0.2-0.3l-0.2-0.2c-1,0.8-1.6,1.3-2.1,1.4l-0.5,0.8l-4.5,5.3c-2.4,3-6.1,7.5-8.2,10.6c-2.4,3.4-4.2,6.7-6.6,9.9
		c0,0.2,0.2,0.6,0.2,0.6h0.5C1251.1,231.6,1251.1,231.6,1250.9,231.4L1250.9,231.4z M1252.5,203.1c-0.2,0.2-0.3,0.5-0.3,0.5
		l-0.8,0.8l-0.5,0.5c0,0.5,0.2,0.6,0.2,0.6c0.2,0,0.3-0.2,0.3-0.3v-0.8l0.8-0.8C1252.4,203.5,1252.5,203.3,1252.5,203.1z
		 M1253.3,201.7l-0.3-0.2v0.2H1253.3z M1253.8,200.1v-0.2h-0.2L1253.8,200.1z M1254.6,234.6c2.9-1.3,4.6-2.7,5.4-4.3
		c1.4-0.6,2.6-1.4,3.4-2.2l0.2-0.3c-0.5,0-0.6,0-0.6-0.2l-2.2,1.1c-0.5,0.2-0.6,0.8-0.6,1.6c-0.6,0-1.3,0.3-2.1,1
		c-1.8,1.1-3,1.9-4,2.4L1254.6,234.6L1254.6,234.6z M1254.3,198.3v0.2h0.3L1254.3,198.3z M1254.6,231.3l-0.3,0.2l0.3,0.2V231.3z
		 M1255.3,196.4c0,0-0.8,0.3-0.2,0.5c0,0,0.2-0.5,0.2-0.6c0.5,0,0.8-0.5,0.8-1.4c0.3-0.2,0.5-0.6,0.5-1.6c0.5-0.2,0.8-0.6,0.6-1.8
		c1-0.2,1.4-1,1.3-2.4c0.5,0,0.6-0.5,0.6-1.4c0.5-0.2,0.6-0.6,0.6-1.6c0.2-0.2,0.3-0.5,0.3-0.6c-0.2,0.5-0.3,0.6-0.3,0.6
		c-0.6,0.2-0.8,0.8-0.6,1.6c-0.8,0.3-1,0.8-0.5,1.4c-1.3,0.6-1.8,1.4-1.4,2.4c-0.5,0.3-0.6,1-0.6,1.8c-0.6,0.3-0.8,0.8-0.5,1.6
		C1255.6,195,1255.3,195.5,1255.3,196.4z M1260.7,184.1l0.2-0.2h-0.2V184.1z M1261.2,182.4l0.2,0.2v-0.2H1261.2z M1262.4,179v0.2
		h0.2L1262.4,179z M1269,221.5c1.6-2.1,2.4-4,2.2-6.1c0.5-1,0.8-1.3,0.8-1.1c1-2.4,1.9-5.1,2.9-8.2c0,0-0.2-0.5-0.2-0.6
		c-0.3,0.3-0.5,0.5-0.5,0.3c-0.8,2.1-1.8,4.5-2.4,6.9c-0.5,1.1-0.8,2.1-0.6,2.7c-1,1-1.4,1.3-1.3,1.1L1269,221.5
		c-0.5,0.2-0.6,0.6-0.6,1.4c-0.5,0.2-0.6,0.5-0.8,0.8c-1.3,0.8-2.1,1.6-2.2,2.6c0,0.3,0.2,0.5,0.3,0.5c0,0.5,0.2,0.5,0.5,0
		c0.8-1,1.3-1.9,1.4-3c0.2-0.3,0.3-0.6,0.8-0.8C1268.8,222.8,1269,222.3,1269,221.5L1269,221.5z"/>
</g>
</svg>
