<?xml version="1.0" encoding="utf-8"?>
<!-- Generator: Adobe Illustrator 22.0.1, SVG Export Plug-In . SVG Version: 6.00 Build 0)  -->
<svg version="1.1" id="Layer_1" xmlns="http://www.w3.org/2000/svg" xmlns:xlink="http://www.w3.org/1999/xlink" x="0px" y="0px"
	 viewBox="0 0 2175.8 1067" style="enable-background:new 0 0 2175.8 1067;" xml:space="preserve">
<style type="text/css">
	.st0{fill:#A9F7F5;}
	.st1{fill:#FFFFFF;}
	.st2{fill:#6CEF6C;}
	.st3{fill:#63DB63;}
	.st4{fill:#68AFB1;}
	.st5{fill:#FFC7C0;}
	.st6{fill:#B26E62;}
	.st7{fill:#95E5E1;}
	.st8{opacity:0.57;fill:#FFFFFF;enable-background:new    ;}
	.st9{fill:#9EDFDE;}
	.st10{fill:#73D154;}
	.st11{fill:#66C642;}
	.st12{fill:#E3EAAC;}
	.st13{fill:#507575;}
	.st14{fill:#669C4A;}
	.st15{fill:#8DDF9A;}
	.st16{fill:#527E2B;}
	.st17{fill:#78C97A;}
	.st18{fill:#FFE1CB;}
</style>
<g id="Layer_1_1_">
	<path class="st0" d="M1.1,1h2172.1v1117.4H1.1V1z"/>
	<path class="st1" d="M918.5,574.8c0,0-23.2-6.6-23.2-66.9s29.2-102.4,80.7-102.4c57.4,0,102.7,30.3,96,90.5
		c-0.7,2,41.7-13.2,68.2,9.3s17.9,45.7,17.9,45.7s47.7-21.2,83.4-10.6c35.7,10.6,39.1,51,35.1,58.3S918.5,574.8,918.5,574.8z"/>
	<path class="st1" d="M462.2,273.8c-2.3-0.2-4.4-1.1-6-2.7c-1.2-1.3-2.2-3-2.2-5.5c0-6.2,14.5-20.7,31.7-19.9
		c0,0.3-13.2-14.5-12.9-29.3c0.3-14.8,12.6-41.9,66.9-41.9s34.4,39.3,34.4,39.3s18.6-4.3,28.8,3.2s10.8,17.2,9.1,21.2
		c-0.3,0.5,54.9-1.6,54.6,24.5C666.4,287.2,483.3,275.3,462.2,273.8z"/>
	<path class="st1" d="M1668.9,249.4c-0.2,0.3-0.7,0.1-0.7-0.3c1.5-9.6,5.1-51.5-41.8-51.5c-53,0-56.5,53.8-56.5,71.5
		c0,16.3,14.5,51.5,52,51.5s164.5,4,164.5,4s22-1.5,22-24s-22.3-48.3-48-48.3c-22.4,0-38.2,11.8-41.8,14.6c-0.3,0.3-0.8,0.1-0.8-0.3
		c-0.4-5.3-3.1-30.3-21.2-30.3C1679.4,236.4,1671.5,245.5,1668.9,249.4z"/>
	<path class="st2" d="M2175.8,662.8c-4,1.2-7.9,2.4-11.9,3.6c-23.3,6.8-46.5,14-70,20.4c-17.1,4.7-34.6,8.5-52,12.3
		c-33.2,7.1-66.5,14-99.9,20.8c-7.5,1.5-15.3,2.3-22.9,3.6c-3,0.5-5.9,1.6-9,2.1c-11.9,1.9-23.9,3.6-35.9,5.4c-1.9,0.3-3.8,1-5.8,1
		c-1.1,0-2.5-0.6-3.3-1.3c-0.4-0.4,0.1-1.8,0.8-2.3c5.8-4.5,11.7-8.9,17.5-13.4c2.1-1.6,4.3-1.5,6.8-0.7c2.6,0.8,5.4,1.1,8.1,1.6
		c2.1-5.8,0.2-10.1-5.1-12.7c-4.1-2-10.5-1.3-14.4,1.4c-11.3,7.9-22.7,15.7-34.1,23.6c-1.4,0.9-3,1.7-4.1,2.8
		c-5.6,6-13.7,6.3-21.9,6.7c-2.6,0.1-5.2,1.4-7.7,1.2c-5.6-0.4-11,1.1-16.4,1.1c-7.8,0-15.3,0.3-23,1.2c-7.5,0.8-15.2,0.3-22.7,0.3
		c-15.8,0-31.6,0.1-47.4-0.1c-3.5,0-6.9-1.1-10.4-1.5c-2.6-0.3-5.3-0.7-7.7-0.2c-4.7,0.8-9.2,1.1-13.8-0.4c-0.6-0.2-1.3-0.6-1.9-0.5
		c-5.6,0.5-10.9-0.1-16.4-1c-6.4-1.1-13-1.2-19.5-1.8c-7-0.7-14-1.5-20.9-2.4c-12.7-1.7-25.4-3.2-37.9-5.5
		c-15.2-2.8-30.3-6-45.1-9.7c-10.6-2.6-20.9-6.2-31.2-9.6c-10.3-3.4-20.7-6.7-30.5-10.8c-11.6-4.9-22.7-10.7-33.9-16.2
		c-4.4-2.1-9-4.1-12.9-6.8c-6.4-4.3-6.2-6.8,0.6-11.1c9.7-6.1,19.3-12.4,29.3-18.1c31.1-17.7,62.6-34.9,95.3-50.7
		c25.2-12.2,51-23.3,78-32.5c17-5.7,113.9-32.6,212.9-32.6s221.9,40,233.2,43.4c14.2,4.3,92.2,37,102.9,42.3c1.3,0.7,2.9,1,4.3,1.5
		C2175.8,632.3,2175.8,647.5,2175.8,662.8L2175.8,662.8z M1504.2,592.4c6.5-0.7,12.9,2.5,18.2-2.3c2.1,1.7,3.6,3.1,5.6,4.7
		c-2,1.3-3.4,2.2-4.8,3c-30.9,17-61.8,33.8-92.6,50.9c-7.5,4.2-14.3,9.3-21.5,13.8c-5,3.2-6.2,3-10.9-0.4
		c-8.1-6-14.9-12.9-19.4-21.2c-1.4-2.6-3.5-5.1-5.2-7.6c-0.7-0.9-1.4-1.9-1.9-2.9c-5-9.6-7.9-19.7-7.9-30.1c0-4.8,1.2-9.7,2.5-14.4
		c1.5-5.5,5.1-7.5,12.1-8.2c1.5-0.1,3.2-0.2,4.5-0.8c4.2-1.8,8.1-1.9,12.8-1c2.8,0.6,6.5-0.6,9.5-1.6c5.9-2,8-1.6,10.5,2.8
		c2.9,5.1,6.1,6.7,12,4.2c6.3-2.7,10.8-0.7,16.1,1.4c15.1,6.2,30.5,12,45.8,17.9c1.6,0.6,3.4,1,5.1,1.3c6.1,0.9,9.2-1.3,9.4-6.4
		C1504.2,594.7,1504.2,593.8,1504.2,592.4L1504.2,592.4z M1129.8,713c-12.9-4.7-24.9-10.7-38-14.9c-2.8-0.8-5.7-1.6-8.6-2.2
		c-8.6-2-17.3-3.3-26.2-3.1c-2.1,0-4.3,0.1-6.4,0.3s-4.3,0.4-6.4,0.8c-2.3,0.2-4.5,0.4-6.8,0.7c-2.3,0.2-4.5,0.4-6.8,0.7
		c-2.2,0.2-4.4,0.2-6.5,0.2c-11.1,0-22.2,0.1-33.3,0c-18.2,0-36.2-1.4-54.2-4c-17.3-2.5-34.4-5.6-51.2-10.2
		c-19.3-5.4-37.8-12.8-55.3-22.8c-7.1-4-14-8.4-21-12.6c-1.6-1-3-2.4-5.1-4.1c2.9-2.5,5.2-4.7,7.8-6.7c27.3-20.9,56-39.6,85.8-56.8
		c13.6-7.8,27.6-14.7,42.3-20c8.4-3,54.2-20.2,110.8-20.2c58.3,0,164,32.6,188.7,44.5c10,4.8,19.2,11.1,28.7,16.7
		c2.7,1.6,3.5,3.9,3.5,6.9c-0.1,8.2-0.1,16.4,0,24.5c0.1,4.1-1.6,6.4-5.4,7.7c-15.1,5.4-29.9,11.3-45.1,16.2
		c-8.8,2.8-17.7,5.4-26.6,7.9c-3,0.8-5.9,1.7-8.9,2.5c-1.9,0.3-3.9,1.3-5.9,3.3c-10,12-5,31-18,41c2-3,3-6,3-9c0,1-1,2-1,3
		c-2-10-15-10-22-17c5,3,11,10,9,16c-3,6-11,5-16,3c1,3,8,6,1,7.7C1136.3,713.5,1134.8,713.6,1129.8,713L1129.8,713z M781.3,569.8
		c3,2.3,6.1,2.1,9.2,0.5c0.6-0.3,1.5-0.6,2.1-0.4c3.5,1.5,6.6,0.4,9.9-1c2.7-1.2,4.4,0.4,5.6,2.8c2.2,4.1,3.6,4.8,7.7,2.8
		c4.9-2.4,9.6-5.2,14.2-8.1c3.1-1.9,5.9-2.2,9.2-0.8c1.9,0.8,4.2,0.8,6.3,0.9c2,0.1,4,0.1,5.9-0.1c3.2-0.4,6.4-1,10.2-1.6
		c0.7,1.9,1.8,4,2.2,6.2c0.5,2.7,1.5,4.5,4.4,4.5c2.5,0,3.9,1,4.6,3.6c0.6,2,2.1,3.7,3.5,6.2c-1.9,1.4-3.9,2.9-5.9,4.3
		c-19.2,13.1-38.4,26.1-57.6,39.3c-3.4,2.4-6.5,5.2-9.7,8c-2.2,1.9-4.1,1.8-6.2-0.2c-15.1-14.5-22.9-32-21.3-53.2
		C776.1,578.6,777.7,574,781.3,569.8L781.3,569.8z"/>
	<path class="st3" d="M2177.1,624v565H0.3c-0.1-3.3-0.2-6.6-0.2-9.8V632.8c0-2,0.2-4,0-6c-0.5-4.4,2.2-7.6,7.1-10.3
		c14.2-8,29.2-15.2,45.1-21.5c50.5-20,104.1-34.9,160.5-44.7c96.9-16.8,194.8-30.6,294.2-38.3c25.8-2,51.9-2.9,77.9-3.2
		c25.2-0.3,50.4,1.6,75.4,3.8c55.1,4.9,108.6,13.9,160.8,26.8c39.7,9.8,76.4,23.7,112.7,38.3c45.1,18.2,86,40.1,122.9,65.6
		c6.9,4.8,14,9.5,21,14.2c23.1,15.8-12.5-12.5-29.9-24.3c-7.5-5.5-5.2-6.4,3.6-11.2c22.3-14.6,48.5-24.7,78.1-30.7
		c69.1-14.1,139.8-21.8,211.8-24c35.8-1.1,71.7-0.8,107.5,1.9c47.2,3.6,93.4,10,137.8,21.9c71.3,19.1,139.3,42.4,201.6,73.2
		c13.7,6.8,25.8,14.5,38.1,22.3c2.3,1.5,4.4,3.2,6.5,4.8c6.5,5.2,6.4,5.7-1.3,9.8c-7.9,4.3-16.1,8.4-23.7,12.9
		c-16.6,9.9-0.6,5.1-17,15.2c-2.6,1.6,58.1-33.2,8.2-6.6c0.9,0.6,4.4-0.5,5.3-1.1c2.9-1.6-8.2,2.7-5.3,1.1c13.7-7.8-8.4,6.7,5.3-1.1
		c29.3-16.5,58.4-33.4,93-44.8c9.8-3.2,19.4-6.8,29.1-10.2C2005.2,639.8,2089,626.1,2177.1,624z"/>
</g>
<g id="birds_and_clouds">
	<path class="st4" d="M200.5,222.7c2.9-4.9,7.2-6.9,13-6.2c5.6,0.7,8.6,4.8,12,9.6c2.1-2.3,3.7-4.6,5.7-6.2c6.8-5.6,15.3-3.2,18.6,5
		c0.4,1,1,2.2-0.2,2.9c-1.3,0.7-1.9-0.7-2.5-1.5c-6.5-8.3-10-8.5-17.1-0.7c-1.3,1.5-2.5,3.1-3.8,4.6s-2.5,1.3-3.4-0.4
		c-0.6-1.1-1-2.3-1.6-3.5c-3.9-7.9-10.5-9.8-18-5.2C202.4,221.7,201.8,222.9,200.5,222.7L200.5,222.7z M1610.7,468
		c-4.5-4.4-5.6-11.8-13.1-11.8c-7-0.1-10.4,4.8-13.2,10.2c-2.9-1.8-2.3-4.4-3.1-6.3c-3.1-7.5-8.9-9.6-15.9-5.5
		c-4.6,2.6-7.6,6.8-11.3,10.4c2.9-7.6,7.6-13.3,15.5-15.6c5.2-1.4,9.3,1,12.5,5.2s3.2,4.2,7.9,1.3c9.8-5.7,19.5-1.1,21.5,10.2
		C1611.8,466.5,1611.3,467,1610.7,468L1610.7,468z"/>
</g>
<g id="Trees">
	<path class="st5" d="M476.2,459.2c7.9-0.8,14.7,0.1,21,3c15.7,7.1,23.9,19.9,25.9,36.4c2.1,17.8-2.2,34.3-13.3,48.7
		c-11.4,14.8-26.2,23.7-44.5,27.1c-20.5,3.8-37.7-1.8-52-16.7c-3.4-3.5-6.9-7-9.6-11.1c-2.8-4.1-4.1-4-7.4-0.1
		c-6.8,7.8-13.7,15.6-22.1,21.7c-11.1,8.2-23.5,13.8-37.3,15.7c-9.5,1.3-18-1.9-25.5-7.4c-11.8-8.7-20-20.2-23.8-34.3
		c-6-22.3,0.5-41.9,18.8-56.3c3.6-2.8,7.9-4.4,12.4-5.3c3.7-0.7,4-1.4,2.2-4.7c-2.9-5.5-5.7-11-7.5-16.9c-5-16.4-3.9-32.3,4.5-47.5
		c2.8-5,6.6-9.2,11-12.7c4.6-3.7,10-4.9,15.9-4.4c6.2,0.6,6.4,0.5,6.2-5.9c-0.1-7.3,0.1-14.6,2.9-21.5c7.7-19,21.2-31.5,42-33.3
		c15.8-1.4,30.6,7.4,36,24.9c3.4,11.1,2,21.9-1.4,32.7c-2.4,7.4-2.2,7.5,5.3,6.1c12.9-2.4,25,0.2,36.2,6.8c10.3,6.1,16,19,14,31
		c-1.1,6.7-3,13.1-6.9,18.8C478.1,455.4,477.5,456.9,476.2,459.2L476.2,459.2z M1812.6,870.7c-3.8,5.3-7.4,9.8-10.5,14.7
		c-9.2,14.1-23.4,17.8-38.6,13.9c-7.1-1.8-12.2-6.7-15.8-12.6c-9.4-15.2-9.7-31.3-3.1-47.6c4.8-11.8,12.2-21.9,22.8-29.3
		c3.3-2.3,3.2-2.8-0.2-4.6c-4.4-2.3-8.4-5.1-12.1-8.3c-14.6-12.5-12.9-30.9-7.6-42.4c6-12.8,17.6-19.5,31.7-18.7
		c4,0.2,7.5,2.2,11.3,3.3c0.9-2-0.4-3.1-0.9-4.4c-4.8-12.3-7.8-24.9-7.8-38.2c0-10.6,3.9-19.6,10.1-27.6c4.3-5.6,9.8-10.2,16.3-13.4
		c14.5-7.1,26.8-4.4,36.5,8.6c4.8,6.4,7.3,13.8,8.1,21.7c1.1,11.3-0.4,22.1-6,32.2c-0.6,1.1-1.6,2.1-1.3,3.5
		c1.2,1.3,2.3,0.3,3.4-0.1c12.7-4.2,24-2.1,33.6,7.5c9.6,9.7,13.1,21.2,9.2,34.5c-2.7,9.1-7.5,16.9-15.1,22.8
		c-0.9,0.7-1.7,1.4-2.4,2.2c-0.8,1-0.6,2,0.6,2.6c0.3,0.2,0.7,0.3,1,0.4c15.2,4.5,21.2,16.2,23.5,30.5c2.6,16.1,0,31.5-7.8,45.9
		c-7.9,14.6-20.3,23-36.7,23.7c-16.2,0.7-30.4-4.8-40.3-18.6C1814,872.3,1813.6,871.8,1812.6,870.7L1812.6,870.7z M1226.9,574.7
		c-4.9,8.5-13,11.4-21.3,13.7c-7.1,1.9-12.9-1.8-17.3-6.8c-5.7-6.4-9.1-14-8.1-23c0.2-1.8,0.2-3.6,0-5.4c-0.8-8.8,3.9-15,10.1-20
		c2.9-2.3,4.2-4.6,4.1-8.2c-0.1-7.7,2.6-14.2,8.5-19.3c2.1-1.8,4.1-3.6,7-3.9c3.3-0.3,4.1-2.3,4.1-5.2c0-4.4,0.8-8.7,2.4-12.8
		c1.8-4.7,4.9-8.4,8.9-11.4c5.3-3.9,9.8-3.9,14.8,0.5c5.2,4.5,7.6,10.5,8.6,17.2c0.8,4.8,0.8,4.8,5.5,3.6c2.8-0.7,5.6-1.7,8.5-1.5
		c12.7,0.7,21.4,16,14,27.6c-1.2,1.8-2.5,3.6-3.6,5.5c-1.3,2.3-0.9,3.9,1.9,5c10.5,4.4,15.5,13.3,18.1,23.7c1.6,6.6-2.1,12.1-6,16.9
		c-10.7,12.8-25,16.9-41,15.9C1238.4,586.1,1233.6,582.8,1226.9,574.7L1226.9,574.7z"/>
	<path class="st6" d="M390.8,533c1.4-1.8,0.2-3.6-0.3-5.2c-8.3-24.9-11.1-50.7-13.3-76.6c-1-11.8-2.3-23.5-3.6-35.2
		c-0.5-4.4-0.6-8.7-0.5-13.1c0-1.8,0.6-3.4,2.5-3.7c2.6-0.4,5.3-2.1,7.9-0.4c1.4,0.9,1.1,2.6,1.1,4v16.9
		c0.3,33.2,5.9,65.4,16.4,96.9c1.1,3.4,2.1,6.9,4.6,10c1.9-1.4,2-3.2,2.5-4.9c3.4-10.7,6.5-21.6,10.9-32c2-4.7,3.8-5.4,8.4-3.6
		c2.1,0.8,3,2,1.9,4.1c-0.6,1.3-1.2,2.6-1.9,3.9c-4,8.4-6.8,17.2-8.5,26.4c-0.5,2.8-1,5.6-0.5,8.3c2.1,0.2,2.8-1,3.7-1.8
		c6.9-6.4,15.4-9.5,24.5-11c4.3-0.7,4.7,0,3.9,4.3c-0.7,3.8-2.3,5.8-6.3,6.9c-13.4,3.8-22.4,12.9-28.9,24.9c-1.2,2.2-0.9,4.6-1,6.9
		c-1.8,44.1-1.7,88.3-1.3,132.5c0.1,7.8,0,7.6-7.7,8.1c-8.2,0.5-16.3,1.1-24.3,3.3c-4.2,1.2-5,0.5-4.3-3.8c1.4-9.3,3-18.6,4.3-28
		c2.3-16.4,3-32.9,3.9-49.4c0.9-16.9,1.3-33.8,2-50.7c0.6-12-3.6-22.6-10.3-32.1c-8.8-12.3-17.4-24.6-27-36.3
		c-2.1-2.5-3-4.8-0.9-7.7c2.3-3.2,3.4-3.6,6.7-1.7c3.5,2.1,6.1,5.1,8.6,8.3c7.4,9.4,13.9,19.6,22.5,28
		C387.8,531.1,388.7,532.9,390.8,533L390.8,533z M1809.7,843.8c1.8-4.2,2.1-8.3,2.9-12.4c0.8-4.1,1.7-8.2,3.5-12
		c0.6-1.3,1-2.8,2.3-3.6c1.8-1.2,3.9-2.9,5.9-1.6c2,1.2,0.2,3.3-0.3,4.9c-1.6,6-3.6,11.8-4.5,18c-0.2,1.2-0.4,2.5-0.4,3.8
		c0,0.7,0.4,1.5,1.2,1.6c0.8,0.1,1.4-0.4,1.7-1.1c0.6-1.5,1.2-3,1.6-4.6c3.4-12.1,7.1-24,11.7-35.7c1.9-4.7,4-9.4,6.5-13.8
		c0.7-1.2,1.5-2.6,2.6-3.4c1.7-1.3,4-2.7,6-1.3c2.2,1.6,0.3,3.7-0.6,5.3c-11.1,22.4-19.6,45.7-24.1,70.4
		c-3.2,17.7-5.8,35.5-4.9,53.6c0.8,15.3,3.5,30.3,5.9,45.4c0.2,1.3,0.5,2.5,0.6,3.8c0.2,3.6-0.8,4.9-4.4,5.6
		c-0.7,0.1-1.4,0.2-2.2,0.2c-9.5,0-18.9,0.3-28.3,1.3c-6.4,0.7-8.1-1.4-6.8-7.6c4.4-21,7.2-42.3,9.7-63.5c2-17,2.3-34,0.2-51.1
		c-1.2-9.9-1.3-19.9-2.6-29.8c-0.2-1.8-0.5-3.8,1.6-4.8c2.6-1.1,4.8-3.5,8-3c1.8,0.3,1.9,2,2.1,3.4c0.7,5.2,1.4,10.4,2,15.7
		c0.5,4.5,0.8,9,1.3,13.6C1808.1,841.7,1808.2,842.6,1809.7,843.8L1809.7,843.8z M1227.5,557.4v-13.1c0-1.6-0.3-3.6,1.9-3.9
		c2.6-0.3,2.8,1.7,2.9,3.6c0.2,3.2-0.1,6.5,1.5,9.5c1.3-0.1,1.5-1.1,1.9-1.8c0.9-1.7,2.3-2.5,4-1.6c1.9,1,0.7,2.6,0,3.7
		c-5.7,10.1-5.7,21.3-5.9,32.3c-0.3,13.4-0.8,26.9,0,40.3c0.3,4.7,0.1,4.7-4.7,5.1c-3.6,0.3-7.2,0.6-10.8,1.4
		c-4.3,1-4.5,0.4-3.7-4.1c2.4-13,5.3-25.9,6.5-39.2c1.6-17,0.5-33.7-4-50.2c-0.3-1.2-0.8-2.4-0.6-3.7c0.2-1.4,1.1-2.4,2.4-2.7
		c1.7-0.4,2.2,0.9,2.5,2.2c1.1,5.1,2.2,10.3,3.2,15.5C1225.1,552.7,1225.3,554.7,1227.5,557.4L1227.5,557.4z"/>
</g>
<g id="Lake">
	<path class="st7" d="M630.1,942.1c-4.9,0.9-9.4-0.9-13.8-2.3c-16.9-5.6-28.7-17.2-36-33.9c-1.4-3.3-3-5.7-6.9-6.1
		c-3.4-0.3-4.5-3.4-5-6.6c-1.9-12.5,0.1-24.2,5-35.8c7.4-17.3,19.6-30.1,33.4-41.7c10.6-8.9,21.9-16.9,33.7-23.9
		c3.5-2.1,6.7-4.5,9.9-7c10.2-7.7,21.1-14.3,33.3-17.8c9.8-2.8,19.8-4.7,29.9-6.1c16.6-2.4,33.3-2.4,50-2.2
		c17.1,0.2,34.2,0,51.1-2.4c13.1-1.9,26.2-4.3,38.4-10.2c18-8.8,37.1-12.2,56.9-13.7c21.1-1.6,42.1,1.7,63.2,0.3
		c3.1-0.2,6.1-0.3,9.2-0.7c17.6-2.8,35.2-5.5,53-6.9c11.4-0.9,22.8-1.8,34.3-1.5c14.6,0.4,28.9-1.3,43.2-4.6
		c19.1-4.4,38.6-7.4,57.8-11.4c13.2-2.7,26.4-5.4,39.7-7.1c1.1-0.1,2.2-0.5,3.2-0.4c12.7,0.3,25.4-2,38.1-1.2
		c6.7,0.4,13.4,1.1,20.1,1.9c5.8,0.7,11.5,1.5,17.4,1.5c8.8,0,17.4,2,25.7,4.4c19,5.3,38.2,9.2,57.6,12.5c12,2,24,4.3,36,6.1
		c14,2,28.1,3.7,42.2,5.3c6,0.7,11.8,2.4,17.5,4.3c10.5,3.5,21.3,6.4,31.6,10.7c4.8,2,9.1,4.7,13.2,7.9c3.2,2.4,5.4,5.7,6.4,9.6
		c1.3,4.9,4.3,8.2,8.1,10.9c5,3.6,10.1,6.7,15.8,8.9c13.3,5,25.1,12.7,36.9,20.5c10.5,6.9,21.9,11.9,33.4,16.5
		c10.1,4.1,20.2,8.4,30.4,12.5c8.7,3.5,12.3,18.2,10,25.8c-1.2,4-2.9,7.8-5.8,10.8c-4.8,5.1-9.6,10.3-14.9,14.9
		c-8.7,7.6-11.9,18.1-13.6,29.4c-2.1,13.6-3.7,27.3-9.8,39.8c-0.8,1.7-1.5,3.4-2.6,5c-1.8,2.7-2.9,5.5-2.9,8.9
		c-0.1,5.4-2.8,9.1-7.5,11.5c-6.4,3.3-12.9,6.2-19.6,8.7c-20.8,7.6-40.9,16.7-60.6,26.8c-16.9,8.6-33.8,17.5-50.2,27.3
		c-10.5,6.4-21.3,12.2-31.9,18.5c-8.8,5.2-17.6,10.6-26.2,16.2c-17.6,11.6-35,23.7-52.4,35.7c-17.1,11.7-34.2,23.6-52.1,34.1
		c-17.6,10.2-36.6,15.5-56.4,18.1c-18.7,2.5-37.4,2.5-55.8-2.3c-22.8-5.9-44.6-14.6-65-27.1c-14.7-9.1-28.2,16.4-42.1,6.1
		c-20.9-15.6-41.3-32.1-62.8-46.7c-13.8-9.4-28.1-18-43.2-25.1c-12.4-5.8-24.8-11.8-37.6-16.5c-16.8-6.1-33.9-47.6-51.4-51.2
		c-14.3-2.9-28.7-5.1-43-7.1c-14.2-2-28.5-3.5-42.7-5.3c-12.3-1.6-24.5-3.4-36.7-4.9c-14.4-1.8-28.8-3.9-43.1-6.6
		c-15.6-2.9-30.9-7.1-45.9-12.3c-8.1-2.8-16.1-5.8-24-9.4c-4.9-2.2-9.4-5-13.9-7.8c-5.5-3.5-8.3-8.8-9-15.3c-0.4-3.8-1-7.5-3-10.8
		c-1.6-2.6-1.2-5.5-1.6-8.2c-1-5.7-3.1-7-7.8-3.9c-5.8,4-11.4,3.9-17.4,0.8c-2.3-1.2-5-1-7.5-0.7c-3.2,0.3-3.6,1.3-2.1,4.5
		c4.4,8.7,11.2,14.7,19.4,19.1c3.9,2.1,7.7,4.1,12,5.4C626,939,628.4,939.8,630.1,942.1L630.1,942.1z"/>
</g>
<path id="white_waves" class="st8" d="M858.4,802.5c12.2-18.7,82.6-31,106.7-18.6c-2.5,1.4-4.8,0.7-7,0.4
	c-7.4-0.9-14.8-1.7-22.2-1.8c-25.9-0.6-49.9,6.1-72.6,18.4C861.9,801.6,860.6,803.2,858.4,802.5L858.4,802.5z M1166,1032.7
	c4.2-0.7,7.7-0.4,11.3,0c11.8,1,23.6,1.4,35.3-0.3c9.6-1.4,18.8-4.2,26.8-9.9c1.3-0.9,2.5-2.2,4.8-1.5c-1.3,2.6-3.4,4.2-5.5,5.7
	c-7.9,5.5-16.7,8.9-26.3,9.4c-14.5,0.8-29,0.7-43.4-1.8C1168.1,1034.2,1167.1,1034.3,1166,1032.7L1166,1032.7z M1080.4,865.1
	c8.2,0.3,16,3.3,24.1,3.6c8.2,0.2,16.3,0.4,24.5,0c8.3-0.4,16.3-2.7,25.4-4.2C1142.2,875.3,1091.8,875.6,1080.4,865.1L1080.4,865.1z
	 M1027.3,959.4c9.6,0.9,20.3,2.4,31.1,4.2c0.5,0.1,1.1,0.2,1.6,0.4c0.7,0.2,1.4,0.7,1.1,1.5c-0.1,0.4-0.7,0.9-1.1,1
	c-1.4,0.2-2.9,0.4-4.3,0.2c-8.3-0.9-16.5-2-24.8-2.8c-3.8-0.4-7.6-0.2-11.4-0.4c-0.9,0-2-0.1-2.2-1.2c-0.3-1.4,0.9-1.8,1.9-2.2
	C1021.3,959.2,1023.7,959.5,1027.3,959.4L1027.3,959.4z M1212,737c-10.2,5.5-58,13.7-65.3,11.9c1.2-1.6,2.8-1.7,4.3-1.9l45.6-6.9
	C1201.8,739.3,1206.9,738,1212,737z M1378.8,805c8.2-4.6,15.8-2,24.1-2.6C1399.8,804.3,1385.1,805.8,1378.8,805z M1161,1032.3
	c-2.9,1-4.6,1-6.6-0.4C1156.5,1030.9,1158.1,1031,1161,1032.3z M1140.8,750.1c-0.3,0.1-0.6,0.4-0.9,0.4c-0.6,0-1-0.4-0.6-1
	c0.1-0.2,0.7-0.3,1-0.2C1140.5,749.4,1140.6,749.8,1140.8,750.1z"/>
<path id="blue_waves" class="st9" d="M858.4,800.5c12.2-18.7,82.6-31,106.7-18.6c-2.5,1.4-4.8,0.7-7,0.4c-7.4-0.9-14.8-1.7-22.2-1.8
	c-25.9-0.6-49.9,6.1-72.6,18.4C861.9,799.6,860.6,801.2,858.4,800.5L858.4,800.5z M1166,1034.7c4.2-0.7,7.7-0.4,11.3,0
	c11.8,1,23.6,1.4,35.3-0.3c9.6-1.4,18.8-4.2,26.8-9.9c1.3-0.9,2.5-2.2,4.8-1.5c-1.3,2.6-3.4,4.2-5.5,5.7c-7.9,5.5-16.7,8.9-26.3,9.4
	c-14.5,0.8-29,0.7-43.4-1.8C1168.1,1036.2,1167.1,1036.3,1166,1034.7L1166,1034.7z M1080.4,863.1c8.2,0.3,16,3.3,24.1,3.6
	c8.2,0.2,16.3,0.4,24.5,0c8.3-0.4,16.3-2.7,25.4-4.2C1142.2,873.3,1091.8,873.6,1080.4,863.1L1080.4,863.1z M1027.3,957.4
	c9.6,0.9,20.3,2.4,31.1,4.2c0.5,0.1,1.1,0.2,1.6,0.4c0.7,0.2,1.4,0.7,1.1,1.5c-0.1,0.4-0.7,0.9-1.1,1c-1.4,0.2-2.9,0.4-4.3,0.2
	c-8.3-0.9-16.5-2-24.8-2.8c-3.8-0.4-7.6-0.2-11.4-0.4c-0.9,0-2-0.1-2.2-1.2c-0.3-1.4,0.9-1.8,1.9-2.2
	C1021.3,957.2,1023.7,957.5,1027.3,957.4L1027.3,957.4z M1212,735c-10.2,5.5-58,13.7-65.3,11.9c1.2-1.6,2.8-1.7,4.3-1.9l45.6-6.9
	C1201.8,737.3,1206.9,736,1212,735z M1378.8,803c8.2-4.6,15.8-2,24.1-2.6C1399.8,802.3,1385.1,803.8,1378.8,803z M1161,1034.3
	c-2.9,1-4.6,1-6.6-0.4C1156.5,1032.9,1158.1,1033,1161,1034.3z M1140.8,748.1c-0.3,0.1-0.6,0.4-0.9,0.4c-0.6,0-1-0.4-0.6-1
	c0.1-0.2,0.7-0.3,1-0.2C1140.5,747.4,1140.6,747.8,1140.8,748.1z"/>
<g id="fields_front">
	<path class="st10" d="M915.3,1268.2c4.3-7,11.5-12.5,17.9-18.4c26.3-24.3,53.9-47.7,83.9-69.6c43.8-31.9,92.7-58.6,146.7-80.6
		c123.9-50.5,255.6-86,393.5-109.6c71.8-12.3,144.5-21.3,217.8-28c41-3.7,82.2-6.8,123.6-8.2c14.7-0.5,29.4-1.6,44-1.1
		c13,0.4,25.9,0.4,38.8-1.1c3.6-0.4,7.5-0.6,11,0c16.9,2.6,33.9,0.7,50.8,1c40.7,0.7,81.2,3.5,121.7,7c3.7,0.3,7.3,0.7,10.9,0v308.6
		L915.3,1268.2L915.3,1268.2z"/>
	<path class="st11" d="M0,1193c0.9-2.9,0.5-5.9,0.5-8.9V840.3c0-9.3-2.1-9.1,11.2-11.1c20.1-2.9,40.4-4.5,60.7-6.1
		c35.7-2.7,71.5-4.7,107.4-4.8c19.5-0.1,39-0.3,58.4,0.5c23.9,0.9,47.7,2.8,71.5,4.1c17.8,1,35.5,2.4,53.2,3.9
		c29.6,2.5,59.1,6,88.4,10.3c87.5,12.8,171.8,34.8,253.6,63.5c77.9,27.4,151.8,61.1,221.1,101.9c37.7,22.2,74.8,45,109.8,70.2
		c30,21.6,58,44.9,83.7,70.2c14.8,14.6,29.2,29.4,42.9,44.7c1.5,1.7,3.3,3.4,4.2,5.5C777.7,1193,388.8,1193,0,1193z"/>
</g>
<path id="Rocks" class="st12" d="M369.4,709.7c-5.4-0.4-10.8-0.7-16.2-1.2c-2.6-0.2-5.1-0.8-6.1-3.7s-0.1-6.2,2.7-8.2
	c5.6-4.1,12.1-5.8,19-4.9c5,0.6,9.8,2.5,14.6,4.4c2.9,1.1,4.9,3.1,4.7,6.5c-0.2,3.1-2.1,5.1-6.2,5.8
	C377.7,709.1,373.6,710,369.4,709.7L369.4,709.7z M1890.6,964.6c-10.3-1.7-19.9-1.9-29.5-2.7c-0.9-0.1-1.8-0.3-2.7-0.6
	c-2.6-1-3-2.4-1.2-4.5c2.9-3.5,6.9-5.8,11.2-6.1c8.6-0.7,16.7,0.6,22.4,8.2c0.4,0.6,0.9,1.1,1.3,1.8c0.5,0.9,1.1,1.9,0.5,3.1
	C1892,964.9,1890.9,964.6,1890.6,964.6L1890.6,964.6z M909.8,671.4c-3.3,0-5.1-0.7-6-2.8c-0.9-2-0.4-3.9,1-5.6
	c1.7-2,3.9-3.5,6.6-3.1c4.3,0.7,8.5,1.7,12.7,2.9c1.9,0.5,3.9,1.6,3.4,4.2c-0.5,2.3-2.6,2.4-4.4,2.3
	C918.2,669,913.5,670.3,909.8,671.4L909.8,671.4z M1247.1,638.1c-2.4-0.4-5.5,0.7-6.1-2.4c-0.6-3,2.2-4.3,4.4-5.4
	c1.6-0.9,3.5-0.9,5.3-0.7c2.1,0.2,4,1.1,4.2,3.5c0.3,2.6-1.4,4-3.7,4.6C1249.9,637.9,1248.4,638,1247.1,638.1L1247.1,638.1z
	 M1845.7,961.9c-2-0.1-3.6-0.5-3.7-2.5c-0.1-1.5,1.1-2.2,2.5-2.1c1.7,0.1,3.4,0.6,3.5,2.6C1848.2,961.5,1846.7,961.6,1845.7,961.9z
	 M1234.1,644.5c-0.1,1.9-1.4,2.1-2.7,2.1c-1.4,0-3.1-0.1-3.2-2c-0.1-1.6,1.3-1.9,2.6-2C1232.3,642.6,1233.6,643.1,1234.1,644.5
	L1234.1,644.5z"/>
<g id="I_x27_m_Hristina">
	<g id="Layer_1_2_">
		<path class="st13" d="M867.7,238.5c-1,2.1-1.3,3.4-1,3.8s1.7,0.6,4.2,0.6h2.4c1.2,0,2,0.1,2.6,0.3l0.2,0.2h1.3
			c1.3,0.1,2.3,0.7,3,1.9c0.1,0.1,0.3,0.2,0.5,0.2c0.4,1.2,0.1,1.9-1.1,2.1c-1.7-0.1-4-0.2-6.9-0.2h-1c-1.4,0-2.8,0-4.2,0.1
			s-2.9,0-4.4-0.1c-2.5,0-4.9,0-7.2-0.1s-4.7-0.1-7.2-0.1c-1.1,0-2.1,0-3-0.1s-1.8-0.1-2.8-0.1c-1.8,0.2-2.7-1-2.7-3.5
			c0-0.6,0.3-1,0.8-1c2.8,0,4.9-0.1,6.2-0.2c0.4-0.1,0.7-0.2,1-0.2c2-0.3,3.6-0.4,4.6-0.2c1.1,0.2,2-0.5,2.9-2.1s1.9-3.7,3-6.4
			c1.2-2.7,2.1-4.9,2.9-6.6c3.7-7.8,7.5-15.6,11.3-23.5s7.6-15.8,11.6-23.7c0,0.1,0.1,0.2,0.2,0.2c0,0.2,0.1,0.3,0.2,0.3l1-2.2
			l-0.3,0.2v-0.2c4.2-8.3,6.9-14.2,8.2-17.7s2.8-6.5,4.5-9.2c-2,0-4-0.1-5.8-0.2c-1.9-0.1-3.7-0.1-5.4,0.2c-2.8,0.3-4.2-1-4.2-3.8
			c0-0.9,0.4-1.3,1.3-1.3c6.3-0.4,12.4-0.6,18.2-0.6c0.1,0,0.3,0,0.5,0.1s0.4,0.1,0.6,0.1c2-0.3,3.7-0.3,5,0l-0.2,0.5
			c0.5,0.2,1,0.3,1.3,0.2l1.3,0.6c0.7-0.2,0.5-0.2-0.6,0.1c-1.2,0.3-1.4,0.2-0.6-0.2h2.2c0.5,0,1.3-0.1,2.2-0.3l-1.4-0.8
			c1.6-0.3,3-0.2,4.2,0.3l-1.4,0.5h-1.3c0.4,0.2,0.9,0.2,1.3,0c1.6,1,3,1,4.2,0.2l-1.3-0.6c0.5-0.3,0.9-0.5,1.1-0.5
			c0.6,0,1.2,0,1.8,0.1c0.5,0.1,1.1,0.1,1.8,0.1c1.8,0,3.2,0.7,4.2,2.2l0.5,0.3c0.7,1.8,0.3,2.8-1.4,3c-4.3-0.1-7.2-0.2-8.7-0.2
			c-1.5-0.1-4.2-0.1-8.1-0.1c-2.2,4.4-4.7,9.6-7.4,15.6s-5,10.7-7,14c-5.9,10-10.7,19.7-14.4,29C876.8,219,872.5,228.6,867.7,238.5
			L867.7,238.5z"/>
		<path class="st13" d="M861.3,232c-0.3,0-0.5,0.1-0.5,0.3c-0.1,0,0,0.1,0.3,0.3c0-0.1,0.1-0.2,0.2-0.2V232L861.3,232z M861.3,231.7
			c1.5-1.6,2.2-3.3,2.2-5C862,228.4,861.3,230.1,861.3,231.7z M861.3,232v-0.3V232z M865.6,229c-0.7,0.4-1.1,0.7-1.1,0.8
			c-0.6,1.7-1.2,3-1.6,4c0.1,0.2,0.2,0.3,0.3,0.3h0.5C865,231.8,865.6,230.1,865.6,229L865.6,229z M864,226.2
			c-0.2-0.2-0.3-0.4-0.3-0.6c0,0.2-0.1,0.4-0.2,0.5v0.5C863.6,226.6,863.8,226.4,864,226.2z M863.5,226.6v0.2V226.6z M865,223
			c-0.3,0.3-0.5,0.5-0.6,0.5c0,0.1,0.1,0.3,0.2,0.5c0.2-0.1,0.3-0.2,0.3-0.3C864.9,223.5,865,223.3,865,223z M865,223
			c0.7-0.3,1.4-0.3,1.9,0c-0.2-1-0.4-1.7-0.6-2.1h-0.6c-0.1,0.3-0.2,0.7-0.4,1C865.1,222.4,865,222.7,865,223L865,223z M867.4,226.2
			v-0.3l-0.2-0.3c-0.4-0.3-0.6-0.3-0.6,0c-0.6,0.5-1,1.6-1,3.2L867.4,226.2L867.4,226.2z M865.6,228.8v0.2V228.8z M867.2,223h-0.3
			H867.2z M867.2,223c0,0.2,0.1,0.5,0.3,1c0.2,0,0.4-0.1,0.5-0.2c0.1-0.3,0.3-0.7,0.5-1l0.6-1.2c-0.1-0.3-0.2-0.5-0.2-0.6
			c-0.2,0-0.4,0.1-0.5,0.2c-0.3,0.3-0.6,0.6-0.8,1C867.5,222.4,867.3,222.7,867.2,223L867.2,223z M873.8,211.2l-0.2-0.3l-0.2,0.3
			l0.2,0.2L873.8,211.2z M876.2,207.5v-0.3c-0.1,0-0.2-0.1-0.3-0.3c-0.3,0.1-0.6,0.3-0.7,0.5c-0.2,0.2-0.3,0.3-0.4,0.3v0.3
			c0.1,0.1,0.2,0.2,0.3,0.2C875.6,207.9,876,207.7,876.2,207.5L876.2,207.5z M877.9,244.5c-0.7-0.3-1.3-0.5-1.6-0.5v0.6
			C876.6,244.7,877.2,244.7,877.9,244.5z M878.2,244.5h-0.3H878.2z M878.2,244.5h0.3H878.2z M881.1,196.2l-0.2-0.3h-0.5
			c-0.4,0.7-0.7,1.4-0.8,1.9c0,0.1,0.1,0.2,0.2,0.2h0.3C880.7,197.2,881,196.6,881.1,196.2L881.1,196.2z M880.8,189.1
			c0,0.1-0.2,0.2-0.5,0.3c0,0.1,0.1,0.3,0.2,0.5c0.2-0.1,0.3-0.2,0.3-0.3V189.1z M881,188.8l-0.2,0.3h0.2V188.8z M881.4,187.5
			c-0.3,0.3-0.5,0.7-0.5,1.3C881.3,188.7,881.4,188.3,881.4,187.5z M881.4,191.8l-0.2-0.2L881.4,191.8z M881.6,187.4v0.2h-0.2
			C881.6,187.5,881.6,187.5,881.6,187.4z M882.2,194.2c0.2-0.1,0.6-0.4,1.1-1c0.3-0.6,0.1-1.1-0.8-1.3c-1-0.5-1.3-0.6-1-0.2
			c-0.1,0.4-0.2,1-0.2,1.8c0,0.4,0.1,0.7,0.2,1C882,194.2,882.2,194.1,882.2,194.2z M882.2,185.5c0,1.2-0.2,1.8-0.6,1.9
			C881.6,186.4,881.8,185.8,882.2,185.5z M882.4,185.5h-0.2H882.4z M882.9,183.9c0,0.7-0.2,1.3-0.5,1.6
			C882.4,184.7,882.6,184.2,882.9,183.9z M883.2,183.9h-0.3H883.2z M883.7,183.9c-0.2-0.4-0.4-0.4-0.5,0H883.7z M883.8,189.4
			l0.3-0.3l-0.2-0.5l-0.5,0.5L883.8,189.4z M883.8,183.9h-0.2H883.8z M884.5,183.9h-0.6C883.9,184.3,884.2,184.3,884.5,183.9z
			 M885.1,183.9c-0.2-0.2-0.4-0.2-0.6,0H885.1z M885.8,186.1c0.2-1,0-1.7-0.6-2.2c-0.1,0.4-0.2,0.8-0.3,1.1s-0.2,0.6-0.2,1
			c0,0.5,0.1,0.9,0.2,1.1C885.4,187.7,885.8,187.4,885.8,186.1L885.8,186.1z M885.9,178.1c0.4-0.2,0.6-0.6,0.6-1.3L885.9,178.1z
			 M885.9,178.3v-0.2V178.3z M888.2,181.1c-0.3,0-0.6-0.1-0.8-0.3c-0.5,0.6-0.9,1.2-1,1.8c-0.1,0-0.1,0.1,0,0.3h0.8
			C886.8,183.2,887.1,182.6,888.2,181.1z M886.9,176.3l-0.3,0.2v0.3L886.9,176.3z M888.2,173.8l-0.5,0.3c-0.1,0.2-0.1,0.4,0.2,0.6
			v-0.3C888.1,174.2,888.2,174,888.2,173.8z M888.8,172.3c0,0.7-0.2,1.2-0.6,1.4C888.2,173.1,888.4,172.7,888.8,172.3z M888.6,178.9
			c-0.1-0.1-0.2-0.2-0.2-0.3l-0.2,0.2c0,0.1,0.1,0.2,0.2,0.2L888.6,178.9L888.6,178.9z M889.3,171.9c0.1,0,0-0.2-0.3-0.5v0.2
			c-0.1,0.2-0.2,0.5-0.2,0.8C889.1,172.1,889.3,172,889.3,171.9z M896,164.5c0.7,1.3,0.7,2.4-0.2,3.4c-1.7,1.7-2.6,3.4-2.7,5
			c-0.1,0.2-0.4,0.7-1,1.6c-0.4,0.5-1.1,1.3-2.1,2.4c-0.1,0.1-0.3,0.2-0.5,0.3c-0.4-0.4-0.5-0.6-0.2-0.6c1-1.9,1.9-3.9,2.9-5.8
			c1-2,2-3.9,3.2-5.8C895.7,164.7,895.9,164.6,896,164.5L896,164.5z M890.2,169.5l-0.2,0.3L890.2,169.5l0.3-0.3L890.2,169.5z
			 M891.5,167.2c0-0.3,0.1-0.5,0.3-0.6c-0.2,0-0.4,0.2-0.6,0.5l0.2,0.3L891.5,167.2z M891.8,166.4c0.3-0.2,0.5-0.6,0.5-1.3
			L891.8,166.4z M891.8,166.4v0.2V166.4z"/>
		<path class="st13" d="M892.3,165.1c0.1,0,0.2-0.1,0.2-0.2v0.2H892.3z M892.5,165c0.9-0.2,1.3-0.9,1.3-2.1
			C892.9,163.3,892.5,164,892.5,165z M893.9,162.9v-0.3l-0.2,0.3H893.9z M896.2,164.2l-0.2,0.3C896,164.3,896.1,164.2,896.2,164.2z
			 M897.6,163.7v-1h-0.8c-0.3,0.4-0.5,0.7-0.6,1c-0.1,0.2-0.1,0.4-0.1,0.5c0.1,0,0.3,0,0.6-0.1S897.3,163.9,897.6,163.7L897.6,163.7
			z M896.8,157.8l-0.2,0.3L896.8,157.8h0.2H896.8z M897,157.8c0.3-0.3,0.5-0.7,0.5-1.3L897,157.8z M897.4,156.5v-0.2l0.2-0.2
			l-0.2,0.2V156.5z M900.3,157.9c-0.3-0.1-0.5-0.2-0.5-0.3l-0.2,0.2c-0.6,0.6-1,1.3-1.1,2.1c-0.1,0.1-0.1,0.3,0.2,0.5
			c0,0.1,0.1,0.2,0.2,0.2c0.2,0,0.2-0.1,0.2-0.2C900.1,159.7,900.4,158.9,900.3,157.9L900.3,157.9z M902.2,154.9
			c0-0.1,0-0.3,0.1-0.6s0.1-0.5,0.2-0.7c-0.6,0.2-1.1,0.4-1.3,0.5v1C902.3,154.5,902.7,154.5,902.2,154.9z M903,153
			c0.1-0.1,0.1-0.3-0.2-0.5c0,0.1-0.1,0.2-0.3,0.3v0.6C902.9,153.5,903,153.3,903,153L903,153z M902.6,153.5v0.2V153.5z
			 M903.2,146.4H903H903.2z M903.5,145.8l0.5,0.6h-0.8L903.5,145.8z M903.4,145.8h0.2H903.4z M908.3,146.3l-0.2,0.2h0.2V146.3z
			 M910.7,148l-0.3,0.2c0,0.3,0.1,0.5,0.2,0.5h0.2C910.7,148.3,910.7,148.1,910.7,148L910.7,148z M919.7,146.7h-0.2H919.7z
			 M919.7,146.7c1.2,0.7,2.6,0.8,4.2,0.2C922.4,146.5,921.1,146.4,919.7,146.7z M924,146.9h-0.2H924z M924,146.9h0.5H924z
			 M940.4,146.8c1.8,0,2.8,1.1,2.8,3.5c0,3.6-2,8.3-6,14.2c-1.6,2.4-3.6,4.6-5.8,6.6c-1.4,1.3-2.6,2-3.4,2s-1.5-0.4-2.1-1.1
			c-0.4-0.5-0.5-1.1-0.5-1.7c0-0.8,0.8-2.1,2.6-3.7c4.9-4.7,7.7-10.1,8.5-16.3c0.2-1.1,0.8-2.1,1.6-2.7
			C938.9,147,939.7,146.8,940.4,146.8L940.4,146.8z M969.8,188.7c0.6-1,2.2-0.3,4.6,1.9c2.4,2.2,3.1,4.1,2.2,5.4
			c-1.2,1.6-2.2,3.1-3.1,4.6c-0.9,1.5-1.8,3-2.6,4.5c-3.8,6.3-7,12.8-9.4,19.5c-1,2.8-1.3,5.9-1,9.3c0,1,0.4,1.5,1.3,1.8
			c2.1,0.1,5.3-3.2,9.4-10c4.1-6.8,6.7-11.2,7.8-13.2c0.3-1.3,0.8-1.7,1.5-1.3s0.8,1,0.4,1.8c-2.2,4.7-4.4,8.8-6.6,12.4
			c-2.1,3.6-5,7-8.6,10.3c-1.6,1.3-2.5,1.9-2.6,1.9c-3.2,2.1-5.5,1.7-7-1.3c-0.7-1.2-1.3-2.6-1.6-4.2c-0.4-1.3-0.4-3.9,0.2-8
			c0.5-4.1,1.8-9,3.8-14.9c-2.3,3.4-4.9,6.9-7.5,10.4c-1,1.2-1.9,2.3-2.8,3.5c-0.9,1.2-1.8,2.2-2.8,3.2l-0.3,0.3h-0.2
			c-0.4,0.7-0.8,1.5-1,2.2c-0.3,0.7-0.6,1.5-1,2.2c-1,1.6-2.2,2-3.8,1.1c-0.3-0.2-0.8-0.9-1.5-2.1c-0.7-1.2-0.7-2.9,0.1-5.1
			c0.4-1.5,0.9-3,1.5-4.4s1.1-2.9,1.7-4.4l1-1l0.8,0.3c0-0.1,0-0.2,0.1-0.3s0.1-0.3,0.1-0.5l-1.1,0.6c-0.2-0.6-0.1-1.2,0.3-1.8
			c2.1-4.7,4.1-8.7,5.9-12c-0.7,0.7-1.4,1.5-1.8,2.4c-0.5,0.9-1,1.7-1.5,2.4c-0.3,0.3-0.6,0.7-0.9,1.3c-0.3,0.5-0.6,1-0.9,1.3h0.2
			c0.1-1.3,0.4-2.3,0.8-3.2l-0.2,0.3c-2,2.8-4,5.5-5.8,8.2c-1.9,2.7-3.8,5.4-5.7,7.9c-2.1,3.2-3.8,5.4-5,6.7
			c-0.1,0.1-0.2,0.3-0.3,0.5c-0.5,0.7-1,1.5-1.4,2.2s-0.7,1.4-1,2c-0.5,0.7-0.9,1.2-1,1.3c-1.2,1.3-2.6,1.8-4.3,1.5
			s-2.9-1.1-3.7-2.6c-0.3-1.3-0.3-2.3,0.2-3c1-1.9,1.7-3.8,2.2-5.8c0.5-1.9,1-3.9,1.7-6.1c1.1-3.4,2.2-6.9,3.4-10.4s2.7-7,4.4-10.4
			l1.2-2.7c0.4-1,0.7-2,1-3.2c0.2-1,1-1.2,2.2-0.8c0.7,0.2,1.3,0.4,1.6,0.6c3.5,2.1,4.5,5,2.9,8.5c-1.3,2.6-2.5,5.1-3.6,7.5
			c-1.1,2.5-2.2,4.9-3.3,7.4c-1.4,3.3-2.5,6.3-3.2,9.1v0.2c1.1-1.5,2.1-3,3-4.6l3-4.8c1.2-1.7,2.4-3.4,3.6-5c1.2-1.6,2.4-3.3,3.6-5
			c1.2-1.6,2.4-3.2,3.6-4.9c1.2-1.7,2.4-3.3,3.4-5c1.1-2,2-3.2,2.9-3.5l1-1c1.1-1,2.3-1.1,3.7-0.3c1.5,1,2.6,1.8,3.2,2.4
			c1.4,1.2,1.6,2.7,0.6,4.5c-1.1,2.1-2.2,4.3-3.4,6.6c-1.2,2.2-2.3,4.4-3.4,6.6c-1.3,2.2-2.2,4.3-2.9,6.2c0.5-0.6,1-1.4,1.5-2.2
			s1-1.6,1.7-2.3c1.3-1.7,2.6-3.4,3.9-5c1.3-1.6,2.6-3.4,3.8-5.3c1.3-1.6,2.6-3.2,3.8-4.9c1.3-1.7,2.5-3.4,3.7-5.2
			C967.7,190.2,968.9,189.1,969.8,188.7L969.8,188.7z M918.3,229.6c0-0.4-0.1-0.6-0.2-0.6l-0.2-0.2c-1.4,0.5-1.8,1.4-1.1,2.7
			c0.2,0.3,0.5,0.3,0.8-0.2c0.1-0.2,0.2-0.5,0.4-0.8S918.3,229.9,918.3,229.6z M919.1,225.6l-0.3,0.5c0,0.1,0.1,0.2,0.2,0.3
			c0.1-0.1,0.2-0.2,0.2-0.3v-0.5H919.1L919.1,225.6z M923.9,224.6l0.3,0.2h-0.3c0-0.6,0-1.3,0.1-1.9c0.1-0.6,0.1-1.2,0.2-1.8
			c0.2-1,0.3-1.7,0.3-2.2c0-0.1,0-0.2-0.1-0.4s-0.1-0.3-0.1-0.4l-0.5,0.6c-0.5,1-0.9,1.7-1,2.2c-0.3,0.6-0.9,1-1.8,1
			c0-0.5,0.1-1.1,0.2-1.8c0.2-0.7,0.3-1.4,0.4-2.2c-0.1-0.3-0.2-0.5-0.2-0.6l-0.5,0.5c-0.4,0.9-0.7,1.7-0.8,2.6
			c-0.1,0.9-0.4,1.7-0.8,2.4c0,0.1,0.2,0.3,0.5,0.6c0.2-0.3,0.4-0.6,0.5-0.8l0.6-0.6c-0.3,2.2-0.5,4-0.6,5.3c0,0.1,0.1,0.3,0.2,0.6
			c0.7-0.3,1.1-0.4,1-0.3c0.3-0.3,0.6-0.8,0.8-1.4C922.7,225.4,923.2,225,923.9,224.6L923.9,224.6z M919.9,231.4v0.3
			c0.1-0.1,0.2-0.2,0.2-0.3v-0.2L919.9,231.4z M922.6,214.1c0,0.1-0.1,0.2-0.2,0.3c0,0.1,0.1,0.3,0.2,0.5c0.1-0.2,0.2-0.4,0.2-0.5
			C922.7,214.3,922.6,214.2,922.6,214.1z M924.4,209.4c-0.1,0-0.1,0.1,0,0.2c0-0.1,0-0.2,0.1-0.3s0.2-0.3,0.4-0.5
			c0.1-0.1,0.2-0.3,0.3-0.5c-0.1,0.2-0.2,0.4-0.3,0.5C924.6,209,924.4,209.2,924.4,209.4z M927.6,210.2c0.2-0.1,0.4-0.3,0.6-0.6
			c0-0.1-0.1-0.3-0.3-0.5c0,0.1-0.1,0.2-0.2,0.3L927.6,210.2l-0.9,1.1c-0.9,0.7-1.2,1.7-1,2.9l-0.3,0.3l0.2-0.3c0.6-0.4,1-1.4,1-2.9
			C927.2,210.8,927.5,210.5,927.6,210.2z M926.5,205.9c0.2,0,0.3-0.1,0.3-0.2l1.4-2.9l-0.3-0.2h-0.3c-0.2,0.5-0.5,1.1-0.7,1.6
			c-0.3,0.5-0.5,1-0.6,1.3C926.2,205.7,926.3,205.8,926.5,205.9L926.5,205.9z M941.2,218.1c0,0.4-0.1,0.7-0.2,0.8l0.2,0.2
			c0-0.1,0.1-0.2,0.2-0.3c0.1-0.1,0.2-0.3,0.3-0.6l-0.2-0.2C941.4,217.9,941.3,218,941.2,218.1z M948.4,200.5c0-0.1,0.1-0.3,0.2-0.5
			l0.3-0.6C948.5,199.7,948.4,200.1,948.4,200.5z M949.5,198.6c0.2-0.3,0.4-0.5,0.5-0.6v-0.6l0.4-0.4c0.2-0.2,0.3-0.4,0.6-0.7
			l0.5-0.5c0-0.1,0.1-0.2,0.2-0.3c-0.1,0-0.3,0.1-0.5,0.2v1c-0.2,0.1-0.6,0.4-1.1,0.8L949.5,198.6L949.5,198.6z M957,228l0.3-1.8
			l-0.3-0.8c0,0.3-0.1,0.5-0.2,0.6c-0.1,0.1-0.2,0.2-0.2,0.3C956.7,226.3,956.8,226.8,957,228z M971.4,196.5
			c-2.9,3.5-5.3,7.2-7.4,11c-2,3.8-3.9,7.7-5.6,11.7c-0.7,2-0.9,3.3-0.5,3.7c0.9-0.1,1.3-0.5,1.4-1.3c0.1-0.7,0.2-1.4,0.6-1.9
			c0.6-1.2,1.2-2.3,1.7-3.5s1.1-2.3,1.8-3.4c0.7-1.5,1.5-3,2.4-4.4s1.7-2.9,2.4-4.4C972.2,196.6,973.2,194.1,971.4,196.5
			L971.4,196.5z M1055.5,221.1c-1.3,0-2.2,0.1-2.7,0.2c-2.1,0.2-4.2,0.4-6.2,0.5s-3.9,0.1-5.8,0c-1.6,0-2.8,0.1-3.7,0.2
			c-0.7,0-2.9,0.1-6.5,0.2c-3.6,0.2-7.4,0.2-11.4,0.2c-4.1,0-7.7,0-11-0.1s-5-0.3-5.1-0.7c-0.1-0.6-0.4-1.1-0.9-1.3
			s-0.9-0.6-1.4-1.1c-0.6-1-0.6-2,0-3c0.4-0.4,1.4-0.5,2.8-0.3s2.6,0.3,3.6,0.3h7.8l18.9-0.2l11.7-0.6c3.8-0.2,7.7-0.3,11.5-0.6
			c1.1-0.5,2.1-2,3-4.3c3.6-8.4,7.4-16.8,11.2-25.2c3.8-8.4,7.6-16.8,11.2-25.2c1.5-3.3,2.3-6.1,2.6-8.4c0.2-2.3,1-3.4,2.4-3.4
			c0.6,0,1.8,0.4,3.4,1.1c1.6,0.7,2.8,1.7,3.5,2.9c0.3,1.4-0.1,3.6-1.1,6.6c-3,6.8-5.9,13.6-8.8,20.4c-2.9,6.8-5.7,13.5-8.5,20.1
			c-1.1,2.1-2,4.2-2.9,6.1c-0.9,1.9-1.7,3.9-2.6,5.9c-1,1.9-0.6,2.9,1,3c0.5,0,0.9-0.2,1.1-0.5h2.4l14.7-0.8c1.6-0.9,3-2.7,4.2-5.6
			c3.8-8.8,7.8-17.6,11.9-26.2c4.1-8.6,8.2-17.3,12.2-26.1c0.5-1.1,1.4-1.5,2.6-1.3c1.6,0.5,3,1.8,4.1,3.9c1.1,2.1,1.3,3.8,0.6,5
			c-2.1,4.1-4.3,8.1-6.4,12s-4.1,7.9-5.9,11.8l-0.2-0.5l-0.5,0.6h0.6c-0.4,0.7-0.8,1.4-1,2l-0.9,1.8l-0.6,1.6
			c-0.9,0.5-1.1,1-0.6,1.3c-1.5,3.2-2.9,6.4-4.2,9.6c-1.3,3.2-2.6,6.5-3.8,9.8c0.4,0.6,0.8,1.4,1.1,2.2c0.3,0.9,0.5,1.3,0.6,1.3
			c-0.3,1-1.7,1.8-4.2,2.4c-0.7,1.8-1.5,3.5-2.2,5.2s-1.4,3.3-2.2,5c-0.7,1.9-1.1,3.9-1.1,6s-1.2,2.7-3.5,2
			c-4.5-1.2-6.2-3.6-5.3-7.4c0.2-1.2,0.6-2.4,1.1-3.6c0.5-1.2,1-2.4,1.4-3.6c0.3-0.6,0.6-1.7,0.8-3.2l-0.3-0.2l-18.4,1
			c-2,0.7-3.5,2-4.5,3.8s-2.2,4.6-3.7,8.6c-1.5,3.7-3,7.4-4.6,10.9c-1.5,3.5-3,7.1-4.4,10.7c-0.7,1.8-2.4,2.1-5,1
			c-3.4-1.4-4.5-3.7-3.4-7c1.5-3.7,3.1-7.5,4.7-11.2c1.7-3.7,3.3-7.5,5-11.4L1055.5,221.1L1055.5,221.1z M1009.2,220.6h-0.6h0.8
			H1009.2z M1009.3,220.6h2.1C1011.1,220.4,1010.4,220.4,1009.3,220.6z M1014.1,220.6l0.8,0.3v-0.3H1014.1z M1016.4,220.6
			c-0.6-0.1-1.1-0.1-1.4,0H1016.4z M1016.7,220.6h-0.4H1016.7z M1018.3,220.6c-0.7-0.2-1.3-0.2-1.6,0H1018.3z M1018.3,220.6h0.2
			H1018.3z M1020,220.6c-0.7-0.2-1.3-0.2-1.6,0C1019.2,221,1019.7,221,1020,220.6z M1021.6,220.6c-0.5-0.3-1.1-0.3-1.6,0
			C1020.8,221,1021.3,221,1021.6,220.6z M1021.6,220.5v0.2h0.3L1021.6,220.5z M1023.4,220.5c-0.9,0-1.3,0.1-1.4,0.2
			C1022.8,220.6,1023.3,220.6,1023.4,220.5z M1023.4,220.5c0,0.1,0.1,0.2,0.2,0.2v-0.2H1023.4z M1025.2,220.5h-1.6
			C1024.3,220.8,1024.8,220.8,1025.2,220.5z M1025.9,220.3l-0.8,0.2L1025.9,220.3z M1033.3,220.3c-1.4-0.3-3.2-0.3-5.4,0
			c-0.1,0.1-0.2,0.2-0.3,0.2c0.1,0,0.2,0.1,0.3,0.2C1030.3,220.6,1032.1,220.5,1033.3,220.3z M1033.3,220.3h0.2H1033.3z
			 M1038.1,220.3l-1-0.3c-0.7,0-2,0.1-3.7,0.3C1035.4,221.1,1036.9,221.1,1038.1,220.3z M1044.8,220.2c0.1,0,0.3-0.1,0.6-0.3
			c-0.1,0-0.4-0.1-0.8-0.2c-0.7,0-1.5,0-2.2,0.1s-1.4,0.1-2.1,0.1c-0.3,0-0.6,0.1-0.8,0.3l0.3,0.3c0.9,0,1.7,0,2.6-0.1
			S1044.1,220.3,1044.8,220.2L1044.8,220.2z M1051.4,219.4l-1.9,0.5l1.3-0.2L1051.4,219.4z M1062.4,212l4.3-12.5
			c0.9-1.5,1.4-2.5,1.6-3c3-6.9,5.4-12.2,7.2-15.7c0.4-0.4,0.6-0.7,0.6-0.8l4.6-9.1c1-1.5,1.1-2.2,0.6-2.2c-0.6,0-0.1-0.9,1.4-2.7
			c0.4-0.7,0.9-1.5,1.3-2.3s0.8-1.6,1.1-2.3l-0.3-0.3c-1.5,1.8-2.4,3.2-2.8,4.2s-1,2.5-1.8,4.6c-0.3,0.6-0.9,1.8-1.6,3.6
			s-1.7,3.8-2.9,6c-1.1,2-2.1,4-3,5.9s-1.8,3.8-2.6,5.6c-0.2,0.4-0.5,1.2-0.8,2.4c-0.7,1.5-1.4,2.8-2.1,3.9c-0.6,1.1-1,1.8-1.1,2.2
			c-1.1,2.1-1.8,4.3-2.3,6.5s-1.1,4.2-1.8,6L1062.4,212L1062.4,212z M1088.3,228.3c-0.4,0.3-0.4,0.5,0,0.6V228.3z M1088.3,228.3
			c1.3-0.5,1.7-1.6,1.3-3.2C1088.7,226,1088.3,227,1088.3,228.3z M1089.8,225.1l1.8-4.2h-0.3l-1.8,4l0.2,0.2H1089.8L1089.8,225.1z
			 M1091.5,221l0.6-1.3l-0.3,0.2l0.2,0.2L1091.5,221L1091.5,221z M1093.3,212.3v0.5C1093.4,212.7,1093.4,212.5,1093.3,212.3z
			 M1114.1,182.6l0.3-0.3l-0.3-0.2V182.6z M1116.5,171.1h-0.3H1116.5z M1117.6,166.4l0.2-0.5v-0.2L1117.6,166.4z M1117.8,165.8
			c0.2,0,0.3-0.3,0.3-1C1117.9,164.9,1117.8,165.2,1117.8,165.8z M1118.1,164.8c0.3,0,0.4-0.1,0.2-0.3L1118.1,164.8z M1119,220
			c0.7-0.5,1.2-0.9,1.4-1.1l4.8-6.6c1.6-2.1,3.3-4.3,5.1-6.4c1.9-2.2,3.8-5.5,5.8-9.9c1.9-4.4,4.1-8.3,6.4-11.7
			c0.9-1.4,2-1.5,3.5-0.5l2.7,2.7c1.1,0.9,1.4,2.1,1.1,3.7c-0.1,0.2-0.6,1.1-1.4,2.6c-0.4,0.4-0.8,0.9-1.2,1.4c-0.4,0.5-0.7,1-1,1.5
			c-1.6,2.2-3,5.7-4.2,10.4s-0.2,7.8,3,9.3c0.6,0.5,0.8,1,0.5,1.4c-0.4,1-0.9,1.7-1.3,2.1c-0.9,0.9-1.7,0.9-2.4,0.2
			c-1.6-0.9-3.3-2.2-5.1-3.9c-1.8-1.8-2.9-3.6-3.4-5.5c-0.5-1.4-1.2-1.4-2.1-0.2s-1.7,2.3-2.5,3.4s-1.6,2.3-2.3,3.4
			c-0.9,1.3-2.3,3.3-4.3,6.1c-4.4,5.7-8.2,10.9-11.5,15.7l-0.3,0.3c-0.3,0.4-0.5,1-0.6,1.6c-0.1,0.6-0.6,1-1.4,1.1
			c-0.7-0.6-1.6-1.1-2.5-1.3s-1.6-0.9-2.2-2.1c0-0.5-0.1-1-0.3-1.3c-0.9-1-1-2.3-0.3-4c0.6-1.5,1.3-3,1.8-4.6c0.6-1.5,1.2-3,1.8-4.4
			c1.7-3.3,3.3-6.7,4.8-10.2s3.1-7,4.8-10.5c1.2-2.5,2.3-4.9,3.5-7.4s2.3-5,3.5-7.6c0.5-1.4,1.3-1.7,2.4-0.8c0.6,0.5,1.3,1,1.8,1.4
			c0.6,0.4,1.3,0.8,2,1.1c1.6,1.4,2.2,2.9,1.8,4.5c-0.3,0.7-0.9,1.7-1.6,2.9c-1.6,3.1-3.1,6.2-4.6,9.2s-3,6.1-4.5,9
			c-1.1,2.5-1.5,4.1-1.3,5L1119,220l-0.4,0.2C1118.9,220.3,1119,220.2,1119,220L1119,220z M1108.8,231c1,0,1.3-0.6,1-1.9
			c0.6-0.1,1-0.7,1-1.8l0.5-0.6c-0.1-0.2-0.2-0.4-0.2-0.5c0,0.1-0.1,0.2-0.2,0.3c0,0.4-0.1,0.7-0.2,1c-0.5,0.3-0.8,0.9-0.8,1.8
			c-0.5,0.3-0.8,1-0.8,1.9c-0.3,0.2-0.5,0.5-0.6,0.8v0.3c0.2-0.1,0.3-0.2,0.3-0.3L1108.8,231L1108.8,231z M1112.2,224.3v-0.2h-0.2
			L1112.2,224.3z M1114.4,219c0-0.1,1.1-2.8,3.3-8c2.2-5.2,3.4-7.9,3.6-8.2c-0.2-0.4-0.3-0.7-0.3-0.8c-0.2,0.3-0.3,0.5-0.3,0.6
			c0,0.2-1,3-3,8.2c-2,5.3-3,8-3,8.1c-0.2,0.1-0.4,0.3-0.6,0.6v0.6l0.5-0.5C1114.4,219.4,1114.4,219.1,1114.4,219L1114.4,219z
			 M1169.2,212.3c-1.5,2.8-3.6,6.4-6.4,10.9s-5.3,7.8-7.7,10.1c-0.3,0.3-0.7,0.7-1,1.1c-0.4,0.4-0.8,0.9-1.2,1.3
			c-1,0.5-1.7,0.8-2.1,0.8c-2.7,0.3-4.4-0.6-5.3-2.9c-1.2-3.2-1.3-6.3-0.5-9.4c0.5-1.5,1-3,1.5-4.6c0.5-1.5,1.1-3.1,2-4.6
			c0.1-0.4,0.4-1.3,1-2.6c1.3-3.7,2.9-7.4,4.7-11c1.9-3.6,3.5-6.8,5-9.6c0.3-0.9,0.8-1.1,1.4-0.6c1,1.1,2.2,1.7,3.7,1.9
			c1.6,0.5,2.1,1.7,1.6,3.5c0.1-0.5-0.1-0.1-0.5,1.3c-2.3,4.4-4.3,8.4-5.9,12c-2,3.8-4.1,8.3-6.2,13.4c-1.3,2.2-2.1,4.7-2.4,7.5
			c-0.3,0.7-0.3,1.4,0,2.1c0,0.6,0.2,0.7,0.6,0.3c2-1.1,3.6-2.5,4.8-4.2c1-1.2,2.9-4,5.7-8.5c2.8-4.5,4.7-7.5,5.5-9
			C1168.9,211.5,1169.5,211.7,1169.2,212.3L1169.2,212.3z M1147.3,220.2v0.3l0.3-0.3c0-0.2-0.1-0.4-0.2-0.5h0.3v-0.5
			c0,0.1-0.1,0.3-0.2,0.5S1147.3,220.1,1147.3,220.2L1147.3,220.2z M1149.6,220.2c-0.7,0.6-1.1,1.5-1,2.7l-0.2,0.2v0.3
			c0-0.3,0.1-0.5,0.2-0.5C1149.3,222.1,1149.6,221.2,1149.6,220.2c0.3-0.2,0.5-0.7,0.5-1.4c1.6-1.6,2.5-3.7,2.7-6.2
			c0.4,0,0.9-0.7,1.4-2.1c0.5-1,1-2,1.5-3.2s1-2.3,1.5-3.4c0.2-0.5,0.5-1.1,0.7-1.7l0.9-1.8c0.1-0.1,0.1-0.3-0.2-0.6l-0.2,0.2
			c-0.4,0.4-0.9,1-1.3,1.8l-2.1,4.5l-1.8,4.5c-0.3,0.7-0.5,1.4-0.5,2.1c-0.6,0.4-1.5,2-2.7,4.6c-0.1,0.2-0.2,0.7-0.2,1.4
			C1149.7,218.9,1149.6,219.4,1149.6,220.2L1149.6,220.2z M1150.2,213.6c-0.4,0.2-0.5,0.6-0.3,1.3c-0.7,0.2-1,0.7-0.6,1.4
			c-0.3,0.1-0.5,0.5-0.5,1.3c-0.3,0-0.4,0.1-0.2,0.3c0.1-0.1,0.2-0.2,0.2-0.3c0.2-0.1,0.3-0.6,0.3-1.4c0.5-0.1,0.7-0.5,0.6-1.3
			c0.3-0.2,0.5-0.7,0.5-1.6c0.5,0,0.6-0.1,0.2-0.3C1150.4,213.2,1150.3,213.4,1150.2,213.6z M1152,209.9v0.2l0.2-0.2
			c0-0.7,0.2-1.2,0.5-1.3c0-0.2,0.1-0.4,0.2-0.6c0.1-0.2,0.3-0.5,0.5-0.8c0-0.2-0.1-0.3-0.3-0.2c-0.1,0.4-0.2,0.7-0.3,0.9
			c-0.1,0.2-0.2,0.4-0.2,0.7l-0.3,0.6C1152,209.5,1152,209.7,1152,209.9L1152,209.9z M1154.2,205.1c0.3-0.1,0.5-0.6,0.5-1.6
			c0.4-0.2,0.6-0.6,0.5-1.3c0.5-0.1,0.9-0.5,1.1-1.3c-0.1-0.1-0.2-0.3-0.2-0.5c0,0.1-0.1,0.2-0.2,0.3c-0.1,0.3-0.3,0.8-0.6,1.4
			c-0.1,0.3-0.3,0.9-0.5,1.6c-0.1,0.2-0.2,0.5-0.4,0.7C1154.3,204.8,1154.2,205,1154.2,205.1l-0.2,0.2v0.2
			C1154.1,205.2,1154.1,205.1,1154.2,205.1L1154.2,205.1z M1156,209.6c0,0.2-0.1,0.4-0.3,0.5c0,0.1,0.1,0.3,0.2,0.5
			c0.1-0.1,0.2-0.2,0.2-0.3v-0.8h0.2l0.2-0.2L1156,209.6L1156,209.6z M1160.1,197.1h0.5v-0.2c-0.2,0-0.3,0.1-0.3,0.3h-0.2
			c-0.1,0-0.2,0.1-0.2,0.3C1160.1,197.4,1160.1,197.2,1160.1,197.1L1160.1,197.1z M1170.8,186.1c-0.3,1.2-0.9,2.1-1.8,2.8
			s-1.5,1.6-1.8,2.6c-0.2,0.3-1.3,0-3.2-1c-1.9-1-2.8-1.7-2.6-2.2c0.4-1.8,0.7-2.8,0.9-3c0.2-0.2,0.4-1.1,0.7-3
			c1.3-1.6,2.8-1.7,4.5-0.2s2.9,2.7,3.7,3.5C1172,184.7,1171.9,184.8,1170.8,186.1L1170.8,186.1z"/>
		<path class="st13" d="M1177.2,241.1c-1.2,0.1-2.3,0.3-3.5,0.6c-1.2,0.3-2.2,0.3-3,0.2c-1.8-0.3-3.5-0.6-5.2-0.9s-3.4-0.6-5.2-1
			c-1.2-0.2-2.1-0.7-2.7-1.6c-0.6-0.9-1.4-1.7-2.4-2.4v-1.3c0.2-0.4,0.4-0.8,0.6-1c0.2-0.3,0.3-0.6,0.4-1c1.3-2.2,2.6-4.5,3.8-6.8
			c1.3-2.3,2.6-4.6,3.8-7c0.6-1.3,1.2-2.6,1.8-3.8c0.5-1.3,1.2-2.6,1.9-3.8c0.4-1.3,1-2.5,1.6-3.8l1.8-3.6c1.8-3.5,2.9-6.1,3.4-7.8
			c0.9-3.6,2.9-7.6,6.2-11.8c0.3-0.5,1-1.1,2.1-1.8c0.9-0.3,1.9-0.2,3,0.3c1.2,0.5,2.2,0.9,3,1.1c0.1,0,0.6,0.3,1.5,1
			s1.3,1.3,1.2,1.7c-0.7,1.2-2.1,2.7-3.9,4.6c-1.9,1.9-3.1,3.4-3.8,4.5c-2.6,4.8-2.9,8.7-1,11.8c0.5,1,1.1,1.9,1.6,2.9
			s1.1,1.9,1.8,2.7c0.9,1.5,1.7,2.9,2.4,4.3c2.3,4.9,1.5,10.2-2.6,16c-1.4,2-3.3,4-5.6,5.9c-0.6,0.3-1.2,0.6-1.8,1
			C1178,240.6,1177.6,240.9,1177.2,241.1L1177.2,241.1z M1166.8,218.1v-0.6l-0.3-0.5v0.5c0,0.1,0.1,0.2,0.2,0.3s0.2,0.2,0.3,0.2
			l-0.5,1.4c-1.7,1.6-3.1,3.8-4.3,6.7c-0.3,1.1-0.7,2.1-1.2,3s-0.9,1.9-1.4,3c-0.3,1-0.3,1.8,0.1,2.6s0.9,1,1.7,0.6
			c0.9-0.2,1.6-0.3,2.2-0.2s1.3,0.1,2,0.1c0.4,0,0.9,0,1.5,0.1s1.2,0,1.8-0.1c5.5-0.1,9.6-3.4,12.3-9.9c1.1-2.7,1.2-5,0.3-6.9
			c-0.9-1.4-2-3.5-3.5-6.2c-0.7-1-1.4-1.9-1.9-2.8c-0.5-0.9-1.1-1.8-1.8-2.8c-0.2-0.4-0.4-0.6-0.6-0.6l-0.6,0.8
			C1171.4,210.4,1169.3,214.2,1166.8,218.1L1166.8,218.1z M1181.7,230.1c1.2,0,1.9-0.3,2.1-0.8c1.1-2.8,1.1-5.1,0-7
			c0,0.2-0.2,0.1-0.6-0.3c-0.1,0.2-0.2,0.4-0.2,0.6c-0.2,1.4-0.4,2.7-0.6,3.9s-0.3,2.4-0.6,3.6c-1.7,1.5-2.7,2.8-3,3.8
			c-0.1,0.1-0.1,0.4,0.2,0.8c0.1,0,0.2-0.1,0.3-0.2C1181,232.8,1181.8,231.4,1181.7,230.1L1181.7,230.1z M1230.5,212.6
			c-1.6,3.2-3.8,7.7-6.5,13.5s-5.2,10-7.4,12.6c-2.7,3.3-5.5,5.3-8.6,5.9c-1.9,0.2-3.3,0.3-4.2,0.3c-3.2,0-5.3-1.4-6.4-4.2
			c-2.8-5.2-3.6-10.5-2.4-15.8c2-10.8,5.3-21.4,9.9-31.8c1-2.2,1.9-4.5,2.9-6.8s2-4.6,3.2-7c-0.3,0.1-0.7,0.2-1.3,0.2
			c-0.7,0-1.5,0-2.4,0.1s-1.7,0.1-2.4,0.1c-0.7,0.1-1.4,0.2-2.1,0.2c-0.6,0.1-1.3,0.1-2.1,0.1c-0.4,0-0.7-0.2-0.8-0.5
			c-0.4-0.4-0.5-0.9-0.3-1.3c0.3-0.7,0.6-1.3,0.8-1.8c0.4-0.5,1-0.8,1.6-0.8c2,0.2,3.8,0.2,5.4-0.2h1.1c0.7,0,1.4-0.1,2.1-0.2
			c0.6-0.1,1.3-0.2,2.1-0.3l3.9-6c1.3-2,2.5-4,3.6-6.2c0.3-0.2,0.6-0.6,0.8-1.3c0.6-1.3,1.1-2,1.3-2.2c1.5-0.3,3-0.3,4.6,0
			c2.5,0.4,3.7,2.1,3.7,5.1c0,0.3-0.1,0.6-0.2,1c-0.2,0.3-0.2,0.6-0.2,1l-5.3,8.5h0.9c0.7,0.1,1.5,0.1,2.4,0.1
			c0.9-0.1,1.7-0.1,2.6-0.1c0.6,0,1.5,0,2.6,0.1s2.1,0,2.8-0.1c0.4-0.1,0.7-0.2,0.8-0.2l0.3,0.3c0,0.4,0,0.8,0.1,1.2s0.2,0.7,0.4,1
			c0.3,1-0.2,1.6-1.4,1.9h-0.5c-0.9,0-1.7,0-2.6,0.1s-1.7,0-2.5-0.1c-2.9-0.2-5.7-0.2-8.5,0h-0.2c-3.9,6.4-7.5,13.5-10.6,21.4
			c-4.3,10.6-7.4,20.4-9.3,29.6c-0.9,3.6-0.9,6.8,0,9.6c0.4,1.7,1.4,2.4,3,2.1c5.4-1.1,10.1-5.2,14-12.3s6.8-12.9,8.9-17.3
			c0.3-1.1,0.8-1.4,1.5-1C1230.5,211.8,1230.7,212.2,1230.5,212.6L1230.5,212.6z M1198.4,222.9c0.2-1,0.3-2.3,0.3-4
			c-0.2-0.2-0.3-0.4-0.3-0.6c-0.2,0-0.3,0.2-0.3,0.5c-0.3,1.8-0.5,2.8-0.5,2.9c0,1.2,0,2.2,0.1,3.2s0,1.9-0.2,2.9
			c0,0.1,0.1,0.3,0.2,0.6c0.2-0.3,0.3-0.5,0.3-0.6C1198.1,225,1198.2,223.4,1198.4,222.9L1198.4,222.9z M1198.8,215.5v0.8l0.2,0.2
			c0.1-0.1,0.2-0.2,0.3-0.2c0.5-1.5,0.6-2,0.3-1.4l-0.2-0.5l-0.5,0.5C1198.9,215,1198.8,215.2,1198.8,215.5L1198.8,215.5z
			 M1199.6,211.7v0.3l0.5,0.5c0.1,0,0.3-0.2,0.5-0.5c-0.1,0.3,0.1-0.1,0.5-1.3c0-0.4,0.1-0.9,0.3-1.5c0.2-0.6,0.3-1.3,0.2-2
			c-0.7,0.4-1.1,1-1.2,1.7s-0.2,1.3-0.4,1.7C1199.7,210.8,1199.6,211.1,1199.6,211.7z M1202,205.6c0.3-0.2,0.5-0.4,0.5-0.5
			c0.5-1.5,1.1-3.1,1.8-4.7c0.6-1.7,1.4-3.2,2.4-4.7c0.1-0.1,0.2-0.4,0.2-1c0-0.2-0.1-0.3-0.3-0.3c-0.2,0.7-0.6,1.1-1.3,1.1
			c-0.6,0-1.1,0.2-1.3,0.5c-0.5,0.5-0.5,0.8,0.2,0.8c0.5,0,0.7,0.3,0.6,0.8c-0.4,1.1-1,2.2-1.6,3.4c-0.2,0.7-0.5,1.4-0.7,2.1
			c-0.3,0.6-0.5,1.3-0.6,1.9c0,0.1,0,0.2,0.1,0.3L1202,205.6L1202,205.6z M1209.4,187.1l-0.2-0.2c-0.4,0.4-0.9,0.8-1.3,1.1
			c-0.3,0.3-0.3,0.7,0,1.1c0.7,0.7,1.3,0.7,1.8,0c0.6-1.5,1.2-2.7,1.6-3.5c0-0.1,0-0.3-0.1-0.5s-0.1-0.5-0.1-0.8
			c-0.3-0.3-0.5-0.5-0.6-0.5s-0.3,0.1-0.5,0.3c-0.2,0.9-0.6,1.5-1.1,1.9C1208.9,186,1209.1,186.3,1209.4,187.1L1209.4,187.1z
			 M1209.1,176.2l-0.3-0.2l-0.2,0.2l0.2,0.2L1209.1,176.2c0.2,0.2,0.5,0.2,1,0c0.1,0.1,0.2,0.1,0.2,0h-0.2
			C1209.8,176.1,1209.5,176.1,1209.1,176.2z M1211.5,176h-0.2c-0.1,0-0.2,0.1-0.3,0.2h0.2C1211.3,176.1,1211.4,176,1211.5,176z
			 M1212.4,181.9v0.6c0,0.2,0.1,0.4,0.2,0.5c0.1-0.1,0.2-0.3,0.2-0.5c0-0.1,0.1-0.3,0.2-0.5s0.3-0.5,0.5-0.8l-0.3-0.2
			c-0.3,0-0.5,0.1-0.5,0.2C1212.5,181.4,1212.4,181.6,1212.4,181.9L1212.4,181.9z M1224.4,175.9l0.2-0.2h0.3h-0.3L1224.4,175.9z
			 M1225.9,175.5l-0.2,0.2c0,0.1,0.1,0.2,0.2,0.2c0.2,0.2,0.5,0.2,1-0.2c0.1,0.2,0.2,0.3,0.3,0.2h-0.3
			C1226.5,175.4,1226.2,175.3,1225.9,175.5z M1228.1,175.9c-0.2-0.1-0.3-0.1-0.3,0h0.5c0.2,0.2,0.4,0.2,0.6,0h0.5h-0.5
			C1228.7,175.8,1228.4,175.8,1228.1,175.9L1228.1,175.9z"/>
		<path class="st13" d="M1247.4,212.3c-1.5,2.8-3.6,6.4-6.4,10.9s-5.3,7.8-7.7,10.1c-0.3,0.3-0.7,0.7-1,1.1
			c-0.4,0.4-0.8,0.9-1.2,1.3c-1,0.5-1.7,0.8-2.1,0.8c-2.7,0.3-4.4-0.6-5.3-2.9c-1.2-3.2-1.3-6.3-0.5-9.4c0.5-1.5,1-3,1.5-4.6
			c0.5-1.5,1.1-3.1,2-4.6c0.1-0.4,0.4-1.3,1-2.6c1.3-3.7,2.9-7.4,4.7-11c1.9-3.6,3.5-6.8,5-9.6c0.3-0.9,0.8-1.1,1.4-0.6
			c1,1.1,2.2,1.7,3.7,1.9c1.6,0.5,2.1,1.7,1.6,3.5c0.1-0.5-0.1-0.1-0.5,1.3c-2.3,4.4-4.3,8.4-5.9,12c-2,3.8-4.1,8.3-6.2,13.4
			c-1.3,2.2-2.1,4.7-2.4,7.5c-0.3,0.7-0.3,1.4,0,2.1c0,0.6,0.2,0.7,0.6,0.3c2-1.1,3.6-2.5,4.8-4.2c1-1.2,2.9-4,5.7-8.5
			c2.8-4.5,4.7-7.5,5.5-9C1247.1,211.5,1247.7,211.7,1247.4,212.3L1247.4,212.3z M1225.5,220.2v0.3l0.3-0.3c0-0.2-0.1-0.4-0.2-0.5
			h0.3v-0.5c0,0.1-0.1,0.3-0.2,0.5S1225.5,220.1,1225.5,220.2L1225.5,220.2z M1227.8,220.2c-0.7,0.6-1.1,1.5-1,2.7l-0.2,0.2v0.3
			c0-0.3,0.1-0.5,0.2-0.5C1227.5,222.1,1227.8,221.2,1227.8,220.2c0.3-0.2,0.5-0.7,0.5-1.4c1.6-1.6,2.5-3.7,2.7-6.2
			c0.4,0,0.9-0.7,1.4-2.1c0.5-1,1-2,1.5-3.2s1-2.3,1.5-3.4c0.2-0.5,0.5-1.1,0.7-1.7l0.9-1.8c0.1-0.1,0.1-0.3-0.2-0.6l-0.2,0.2
			c-0.4,0.4-0.9,1-1.3,1.8l-2.1,4.5l-1.8,4.5c-0.3,0.7-0.5,1.4-0.5,2.1c-0.6,0.4-1.5,2-2.7,4.6c-0.1,0.2-0.2,0.7-0.2,1.4
			C1227.9,218.9,1227.8,219.4,1227.8,220.2L1227.8,220.2z M1228.4,213.6c-0.4,0.2-0.5,0.6-0.3,1.3c-0.7,0.2-1,0.7-0.6,1.4
			c-0.3,0.1-0.5,0.5-0.5,1.3c-0.3,0-0.4,0.1-0.2,0.3c0.1-0.1,0.2-0.2,0.2-0.3c0.2-0.1,0.3-0.6,0.3-1.4c0.5-0.1,0.7-0.5,0.6-1.3
			c0.3-0.2,0.5-0.7,0.5-1.6c0.5,0,0.6-0.1,0.2-0.3C1228.6,213.2,1228.5,213.4,1228.4,213.6z M1230.2,209.9v0.2l0.2-0.2
			c0-0.7,0.2-1.2,0.5-1.3c0-0.2,0.1-0.4,0.2-0.6c0.1-0.2,0.3-0.5,0.5-0.8c0-0.2-0.1-0.3-0.3-0.2c-0.1,0.4-0.2,0.7-0.3,0.9
			c-0.1,0.2-0.2,0.4-0.2,0.7l-0.3,0.6C1230.2,209.5,1230.2,209.7,1230.2,209.9L1230.2,209.9z M1232.4,205.1c0.3-0.1,0.5-0.6,0.5-1.6
			c0.4-0.2,0.6-0.6,0.5-1.3c0.5-0.1,0.9-0.5,1.1-1.3c-0.1-0.1-0.2-0.3-0.2-0.5c0,0.1-0.1,0.2-0.2,0.3c-0.1,0.3-0.3,0.8-0.6,1.4
			c-0.1,0.3-0.3,0.9-0.5,1.6c-0.1,0.2-0.2,0.5-0.4,0.7C1232.5,204.8,1232.4,205,1232.4,205.1l-0.2,0.2v0.2
			C1232.3,205.2,1232.3,205.1,1232.4,205.1L1232.4,205.1z M1234.2,209.6c0,0.2-0.1,0.4-0.3,0.5c0,0.1,0.1,0.3,0.2,0.5
			c0.1-0.1,0.2-0.2,0.2-0.3v-0.8h0.2l0.2-0.2L1234.2,209.6L1234.2,209.6z M1238.3,197.1h0.5v-0.2c-0.2,0-0.3,0.1-0.3,0.3h-0.2
			c-0.1,0-0.2,0.1-0.2,0.3C1238.3,197.4,1238.3,197.2,1238.3,197.1L1238.3,197.1z M1249,186.1c-0.3,1.2-0.9,2.1-1.8,2.8
			s-1.5,1.6-1.8,2.6c-0.2,0.3-1.3,0-3.2-1c-1.9-1-2.8-1.7-2.6-2.2c0.4-1.8,0.7-2.8,0.9-3c0.2-0.2,0.4-1.1,0.7-3
			c1.3-1.6,2.8-1.7,4.5-0.2s2.9,2.7,3.7,3.5C1250.2,184.7,1250.1,184.8,1249,186.1L1249,186.1z"/>
		<path class="st13" d="M1291.4,213c-1.1,1.5-3.5,5-7.3,10.6s-6.2,9-7.1,10.3c-0.6,1-1.7,2.2-3.2,3.8c-1.5,1.3-3,1.3-4.5,0
			c-2.9-2-4.4-4.3-4.6-6.9c-0.3-2.1,0-4.8,1-8c1.1-3.5,2-6.8,2.8-9.8s2.1-6.2,3.9-9.8c2.7-4.9,3.8-7.5,3.4-7.7
			c-1.1,0.2-2.2,1.1-3.4,2.6c-1.3,1.7-2.6,3.3-3.8,4.8c-1.3,1.5-2.6,3-3.8,4.6c-2.2,2.9-4.4,5.8-6.6,8.9c-2.1,3-4.1,6.2-5.9,9.4
			c-1.1,2-2.3,3.7-3.7,5c-0.3,0.3-1,1.2-1.9,2.7c-0.3,0.3-0.6,0.7-0.9,1.1c-0.3,0.4-0.5,0.9-0.7,1.3c-1.1,1.6-2.5,1.8-4.3,0.6
			c-2.9-1.4-3.6-3.8-2.1-7.4c1-1.8,1.9-3.7,2.8-5.7s1.7-4,2.3-6c0.2-0.6,0.5-1.2,0.7-1.8c0.3-0.5,0.5-1.1,0.6-1.8
			c2.1-4.1,4.1-8.2,5.9-12.4s3.6-8.5,5.4-12.9c0.5-1.8,1.6-2.3,3.2-1.6c1.4,0.7,2.8,1.6,4.2,2.6c1.6,1.2,2,2.7,1.3,4.6
			c-1.2,2.3-2.4,4.7-3.6,7.1c-1.2,2.4-2.4,4.7-3.4,6.8c-0.9,1.9-1.7,3.7-2.6,5.4s-1.7,3.4-2.3,5.1v1c0.2-0.1,0.4-0.3,0.5-0.5
			s0.3-0.4,0.6-0.6c0.3-0.2,0.5-0.5,0.7-0.9c1.8-2.9,3.9-5.7,6.2-8.6c2.3-2.8,4.7-5.7,7.1-8.6c0.9-1.1,1.5-2,1.9-2.8
			s1.2-1.8,2.2-3.1c0.9-1.1,1.8-2.2,2.8-3.4s2-2.4,3-3.4c0.7-0.7,1.3-1,1.6-0.6c0.7,0.5,1.5,0.9,2.2,1s1.4,0.3,2.2,0.5l1.8,1.8
			c0.9,0.9,1.4,1.4,1.4,1.8c0,2.3-0.7,4.8-2.1,7.3s-2.6,4.9-3.7,7.1c-0.6,1.1-1.4,2.7-2.4,5c-0.1,0-0.2-0.1-0.2-0.2h-0.5
			c-0.2,0.2-0.3,0.5-0.3,0.8c0,0.1,0,0.2,0.1,0.3s0.1,0.2,0.2,0.2c-0.4,1.1-0.8,2.1-1.1,3c-0.3,1-0.7,1.9-1.1,2.9
			c-0.3-0.4-0.5-0.6-0.6-0.6c-0.4,0-0.6,0.3-0.6,1c0,0.1,0.3,0.4,0.8,1l0.2-0.6c-0.2,1.1-0.4,1.9-0.6,2.6l-0.5-0.2v-0.6l-0.2-0.2
			v0.3c0,0.2,0.1,0.3,0.3,0.3v1.3l-0.2,0.2v0.3l0.2-0.3c-1.8,1.2-2.5,2.7-1.9,4.6c-0.1,0.1-0.4,0.2-0.8,0.3
			c-0.4,0.7-0.9,1.5-1.3,2.2s-0.9,1.5-1.3,2.2c-0.1,0.1-0.2,0.3-0.2,0.5s0.1,0.4,0.2,0.6c0.4,0.3,0.6,0.3,0.6,0
			c1.4-1.8,2.3-3.8,2.7-6.1c0.3-0.3,0.7-0.9,1.3-1.6l-0.3,1.1c-0.6,2.8-0.9,4.5-0.6,5.3c1.1,0,1.9-0.4,2.6-1.1
			c0.7-0.7,1.4-1.5,2.2-2.2c0.5-0.6,2.6-3.4,6.1-8.4s5.5-7.7,6.1-8.2c0.3-0.5,0.7-0.7,1.1-0.6C1291.7,211.8,1291.8,212.2,1291.4,213
			L1291.4,213z M1248.2,225.6c0-0.2-0.1-0.4-0.2-0.5c-0.3,0-0.5,0.1-0.6,0.2c0,0.2,0,0.4-0.1,0.6c-0.1,0.2-0.1,0.3-0.1,0.4
			c0,0.1,0.1,0.3,0.2,0.5c0.1,0,0.3-0.1,0.6-0.3C1248.2,226.3,1248.2,226,1248.2,225.6z M1250.3,212.6c-0.1,0-0.2-0.1-0.2-0.2
			c-0.1-0.1-0.1-0.3-0.1-0.5l-0.2,0.3c-0.2,0.4-0.3,0.7-0.3,0.8c0.1,0.3,0.2,0.5,0.3,0.5c0.1,0,0.2-0.1,0.2-0.3
			C1250.2,213.1,1250.3,212.9,1250.3,212.6L1250.3,212.6z M1253,205.1c-0.3,0.2-0.6,0.5-1,0.8c0.2,0.5,0.5,0.8,1,0.8
			c0.4,0,0.6-0.3,0.5-1C1253.5,206.1,1253.4,205.9,1253,205.1z M1253.5,203.2v-1.5c1.7-0.9,2.4-2.3,2.1-4.5c0.3-0.2,0.5-0.4,0.6-0.5
			c0.4-0.7,0.9-1.5,1.3-2.2s0.9-1.5,1.3-2.2c0.2-0.1,0.3-0.3,0.3-0.5c-0.2-0.2-0.3-0.4-0.3-0.6h-0.5c-1.5,1.9-2.4,3.9-2.7,6.1
			c-1.3,1.3-1.9,2.8-1.9,4.6c-0.6,0.5-0.6,1,0,1.3v0.6l0.2,0.2c0.1-0.1,0.2-0.3,0.2-0.5c-0.1,0-0.2,0-0.3-0.1
			C1253.6,203.4,1253.5,203.3,1253.5,203.2L1253.5,203.2z M1280.2,199.2c0,0.3,0.1,0.5,0.2,0.6c0.2-0.1,0.4-0.2,0.5-0.3
			c0.2-0.3,0.3-0.6,0.3-1c-0.2-0.2-0.3-0.4-0.3-0.5c-0.1,0.1-0.3,0.2-0.5,0.3C1280.3,198.5,1280.2,198.8,1280.2,199.2z"/>
		<path class="st13" d="M1309.8,206.4c-1.3,2.3-2.6,4.6-4,6.6c-1.4,2.1-2.7,4.2-4,6.3c-0.9,1.5-1.7,2.9-2.6,4.2s-1.7,2.6-2.5,4
			c-0.9,1.4-1.7,2.7-2.5,4s-1.7,2.5-2.8,3.5c-0.4,0.4-0.7,0.9-0.9,1.3c-0.2,0.4-0.5,0.7-0.9,1c-0.3,0.6-0.7,0.7-1.3,0.3
			c-2.5-0.6-3.8-2.6-4-5.9c-0.2-4.4,0.6-8.8,2.4-13.4c0.7-1.9,1.4-3.9,2.1-6s1.5-4,2.7-5.8c0-1.2,0.5-2.2,1.6-3.2
			c1.3-1.2,2.3-2.6,3.1-4.2s1.9-3,3.3-4.3c1.6-1.5,3.6-2.9,5.9-4.3c2.9-1.5,5.7-1.5,8.5,0c-0.2-0.1,0.4,0.3,1.9,1.3
			c1.7,1.1,3.1,0.8,4.3-0.8c0.1-0.1,0.2-0.3,0.2-0.5c1.7-2.2,3.5-2.2,5.3,0c0.1,0.3,0.3,0.7,0.5,1.1c0.2,0.4,0.5,0.9,0.8,1.3
			c0.1,0.5,0.1,1.1,0,1.8c-0.9,1.4-1.5,2.8-2.1,4.2c-0.5,1.4-1.2,2.8-2.1,4.2c-1,1.5-1.7,3-2.2,4.6s-1.1,3.1-1.8,4.5
			c-0.3,0.5-0.6,1.1-0.7,1.6c-0.2,0.5-0.3,1-0.6,1.4c-1.1,1.8-2,3.7-2.7,5.6c-0.7,1.9-1.7,3.8-2.9,5.6c-1.3,2.3-1.8,4.7-1.6,7
			c0,0.2,0.1,0.3,0.3,0.3c0.4,0,0.7-0.1,0.8-0.2c1.4-1.8,2.8-3.6,4.3-5.4c1.5-1.8,3-3.5,4.5-5.4c0.9-1.1,2.1-2.8,3.7-5.3
			s2.9-4.4,3.8-5.8c-0.2,0.4,0.4-0.1,1.8-1.4c0.1,1.2-0.3,2.5-1.1,4c-1.4,2.1-3.1,4.8-5.2,8s-3.9,5.7-5.4,7.5
			c-1.9,2.7-3.5,4.5-4.8,5.6c-2.5,2.7-5,2.6-7.7-0.2c-1.1-0.9-1.6-2-1.6-3.5c-0.3-3.1,0.2-6,1.4-8.6c0.3-1.1,0.6-2.2,1-3.4
			c0.3-1.2,0.9-2.3,1.6-3.4c0.7-0.9,1.3-1.9,1.6-3.1c0.3-1.2,0.7-2.5,1.1-3.8c0.5-1.6,1.1-3.7,1.6-6.2s0.8-3.8,0.8-3.9
			c0.3-0.3,0.6-0.7,0.8-1.3c0.2-0.5,0.5-1,1-1.4c-0.2-0.1-0.3-0.3-0.3-0.5l-0.3-0.2c-0.4,0.3-0.9,0.5-1.4,0.6s-0.9,0.2-1.2,0.3
			c-2.6,0.7-4.6,1.7-6.2,2.9c-0.7,0.7-1.1,1.2-1.1,1.4c-0.1,1-0.5,1.7-1.1,2.2s-1.1,1.2-1.4,1.9c-1.1,1.7-2.1,3.4-3.2,5.1
			c-1.1,1.7-1.9,3.6-2.4,5.6c-1.2,1.8-2.1,3.8-2.8,5.9c-0.7,2.1-1.4,4.2-2.2,6.2c0.2-0.2,0.3,0.1,0.3,0.8c0.3-0.2,0.5-0.4,0.6-0.5
			c1.7-2.5,3-4.4,3.8-5.8c0.4-0.3,0.7-0.7,1-1.2c0.2-0.5,0.5-0.9,1-1.4c1.1-0.9,2-1.9,2.9-3.1c0.9-1.2,1.7-2.4,2.6-3.6
			c0.7-1.2,1.5-2.3,2.3-3.3s1.6-2.2,2.3-3.6c1.4-2.5,2.7-4.2,3.8-5.1C1312.8,200.6,1312.2,202.2,1309.8,206.4L1309.8,206.4z
			 M1292.5,218.9v-0.3c0-0.2-0.2-0.4-0.5-0.6c-0.2,0.2-0.3,0.5-0.3,0.8c0,0.2,0.2,0.5,0.5,1C1292.4,219.4,1292.5,219.1,1292.5,218.9
			z M1311.7,220.5l-0.3,0.5c0,0.1,0.1,0.3,0.2,0.6l0.3-0.2c0-0.1,0-0.2-0.1-0.3C1311.8,221,1311.7,220.8,1311.7,220.5z
			 M1312.7,218.9l-0.2-0.2v0.2H1312.7z M1314.8,214.4c-0.1-0.1-0.2-0.2-0.2-0.3c-0.3,0.2-0.5,0.5-0.5,0.8c0.1,0.2,0.3,0.3,0.5,0.3
			c0-0.1,0-0.2,0.1-0.4S1314.8,214.5,1314.8,214.4L1314.8,214.4z M1316.7,209c0.4-0.1,0.7-0.3,0.8-0.6v-0.6l-0.5,0.5
			C1316.8,208.3,1316.7,208.5,1316.7,209l-0.5,0.5v1l0.5-0.5V209L1316.7,209z M1327.9,235.7c0.2-1.5,0.3-2.6,0.3-3.2
			c0-0.1,0.1-0.2,0.2-0.3c0.5-2,1.7-2.7,3.4-2.1c1.5,0.5,2.3,1,2.5,1.5s0,1.6-0.6,3.3l-0.2,1.1l-1.1,2.1c-1.2,0.2-2.1,0-2.9-0.6
			c-0.3,0-0.6-0.2-0.9-0.6C1328.3,236.5,1328.1,236.1,1327.9,235.7L1327.9,235.7z"/>
	</g>
</g>
<path id="Layer_14_xA0_Image_1_" class="st14" d="M496.7,1097.2c-2.3-12.7-4.2-25.5-4.6-38.5c-0.9-33.5,7.8-64.9,21.5-95.1
	c10.5-23.1,23.9-44.6,37.9-65.7c15.2-23,31.3-45.3,46-68.6c7.5-11.8,14.3-24,21.1-36.2c1.3-2.3,4.1-6.7,4.1-6.7s15.7,27,21.8,38.4
	c14.9,28,24.4,57.8,27.8,89.3c3.8,35.6-1.2,69.8-16.1,102.5c-12.3,27.1-27.9,52.1-47.2,74.7c-1.5,1.8-3.6,3.3-4,5.9H496.7z
	 M1376.6,1099.6c-1.1-2.6-3.3-4.2-5.2-6.1c-12.8-13.5-25-27.6-35-43.4c-17.7-28.1-27-58.8-28.8-91.9c-1.8-33.4,1.8-66.2,10.3-98.5
	c0.6-2.1,1.2-4.3,2-6.3c1.7-3.8,46.8,25.5,64.8,54.1c15.3,26.4,27.1,54.9,33,84.6c3.9,19.8,6.3,39.8,6,60c-0.2,14.2,9,26.5,7.1,40.6
	c-0.2,1.7-0.4,14.1,0,15.8C1416.4,1108.5,1391.2,1099.6,1376.6,1099.6L1376.6,1099.6z M2018.1,1097.9c9.1-30.7,27.6-55.5,48.7-78.8
	c19.7-21.8,42.7-39.6,67.6-55c11.4-7.1,22.9-14.1,34.4-21.2c2.2-1.4,4.3-3,6.4-4.4V1098C2122.8,1097.9,2070.4,1097.9,2018.1,1097.9
	L2018.1,1097.9z"/>
<path id="Layer_17_xA0_Image_1_" class="st15" d="M538,1097.2c2.3-4,4.3-8.3,6.9-12.1c12.5-18.5,24.7-37.1,34.8-57
	c14.9-29.2,25.7-59.9,33.7-91.7c1.5-5.9,3-11.8,4.6-17.6c0.5-1.9,1.2-3.7,2.6-5.3c-0.2,1.3-0.2,2.7-0.5,4
	c-8.8,41.4-21.5,81.5-41.9,118.8c-8.1,14.8-16.9,29.1-26.6,42.8c-4.2,6-8.3,12-12.4,18C538.8,1097.2,538.4,1097.2,538,1097.2
	L538,1097.2z M1395.9,1097.4c-2.9-5.4-5.9-10.8-8.8-16.2c-11.7-21.5-20.4-44.3-28.5-67.2c-5.3-15-10.3-30.1-15.4-45.1
	c-0.7-2.1-1.2-4.3-0.8-6.7c2.6,7.1,5.2,14.2,7.7,21.4c9,25.6,17.8,51.3,29.2,75.9c5.2,11.1,11.2,21.9,16.7,32.8
	c0.9,1.7,1.6,3.4,2.4,5.2C1397.6,1097.4,1396.7,1097.4,1395.9,1097.4L1395.9,1097.4z"/>
<path id="Layer_13_xA0_Image_1_" class="st16" d="M1427,1097.4c-4.7-8-10-15.7-14.8-23.6c-7.6-12.5-13.4-25.8-18.5-39.5
	c-7.4-19.7-12.1-40-11.7-61.1c0.4-19.7,5.2-38,17.9-53.7c9.5-11.8,21.5-19.6,36.7-21.4c9.8-1.2,19,1.6,27.4,6.5
	c12.3,7.3,20.8,18.4,27.3,30.9c9.8,18.9,13.4,39.4,15.7,60.2c3.2,29.3,2.2,58.8,0.6,88.2c0,0.8,0,1.6,0.6,2.6c0.4-1.1,1-2.3,1.3-3.4
	c4-21.1,8.2-42.1,13.8-62.9c6-22.3,12.7-44.4,24-64.8c14.6-26.3,34.1-48,60.9-62.6c14.3-7.8,29.8-11.1,45.8-8.1
	c16.2,3,26.8,13.2,32.3,28.9c2.9,8.5,3.3,17.2,2.3,25.8c-1.1,9-3.6,17.9-6.9,26.4c-10,25.8-25.3,48.2-44.5,68
	c-20.1,20.8-41,40.9-61.3,61.4c-0.6,0.6-0.9,1.4-1.3,2.1C1525.3,1097.4,1476.1,1097.4,1427,1097.4L1427,1097.4z M1903.2,1096.9
	c-0.4-15.4,1.5-30.5,4-45.6c2.8-16.9,7-33.4,12.8-49.5c11.7-32.7,27.5-63.4,48.2-91.3c19.3-26.1,41.1-49.9,68.1-68.3
	c8.2-5.6,17-9.9,26-13.8c5.7-2.5,8.3-0.2,7.8,6c-1.7,19.6-3.1,39.3-5.2,58.9c-2.1,19.4-5.4,38.6-10.5,57.4
	c-12.3,45.6-35.4,85.4-64,122.5c-4.9,6.4-10.1,12.5-15.1,18.8c-1.2,1.6-2.8,2.9-3.3,5C1949.1,1096.9,1926.2,1096.9,1903.2,1096.9
	L1903.2,1096.9z M0.1,1099.2c0-41.9,0.1-83.7-0.1-125.6c0-6.1,1.8-11.1,5.1-16.1c17.6-26.7,40-49.2,64.4-69.8
	c18.7-15.8,38.1-31,55.2-48.6c11.7-12,23.1-24.2,31.2-39c0.4-0.8-6.7,51.6-7.9,63.3c-2.3,22-4,44.1-6.8,66.1
	c-2,15.6-5.9,30.9-9.9,46.1c-3.5,13.4-7.9,26.5-13.7,39.2c-9.5,20.8-23,39-38.2,56.1c-8.6,9.7-17.9,18.8-26.9,28.1
	C34.9,1099.2,17.5,1099.2,0.1,1099.2L0.1,1099.2z M549,1097.2c-33.3-30.7-61.5-65.8-87.4-102.8c-12.9-18.4-21.9-38.7-26.1-60.8
	c-2.5-13.2-3.4-26.5-0.4-39.8c2.9-13.1,9.4-23.8,22-29.5c11.9-5.3,24.2-4.2,36,0.9c16.2,6.9,27.6,19.4,37.8,33.2
	c12.8,17.4,22,36.7,30.2,56.5c7.9,19.3,14.9,38.9,20.6,58.9c4.3,15,6.8,30.4,8.5,45.9c1.3,12.5,2.4,25,2.7,37.5L549,1097.2
	L549,1097.2z M648.7,1097.2c3.9-9.8,7-19.8,11.3-29.4c12.3-28,27.3-54.2,49.3-75.9c17.9-17.6,38.9-29.8,63.4-35
	c12.1-2.6,24.5-3.4,36.5,1.2c19,7.4,24.9,24.5,18.3,43.3c-5.7,16-16.3,28.8-28,40.6c-18.2,18.3-38.9,33.5-59.3,49
	c-2.6,1.9-5.6,3.4-7.4,6.2L648.7,1097.2L648.7,1097.2z"/>
<path id="Layer_16_xA0_Image_1_" class="st17" d="M1544.7,1097.4c1.6-5.3,2.9-10.6,4.8-15.7c1.8-4.7,2.3-9.2,1.9-14.2
	c-1.1-15-0.5-30.1,1.4-45c1.3-10.1,2.8-20.1,4.2-30.2c0.1-1,0.5-2,1.8-2.9c-0.2,3.4-0.2,6.8-0.5,10.2c-1.4,17.9-2.9,35.9-4.3,53.8
	c-0.3,3.5,0.1,7,1.4,10.7c0.7-1.1,1.5-2.2,2.1-3.4c6.1-13.1,12.2-26.1,18-39.3c1.7-4,2.9-8.4,3.3-12.8c2.5-23.3,7.1-46.1,13.6-68.5
	c0.2-0.6,0.5-1.1,1.2-1.6c-3.6,22.9-9.7,45.5-11.6,69.9c1.5-2,2.5-3.2,3.3-4.5c8-12.2,16.1-24.4,24-36.7c1.4-2.2,2.4-4.9,3.1-7.5
	c2.1-8.4,4-16.9,6.1-25.3c0.7-2.6,1.7-5.2,3.6-7.5c-2.1,9.5-4.2,19-6.2,28.5c0.5,0.2,0.9,0.5,1.4,0.7c8.8-9.4,15.8-20.4,25.6-28.9
	c-5.6,10.4-13.8,18.9-21.1,29.8c7.3-1.9,12.5-5.3,18.3-7.3c5.7-2,11.3-4.2,17-6.4c0.2,0.5,0.4,0.9,0.6,1.4c-1.8,0.9-3.6,1.7-5.4,2.6
	c-10.4,4.7-20.9,9.3-31.2,14.2c-2.4,1.1-4.9,2.9-6.4,5c-8.6,12.6-16.8,25.4-25.2,38.2c-0.3,0.5-0.4,1.2-1.1,3.3
	c16.6-10.8,31.4-22.1,49-28.8c-1.3,0.9-2.5,1.8-3.8,2.6c-15.8,9.5-31.4,19.3-45.5,31.4c-4.7,4.1-8.8,8.5-11.3,14.3
	c-5,11.2-10.2,22.4-15.3,33.6c-0.8,1.7-1.3,3.5-2.5,6.6c2.4-1.4,3.8-2.1,5-2.9c12.1-8.2,24.1-16.5,36.3-24.6
	c2.7-1.8,5.8-3.1,8.7-4.7c0.3,0.4,0.5,0.9,0.8,1.3c-2.7,1.9-5.3,3.8-8,5.7c-13.8,9.8-27.6,19.7-41.5,29.4c-3.5,2.4-5.8,5.5-7.2,9.4
	c-1.9,5.4-3.9,10.8-5.8,16.2C1546.4,1097.4,1545.6,1097.4,1544.7,1097.4L1544.7,1097.4z M1.4,1071.8c6.2-8.8,12.5-17.3,15-28.2
	c4.7-20.2,9.8-40.2,14.9-60.3c1-3.8,2.3-7.5,4.1-11c-5.1,23.5-11.6,46.6-14.9,70.7c5.5-7.5,11.1-14.8,16.3-22.4c1.5-2.1,2-5,2.7-7.6
	c6.5-21.6,12.9-43.3,19.4-64.9c0.6-2.1,1.5-4.1,2.3-6.2c0.4,0.1,0.8,0.3,1.2,0.4c-6.5,23-13,45.9-19.5,68.9c0.5,0.4,1,0.8,1.5,1.3
	c0.4-1,0.6-2.1,1.2-2.9c7.1-9.5,14.3-18.8,21.2-28.4c1.6-2.3,2.5-5.2,3.2-8c4.6-16.6,8.9-33.2,13.5-49.8c1-3.8,2.4-7.4,3.6-11.2
	l1.2,0.3c-4.8,18.7-9.7,37.5-14.5,56.2l1.2,0.6c16.3-22.9,28.7-48.1,41.9-72.9c0.1,8.3-15.1,37.4-38,75.6
	c5.7-4.7,11.4-9.4,17.2-14.1c5.8-4.7,11.7-9.2,18.4-13c-0.9,1.1-1.8,2.3-2.8,3.2c-11.9,10-23.8,20-35.6,30.1
	c-3.1,2.7-6.1,5.6-8.7,8.8c-5.5,6.9-10.7,14-15.3,21.7c10.6-7.4,21.2-14.9,31.8-22.3c0.2,0.3,0.5,0.5,0.7,0.8
	c-0.9,0.9-1.7,1.9-2.7,2.7c-11.1,8.3-22.3,16.5-33.4,24.8c-2.1,1.6-4.5,3.2-6.1,5.2c-8,10.3-15.8,20.7-23.2,31.7
	c5.2-1.8,9.5-5,14.1-7.7c4.6-2.8,9.2-5.6,13.8-8.3c4.7-2.8,9.5-5.6,14.9-7.4c-1,0.8-2,1.7-3.1,2.4c-12.7,8.2-25.5,16.3-38,24.7
	c-5.9,3.9-10.9,8.7-14.1,15.3c-1,2.2-1.5,5.6-5.4,4.9C1.4,1075.5,1.4,1071.8,1.4,1071.8z M573.3,1097.2
	c-4.4-13.3-8.5-26.6-13.2-39.8c-1.2-3.5-3.7-6.7-6.3-9.5c-14.1-15.2-30.4-28-46.9-40.4c-2.1-1.6-4.1-3.2-5.9-5.3
	c3.6,0.8,6.3,3.1,9.2,5.2c2.9,2.1,5.9,4.3,8.8,6.5c3.1,2.3,6.2,4.6,9.2,7s5.9,4.9,8.9,7.4c2.8,2.4,5.5,4.8,8.2,7.2
	c2.8,2.6,5.5,5.3,9.3,9c-0.5-2.6-0.6-3.8-1-4.9c-7.7-18.8-16.1-37.3-27.2-54.3c-5.6-8.5-13.2-15.9-20.8-22.8
	c-6.7-6.1-14.6-10.8-22-16.1c-1.1-0.8-2.3-1.5-3.2-2.8c3.3,0.4,6,2.2,8.7,3.9c2.9,1.8,5.8,3.7,8.6,5.7s5.5,4.1,8.2,6.2
	c2.6,2.1,5.1,4.2,8.5,5.6c-8.6-13.6-17.1-27.2-25.7-40.8c0.4-0.2,0.7-0.5,1.1-0.7c10.5,13.3,18.9,28.1,29.5,41.5
	c-2.7-10.7-5.4-21.3-8.2-32c0.5-0.1,1-0.3,1.4-0.4c0.8,2.8,1.7,5.5,2.5,8.3c1.6,5.7,3,11.4,4.7,17c3.7,12.2,8.4,23.9,14.8,35.2
	c7.1,12.5,12.7,25.8,18.9,38.7c0.6,1.2,1.2,2.4,2.3,3.5c-1.8-17.9-2.6-35.6-1.1-53.5c0.6,9.5,1,19,1.9,28.4
	c1.2,12.7,2.7,25.4,4.2,38c0.2,1.8,0.8,3.6,1.3,5.3c4.6,14.5,9.2,29,13.8,43.4C574.9,1097.2,574.1,1097.2,573.3,1097.2L573.3,1097.2
	z M1476,1097.4c-1.1-5.6-1.9-11.3-3.5-16.8c-0.9-3.1-2.8-6.3-5.1-8.6c-11.6-11.8-23.5-23.3-35.3-34.8c-2.8-2.7-5.6-5.4-8-8.6
	c15.8,12.3,30.4,26,45.2,40c-0.5-2.1-0.9-4.2-1.6-6.3c-5.5-16.5-10.8-33-16.6-49.4c-1.2-3.5-3.5-6.9-6.1-9.5
	c-6.3-6.2-13.1-11.9-19.6-17.8c3.5,0.6,4.3,1,10.1,5.7c3.2,2.6,6.5,5.3,10.5,7.5c-4.4-12.6-8.9-25.2-13.3-37.9l1.5-0.6
	c5.6,12,9.5,24.8,15.6,36.7c0.7-7.6,1.3-15.3,2-22.9c0.4,0,0.7,0,1.1,0.1c0,8.2,0.1,16.5,0,24.7c-0.1,6.5,1,12.6,3.1,18.7
	c4.5,12.8,8.6,25.7,12.9,38.6c0.7,1.9,1.4,3.9,2.5,5.8c3.3-21.3,7.2-42.4,13.3-63c0.5,0.1,0.9,0.2,1.4,0.3c-1,5.1-2.1,10.2-3.1,15.4
	c-2.4,12.9-4.9,25.8-7.2,38.7c-2,11.4-1.8,22.8,1.2,34c0.9,3.2,1,6.7,1.5,10H1476z M1929.8,1096.9c4.4-15.3,8.6-30.6,13.3-45.8
	c6.7-21.6,14.8-42.6,25.4-62.6c11.7-22,24.2-43.6,37-65c8.5-14.1,18.3-27.4,27.6-41c1.4-2.1,3.2-3.9,5.6-6.8c0.4,4-1.5,5.7-2.7,7.6
	c-8.6,13.1-17.3,26.2-25.9,39.3c-13.8,21.3-26.6,43.2-38.1,65.8c-16.2,31.9-28,65.4-37.4,99.9c-0.8,2.9-1.7,5.8-2.5,8.7
	C1931.4,1096.9,1930.6,1096.9,1929.8,1096.9L1929.8,1096.9z M681.5,1097.2c8.8-13.7,18.8-26.4,29.7-38.4
	c17.7-19.3,36.1-37.7,57-53.6c1.6-1.2,3.3-2.3,5.6-2.8c-1,1.1-1.8,2.3-2.9,3.3c-15.5,14.8-31.3,29.3-46.6,44.4
	c-14.6,14.4-27.5,30.3-39.2,47.1H681.5z"/>
<path class="st1" d="M1228.8,497.8c0,0-0.3-6.7,3.8-6.7c4.2,0,5.8,3.3,5.8,3.3s5.3,5,2.2,7c-3.1,2-10.9,4-13.2,0
	C1226.8,499.5,1228.8,497.8,1228.8,497.8z"/>
<path class="st1" d="M1271.6,531.3c0,0,2.9-5,6.3-4s5.8,5.7,5.1,7.2s2.8,4-0.7,5.3s-13.3-0.2-13.2-4.7
	C1269.3,530.7,1271.6,531.3,1271.6,531.3z"/>
<path class="st1" d="M1188.2,544c0,0,2.3-3.3,4.7-1.7c2.3,1.7,0.8,4.5,0.8,4.5s5.3,4.8,2.2,8c-3.2,3.2-7.7,2.3-7.7,2.3
	s-2.7,2.2-4.8,0.8c-2.2-1.3,0-4.2,0-4.2s-3.5-2-2-6.8S1188.2,544,1188.2,544z"/>
<path class="st1" d="M1795.3,670.9c0,0-3.5-2.9,0-7.8c3.5-4.9,8.4,0,8.4,0s10.1,5.5,6.5,11.7
	C1806.6,680.9,1795.3,678.7,1795.3,670.9z"/>
<path class="st1" d="M1848.1,691.9c0,0-1.5-7.1,3.3-7.1s3.5,4.9,3.5,4.9s2.6-1.6,4.8,2.3c1.1,2-1.5,4.2-1.5,4.2s3.2,7.8-1.9,8.8
	c-5.2,1-6.8-4.9-6.8-4.9s-4.2,1.9-5.2-1.3C1842.6,693.2,1848.1,691.9,1848.1,691.9z"/>
<path class="st1" d="M1783,754c0,0,2.5-3.7,6.8-2.5s3.5,5.2,3.5,5.2s5.3,2.8,4,6.8s-6.2,2.7-6.2,2.7s0.5,3.2-4.3,2.7
	s-3.8-5.3-3.8-5.3s-5.4-1.2-5.5-4.5C1777.4,755.3,1781,752.8,1783,754z"/>
<path class="st1" d="M1850.5,742.5c0,0,0.8-6.3,5-6.3s4.5,5.5,4.5,5.5s4.3,2.5,4,4.8s-4,3.7-4,3.7s-1.5,5.3-5.2,5.3s-4.3-5-4.3-5
	s-3.7-0.5-3.3-4.7C1847.5,741.7,1850.5,742.5,1850.5,742.5z"/>
<path class="st1" d="M1890.2,808.7c0,0,1.7-4.7,5.7-4.3c4,0.3,3,5.7,3,5.7s5.2,1.7,5,4.7s-4.3,4.7-4.3,4.7s-1,3.7-4.2,3.7
	s-5.2-4.8-5.2-4.8s-4.3-2.2-4.2-4.5S1890.2,808.7,1890.2,808.7z"/>
<path class="st1" d="M1757.8,859.2c0,0,3.3,0,4.5,3.3s-2.3,4-2.3,4s1.1,4.5-2.3,6.2c-3.3,1.7-5.8-1.8-5.8-1.8s-4,1.2-5.2-2.8
	s3-5.3,3-5.3s-1-6.3,2.5-7C1754.8,855.2,1757.8,857.4,1757.8,859.2z"/>
<circle class="st18" cx="1894.9" cy="813.7" r="1.3"/>
<ellipse class="st18" cx="1853.7" cy="694.9" rx="1.8" ry="2.1"/>
<ellipse class="st18" cx="1754.6" cy="864.4" rx="2.1" ry="1.8"/>
<ellipse transform="matrix(0.866 -0.5 0.5 0.866 -124.2333 1027.7058)" class="st18" cx="1855.6" cy="745.7" rx="2.1" ry="1.8"/>
<ellipse transform="matrix(0.9093 -0.4162 0.4162 0.9093 -154.2148 812.9315)" class="st18" cx="1787.6" cy="760.2" rx="1.8" ry="2.1"/>
<ellipse transform="matrix(0.9093 -0.4162 0.4162 0.9093 -115.6009 810.829)" class="st18" cx="1802" cy="670.6" rx="1.8" ry="2.1"/>
<path class="st1" d="M413.5,346.1c8.6,2.2,6.8,8.3,6.8,8.3s5.1-0.3,4.8,4.8c-0.3,5.1-5.8,3.6-5.8,3.6s-2,4.3-5.8,4.6
	c-3.8,0.3-7.1-6.3-7.1-6.3s-5.6-0.4-5.6-4.3c0-5.6,7.9-6.4,7.9-6.4S408.9,345,413.5,346.1z"/>
<path class="st1" d="M341.1,397.7c4.5,0.4,3.8,5,3.8,5s7.1-1.8,7.1,3.6s-6.9,4.2-6.9,4.2s-0.2,4.3-5.2,4.3s-4-6.3-4-6.3
	s-4.8,0.2-4.2-4.1c0.6-4.3,7-2.6,7-2.6S338.3,397.4,341.1,397.7z"/>
<path class="st1" d="M447.9,424.2c0,0-2.3-8.3,2.8-7.4c5.1,0.9,3.8,7.4,3.8,7.4s6.4-1.3,6,3.9c-0.4,5.1-6.6,1.6-6.6,1.6
	s0.7,5.3-3.8,5.3s-2.8-5.5-2.8-5.5s-6.6,2.7-6.2-2.3S447.9,424.2,447.9,424.2z"/>
<path class="st1" d="M316,512.5c0,0-8.1-6.3-2.5-9.1c5.6-2.8,9,4.4,9,4.4s5.2-5.8,8.5-0.5c3.3,5.2-5.1,6.3-5.1,6.3s4.5,4.7,0.2,7.8
	c-4.3,3.2-6.7-3.3-6.7-3.3s-4.4,7.3-7.6,2.2C308.6,515.2,316,512.5,316,512.5z"/>
<path class="st1" d="M485.4,523.4c0,0-8.4,0.6-6.5-4.1c1.8-4.8,7.8-2.3,7.8-2.3s0-6.4,4.8-5c4.9,1.4,0.3,6.6,0.3,6.6
	s5.3,0.3,4.4,4.6c-0.8,4.3-5.9,1.7-5.9,1.7s1.3,6.8-3.3,5.5S485.4,523.4,485.4,523.4z"/>
<path class="st1" d="M436.6,561.3c-1.4,4.2-5.9,2.5-5.9,2.5s0.2,7.1-5.2,6c-5.5-1.1-2.7-7.4-2.7-7.4s-4.3-1.1-3.1-5.8
	c1.1-4.7,7.3-2.5,7.3-2.5s0.9-4.6,5.1-3.1s1,7.2,1,7.2S437.4,558.7,436.6,561.3z"/>
<path class="st18" d="M321.2,511.5c1,0,1.9,0.9,1.9,1.9s-0.9,1.9-1.9,1.9s-1.9-0.9-1.9-1.9S320.2,511.5,321.2,511.5z"/>
<ellipse class="st18" cx="488.7" cy="521.2" rx="2.1" ry="2.5"/>
<ellipse class="st18" cx="427.3" cy="559.7" rx="3.1" ry="2.4"/>
<ellipse transform="matrix(0.866 -0.5 0.5 0.866 -153.1174 282.9369)" class="st18" cx="451.4" cy="427.2" rx="2.6" ry="2.2"/>
<ellipse transform="matrix(0.9093 -0.4162 0.4162 0.9093 -138.0896 178.9802)" class="st18" cx="341.5" cy="406.2" rx="2.5" ry="3"/>
<ellipse transform="matrix(0.9093 -0.4162 0.4162 0.9093 -111.4394 203.994)" class="st18" cx="412.2" cy="357.6" rx="2.7" ry="3.2"/>
</svg>
