<?xml version="1.0" encoding="utf-8"?>
<!-- Generator: Adobe Illustrator 22.1.0, SVG Export Plug-In . SVG Version: 6.00 Build 0)  -->
<svg version="1.1" id="Layer_1" xmlns="http://www.w3.org/2000/svg" xmlns:xlink="http://www.w3.org/1999/xlink" x="0px" y="0px"
	 viewBox="0 0 2175.8 545.5" style="enable-background:new 0 0 2175.8 545.5;" xml:space="preserve">
<style type="text/css">
	.st0{fill:#7BE3FF;}
	.st1{fill:#F2FF7C;}
	.st2{fill:#38E1DA;}
	.st3{fill:#FFFFFF;}
	.st4{fill:#4CB2E5;}
	.st5{display:none;}
	.st6{display:inline;}
	.st7{fill:none;stroke:#FFFFFF;stroke-width:1.1215;stroke-miterlimit:10;}
	.st8{opacity:0.2;fill:#F2FF7C;enable-background:new    ;}
	.st9{fill:#215064;}
</style>
<g id="Layer_2_1_">
	<rect x="-4.1" class="st0" width="2182.8" height="450.3"/>
	<g>
		<circle class="st1" cx="1621.6" cy="327.5" r="81.9"/>
	</g>
	<rect x="-4.1" y="389.1" class="st2" width="2182.8" height="156.4"/>
	<g>
		<g>
			<g>
				<path class="st3" d="M1638.7,416.6c-0.1,0.1-0.6,0.1-1.4-0.1c-0.4-0.1-1-0.2-1.6-0.4c-0.6-0.1-1.3-0.2-2.1-0.4
					c-3-0.6-7.3-1-12.1-0.9c-9.5,0.2-17.1,2.3-17.2,1.7c-0.1-0.3,1.7-1.1,4.8-2c3.1-0.8,7.5-1.7,12.4-1.8c4.9-0.1,9.4,0.6,12.4,1.5
					c0.8,0.2,1.5,0.5,2.1,0.7c0.6,0.3,1.1,0.5,1.5,0.7C1638.4,416.2,1638.8,416.5,1638.7,416.6z"/>
			</g>
		</g>
	</g>
	<g>
		<g>
			<g>
				<path class="st4" d="M647.6,65.7c-0.1,0,0-0.6-0.3-1.3c-0.2-0.4-0.5-0.8-1-1.1s-1.2-0.5-2-0.7c-0.8-0.1-1.7-0.2-2.6,0
					c-0.9,0.2-1.9,0.5-3,0.9c-1,0.4-2.1,1-3.1,1.7c-0.5,0.3-1,0.7-1.6,1.1l-0.6,0.5l-0.8,0.7c-0.5,0.5-1.1,0.9-1.6,1.4
					c0.1-0.6,0.2-1.3,0.3-1.9c0-0.3,0-0.5,0.1-0.8c0-0.3,0-0.5,0-0.7c-0.1-0.5-0.2-0.8-0.3-1.2c-0.3-0.8-0.7-1.5-1.4-2
					c-1.1-1.1-2.6-1.6-4.1-2c-1.5-0.3-3-0.5-4.5-0.5c-2.9,0-5.4,0.7-7.5,1.5c-4.1,1.6-6.3,3.4-6.5,3.2c-0.1-0.1,1.8-2.3,6-4.3
					c2.1-1,4.8-1.8,7.9-1.9c1.6-0.1,3.2,0.1,4.8,0.4c1.6,0.4,3.4,1,4.8,2.4c0.8,0.7,1.4,1.7,1.8,2.7c0.2,0.5,0.3,1,0.3,1.5l0,0l0,0
					l0,0l0,0l0.2-0.1c0.6-0.4,1.1-0.8,1.7-1.1c1.1-0.7,2.3-1.3,3.4-1.7c1.1-0.4,2.3-0.7,3.3-0.9c1.1-0.1,2.1,0,3,0.2s1.7,0.5,2.3,1
					c0.6,0.4,1,1,1.1,1.6C648,65.2,647.6,65.8,647.6,65.7z"/>
			</g>
		</g>
	</g>
	<g id="umbrella_2_">
		<g class="st5">
			<g class="st6">
				<g>
					<path class="st4" d="M331.4,527.4c-0.1-0.1,0.9-2.1,3.2-5.9c2.2-3.8,5.6-9.3,10-16.4c2.2-3.6,4.7-7.5,7.4-11.9
						c2.6-4.4,5.5-9.2,8.6-14.4s6.5-10.8,10-16.7c3.5-6,7.2-12.3,11.1-19c15.5-26.8,33.8-59.5,52.8-97.6c2.3-4.8,4.7-9.6,7.2-14.5
						c1.2-2.5,2.4-4.9,3.7-7.4c1.2-2.5,2.4-5,3.6-7.6c2.4-5.1,4.9-10.2,7.3-15.5s4.8-10.6,7.2-16c2.4-5.4,4.7-10.9,7.2-16.5
						c2.4-5.6,4.7-11.2,7.1-16.9c1.1-2.9,2.3-5.8,3.4-8.7c1.2-2.9,2.3-5.8,3.4-8.8c1.1-2.9,2.3-5.9,3.3-8.9l0.8-2.2l0.4-1.2l0.7-2
						c1-2.8,1.9-5.6,2.9-8.4c4.1,4.2,8.3,8.5,12.5,12.8c1.5,1.6,3.1,3,4.6,4.5c1.6,1.5,3.1,3,4.7,4.5s3.2,3,4.7,4.5
						c1.6,1.5,3.3,2.9,4.9,4.4c3.3,2.9,6.6,5.9,9.9,8.8c3.4,2.9,6.8,5.8,10.2,8.7c3.4,2.9,6.8,5.9,10.4,8.7
						c7,5.8,14.1,11.6,21.3,17.4c28.9,23.1,59.5,46.3,91.4,69.2c4,2.8,8.1,5.7,12.1,8.5c2,1.4,4,2.8,6,4.2c2,1.4,4,2.8,6,4.1
						c4,2.7,8,5.5,12,8.2s8.1,5.3,12.1,8c2,1.3,4,2.6,6,3.9s4,2.5,6.1,3.8c2,1.3,4,2.5,6,3.8l3,1.9l3,1.8c2,1.2,4.1,2.4,6.1,3.6
						s4,2.4,6.1,3.5s4.2,2.2,6.3,3.3l3.1,1.6l2.9,1.6c0.2,0.1,0.2,0.1,0.1,0.3l-0.2,0.4l-0.5,0.7l-0.9,1.4l-0.9,1.4
						c-0.3,0.5-0.6,0.9-0.9,1.4l-1.4,1.9l-1.2,1.4c-0.8,1-1.6,1.8-2.5,2.7c-0.8,0.9-1.7,1.7-2.5,2.6c-0.8,0.8-1.7,1.7-2.6,2.4
						c-3.5,3.2-7.1,6.2-10.7,9.1c-7.3,5.7-14.8,11-22.4,15.9c-15.1,9.9-30.6,18.6-45.9,26.5c-7.7,3.9-15.3,7.7-22.9,11.2
						c-7.6,3.5-15.2,6.9-22.7,10c-15,6.3-29.9,11.9-44.4,16.8c-3.6,1.2-7.2,2.4-10.8,3.6c-1.8,0.6-3.6,1.1-5.3,1.7
						c-1.8,0.5-3.6,1-5.4,1.6c-1.8,0.5-3.6,1.1-5.3,1.5c-1.8,0.4-3.6,0.9-5.3,1.3c-1.8,0.4-3.5,0.9-5.3,1.3
						c-1.8,0.4-3.5,0.8-5.3,1.1c-14,3-27.5,4.9-40.5,6.2c-26,2.5-49.6,2.4-70.2,1.3c-10.3-0.6-19.9-1.4-28.7-2.3
						c-8.8-0.9-16.8-2-24-3.1c-14.4-2.2-25.4-4.4-32.9-6.1c-3.7-0.9-6.6-1.6-8.4-2.1C332.4,527.9,331.4,527.6,331.4,527.4
						c0.1-0.2,4,0.5,11.5,1.8s18.6,3.1,33,4.9c7.2,0.9,15.2,1.7,24,2.5c8.8,0.7,18.3,1.3,28.6,1.7c20.5,0.8,43.9,0.5,69.6-2.2
						c12.8-1.4,26.2-3.4,39.9-6.5c1.7-0.4,3.4-0.8,5.2-1.2c1.7-0.4,3.4-0.9,5.2-1.3c1.7-0.5,3.5-0.9,5.2-1.4s3.5-1,5.2-1.5
						s3.5-1.1,5.3-1.6c1.8-0.6,3.5-1.2,5.3-1.7c3.6-1.1,7.1-2.4,10.7-3.6c14.3-5,29-10.6,43.9-17c7.4-3.1,14.9-6.6,22.4-10.1
						c7.5-3.6,15.1-7.3,22.6-11.2c15.1-7.9,30.3-16.6,45.2-26.4c7.4-4.9,14.8-10.1,21.9-15.7c3.5-2.8,7-5.7,10.3-8.8
						c0.8-0.8,1.7-1.5,2.4-2.3c0.8-0.8,1.6-1.6,2.4-2.4c0.8-0.8,1.5-1.6,2.2-2.5l1.1-1.3l0.7-0.9c0,0,0,0,0-0.1l0,0
						c-2.1-1.1-4.1-2.2-6.2-3.2c-2.2-1.1-4.1-2.3-6.2-3.5c-2.1-1.2-4.1-2.4-6.2-3.6l-3.1-1.8l-3-1.9c-2-1.3-4.1-2.5-6.1-3.8
						s-4.1-2.5-6.1-3.8s-4-2.6-6.1-4c-4-2.7-8.1-5.3-12.2-8c-4-2.7-8-5.5-12.1-8.3c-2-1.4-4-2.8-6.1-4.2c-2-1.4-4-2.8-6-4.2
						c-4-2.8-8.1-5.7-12.1-8.5c-32-22.9-62.7-46.2-91.6-69.5c-7.3-5.8-14.3-11.7-21.4-17.5c-3.5-2.9-7-5.9-10.4-8.8
						s-6.8-5.9-10.2-8.8c-3.3-3-6.7-6-10-8.9c-1.6-1.5-3.3-3-4.9-4.4c-1.6-1.5-3.2-3-4.8-4.6c-1.6-1.5-3.2-3-4.8-4.5
						c-1.6-1.5-3.2-3-4.7-4.6s-3-3.1-4.5-4.7l-0.7-0.7l-0.1-0.1l-0.2-0.2c-0.5,1.5-1.1,2.9-1.6,4.4c-1.1,3-2.3,6-3.4,9
						s-2.3,5.9-3.5,8.8s-2.4,5.8-3.5,8.7c-2.4,5.7-4.8,11.4-7.2,17c-2.5,5.6-4.9,11.1-7.3,16.5c-2.5,5.4-4.9,10.7-7.4,16
						c-2.5,5.2-5,10.4-7.4,15.5c-1.2,2.5-2.4,5.1-3.7,7.6c-1.3,2.5-2.5,5-3.7,7.4c-2.5,4.9-4.9,9.7-7.3,14.5
						c-19.5,38-38.2,70.5-54.2,97.1c-4,6.6-7.8,13-11.4,18.9c-3.7,5.9-7.2,11.4-10.4,16.5c-3.3,5.1-6.3,9.9-9,14.2
						c-2.9,4.3-5.5,8.2-7.8,11.7c-4.7,7-8.3,12.3-10.8,15.9C333,525.7,331.6,527.5,331.4,527.4z"/>
				</g>
			</g>
		</g>
		<g>
			<g>
				<path class="st7" d="M642.7,169.8"/>
			</g>
		</g>
	</g>
	<path class="st8" d="M1564,389.1c0,0-9.7-7.3-14.1,16.4c-3.5,18.7,2.9,9.8,20.7,21.2c16.9,10.8-6.5,26.1,12.7,23.2
		s54.7-16.5,71.1-26.1c16.4-9.5,11.4-20.8,36.8-16.4c25.3,4.4,15.6-18.3,0-18.3S1564,389.1,1564,389.1z"/>
	<path class="st3" d="M1937.5,251.3c9.8-14.7,35.2-15.5,50.7-12.3c4.1-23.7,36.8-34.3,39.2-4.1c8.2-4.1,18.8-4.9,22.1,4.9
		c10.6-3.3,20.3,3.7,28.4,11.1C2031,250.9,1937.5,251.3,1937.5,251.3L1937.5,251.3z"/>
	<path class="st3" d="M288.5,180.2c0-0.4,0.1-0.8,0.1-1.2c0-8.3-6.7-15-15-15h-0.8c-3.4-8.1-11.4-13.4-20.2-13.4h-1.3
		c-4.1-14.2-17.1-24.5-32.6-24.5c-16,0-29.5,11.1-33,26.1c-8.1,2.5-14.1,9.8-14.9,18.6c-1.7-0.5-3.6-0.8-5.4-0.8
		c-7.3,0-13.7,4.1-17,10.1L288.5,180.2L288.5,180.2z"/>
</g>
<g>
	<path class="st9" d="M949.7,189.9c-0.5,0.6-1,1.6-1.4,2.9c-0.2,1.3-0.8,2.6-1.9,3.7c-1,1.4-1.9,3.5-2.7,5.9c-0.5,1.4-1,2.7-1.8,3.5
		c-3,3.4-4.5,9.6-5.9,13.4c-0.8,1.3,0.2,0.6-0.6,1.4c-0.5,0.8-1.1,1.6-1.6,2.6c-1.8,5-2.7,8.6-4.5,12.3c-5,16-8.6,30.5-4,40.8
		c0.6,1.4,0.3,2.6-1,3.4c-1.1,0.8-2.9-0.2-5-2.9c-3.7-5.1-5.6-11-5.9-17.9c-0.3-6.9,1.9-16.2,6.9-27.8c3.4-10.7,9-20.3,13.4-30.7
		c1.8-4.3,3.5-7.5,5.9-11.8c1.4-1.9,2.4-4.2,3.7-6.1c0,0,0.2-0.2,0.2-0.3l-0.2-0.2l1.3-2.9c0,0,0-0.2,0.2-0.2c1.8-3,3.2-6.1,4.6-9.1
		c0.2-0.8-0.5-1.6-1.3-0.5c-2.6,3.2-5.1,6.6-7.8,9.6h-0.8h0.8c-0.8,1.3-2.2,2.9-3.7,4.2c-0.2,0.2-0.2,0.3-0.3,0.3
		c-0.8,1.4-1.6,2.2-2.2,3.4c-0.2,0.5,0.8-0.8,3.2-3.5c2.4-2.9,3.5-4.2,3.4-3.7c-2.4,3.8-6.2,9.6-11.2,17.1s-8.8,13.1-11.5,16.8
		c-5.8,9.8-13.1,18.4-18.7,28.1c-1.1,1.9-1.9,3.4-2.2,4.2c-0.8,3.5-2.6,4.6-5.3,3.2c-1.8-0.8-4.6-3.7-3.8-6.1
		c1.1-6.1,3.2-12.5,5.9-19.4c4.5-10.9,10.1-22.4,15-33.4l2.2-5.3c0.5-0.8,1.1-2.4,2.1-5.1c1.8-3.8,1.6-4.6-0.6-2.6
		c-2.1,2.1-4.8,5.1-8,9.3c-3.2,4.2-6.2,8.3-9.3,12.6l-4.6,6.4c-6.4,9.6-11.7,20-17,29.7c-1.9,3.8-3.4,6.7-4.2,8.6
		c-0.8,1.8-2.2,4.3-4.3,7.7c-0.2,0.5-1.8,0.2-5.1-1c-3.4-1.1-4.3-3-3.2-5.8c0.6-3,2.1-5.4,2.9-8.2c0-0.6,0.3-1.1,0.8-1.8
		c0.2-0.5,0.3-1,0.8-1.3c1.4-4.6,4.5-10.9,6.2-15.5c1.1-5.1,3.4-8.5,4.2-13.6c0-0.2,0.5-1,1.6-2.7c1.1-1.8,1.6-2.7,1.6-3
		c0-1.8,0.2-2.9,0.5-3c0.3-0.2,1-1.3,1.8-3.4c0.8-1.9,2.4-4.3,3-6.7l0.6-1.6c0.6-1.3,1.4-3.4,1.6-4.6c1.9-3.7,2.4-7.2,3.2-11
		c0.5-2.4-0.8-3.2-3.7-2.2c-6.2,2.6-11.4,5.4-15.7,8.8c-1.1,0.8-1.3,0.8-0.6-0.3c0.8-1.1,0.6-1.4-0.2-0.6c-0.6,0.8,0.5,0.5-0.3,1.9
		l-5,4.5c-2.2,2.1-3.8,4-4.6,5.6c-0.3,0.3-0.3-0.3,0.2-1.8c0.5-1.4,0.8-2.4,0.8-2.9c-0.2,0-1.1,4.5-1.8,5.1
		c-7.5,9.8-13.1,20.8-17.8,29.3c-0.5,1.6-1.3,1-2.6-1.9c-1.1-3-1.4-5.6-1-7.7c0.8-1.3,1.3-0.5,2.1-2.6c0.3-0.8,0.2-0.6-0.5,0.5
		s-0.8,1.1-0.6,0.2c0.5-1.8,1.8-4.3,3.7-8l4.2-7.7l0.3-0.2c-0.5,0.2,0.2-0.6,0.2-0.6c1.1-1.1,2.1-2.2,2.9-3.4c0.5-0.8-0.5,1.1,0,0.6
		c0.5-0.6,2.6-4,3.4-4.8l0.6-1.3l2.1-1.6c5.9-5.9,12.8-10.7,20.8-14.4c2.1-0.8,4.6-1.6,7.4-2.4c7.2-1.4,11.8-0.8,13.6,2.2
		s2.1,7.4,0.8,13.1c-1.9,7.7-5.3,15.7-8.3,23.3c-4.5,9-8.5,18.4-12.5,27.2c-0.2,0.6-0.3,1.3-0.3,1.8c1-1.1,1.4-1.6,1.4-1.6
		c4-6.6,7.5-13.3,11.4-20.2c4.2-6.9,8-12.5,11.5-17.1c3.7-4.6,8.3-10.1,14.1-16c2.6-2.9,5.3-3.5,8.3-2.1c3.7,1.8,4.8,4.3,3.4,7.5
		c-0.8,2.7-1.6,4.3-2.2,5.1c-0.5,0.8-1.4,2.4-2.7,5c-4.3,10.9-9.3,21.6-13.6,32.5c-0.2,0.2-0.3,1-0.8,2.4c0.5-0.6,2.4-1,3-1.8
		l1.4-2.1c-0.5,0.5-0.6,1.3-0.8,2.2c0,0-0.2,0.2-0.6,0.6c0,0,0.2-0.2,0.6-0.2c0.8-0.8,1.4-1.9,2.1-2.7c1.8-2.7,3.2-5,4.5-7.7
		c0.3-0.2,1.1-0.8,2.4-2.1c0,0,0-0.5,0-1c-0.5,0.3-0.6,0.5-0.6,0.3c-0.2,0.5-0.8,1.3-1.6,2.7c0,0-0.3,0.2-1,0.6l5.3-7.4v0.2l0.2-0.2
		c0.2-0.2,0.2-0.2,0-0.2l1.8-2.6c0,0.3,0,0.5,0,0.5c0.3,0,0.6-0.2,0.8-0.3c-0.5,0.3-0.2-0.3,0.6-1.9c1.4-1,1.9-1.3,1.6-1.1
		c0,0-0.5-0.2,0-0.3c-0.2,0-0.5,0-0.6,0.2c-0.5,0.5-1,0.8-1,1.3l-1,1.3c6.6-9,13.3-18.6,20.2-27.7c2.2-3.5,4-6.1,5.3-7.7
		c2.1-2.1,5.8-3.8,7.7-1.4c3.4,3,4.5,5.8,3.7,7.8c-0.8,2.1-2.2,5.6-4.6,10.4l-0.5,0.2C951.5,187,950.5,188.9,949.7,189.9z
		 M839.2,207.5c0,0,0,0.3,0.2,0.3c0,0,0.2,0.2,0.2-0.3s0-0.8,0.5-1.6l1.9-3c0.2-0.6,0.6-1.4,0.8-2.1c0.2-0.6,0.8-1.1,1.6-1.6
		c0.2-0.3,0.3-0.5,0.3-0.6c0-0.3,0.3-0.8,0.8-1.3l0.5-0.5c0,0,0.3-0.5,0.5-0.6c0-0.3,0.3-1,1-2.1c0.6-1.1,0-0.5-1.9,1.9l-1.6,1.6
		c-0.2,0.6-0.6,0.8-0.5,1c-0.8,1.4-1.8,2.2-2.4,3.5c-0.6,1.1-1.1,2.2-1.6,3.5c-0.2,0.5-0.3,0.8-0.2,1.3
		C839.2,207,839.2,207.5,839.2,207.5z M864.7,228.3c-0.5,0.2-0.6,0.5-0.6,0.8C864.2,228.6,864.5,228.3,864.7,228.3z M867.7,220.7
		c-1.1,0.6-1.6,1.4-1.8,2.2c0.2,0.2,0.2,0.3,0.3,0.3c0,0.5,0.3,0,0.3,0C866.4,222.7,867.5,221.9,867.7,220.7c0.5-0.3,0.6-1,0.6-1.8
		c0,0,0,0,0.2-0.5c-0.2,0.5-0.2,0.5-0.2,0.5C868.3,219.6,867.7,220.1,867.7,220.7z M870.9,212.7c0,0-0.5-0.5-0.5-0.6
		c0,0.2,0,0.5,0,0.5s-0.2,0.3-0.3,0.8c-0.5,0.5-0.6,1.1-0.5,1.9c-0.2,0.2-0.6,0.5-0.6,0.5l0.6,0.6c0,0,0.2,0,0.2-0.5
		c0,0-0.2-0.5-0.2-0.6c0.3-0.5,0.5-1.1,0.3-1.9L870.9,212.7z M870.7,234c-0.5,0,0,0.2,0,0.2c0,0.2,0.2,0,0.3-0.3
		C871.1,234,870.9,234,870.7,234z M871.7,210.2c0-0.3,0.2-0.5,0.3-0.5c0-0.2,0-0.3,0.2-0.5c-0.2,0.2-0.2,0.3-0.2,0.3
		C871.9,209.7,871.7,209.9,871.7,210.2z M873.8,204.1c1.1-0.6,1.4-1.6,1.3-2.9l0.2-0.3v0.3c-1,0.6-1.4,1.6-1.3,2.9
		c-0.5,0.5-0.6,1.1-0.8,1.8c-0.3,0.2-0.5,0.5-0.6,0.8c0,0,0.2,0.5,0.6,0.5l0.2-0.3c-0.2-0.2-0.2-0.8-0.2-1
		C873.6,205.7,873.8,205.1,873.8,204.1z M878.9,192.7c0,0,0.2-0.2,0.2-0.3C879,192.6,879,192.7,878.9,192.7
		c-0.2,0.8-0.6,1.3-0.5,1.9c-0.2,0.2-0.2,0.2-0.2,0.3v-0.3C878.6,194.3,878.7,193.7,878.9,192.7z M882.4,201.5v-0.3V201l-0.2,0.2
		C882.4,201.2,882.4,201.4,882.4,201.5z M882.6,200.9c0-0.2,0-0.2,0.2-0.3c-0.2,0-0.3,0-0.3,0L882.6,200.9L882.6,200.9z
		 M884.6,194.3h0.2c-0.6,1.4-1.3,2.6-1.8,4c0,0-0.2,0.6-0.5,1.8c0.8-0.5,1.4-0.3,1.9-1c1.3-4,3-8.3,4.8-12.3c0.2-0.3,0.2-0.5,0-0.6
		c0-0.2,0.3-0.8,0.5-1c0.5-1,1-2.4,1.3-4.2c0.2-0.8,0.2-1.3,0.2-1.4c-0.5,0.5-0.6,0.6-0.6,0.8c-0.5,0.8-0.8,1.9-1,3.4
		c-0.3,1-0.5,1.3-0.5,1.1c-0.2,0.2-0.3,0.5-0.3,1l-0.6,0.5L884.6,194.3z M892.2,177.7c0,0,0.2-0.5,0.3-1.4c-0.5,0.5-0.8,0.8-1,0.8
		c-0.2,0.2-0.3,0.8-0.5,1.9L892.2,177.7z M892.5,232.4c0,0,0.3-0.5,0.8-0.6c0-0.2-0.2-0.3-0.3-0.5c0,0.2-0.2,0.3-0.2,0.3
		c-0.5,0.5-0.3,0.8-0.3,1c-0.5,0.2-0.6,0.8-0.8,1.6l-0.6,0.8c0,0,0,0.5,0.2,0.5l0.3-0.3c0-0.2,0.2-0.3,0.2-1
		C891.8,233.7,892.3,233,892.5,232.4z M895.7,224.1c-0.8,1.4-1.6,3.8-2.7,6.9v0.3c0,0,0.6-0.2,0.8-0.3c0.6-2.6,2.2-4.8,2.4-7.2
		c0.3-0.3,0.5-0.5,0.5-0.5c-0.2,0.2-0.2,0.3-0.2,0.5C896,223.9,895.7,223.9,895.7,224.1z M899,216.4c-1.4,1.6-1.8,3-1.3,4.2
		c-0.5,0.5-0.6,1-0.6,1.1c0,0.3-0.2,0.6-0.6,1.1v0.3c-0.2-0.2-0.2-0.2,0-0.3c0.2-0.2,0.5-0.6,0.6-1.1c0-0.2,0.2-0.6,0.6-1.1
		C898.9,219.1,899.2,217.7,899,216.4c-0.2,0.2,0-0.2,0.2-1.3c0.2,0,0.2-0.2,0-0.5c0.2,0.2,0.2,0.5,0.2,0.5L899,216.4z M900.6,227.3
		l-0.2,0.2h0.3L900.6,227.3z M911.7,214.5c0,0,0,0.3-0.2,0.8c-0.2,0.2-0.5,0.6-0.8,1.4L911.7,214.5z M915.4,265.4
		c0,0.5,0.2,0.6,0.8,1.3c0,0,0,0.2,0.2,0.2s0.3-0.2,0.5-0.5c-0.2-1.1-0.3-2.2-0.3-3.4c0.2-1.4,0.2-3.7,0.3-6.7
		c0.2-1.8,0.2-3.4,0.2-4.6c0.2-1.4,0.5-2.6,0.8-3.4c0.2-0.8,0.2-1.3,0.2-1.6c0-0.6,0.3-1.6,1-2.7c0,0,0.2-0.5,0.5-1.4
		c0.5-1.4,0.6-1.9,0.5-1.4c-0.2-0.8-0.2-2.2,0.2-4.5c0.3-2.4-0.5-0.6-2.2,5c-0.6,1.3-1.1,2.7-1.4,4.5c-0.5,0.8-0.6,1.3-0.6,1.8
		c-0.3,1.9-0.6,4.5-0.8,7.5c-0.5,2.6,0.2,5.1-0.3,7.2c0.5,1.3,0.6,2.2,0.6,2.9h-0.2V265.4z M925.3,197.9c0-0.2,0.2-0.5,0.3-1
		c-0.2,0-0.3,0-0.3,0c-0.2,0.2-0.2,0.5-0.2,1H925.3z M948.8,172.3c-0.8,2.1-2.6,4.3-3.8,6.4l0.2,0.3c0.5-0.2,0.6-0.3,0.6-0.3
		c2.4-3,3.7-5.4,3.8-6.9c0,0,0.2-0.2,0.2-0.3c0,0.2,0,0.2-0.2,0.3C948.9,172.3,948.6,172.4,948.8,172.3z"/>
	<path class="st9" d="M962.5,227c1.8-2.2,2.6-3.8,2.7-4.8v0.3c0.8-0.5,0.8-1.3,0-2.2v0.2c1.4-3,3.4-5.8,5.1-8.8l0.2-0.5l3.5-3.7
		c1.1-1.1,1.9-2.6,3.2-4c0.6-0.8,1.3-1,1.9-0.3c2.1,1.4,3.5,2.7,4.3,3.7c0.5,0.6,0.6,1.4,0.5,2.6c0,0.5-0.3,1.8-0.8,3.5l-1,1.6
		c-6.2,8.2-9.9,17.3-13,26.7c-2.1,7.2-4.8,14.1-7.4,21c-0.6,2.6-1.9,4.6-2.7,7c-1.3,3.4-3.2,6.1-5,8.8c-1.8,2.6-4.5,5.1-8.2,7.5
		c-0.6,0.5-2.1,1.1-4.5,1.6c-5,0.8-9.4-0.2-13.6-2.9c-3.5-2.1-6.4-5.1-8.6-9c-1.3-2.1-1.4-4.3-0.5-6.7c0.2,0,0.5-0.5,0.5-0.6
		c0.2,0.2,0.3,0.5,0.3,0.8l0.5,1.9c0.8,4.3,3.7,7.2,8.6,8.6c6.6,1.9,12,0.3,16.3-5c2.7-3.2,5.3-8,7.7-14.2
		c1.9-5.1,3.5-10.7,5.4-16.3c0.8-3,1.9-5.6,3.2-8.6c0,0-0.2-0.3-0.2-1c-0.5,0.5-0.6,0.6-0.6,0.5c-2.1,3-3.4,5.1-3.8,6.2
		c-1.1,2.7-3.5,5.4-7.2,8.2c-2.7,2.1-5.1,1.8-7.4-1.3c-2.1-2.7-3-5.4-3-8.5c0.2-5.9,1.6-11.8,4-17.9c1.9-4.5,4.5-8.5,6.6-13
		c1.3-2.1,2.9-4.6,2.9-7.7c-0.2-0.8,1.1-1,1.8-0.8c2.4,2.2,4.3,4,5.4,5.3c0.8,1,1,2.2,0.3,4c-1.3,3-2.2,5.8-3.5,8.5
		c-1.4,3.2-2.9,5.8-4.2,8.8c-2.6,4-3.8,8.6-5.1,13.1c-0.2,0.2-0.3,1.3-0.5,3.7c0,0.5,0.2,0.8,0.5,0.8c0.5,0.3,1,0.2,1.4-0.3
		c2.2-2.1,4.5-5,6.9-8.6c1.4-2.6,3.2-4.6,5-7.2l-0.2-0.2c0.5,0.8,0.8,0.8,1.1,0l-0.2,0.2l1.1-1.1v0.1L962.5,227L962.5,227z
		 M930.9,281.3h-1c0.5,0.2,0.8,0.3,1,0.3c0.6,0,1.3,0,2.1-0.2C932.1,281.3,931.5,281.3,930.9,281.3z M950.1,271.9c0,0,0-0.2,0-0.3
		c-0.5,0-0.5,0.2-0.5,0.2c0,0.3,0,0.6-0.2,1c-0.2,0.2-0.5,0.6-1,0.8c-3.4,3.2-5.8,5.6-7,7c0,0.2-0.3,0.5-0.5,0.5l0.2,0.3
		c0,0.2,0.2,0.2,0.5,0.2c3.4-2.2,5.6-4.6,6.7-7.2c0,0,0-0.3,0-1c0.2-0.2,0.6-0.3,1.1-1C949.4,272.4,949.6,272.1,950.1,271.9z"/>
	<path class="st9" d="M1034.8,210.8c2.1-4.6,5-9.6,7.7-14.7c2.1-4.5,5.4-8.6,7.5-13.3c3-5.8,5.6-11.5,7.5-17.8
		c1.4-4.8-0.5-6.6-5.6-5.4c-9,2.4-15,8.6-21.3,15.2c-7.7,8.2-10.6,17.6-14.2,27.2c-1.1,2.6-2.7,3.7-4.6,3.5c-3-0.2-4.2-1.6-3.4-4.5
		c2.4-6.4,4-13.1,7.8-18.9c5.3-9.1,12.6-17.6,22.4-23.3c5.9-3.7,11.8-5.3,17.4-4.6c7.5,1.3,12.5,6.1,10.1,14.2
		c-2.1,7.2-5.6,14.2-9,21.1c-5,9.6-10.2,19-15.2,28.6c-4,7.5-7.5,15-10.6,22.2c-1.9,4.6-3.2,8.6-4,11.8c-0.2,0.2,0,0.6,0.3,1.4
		c0.8-0.2,1.4-0.5,1.6-1c4.5-5.8,9.8-11.5,13.4-18.1c6.4-11,12.8-21.3,19.4-32.3c3.7-5.9,7.7-12.8,12.6-18.7
		c2.4-2.1,3.8-0.3,5.6,0.3c3,1.8,3.8,3.5,2.6,5.4c-1.1,1.4-2.2,2.7-3.7,4.2c-4.3,6.9-9.9,15.8-16.6,26.9c-6.7,11-9.3,20-7.5,27
		c0.8,3.7,2.9,4.2,6.6,1.3l13.1-10.7c0.8-0.5,1,1,2.1,0.3c0.2-0.5,0.5-0.8,1-1.4c-2.4,0.5-3.2,0.3-2.1-0.8c1.1-1.1,1.9-2.1,2.1-2.9
		c4.5-7.2,9.8-14.7,13.4-22.5c6.6-14.1,13.8-28.1,13.8-42.9c0-5.1,0.3-9.8-0.2-14.9c0-0.5,0.5-1.4,1.6-2.6c1.1-1.1,2.2-1.4,3.4-1
		l1.1,1.6c2.9,10.7,15.5,36.1,32.1,22.5c2.6,3-0.8,6.9-2.9,8.2c-2.2,1.9-6.4,2.4-12.3,1.4s-10.1-4.2-12.2-9.6
		c-2.1,8.8-5.3,18.1-9.4,27.7l-1,2.9c-1.8,3.8-2.1,4.2-3.5,7.5c-1.1,2.4-2.6,5-3.4,7.5c-1.8,3.8-2.9,6.1-3.7,6.6
		c-0.6,0.5-2.2,2.6-4.8,6.1c-5,7.5-10.2,13.9-17.8,19c-13.4,9-22.4,4.6-26.1-7c-0.6-1.9-0.5-4.3-0.5-6.9c-0.5-0.2-0.6-0.6-0.6-1.3
		c-0.8,0.5-1.3,1-1.4,1.1c-4.5,6.6-8.6,13-12.6,19.4c-1.9,3-4.3,4-7,2.6c-3-1.4-4.3-3.7-4-6.7c0.2-5.3,1.4-11,3.8-17.4
		s5-12.2,7.5-17.4C1031.9,215.1,1033.4,213.2,1034.8,210.8z M1013.6,191.9c0,0.5-0.2,0.6-0.2,1.1c0-0.5,0.6-0.5,0.8-1
		c1.9-3.7,4.6-6.9,4.5-11.2c1.1-1.3,2.4-2.6,3.8-3.8l-0.2-0.3c-1,0.8-2.1,2.2-3.5,4.3C1017.1,184.8,1015,188.1,1013.6,191.9z
		 M1024.4,174.4c0.5-0.6,0.8-1.1,1-1.6l1.1-1.3c0.3-0.3,0.6-0.6,1-0.8l1.8-2.1v-0.2l-1.8,2.1c-0.6,0.6-1,0.8-1,0.8
		c-0.5,0.8-1,1.3-1.1,1.4c-0.8,1.1-1.1,1.6-1,1.4V174.4z M1025.5,234.8l0.2-0.2c0,0,0-0.3,0-0.5
		C1025.5,234.3,1025.5,234.5,1025.5,234.8z M1027.9,229.9c0-0.5-0.2-0.5-0.2-0.6h-0.2c-0.8,0.5-1.1,1.3-1,2.1c0,0,0,0.2,0.2,0.2
		c0,0,0.2,0,0.2-0.2L1027.9,229.9z M1030.2,223c0,0,0.2,0.2,0.3,0.2c0,0.3,0,0.5,0,0.5c0,0.2,0.2,0.3,0.5,0.5c0-0.2,0.3-0.3,0.5-1
		h-0.8h-0.3L1030.2,223z M1031.3,166.4l-0.2-0.2L1031.3,166.4z M1035.3,217.1c0,0-0.2-0.5-0.2-0.6c-0.3,0-0.5,0-0.5,0.2
		c-0.3,0.2-0.6,0.8-0.8,1.8c-0.2,0.3-0.3,0.6-0.8,1c0,0,0.3,0.3,0.5,0.3c0,0,0.2,0,0.2-0.2s0.2-0.5,0.2-1.1
		C1034.7,218.2,1035.1,217.9,1035.3,217.1z M1038.5,210.3c0,0,0,0.2,0.2,0.2s0.3,0,0.3-0.2c0.2-0.6,0.3-1.9,0.8-3.7
		c0,0,0.3,0,0.5-0.5c0-0.2,0-0.3-0.2-0.5c0,0.2-0.2,0.3-0.2,0.3c0,0.3,0,0.5-0.2,0.6C1039.1,207.1,1038.7,208.3,1038.5,210.3z
		 M1041.7,204.3c0.8-1.8,1.4-2.9,1.9-3.5c1.8-1.9,2.2-4.5,3.4-6.6c-0.2,0.2-0.3-0.2-0.3-1c-0.5,0.2-0.6,0.3-0.6,0.5
		c-1.3,1.9-1.9,4.2-3,5.6s-1.3,3.4-1.9,4.8c0,0,0,0.2,0.2,0.2C1041.2,204.3,1041.5,204.3,1041.7,204.3z M1043.5,207.5
		c0,0.5,0,0.3,0,0.3s0.2,0,0.3,0C1043.6,207.6,1043.6,207.5,1043.5,207.5z M1051.8,191.5h0.3c0,0,0.2-0.3,0.3-0.5l-0.2-0.2
		L1051.8,191.5z M1057.1,182.2h-0.2l-0.2,0.2l0.2,0.2C1057.1,182.4,1057.1,182.4,1057.1,182.2z M1079.3,238.8c0,0.2,1.1,0.3,1.1,0.3
		s0.2-0.2,0.3-0.2C1080.6,239,1079.3,238.8,1079.3,238.8z M1090.8,221.7c-0.6,0-0.8-0.2-0.6-0.3c1.8-2.7,3.5-8.6,6.7-12.3l0.6-1.1
		c0.2-0.3,0.2-0.6,0.2-1.1c-1.1,1.4-1.6,2.2-1.6,2.2c-2.4,4-4.3,8.2-6.7,12.5v-0.2c0,0.2-0.5,0.8-1.4,2.2c-1,1.4-1.3,2.1-1.1,2.1
		s1.4-2.4,2.6-3.2c0.5-0.5,1-0.6,1.3-0.6V221.7z M1100.2,201.1c0,0.2,0,0.2,0,0.2c-0.2,0.2-0.2,0.3-0.3,0.3c0,0-0.3,0.5-0.8,1.4
		c-0.2,0-0.2,0-0.2-0.2c0.2-0.5,0.6-0.6,1.1-1.1C1100.1,201.7,1100.2,201.2,1100.2,201.1z M1103.3,191.9v2.2l1.3-2.4l2.1-5.8
		c1.1-5.8,2.1-11.2,3.4-17.1c0,0-0.2-0.3-0.5-1.1c-0.5,0.5-0.6,1-0.6,1.1c-1.4,7.7-3.2,15.4-4.6,22.9
		C1103.7,191.8,1103.4,191.9,1103.3,191.9z"/>
	<path class="st9" d="M1118.8,233.5c-0.8-1.1-1-1.9-0.2-2.6c0-0.2,0.3-0.8,0.8-1.6c3.2-5.3,5.4-11.5,6.7-18.7
		c0.8-5-0.2-9.4-2.7-13.4c-0.5-0.8-1.1-1.9-1.9-3.7c-0.3-0.6-0.3-1.4,0.2-2.6c0.5-1,1-1.1,1.3-0.3c1.1,1.8,3,2.7,5.4,3.2
		c1.4,0.3,2.6,1.3,3.5,2.9c0.8,2.1,1.8,4.8,3,6.9c0.2,0.2,0.2,0.3,0.2,0.8c-0.5,3.2,0.2,6.4-0.3,9.4c-1.6,7.5-5,14.9-9.9,21.8
		l-3.2,4.2c-2.6,3.7-6.4,5.6-10.1,7.5c-2.4,1.1-4.5,0.8-6.6-1.3c-2.7-2.7-4.2-6.1-4-10.4c0.5-6.7,1.9-13.3,4.5-19.8
		c0.6-1.6,1.8-3.8,3.5-6.7c1.4-3,4.3-4.8,7-6.9c0.8-0.6,2.1-0.6,3.7,0l2.4,1.4c1.1,1.1,1.1,2.1,0.3,3.2c-0.8,0.8-1.9,1.9-3.4,3
		c-1.1,1.1-1.6,2.1-1.8,2.9c-0.2,0.5-0.6,1.4-1.8,2.7c-2.7,3.7-4.6,7.7-5.6,12c-1.3,4-2.4,8-2.4,12.3v1.8c0,0.8,0.3,1,1.1,0.8l1.9-1
		c3.4-1.3,5.6-4.6,6.9-7.4c3.7-0.6,5.1,0.8,5.9-2.4c0,0-0.6-0.5-0.8-0.5c-0.5,0-1,0.2-1.4,0.5c-1.1,0.5-1.1,1.9-2.6,1.9h0.4V233.5z
		 M1130.8,210.8c-0.3-0.2-0.6,0-0.8,0.2c-0.3,0.8-0.5,1.1-0.5,1.1c0,1-0.3,2.4-1.1,4.2c-1.1,2.1-1.9,4.5-2.6,6.6
		c0,0.5,0.2,0.8,0.3,0.8c0,0,0.2,0,0.6,0c1.1-0.5,1.8-1.4,2.2-2.7c1-3.8,1.8-6.7,2.4-8.8c0-0.2-0.2-0.3-0.2-1
		C1131.1,211,1130.9,210.8,1130.8,210.8z M1127.6,197.4l0.2-0.2h-0.2V197.4z M1131.3,205.7c0-0.2-0.2-0.3-0.3-0.5
		c0,0-0.2,0.2-0.5,0.6c0,0.5,0.2,0.6,0.3,0.8c0,0.5,0.2,0.6,0.2,0.6l0.3-0.5C1131.3,206,1131.3,205.7,1131.3,205.7z"/>
	<path class="st9" d="M1146.3,230.2c3.2-4.5,6.2-8.6,9.9-13c1.9-2.2,3.8-5.6,5.8-9.9c1.9-4.3,4-8.3,6.4-11.7
		c0.8-1.4,2.1-1.6,3.5-0.5l2.7,2.7c1.1,0.8,1.4,2.1,1.1,3.7l-1.4,2.6c-0.8,0.8-1.6,1.8-2.2,2.9c-1.6,2.2-3,5.8-4.3,10.4
		c-1.1,4.6-0.2,7.8,3,9.3c0.6,0.5,0.8,1,0.5,1.4c-0.5,1-0.8,1.6-1.3,2.1c-0.8,0.8-1.6,1-2.4,0.2c-3.2-1.8-7.7-5.6-8.5-9.4
		c-0.5-1.4-1.3-1.4-2.1-0.2c-1.8,2.4-3.4,4.5-4.8,6.9c-0.8,1.3-2.2,3.4-4.3,6.1c-4.3,5.6-8.2,10.9-11.5,15.7c0,0-0.2,0.2-0.3,0.3
		c-0.6,0.8-0.3,2.6-2.1,2.7c-1.4-1.3-3.5-1-4.6-3.4c0-0.5-0.2-1-0.3-1.3c-0.8-1-1-2.2-0.3-4c1.3-3,2.4-6.2,3.7-9
		c3.4-6.6,6.2-13.6,9.6-20.6l7-15c0.5-1.4,1.3-1.6,2.4-0.8c1.3,1.1,2.4,1.9,3.8,2.6c1.6,1.4,2.2,2.9,1.8,4.5
		c-0.3,0.8-0.8,1.8-1.6,2.9l-9.1,18.2c-1.1,2.4-1.4,4.2-1.3,5c-0.2,0-0.3,0-0.3,0l-0.3,0.2c0.3,0,0.5-0.2,0.5-0.3
		C1145.7,230.8,1146.1,230.3,1146.3,230.2z M1135.6,240.4c0.6-0.2,1-0.6,1-1.8c0.3-0.5,0.5-0.6,0.5-0.6s-0.2-0.3-0.2-0.5
		c0,0.2-0.2,0.3-0.2,0.3c0,0.5,0,0.8-0.2,1c-0.5,0.3-0.8,1-0.8,1.8c-0.5,0.3-0.8,1-0.8,1.9c-0.3,0.2-0.5,0.5-0.6,0.8
		c0,0,0,0.2,0,0.3c0,0,0.3-0.2,0.3-0.3c0,0,0-0.5,0-1C1135.6,242.3,1135.9,241.7,1135.6,240.4z M1138,235.6v-0.2h-0.2L1138,235.6z
		 M1143.4,222.3c2.2-5.3,3.5-8,3.7-8.2c0,0-0.3-0.6-0.3-0.8c-0.2,0.3-0.3,0.5-0.3,0.6C1146.5,214.2,1145.5,217.1,1143.4,222.3
		c-2.1,5.3-3,7.8-3,8c-0.2,0.2-0.5,0.3-0.6,0.6c0,0.2,0,0.6,0,0.6s0.3-0.3,0.5-0.5c0,0,0-0.6,0-0.8S1141.3,227.6,1143.4,222.3z"/>
	<path class="st9" d="M1211.4,200.9c0.3,0,0.6,0.2,1,0.3c0.8,1.1,1.1,2.4,1.1,3.5c0.2,4-0.5,7.5-1.8,10.6c-1.1,3-2.4,5.4-3.7,8
		c-1.4,3.4-3.7,6.2-6.4,9c-1.4,1.4-3.2,2.7-5,3.8c-1.8,1.1-3.4,1.4-5.1,0.8l0.2,0.5c-0.2,0.2-0.2,0.3-0.2,0.6
		c0.5,4.8,1.4,9.6,3,14.2c0.3,1.8,1.8,4.2,4.3,7.4c0,0.2,1,0.5,2.7,0.8c0.6,0,1,0.3,1,1c0,0,0,0.6,0,1.8c-0.5,2.6-1.6,3-3.4,1.6
		c-2.6-1.8-4.3-3.4-5.4-5c-4.5-4.8-6.9-10.6-7.4-17.3c-0.5-1.8-0.5-3.5-0.5-5.6c0-0.5-0.3-1-1.1-1.8c-0.3-0.2-0.6-0.2-0.8,0
		c-0.3,0.2-0.8,0.8-1.3,1.6l-6.9,10.7c-0.8,1.3-1.6,1.6-2.7,1c-1.4-0.5-2.4-1.3-2.7-2.4c-0.8-1.1-1.1-1.6-1-1.4
		c-0.6-0.8-0.8-2.2-0.5-4.2c1.1-1.8,1.8-3.5,2.1-5.3l0.2,0.2c0,0,0.2-0.3,0.2-0.5c0.8-0.2,1-0.6,0.6-1.6c0-0.2,0-0.2-0.2-0.3
		c1.4-4,2.6-6.9,3.2-9l7.2-17.3c3-6.6,6.1-13.6,9.4-20.2c2.1-5,4.6-9.8,7.2-14.7c0.2-0.5,0.6-0.6,1.3-0.5c2.1,0.5,3.8,2.1,5.6,4.8
		c0.5,0.8,0.6,1.4,0.5,1.9c-0.6,2.1-1,3.4-1.1,3.5l-4,7.5c-5.3,9.6-9.4,19.5-13.4,29.1c-1.8,3.4-2.9,5.9-3.7,7.7
		c-0.8,1.9-1.1,3.4-0.8,4.2c-0.2-0.2-0.2-0.2-0.2-0.2c1.8-2.4,3.4-4.8,5.3-7.2c5-6.6,10.9-15.2,16.8-21.6c1.4-1.3,3-1.4,5-0.5
		C1210.4,201.1,1210.9,201.1,1211.4,200.9z M1171.4,234.2c0,0.2,0,0.6,0,0.6c0,0.2-0.2,0.2-0.2,0.2L1171.4,234.2z M1175.4,231.1v0.2
		h0.2L1175.4,231.1z M1176.8,228.7c0.2-0.2,0-0.3-0.2-0.6l-0.5,0.5v0.6c0,0.5,0,0.8-0.2,0.6c0,0,0.2-0.5,0.2-0.6
		C1176.7,228.9,1176.8,228.7,1176.8,228.7z M1187.2,199.5c-0.3,0.2-0.5,0.6-0.5,1.4c0,0.2-0.2,0.2-0.3,0.2c-1.3,1.6-2.2,3.5-3,5.9
		c0,0.5,0.2,0.8,0.2,1.3c-0.8,0.2-1.3,0.8-1.4,1.9c-1.8,4.3-3.5,8.3-5.4,12c0,0.5,0.2,0.8,0.2,0.8c0.3,0,0.5,0,0.6-0.2
		c0.8-1.3,1.1-1.8,1.1-1.4c1.4-3.8,3.2-7.5,4.6-11.2c0-0.6,0.2-1.1,0.3-1.9c2.1-1.9,3.2-4,3.4-6.4c0-0.2-0.2-0.5-0.2-1
		C1187.4,200.7,1187.6,200.3,1187.2,199.5c1.1-0.5,1.8-1.3,1.6-2.4C1187.7,197.4,1187.2,198.2,1187.2,199.5z M1178.1,225.5h-0.2v0.2
		L1178.1,225.5z M1178.4,224.1l0.2-0.2h-0.2V224.1z M1179.7,220.6l-0.2,0.2l0.2,0.2V220.6z M1180.8,217.9l0.2-0.2l-0.2-0.2V217.9z
		 M1181.6,216.3c-0.2,0,0-0.2,0.3-0.6c0,0,0.2-0.3,0.2-0.5c-0.2-0.2-0.2,0-0.2,0.5C1181.8,215.8,1181.6,216.3,1181.6,216.3z
		 M1182.8,213.5l0.2,0.3v-0.3H1182.8z M1184,211.1l0.2,0.3v-0.5L1184,211.1z M1185.8,207.5c0,0,0.8,0.2,0.2-0.5
		C1186,207.1,1185.8,207.5,1185.8,207.5c-0.5,0.3-0.6,1-0.6,1.8c0,0.5-0.2,0.6-0.3,0.5c0,0,0.3-0.3,0.3-0.5
		C1185.6,209.2,1185.8,208.6,1185.8,207.5z M1186.4,231.4c-0.5-0.8-0.2-1.1,0.8-1.1c1.8,0,2.6,0,2.6,0c1.4,0,2.1,0,2.1,0.2
		c0.8-1.3,2.7-0.6,2.9-2.4c0.3-0.5,0.6-0.6,0.8-0.8c3.8-4,5.3-5.4,7.4-10.1c1.4-2.7,3.4-5.9,4-9.8c0.5-1.1,0.6-2.4,1.1-3.8
		c0-0.2,0-0.2-0.2-0.3l-0.2-0.2c-1,0.8-1.6,1.3-2.1,1.4l-0.5,0.8l-4.5,5.3c-2.4,3-6.1,7.5-8.2,10.6c-2.4,3.4-4.2,6.7-6.6,9.9
		c0,0.2,0.2,0.6,0.2,0.6s0.3,0,0.5,0C1186.6,231.6,1186.6,231.6,1186.4,231.4z M1188,203.1c-0.2,0.2-0.3,0.5-0.3,0.5
		c-0.5,0.5-0.8,0.8-0.8,0.8c-0.2,0.2-0.5,0.5-0.5,0.5c0,0.5,0.2,0.6,0.2,0.6c0.2,0,0.3-0.2,0.3-0.3c0,0,0-0.3,0-0.8
		c0,0,0.3-0.3,0.8-0.8C1187.9,203.5,1188,203.3,1188,203.1z M1188.8,201.7l-0.3-0.2v0.2H1188.8z M1189.3,200.1v-0.2h-0.2
		L1189.3,200.1z M1190.1,234.6c2.9-1.3,4.6-2.7,5.4-4.3c1.4-0.6,2.6-1.4,3.4-2.2l0.2-0.3c-0.5,0-0.6,0-0.6-0.2l-2.2,1.1
		c-0.5,0.2-0.6,0.8-0.6,1.6c-0.6,0-1.3,0.3-2.1,1c-1.8,1.1-3,1.9-4,2.4L1190.1,234.6z M1189.8,198.3v0.2h0.3L1189.8,198.3z
		 M1190.1,231.3l-0.3,0.2l0.3,0.2V231.3z M1190.8,196.4c0,0-0.8,0.3-0.2,0.5c0,0,0.2-0.5,0.2-0.6c0.5,0,0.8-0.5,0.8-1.4
		c0.3-0.2,0.5-0.6,0.5-1.6c0.5-0.2,0.8-0.6,0.6-1.8c1-0.2,1.4-1,1.3-2.4c0.5,0,0.6-0.5,0.6-1.4c0.5-0.2,0.6-0.6,0.6-1.6
		c0.2-0.2,0.3-0.5,0.3-0.6c-0.2,0.5-0.3,0.6-0.3,0.6c-0.6,0.2-0.8,0.8-0.6,1.6c-0.8,0.3-1,0.8-0.5,1.4c-1.3,0.6-1.8,1.4-1.4,2.4
		c-0.5,0.3-0.6,1-0.6,1.8c-0.6,0.3-0.8,0.8-0.5,1.6C1191.1,195,1190.8,195.5,1190.8,196.4z M1196.2,184.1l0.2-0.2h-0.2V184.1z
		 M1196.7,182.4l0.2,0.2v-0.2H1196.7z M1197.9,179v0.2h0.2L1197.9,179z M1204.5,221.5c1.6-2.1,2.4-4,2.2-6.1c0.5-1,0.8-1.3,0.8-1.1
		c1-2.4,1.9-5.1,2.9-8.2c0,0-0.2-0.5-0.2-0.6c-0.3,0.3-0.5,0.5-0.5,0.3c-0.8,2.1-1.8,4.5-2.4,6.9c-0.5,1.1-0.8,2.1-0.6,2.7
		c-1,1-1.4,1.3-1.3,1.1L1204.5,221.5c-0.5,0.2-0.6,0.6-0.6,1.4c-0.5,0.2-0.6,0.5-0.8,0.8c-1.3,0.8-2.1,1.6-2.2,2.6
		c0,0.3,0.2,0.5,0.3,0.5c0,0.5,0.2,0.5,0.5,0c0.8-1,1.3-1.9,1.4-3c0.2-0.3,0.3-0.6,0.8-0.8C1204.3,222.8,1204.5,222.3,1204.5,221.5z
		"/>
</g>
<path class="st3" d="M1294.5,473.1c-11-1.3-23.2-2.5-36-2.6c-12.8,0-24.9,1.5-35.9,3"/>
<path class="st3" d="M1117.1,494.4c3-0.3,6.2-0.4,9.4-0.5c3.3-0.1,6.7,0.1,10.1,0.1"/>
<g>
	<g>
		<g>
			<path class="st3" d="M728.7,488.9c0-0.1,1.9,0.1,5.3,0.5c3.4,0.4,8.3,0.9,14.4,1.3c6.1,0.3,13.3,0.6,21.3-0.4c2-0.3,4-0.6,6-1.1
				s4-1.2,5.9-2.1c1.9-0.9,3.7-2.1,4.9-3.8c0.3-0.4,0.6-0.9,0.9-1.3c0.3-0.4,0.4-0.9,0.6-1.4c0.1-0.2,0.2-0.5,0.3-0.8
				s0.2-0.6,0.4-0.9c0.1-0.3,0.3-0.6,0.5-0.8c0.2-0.3,0.3-0.5,0.5-0.8c1.5-2.1,3.5-3.5,5.6-4.6s4.2-1.9,6.4-2.6
				c4.3-1.3,8.6-1.9,12.6-2.4c8.1-0.8,15.4-0.7,21.6-0.5c6.1,0.2,11.1,0.7,14.5,1.1c3.4,0.4,5.3,0.8,5.2,0.9c0,0.1-1.9,0-5.3-0.1
				c-3.4-0.2-8.3-0.4-14.4-0.5c-6.1,0-13.4,0-21.3,0.9c-4,0.5-8.1,1.2-12.3,2.4c-2.1,0.6-4.1,1.4-6,2.4s-3.7,2.4-4.9,4.1
				c-0.2,0.2-0.3,0.4-0.4,0.7c-0.1,0.2-0.3,0.4-0.4,0.7c-0.1,0.2-0.2,0.5-0.3,0.7s-0.2,0.5-0.3,0.8c-0.3,0.6-0.5,1.2-0.8,1.7
				s-0.7,1.1-1,1.5c-1.5,2-3.6,3.3-5.6,4.3c-2.1,1-4.2,1.7-6.3,2.2s-4.2,0.8-6.2,1.1c-8.1,0.9-15.5,0.5-21.6,0s-11-1.3-14.4-1.9
				C730.5,489.5,728.7,489,728.7,488.9z"/>
		</g>
	</g>
</g>
<path class="st3" d="M1055.8,408.5c2.6,0.3,5.2,0.6,7.6,1c4.8,0.8,9,1.7,12.6,2.3"/>
<path class="st3" d="M1016.4,424.6c-2.9-0.7-6-1.4-9.2-1.7c-1.6-0.1-3.2-0.2-4.8-0.1"/>
<path class="st3" d="M242,452c7.6-1.8,16.2-3,25.3-3.1c9-0.1,17.7,0.9,25.3,3"/>
<path class="st3" d="M76.6,493.3c-3.6,0.3-8.5-0.1-13.8-1.3c-10.6-2.5-18.3-6.7-18-7.2"/>
<path class="st3" d="M2131.6,428.8c-2.7,0.7-5.5,1.5-8.5,2.3s-6.3,1.5-9.7,2.1"/>
</svg>
