<?xml version="1.0" encoding="utf-8"?>
<!-- Generator: Adobe Illustrator 22.0.1, SVG Export Plug-In . SVG Version: 6.00 Build 0)  -->
<svg version="1.1" id="Layer_1" xmlns="http://www.w3.org/2000/svg" xmlns:xlink="http://www.w3.org/1999/xlink" x="0px" y="0px"
	 viewBox="0 0 2175.8 545.5" style="enable-background:new 0 0 2175.8 545.5;" xml:space="preserve">
<style type="text/css">
	.st0{fill:#A9F7F5;}
	.st1{fill:#49D33B;}
	.st2{fill:#35C81E;}
	.st3{fill:#549D3D;}
	.st4{fill:#6FE192;}
	.st5{fill:#437F17;}
	.st6{fill:#58CB71;}
	.st7{fill:#FFFFFF;}
	.st8{fill:#4CB0B1;}
	.st9{fill:#507575;}
</style>
<path class="st0" d="M1.4-549.9h2175.9V569.5H1.4V-549.9z"/>
<path class="st1" d="M802,719.6c4.7-7.6,12.6-13.7,19.6-20.1c28.8-26.5,58.9-52.2,91.8-76.1c47.9-34.9,101.4-64.1,160.4-88.1
	c135.4-55.2,279.5-94,430.2-119.9c78.5-13.5,158-23.3,238.1-30.6c44.9-4.1,89.8-7.5,135.1-8.9c16-0.5,32.1-1.7,48.1-1.2
	c14.3,0.5,91.4-0.4,109.9-0.1c44.5,0.8,88.8,3.8,133,7.7c4,0.3,8,0.8,12,0v337.3L802,719.6L802,719.6z"/>
<path class="st2" d="M0.3,644.3c0.9-2.9,0.5-5.9,0.5-8.9V291c0-9.3-2.1-9.1,11.2-11.1c20.1-2.9,40.5-4.5,60.8-6.1
	c35.8-2.8,71.6-4.7,107.6-4.8c19.5-0.1,39-0.3,58.5,0.5c23.9,0.9,47.8,2.8,71.6,4.1c17.8,1,35.6,2.4,53.3,3.9
	c29.7,2.5,59.2,6,88.6,10.3c87.6,12.9,172.1,34.8,254,63.6c78.1,27.4,152.1,61.2,221.5,102.1c37.8,22.2,75,45.1,110,70.3
	c30,21.7,58.1,45,83.8,70.3c14.8,14.6,29.3,29.4,42.9,44.8c1.5,1.7,3.3,3.4,4.2,5.5C779.4,644.3,389.9,644.3,0.3,644.3L0.3,644.3z"
	/>
<path class="st3" d="M431.6,549.8c-2-11.1-3.7-22.2-4-33.5c-0.7-29.1,6.7-56.3,18.7-82.6c9.1-20.1,20.8-38.7,32.9-57.1
	c13.2-20,27.1-39.4,39.9-59.6c6.5-10.3,12.4-20.9,18.3-31.4c1.1-2,2.2-4,3.6-5.8c2.1-2.7,3.9-2.4,5.4,0.9c0.2,0.5,0.3,1,0.5,1.5
	c2.9,11,7.8,21.1,13.1,31c12.9,24.3,21.2,50.2,24.1,77.6c3.3,30.9-1.1,60.6-14,89c-10.7,23.6-24.2,45.2-41,64.9
	c-1.3,1.6-3.2,2.9-3.5,5.1H431.6L431.6,549.8z M1481.4,551.9c-1-2.2-2.9-3.7-4.5-5.3c-11.1-11.7-21.7-24-30.4-37.7
	c-15.4-24.4-23.5-51-25-79.8c-1.6-29,1.6-57.5,9-85.5c0.5-1.8,1-3.7,1.8-5.4c1.4-3.3,3.3-4.1,6.7-3c3.4,1.1,6.4,2.9,9.4,4.8
	c17.7,11.8,31.8,26.8,42.4,45.2c13.2,22.9,21.4,47.6,26.5,73.4c3.4,17.2,5.5,34.5,5.2,52.1c-0.2,12.3,7.8,23,6.1,35.2
	c-0.2,1.5-0.3,12.2,0,13.7C1515.9,559.6,1494,551.9,1481.4,551.9z M2038.4,550.4c7.9-26.6,23.9-48.2,42.2-68.4
	c17.1-18.9,37.1-34.4,58.7-47.8c9.9-6.2,19.9-12.2,29.9-18.4c1.9-1.2,3.7-2.6,5.6-3.9v138.5L2038.4,550.4L2038.4,550.4z"/>
<path class="st4" d="M467.5,549.8c2-3.5,3.7-7.2,6-10.5c10.8-16,21.4-32.2,30.2-49.5c12.9-25.4,22.3-52,29.2-79.6
	c1.3-5.1,2.6-10.2,4-15.3c0.4-1.6,1-3.2,2.3-4.6c-0.1,1.2-0.2,2.4-0.5,3.5c-7.7,36-18.7,70.7-36.4,103.2
	c-7,12.8-14.7,25.2-23.1,37.2c-3.6,5.2-7.2,10.4-10.8,15.7C468.2,549.8,467.8,549.8,467.5,549.8L467.5,549.8z M1498.1,550
	c-2.6-4.7-5.1-9.4-7.7-14.1c-10.1-18.7-17.7-38.4-24.8-58.4c-4.6-13-9-26.1-13.4-39.2c-0.6-1.8-1-3.7-0.7-5.9
	c2.2,6.2,4.5,12.4,6.7,18.6c7.8,22.2,15.5,44.5,25.4,65.9c4.5,9.7,9.7,19,14.5,28.5l2.1,4.5C1499.6,550,1498.8,550,1498.1,550z"/>
<path class="st5" d="M1525.1,550c-4.1-7-8.7-13.6-12.8-20.5c-6.6-10.9-11.6-22.4-16-34.3c-6.4-17.1-10.5-34.7-10.1-53
	c0.3-17.1,4.6-33,15.5-46.6c8.3-10.3,18.7-17,31.9-18.6c8.5-1,16.5,1.4,23.8,5.6c10.7,6.3,18.1,15.9,23.7,26.9
	c8.5,16.4,11.7,34.2,13.6,52.3c2.8,25.5,1.9,51,0.5,76.5c0,0.7,0,1.4,0.5,2.2c0.4-1,0.9-2,1.1-3c3.5-18.3,7.1-36.6,12-54.6
	c5.2-19.4,11.1-38.6,20.8-56.2c12.6-22.9,29.6-41.7,52.9-54.3c12.5-6.8,25.9-9.6,39.8-7c14.1,2.6,23.3,11.5,28,25.1
	c2.5,7.4,2.9,14.9,2,22.4c-0.9,7.8-3.2,15.5-6,22.9c-8.7,22.4-21.9,41.8-38.7,59.1c-17.5,18-35.6,35.5-53.2,53.4
	c-0.5,0.5-0.7,1.2-1.1,1.8C1610.5,550,1567.8,550,1525.1,550L1525.1,550z M1938.6,549.6c-0.3-13.3,1.3-26.5,3.5-39.6
	c2.4-14.6,6.1-29,11.1-43c10.2-28.4,23.9-55,41.8-79.3c16.8-22.6,35.7-43.3,59.2-59.3c7.1-4.8,14.8-8.6,22.6-12
	c4.9-2.1,7.2-0.2,6.8,5.2c-1.5,17-2.7,34.1-4.5,51.1c-1.8,16.8-4.6,33.5-9.1,49.9c-10.7,39.6-30.8,74.2-55.6,106.4
	c-4.3,5.5-8.7,10.9-13.1,16.3c-1.1,1.3-2.4,2.5-2.9,4.3H1938.6z M0.4,551.5c0-36.3,0.1-72.7-0.1-109c0-5.3,1.5-9.6,4.4-14
	c15.3-23.2,34.7-42.7,55.9-60.6c16.2-13.8,33.1-26.9,47.9-42.2c10.1-10.4,20.1-21,27.1-33.8c0.4-0.7,0.9-1.1,2.1-1.3
	c1.4,1.5,0.6,3.2,0.3,4.9c-1.4,7.1-2.8,14.1-4.4,21.1c-2.3,10-3.9,20.1-4.9,30.3c-2,19.1-3.5,38.3-5.9,57.4
	c-1.7,13.5-5.2,26.8-8.6,40.1c-3.1,11.7-6.8,23.1-11.9,34.1c-8.3,18-20,33.8-33.1,48.7c-7.5,8.4-15.6,16.3-23.4,24.4
	C30.7,551.5,15.5,551.5,0.4,551.5L0.4,551.5z M477,549.8c-28.9-26.7-53.4-57.1-75.9-89.3c-11.2-16-19-33.6-22.7-52.8
	c-2.2-11.5-3-23-0.4-34.5c2.6-11.4,8.2-20.7,19.1-25.6c10.3-4.6,21-3.6,31.2,0.7c14.1,6,24,16.8,32.8,28.8
	c11.1,15.1,19.1,31.8,26.2,49.1c6.9,16.7,12.9,33.7,17.9,51.1c3.7,13,5.9,26.4,7.3,39.8c1.2,10.8,2.1,21.7,2.4,32.6
	C502.3,549.8,489.7,549.8,477,549.8L477,549.8z M563.6,549.8c3.4-8.5,6.1-17.2,9.8-25.5c10.7-24.3,23.7-47,42.8-65.9
	c15.5-15.3,33.7-25.9,55-30.4c10.5-2.2,21.3-3,31.7,1.1c16.5,6.4,21.7,21.3,15.9,37.6c-4.9,13.9-14.1,25-24.3,35.3
	c-15.8,15.9-33.7,29.1-51.5,42.6c-2.2,1.7-4.8,2.9-6.5,5.3C612.2,549.8,587.9,549.8,563.6,549.8z"/>
<path class="st6" d="M1627.3,550c1.4-4.6,2.5-9.2,4.2-13.7c1.5-4.1,2-8,1.7-12.3c-1-13.1-0.4-26.1,1.2-39.1
	c1.1-8.8,2.4-17.5,3.6-26.2c0.1-0.9,0.4-1.7,1.6-2.5c-0.1,2.9-0.2,5.9-0.4,8.8c-1.2,15.6-2.6,31.2-3.7,46.7c-0.2,3,0.1,6.1,1.3,9.3
	c0.6-1,1.3-1.9,1.8-3c5.3-11.4,10.6-22.7,15.6-34.1c1.5-3.5,2.5-7.3,2.9-11.1c2.1-20.2,6.2-40,11.8-59.5c0.1-0.5,0.5-1,1.1-1.4
	c-3.2,19.9-8.4,39.5-10.1,60.7c1.3-1.7,2.1-2.8,2.9-3.9c7-10.6,14-21.2,20.9-31.9c1.2-1.9,2.1-4.3,2.7-6.5c1.9-7.3,3.5-14.7,5.3-22
	c0.6-2.3,1.5-4.5,3.1-6.5c-1.8,8.3-3.6,16.5-5.4,24.8l1.2,0.6c7.6-8.1,13.7-17.7,22.2-25.1c-4.8,9-12,16.4-18.4,25.9
	c6.3-1.6,10.9-4.6,15.9-6.4c4.9-1.8,9.8-3.7,14.7-5.5c0.2,0.4,0.3,0.8,0.5,1.2c-1.6,0.7-3.1,1.5-4.7,2.2c-9,4.1-18.1,8.1-27.1,12.3
	c-2.1,1-4.3,2.5-5.5,4.3c-7.4,11-14.6,22.1-21.9,33.2c-0.3,0.4-0.3,1-0.9,2.9c14.4-9.3,27.3-19.2,42.5-25c-1.1,0.8-2.2,1.6-3.3,2.3
	c-13.7,8.3-27.3,16.8-39.5,27.2c-4.1,3.5-7.6,7.4-9.9,12.4c-4.3,9.8-8.8,19.4-13.2,29.1c-0.7,1.5-1.1,3-2.1,5.8
	c2.1-1.2,3.3-1.8,4.4-2.5c10.5-7.1,21-14.3,31.5-21.4c2.4-1.6,5-2.7,7.5-4c0.2,0.4,0.5,0.7,0.7,1.1c-2.3,1.7-4.6,3.3-6.9,5
	c-12,8.5-24,17.1-36,25.5c-3,2.1-5,4.8-6.3,8.2c-1.7,4.7-3.4,9.3-5.1,14C1628.8,550,1628.1,550,1627.3,550L1627.3,550z M1.6,527.8
	c5.3-7.6,10.8-15,13-24.5c4-17.5,8.5-34.9,12.9-52.4c0.8-3.3,2-6.5,3.6-9.6c-4.5,20.4-10,40.5-12.9,61.4c4.8-6.5,9.6-12.9,14.2-19.5
	c1.3-1.9,1.7-4.3,2.4-6.6c5.6-18.8,11.2-37.6,16.8-56.3c0.5-1.8,1.3-3.6,2-5.3c0.4,0.1,0.7,0.2,1.1,0.4c-5.7,19.9-11.3,39.9-17,59.8
	c0.4,0.4,0.9,0.7,1.3,1.1c0.3-0.8,0.5-1.8,1-2.5c6.1-8.2,12.4-16.3,18.4-24.6c1.4-2,2.2-4.5,2.8-6.9c4-14.4,7.8-28.8,11.7-43.2
	c0.9-3.3,2.1-6.5,3.1-9.7c0.4,0.1,0.7,0.2,1.1,0.3c-4.2,16.3-8.4,32.5-12.6,48.8c0.4,0.2,0.7,0.3,1.1,0.5
	c14.2-19.9,24.9-41.8,36.4-63.3c0.1,7.2-13.1,32.5-33,65.6c5-4.1,9.9-8.2,14.9-12.2s10.1-8,15.9-11.3c-0.8,0.9-1.5,2-2.5,2.8
	c-10.3,8.7-20.7,17.3-30.9,26.1c-2.7,2.3-5.3,4.9-7.6,7.6c-4.8,6-9.3,12.1-13.3,18.8c9.2-6.5,18.4-12.9,27.6-19.4
	c0.2,0.2,0.4,0.5,0.6,0.7c-0.8,0.8-1.5,1.7-2.4,2.3c-9.7,7.2-19.4,14.4-29,21.6c-1.9,1.4-3.9,2.7-5.3,4.5
	c-6.9,8.9-13.7,18-20.1,27.5c4.5-1.6,8.3-4.3,12.3-6.7c4-2.4,8-4.9,12-7.2c4.1-2.4,8.3-4.8,13-6.4c-0.9,0.7-1.7,1.4-2.7,2.1
	c-11,7.1-22.1,14.2-33,21.4c-5.1,3.4-9.5,7.5-12.2,13.3c-0.9,1.9-1.3,4.8-4.7,4.2L1.6,527.8L1.6,527.8z M498.1,549.8
	c-3.8-11.5-7.4-23.1-11.5-34.5c-1.1-3-3.2-5.8-5.5-8.2c-12.3-13.2-26.4-24.3-40.7-35.1c-1.8-1.4-3.6-2.8-5.1-4.6
	c3.1,0.7,5.5,2.7,8,4.5c2.6,1.9,5.1,3.8,7.6,5.7c2.7,2,5.3,4,8,6.1c2.6,2.1,5.2,4.3,7.7,6.4c2.4,2.1,4.8,4.1,7.1,6.3
	c2.4,2.3,4.8,4.6,8.1,7.8c-0.4-2.2-0.5-3.3-0.9-4.3c-6.7-16.3-13.9-32.4-23.6-47.1c-4.8-7.4-11.5-13.8-18-19.8
	c-5.8-5.3-12.7-9.4-19.1-14c-1-0.7-2-1.3-2.8-2.4c2.8,0.4,5.2,1.9,7.5,3.3c2.5,1.6,5.1,3.2,7.5,4.9c2.4,1.7,4.8,3.5,7.2,5.4
	c2.3,1.8,4.5,3.7,7.4,4.9c-7.4-11.8-14.8-23.6-22.3-35.4l0.9-0.6c9.1,11.5,16.4,24.4,25.6,36c-2.4-9.3-4.7-18.5-7.1-27.8
	c0.4-0.1,0.8-0.2,1.2-0.4c0.7,2.4,1.5,4.8,2.2,7.2c1.4,4.9,2.6,9.9,4.1,14.7c3.2,10.6,7.3,20.8,12.9,30.5
	c6.1,10.8,11,22.4,16.5,33.6c0.5,1.1,1,2.1,2,3.1c-1.6-15.5-2.3-30.9-0.9-46.4c0.5,8.2,0.9,16.5,1.6,24.7c1,11,2.4,22,3.7,33
	c0.2,1.6,0.7,3.1,1.2,4.6c4,12.6,8,25.1,12,37.7C499.5,549.8,498.8,549.8,498.1,549.8L498.1,549.8z M1567.7,550
	c-1-4.9-1.6-9.8-3-14.6c-0.8-2.7-2.4-5.5-4.4-7.5c-10.1-10.2-20.4-20.2-30.6-30.3c-2.4-2.4-4.9-4.7-6.9-7.4
	c13.7,10.7,26.4,22.5,39.2,34.8c-0.5-1.8-0.8-3.7-1.4-5.5c-4.7-14.3-9.4-28.7-14.4-42.9c-1.1-3-3-6-5.3-8.2
	c-5.5-5.4-11.4-10.4-17-15.4c3,0.5,3.7,0.9,8.7,4.9c2.8,2.3,5.6,4.6,9.1,6.5c-3.9-11-7.7-21.9-11.6-32.9c0.4-0.2,0.9-0.3,1.3-0.5
	c4.9,10.4,8.2,21.5,13.6,31.8c0.6-6.6,1.2-13.3,1.8-19.9c0.3,0,0.6,0,0.9,0.1c0,7.2,0.1,14.3,0,21.5c-0.1,5.6,0.9,10.9,2.7,16.2
	c3.9,11.1,7.5,22.3,11.2,33.5c0.6,1.7,1.2,3.4,2.2,5c2.8-18.5,6.2-36.8,11.5-54.7c0.4,0.1,0.8,0.2,1.2,0.2
	c-0.9,4.4-1.8,8.9-2.7,13.3c-2.1,11.2-4.3,22.4-6.2,33.6c-1.7,9.9-1.6,19.8,1.1,29.6c0.8,2.8,0.9,5.8,1.3,8.7
	C1569.2,550,1568.4,550,1567.7,550L1567.7,550z M1961.7,549.6c3.8-13.2,7.5-26.6,11.6-39.7c5.8-18.7,12.9-37,22.1-54.3
	c10.2-19.1,21-37.9,32.2-56.4c7.4-12.2,15.9-23.8,24-35.6c1.2-1.8,2.8-3.4,4.9-5.9c0.3,3.5-1.3,5-2.3,6.6
	c-7.5,11.4-15.1,22.7-22.5,34.1c-12,18.5-23.1,37.5-33.1,57.1c-14.1,27.7-24.3,56.8-32.5,86.7c-0.7,2.5-1.4,5-2.2,7.5
	C1963.1,549.6,1962.4,549.6,1961.7,549.6L1961.7,549.6z M592.1,549.8c7.6-11.9,16.3-23,25.8-33.3c15.3-16.7,31.4-32.8,49.5-46.5
	c1.4-1,2.8-2,4.8-2.4c-0.8,0.9-1.6,2-2.5,2.8c-13.5,12.8-27.2,25.5-40.4,38.6c-12.7,12.5-23.8,26.3-34,40.9
	C594.2,549.8,593.2,549.8,592.1,549.8L592.1,549.8z"/>
<path class="st7" d="M1865.4,248.9c0-0.4,0.1-0.8,0.1-1.2c0-8.3-6.7-15-15-15h-0.8c-3.4-8.1-11.4-13.4-20.2-13.4h-1.3
	c-4.1-14.2-17.1-24.5-32.6-24.5c-16,0-29.5,11.1-33,26.1c-8.1,2.5-14.1,9.8-14.9,18.6c-1.7-0.5-3.6-0.8-5.4-0.8
	c-7.3,0-13.7,4.1-17,10.1L1865.4,248.9L1865.4,248.9z"/>
<path class="st8" d="M392.4,175.8c2.9-4.9,7.2-6.9,13-6.2c5.6,0.7,8.6,4.8,12,9.6c2.1-2.3,3.7-4.6,5.7-6.2c6.8-5.6,15.3-3.2,18.6,5
	c0.4,1,1,2.2-0.2,2.9c-1.3,0.7-1.9-0.7-2.5-1.5c-6.5-8.3-10-8.5-17.1-0.7c-1.3,1.5-2.5,3.1-3.8,4.6s-2.5,1.3-3.4-0.3
	c-0.6-1.1-1-2.3-1.6-3.5c-3.9-7.9-10.5-9.8-18-5.2C394.2,174.8,393.6,176,392.4,175.8L392.4,175.8z"/>
<path class="st9" d="M1014.2,189.9c-0.5,0.6-1,1.6-1.4,2.9c-0.2,1.3-0.8,2.6-1.9,3.7c-1,1.4-1.9,3.5-2.7,5.9c-0.5,1.4-1,2.7-1.8,3.5
	c-3,3.4-4.5,9.6-5.9,13.4c-0.8,1.3,0.2,0.6-0.6,1.4c-0.5,0.8-1.1,1.6-1.6,2.6c-1.8,5-2.7,8.6-4.5,12.3c-5,16-8.6,30.5-4,40.8
	c0.6,1.4,0.3,2.6-1,3.4c-1.1,0.8-2.9-0.2-5-2.9c-3.7-5.1-5.6-11-5.9-17.9c-0.3-6.9,1.9-16.2,6.9-27.8c3.4-10.7,9-20.3,13.4-30.7
	c1.8-4.3,3.5-7.5,5.9-11.8c1.4-1.9,2.4-4.2,3.7-6.1c0,0,0.2-0.2,0.2-0.3l-0.2-0.2l1.3-2.9c0,0,0-0.2,0.2-0.2c1.8-3,3.2-6.1,4.6-9.1
	c0.2-0.8-0.5-1.6-1.3-0.5c-2.6,3.2-5.1,6.6-7.8,9.6h-0.8h0.8c-0.8,1.3-2.2,2.9-3.7,4.2c-0.2,0.2-0.2,0.3-0.3,0.3
	c-0.8,1.4-1.6,2.2-2.2,3.4c-0.2,0.5,0.8-0.8,3.2-3.5c2.4-2.9,3.5-4.2,3.4-3.7c-2.4,3.8-6.2,9.6-11.2,17.1s-8.8,13.1-11.5,16.8
	c-5.8,9.8-13.1,18.4-18.7,28.1c-1.1,1.9-1.9,3.4-2.2,4.2c-0.8,3.5-2.6,4.6-5.3,3.2c-1.8-0.8-4.6-3.7-3.8-6.1
	c1.1-6.1,3.2-12.5,5.9-19.4c4.5-10.9,10.1-22.4,15-33.4l2.2-5.3c0.5-0.8,1.1-2.4,2.1-5.1c1.8-3.8,1.6-4.6-0.6-2.6
	c-2.1,2.1-4.8,5.1-8,9.3s-6.2,8.3-9.3,12.6l-4.6,6.4c-6.4,9.6-11.7,20-17,29.7c-1.9,3.8-3.4,6.7-4.2,8.6c-0.8,1.8-2.2,4.3-4.3,7.7
	c-0.2,0.5-1.8,0.2-5.1-1c-3.4-1.1-4.3-3-3.2-5.8c0.6-3,2.1-5.4,2.9-8.2c0-0.6,0.3-1.1,0.8-1.8c0.2-0.5,0.3-1,0.8-1.3
	c1.4-4.6,4.5-10.9,6.2-15.5c1.1-5.1,3.4-8.5,4.2-13.6c0-0.2,0.5-1,1.6-2.7c1.1-1.8,1.6-2.7,1.6-3c0-1.8,0.2-2.9,0.5-3
	c0.3-0.2,1-1.3,1.8-3.4c0.8-1.9,2.4-4.3,3-6.7l0.6-1.6c0.6-1.3,1.4-3.4,1.6-4.6c1.9-3.7,2.4-7.2,3.2-11c0.5-2.4-0.8-3.2-3.7-2.2
	c-6.2,2.6-11.4,5.4-15.7,8.8c-1.1,0.8-1.3,0.8-0.6-0.3c0.8-1.1,0.6-1.4-0.2-0.6c-0.6,0.8,0.5,0.5-0.3,1.9l-5,4.5
	c-2.2,2.1-3.8,4-4.6,5.6c-0.3,0.3-0.3-0.3,0.2-1.8c0.5-1.4,0.8-2.4,0.8-2.9c-0.2,0-1.1,4.5-1.8,5.1c-7.5,9.8-13.1,20.8-17.8,29.3
	c-0.5,1.6-1.3,1-2.6-1.9c-1.1-3-1.4-5.6-1-7.7c0.8-1.3,1.3-0.5,2.1-2.6c0.3-0.8,0.2-0.6-0.5,0.5s-0.8,1.1-0.6,0.2
	c0.5-1.8,1.8-4.3,3.7-8l4.2-7.7l0.3-0.2c-0.5,0.2,0.2-0.6,0.2-0.6c1.1-1.1,2.1-2.2,2.9-3.4c0.5-0.8-0.5,1.1,0,0.6
	c0.5-0.6,2.6-4,3.4-4.8l0.6-1.3l2.1-1.6c5.9-5.9,12.8-10.7,20.8-14.4c2.1-0.8,4.6-1.6,7.4-2.4c7.2-1.4,11.8-0.8,13.6,2.2
	s2.1,7.4,0.8,13.1c-1.9,7.7-5.3,15.7-8.3,23.3c-4.5,9-8.5,18.4-12.5,27.2c-0.2,0.6-0.3,1.3-0.3,1.8c1-1.1,1.4-1.6,1.4-1.6
	c4-6.6,7.5-13.3,11.4-20.2c4.2-6.9,8-12.5,11.5-17.1c3.7-4.6,8.3-10.1,14.1-16c2.6-2.9,5.3-3.5,8.3-2.1c3.7,1.8,4.8,4.3,3.4,7.5
	c-0.8,2.7-1.6,4.3-2.2,5.1c-0.5,0.8-1.4,2.4-2.7,5c-4.3,10.9-9.3,21.6-13.6,32.5c-0.2,0.2-0.3,1-0.8,2.4c0.5-0.6,2.4-1,3-1.8
	l1.4-2.1c-0.5,0.5-0.6,1.3-0.8,2.2l-0.6,0.6c0,0,0.2-0.2,0.6-0.2c0.8-0.8,1.4-1.9,2.1-2.7c1.8-2.7,3.2-5,4.5-7.7
	c0.3-0.2,1.1-0.8,2.4-2.1v-1c-0.5,0.3-0.6,0.5-0.6,0.3c-0.2,0.5-0.8,1.3-1.6,2.7c0,0-0.3,0.2-1,0.6l5.3-7.4v0.2l0.2-0.2
	c0.2-0.2,0.2-0.2,0-0.2l1.8-2.6v0.5c0.3,0,0.6-0.2,0.8-0.3c-0.5,0.3-0.2-0.3,0.6-1.9c1.4-1,1.9-1.3,1.6-1.1c0,0-0.5-0.2,0-0.3
	c-0.2,0-0.5,0-0.6,0.2c-0.5,0.5-1,0.8-1,1.3l-1,1.3c6.6-9,13.3-18.6,20.2-27.7c2.2-3.5,4-6.1,5.3-7.7c2.1-2.1,5.8-3.8,7.7-1.4
	c3.4,3,4.5,5.8,3.7,7.8c-0.8,2.1-2.2,5.6-4.6,10.4l-0.5,0.2C1016,187,1015,188.9,1014.2,189.9L1014.2,189.9z M903.7,207.5
	c0,0,0,0.3,0.2,0.3c0,0,0.2,0.2,0.2-0.3s0-0.8,0.5-1.6l1.9-3c0.2-0.6,0.6-1.4,0.8-2.1c0.2-0.6,0.8-1.1,1.6-1.6
	c0.2-0.3,0.3-0.5,0.3-0.6c0-0.3,0.3-0.8,0.8-1.3l0.5-0.5c0,0,0.3-0.5,0.5-0.6c0-0.3,0.3-1,1-2.1c0.6-1.1,0-0.5-1.9,1.9l-1.6,1.6
	c-0.2,0.6-0.6,0.8-0.5,1c-0.8,1.4-1.8,2.2-2.4,3.5c-0.6,1.1-1.1,2.2-1.6,3.5c-0.2,0.5-0.3,0.8-0.2,1.3
	C903.7,207,903.7,207.5,903.7,207.5L903.7,207.5z M929.2,228.3c-0.5,0.2-0.6,0.5-0.6,0.8C928.7,228.6,929,228.3,929.2,228.3z
	 M932.2,220.7c-1.1,0.6-1.6,1.4-1.8,2.2c0.2,0.2,0.2,0.3,0.3,0.3c0,0.5,0.3,0,0.3,0C930.9,222.7,932,221.9,932.2,220.7
	c0.5-0.3,0.6-1,0.6-1.8l0.2-0.5l-0.2,0.5C932.8,219.6,932.2,220.1,932.2,220.7z M935.4,212.7c0,0-0.5-0.5-0.5-0.6v0.5
	c0,0-0.2,0.3-0.3,0.8c-0.5,0.5-0.6,1.1-0.5,1.9c-0.2,0.2-0.6,0.5-0.6,0.5l0.6,0.6c0,0,0.2,0,0.2-0.5c0,0-0.2-0.5-0.2-0.6
	c0.3-0.5,0.5-1.1,0.3-1.9L935.4,212.7z M935.2,234c-0.5,0,0,0.2,0,0.2c0,0.2,0.2,0,0.3-0.3C935.6,234,935.4,234,935.2,234z
	 M936.2,210.2c0-0.3,0.2-0.5,0.3-0.5c0-0.2,0-0.3,0.2-0.5c-0.2,0.2-0.2,0.3-0.2,0.3C936.4,209.7,936.2,209.9,936.2,210.2z
	 M938.3,204.1c1.1-0.6,1.4-1.6,1.3-2.9l0.2-0.3v0.3c-1,0.6-1.4,1.6-1.3,2.9c-0.5,0.5-0.6,1.1-0.8,1.8c-0.3,0.2-0.5,0.5-0.6,0.8
	c0,0,0.2,0.5,0.6,0.5l0.2-0.3c-0.2-0.2-0.2-0.8-0.2-1C938.1,205.7,938.3,205.1,938.3,204.1z M943.4,192.7c0,0,0.2-0.2,0.2-0.3
	C943.5,192.6,943.5,192.7,943.4,192.7c-0.2,0.8-0.6,1.3-0.5,1.9c-0.2,0.2-0.2,0.2-0.2,0.3v-0.3C943.1,194.3,943.2,193.7,943.4,192.7
	z M946.9,201.5V201l-0.2,0.2C946.9,201.2,946.9,201.4,946.9,201.5z M947.1,200.9c0-0.2,0-0.2,0.2-0.3H947L947.1,200.9z M949.1,194.3
	h0.2c-0.6,1.4-1.3,2.6-1.8,4c0,0-0.2,0.6-0.5,1.8c0.8-0.5,1.4-0.3,1.9-1c1.3-4,3-8.3,4.8-12.3c0.2-0.3,0.2-0.5,0-0.6
	c0-0.2,0.3-0.8,0.5-1c0.5-1,1-2.4,1.3-4.2c0.2-0.8,0.2-1.3,0.2-1.4c-0.5,0.5-0.6,0.6-0.6,0.8c-0.5,0.8-0.8,1.9-1,3.4
	c-0.3,1-0.5,1.3-0.5,1.1c-0.2,0.2-0.3,0.5-0.3,1l-0.6,0.5L949.1,194.3L949.1,194.3z M956.7,177.7c0,0,0.2-0.5,0.3-1.4
	c-0.5,0.5-0.8,0.8-1,0.8c-0.2,0.2-0.3,0.8-0.5,1.9L956.7,177.7z M957,232.4c0,0,0.3-0.5,0.8-0.6c0-0.2-0.2-0.3-0.3-0.5
	c0,0.2-0.2,0.3-0.2,0.3c-0.5,0.5-0.3,0.8-0.3,1c-0.5,0.2-0.6,0.8-0.8,1.6l-0.6,0.8c0,0,0,0.5,0.2,0.5l0.3-0.3c0-0.2,0.2-0.3,0.2-1
	C956.3,233.7,956.8,233,957,232.4L957,232.4z M960.2,224.1c-0.8,1.4-1.6,3.8-2.7,6.9v0.3c0,0,0.6-0.2,0.8-0.3
	c0.6-2.6,2.2-4.8,2.4-7.2l0.5-0.5c-0.2,0.2-0.2,0.3-0.2,0.5C960.5,223.9,960.2,223.9,960.2,224.1z M963.5,216.4
	c-1.4,1.6-1.8,3-1.3,4.2c-0.5,0.5-0.6,1-0.6,1.1c0,0.3-0.2,0.6-0.6,1.1v0.3c-0.2-0.2-0.2-0.2,0-0.3c0.2-0.2,0.5-0.6,0.6-1.1
	c0-0.2,0.2-0.6,0.6-1.1C963.4,219.1,963.7,217.7,963.5,216.4c-0.2,0.2,0-0.2,0.2-1.3c0.2,0,0.2-0.2,0-0.5c0.2,0.2,0.2,0.5,0.2,0.5
	L963.5,216.4z M965.1,227.3l-0.2,0.2h0.3L965.1,227.3z M976.2,214.5c0,0,0,0.3-0.2,0.8c-0.2,0.2-0.5,0.6-0.8,1.4L976.2,214.5z
	 M979.9,265.4c0,0.5,0.2,0.6,0.8,1.3c0,0,0,0.2,0.2,0.2s0.3-0.2,0.5-0.5c-0.2-1.1-0.3-2.2-0.3-3.4c0.2-1.4,0.2-3.7,0.3-6.7
	c0.2-1.8,0.2-3.4,0.2-4.6c0.2-1.4,0.5-2.6,0.8-3.4c0.2-0.8,0.2-1.3,0.2-1.6c0-0.6,0.3-1.6,1-2.7c0,0,0.2-0.5,0.5-1.4
	c0.5-1.4,0.6-1.9,0.5-1.4c-0.2-0.8-0.2-2.2,0.2-4.5c0.3-2.4-0.5-0.6-2.2,5c-0.6,1.3-1.1,2.7-1.4,4.5c-0.5,0.8-0.6,1.3-0.6,1.8
	c-0.3,1.9-0.6,4.5-0.8,7.5c-0.5,2.6,0.2,5.1-0.3,7.2c0.5,1.3,0.6,2.2,0.6,2.9h-0.2V265.4z M989.8,197.9c0-0.2,0.2-0.5,0.3-1h-0.3
	c-0.2,0.2-0.2,0.5-0.2,1H989.8z M1013.3,172.3c-0.8,2.1-2.6,4.3-3.8,6.4l0.2,0.3c0.5-0.2,0.6-0.3,0.6-0.3c2.4-3,3.7-5.4,3.8-6.9
	c0,0,0.2-0.2,0.2-0.3c0,0.2,0,0.2-0.2,0.3C1013.4,172.3,1013.1,172.4,1013.3,172.3z"/>
<path class="st9" d="M1027,227c1.8-2.2,2.6-3.8,2.7-4.8v0.3c0.8-0.5,0.8-1.3,0-2.2v0.2c1.4-3,3.4-5.8,5.1-8.8l0.2-0.5l3.5-3.7
	c1.1-1.1,1.9-2.6,3.2-4c0.6-0.8,1.3-1,1.9-0.3c2.1,1.4,3.5,2.7,4.3,3.7c0.5,0.6,0.6,1.4,0.5,2.6c0,0.5-0.3,1.8-0.8,3.5l-1,1.6
	c-6.2,8.2-9.9,17.3-13,26.7c-2.1,7.2-4.8,14.1-7.4,21c-0.6,2.6-1.9,4.6-2.7,7c-1.3,3.4-3.2,6.1-5,8.8c-1.8,2.6-4.5,5.1-8.2,7.5
	c-0.6,0.5-2.1,1.1-4.5,1.6c-5,0.8-9.4-0.2-13.6-2.9c-3.5-2.1-6.4-5.1-8.6-9c-1.3-2.1-1.4-4.3-0.5-6.7c0.2,0,0.5-0.5,0.5-0.6
	c0.2,0.2,0.3,0.5,0.3,0.8l0.5,1.9c0.8,4.3,3.7,7.2,8.6,8.6c6.6,1.9,12,0.3,16.3-5c2.7-3.2,5.3-8,7.7-14.2c1.9-5.1,3.5-10.7,5.4-16.3
	c0.8-3,1.9-5.6,3.2-8.6c0,0-0.2-0.3-0.2-1c-0.5,0.5-0.6,0.6-0.6,0.5c-2.1,3-3.4,5.1-3.8,6.2c-1.1,2.7-3.5,5.4-7.2,8.2
	c-2.7,2.1-5.1,1.8-7.4-1.3c-2.1-2.7-3-5.4-3-8.5c0.2-5.9,1.6-11.8,4-17.9c1.9-4.5,4.5-8.5,6.6-13c1.3-2.1,2.9-4.6,2.9-7.7
	c-0.2-0.8,1.1-1,1.8-0.8c2.4,2.2,4.3,4,5.4,5.3c0.8,1,1,2.2,0.3,4c-1.3,3-2.2,5.8-3.5,8.5c-1.4,3.2-2.9,5.8-4.2,8.8
	c-2.6,4-3.8,8.6-5.1,13.1c-0.2,0.2-0.3,1.3-0.5,3.7c0,0.5,0.2,0.8,0.5,0.8c0.5,0.3,1,0.2,1.4-0.3c2.2-2.1,4.5-5,6.9-8.6
	c1.4-2.6,3.2-4.6,5-7.2l-0.2-0.2c0.5,0.8,0.8,0.8,1.1,0l-0.2,0.2l1.1-1.1v0.1L1027,227L1027,227z M995.4,281.3h-1
	c0.5,0.2,0.8,0.3,1,0.3c0.6,0,1.3,0,2.1-0.2C996.6,281.3,996,281.3,995.4,281.3L995.4,281.3z M1014.6,271.9v-0.3
	c-0.5,0-0.5,0.2-0.5,0.2c0,0.3,0,0.6-0.2,1c-0.2,0.2-0.5,0.6-1,0.8c-3.4,3.2-5.8,5.6-7,7c0,0.2-0.3,0.5-0.5,0.5l0.2,0.3
	c0,0.2,0.2,0.2,0.5,0.2c3.4-2.2,5.6-4.6,6.7-7.2v-1c0.2-0.2,0.6-0.3,1.1-1C1013.9,272.4,1014.1,272.1,1014.6,271.9z M1099.3,210.8
	c2.1-4.6,5-9.6,7.7-14.7c2.1-4.5,5.4-8.6,7.5-13.3c3-5.8,5.6-11.5,7.5-17.8c1.4-4.8-0.5-6.6-5.6-5.4c-9,2.4-15,8.6-21.3,15.2
	c-7.7,8.2-10.6,17.6-14.2,27.2c-1.1,2.6-2.7,3.7-4.6,3.5c-3-0.2-4.2-1.6-3.4-4.5c2.4-6.4,4-13.1,7.8-18.9
	c5.3-9.1,12.6-17.6,22.4-23.3c5.9-3.7,11.8-5.3,17.4-4.6c7.5,1.3,12.5,6.1,10.1,14.2c-2.1,7.2-5.6,14.2-9,21.1
	c-5,9.6-10.2,19-15.2,28.6c-4,7.5-7.5,15-10.6,22.2c-1.9,4.6-3.2,8.6-4,11.8c-0.2,0.2,0,0.6,0.3,1.4c0.8-0.2,1.4-0.5,1.6-1
	c4.5-5.8,9.8-11.5,13.4-18.1c6.4-11,12.8-21.3,19.4-32.3c3.7-5.9,7.7-12.8,12.6-18.7c2.4-2.1,3.8-0.3,5.6,0.3c3,1.8,3.8,3.5,2.6,5.4
	c-1.1,1.4-2.2,2.7-3.7,4.2c-4.3,6.9-9.9,15.8-16.6,26.9c-6.7,11-9.3,20-7.5,27c0.8,3.7,2.9,4.2,6.6,1.3l13.1-10.7
	c0.8-0.5,1,1,2.1,0.3c0.2-0.5,0.5-0.8,1-1.4c-2.4,0.5-3.2,0.3-2.1-0.8s1.9-2.1,2.1-2.9c4.5-7.2,9.8-14.7,13.4-22.5
	c6.6-14.1,13.8-28.1,13.8-42.9c0-5.1,0.3-9.8-0.2-14.9c0-0.5,0.5-1.4,1.6-2.6c1.1-1.1,2.2-1.4,3.4-1l1.1,1.6
	c2.9,10.7,15.5,36.1,32.1,22.5c2.6,3-0.8,6.9-2.9,8.2c-2.2,1.9-6.4,2.4-12.3,1.4s-10.1-4.2-12.2-9.6c-2.1,8.8-5.3,18.1-9.4,27.7
	l-1,2.9c-1.8,3.8-2.1,4.2-3.5,7.5c-1.1,2.4-2.6,5-3.4,7.5c-1.8,3.8-2.9,6.1-3.7,6.6c-0.6,0.5-2.2,2.6-4.8,6.1
	c-5,7.5-10.2,13.9-17.8,19c-13.4,9-22.4,4.6-26.1-7c-0.6-1.9-0.5-4.3-0.5-6.9c-0.5-0.2-0.6-0.6-0.6-1.3c-0.8,0.5-1.3,1-1.4,1.1
	c-4.5,6.6-8.6,13-12.6,19.4c-1.9,3-4.3,4-7,2.6c-3-1.4-4.3-3.7-4-6.7c0.2-5.3,1.4-11,3.8-17.4s5-12.2,7.5-17.4
	C1096.4,215.1,1097.9,213.2,1099.3,210.8L1099.3,210.8z M1078.1,191.9c0,0.5-0.2,0.6-0.2,1.1c0-0.5,0.6-0.5,0.8-1
	c1.9-3.7,4.6-6.9,4.5-11.2c1.1-1.3,2.4-2.6,3.8-3.8l-0.2-0.3c-1,0.8-2.1,2.2-3.5,4.3C1081.6,184.8,1079.5,188.1,1078.1,191.9
	L1078.1,191.9z M1088.9,174.4c0.5-0.6,0.8-1.1,1-1.6l1.1-1.3c0.3-0.3,0.6-0.6,1-0.8l1.8-2.1v-0.2l-1.8,2.1c-0.6,0.6-1,0.8-1,0.8
	c-0.5,0.8-1,1.3-1.1,1.4c-0.8,1.1-1.1,1.6-1,1.4V174.4L1088.9,174.4z M1090,234.8l0.2-0.2v-0.5C1090,234.3,1090,234.5,1090,234.8z
	 M1092.4,229.9c0-0.5-0.2-0.5-0.2-0.6h-0.2c-0.8,0.5-1.1,1.3-1,2.1c0,0,0,0.2,0.2,0.2c0,0,0.2,0,0.2-0.2L1092.4,229.9z M1094.7,223
	c0,0,0.2,0.2,0.3,0.2v0.5c0,0.2,0.2,0.3,0.5,0.5c0-0.2,0.3-0.3,0.5-1h-1.1L1094.7,223L1094.7,223z M1095.8,166.4l-0.2-0.2
	L1095.8,166.4z M1099.8,217.1c0,0-0.2-0.5-0.2-0.6c-0.3,0-0.5,0-0.5,0.2c-0.3,0.2-0.6,0.8-0.8,1.8c-0.2,0.3-0.3,0.6-0.8,1
	c0,0,0.3,0.3,0.5,0.3c0,0,0.2,0,0.2-0.2s0.2-0.5,0.2-1.1C1099.2,218.2,1099.6,217.9,1099.8,217.1L1099.8,217.1z M1103,210.3
	c0,0,0,0.2,0.2,0.2s0.3,0,0.3-0.2c0.2-0.6,0.3-1.9,0.8-3.7c0,0,0.3,0,0.5-0.5c0-0.2,0-0.3-0.2-0.5c0,0.2-0.2,0.3-0.2,0.3
	c0,0.3,0,0.5-0.2,0.6C1103.6,207.1,1103.2,208.3,1103,210.3L1103,210.3z M1106.2,204.3c0.8-1.8,1.4-2.9,1.9-3.5
	c1.8-1.9,2.2-4.5,3.4-6.6c-0.2,0.2-0.3-0.2-0.3-1c-0.5,0.2-0.6,0.3-0.6,0.5c-1.3,1.9-1.9,4.2-3,5.6s-1.3,3.4-1.9,4.8
	c0,0,0,0.2,0.2,0.2H1106.2z M1108,207.5v0.3h0.3C1108.1,207.6,1108.1,207.5,1108,207.5z M1116.3,191.5h0.3c0,0,0.2-0.3,0.3-0.5
	l-0.2-0.2L1116.3,191.5L1116.3,191.5z M1121.6,182.2h-0.2l-0.2,0.2l0.2,0.2C1121.6,182.4,1121.6,182.4,1121.6,182.2z M1143.8,238.8
	c0,0.2,1.1,0.3,1.1,0.3s0.2-0.2,0.3-0.2C1145.1,239,1143.8,238.8,1143.8,238.8z M1155.3,221.7c-0.6,0-0.8-0.2-0.6-0.3
	c1.8-2.7,3.5-8.6,6.7-12.3l0.6-1.1c0.2-0.3,0.2-0.6,0.2-1.1c-1.1,1.4-1.6,2.2-1.6,2.2c-2.4,4-4.3,8.2-6.7,12.5v-0.2
	c0,0.2-0.5,0.8-1.4,2.2c-1,1.4-1.3,2.1-1.1,2.1s1.4-2.4,2.6-3.2c0.5-0.5,1-0.6,1.3-0.6V221.7L1155.3,221.7z M1164.7,201.1v0.2
	c-0.2,0.2-0.2,0.3-0.3,0.3c0,0-0.3,0.5-0.8,1.4c-0.2,0-0.2,0-0.2-0.2c0.2-0.5,0.6-0.6,1.1-1.1
	C1164.6,201.7,1164.7,201.2,1164.7,201.1L1164.7,201.1z M1167.8,191.9v2.2l1.3-2.4l2.1-5.8c1.1-5.8,2.1-11.2,3.4-17.1
	c0,0-0.2-0.3-0.5-1.1c-0.5,0.5-0.6,1-0.6,1.1c-1.4,7.7-3.2,15.4-4.6,22.9C1168.2,191.8,1167.9,191.9,1167.8,191.9L1167.8,191.9z"/>
<path class="st9" d="M1183.3,233.5c-0.8-1.1-1-1.9-0.2-2.6c0-0.2,0.3-0.8,0.8-1.6c3.2-5.3,5.4-11.5,6.7-18.7c0.8-5-0.2-9.4-2.7-13.4
	c-0.5-0.8-1.1-1.9-1.9-3.7c-0.3-0.6-0.3-1.4,0.2-2.6c0.5-1,1-1.1,1.3-0.3c1.1,1.8,3,2.7,5.4,3.2c1.4,0.3,2.6,1.3,3.5,2.9
	c0.8,2.1,1.8,4.8,3,6.9c0.2,0.2,0.2,0.3,0.2,0.8c-0.5,3.2,0.2,6.4-0.3,9.4c-1.6,7.5-5,14.9-9.9,21.8l-3.2,4.2
	c-2.6,3.7-6.4,5.6-10.1,7.5c-2.4,1.1-4.5,0.8-6.6-1.3c-2.7-2.7-4.2-6.1-4-10.4c0.5-6.7,1.9-13.3,4.5-19.8c0.6-1.6,1.8-3.8,3.5-6.7
	c1.4-3,4.3-4.8,7-6.9c0.8-0.6,2.1-0.6,3.7,0l2.4,1.4c1.1,1.1,1.1,2.1,0.3,3.2c-0.8,0.8-1.9,1.9-3.4,3c-1.1,1.1-1.6,2.1-1.8,2.9
	c-0.2,0.5-0.6,1.4-1.8,2.7c-2.7,3.7-4.6,7.7-5.6,12c-1.3,4-2.4,8-2.4,12.3v1.8c0,0.8,0.3,1,1.1,0.8l1.9-1c3.4-1.3,5.6-4.6,6.9-7.4
	c3.7-0.6,5.1,0.8,5.9-2.4c0,0-0.6-0.5-0.8-0.5c-0.5,0-1,0.2-1.4,0.5c-1.1,0.5-1.1,1.9-2.6,1.9h0.4V233.5L1183.3,233.5z
	 M1195.3,210.8c-0.3-0.2-0.6,0-0.8,0.2c-0.3,0.8-0.5,1.1-0.5,1.1c0,1-0.3,2.4-1.1,4.2c-1.1,2.1-1.9,4.5-2.6,6.6
	c0,0.5,0.2,0.8,0.3,0.8h0.6c1.1-0.5,1.8-1.4,2.2-2.7c1-3.8,1.8-6.7,2.4-8.8c0-0.2-0.2-0.3-0.2-1
	C1195.6,211,1195.4,210.8,1195.3,210.8L1195.3,210.8z M1192.1,197.4l0.2-0.2h-0.2V197.4z M1195.8,205.7c0-0.2-0.2-0.3-0.3-0.5
	c0,0-0.2,0.2-0.5,0.6c0,0.5,0.2,0.6,0.3,0.8c0,0.5,0.2,0.6,0.2,0.6l0.3-0.5V205.7L1195.8,205.7z M1210.8,230.2
	c3.2-4.5,6.2-8.6,9.9-13c1.9-2.2,3.8-5.6,5.8-9.9c1.9-4.3,4-8.3,6.4-11.7c0.8-1.4,2.1-1.6,3.5-0.5l2.7,2.7c1.1,0.8,1.4,2.1,1.1,3.7
	l-1.4,2.6c-0.8,0.8-1.6,1.8-2.2,2.9c-1.6,2.2-3,5.8-4.3,10.4c-1.1,4.6-0.2,7.8,3,9.3c0.6,0.5,0.8,1,0.5,1.4c-0.5,1-0.8,1.6-1.3,2.1
	c-0.8,0.8-1.6,1-2.4,0.2c-3.2-1.8-7.7-5.6-8.5-9.4c-0.5-1.4-1.3-1.4-2.1-0.2c-1.8,2.4-3.4,4.5-4.8,6.9c-0.8,1.3-2.2,3.4-4.3,6.1
	c-4.3,5.6-8.2,10.9-11.5,15.7l-0.3,0.3c-0.6,0.8-0.3,2.6-2.1,2.7c-1.4-1.3-3.5-1-4.6-3.4c0-0.5-0.2-1-0.3-1.3c-0.8-1-1-2.2-0.3-4
	c1.3-3,2.4-6.2,3.7-9c3.4-6.6,6.2-13.6,9.6-20.6l7-15c0.5-1.4,1.3-1.6,2.4-0.8c1.3,1.1,2.4,1.9,3.8,2.6c1.6,1.4,2.2,2.9,1.8,4.5
	c-0.3,0.8-0.8,1.8-1.6,2.9l-9.1,18.2c-1.1,2.4-1.4,4.2-1.3,5h-0.3l-0.3,0.2c0.3,0,0.5-0.2,0.5-0.3
	C1210.2,230.8,1210.6,230.3,1210.8,230.2L1210.8,230.2z M1200.1,240.4c0.6-0.2,1-0.6,1-1.8c0.3-0.5,0.5-0.6,0.5-0.6
	s-0.2-0.3-0.2-0.5c0,0.2-0.2,0.3-0.2,0.3c0,0.5,0,0.8-0.2,1c-0.5,0.3-0.8,1-0.8,1.8c-0.5,0.3-0.8,1-0.8,1.9
	c-0.3,0.2-0.5,0.5-0.6,0.8v0.3c0,0,0.3-0.2,0.3-0.3v-1C1200.1,242.3,1200.4,241.7,1200.1,240.4L1200.1,240.4z M1202.5,235.6v-0.2
	h-0.2L1202.5,235.6z M1207.9,222.3c2.2-5.3,3.5-8,3.7-8.2c0,0-0.3-0.6-0.3-0.8c-0.2,0.3-0.3,0.5-0.3,0.6
	C1211,214.2,1210,217.1,1207.9,222.3c-2.1,5.3-3,7.8-3,8c-0.2,0.2-0.5,0.3-0.6,0.6v0.6l0.5-0.5v-0.8
	C1204.8,230,1205.8,227.6,1207.9,222.3L1207.9,222.3z M1275.9,200.9c0.3,0,0.6,0.2,1,0.3c0.8,1.1,1.1,2.4,1.1,3.5
	c0.2,4-0.5,7.5-1.8,10.6c-1.1,3-2.4,5.4-3.7,8c-1.4,3.4-3.7,6.2-6.4,9c-1.4,1.4-3.2,2.7-5,3.8s-3.4,1.4-5.1,0.8l0.2,0.5
	c-0.2,0.2-0.2,0.3-0.2,0.6c0.5,4.8,1.4,9.6,3,14.2c0.3,1.8,1.8,4.2,4.3,7.4c0,0.2,1,0.5,2.7,0.8c0.6,0,1,0.3,1,1v1.8
	c-0.5,2.6-1.6,3-3.4,1.6c-2.6-1.8-4.3-3.4-5.4-5c-4.5-4.8-6.9-10.6-7.4-17.3c-0.5-1.8-0.5-3.5-0.5-5.6c0-0.5-0.3-1-1.1-1.8
	c-0.3-0.2-0.6-0.2-0.8,0c-0.3,0.2-0.8,0.8-1.3,1.6l-6.9,10.7c-0.8,1.3-1.6,1.6-2.7,1c-1.4-0.5-2.4-1.3-2.7-2.4
	c-0.8-1.1-1.1-1.6-1-1.4c-0.6-0.8-0.8-2.2-0.5-4.2c1.1-1.8,1.8-3.5,2.1-5.3l0.2,0.2c0,0,0.2-0.3,0.2-0.5c0.8-0.2,1-0.6,0.6-1.6
	c0-0.2,0-0.2-0.2-0.3c1.4-4,2.6-6.9,3.2-9l7.2-17.3c3-6.6,6.1-13.6,9.4-20.2c2.1-5,4.6-9.8,7.2-14.7c0.2-0.5,0.6-0.6,1.3-0.5
	c2.1,0.5,3.8,2.1,5.6,4.8c0.5,0.8,0.6,1.4,0.5,1.9c-0.6,2.1-1,3.4-1.1,3.5l-4,7.5c-5.3,9.6-9.4,19.5-13.4,29.1
	c-1.8,3.4-2.9,5.9-3.7,7.7c-0.8,1.9-1.1,3.4-0.8,4.2l-0.2-0.2c1.8-2.4,3.4-4.8,5.3-7.2c5-6.6,10.9-15.2,16.8-21.6
	c1.4-1.3,3-1.4,5-0.5C1274.9,201.1,1275.4,201.1,1275.9,200.9L1275.9,200.9z M1235.9,234.2v0.6c0,0.2-0.2,0.2-0.2,0.2L1235.9,234.2z
	 M1239.9,231.1v0.2h0.2L1239.9,231.1z M1241.3,228.7c0.2-0.2,0-0.3-0.2-0.6l-0.5,0.5v0.6c0,0.5,0,0.8-0.2,0.6c0,0,0.2-0.5,0.2-0.6
	C1241.2,228.9,1241.3,228.7,1241.3,228.7z M1251.7,199.5c-0.3,0.2-0.5,0.6-0.5,1.4c0,0.2-0.2,0.2-0.3,0.2c-1.3,1.6-2.2,3.5-3,5.9
	c0,0.5,0.2,0.8,0.2,1.3c-0.8,0.2-1.3,0.8-1.4,1.9c-1.8,4.3-3.5,8.3-5.4,12c0,0.5,0.2,0.8,0.2,0.8c0.3,0,0.5,0,0.6-0.2
	c0.8-1.3,1.1-1.8,1.1-1.4c1.4-3.8,3.2-7.5,4.6-11.2c0-0.6,0.2-1.1,0.3-1.9c2.1-1.9,3.2-4,3.4-6.4c0-0.2-0.2-0.5-0.2-1
	C1251.9,200.7,1252.1,200.3,1251.7,199.5c1.1-0.5,1.8-1.3,1.6-2.4C1252.2,197.4,1251.7,198.2,1251.7,199.5L1251.7,199.5z
	 M1242.6,225.5h-0.2v0.2L1242.6,225.5z M1242.9,224.1l0.2-0.2h-0.2V224.1z M1244.2,220.6l-0.2,0.2l0.2,0.2V220.6z M1245.3,217.9
	l0.2-0.2l-0.2-0.2V217.9z M1246.1,216.3c-0.2,0,0-0.2,0.3-0.6c0,0,0.2-0.3,0.2-0.5c-0.2-0.2-0.2,0-0.2,0.5
	C1246.3,215.8,1246.1,216.3,1246.1,216.3z M1247.3,213.5l0.2,0.3v-0.3H1247.3z M1248.5,211.1l0.2,0.3v-0.5L1248.5,211.1z
	 M1250.3,207.5c0,0,0.8,0.2,0.2-0.5C1250.5,207.1,1250.3,207.5,1250.3,207.5c-0.5,0.3-0.6,1-0.6,1.8c0,0.5-0.2,0.6-0.3,0.5
	c0,0,0.3-0.3,0.3-0.5C1250.1,209.2,1250.3,208.6,1250.3,207.5z M1250.9,231.4c-0.5-0.8-0.2-1.1,0.8-1.1h2.6c1.4,0,2.1,0,2.1,0.2
	c0.8-1.3,2.7-0.6,2.9-2.4c0.3-0.5,0.6-0.6,0.8-0.8c3.8-4,5.3-5.4,7.4-10.1c1.4-2.7,3.4-5.9,4-9.8c0.5-1.1,0.6-2.4,1.1-3.8
	c0-0.2,0-0.2-0.2-0.3l-0.2-0.2c-1,0.8-1.6,1.3-2.1,1.4l-0.5,0.8l-4.5,5.3c-2.4,3-6.1,7.5-8.2,10.6c-2.4,3.4-4.2,6.7-6.6,9.9
	c0,0.2,0.2,0.6,0.2,0.6h0.5C1251.1,231.6,1251.1,231.6,1250.9,231.4L1250.9,231.4z M1252.5,203.1c-0.2,0.2-0.3,0.5-0.3,0.5l-0.8,0.8
	l-0.5,0.5c0,0.5,0.2,0.6,0.2,0.6c0.2,0,0.3-0.2,0.3-0.3v-0.8l0.8-0.8C1252.4,203.5,1252.5,203.3,1252.5,203.1z M1253.3,201.7
	l-0.3-0.2v0.2H1253.3z M1253.8,200.1v-0.2h-0.2L1253.8,200.1z M1254.6,234.6c2.9-1.3,4.6-2.7,5.4-4.3c1.4-0.6,2.6-1.4,3.4-2.2
	l0.2-0.3c-0.5,0-0.6,0-0.6-0.2l-2.2,1.1c-0.5,0.2-0.6,0.8-0.6,1.6c-0.6,0-1.3,0.3-2.1,1c-1.8,1.1-3,1.9-4,2.4L1254.6,234.6
	L1254.6,234.6z M1254.3,198.3v0.2h0.3L1254.3,198.3z M1254.6,231.3l-0.3,0.2l0.3,0.2V231.3z M1255.3,196.4c0,0-0.8,0.3-0.2,0.5
	c0,0,0.2-0.5,0.2-0.6c0.5,0,0.8-0.5,0.8-1.4c0.3-0.2,0.5-0.6,0.5-1.6c0.5-0.2,0.8-0.6,0.6-1.8c1-0.2,1.4-1,1.3-2.4
	c0.5,0,0.6-0.5,0.6-1.4c0.5-0.2,0.6-0.6,0.6-1.6c0.2-0.2,0.3-0.5,0.3-0.6c-0.2,0.5-0.3,0.6-0.3,0.6c-0.6,0.2-0.8,0.8-0.6,1.6
	c-0.8,0.3-1,0.8-0.5,1.4c-1.3,0.6-1.8,1.4-1.4,2.4c-0.5,0.3-0.6,1-0.6,1.8c-0.6,0.3-0.8,0.8-0.5,1.6
	C1255.6,195,1255.3,195.5,1255.3,196.4z M1260.7,184.1l0.2-0.2h-0.2V184.1z M1261.2,182.4l0.2,0.2v-0.2H1261.2z M1262.4,179v0.2h0.2
	L1262.4,179z M1269,221.5c1.6-2.1,2.4-4,2.2-6.1c0.5-1,0.8-1.3,0.8-1.1c1-2.4,1.9-5.1,2.9-8.2c0,0-0.2-0.5-0.2-0.6
	c-0.3,0.3-0.5,0.5-0.5,0.3c-0.8,2.1-1.8,4.5-2.4,6.9c-0.5,1.1-0.8,2.1-0.6,2.7c-1,1-1.4,1.3-1.3,1.1L1269,221.5
	c-0.5,0.2-0.6,0.6-0.6,1.4c-0.5,0.2-0.6,0.5-0.8,0.8c-1.3,0.8-2.1,1.6-2.2,2.6c0,0.3,0.2,0.5,0.3,0.5c0,0.5,0.2,0.5,0.5,0
	c0.8-1,1.3-1.9,1.4-3c0.2-0.3,0.3-0.6,0.8-0.8C1268.8,222.8,1269,222.3,1269,221.5L1269,221.5z"/>
</svg>
