<?xml version="1.0" encoding="utf-8"?>
<!-- Generator: Adobe Illustrator 22.1.0, SVG Export Plug-In . SVG Version: 6.00 Build 0)  -->
<svg version="1.1" xmlns="http://www.w3.org/2000/svg" xmlns:xlink="http://www.w3.org/1999/xlink" x="0px" y="0px"
	 viewBox="0 0 2175.8 1067.9" style="enable-background:new 0 0 2175.8 1067.9;" xml:space="preserve">
<style type="text/css">
	.st0{display:none;}
	.st1{fill:#7BCEF4;}
	.st2{fill:#F0F9FA;}
	.st3{fill:#30A5CC;}
	.st4{fill:#FFFFFF;}
	.st5{fill:#B6E4F5;}
	.st6{display:inline;fill:#B6E4F5;}
	.st7{fill:#215064;}
</style>
<g id="Layer_1" class="st0">
</g>
<g id="Layer_2">
	<g id="sky">
		<rect x="-4.4" class="st1" width="2180.3" height="988"/>
	</g>
	<g id="mountain_bg_1_">
		<g id="left_mountain_1_">
			<path id="mount_left_5_" class="st2" d="M221.6,654.5l51-41.2l18.3,5l18.3-21.1c0,0,30-12,32.6-17.2c2.6-5.2,26.7-13.3,32.6-25.5
				c5.9-12.2,48.9-15.7,63.9-27.9s48.9-36.1,56.1-49.4c7.2-13.3,56.8,10.5,66.5,15.7s22.2,19.7,40.4,16.2
				c18.3-3.5,36.5-2.9,56.1,18.6c19.6,21.5,33.3,36.6,47,42.9c13.7,6.4,40.4,20.4,47,26.5s36.5,21.1,45.7,23.4
				c9.1,2.3,129.3,122.7,144.3,125.6c15,2.9,1.3,47,0,52.2c-1.3,5.2,0.9,25.5,7,37.1c6.1,11.6,10.6,28.4,9.4,36
				c-6,38.7-129.5-71.8-146.4-68.9c-17,2.9-647.4-23.8-647.4-23.8s12.1-43.5,27.3-67.6c6.6-10.4,11.9-14.3,14.5-22.6
				C212,671.5,221.6,654.5,221.6,654.5z"/>
			<path id="mount_left_4_" class="st3" d="M924.4,884.3c17-2.9,30-5.8,33.3-12.8s-3.3-24.4-9.4-36c-6.1-11.6-8.3-31.9-7-37.1
				c1.3-5.2,15-49.3,0-52.2c-15-2.9-76.8-114.8-144.3-125.6c-9.3-1.5-39.1-17.4-45.7-23.4s-33.3-20.1-47-26.5
				c-13.7-6.4-27.4-21.5-47-42.9c-19.6-21.5-37.8-22.1-56.1-18.6c-18.3,3.5-30.7-11-40.4-16.2s-59.4-29-66.5-15.7
				c0,0,16.7,7.7,17.1,14.9c0.4,7.2,9.9,22.4,15.4,25.4c5.5,2.9,0.2,32.5,6.1,33.8c5.9,1.3,16.9,10.7,23.8,7.8
				c6.9-2.9,10.2,4.9,15.4,7.2c5.1,2.3,12.8,18.9,18.3,22.8c5.5,3.9,22.7,26.6,21.9,33.3c-0.7,6.7,1.8,37.3,6.6,38.3
				c4.8,1,25.6,21.1,30,23.4c4.4,2.3,11.3,20.5,16.8,24.1c5.5,3.6,7.3,20.5,18.3,14.3c11-6.2,12.4,2,17.6,4.6
				c5.1,2.6,2.6,6.8,13.2,8.5s12.8,3.3,17.6,6.5c4.8,3.3-0.7,4.9,0.7,9.1s5.9,11.2,7.9,11.4C743,762.7,924.4,884.3,924.4,884.3z"/>
			<path id="mount_left_3_" class="st3" d="M941.4,746.2c-15-2.9-79.2-104.7-144.3-125.6c-8.3-2.7-39.1-17.4-45.7-23.4"/>
		</g>
		<path id="end_mount_3_" class="st2" d="M1078,795.7c3.3,0.1,17.2-38.7,17.2-38.7l35.2-21.8l16.2-37.8l34.5-31.1l41.3-27.1
			c0,0,15.2-32.9,15.9-33.6c2.2-2.1,13.1-14.4,16.8-17.1s29.9-13,35.3-16c0,0,29.1,14.2,53.2,15.4c24.1,1.3,51.8,3.2,67.3-6.5
			c15.5-9.7,74.1-34.3,85.5-31c11.4,3.2,84.1,85.3,112.8,82.8c28.7-2.6,41.4,45.9,58.2,50.4c16.8,4.5,27.7,51.1,42.7,57.9
			c15,6.8,36.4,30,65.5,37.8c29.1,7.8,75.9,33.6,92.8,33.6s63.2-33,77.3-40.1c14.1-7.1,48.7-31.7,60.9-23.3
			c12.3,8.4,29.6,14.9,51.8,22c22.3,7.1,25,17.5,35.5,28.4c10.5,11,0,24,0,24s-613.9,112.7-1005,41"/>
		<g id="end_mount_1_">
			<path class="st3" d="M1496.4,550.4c-4.3-0.3,2.9,55,13.9,54.2c11.1-0.8,7.8,30.2,17.6,37.2c9.8,6.9,22.8,44.4,22.8,44.4
				s14.3,31,19.5,37c5.2,6,1.6,7.8,0,18.2c-1.6,10.4-3.3,22.9-2,29c1.3,6-12,9.4-12.4,18.8c-0.3,9.4,5.5,25.1,6.5,28.4
				c1,3.2,3.5,14.3,10.5,21.3c7,6.9,16.4,13.2,27.2,23.2c10.8,10.1,67.9,11.3,93.2,13.3c25.3,1.9,122.7-23.7,127.5-24.1
				c4.8-0.4,2.7-5.5,3.3-15.2s-1-12.5-5.2-18.5c-4.2-6-8.5-10.3-7.2-17.6c1.4-7.7-7.1-13.2-7.1-13.2s-46.1-9.3-81.6-37.4
				c-8.7-11.9-14.4-6.1-19.5-13.5c-5.1-7.4-21.8-44.9-31.5-50c-9.8-5.1-10.3-3.7-16.2-11.7s-25-36.1-35.8-39.5
				c-10.8-3.4-18.6-1.4-25.9-5.3C1586.9,625.4,1500.8,550.7,1496.4,550.4z"/>
		</g>
		<path id="end_mouint_2_right_1_" class="st3" d="M2004.4,748.4c-1.5,0,4.2,27.1,14.6,31.3c10.4,4.2,14.3,3.3,26.2,10.3
			c11.9,7,21.4,18.2,27.5,22.4s3.9,17.3,13.9,20.1s43.5,0,43.5,0l-28.8-27.2c0,0-8.9-13.6-15.8-18.3c-6.9-4.7-16.2-15.8-47.3-22.3
			C2012.9,753.1,2005.9,748.4,2004.4,748.4z"/>
	</g>
	<g id="snow_2_">
		<path id="snow_cover_1_" class="st4" d="M0,711.9c0,0,45.7-14.6,262.2-14.6c238.3,0,917.5,136.2,1372.2,136.2
			s546.4-25.2,546.4-25.2v259.6H0L0,711.9z"/>
	</g>
	<g id="snow_shadows">
		<path class="st5" d="M0,965.3c172.2,0,793.9,83.9,1113.2,83.9s531.1-57.2,705.4-57.2s362.1,20.7,362.1,20.7v53.4L0,1067.9V965.3z"
			/>
		<g id="snowboard_shadow" class="st0">
			<path class="st6" d="M931.4,950.4c0,0,26.7-27.8,40.5-24.8c11.6,18.4-3.5,31.3-29.7,42.5C927.7,972.7,931.4,950.4,931.4,950.4z"
				/>
			<path class="st6" d="M982.1,973c0,0,49.2-17.3,67.2-7.5c8.6,25.2-18,32-59.5,31.6C967.6,995.2,982.1,973,982.1,973z"/>
			<path class="st6" d="M887.8,930.5c0,0,87,39.7,106.7,59.1c17.2,16.9,42.7,27.2,53.5,28.3c13.1,1.3,41.7-11.1,36.8-22.3
				c-4.9-11.2-29.3-15.6-47.1-27.6c-12.2-8.2-79.8-39.4-79.8-39.4L887.8,930.5z"/>
		</g>
		<path id="snow_cover_2_" class="st5" d="M0,725.2l0-13.3c0,0,45.7-14.6,262.2-14.6c238.3,0,917.5,136.2,1372.2,136.2
			s546.4-25.2,546.4-25.2v11.3c0,0-402.2,57.5-598.8,57.5c-296.9,0-1065.1-177.7-1295.9-177.7c-65.1,0-108.5,2-149.6,6
			C31.9,715.5,0,725.2,0,725.2z"/>
		<path class="st5" d="M1078,816.9c0,0,503.9,85.4,880.1,208.7c25.7,0,10.7-0.1,10.7-0.1l-505.1-154.7L1078,816.9z"/>
	</g>
	<g id="clouds">
		<path class="st4" d="M2101.8,225.9c0-0.4,0.1-0.8,0.1-1.2c0-8.3-6.7-15-15-15c-0.3,0-0.5,0-0.8,0c-3.3-7.9-11.1-13.4-20.2-13.4
			c-0.4,0-0.9,0-1.3,0c-4.1-14.2-17.1-24.5-32.6-24.5c-16,0-29.5,11.1-33,26.1c-8.1,2.5-14.1,9.8-14.9,18.6
			c-1.7-0.5-3.6-0.8-5.4-0.8c-7.3,0-13.7,4.1-17,10.1H2101.8z"/>
		<g>
			<path class="st4" d="M1612,383.3c9.8-14.7,35.2-15.5,50.7-12.3c4.1-23.7,36.8-34.3,39.2-4.1c8.2-4.1,18.8-4.9,22.1,4.9
				c10.6-3.3,20.3,3.7,28.4,11.1C1705.4,382.9,1612,383.3,1612,383.3z"/>
		</g>
		<path class="st4" d="M270.7,279.9c0-0.4,0.1-0.8,0.1-1.2c0-8.3-6.7-15-15-15c-0.3,0-0.5,0-0.8,0c-3.3-7.9-11.1-13.4-20.2-13.4
			c-0.4,0-0.9,0-1.3,0c-4.1-14.2-17.1-24.5-32.6-24.5c-16,0-29.5,11.1-33,26.1c-8.1,2.5-14.1,9.8-14.9,18.6
			c-1.7-0.5-3.6-0.8-5.4-0.8c-7.3,0-13.7,4.1-17,10.1H270.7z"/>
	</g>
	<g>
		<path class="st7" d="M1014.7,278.7c-0.5,0.6-1,1.6-1.4,2.9c-0.2,1.3-0.8,2.6-1.9,3.7c-1,1.4-1.9,3.5-2.7,5.9
			c-0.5,1.4-1,2.7-1.8,3.5c-3,3.4-4.5,9.6-5.9,13.4c-0.8,1.3,0.2,0.6-0.6,1.4c-0.5,0.8-1.1,1.6-1.6,2.6c-1.8,5-2.7,8.6-4.5,12.3
			c-5,16-8.6,30.5-4,40.8c0.6,1.4,0.3,2.6-1,3.4c-1.1,0.8-2.9-0.2-5-2.9c-3.7-5.1-5.6-11-5.9-17.9s1.9-16.2,6.9-27.8
			c3.4-10.7,9-20.3,13.4-30.7c1.8-4.3,3.5-7.5,5.9-11.8c1.4-1.9,2.4-4.2,3.7-6.1c0,0,0.2-0.2,0.2-0.3l-0.2-0.2l1.3-2.9
			c0,0,0-0.2,0.2-0.2c1.8-3,3.2-6.1,4.6-9.1c0.2-0.8-0.5-1.6-1.3-0.5c-2.6,3.2-5.1,6.6-7.8,9.6h-0.8h0.8c-0.8,1.3-2.2,2.9-3.7,4.2
			c-0.2,0.2-0.2,0.3-0.3,0.3c-0.8,1.4-1.6,2.2-2.2,3.4c-0.2,0.5,0.8-0.8,3.2-3.5c2.4-2.9,3.5-4.2,3.4-3.7
			c-2.4,3.8-6.2,9.6-11.2,17.1c-5,7.5-8.8,13.1-11.5,16.8c-5.8,9.8-13.1,18.4-18.7,28.1c-1.1,1.9-1.9,3.4-2.2,4.2
			c-0.8,3.5-2.6,4.6-5.3,3.2c-1.8-0.8-4.6-3.7-3.8-6.1c1.1-6.1,3.2-12.5,5.9-19.4c4.5-10.9,10.1-22.4,15-33.4l2.2-5.3
			c0.5-0.8,1.1-2.4,2.1-5.1c1.8-3.8,1.6-4.6-0.6-2.6c-2.1,2.1-4.8,5.1-8,9.3c-3.2,4.2-6.2,8.3-9.3,12.6l-4.6,6.4
			c-6.4,9.6-11.7,20-17,29.7c-1.9,3.8-3.4,6.7-4.2,8.6c-0.8,1.8-2.2,4.3-4.3,7.7c-0.2,0.5-1.8,0.2-5.1-1c-3.4-1.1-4.3-3-3.2-5.8
			c0.6-3,2.1-5.4,2.9-8.2c0-0.6,0.3-1.1,0.8-1.8c0.2-0.5,0.3-1,0.8-1.3c1.4-4.6,4.5-10.9,6.2-15.5c1.1-5.1,3.4-8.5,4.2-13.6
			c0-0.2,0.5-1,1.6-2.7c1.1-1.8,1.6-2.7,1.6-3c0-1.8,0.2-2.9,0.5-3c0.3-0.2,1-1.3,1.8-3.4c0.8-1.9,2.4-4.3,3-6.7l0.6-1.6
			c0.6-1.3,1.4-3.4,1.6-4.6c1.9-3.7,2.4-7.2,3.2-11c0.5-2.4-0.8-3.2-3.7-2.2c-6.2,2.6-11.4,5.4-15.7,8.8c-1.1,0.8-1.3,0.8-0.6-0.3
			c0.8-1.1,0.6-1.4-0.2-0.6c-0.6,0.8,0.5,0.5-0.3,1.9l-5,4.5c-2.2,2.1-3.8,4-4.6,5.6c-0.3,0.3-0.3-0.3,0.2-1.8
			c0.5-1.4,0.8-2.4,0.8-2.9c-0.2,0-1.1,4.5-1.8,5.1c-7.5,9.8-13.1,20.8-17.8,29.3c-0.5,1.6-1.3,1-2.6-1.9c-1.1-3-1.4-5.6-1-7.7
			c0.8-1.3,1.3-0.5,2.1-2.6c0.3-0.8,0.2-0.6-0.5,0.5s-0.8,1.1-0.6,0.2c0.5-1.8,1.8-4.3,3.7-8l4.2-7.7l0.3-0.2
			c-0.5,0.2,0.2-0.6,0.2-0.6c1.1-1.1,2.1-2.2,2.9-3.4c0.5-0.8-0.5,1.1,0,0.6c0.5-0.6,2.6-4,3.4-4.8l0.6-1.3l2.1-1.6
			c5.9-5.9,12.8-10.7,20.8-14.4c2.1-0.8,4.6-1.6,7.4-2.4c7.2-1.4,11.8-0.8,13.6,2.2s2.1,7.4,0.8,13.1c-1.9,7.7-5.3,15.7-8.3,23.3
			c-4.5,9-8.5,18.4-12.5,27.2c-0.2,0.6-0.3,1.3-0.3,1.8c1-1.1,1.4-1.6,1.4-1.6c4-6.6,7.5-13.3,11.4-20.2c4.2-6.9,8-12.5,11.5-17.1
			c3.7-4.6,8.3-10.1,14.1-16c2.6-2.9,5.3-3.5,8.3-2.1c3.7,1.8,4.8,4.3,3.4,7.5c-0.8,2.7-1.6,4.3-2.2,5.1c-0.5,0.8-1.4,2.4-2.7,5
			c-4.3,10.9-9.3,21.6-13.6,32.5c-0.2,0.2-0.3,1-0.8,2.4c0.5-0.6,2.4-1,3-1.8l1.4-2.1c-0.5,0.5-0.6,1.3-0.8,2.2c0,0-0.2,0.2-0.6,0.6
			c0,0,0.2-0.2,0.6-0.2c0.8-0.8,1.4-1.9,2.1-2.7c1.8-2.7,3.2-5,4.5-7.7c0.3-0.2,1.1-0.8,2.4-2.1c0,0,0-0.5,0-1
			c-0.5,0.3-0.6,0.5-0.6,0.3c-0.2,0.5-0.8,1.3-1.6,2.7c0,0-0.3,0.2-1,0.6l5.3-7.4v0.2l0.2-0.2c0.2-0.2,0.2-0.2,0-0.2l1.8-2.6
			c0,0.3,0,0.5,0,0.5c0.3,0,0.6-0.2,0.8-0.3c-0.5,0.3-0.2-0.3,0.6-1.9c1.4-1,1.9-1.3,1.6-1.1c0,0-0.5-0.2,0-0.3
			c-0.2,0-0.5,0-0.6,0.2c-0.5,0.5-1,0.8-1,1.3l-1,1.3c6.6-9,13.3-18.6,20.2-27.7c2.2-3.5,4-6.1,5.3-7.7c2.1-2.1,5.8-3.8,7.7-1.4
			c3.4,3,4.5,5.8,3.7,7.8c-0.8,2.1-2.2,5.6-4.6,10.4l-0.5,0.2C1016.5,275.8,1015.5,277.7,1014.7,278.7z M904.2,296.3
			c0,0,0,0.3,0.2,0.3c0,0,0.2,0.2,0.2-0.3s0-0.8,0.5-1.6l1.9-3c0.2-0.6,0.6-1.4,0.8-2.1c0.2-0.6,0.8-1.1,1.6-1.6
			c0.2-0.3,0.3-0.5,0.3-0.6c0-0.3,0.3-0.8,0.8-1.3l0.5-0.5c0,0,0.3-0.5,0.5-0.6c0-0.3,0.3-1,1-2.1c0.6-1.1,0-0.5-1.9,1.9l-1.6,1.6
			c-0.2,0.6-0.6,0.8-0.5,1c-0.8,1.4-1.8,2.2-2.4,3.5c-0.6,1.1-1.1,2.2-1.6,3.5c-0.2,0.5-0.3,0.8-0.2,1.3
			C904.2,295.8,904.2,296.3,904.2,296.3z M929.7,317.1c-0.5,0.2-0.6,0.5-0.6,0.8C929.2,317.4,929.5,317.1,929.7,317.1z M932.7,309.5
			c-1.1,0.6-1.6,1.4-1.8,2.2c0.2,0.2,0.2,0.3,0.3,0.3c0,0.5,0.3,0,0.3,0C931.4,311.5,932.5,310.7,932.7,309.5c0.5-0.3,0.6-1,0.6-1.8
			c0,0,0,0,0.2-0.5c-0.2,0.5-0.2,0.5-0.2,0.5C933.3,308.4,932.7,308.9,932.7,309.5z M935.9,301.5c0,0-0.5-0.5-0.5-0.6
			c0,0.2,0,0.5,0,0.5s-0.2,0.3-0.3,0.8c-0.5,0.5-0.6,1.1-0.5,1.9c-0.2,0.2-0.6,0.5-0.6,0.5l0.6,0.6c0,0,0.2,0,0.2-0.5
			c0,0-0.2-0.5-0.2-0.6c0.3-0.5,0.5-1.1,0.3-1.9L935.9,301.5z M935.7,322.8c-0.5,0,0,0.2,0,0.2c0,0.2,0.2,0,0.3-0.3
			C936.1,322.8,935.9,322.8,935.7,322.8z M936.7,299c0-0.3,0.2-0.5,0.3-0.5c0-0.2,0-0.3,0.2-0.5c-0.2,0.2-0.2,0.3-0.2,0.3
			C936.9,298.5,936.7,298.7,936.7,299z M938.8,292.9c1.1-0.6,1.4-1.6,1.3-2.9l0.2-0.3v0.3c-1,0.6-1.4,1.6-1.3,2.9
			c-0.5,0.5-0.6,1.1-0.8,1.8c-0.3,0.2-0.5,0.5-0.6,0.8c0,0,0.2,0.5,0.6,0.5l0.2-0.3c-0.2-0.2-0.2-0.8-0.2-1
			C938.6,294.5,938.8,293.9,938.8,292.9z M943.9,281.5c0,0,0.2-0.2,0.2-0.3C944,281.4,944,281.5,943.9,281.5
			c-0.2,0.8-0.6,1.3-0.5,1.9c-0.2,0.2-0.2,0.2-0.2,0.3v-0.3C943.6,283.1,943.7,282.5,943.9,281.5z M947.4,290.3V290v-0.2l-0.2,0.2
			C947.4,290,947.4,290.2,947.4,290.3z M947.6,289.7c0-0.2,0-0.2,0.2-0.3c-0.2,0-0.3,0-0.3,0v0.3H947.6z M949.6,283.1h0.2
			c-0.6,1.4-1.3,2.6-1.8,4c0,0-0.2,0.6-0.5,1.8c0.8-0.5,1.4-0.3,1.9-1c1.3-4,3-8.3,4.8-12.3c0.2-0.3,0.2-0.5,0-0.6
			c0-0.2,0.3-0.8,0.5-1c0.5-1,1-2.4,1.3-4.2c0.2-0.8,0.2-1.3,0.2-1.4c-0.5,0.5-0.6,0.6-0.6,0.8c-0.5,0.8-0.8,1.9-1,3.4
			c-0.3,1-0.5,1.3-0.5,1.1c-0.2,0.2-0.3,0.5-0.3,1l-0.6,0.5L949.6,283.1z M957.2,266.5c0,0,0.2-0.5,0.3-1.4c-0.5,0.5-0.8,0.8-1,0.8
			c-0.2,0.2-0.3,0.8-0.5,1.9L957.2,266.5z M957.5,321.2c0,0,0.3-0.5,0.8-0.6c0-0.2-0.2-0.3-0.3-0.5c0,0.2-0.2,0.3-0.2,0.3
			c-0.5,0.5-0.3,0.8-0.3,1c-0.5,0.2-0.6,0.8-0.8,1.6l-0.6,0.8c0,0,0,0.5,0.2,0.5l0.3-0.3c0-0.2,0.2-0.3,0.2-1
			C956.8,322.5,957.3,321.8,957.5,321.2z M960.7,312.9c-0.8,1.4-1.6,3.8-2.7,6.9v0.3c0,0,0.6-0.2,0.8-0.3c0.6-2.6,2.2-4.8,2.4-7.2
			c0.3-0.3,0.5-0.5,0.5-0.5c-0.2,0.2-0.2,0.3-0.2,0.5C961,312.7,960.7,312.7,960.7,312.9z M964,305.2c-1.4,1.6-1.8,3-1.3,4.2
			c-0.5,0.5-0.6,1-0.6,1.1c0,0.3-0.2,0.6-0.6,1.1v0.3c-0.2-0.2-0.2-0.2,0-0.3c0.2-0.2,0.5-0.6,0.6-1.1c0-0.2,0.2-0.6,0.6-1.1
			C963.9,307.9,964.2,306.5,964,305.2c-0.2,0.2,0-0.2,0.2-1.3c0.2,0,0.2-0.2,0-0.5c0.2,0.2,0.2,0.5,0.2,0.5L964,305.2z M965.6,316.1
			l-0.2,0.2h0.3L965.6,316.1z M976.7,303.3c0,0,0,0.3-0.2,0.8c-0.2,0.2-0.5,0.6-0.8,1.4L976.7,303.3z M980.4,354.2
			c0,0.5,0.2,0.6,0.8,1.3c0,0,0,0.2,0.2,0.2c0.2,0,0.3-0.2,0.5-0.5c-0.2-1.1-0.3-2.2-0.3-3.4c0.2-1.4,0.2-3.7,0.3-6.7
			c0.2-1.8,0.2-3.4,0.2-4.6c0.2-1.4,0.5-2.6,0.8-3.4c0.2-0.8,0.2-1.3,0.2-1.6c0-0.6,0.3-1.6,1-2.7c0,0,0.2-0.5,0.5-1.4
			c0.5-1.4,0.6-1.9,0.5-1.4c-0.2-0.8-0.2-2.2,0.2-4.5c0.3-2.4-0.5-0.6-2.2,5c-0.6,1.3-1.1,2.7-1.4,4.5c-0.5,0.8-0.6,1.3-0.6,1.8
			c-0.3,1.9-0.6,4.5-0.8,7.5c-0.5,2.6,0.2,5.1-0.3,7.2c0.5,1.3,0.6,2.2,0.6,2.9H980.4z M990.3,286.7c0-0.2,0.2-0.5,0.3-1
			c-0.2,0-0.3,0-0.3,0c-0.2,0.2-0.2,0.5-0.2,1H990.3z M1013.8,261.1c-0.8,2.1-2.6,4.3-3.8,6.4l0.2,0.3c0.5-0.2,0.6-0.3,0.6-0.3
			c2.4-3,3.7-5.4,3.8-6.9c0,0,0.2-0.2,0.2-0.3c0,0.2,0,0.2-0.2,0.3C1013.9,261.1,1013.6,261.2,1013.8,261.1z"/>
		<path class="st7" d="M1027.5,315.8c1.8-2.2,2.6-3.8,2.7-4.8v0.3c0.8-0.5,0.8-1.3,0-2.2v0.2c1.4-3,3.4-5.8,5.1-8.8l0.2-0.5l3.5-3.7
			c1.1-1.1,1.9-2.6,3.2-4c0.6-0.8,1.3-1,1.9-0.3c2.1,1.4,3.5,2.7,4.3,3.7c0.5,0.6,0.6,1.4,0.5,2.6c0,0.5-0.3,1.8-0.8,3.5l-1,1.6
			c-6.2,8.2-9.9,17.3-13,26.7c-2.1,7.2-4.8,14.1-7.4,21c-0.6,2.6-1.9,4.6-2.7,7c-1.3,3.4-3.2,6.1-5,8.8c-1.8,2.6-4.5,5.1-8.2,7.5
			c-0.6,0.5-2.1,1.1-4.5,1.6c-5,0.8-9.4-0.2-13.6-2.9c-3.5-2.1-6.4-5.1-8.6-9c-1.3-2.1-1.4-4.3-0.5-6.7c0.2,0,0.5-0.5,0.5-0.6
			c0.2,0.2,0.3,0.5,0.3,0.8l0.5,1.9c0.8,4.3,3.7,7.2,8.6,8.6c6.6,1.9,12,0.3,16.3-5c2.7-3.2,5.3-8,7.7-14.2
			c1.9-5.1,3.5-10.7,5.4-16.3c0.8-3,1.9-5.6,3.2-8.6c0,0-0.2-0.3-0.2-1c-0.5,0.5-0.6,0.6-0.6,0.5c-2.1,3-3.4,5.1-3.8,6.2
			c-1.1,2.7-3.5,5.4-7.2,8.2c-2.7,2.1-5.1,1.8-7.4-1.3c-2.1-2.7-3-5.4-3-8.5c0.2-5.9,1.6-11.8,4-17.9c1.9-4.5,4.5-8.5,6.6-13
			c1.3-2.1,2.9-4.6,2.9-7.7c-0.2-0.8,1.1-1,1.8-0.8c2.4,2.2,4.3,4,5.4,5.3c0.8,1,1,2.2,0.3,4c-1.3,3-2.2,5.8-3.5,8.5
			c-1.4,3.2-2.9,5.8-4.2,8.8c-2.6,4-3.8,8.6-5.1,13.1c-0.2,0.2-0.3,1.3-0.5,3.7c0,0.5,0.2,0.8,0.5,0.8c0.5,0.3,1,0.2,1.4-0.3
			c2.2-2.1,4.5-5,6.9-8.6c1.4-2.6,3.2-4.6,5-7.2l-0.2-0.2c0.5,0.8,0.8,0.8,1.1,0l-0.2,0.2l1.1-1.1V315.8z M995.9,370.1h-1
			c0.5,0.2,0.8,0.3,1,0.3c0.6,0,1.3,0,2.1-0.2C997.1,370.1,996.5,370.1,995.9,370.1z M1015.1,360.7c0,0,0-0.2,0-0.3
			c-0.5,0-0.5,0.2-0.5,0.2c0,0.3,0,0.6-0.2,1c-0.2,0.2-0.5,0.6-1,0.8c-3.4,3.2-5.8,5.6-7,7c0,0.2-0.3,0.5-0.5,0.5l0.2,0.3
			c0,0.2,0.2,0.2,0.5,0.2c3.4-2.2,5.6-4.6,6.7-7.2c0,0,0-0.3,0-1c0.2-0.2,0.6-0.3,1.1-1C1014.4,361.2,1014.6,360.9,1015.1,360.7z"/>
		<path class="st7" d="M1099.8,299.6c2.1-4.6,5-9.6,7.7-14.7c2.1-4.5,5.4-8.6,7.5-13.3c3-5.8,5.6-11.5,7.5-17.8
			c1.4-4.8-0.5-6.6-5.6-5.4c-9,2.4-15,8.6-21.3,15.2c-7.7,8.2-10.6,17.6-14.2,27.2c-1.1,2.6-2.7,3.7-4.6,3.5c-3-0.2-4.2-1.6-3.4-4.5
			c2.4-6.4,4-13.1,7.8-18.9c5.3-9.1,12.6-17.6,22.4-23.3c5.9-3.7,11.8-5.3,17.4-4.6c7.5,1.3,12.5,6.1,10.1,14.2
			c-2.1,7.2-5.6,14.2-9,21.1c-5,9.6-10.2,19-15.2,28.6c-4,7.5-7.5,15-10.6,22.2c-1.9,4.6-3.2,8.6-4,11.8c-0.2,0.2,0,0.6,0.3,1.4
			c0.8-0.2,1.4-0.5,1.6-1c4.5-5.8,9.8-11.5,13.4-18.1c6.4-11,12.8-21.3,19.4-32.3c3.7-5.9,7.7-12.8,12.6-18.7
			c2.4-2.1,3.8-0.3,5.6,0.3c3,1.8,3.8,3.5,2.6,5.4c-1.1,1.4-2.2,2.7-3.7,4.2c-4.3,6.9-9.9,15.8-16.6,26.9c-6.7,11-9.3,20-7.5,27
			c0.8,3.7,2.9,4.2,6.6,1.3l13.1-10.7c0.8-0.5,1,1,2.1,0.3c0.2-0.5,0.5-0.8,1-1.4c-2.4,0.5-3.2,0.3-2.1-0.8c1.1-1.1,1.9-2.1,2.1-2.9
			c4.5-7.2,9.8-14.7,13.4-22.5c6.6-14.1,13.8-28.1,13.8-42.9c0-5.1,0.3-9.8-0.2-14.9c0-0.5,0.5-1.4,1.6-2.6c1.1-1.1,2.2-1.4,3.4-1
			l1.1,1.6c2.9,10.7,15.5,36.1,32.1,22.5c2.6,3-0.8,6.9-2.9,8.2c-2.2,1.9-6.4,2.4-12.3,1.4s-10.1-4.2-12.2-9.6
			c-2.1,8.8-5.3,18.1-9.4,27.7l-1,2.9c-1.8,3.8-2.1,4.2-3.5,7.5c-1.1,2.4-2.6,5-3.4,7.5c-1.8,3.8-2.9,6.1-3.7,6.6
			c-0.6,0.5-2.2,2.6-4.8,6.1c-5,7.5-10.2,13.9-17.8,19c-13.4,9-22.4,4.6-26.1-7c-0.6-1.9-0.5-4.3-0.5-6.9c-0.5-0.2-0.6-0.6-0.6-1.3
			c-0.8,0.5-1.3,1-1.4,1.1c-4.5,6.6-8.6,13-12.6,19.4c-1.9,3-4.3,4-7,2.6c-3-1.4-4.3-3.7-4-6.7c0.2-5.3,1.4-11,3.8-17.4
			c2.4-6.4,5-12.2,7.5-17.4C1096.9,303.9,1098.4,302,1099.8,299.6z M1078.6,280.7c0,0.5-0.2,0.6-0.2,1.1c0-0.5,0.6-0.5,0.8-1
			c1.9-3.7,4.6-6.9,4.5-11.2c1.1-1.3,2.4-2.6,3.8-3.8l-0.2-0.3c-1,0.8-2.1,2.2-3.5,4.3C1082.1,273.6,1080,276.9,1078.6,280.7z
			 M1089.4,263.2c0.5-0.6,0.8-1.1,1-1.6l1.1-1.3c0.3-0.3,0.6-0.6,1-0.8l1.8-2.1v-0.2l-1.8,2.1c-0.6,0.6-1,0.8-1,0.8
			c-0.5,0.8-1,1.3-1.1,1.4c-0.8,1.1-1.1,1.6-1,1.4V263.2z M1090.5,323.6l0.2-0.2c0,0,0-0.3,0-0.5
			C1090.5,323.1,1090.5,323.3,1090.5,323.6z M1092.9,318.7c0-0.5-0.2-0.5-0.2-0.6h-0.2c-0.8,0.5-1.1,1.3-1,2.1c0,0,0,0.2,0.2,0.2
			c0,0,0.2,0,0.2-0.2L1092.9,318.7z M1095.2,311.8c0,0,0.2,0.2,0.3,0.2c0,0.3,0,0.5,0,0.5c0,0.2,0.2,0.3,0.5,0.5
			c0-0.2,0.3-0.3,0.5-1h-0.8h-0.3L1095.2,311.8z M1096.3,255.2l-0.2-0.2L1096.3,255.2z M1100.3,305.9c0,0-0.2-0.5-0.2-0.6
			c-0.3,0-0.5,0-0.5,0.2c-0.3,0.2-0.6,0.8-0.8,1.8c-0.2,0.3-0.3,0.6-0.8,1c0,0,0.3,0.3,0.5,0.3c0,0,0.2,0,0.2-0.2
			c0-0.2,0.2-0.5,0.2-1.1C1099.7,307,1100.1,306.7,1100.3,305.9z M1103.5,299.1c0,0,0,0.2,0.2,0.2s0.3,0,0.3-0.2
			c0.2-0.6,0.3-1.9,0.8-3.7c0,0,0.3,0,0.5-0.5c0-0.2,0-0.3-0.2-0.5c0,0.2-0.2,0.3-0.2,0.3c0,0.3,0,0.5-0.2,0.6
			C1104.1,295.9,1103.7,297.1,1103.5,299.1z M1106.7,293.1c0.8-1.8,1.4-2.9,1.9-3.5c1.8-1.9,2.2-4.5,3.4-6.6c-0.2,0.2-0.3-0.2-0.3-1
			c-0.5,0.2-0.6,0.3-0.6,0.5c-1.3,1.9-1.9,4.2-3,5.6c-1.1,1.4-1.3,3.4-1.9,4.8c0,0,0,0.2,0.2,0.2
			C1106.2,293.1,1106.5,293.1,1106.7,293.1z M1108.5,296.3c0,0.5,0,0.3,0,0.3s0.2,0,0.3,0C1108.6,296.4,1108.6,296.3,1108.5,296.3z
			 M1116.8,280.3h0.3c0,0,0.2-0.3,0.3-0.5l-0.2-0.2L1116.8,280.3z M1122.1,271h-0.2l-0.2,0.2l0.2,0.2
			C1122.1,271.2,1122.1,271.2,1122.1,271z M1144.3,327.6c0,0.2,1.1,0.3,1.1,0.3s0.2-0.2,0.3-0.2
			C1145.6,327.8,1144.3,327.6,1144.3,327.6z M1155.8,310.5c-0.6,0-0.8-0.2-0.6-0.3c1.8-2.7,3.5-8.6,6.7-12.3l0.6-1.1
			c0.2-0.3,0.2-0.6,0.2-1.1c-1.1,1.4-1.6,2.2-1.6,2.2c-2.4,4-4.3,8.2-6.7,12.5v-0.2c0,0.2-0.5,0.8-1.4,2.2c-1,1.4-1.3,2.1-1.1,2.1
			s1.4-2.4,2.6-3.2c0.5-0.5,1-0.6,1.3-0.6L1155.8,310.5z M1165.2,289.9c0,0.2,0,0.2,0,0.2c-0.2,0.2-0.2,0.3-0.3,0.3
			c0,0-0.3,0.5-0.8,1.4c-0.2,0-0.2,0-0.2-0.2c0.2-0.5,0.6-0.6,1.1-1.1C1165.1,290.5,1165.2,290,1165.2,289.9z M1168.3,280.7v2.2
			l1.3-2.4l2.1-5.8c1.1-5.8,2.1-11.2,3.4-17.1c0,0-0.2-0.3-0.5-1.1c-0.5,0.5-0.6,1-0.6,1.1c-1.4,7.7-3.2,15.4-4.6,22.9
			C1168.7,280.6,1168.4,280.7,1168.3,280.7z"/>
		<path class="st7" d="M1183.8,322.3c-0.8-1.1-1-1.9-0.2-2.6c0-0.2,0.3-0.8,0.8-1.6c3.2-5.3,5.4-11.5,6.7-18.7
			c0.8-5-0.2-9.4-2.7-13.4c-0.5-0.8-1.1-1.9-1.9-3.7c-0.3-0.6-0.3-1.4,0.2-2.6c0.5-1,1-1.1,1.3-0.3c1.1,1.8,3,2.7,5.4,3.2
			c1.4,0.3,2.6,1.3,3.5,2.9c0.8,2.1,1.8,4.8,3,6.9c0.2,0.2,0.2,0.3,0.2,0.8c-0.5,3.2,0.2,6.4-0.3,9.4c-1.6,7.5-5,14.9-9.9,21.8
			l-3.2,4.2c-2.6,3.7-6.4,5.6-10.1,7.5c-2.4,1.1-4.5,0.8-6.6-1.3c-2.7-2.7-4.2-6.1-4-10.4c0.5-6.7,1.9-13.3,4.5-19.8
			c0.6-1.6,1.8-3.8,3.5-6.7c1.4-3,4.3-4.8,7-6.9c0.8-0.6,2.1-0.6,3.7,0l2.4,1.4c1.1,1.1,1.1,2.1,0.3,3.2c-0.8,0.8-1.9,1.9-3.4,3
			c-1.1,1.1-1.6,2.1-1.8,2.9c-0.2,0.5-0.6,1.4-1.8,2.7c-2.7,3.7-4.6,7.7-5.6,12c-1.3,4-2.4,8-2.4,12.3v1.8c0,0.8,0.3,1,1.1,0.8
			l1.9-1c3.4-1.3,5.6-4.6,6.9-7.4c3.7-0.6,5.1,0.8,5.9-2.4c0,0-0.6-0.5-0.8-0.5c-0.5,0-1,0.2-1.4,0.5c-1.1,0.5-1.1,1.9-2.6,1.9
			H1183.8z M1195.8,299.6c-0.3-0.2-0.6,0-0.8,0.2c-0.3,0.8-0.5,1.1-0.5,1.1c0,1-0.3,2.4-1.1,4.2c-1.1,2.1-1.9,4.5-2.6,6.6
			c0,0.5,0.2,0.8,0.3,0.8c0,0,0.2,0,0.6,0c1.1-0.5,1.8-1.4,2.2-2.7c1-3.8,1.8-6.7,2.4-8.8c0-0.2-0.2-0.3-0.2-1
			C1196.1,299.8,1195.9,299.6,1195.8,299.6z M1192.6,286.2l0.2-0.2h-0.2V286.2z M1196.3,294.5c0-0.2-0.2-0.3-0.3-0.5
			c0,0-0.2,0.2-0.5,0.6c0,0.5,0.2,0.6,0.3,0.8c0,0.5,0.2,0.6,0.2,0.6l0.3-0.5C1196.3,294.8,1196.3,294.5,1196.3,294.5z"/>
		<path class="st7" d="M1211.3,319c3.2-4.5,6.2-8.6,9.9-13c1.9-2.2,3.8-5.6,5.8-9.9c1.9-4.3,4-8.3,6.4-11.7c0.8-1.4,2.1-1.6,3.5-0.5
			l2.7,2.7c1.1,0.8,1.4,2.1,1.1,3.7l-1.4,2.6c-0.8,0.8-1.6,1.8-2.2,2.9c-1.6,2.2-3,5.8-4.3,10.4c-1.1,4.6-0.2,7.8,3,9.3
			c0.6,0.5,0.8,1,0.5,1.4c-0.5,1-0.8,1.6-1.3,2.1c-0.8,0.8-1.6,1-2.4,0.2c-3.2-1.8-7.7-5.6-8.5-9.4c-0.5-1.4-1.3-1.4-2.1-0.2
			c-1.8,2.4-3.4,4.5-4.8,6.9c-0.8,1.3-2.2,3.4-4.3,6.1c-4.3,5.6-8.2,10.9-11.5,15.7c0,0-0.2,0.2-0.3,0.3c-0.6,0.8-0.3,2.6-2.1,2.7
			c-1.4-1.3-3.5-1-4.6-3.4c0-0.5-0.2-1-0.3-1.3c-0.8-1-1-2.2-0.3-4c1.3-3,2.4-6.2,3.7-9c3.4-6.6,6.2-13.6,9.6-20.6l7-15
			c0.5-1.4,1.3-1.6,2.4-0.8c1.3,1.1,2.4,1.9,3.8,2.6c1.6,1.4,2.2,2.9,1.8,4.5c-0.3,0.8-0.8,1.8-1.6,2.9l-9.1,18.2
			c-1.1,2.4-1.4,4.2-1.3,5c-0.2,0-0.3,0-0.3,0l-0.3,0.2c0.3,0,0.5-0.2,0.5-0.3C1210.7,319.6,1211.1,319.1,1211.3,319z M1200.6,329.2
			c0.6-0.2,1-0.6,1-1.8c0.3-0.5,0.5-0.6,0.5-0.6s-0.2-0.3-0.2-0.5c0,0.2-0.2,0.3-0.2,0.3c0,0.5,0,0.8-0.2,1c-0.5,0.3-0.8,1-0.8,1.8
			c-0.5,0.3-0.8,1-0.8,1.9c-0.3,0.2-0.5,0.5-0.6,0.8c0,0,0,0.2,0,0.3c0,0,0.3-0.2,0.3-0.3c0,0,0-0.5,0-1
			C1200.6,331.1,1200.9,330.5,1200.6,329.2z M1203,324.4v-0.2h-0.2L1203,324.4z M1208.4,311.1c2.2-5.3,3.5-8,3.7-8.2
			c0,0-0.3-0.6-0.3-0.8c-0.2,0.3-0.3,0.5-0.3,0.6C1211.5,303,1210.5,305.9,1208.4,311.1c-2.1,5.3-3,7.8-3,8
			c-0.2,0.2-0.5,0.3-0.6,0.6c0,0.2,0,0.6,0,0.6s0.3-0.3,0.5-0.5c0,0,0-0.6,0-0.8S1206.3,316.4,1208.4,311.1z"/>
		<path class="st7" d="M1276.4,289.7c0.3,0,0.6,0.2,1,0.3c0.8,1.1,1.1,2.4,1.1,3.5c0.2,4-0.5,7.5-1.8,10.6c-1.1,3-2.4,5.4-3.7,8
			c-1.4,3.4-3.7,6.2-6.4,9c-1.4,1.4-3.2,2.7-5,3.8c-1.8,1.1-3.4,1.4-5.1,0.8l0.2,0.5c-0.2,0.2-0.2,0.3-0.2,0.6
			c0.5,4.8,1.4,9.6,3,14.2c0.3,1.8,1.8,4.2,4.3,7.4c0,0.2,1,0.5,2.7,0.8c0.6,0,1,0.3,1,1c0,0,0,0.6,0,1.8c-0.5,2.6-1.6,3-3.4,1.6
			c-2.6-1.8-4.3-3.4-5.4-5c-4.5-4.8-6.9-10.6-7.4-17.3c-0.5-1.8-0.5-3.5-0.5-5.6c0-0.5-0.3-1-1.1-1.8c-0.3-0.2-0.6-0.2-0.8,0
			c-0.3,0.2-0.8,0.8-1.3,1.6l-6.9,10.7c-0.8,1.3-1.6,1.6-2.7,1c-1.4-0.5-2.4-1.3-2.7-2.4c-0.8-1.1-1.1-1.6-1-1.4
			c-0.6-0.8-0.8-2.2-0.5-4.2c1.1-1.8,1.8-3.5,2.1-5.3l0.2,0.2c0,0,0.2-0.3,0.2-0.5c0.8-0.2,1-0.6,0.6-1.6c0-0.2,0-0.2-0.2-0.3
			c1.4-4,2.6-6.9,3.2-9l7.2-17.3c3-6.6,6.1-13.6,9.4-20.2c2.1-5,4.6-9.8,7.2-14.7c0.2-0.5,0.6-0.6,1.3-0.5c2.1,0.5,3.8,2.1,5.6,4.8
			c0.5,0.8,0.6,1.4,0.5,1.9c-0.6,2.1-1,3.4-1.1,3.5l-4,7.5c-5.3,9.6-9.4,19.5-13.4,29.1c-1.8,3.4-2.9,5.9-3.7,7.7
			c-0.8,1.9-1.1,3.4-0.8,4.2c-0.2-0.2-0.2-0.2-0.2-0.2c1.8-2.4,3.4-4.8,5.3-7.2c5-6.6,10.9-15.2,16.8-21.6c1.4-1.3,3-1.4,5-0.5
			C1275.4,289.9,1275.9,289.9,1276.4,289.7z M1236.4,323c0,0.2,0,0.6,0,0.6c0,0.2-0.2,0.2-0.2,0.2L1236.4,323z M1240.4,319.9v0.2
			h0.2L1240.4,319.9z M1241.8,317.5c0.2-0.2,0-0.3-0.2-0.6l-0.5,0.5v0.6c0,0.5,0,0.8-0.2,0.6c0,0,0.2-0.5,0.2-0.6
			C1241.7,317.7,1241.8,317.5,1241.8,317.5z M1252.2,288.3c-0.3,0.2-0.5,0.6-0.5,1.4c0,0.2-0.2,0.2-0.3,0.2c-1.3,1.6-2.2,3.5-3,5.9
			c0,0.5,0.2,0.8,0.2,1.3c-0.8,0.2-1.3,0.8-1.4,1.9c-1.8,4.3-3.5,8.3-5.4,12c0,0.5,0.2,0.8,0.2,0.8c0.3,0,0.5,0,0.6-0.2
			c0.8-1.3,1.1-1.8,1.1-1.4c1.4-3.8,3.2-7.5,4.6-11.2c0-0.6,0.2-1.1,0.3-1.9c2.1-1.9,3.2-4,3.4-6.4c0-0.2-0.2-0.5-0.2-1
			C1252.4,289.5,1252.6,289.1,1252.2,288.3c1.1-0.5,1.8-1.3,1.6-2.4C1252.7,286.2,1252.2,287,1252.2,288.3z M1243.1,314.3h-0.2v0.2
			L1243.1,314.3z M1243.4,312.9l0.2-0.2h-0.2V312.9z M1244.7,309.4l-0.2,0.2l0.2,0.2V309.4z M1245.8,306.7l0.2-0.2l-0.2-0.2V306.7z
			 M1246.6,305.1c-0.2,0,0-0.2,0.3-0.6c0,0,0.2-0.3,0.2-0.5c-0.2-0.2-0.2,0-0.2,0.5C1246.8,304.6,1246.6,305.1,1246.6,305.1z
			 M1247.8,302.3l0.2,0.3v-0.3H1247.8z M1249,299.9l0.2,0.3v-0.5L1249,299.9z M1250.8,296.3c0,0,0.8,0.2,0.2-0.5
			C1251,295.9,1250.8,296.3,1250.8,296.3c-0.5,0.3-0.6,1-0.6,1.8c0,0.5-0.2,0.6-0.3,0.5c0,0,0.3-0.3,0.3-0.5
			C1250.6,298,1250.8,297.4,1250.8,296.3z M1251.4,320.2c-0.5-0.8-0.2-1.1,0.8-1.1c1.8,0,2.6,0,2.6,0c1.4,0,2.1,0,2.1,0.2
			c0.8-1.3,2.7-0.6,2.9-2.4c0.3-0.5,0.6-0.6,0.8-0.8c3.8-4,5.3-5.4,7.4-10.1c1.4-2.7,3.4-5.9,4-9.8c0.5-1.1,0.6-2.4,1.1-3.8
			c0-0.2,0-0.2-0.2-0.3l-0.2-0.2c-1,0.8-1.6,1.3-2.1,1.4l-0.5,0.8l-4.5,5.3c-2.4,3-6.1,7.5-8.2,10.6c-2.4,3.4-4.2,6.7-6.6,9.9
			c0,0.2,0.2,0.6,0.2,0.6s0.3,0,0.5,0C1251.6,320.4,1251.6,320.4,1251.4,320.2z M1253,291.9c-0.2,0.2-0.3,0.5-0.3,0.5
			c-0.5,0.5-0.8,0.8-0.8,0.8c-0.2,0.2-0.5,0.5-0.5,0.5c0,0.5,0.2,0.6,0.2,0.6c0.2,0,0.3-0.2,0.3-0.3c0,0,0-0.3,0-0.8
			c0,0,0.3-0.3,0.8-0.8C1252.9,292.3,1253,292.1,1253,291.9z M1253.8,290.5l-0.3-0.2v0.2H1253.8z M1254.3,288.9v-0.2h-0.2
			L1254.3,288.9z M1255.1,323.4c2.9-1.3,4.6-2.7,5.4-4.3c1.4-0.6,2.6-1.4,3.4-2.2l0.2-0.3c-0.5,0-0.6,0-0.6-0.2l-2.2,1.1
			c-0.5,0.2-0.6,0.8-0.6,1.6c-0.6,0-1.3,0.3-2.1,1c-1.8,1.1-3,1.9-4,2.4L1255.1,323.4z M1254.8,287.1v0.2h0.3L1254.8,287.1z
			 M1255.1,320.1l-0.3,0.2l0.3,0.2V320.1z M1255.8,285.2c0,0-0.8,0.3-0.2,0.5c0,0,0.2-0.5,0.2-0.6c0.5,0,0.8-0.5,0.8-1.4
			c0.3-0.2,0.5-0.6,0.5-1.6c0.5-0.2,0.8-0.6,0.6-1.8c1-0.2,1.4-1,1.3-2.4c0.5,0,0.6-0.5,0.6-1.4c0.5-0.2,0.6-0.6,0.6-1.6
			c0.2-0.2,0.3-0.5,0.3-0.6c-0.2,0.5-0.3,0.6-0.3,0.6c-0.6,0.2-0.8,0.8-0.6,1.6c-0.8,0.3-1,0.8-0.5,1.4c-1.3,0.6-1.8,1.4-1.4,2.4
			c-0.5,0.3-0.6,1-0.6,1.8c-0.6,0.3-0.8,0.8-0.5,1.6C1256.1,283.8,1255.8,284.3,1255.8,285.2z M1261.2,272.9l0.2-0.2h-0.2V272.9z
			 M1261.7,271.2l0.2,0.2v-0.2H1261.7z M1262.9,267.8v0.2h0.2L1262.9,267.8z M1269.5,310.3c1.6-2.1,2.4-4,2.2-6.1
			c0.5-1,0.8-1.3,0.8-1.1c1-2.4,1.9-5.1,2.9-8.2c0,0-0.2-0.5-0.2-0.6c-0.3,0.3-0.5,0.5-0.5,0.3c-0.8,2.1-1.8,4.5-2.4,6.9
			c-0.5,1.1-0.8,2.1-0.6,2.7c-1,1-1.4,1.3-1.3,1.1L1269.5,310.3c-0.5,0.2-0.6,0.6-0.6,1.4c-0.5,0.2-0.6,0.5-0.8,0.8
			c-1.3,0.8-2.1,1.6-2.2,2.6c0,0.3,0.2,0.5,0.3,0.5c0,0.5,0.2,0.5,0.5,0c0.8-1,1.3-1.9,1.4-3c0.2-0.3,0.3-0.6,0.8-0.8
			C1269.3,311.6,1269.5,311.1,1269.5,310.3z"/>
	</g>
</g>
</svg>
