<?xml version="1.0" encoding="utf-8"?>
<!-- Generator: Adobe Illustrator 22.1.0, SVG Export Plug-In . SVG Version: 6.00 Build 0)  -->
<svg version="1.1" id="Layer_1" xmlns="http://www.w3.org/2000/svg" xmlns:xlink="http://www.w3.org/1999/xlink" x="0px" y="0px"
	 viewBox="0 0 2175.8 545.5" style="enable-background:new 0 0 2175.8 545.5;" xml:space="preserve">
<style type="text/css">
	.st0{fill:#7BE3FF;}
	.st1{fill:#F2FF7C;}
	.st2{fill:#38E1DA;}
	.st3{fill:#FFFFFF;}
	.st4{fill:#4CB2E5;}
	.st5{display:none;}
	.st6{display:inline;}
	.st7{fill:none;stroke:#FFFFFF;stroke-width:1.1215;stroke-miterlimit:10;}
	.st8{opacity:0.2;fill:#F2FF7C;enable-background:new    ;}
	.st9{display:inline;fill:#215064;}
	.st10{font-family:'NovithaScript-Demo';}
	.st11{font-size:160px;}
	.st12{fill:#215064;}
</style>
<g id="Layer_2_1_">
	<rect x="-4.1" y="0" class="st0" width="2182.8" height="450.3"/>
	<g>
		<circle class="st1" cx="1621.6" cy="327.5" r="81.9"/>
	</g>
	<rect x="-4.1" y="389.1" class="st2" width="2182.8" height="156.4"/>
	<g>
		<g>
			<g>
				<path class="st3" d="M1638.7,416.6c-0.1,0.1-0.6,0.1-1.4-0.1c-0.4-0.1-1-0.2-1.6-0.4c-0.6-0.1-1.3-0.2-2.1-0.4
					c-3-0.6-7.3-1-12.1-0.9c-9.5,0.2-17.1,2.3-17.2,1.7c-0.1-0.3,1.7-1.1,4.8-2c3.1-0.8,7.5-1.7,12.4-1.8c4.9-0.1,9.4,0.6,12.4,1.5
					c0.8,0.2,1.5,0.5,2.1,0.7c0.6,0.3,1.1,0.5,1.5,0.7C1638.4,416.2,1638.8,416.5,1638.7,416.6z"/>
			</g>
		</g>
	</g>
	<g>
		<g>
			<g>
				<path class="st4" d="M647.6,65.7c-0.1,0,0-0.6-0.3-1.3c-0.2-0.4-0.5-0.8-1-1.1s-1.2-0.5-2-0.7c-0.8-0.1-1.7-0.2-2.6,0
					c-0.9,0.2-1.9,0.5-3,0.9c-1,0.4-2.1,1-3.1,1.7c-0.5,0.3-1,0.7-1.6,1.1l-0.6,0.5l-0.8,0.7c-0.5,0.5-1.1,0.9-1.6,1.4
					c0.1-0.6,0.2-1.3,0.3-1.9c0-0.3,0-0.5,0.1-0.8c0-0.3,0-0.5,0-0.7c-0.1-0.5-0.2-0.8-0.3-1.2c-0.3-0.8-0.7-1.5-1.4-2
					c-1.1-1.1-2.6-1.6-4.1-2c-1.5-0.3-3-0.5-4.5-0.5c-2.9,0-5.4,0.7-7.5,1.5c-4.1,1.6-6.3,3.4-6.5,3.2c-0.1-0.1,1.8-2.3,6-4.3
					c2.1-1,4.8-1.8,7.9-1.9c1.6-0.1,3.2,0.1,4.8,0.4c1.6,0.4,3.4,1,4.8,2.4c0.8,0.7,1.4,1.7,1.8,2.7c0.2,0.5,0.3,1,0.3,1.5l0,0l0,0
					l0,0l0,0l0.2-0.1c0.6-0.4,1.1-0.8,1.7-1.1c1.1-0.7,2.3-1.3,3.4-1.7c1.1-0.4,2.3-0.7,3.3-0.9c1.1-0.1,2.1,0,3,0.2s1.7,0.5,2.3,1
					c0.6,0.4,1,1,1.1,1.6C648,65.2,647.6,65.8,647.6,65.7z"/>
			</g>
		</g>
	</g>
	<g id="umbrella_2_">
		<g class="st5">
			<g class="st6">
				<g>
					<path class="st4" d="M331.4,527.4c-0.1-0.1,0.9-2.1,3.2-5.9c2.2-3.8,5.6-9.3,10-16.4c2.2-3.6,4.7-7.5,7.4-11.9
						c2.6-4.4,5.5-9.2,8.6-14.4s6.5-10.8,10-16.7c3.5-6,7.2-12.3,11.1-19c15.5-26.8,33.8-59.5,52.8-97.6c2.3-4.8,4.7-9.6,7.2-14.5
						c1.2-2.5,2.4-4.9,3.7-7.4c1.2-2.5,2.4-5,3.6-7.6c2.4-5.1,4.9-10.2,7.3-15.5s4.8-10.6,7.2-16c2.4-5.4,4.7-10.9,7.2-16.5
						c2.4-5.6,4.7-11.2,7.1-16.9c1.1-2.9,2.3-5.8,3.4-8.7c1.2-2.9,2.3-5.8,3.4-8.8c1.1-2.9,2.3-5.9,3.3-8.9l0.8-2.2l0.4-1.2l0.7-2
						c1-2.8,1.9-5.6,2.9-8.4c4.1,4.2,8.3,8.5,12.5,12.8c1.5,1.6,3.1,3,4.6,4.5c1.6,1.5,3.1,3,4.7,4.5s3.2,3,4.7,4.5
						c1.6,1.5,3.3,2.9,4.9,4.4c3.3,2.9,6.6,5.9,9.9,8.8c3.4,2.9,6.8,5.8,10.2,8.7c3.4,2.9,6.8,5.9,10.4,8.7
						c7,5.8,14.1,11.6,21.3,17.4c28.9,23.1,59.5,46.3,91.4,69.2c4,2.8,8.1,5.7,12.1,8.5c2,1.4,4,2.8,6,4.2c2,1.4,4,2.8,6,4.1
						c4,2.7,8,5.5,12,8.2s8.1,5.3,12.1,8c2,1.3,4,2.6,6,3.9s4,2.5,6.1,3.8c2,1.3,4,2.5,6,3.8l3,1.9l3,1.8c2,1.2,4.1,2.4,6.1,3.6
						s4,2.4,6.1,3.5s4.2,2.2,6.3,3.3l3.1,1.6l2.9,1.6c0.2,0.1,0.2,0.1,0.1,0.3l-0.2,0.4l-0.5,0.7l-0.9,1.4l-0.9,1.4
						c-0.3,0.5-0.6,0.9-0.9,1.4l-1.4,1.9l-1.2,1.4c-0.8,1-1.6,1.8-2.5,2.7c-0.8,0.9-1.7,1.7-2.5,2.6c-0.8,0.8-1.7,1.7-2.6,2.4
						c-3.5,3.2-7.1,6.2-10.7,9.1c-7.3,5.7-14.8,11-22.4,15.9c-15.1,9.9-30.6,18.6-45.9,26.5c-7.7,3.9-15.3,7.7-22.9,11.2
						c-7.6,3.5-15.2,6.9-22.7,10c-15,6.3-29.9,11.9-44.4,16.8c-3.6,1.2-7.2,2.4-10.8,3.6c-1.8,0.6-3.6,1.1-5.3,1.7
						c-1.8,0.5-3.6,1-5.4,1.6c-1.8,0.5-3.6,1.1-5.3,1.5c-1.8,0.4-3.6,0.9-5.3,1.3c-1.8,0.4-3.5,0.9-5.3,1.3
						c-1.8,0.4-3.5,0.8-5.3,1.1c-14,3-27.5,4.9-40.5,6.2c-26,2.5-49.6,2.4-70.2,1.3c-10.3-0.6-19.9-1.4-28.7-2.3
						c-8.8-0.9-16.8-2-24-3.1c-14.4-2.2-25.4-4.4-32.9-6.1c-3.7-0.9-6.6-1.6-8.4-2.1C332.4,527.9,331.4,527.6,331.4,527.4
						c0.1-0.2,4,0.5,11.5,1.8s18.6,3.1,33,4.9c7.2,0.9,15.2,1.7,24,2.5c8.8,0.7,18.3,1.3,28.6,1.7c20.5,0.8,43.9,0.5,69.6-2.2
						c12.8-1.4,26.2-3.4,39.9-6.5c1.7-0.4,3.4-0.8,5.2-1.2c1.7-0.4,3.4-0.9,5.2-1.3c1.7-0.5,3.5-0.9,5.2-1.4s3.5-1,5.2-1.5
						s3.5-1.1,5.3-1.6c1.8-0.6,3.5-1.2,5.3-1.7c3.6-1.1,7.1-2.4,10.7-3.6c14.3-5,29-10.6,43.9-17c7.4-3.1,14.9-6.6,22.4-10.1
						c7.5-3.6,15.1-7.3,22.6-11.2c15.1-7.9,30.3-16.6,45.2-26.4c7.4-4.9,14.8-10.1,21.9-15.7c3.5-2.8,7-5.7,10.3-8.8
						c0.8-0.8,1.7-1.5,2.4-2.3c0.8-0.8,1.6-1.6,2.4-2.4c0.8-0.8,1.5-1.6,2.2-2.5l1.1-1.3l0.7-0.9c0,0,0,0,0-0.1l0,0
						c-2.1-1.1-4.1-2.2-6.2-3.2c-2.2-1.1-4.1-2.3-6.2-3.5c-2.1-1.2-4.1-2.4-6.2-3.6l-3.1-1.8l-3-1.9c-2-1.3-4.1-2.5-6.1-3.8
						s-4.1-2.5-6.1-3.8s-4-2.6-6.1-4c-4-2.7-8.1-5.3-12.2-8c-4-2.7-8-5.5-12.1-8.3c-2-1.4-4-2.8-6.1-4.2c-2-1.4-4-2.8-6-4.2
						c-4-2.8-8.1-5.7-12.1-8.5c-32-22.9-62.7-46.2-91.6-69.5c-7.3-5.8-14.3-11.7-21.4-17.5c-3.5-2.9-7-5.9-10.4-8.8
						s-6.8-5.9-10.2-8.8c-3.3-3-6.7-6-10-8.9c-1.6-1.5-3.3-3-4.9-4.4c-1.6-1.5-3.2-3-4.8-4.6c-1.6-1.5-3.2-3-4.8-4.5
						c-1.6-1.5-3.2-3-4.7-4.6s-3-3.1-4.5-4.7l-0.7-0.7l-0.1-0.1l-0.2-0.2c-0.5,1.5-1.1,2.9-1.6,4.4c-1.1,3-2.3,6-3.4,9
						s-2.3,5.9-3.5,8.8s-2.4,5.8-3.5,8.7c-2.4,5.7-4.8,11.4-7.2,17c-2.5,5.6-4.9,11.1-7.3,16.5c-2.5,5.4-4.9,10.7-7.4,16
						c-2.5,5.2-5,10.4-7.4,15.5c-1.2,2.5-2.4,5.1-3.7,7.6c-1.3,2.5-2.5,5-3.7,7.4c-2.5,4.9-4.9,9.7-7.3,14.5
						c-19.5,38-38.2,70.5-54.2,97.1c-4,6.6-7.8,13-11.4,18.9c-3.7,5.9-7.2,11.4-10.4,16.5c-3.3,5.1-6.3,9.9-9,14.2
						c-2.9,4.3-5.5,8.2-7.8,11.7c-4.7,7-8.3,12.3-10.8,15.9C333,525.7,331.6,527.5,331.4,527.4z"/>
				</g>
			</g>
		</g>
		<g>
			<g>
				<path class="st7" d="M642.7,169.8"/>
			</g>
		</g>
	</g>
	<path class="st8" d="M1564,389.1c0,0-9.7-7.3-14.1,16.4c-3.5,18.7,2.9,9.8,20.7,21.2c16.9,10.8-6.5,26.1,12.7,23.2
		s54.7-16.5,71.1-26.1c16.4-9.5,11.4-20.8,36.8-16.4c25.3,4.4,15.6-18.3,0-18.3S1564,389.1,1564,389.1z"/>
	<path class="st3" d="M1937.5,251.3c9.8-14.7,35.2-15.5,50.7-12.3c4.1-23.7,36.8-34.3,39.2-4.1c8.2-4.1,18.8-4.9,22.1,4.9
		c10.6-3.3,20.3,3.7,28.4,11.1C2031,250.9,1937.5,251.3,1937.5,251.3L1937.5,251.3z"/>
	<path class="st3" d="M288.5,180.2c0-0.4,0.1-0.8,0.1-1.2c0-8.3-6.7-15-15-15h-0.8c-3.4-8.1-11.4-13.4-20.2-13.4h-1.3
		c-4.1-14.2-17.1-24.5-32.6-24.5c-16,0-29.5,11.1-33,26.1c-8.1,2.5-14.1,9.8-14.9,18.6c-1.7-0.5-3.6-0.8-5.4-0.8
		c-7.3,0-13.7,4.1-17,10.1L288.5,180.2L288.5,180.2z"/>
</g>
<g class="st5">
	<path class="st9" d="M1014.2,189.9c-0.5,0.6-1,1.6-1.4,2.9c-0.2,1.3-0.8,2.6-1.9,3.7c-1,1.4-1.9,3.5-2.7,5.9
		c-0.5,1.4-1,2.7-1.8,3.5c-3,3.4-4.5,9.6-5.9,13.4c-0.8,1.3,0.2,0.6-0.6,1.4c-0.5,0.8-1.1,1.6-1.6,2.6c-1.8,5-2.7,8.6-4.5,12.3
		c-5,16-8.6,30.5-4,40.8c0.6,1.4,0.3,2.6-1,3.4c-1.1,0.8-2.9-0.2-5-2.9c-3.7-5.1-5.6-11-5.9-17.9c-0.3-6.9,1.9-16.2,6.9-27.8
		c3.4-10.7,9-20.3,13.4-30.7c1.8-4.3,3.5-7.5,5.9-11.8c1.4-1.9,2.4-4.2,3.7-6.1c0,0,0.2-0.2,0.2-0.3l-0.2-0.2l1.3-2.9
		c0,0,0-0.2,0.2-0.2c1.8-3,3.2-6.1,4.6-9.1c0.2-0.8-0.5-1.6-1.3-0.5c-2.6,3.2-5.1,6.6-7.8,9.6h-0.8h0.8c-0.8,1.3-2.2,2.9-3.7,4.2
		c-0.2,0.2-0.2,0.3-0.3,0.3c-0.8,1.4-1.6,2.2-2.2,3.4c-0.2,0.5,0.8-0.8,3.2-3.5c2.4-2.9,3.5-4.2,3.4-3.7c-2.4,3.8-6.2,9.6-11.2,17.1
		s-8.8,13.1-11.5,16.8c-5.8,9.8-13.1,18.4-18.7,28.1c-1.1,1.9-1.9,3.4-2.2,4.2c-0.8,3.5-2.6,4.6-5.3,3.2c-1.8-0.8-4.6-3.7-3.8-6.1
		c1.1-6.1,3.2-12.5,5.9-19.4c4.5-10.9,10.1-22.4,15-33.4l2.2-5.3c0.5-0.8,1.1-2.4,2.1-5.1c1.8-3.8,1.6-4.6-0.6-2.6
		c-2.1,2.1-4.8,5.1-8,9.3s-6.2,8.3-9.3,12.6l-4.6,6.4c-6.4,9.6-11.7,20-17,29.7c-1.9,3.8-3.4,6.7-4.2,8.6c-0.8,1.8-2.2,4.3-4.3,7.7
		c-0.2,0.5-1.8,0.2-5.1-1c-3.4-1.1-4.3-3-3.2-5.8c0.6-3,2.1-5.4,2.9-8.2c0-0.6,0.3-1.1,0.8-1.8c0.2-0.5,0.3-1,0.8-1.3
		c1.4-4.6,4.5-10.9,6.2-15.5c1.1-5.1,3.4-8.5,4.2-13.6c0-0.2,0.5-1,1.6-2.7c1.1-1.8,1.6-2.7,1.6-3c0-1.8,0.2-2.9,0.5-3
		c0.3-0.2,1-1.3,1.8-3.4c0.8-1.9,2.4-4.3,3-6.7l0.6-1.6c0.6-1.3,1.4-3.4,1.6-4.6c1.9-3.7,2.4-7.2,3.2-11c0.5-2.4-0.8-3.2-3.7-2.2
		c-6.2,2.6-11.4,5.4-15.7,8.8c-1.1,0.8-1.3,0.8-0.6-0.3c0.8-1.1,0.6-1.4-0.2-0.6c-0.6,0.8,0.5,0.5-0.3,1.9l-5,4.5
		c-2.2,2.1-3.8,4-4.6,5.6c-0.3,0.3-0.3-0.3,0.2-1.8c0.5-1.4,0.8-2.4,0.8-2.9c-0.2,0-1.1,4.5-1.8,5.1c-7.5,9.8-13.1,20.8-17.8,29.3
		c-0.5,1.6-1.3,1-2.6-1.9c-1.1-3-1.4-5.6-1-7.7c0.8-1.3,1.3-0.5,2.1-2.6c0.3-0.8,0.2-0.6-0.5,0.5s-0.8,1.1-0.6,0.2
		c0.5-1.8,1.8-4.3,3.7-8l4.2-7.7l0.3-0.2c-0.5,0.2,0.2-0.6,0.2-0.6c1.1-1.1,2.1-2.2,2.9-3.4c0.5-0.8-0.5,1.1,0,0.6
		c0.5-0.6,2.6-4,3.4-4.8l0.6-1.3l2.1-1.6c5.9-5.9,12.8-10.7,20.8-14.4c2.1-0.8,4.6-1.6,7.4-2.4c7.2-1.4,11.8-0.8,13.6,2.2
		s2.1,7.4,0.8,13.1c-1.9,7.7-5.3,15.7-8.3,23.3c-4.5,9-8.5,18.4-12.5,27.2c-0.2,0.6-0.3,1.3-0.3,1.8c1-1.1,1.4-1.6,1.4-1.6
		c4-6.6,7.5-13.3,11.4-20.2c4.2-6.9,8-12.5,11.5-17.1c3.7-4.6,8.3-10.1,14.1-16c2.6-2.9,5.3-3.5,8.3-2.1c3.7,1.8,4.8,4.3,3.4,7.5
		c-0.8,2.7-1.6,4.3-2.2,5.1c-0.5,0.8-1.4,2.4-2.7,5c-4.3,10.9-9.3,21.6-13.6,32.5c-0.2,0.2-0.3,1-0.8,2.4c0.5-0.6,2.4-1,3-1.8
		l1.4-2.1c-0.5,0.5-0.6,1.3-0.8,2.2c0,0-0.2,0.2-0.6,0.6c0,0,0.2-0.2,0.6-0.2c0.8-0.8,1.4-1.9,2.1-2.7c1.8-2.7,3.2-5,4.5-7.7
		c0.3-0.2,1.1-0.8,2.4-2.1c0,0,0-0.5,0-1c-0.5,0.3-0.6,0.5-0.6,0.3c-0.2,0.5-0.8,1.3-1.6,2.7c0,0-0.3,0.2-1,0.6l5.3-7.4v0.2l0.2-0.2
		c0.2-0.2,0.2-0.2,0-0.2l1.8-2.6c0,0.3,0,0.5,0,0.5c0.3,0,0.6-0.2,0.8-0.3c-0.5,0.3-0.2-0.3,0.6-1.9c1.4-1,1.9-1.3,1.6-1.1
		c0,0-0.5-0.2,0-0.3c-0.2,0-0.5,0-0.6,0.2c-0.5,0.5-1,0.8-1,1.3l-1,1.3c6.6-9,13.3-18.6,20.2-27.7c2.2-3.5,4-6.1,5.3-7.7
		c2.1-2.1,5.8-3.8,7.7-1.4c3.4,3,4.5,5.8,3.7,7.8c-0.8,2.1-2.2,5.6-4.6,10.4l-0.5,0.2C1016,187,1015,188.9,1014.2,189.9z
		 M903.7,207.5c0,0,0,0.3,0.2,0.3c0,0,0.2,0.2,0.2-0.3s0-0.8,0.5-1.6l1.9-3c0.2-0.6,0.6-1.4,0.8-2.1c0.2-0.6,0.8-1.1,1.6-1.6
		c0.2-0.3,0.3-0.5,0.3-0.6c0-0.3,0.3-0.8,0.8-1.3l0.5-0.5c0,0,0.3-0.5,0.5-0.6c0-0.3,0.3-1,1-2.1c0.6-1.1,0-0.5-1.9,1.9l-1.6,1.6
		c-0.2,0.6-0.6,0.8-0.5,1c-0.8,1.4-1.8,2.2-2.4,3.5c-0.6,1.1-1.1,2.2-1.6,3.5c-0.2,0.5-0.3,0.8-0.2,1.3
		C903.7,207,903.7,207.5,903.7,207.5z M929.2,228.3c-0.5,0.2-0.6,0.5-0.6,0.8C928.7,228.6,929,228.3,929.2,228.3z M932.2,220.7
		c-1.1,0.6-1.6,1.4-1.8,2.2c0.2,0.2,0.2,0.3,0.3,0.3c0,0.5,0.3,0,0.3,0C930.9,222.7,932,221.9,932.2,220.7c0.5-0.3,0.6-1,0.6-1.8
		c0,0,0,0,0.2-0.5c-0.2,0.5-0.2,0.5-0.2,0.5C932.8,219.6,932.2,220.1,932.2,220.7z M935.4,212.7c0,0-0.5-0.5-0.5-0.6
		c0,0.2,0,0.5,0,0.5s-0.2,0.3-0.3,0.8c-0.5,0.5-0.6,1.1-0.5,1.9c-0.2,0.2-0.6,0.5-0.6,0.5l0.6,0.6c0,0,0.2,0,0.2-0.5
		c0,0-0.2-0.5-0.2-0.6c0.3-0.5,0.5-1.1,0.3-1.9L935.4,212.7z M935.2,234c-0.5,0,0,0.2,0,0.2c0,0.2,0.2,0,0.3-0.3
		C935.6,234,935.4,234,935.2,234z M936.2,210.2c0-0.3,0.2-0.5,0.3-0.5c0-0.2,0-0.3,0.2-0.5c-0.2,0.2-0.2,0.3-0.2,0.3
		C936.4,209.7,936.2,209.9,936.2,210.2z M938.3,204.1c1.1-0.6,1.4-1.6,1.3-2.9l0.2-0.3v0.3c-1,0.6-1.4,1.6-1.3,2.9
		c-0.5,0.5-0.6,1.1-0.8,1.8c-0.3,0.2-0.5,0.5-0.6,0.8c0,0,0.2,0.5,0.6,0.5l0.2-0.3c-0.2-0.2-0.2-0.8-0.2-1
		C938.1,205.7,938.3,205.1,938.3,204.1z M943.4,192.7c0,0,0.2-0.2,0.2-0.3C943.5,192.6,943.5,192.7,943.4,192.7
		c-0.2,0.8-0.6,1.3-0.5,1.9c-0.2,0.2-0.2,0.2-0.2,0.3v-0.3C943.1,194.3,943.2,193.7,943.4,192.7z M946.9,201.5v-0.3V201l-0.2,0.2
		C946.9,201.2,946.9,201.4,946.9,201.5z M947.1,200.9c0-0.2,0-0.2,0.2-0.3c-0.2,0-0.3,0-0.3,0L947.1,200.9L947.1,200.9z
		 M949.1,194.3h0.2c-0.6,1.4-1.3,2.6-1.8,4c0,0-0.2,0.6-0.5,1.8c0.8-0.5,1.4-0.3,1.9-1c1.3-4,3-8.3,4.8-12.3c0.2-0.3,0.2-0.5,0-0.6
		c0-0.2,0.3-0.8,0.5-1c0.5-1,1-2.4,1.3-4.2c0.2-0.8,0.2-1.3,0.2-1.4c-0.5,0.5-0.6,0.6-0.6,0.8c-0.5,0.8-0.8,1.9-1,3.4
		c-0.3,1-0.5,1.3-0.5,1.1c-0.2,0.2-0.3,0.5-0.3,1l-0.6,0.5L949.1,194.3z M956.7,177.7c0,0,0.2-0.5,0.3-1.4c-0.5,0.5-0.8,0.8-1,0.8
		c-0.2,0.2-0.3,0.8-0.5,1.9L956.7,177.7z M957,232.4c0,0,0.3-0.5,0.8-0.6c0-0.2-0.2-0.3-0.3-0.5c0,0.2-0.2,0.3-0.2,0.3
		c-0.5,0.5-0.3,0.8-0.3,1c-0.5,0.2-0.6,0.8-0.8,1.6l-0.6,0.8c0,0,0,0.5,0.2,0.5l0.3-0.3c0-0.2,0.2-0.3,0.2-1
		C956.3,233.7,956.8,233,957,232.4z M960.2,224.1c-0.8,1.4-1.6,3.8-2.7,6.9v0.3c0,0,0.6-0.2,0.8-0.3c0.6-2.6,2.2-4.8,2.4-7.2
		c0.3-0.3,0.5-0.5,0.5-0.5c-0.2,0.2-0.2,0.3-0.2,0.5C960.5,223.9,960.2,223.9,960.2,224.1z M963.5,216.4c-1.4,1.6-1.8,3-1.3,4.2
		c-0.5,0.5-0.6,1-0.6,1.1c0,0.3-0.2,0.6-0.6,1.1v0.3c-0.2-0.2-0.2-0.2,0-0.3c0.2-0.2,0.5-0.6,0.6-1.1c0-0.2,0.2-0.6,0.6-1.1
		C963.4,219.1,963.7,217.7,963.5,216.4c-0.2,0.2,0-0.2,0.2-1.3c0.2,0,0.2-0.2,0-0.5c0.2,0.2,0.2,0.5,0.2,0.5L963.5,216.4z
		 M965.1,227.3l-0.2,0.2h0.3L965.1,227.3z M976.2,214.5c0,0,0,0.3-0.2,0.8c-0.2,0.2-0.5,0.6-0.8,1.4L976.2,214.5z M979.9,265.4
		c0,0.5,0.2,0.6,0.8,1.3c0,0,0,0.2,0.2,0.2s0.3-0.2,0.5-0.5c-0.2-1.1-0.3-2.2-0.3-3.4c0.2-1.4,0.2-3.7,0.3-6.7
		c0.2-1.8,0.2-3.4,0.2-4.6c0.2-1.4,0.5-2.6,0.8-3.4c0.2-0.8,0.2-1.3,0.2-1.6c0-0.6,0.3-1.6,1-2.7c0,0,0.2-0.5,0.5-1.4
		c0.5-1.4,0.6-1.9,0.5-1.4c-0.2-0.8-0.2-2.2,0.2-4.5c0.3-2.4-0.5-0.6-2.2,5c-0.6,1.3-1.1,2.7-1.4,4.5c-0.5,0.8-0.6,1.3-0.6,1.8
		c-0.3,1.9-0.6,4.5-0.8,7.5c-0.5,2.6,0.2,5.1-0.3,7.2c0.5,1.3,0.6,2.2,0.6,2.9h-0.2V265.4z M989.8,197.9c0-0.2,0.2-0.5,0.3-1
		c-0.2,0-0.3,0-0.3,0c-0.2,0.2-0.2,0.5-0.2,1H989.8z M1013.3,172.3c-0.8,2.1-2.6,4.3-3.8,6.4l0.2,0.3c0.5-0.2,0.6-0.3,0.6-0.3
		c2.4-3,3.7-5.4,3.8-6.9c0,0,0.2-0.2,0.2-0.3c0,0.2,0,0.2-0.2,0.3C1013.4,172.3,1013.1,172.4,1013.3,172.3z"/>
	<path class="st9" d="M1027,227c1.8-2.2,2.6-3.8,2.7-4.8v0.3c0.8-0.5,0.8-1.3,0-2.2v0.2c1.4-3,3.4-5.8,5.1-8.8l0.2-0.5l3.5-3.7
		c1.1-1.1,1.9-2.6,3.2-4c0.6-0.8,1.3-1,1.9-0.3c2.1,1.4,3.5,2.7,4.3,3.7c0.5,0.6,0.6,1.4,0.5,2.6c0,0.5-0.3,1.8-0.8,3.5l-1,1.6
		c-6.2,8.2-9.9,17.3-13,26.7c-2.1,7.2-4.8,14.1-7.4,21c-0.6,2.6-1.9,4.6-2.7,7c-1.3,3.4-3.2,6.1-5,8.8c-1.8,2.6-4.5,5.1-8.2,7.5
		c-0.6,0.5-2.1,1.1-4.5,1.6c-5,0.8-9.4-0.2-13.6-2.9c-3.5-2.1-6.4-5.1-8.6-9c-1.3-2.1-1.4-4.3-0.5-6.7c0.2,0,0.5-0.5,0.5-0.6
		c0.2,0.2,0.3,0.5,0.3,0.8l0.5,1.9c0.8,4.3,3.7,7.2,8.6,8.6c6.6,1.9,12,0.3,16.3-5c2.7-3.2,5.3-8,7.7-14.2
		c1.9-5.1,3.5-10.7,5.4-16.3c0.8-3,1.9-5.6,3.2-8.6c0,0-0.2-0.3-0.2-1c-0.5,0.5-0.6,0.6-0.6,0.5c-2.1,3-3.4,5.1-3.8,6.2
		c-1.1,2.7-3.5,5.4-7.2,8.2c-2.7,2.1-5.1,1.8-7.4-1.3c-2.1-2.7-3-5.4-3-8.5c0.2-5.9,1.6-11.8,4-17.9c1.9-4.5,4.5-8.5,6.6-13
		c1.3-2.1,2.9-4.6,2.9-7.7c-0.2-0.8,1.1-1,1.8-0.8c2.4,2.2,4.3,4,5.4,5.3c0.8,1,1,2.2,0.3,4c-1.3,3-2.2,5.8-3.5,8.5
		c-1.4,3.2-2.9,5.8-4.2,8.8c-2.6,4-3.8,8.6-5.1,13.1c-0.2,0.2-0.3,1.3-0.5,3.7c0,0.5,0.2,0.8,0.5,0.8c0.5,0.3,1,0.2,1.4-0.3
		c2.2-2.1,4.5-5,6.9-8.6c1.4-2.6,3.2-4.6,5-7.2l-0.2-0.2c0.5,0.8,0.8,0.8,1.1,0l-0.2,0.2l1.1-1.1v0.1L1027,227L1027,227z
		 M995.4,281.3h-1c0.5,0.2,0.8,0.3,1,0.3c0.6,0,1.3,0,2.1-0.2C996.6,281.3,996,281.3,995.4,281.3z M1014.6,271.9c0,0,0-0.2,0-0.3
		c-0.5,0-0.5,0.2-0.5,0.2c0,0.3,0,0.6-0.2,1c-0.2,0.2-0.5,0.6-1,0.8c-3.4,3.2-5.8,5.6-7,7c0,0.2-0.3,0.5-0.5,0.5l0.2,0.3
		c0,0.2,0.2,0.2,0.5,0.2c3.4-2.2,5.6-4.6,6.7-7.2c0,0,0-0.3,0-1c0.2-0.2,0.6-0.3,1.1-1C1013.9,272.4,1014.1,272.1,1014.6,271.9z"/>
	<path class="st9" d="M1099.3,210.8c2.1-4.6,5-9.6,7.7-14.7c2.1-4.5,5.4-8.6,7.5-13.3c3-5.8,5.6-11.5,7.5-17.8
		c1.4-4.8-0.5-6.6-5.6-5.4c-9,2.4-15,8.6-21.3,15.2c-7.7,8.2-10.6,17.6-14.2,27.2c-1.1,2.6-2.7,3.7-4.6,3.5c-3-0.2-4.2-1.6-3.4-4.5
		c2.4-6.4,4-13.1,7.8-18.9c5.3-9.1,12.6-17.6,22.4-23.3c5.9-3.7,11.8-5.3,17.4-4.6c7.5,1.3,12.5,6.1,10.1,14.2
		c-2.1,7.2-5.6,14.2-9,21.1c-5,9.6-10.2,19-15.2,28.6c-4,7.5-7.5,15-10.6,22.2c-1.9,4.6-3.2,8.6-4,11.8c-0.2,0.2,0,0.6,0.3,1.4
		c0.8-0.2,1.4-0.5,1.6-1c4.5-5.8,9.8-11.5,13.4-18.1c6.4-11,12.8-21.3,19.4-32.3c3.7-5.9,7.7-12.8,12.6-18.7
		c2.4-2.1,3.8-0.3,5.6,0.3c3,1.8,3.8,3.5,2.6,5.4c-1.1,1.4-2.2,2.7-3.7,4.2c-4.3,6.9-9.9,15.8-16.6,26.9c-6.7,11-9.3,20-7.5,27
		c0.8,3.7,2.9,4.2,6.6,1.3l13.1-10.7c0.8-0.5,1,1,2.1,0.3c0.2-0.5,0.5-0.8,1-1.4c-2.4,0.5-3.2,0.3-2.1-0.8s1.9-2.1,2.1-2.9
		c4.5-7.2,9.8-14.7,13.4-22.5c6.6-14.1,13.8-28.1,13.8-42.9c0-5.1,0.3-9.8-0.2-14.9c0-0.5,0.5-1.4,1.6-2.6c1.1-1.1,2.2-1.4,3.4-1
		l1.1,1.6c2.9,10.7,15.5,36.1,32.1,22.5c2.6,3-0.8,6.9-2.9,8.2c-2.2,1.9-6.4,2.4-12.3,1.4s-10.1-4.2-12.2-9.6
		c-2.1,8.8-5.3,18.1-9.4,27.7l-1,2.9c-1.8,3.8-2.1,4.2-3.5,7.5c-1.1,2.4-2.6,5-3.4,7.5c-1.8,3.8-2.9,6.1-3.7,6.6
		c-0.6,0.5-2.2,2.6-4.8,6.1c-5,7.5-10.2,13.9-17.8,19c-13.4,9-22.4,4.6-26.1-7c-0.6-1.9-0.5-4.3-0.5-6.9c-0.5-0.2-0.6-0.6-0.6-1.3
		c-0.8,0.5-1.3,1-1.4,1.1c-4.5,6.6-8.6,13-12.6,19.4c-1.9,3-4.3,4-7,2.6c-3-1.4-4.3-3.7-4-6.7c0.2-5.3,1.4-11,3.8-17.4
		s5-12.2,7.5-17.4C1096.4,215.1,1097.9,213.2,1099.3,210.8z M1078.1,191.9c0,0.5-0.2,0.6-0.2,1.1c0-0.5,0.6-0.5,0.8-1
		c1.9-3.7,4.6-6.9,4.5-11.2c1.1-1.3,2.4-2.6,3.8-3.8l-0.2-0.3c-1,0.8-2.1,2.2-3.5,4.3C1081.6,184.8,1079.5,188.1,1078.1,191.9z
		 M1088.9,174.4c0.5-0.6,0.8-1.1,1-1.6l1.1-1.3c0.3-0.3,0.6-0.6,1-0.8l1.8-2.1v-0.2l-1.8,2.1c-0.6,0.6-1,0.8-1,0.8
		c-0.5,0.8-1,1.3-1.1,1.4c-0.8,1.1-1.1,1.6-1,1.4V174.4z M1090,234.8l0.2-0.2c0,0,0-0.3,0-0.5C1090,234.3,1090,234.5,1090,234.8z
		 M1092.4,229.9c0-0.5-0.2-0.5-0.2-0.6h-0.2c-0.8,0.5-1.1,1.3-1,2.1c0,0,0,0.2,0.2,0.2c0,0,0.2,0,0.2-0.2L1092.4,229.9z M1094.7,223
		c0,0,0.2,0.2,0.3,0.2c0,0.3,0,0.5,0,0.5c0,0.2,0.2,0.3,0.5,0.5c0-0.2,0.3-0.3,0.5-1h-0.8h-0.3L1094.7,223z M1095.8,166.4l-0.2-0.2
		L1095.8,166.4z M1099.8,217.1c0,0-0.2-0.5-0.2-0.6c-0.3,0-0.5,0-0.5,0.2c-0.3,0.2-0.6,0.8-0.8,1.8c-0.2,0.3-0.3,0.6-0.8,1
		c0,0,0.3,0.3,0.5,0.3c0,0,0.2,0,0.2-0.2s0.2-0.5,0.2-1.1C1099.2,218.2,1099.6,217.9,1099.8,217.1z M1103,210.3c0,0,0,0.2,0.2,0.2
		s0.3,0,0.3-0.2c0.2-0.6,0.3-1.9,0.8-3.7c0,0,0.3,0,0.5-0.5c0-0.2,0-0.3-0.2-0.5c0,0.2-0.2,0.3-0.2,0.3c0,0.3,0,0.5-0.2,0.6
		C1103.6,207.1,1103.2,208.3,1103,210.3z M1106.2,204.3c0.8-1.8,1.4-2.9,1.9-3.5c1.8-1.9,2.2-4.5,3.4-6.6c-0.2,0.2-0.3-0.2-0.3-1
		c-0.5,0.2-0.6,0.3-0.6,0.5c-1.3,1.9-1.9,4.2-3,5.6s-1.3,3.4-1.9,4.8c0,0,0,0.2,0.2,0.2C1105.7,204.3,1106,204.3,1106.2,204.3z
		 M1108,207.5c0,0.5,0,0.3,0,0.3s0.2,0,0.3,0C1108.1,207.6,1108.1,207.5,1108,207.5z M1116.3,191.5h0.3c0,0,0.2-0.3,0.3-0.5
		l-0.2-0.2L1116.3,191.5z M1121.6,182.2h-0.2l-0.2,0.2l0.2,0.2C1121.6,182.4,1121.6,182.4,1121.6,182.2z M1143.8,238.8
		c0,0.2,1.1,0.3,1.1,0.3s0.2-0.2,0.3-0.2C1145.1,239,1143.8,238.8,1143.8,238.8z M1155.3,221.7c-0.6,0-0.8-0.2-0.6-0.3
		c1.8-2.7,3.5-8.6,6.7-12.3l0.6-1.1c0.2-0.3,0.2-0.6,0.2-1.1c-1.1,1.4-1.6,2.2-1.6,2.2c-2.4,4-4.3,8.2-6.7,12.5v-0.2
		c0,0.2-0.5,0.8-1.4,2.2c-1,1.4-1.3,2.1-1.1,2.1s1.4-2.4,2.6-3.2c0.5-0.5,1-0.6,1.3-0.6V221.7z M1164.7,201.1c0,0.2,0,0.2,0,0.2
		c-0.2,0.2-0.2,0.3-0.3,0.3c0,0-0.3,0.5-0.8,1.4c-0.2,0-0.2,0-0.2-0.2c0.2-0.5,0.6-0.6,1.1-1.1
		C1164.6,201.7,1164.7,201.2,1164.7,201.1z M1167.8,191.9v2.2l1.3-2.4l2.1-5.8c1.1-5.8,2.1-11.2,3.4-17.1c0,0-0.2-0.3-0.5-1.1
		c-0.5,0.5-0.6,1-0.6,1.1c-1.4,7.7-3.2,15.4-4.6,22.9C1168.2,191.8,1167.9,191.9,1167.8,191.9z"/>
	<path class="st9" d="M1183.3,233.5c-0.8-1.1-1-1.9-0.2-2.6c0-0.2,0.3-0.8,0.8-1.6c3.2-5.3,5.4-11.5,6.7-18.7
		c0.8-5-0.2-9.4-2.7-13.4c-0.5-0.8-1.1-1.9-1.9-3.7c-0.3-0.6-0.3-1.4,0.2-2.6c0.5-1,1-1.1,1.3-0.3c1.1,1.8,3,2.7,5.4,3.2
		c1.4,0.3,2.6,1.3,3.5,2.9c0.8,2.1,1.8,4.8,3,6.9c0.2,0.2,0.2,0.3,0.2,0.8c-0.5,3.2,0.2,6.4-0.3,9.4c-1.6,7.5-5,14.9-9.9,21.8
		l-3.2,4.2c-2.6,3.7-6.4,5.6-10.1,7.5c-2.4,1.1-4.5,0.8-6.6-1.3c-2.7-2.7-4.2-6.1-4-10.4c0.5-6.7,1.9-13.3,4.5-19.8
		c0.6-1.6,1.8-3.8,3.5-6.7c1.4-3,4.3-4.8,7-6.9c0.8-0.6,2.1-0.6,3.7,0l2.4,1.4c1.1,1.1,1.1,2.1,0.3,3.2c-0.8,0.8-1.9,1.9-3.4,3
		c-1.1,1.1-1.6,2.1-1.8,2.9c-0.2,0.5-0.6,1.4-1.8,2.7c-2.7,3.7-4.6,7.7-5.6,12c-1.3,4-2.4,8-2.4,12.3v1.8c0,0.8,0.3,1,1.1,0.8l1.9-1
		c3.4-1.3,5.6-4.6,6.9-7.4c3.7-0.6,5.1,0.8,5.9-2.4c0,0-0.6-0.5-0.8-0.5c-0.5,0-1,0.2-1.4,0.5c-1.1,0.5-1.1,1.9-2.6,1.9h0.4V233.5z
		 M1195.3,210.8c-0.3-0.2-0.6,0-0.8,0.2c-0.3,0.8-0.5,1.1-0.5,1.1c0,1-0.3,2.4-1.1,4.2c-1.1,2.1-1.9,4.5-2.6,6.6
		c0,0.5,0.2,0.8,0.3,0.8c0,0,0.2,0,0.6,0c1.1-0.5,1.8-1.4,2.2-2.7c1-3.8,1.8-6.7,2.4-8.8c0-0.2-0.2-0.3-0.2-1
		C1195.6,211,1195.4,210.8,1195.3,210.8z M1192.1,197.4l0.2-0.2h-0.2V197.4z M1195.8,205.7c0-0.2-0.2-0.3-0.3-0.5
		c0,0-0.2,0.2-0.5,0.6c0,0.5,0.2,0.6,0.3,0.8c0,0.5,0.2,0.6,0.2,0.6l0.3-0.5C1195.8,206,1195.8,205.7,1195.8,205.7z"/>
	<path class="st9" d="M1210.8,230.2c3.2-4.5,6.2-8.6,9.9-13c1.9-2.2,3.8-5.6,5.8-9.9c1.9-4.3,4-8.3,6.4-11.7
		c0.8-1.4,2.1-1.6,3.5-0.5l2.7,2.7c1.1,0.8,1.4,2.1,1.1,3.7l-1.4,2.6c-0.8,0.8-1.6,1.8-2.2,2.9c-1.6,2.2-3,5.8-4.3,10.4
		c-1.1,4.6-0.2,7.8,3,9.3c0.6,0.5,0.8,1,0.5,1.4c-0.5,1-0.8,1.6-1.3,2.1c-0.8,0.8-1.6,1-2.4,0.2c-3.2-1.8-7.7-5.6-8.5-9.4
		c-0.5-1.4-1.3-1.4-2.1-0.2c-1.8,2.4-3.4,4.5-4.8,6.9c-0.8,1.3-2.2,3.4-4.3,6.1c-4.3,5.6-8.2,10.9-11.5,15.7c0,0-0.2,0.2-0.3,0.3
		c-0.6,0.8-0.3,2.6-2.1,2.7c-1.4-1.3-3.5-1-4.6-3.4c0-0.5-0.2-1-0.3-1.3c-0.8-1-1-2.2-0.3-4c1.3-3,2.4-6.2,3.7-9
		c3.4-6.6,6.2-13.6,9.6-20.6l7-15c0.5-1.4,1.3-1.6,2.4-0.8c1.3,1.1,2.4,1.9,3.8,2.6c1.6,1.4,2.2,2.9,1.8,4.5
		c-0.3,0.8-0.8,1.8-1.6,2.9l-9.1,18.2c-1.1,2.4-1.4,4.2-1.3,5c-0.2,0-0.3,0-0.3,0l-0.3,0.2c0.3,0,0.5-0.2,0.5-0.3
		C1210.2,230.8,1210.6,230.3,1210.8,230.2z M1200.1,240.4c0.6-0.2,1-0.6,1-1.8c0.3-0.5,0.5-0.6,0.5-0.6s-0.2-0.3-0.2-0.5
		c0,0.2-0.2,0.3-0.2,0.3c0,0.5,0,0.8-0.2,1c-0.5,0.3-0.8,1-0.8,1.8c-0.5,0.3-0.8,1-0.8,1.9c-0.3,0.2-0.5,0.5-0.6,0.8
		c0,0,0,0.2,0,0.3c0,0,0.3-0.2,0.3-0.3c0,0,0-0.5,0-1C1200.1,242.3,1200.4,241.7,1200.1,240.4z M1202.5,235.6v-0.2h-0.2
		L1202.5,235.6z M1207.9,222.3c2.2-5.3,3.5-8,3.7-8.2c0,0-0.3-0.6-0.3-0.8c-0.2,0.3-0.3,0.5-0.3,0.6
		C1211,214.2,1210,217.1,1207.9,222.3c-2.1,5.3-3,7.8-3,8c-0.2,0.2-0.5,0.3-0.6,0.6c0,0.2,0,0.6,0,0.6s0.3-0.3,0.5-0.5
		c0,0,0-0.6,0-0.8S1205.8,227.6,1207.9,222.3z"/>
	<path class="st9" d="M1275.9,200.9c0.3,0,0.6,0.2,1,0.3c0.8,1.1,1.1,2.4,1.1,3.5c0.2,4-0.5,7.5-1.8,10.6c-1.1,3-2.4,5.4-3.7,8
		c-1.4,3.4-3.7,6.2-6.4,9c-1.4,1.4-3.2,2.7-5,3.8s-3.4,1.4-5.1,0.8l0.2,0.5c-0.2,0.2-0.2,0.3-0.2,0.6c0.5,4.8,1.4,9.6,3,14.2
		c0.3,1.8,1.8,4.2,4.3,7.4c0,0.2,1,0.5,2.7,0.8c0.6,0,1,0.3,1,1c0,0,0,0.6,0,1.8c-0.5,2.6-1.6,3-3.4,1.6c-2.6-1.8-4.3-3.4-5.4-5
		c-4.5-4.8-6.9-10.6-7.4-17.3c-0.5-1.8-0.5-3.5-0.5-5.6c0-0.5-0.3-1-1.1-1.8c-0.3-0.2-0.6-0.2-0.8,0c-0.3,0.2-0.8,0.8-1.3,1.6
		l-6.9,10.7c-0.8,1.3-1.6,1.6-2.7,1c-1.4-0.5-2.4-1.3-2.7-2.4c-0.8-1.1-1.1-1.6-1-1.4c-0.6-0.8-0.8-2.2-0.5-4.2
		c1.1-1.8,1.8-3.5,2.1-5.3l0.2,0.2c0,0,0.2-0.3,0.2-0.5c0.8-0.2,1-0.6,0.6-1.6c0-0.2,0-0.2-0.2-0.3c1.4-4,2.6-6.9,3.2-9l7.2-17.3
		c3-6.6,6.1-13.6,9.4-20.2c2.1-5,4.6-9.8,7.2-14.7c0.2-0.5,0.6-0.6,1.3-0.5c2.1,0.5,3.8,2.1,5.6,4.8c0.5,0.8,0.6,1.4,0.5,1.9
		c-0.6,2.1-1,3.4-1.1,3.5l-4,7.5c-5.3,9.6-9.4,19.5-13.4,29.1c-1.8,3.4-2.9,5.9-3.7,7.7c-0.8,1.9-1.1,3.4-0.8,4.2
		c-0.2-0.2-0.2-0.2-0.2-0.2c1.8-2.4,3.4-4.8,5.3-7.2c5-6.6,10.9-15.2,16.8-21.6c1.4-1.3,3-1.4,5-0.5
		C1274.9,201.1,1275.4,201.1,1275.9,200.9z M1235.9,234.2c0,0.2,0,0.6,0,0.6c0,0.2-0.2,0.2-0.2,0.2L1235.9,234.2z M1239.9,231.1v0.2
		h0.2L1239.9,231.1z M1241.3,228.7c0.2-0.2,0-0.3-0.2-0.6l-0.5,0.5v0.6c0,0.5,0,0.8-0.2,0.6c0,0,0.2-0.5,0.2-0.6
		C1241.2,228.9,1241.3,228.7,1241.3,228.7z M1251.7,199.5c-0.3,0.2-0.5,0.6-0.5,1.4c0,0.2-0.2,0.2-0.3,0.2c-1.3,1.6-2.2,3.5-3,5.9
		c0,0.5,0.2,0.8,0.2,1.3c-0.8,0.2-1.3,0.8-1.4,1.9c-1.8,4.3-3.5,8.3-5.4,12c0,0.5,0.2,0.8,0.2,0.8c0.3,0,0.5,0,0.6-0.2
		c0.8-1.3,1.1-1.8,1.1-1.4c1.4-3.8,3.2-7.5,4.6-11.2c0-0.6,0.2-1.1,0.3-1.9c2.1-1.9,3.2-4,3.4-6.4c0-0.2-0.2-0.5-0.2-1
		C1251.9,200.7,1252.1,200.3,1251.7,199.5c1.1-0.5,1.8-1.3,1.6-2.4C1252.2,197.4,1251.7,198.2,1251.7,199.5z M1242.6,225.5h-0.2v0.2
		L1242.6,225.5z M1242.9,224.1l0.2-0.2h-0.2V224.1z M1244.2,220.6l-0.2,0.2l0.2,0.2V220.6z M1245.3,217.9l0.2-0.2l-0.2-0.2V217.9z
		 M1246.1,216.3c-0.2,0,0-0.2,0.3-0.6c0,0,0.2-0.3,0.2-0.5c-0.2-0.2-0.2,0-0.2,0.5C1246.3,215.8,1246.1,216.3,1246.1,216.3z
		 M1247.3,213.5l0.2,0.3v-0.3H1247.3z M1248.5,211.1l0.2,0.3v-0.5L1248.5,211.1z M1250.3,207.5c0,0,0.8,0.2,0.2-0.5
		C1250.5,207.1,1250.3,207.5,1250.3,207.5c-0.5,0.3-0.6,1-0.6,1.8c0,0.5-0.2,0.6-0.3,0.5c0,0,0.3-0.3,0.3-0.5
		C1250.1,209.2,1250.3,208.6,1250.3,207.5z M1250.9,231.4c-0.5-0.8-0.2-1.1,0.8-1.1c1.8,0,2.6,0,2.6,0c1.4,0,2.1,0,2.1,0.2
		c0.8-1.3,2.7-0.6,2.9-2.4c0.3-0.5,0.6-0.6,0.8-0.8c3.8-4,5.3-5.4,7.4-10.1c1.4-2.7,3.4-5.9,4-9.8c0.5-1.1,0.6-2.4,1.1-3.8
		c0-0.2,0-0.2-0.2-0.3l-0.2-0.2c-1,0.8-1.6,1.3-2.1,1.4l-0.5,0.8l-4.5,5.3c-2.4,3-6.1,7.5-8.2,10.6c-2.4,3.4-4.2,6.7-6.6,9.9
		c0,0.2,0.2,0.6,0.2,0.6s0.3,0,0.5,0C1251.1,231.6,1251.1,231.6,1250.9,231.4z M1252.5,203.1c-0.2,0.2-0.3,0.5-0.3,0.5
		c-0.5,0.5-0.8,0.8-0.8,0.8c-0.2,0.2-0.5,0.5-0.5,0.5c0,0.5,0.2,0.6,0.2,0.6c0.2,0,0.3-0.2,0.3-0.3c0,0,0-0.3,0-0.8
		c0,0,0.3-0.3,0.8-0.8C1252.4,203.5,1252.5,203.3,1252.5,203.1z M1253.3,201.7l-0.3-0.2v0.2H1253.3z M1253.8,200.1v-0.2h-0.2
		L1253.8,200.1z M1254.6,234.6c2.9-1.3,4.6-2.7,5.4-4.3c1.4-0.6,2.6-1.4,3.4-2.2l0.2-0.3c-0.5,0-0.6,0-0.6-0.2l-2.2,1.1
		c-0.5,0.2-0.6,0.8-0.6,1.6c-0.6,0-1.3,0.3-2.1,1c-1.8,1.1-3,1.9-4,2.4L1254.6,234.6z M1254.3,198.3v0.2h0.3L1254.3,198.3z
		 M1254.6,231.3l-0.3,0.2l0.3,0.2V231.3z M1255.3,196.4c0,0-0.8,0.3-0.2,0.5c0,0,0.2-0.5,0.2-0.6c0.5,0,0.8-0.5,0.8-1.4
		c0.3-0.2,0.5-0.6,0.5-1.6c0.5-0.2,0.8-0.6,0.6-1.8c1-0.2,1.4-1,1.3-2.4c0.5,0,0.6-0.5,0.6-1.4c0.5-0.2,0.6-0.6,0.6-1.6
		c0.2-0.2,0.3-0.5,0.3-0.6c-0.2,0.5-0.3,0.6-0.3,0.6c-0.6,0.2-0.8,0.8-0.6,1.6c-0.8,0.3-1,0.8-0.5,1.4c-1.3,0.6-1.8,1.4-1.4,2.4
		c-0.5,0.3-0.6,1-0.6,1.8c-0.6,0.3-0.8,0.8-0.5,1.6C1255.6,195,1255.3,195.5,1255.3,196.4z M1260.7,184.1l0.2-0.2h-0.2V184.1z
		 M1261.2,182.4l0.2,0.2v-0.2H1261.2z M1262.4,179v0.2h0.2L1262.4,179z M1269,221.5c1.6-2.1,2.4-4,2.2-6.1c0.5-1,0.8-1.3,0.8-1.1
		c1-2.4,1.9-5.1,2.9-8.2c0,0-0.2-0.5-0.2-0.6c-0.3,0.3-0.5,0.5-0.5,0.3c-0.8,2.1-1.8,4.5-2.4,6.9c-0.5,1.1-0.8,2.1-0.6,2.7
		c-1,1-1.4,1.3-1.3,1.1L1269,221.5c-0.5,0.2-0.6,0.6-0.6,1.4c-0.5,0.2-0.6,0.5-0.8,0.8c-1.3,0.8-2.1,1.6-2.2,2.6
		c0,0.3,0.2,0.5,0.3,0.5c0,0.5,0.2,0.5,0.5,0c0.8-1,1.3-1.9,1.4-3c0.2-0.3,0.3-0.6,0.8-0.8C1268.8,222.8,1269,222.3,1269,221.5z"/>
</g>
<g class="st5">
	<text transform="matrix(1 0 0 1 896.8911 284.8371)" class="st9 st10 st11">Illustrations</text>
</g>
<path class="st3" d="M1294.5,473.1c-11-1.3-23.2-2.5-36-2.6c-12.8,0-24.9,1.5-35.9,3"/>
<path class="st3" d="M1117.1,494.4c3-0.3,6.2-0.4,9.4-0.5c3.3-0.1,6.7,0.1,10.1,0.1"/>
<g>
	<g>
		<g>
			<path class="st3" d="M728.7,488.9c0-0.1,1.9,0.1,5.3,0.5c3.4,0.4,8.3,0.9,14.4,1.3c6.1,0.3,13.3,0.6,21.3-0.4c2-0.3,4-0.6,6-1.1
				s4-1.2,5.9-2.1s3.7-2.1,4.9-3.8c0.3-0.4,0.6-0.9,0.9-1.3c0.3-0.4,0.4-0.9,0.6-1.4c0.1-0.2,0.2-0.5,0.3-0.8s0.2-0.6,0.4-0.9
				c0.1-0.3,0.3-0.6,0.5-0.8c0.2-0.3,0.3-0.5,0.5-0.8c1.5-2.1,3.5-3.5,5.6-4.6s4.2-1.9,6.4-2.6c4.3-1.3,8.6-1.9,12.6-2.4
				c8.1-0.8,15.4-0.7,21.6-0.5c6.1,0.2,11.1,0.7,14.5,1.1s5.3,0.8,5.2,0.9c0,0.1-1.9,0-5.3-0.1c-3.4-0.2-8.3-0.4-14.4-0.5
				c-6.1,0-13.4,0-21.3,0.9c-4,0.5-8.1,1.2-12.3,2.4c-2.1,0.6-4.1,1.4-6,2.4s-3.7,2.4-4.9,4.1c-0.2,0.2-0.3,0.4-0.4,0.7
				c-0.1,0.2-0.3,0.4-0.4,0.7c-0.1,0.2-0.2,0.5-0.3,0.7s-0.2,0.5-0.3,0.8c-0.3,0.6-0.5,1.2-0.8,1.7s-0.7,1.1-1,1.5
				c-1.5,2-3.6,3.3-5.6,4.3c-2.1,1-4.2,1.7-6.3,2.2s-4.2,0.8-6.2,1.1c-8.1,0.9-15.5,0.5-21.6,0s-11-1.3-14.4-1.9
				C730.5,489.5,728.7,489,728.7,488.9z"/>
		</g>
	</g>
</g>
<path class="st3" d="M1055.8,408.5c2.6,0.3,5.2,0.6,7.6,1c4.8,0.8,9,1.7,12.6,2.3"/>
<path class="st3" d="M1016.4,424.6c-2.9-0.7-6-1.4-9.2-1.7c-1.6-0.1-3.2-0.2-4.8-0.1"/>
<path class="st3" d="M242,452c7.6-1.8,16.2-3,25.3-3.1c9-0.1,17.7,0.9,25.3,3"/>
<path class="st3" d="M76.6,493.3c-3.6,0.3-8.5-0.1-13.8-1.3c-10.6-2.5-18.3-6.7-18-7.2"/>
<path class="st3" d="M2131.6,428.8c-2.7,0.7-5.5,1.5-8.5,2.3s-6.3,1.5-9.7,2.1"/>
<g>
	<path class="st12" d="M920.9,255.8c0.8-0.1,3.8-0.4,5-0.1l0.2,0.1l1.3-0.1c1.3,0.1,2.3,0.6,3.2,1.7c0,0,0,0.2,0.5,0.1
		c0.6,1.1,0.1,1.9-1,2.2c-1.8,0-4,0.1-6.9,0.4l-1,0.1c-2.7,0.2-5.6,0.6-8.6,0.6c-4.9,0.4-9.4,0.5-14.4,0.9c-2.1,0.2-3.8,0.1-5.8,0.3
		c-1.7,0.3-2.8-0.8-3-3.3c0-0.6,0.2-1,0.7-1c2.7-0.2,4.8-0.4,6.2-0.6c0,0,0.5-0.2,0.9-0.2c3.9-0.9,5.8,0.5,7.3-2.8
		c1.5-3.3,3.7-9.9,4.9-13.4c6.3-16,12.6-32.4,19.3-48.8c0,0.2,0.2,0.1,0.2,0.1c0,0.5,0.2,0.3,0.2,0.3l0.8-2.3l-0.3,0.2l0-0.2
		c3.5-8.6,5.8-14.7,6.8-18.2c1-3.6,2.2-6.7,3.8-9.6c-4,0.3-7.9,0.1-11.2,0.8c-2.7,0.5-4.2-0.6-4.4-3.5c-0.1-0.8,0.4-1.3,1.2-1.4
		c6.2-0.9,12.2-1.6,18.1-2c0.2,0,0.7,0.1,1.1,0.1c2.1-0.5,3.6-0.6,4.9-0.4l-0.1,0.5c0.5,0.1,1,0.2,1.3,0.1c0.8,0.4,1.3,0.5,1.3,0.5
		c0.8-0.2,0.5-0.2-0.6,0.2c-1.1,0.2-1.4,0.3-0.7-0.3c0,0,0.8-0.1,2.2-0.2c0.5,0,1.3-0.3,2.2-0.5l-1.5-0.7c1.6-0.4,3-0.4,4.2,0
		l-1.4,0.6l-0.2,0l-1.1,0.1c0.5,0.1,0.8,0.1,1.3-0.1c1.7,0.8,3.1,0.7,4.2-0.2l-1.3-0.5c0.5-0.4,0.9-0.6,1.1-0.6
		c1.3-0.1,2.2,0,3.5-0.1c1.8-0.1,3.3,0.6,4.3,1.9c0,0,0.2,0.1,0.5,0.3c0.9,1.7,0.5,2.8-1.2,3.1c-4.3,0.2-7.2,0.4-8.8,0.5
		c-1.4-0.1-4.2,0.2-8,0.4c-1.9,4.5-3.9,9.9-6.2,16.2c-2.3,6.1-4.2,10.9-6,14.4c-5.1,10.5-9.2,20.4-12.2,30.1
		c-3,9.5-6.6,19.4-10.6,29.7C915.8,256,915.9,256.2,920.9,255.8z M910,245.8c-0.2,0,0,0.2,0.3,0.3c0,0,0-0.2,0.1-0.2
		c0,0,0-0.3,0-0.5C910.2,245.5,910,245.7,910,245.8z M912.3,240.1c-1.3,1.9-2,3.5-1.9,5.1C911.8,243.5,912.4,241.8,912.3,240.1z
		 M910.5,245.5l0-0.3L910.5,245.5z M913.5,243c-0.5,1.8-0.9,3.1-1.3,4.1c0,0,0.2,0.3,0.3,0.3c0,0,0.3,0,0.5,0
		c1.1-2.3,1.6-4.1,1.5-5.2C913.8,242.7,913.5,242.9,913.5,243z M912.8,239.5c0,0-0.3-0.1-0.4-0.6c0,0.2,0,0.3-0.1,0.5
		c0,0.2,0,0.5,0,0.5C912.5,239.9,912.6,239.7,912.8,239.5z M912.3,239.9c0,0.2,0,0.2,0,0.2L912.3,239.9z M912.9,236.8
		c0,0.2,0.2,0.5,0.2,0.5c0.1-0.2,0.3-0.2,0.3-0.3c0,0,0.1-0.2,0.1-0.6C913.2,236.6,913,236.8,912.9,236.8z M915.4,236.1
		c-0.2-0.9-0.6-1.6-0.8-2l-0.6,0c-0.1,0.6-0.5,1.5-0.5,2.1C914.2,235.9,914.9,235.9,915.4,236.1z M916.1,239.3c0,0,0-0.2,0-0.3
		l-0.2-0.3c-0.5-0.3-0.7-0.3-0.6,0c-0.6,0.5-0.8,1.7-0.7,3.3L916.1,239.3z M914.6,242.1c0,0,0,0,0-0.2L914.6,242.1z M915.7,236.1
		c-0.5,0-0.3,0-0.3,0L915.7,236.1z M916.1,237c0,0,0.3,0,0.5-0.2c0.1-0.7,0.5-1.5,0.9-2.3c0,0-0.2-0.5-0.2-0.6c-0.2,0-0.3,0-0.5,0.2
		c-0.6,0.7-1,1.4-1.1,2C915.7,236.3,915.9,236.6,916.1,237z M921.4,223.8l-0.2-0.3l-0.1,0.3l0.2,0.1L921.4,223.8z M923.5,219.6
		c-0.2,0-0.3-0.3-0.3-0.3c-0.6,0.2-0.9,0.9-1.1,0.9l0,0.3c0,0,0.2,0.1,0.3,0.1c0.5-0.2,0.9-0.6,1.1-0.7L923.5,219.6z M928,256.7
		c-0.8-0.3-1.3-0.4-1.6-0.4c0,0.5,0,0.6,0,0.6C926.8,257.1,927.2,256.9,928,256.7z M928.3,256.7c-0.5,0-0.3,0-0.3,0
		S927.8,256.7,928.3,256.7z M928.3,256.7c0,0,0.2,0,0.3,0L928.3,256.7z M927.4,208c-0.2,0-0.5,0-0.5,0c-0.4,0.8-0.5,1.5-0.7,2
		c0,0,0,0.2,0.2,0.1c0,0,0.2,0,0.3,0c0.4-0.8,0.7-1.3,0.8-1.8L927.4,208z M926.3,201.6c0,0.2,0.2,0.5,0.2,0.5s0.3-0.2,0.3-0.3
		c0,0,0-0.3,0-0.5C926.7,201.4,926.3,201.6,926.3,201.6z M926.7,201.3l0.2,0c0,0,0,0.2,0-0.3L926.7,201.3z M926.9,200.9
		c0.3-0.2,0.4-0.5,0.4-1.3C926.9,200,926.8,200.5,926.9,200.9z M927.4,203.8l0.2,0.1l0.2,0L927.4,203.8z M927.4,199.6
		c-0.2,0-0.2,0-0.2,0s0.2,0,0.1-0.2C927.4,199.6,927.4,199.6,927.4,199.6z M929.6,205.2c0.3-0.7-0.1-1.1-0.9-1.2
		c-1-0.4-1.3-0.5-1-0.1c-0.1,0.5-0.1,1,0,1.8c0,0.5,0.1,0.8,0.2,0.9c0.5-0.4,0.6-0.5,0.6-0.4L929.6,205.2z M927.4,199.4
		c0.5-0.2,0.6-0.8,0.5-2C927.4,197.8,927.3,198.5,927.4,199.4z M927.9,197.5c0,0,0,0,0.2,0C927.9,197.5,927.9,197.5,927.9,197.5z
		 M928,197.5c0.3-0.3,0.4-0.8,0.4-1.6C928.1,196.2,928,196.7,928,197.5z M928.7,195.8c-0.5,0-0.3,0-0.3,0L928.7,195.8z M929.2,195.8
		c-0.2-0.5-0.4-0.5-0.5,0L929.2,195.8z M929.8,201.4l0.3-0.3l-0.2-0.5c-0.1,0.2-0.4,0.5-0.4,0.5L929.8,201.4z M929.2,195.8
		c0,0,0,0,0.2,0L929.2,195.8z M929.4,195.8c0.2,0.5,0.4,0.5,0.6,0L929.4,195.8z M930.6,195.7c-0.2-0.1-0.5-0.1-0.6,0L930.6,195.7z
		 M930.6,195.7c-0.1,0.8-0.4,1.5-0.3,2.1c0,0.5,0.1,1,0.2,1.1c0.7,0.6,1,0.2,0.9-1C931.5,196.9,931.3,196.1,930.6,195.7z M931,189.9
		c0.5-0.2,0.6-0.7,0.5-1.3L931,189.9z M931,190l0-0.2L931,190z M933.5,192.7c-0.6,0-0.8-0.3-0.8-0.3c-0.4,0.7-0.7,1.3-0.8,1.8
		c-0.2,0,0,0.3,0,0.3c0.5,0,0.8-0.1,0.8-0.1C932.2,194.9,932.4,194.3,933.5,192.7z M931.5,188.2l0.3-0.2l-0.3,0.5
		C931.5,188.5,931.6,188.7,931.5,188.2z M932.5,185.8c-0.1,0.2,0,0.5,0.2,0.6c0,0,0-0.2,0-0.3c0.1-0.2,0.3-0.5,0.3-0.7
		C932.6,185.6,932.5,185.8,932.5,185.8z M932.9,185.4c0.5-0.2,0.6-0.7,0.5-1.5C933,184.3,932.9,184.8,932.9,185.4z M933.6,190.2
		l-0.1,0.2c0,0,0,0.2,0.2,0.1c0,0,0,0,0.2,0C933.8,190.5,933.6,190.3,933.6,190.2z M933.4,183.9c0-0.3,0-0.6,0.1-0.8l0-0.2
		c0.3,0.3,0.5,0.4,0.4,0.5C933.9,183.6,933.7,183.7,933.4,183.9z M939.6,175.9c-2.1,4-3.6,8.1-5.2,12.1c-0.3,0-0.3,0.2,0.2,0.6
		c0,0,0.3-0.2,0.5-0.4l1.9-2.5l0.8-1.7c0-1.6,0.7-3.3,2.3-5.2c0.7-1,0.8-2.1-0.1-3.4C939.9,175.7,939.6,175.9,939.6,175.9z
		 M934.7,180.9l-0.1,0.3L934.7,180.9l0.3-0.3L934.7,180.9z M935.8,178.6c0-0.3,0.1-0.5,0.3-0.7c-0.2,0-0.5,0.2-0.6,0.5l0.2,0.3
		L935.8,178.6z M936,177.8c0.3-0.2,0.4-0.7,0.4-1.3L936,177.8z M936,177.8l0,0.2L936,177.8z M936.4,176.5c0,0,0.2,0,0.1-0.2l0,0.2
		L936.4,176.5z M937.7,174.1c-0.8,0.5-1.2,1.2-1.1,2.2C937.3,176.1,937.8,175.2,937.7,174.1z M937.7,174.1l0.2,0l0-0.3L937.7,174.1z
		 M940,175.6c0,0,0,0.2,0.1-0.3C940,175.2,940,175.6,940,175.6z M941.5,173.7c-0.5,0-0.8,0.1-0.8,0.1c-0.6,0.8-0.5,1.3-0.5,1.5
		c0.2,0,0.8-0.1,1.4-0.6C941.6,174.6,941.5,173.8,941.5,173.7z M940.3,168.8l-0.1,0.3L940.3,168.8c0,0,0,0,0.2,0L940.3,168.8z
		 M940.5,168.8c0.3-0.3,0.4-0.8,0.4-1.3L940.5,168.8z M940.9,167.5l0-0.2l0.1-0.2l-0.1,0.2L940.9,167.5z M943.3,168.4l-0.1,0.2
		c-0.6,0.7-0.9,1.3-1,2.2c-0.1,0.2,0,0.3,0.2,0.5c0,0.2,0.5,0.1,0.5,0c0.7-0.7,1.2-1.5,0.9-2.5C943.8,168.7,943.4,168.6,943.3,168.4
		z M945.8,164.2c-0.6,0.2-1.1,0.4-1.2,0.6c0,0,0,0.3,0.1,1c1.1-0.6,1.4-0.7,0.9-0.2C945.5,165.4,945.6,164.7,945.8,164.2z
		 M946.2,163.5c0.1-0.2,0-0.3-0.2-0.5c0,0.2-0.1,0.2-0.3,0.3c0,0.2,0,0.6,0,0.6C946.1,164,946.2,163.9,946.2,163.5z M945.7,164.1
		l0,0.2C945.8,164.2,945.8,164.2,945.7,164.1z M945.8,157l-0.2,0L945.8,157z M946.1,156.3l0.5,0.6l-0.8,0.1L946.1,156.3z M946,156.3
		l0.2,0L946,156.3z M951,156.6l-0.2,0l0.1-0.2L951,156.6z M953.5,158l-0.3,0.2c0,0.3,0,0.5,0.2,0.5l0.2,0
		C953.5,158.7,953.5,158.2,953.5,158z M962.3,156.1c-0.2,0-0.2,0-0.2,0S962.1,156.1,962.3,156.1z M966.5,155.9
		c-1.5-0.4-2.7-0.3-4.2,0.2C963.5,156.8,964.9,156.7,966.5,155.9z M966.6,155.9c-0.2,0-0.2,0-0.2,0S966.5,155.9,966.6,155.9z
		 M966.6,155.9l0.3,0l0.2,0L966.6,155.9z"/>
	<path class="st12" d="M937.4,244.4c0.2-1.4,0.5-2.7,0.6-3.5c0.8-2.6,1.8-5.3,2.2-8c2.2-7.5,3.8-12.5,4.6-14.7c1-2.4,2.1-4.6,3.2-7
		c2.1-5.1,4.6-10.6,6.7-15.8c3-7.5,7-14.9,10.9-22.1c0.5-0.8,1.1-2.2,1.9-4.2c0.3-1.1,1-1.4,1.9-0.8c1.1,0.6,2.7,1.6,4.6,3
		c1.6,1.4,1.9,3.2,1.1,5.3l-1.4,2.6c-3.7,5.3-6.6,10.6-8.6,15.7c-1.3,2.6-2.9,5-4,7.5c-2.2,5.1-4.8,11.5-7.8,19.4
		c-3,7.7-5.3,14.1-6.9,19.4c-1.1,3.4-1.8,6.7-2.2,10.1c-0.2,1.6,0.5,2.2,2.2,1.9c1.8-0.5,3.4-1.4,4.6-2.6c0.2-0.2,0.3-0.2,0.8-0.2
		c0,0.2,0.2,0.5,0.2,0.6c-0.3,1.3-1,1.9-1.9,2.1c-1.1,1.1-3,2.1-5.9,3.2c-2.7,1-5-1.3-6.4-6.7L937.4,244.4z M940.4,242.3
		c0.8-1.1,1.6-2.2,2.2-3.5c0.2-0.2,0.2-0.3,0.2-0.6c-0.3-0.8-0.5-1.1-0.5-1.1c-0.3-0.3-0.6-0.2-1.1,0.3c-0.8,0.8-1.1,2.4-1.1,4.6
		c0,0.2,0,0.3,0,0.3H940.4z M948.3,218.4c0-0.2-0.2-0.6-0.2-1.1c-0.5,0.3-0.6,0.5-0.6,0.3c0,0,0,0.3,0,1.1
		C947.9,218.6,948.3,218.4,948.3,218.4z M961.4,236.2c-3,6.4-5.1,10.4-6.2,11.8c0,0.2-1.9,2.6-1.9,2.6c-0.8-0.6-1-1.1-0.8-1.3
		c0.3-0.8,2.6-5.1,6.7-13c4.3-7.8,6.6-12,6.9-12.2c1.4-1.3,2.4,0.2,1.9,0.6C966.7,226,964.4,229.6,961.4,236.2z M955.1,201.6
		c-0.2,0-0.3,0.2-0.5,0.5c0.2,0.2,0.3,0.3,0.5,0.3c0.3,0,0.6-0.2,0.8-0.3C955.8,202.1,955.6,201.6,955.1,201.6z M957.2,196
		c0,0,0-0.3,0-0.5c0.2,0,0.6,0.2,1.1,0.2c0,0.3,0.2,0.5,0.3,0.5c0.5,0,0.8-0.2,1-0.5v-0.2c-0.2-0.5-0.3-0.5-0.8-0.2
		c-0.5,0.2-0.6,0.3-0.6,0.3c-0.2-0.3-0.5-0.3-1,0V196z M961.9,190.1c-0.2,0-0.3,0-0.3,0c0,0.2,0,0.3,0,0.3h0.3V190.1z"/>
	<path class="st12" d="M960.2,244.4c0.2-1.4,0.5-2.7,0.6-3.5c0.8-2.6,1.8-5.3,2.2-8c2.2-7.5,3.8-12.5,4.6-14.7c1-2.4,2.1-4.6,3.2-7
		c2.1-5.1,4.6-10.6,6.7-15.8c3-7.5,7-14.9,10.9-22.1c0.5-0.8,1.1-2.2,1.9-4.2c0.3-1.1,1-1.4,1.9-0.8c1.1,0.6,2.7,1.6,4.6,3
		c1.6,1.4,1.9,3.2,1.1,5.3l-1.4,2.6c-3.7,5.3-6.6,10.6-8.6,15.7c-1.3,2.6-2.9,5-4,7.5c-2.2,5.1-4.8,11.5-7.8,19.4
		c-3,7.7-5.3,14.1-6.9,19.4c-1.1,3.4-1.8,6.7-2.2,10.1c-0.2,1.6,0.5,2.2,2.2,1.9c1.8-0.5,3.4-1.4,4.6-2.6c0.2-0.2,0.3-0.2,0.8-0.2
		c0,0.2,0.2,0.5,0.2,0.6c-0.3,1.3-1,1.9-1.9,2.1c-1.1,1.1-3,2.1-5.9,3.2c-2.7,1-5-1.3-6.4-6.7L960.2,244.4z M963.3,242.3
		c0.8-1.1,1.6-2.2,2.2-3.5c0.2-0.2,0.2-0.3,0.2-0.6c-0.3-0.8-0.5-1.1-0.5-1.1c-0.3-0.3-0.6-0.2-1.1,0.3c-0.8,0.8-1.1,2.4-1.1,4.6
		c0,0.2,0,0.3,0,0.3H963.3z M971.1,218.4c0-0.2-0.2-0.6-0.2-1.1c-0.5,0.3-0.6,0.5-0.6,0.3c0,0,0,0.3,0,1.1
		C970.8,218.6,971.1,218.4,971.1,218.4z M984.2,236.2c-3,6.4-5.1,10.4-6.2,11.8c0,0.2-1.9,2.6-1.9,2.6c-0.8-0.6-1-1.1-0.8-1.3
		c0.3-0.8,2.6-5.1,6.7-13c4.3-7.8,6.6-12,6.9-12.2c1.4-1.3,2.4,0.2,1.9,0.6C989.5,226,987.3,229.6,984.2,236.2z M978,201.6
		c-0.2,0-0.3,0.2-0.5,0.5c0.2,0.2,0.3,0.3,0.5,0.3c0.3,0,0.6-0.2,0.8-0.3C978.6,202.1,978.5,201.6,978,201.6z M980.1,196
		c0,0,0-0.3,0-0.5c0.2,0,0.6,0.2,1.1,0.2c0,0.3,0.2,0.5,0.3,0.5c0.5,0,0.8-0.2,1-0.5v-0.2c-0.2-0.5-0.3-0.5-0.8-0.2
		c-0.5,0.2-0.6,0.3-0.6,0.3c-0.2-0.3-0.5-0.3-1,0V196z M984.7,190.1c-0.2,0-0.3,0-0.3,0c0,0.2,0,0.3,0,0.3h0.3V190.1z"/>
	<path class="st12" d="M989.4,223.2l8.2-19l1.6-4.2c0.8-1.4,1.4-2.6,2.1-3.2c0.3-0.8,1-1,1.9-0.3c1.3,0.6,2.1,1.8,3.5,2.4
		c1.4,0.8,1.9,2.1,1.4,3.5s-0.8,2.6-1.3,3c-5,8.8-8,17.9-11.7,26.7c-1.4,3-2.2,7-2.6,12.3c0,0.6,0.2,1,0.5,1.1
		c0.2,0.2,0.6,0.2,1.3-0.2c2.4-1.6,5-3.7,7.4-6.4c2.9-3,5.6-7.4,8.3-12.8c3-5.3,5.6-10.9,8.6-16.5l1-2.2c2.2-3.5,3.8-7,4.8-10.6
		c0.2-1,0.8-1.4,1.9-1.3c2.2,0.5,4,1.6,5.4,3.4c0.5,0.8,0.5,1.9,0.3,3.5c-0.5,1.8-1.3,3.7-2.4,6.1l-5.6,10.9
		c-2.1,4.3-4.3,9.8-6.4,16c-1.1,2.9-1.6,6.2-1.8,9.9c-0.5,1.4,0,1.9,1.4,1.1c2.2-1.4,3.8-2.6,4.6-3.4c2.7-2.7,5-6.4,7.7-9.8
		c1.3-1.8,2.4-3.7,3.8-5.6c0.6-1.4,1.9-3.2,2.7-5.1c0.3-0.2,0.6-0.3,1.1-0.3c0.2,0,0.3,0.3,0.3,0.8c0.3,1,0.2,2.2-0.6,4
		c-2.7,5.1-5.3,10.1-9,13.9c-0.6,0.8-1.1,1.6-1.6,2.4c-1.3,1.8-3,3.4-5.3,4.6c-5.1,3-9.8,0-11.2-3.7c-1.1-2.6-1.4-5-0.8-7.2l0.6-3.7
		c0-0.5-0.2-0.6-0.5-0.6c-0.2-0.2-0.5,0-0.6,0.2c-0.6,0.6-1,1.1-1.1,1.6c-1.4,3.4-4.3,7-8.3,11l-2.9,2.2c-3.7,2.4-6.6,1.6-8.6-2.1
		c-1.4-2.1-2.1-4.2-1.9-6.6C986.3,234.3,987.4,228.8,989.4,223.2z M993,222.3c1.3-1.1,2.1-2.4,1.3-2.2c-0.8,0.5-1.1,1.1-1.1,2.2
		c-0.6,0.6-1,1-1,1c-0.2,0.2-0.3,0.3-0.3,0.3l0.2-0.3L993,222.3z M996.6,217.3c0,0,0.5-0.2,0.6-0.2c-0.2,0-0.3-0.6-0.3-0.8
		c-0.2,0-0.5,0.2-0.6,0.2C996.2,217,996.4,217.3,996.6,217.3z M999.6,211.6c0,0,0.2,0.3,0.5,0.8c0.3-0.8,0.5-1,0.5-0.8
		c0.8-1.4,1.6-3.2,2.2-5c0.2-0.8,0.2-1.3-0.2-1.4c-0.5,0-1,0.2-1.3,0.6c-1.4,1.4-2.1,2.9-1.8,4.5V211.6z M1013.8,238.3
		c0.8-0.2,1-1,0.8-2.4c0.3-0.2,0.5-1,0.5-2.6c1.3-1.1,1.8-2.4,1.6-4.2c0.5-0.3,0.8-1,0.6-1.8c1.1-0.8,1.8-1.8,1.6-3.2
		c0-0.5,0.8-0.3,1-0.8c1.4-3.7,3.2-7.4,5.1-11c0.5-0.5,0.8-1.1,0.6-1.9c1.9-1.4,2.9-3.7,2.9-6.7h0.3c0,0,0-0.2,0.2-0.2
		c0,0-0.2,0.2-0.3,0.3c-1.1,1.3-2.1,3.5-2.9,6.6c-0.5,0.3-0.8,1-0.8,1.9c-0.8,0.2-1.3,0.6-1.6,1.4c-1.3,2.1-2.6,4.3-3.4,6.4
		c-0.6,1.4-1,2.7-1.1,4c-1,0.5-1.4,1.4-1.4,3.2c-0.5,0.5-0.8,1.1-0.8,1.9c-1.4,0.8-1.3,2.6-1.4,4c-0.5,0.5-0.6,1.4-0.6,2.6
		c-0.5,0.2-0.6,1.1-0.6,2.6c-0.2,0.5-0.5,1-0.6,1.8c-0.5,0.3-0.6,0.5-0.6,0.5c0,0.2,0.2,0.3,0.2,0.3s0.2-0.2,0.2-0.3
		c0,0,0-0.2,0-0.8C1013.5,239.7,1013.8,239.1,1013.8,238.3z"/>
	<path class="st12" d="M1038.5,253.8c-3.7-0.6-6.7-1.1-10.4-1.9c-2.4-0.5-3.2-2.6-5.1-4c0,0,0-0.5,0-1.3c0.5-0.8,0.8-1.3,1-2.1
		l7.7-13.8c1.3-2.6,2.2-5.1,3.7-7.7c0.8-2.6,2.2-5,3.4-7.4c1.8-3.5,2.9-6.1,3.4-7.8c0.8-3.7,2.9-7.5,6.2-11.8c0.3-0.5,1-1.1,2.1-1.8
		c1.8-0.6,4.3,1,6.1,1.4c0.2,0,2.9,1.9,2.7,2.7c-1.4,2.4-6.4,7-7.7,9.1c-2.6,4.8-2.9,8.8-1,11.8c1.1,1.9,2.1,3.8,3.4,5.6l2.4,4.3
		c2.4,5,1.4,10.2-2.6,16c-1.4,2.1-3.2,4-5.6,5.9c-1.3,0.6-2.4,1.3-3,1.8C1042.6,253.2,1040.2,254,1038.5,253.8z M1034.6,229.3
		c-0.2-0.3-0.3-0.5-0.3-0.5c0,0.5,0,0.5,0,0.5c0,0.2,0.3,0.5,0.5,0.5c-0.3,1-0.5,1.4-0.5,1.4c-1.8,1.6-3.2,3.8-4.3,6.7
		c-0.6,2.1-1.8,3.8-2.6,5.9c-0.6,1.9,0.3,4,1.8,3.2c1.8-0.5,2.7-0.2,4.2-0.2c0.8,0,2.1,0.2,3.4,0c5.6-0.2,9.6-3.4,12.3-9.9
		c1.1-2.7,1.1-5,0.3-6.9c-0.8-1.4-2.1-3.5-3.5-6.2c-1.4-1.9-2.4-3.7-3.7-5.6c-0.2-0.5-0.5-0.6-0.6-0.6l-0.6,0.8
		c-1.8,3.8-3.8,7.7-6.2,11.5V229.3z M1051.6,241.2c1.1-2.7,1.1-5.1,0-7c0,0.2-0.2,0.2-0.6-0.3c-0.2,0.2-0.2,0.5-0.2,0.6
		c-0.5,2.7-0.6,5.1-1.1,7.5c-1.8,1.4-2.7,2.7-3,3.8c-0.2,0.2,0,0.3,0.2,0.8c0,0,0.2,0,0.3-0.2c1.8-1.8,2.6-3.2,2.4-4.5
		C1050.6,242,1051.4,241.6,1051.6,241.2z"/>
	<path class="st12" d="M1091.8,238.1c-2.7,5.8-5.1,9.9-7.4,12.5c-2.7,3.4-5.6,5.3-8.6,5.9c-1.9,0.2-3.4,0.3-4.2,0.3
		c-3.2,0-5.3-1.4-6.4-4.2c-2.7-5.3-3.5-10.6-2.4-15.8c2.1-10.7,5.3-21.4,9.9-31.8c1.9-4.5,3.7-9.1,6.1-13.8
		c-0.3,0.2-0.8,0.2-1.3,0.2c-1.4,0-3.4,0.2-4.8,0.2c-1.4,0.2-2.7,0.3-4.2,0.3c-0.5,0-0.6-0.2-0.8-0.5c-0.5-0.5-0.5-0.8-0.3-1.3
		l0.8-1.8c0.5-0.5,1-0.8,1.6-0.8c2.1,0.2,3.8,0.2,5.4-0.2h1.1c1.4,0,2.7-0.3,4.2-0.5c2.6-4,5.4-7.8,7.5-12.2
		c0.3-0.2,0.6-0.6,0.8-1.3l1.3-2.2c1.4-0.3,3-0.3,4.6,0c2.4,0.5,3.7,2.1,3.7,5.1c0,0.6-0.5,1.3-0.5,1.9l-5.3,8.5h1
		c1.4,0.2,3.2,0,5,0c1.3,0,4,0.2,5.4,0c0,0,0.6-0.2,0.8-0.2c0.2,0.2,0.3,0.3,0.3,0.3c0,0.8,0,1.6,0.5,2.2c0.3,1-0.2,1.6-1.4,1.9
		c-0.2,0-0.5,0-0.5,0c-1.8,0-3.7,0.2-5.1,0c-2.9-0.2-5.8-0.2-8.5,0h-0.2c-4,6.4-7.5,13.6-10.6,21.4c-4.3,10.6-7.4,20.5-9.3,29.6
		c-0.8,3.7-0.8,6.9,0,9.6c0.5,1.8,1.4,2.4,3,2.1c5.4-1.1,10.1-5.1,13.9-12.3c4-7.2,6.9-13,9-17.3c0.6-2.1,2.7-0.5,2.2,0.3
		C1096.7,227.7,1094.5,232.2,1091.8,238.1z M1066.5,230.8c0,0-0.3-0.2-0.3-0.6c-0.2,0-0.3,0.2-0.3,0.5c-0.3,1.8-0.5,2.7-0.5,2.9
		c0,2.4,0.3,4.2-0.2,6.1c0,0.2,0.2,0.6,0.2,0.6c0.2-0.3,0.3-0.5,0.3-0.6c0.2-2.7,0.3-4.3,0.5-4.8
		C1066.3,233.8,1066.5,232.5,1066.5,230.8z M1066.6,228.2l0.2,0.2c0,0,0.2-0.2,0.3-0.2c0.5-1.4,0.6-1.9,0.3-1.4l-0.2-0.5
		c-0.2,0.2-0.5,0.5-0.5,0.5c-0.2,0.2-0.2,0.3-0.2,0.6C1066.6,228,1066.6,228.2,1066.6,228.2z M1067.4,223.9c0,0,0.2,0.2,0.5,0.5
		c0.2,0,0.3-0.2,0.5-0.5c-0.2,0.3,0-0.2,0.5-1.3c0-0.8,0.6-2.1,0.5-3.5c-1.4,0.8-1.1,2.6-1.6,3.4c-0.2,0.2-0.3,0.6-0.3,1.1V223.9z
		 M1070.3,217c1.1-3,2.2-6.4,4.2-9.4c0.2-0.2,0.2-0.5,0.2-1c0-0.2-0.2-0.3-0.3-0.3c-0.5,1.4-2.1,1-2.6,1.6c-0.5,0.5-0.5,0.8,0.2,0.8
		c0.5,0,0.8,0.3,0.6,0.8c-0.5,1.1-1,2.2-1.6,3.4c-0.5,1.4-1.1,2.7-1.3,4c0,0.2,0.2,0.5,0.2,0.6
		C1070.2,217.3,1070.3,217.2,1070.3,217z M1077,198.8l-1.3,1.1c-0.3,0.3-0.3,0.6,0,1.1c0.8,0.8,1.3,0.8,1.8,0
		c0.6-1.4,1.1-2.7,1.6-3.5c0-0.2-0.2-0.6-0.2-1.3c-0.3-0.3-0.5-0.5-0.6-0.5s-0.5,0.3-0.5,0.3c-0.2,0.8-0.6,1.4-1.1,1.9
		c0-0.2,0.2,0.2,0.5,1L1077,198.8z M1076.9,188l-0.3-0.2l-0.2,0.2l0.2,0.2L1076.9,188c0.2,0.2,0.5,0.2,1,0c0,0,0.2,0.2,0.2,0h-0.2
		C1077.7,187.9,1077.4,187.9,1076.9,188z M1079.3,187.9c-0.2,0-0.2,0-0.2,0c-0.2,0-0.3,0.2-0.3,0.2h0.2
		C1079,188,1079.1,187.9,1079.3,187.9z M1080.2,194.4c0,0.2,0,0.3,0.2,0.5c0,0,0.2,0,0.2-0.5c0-0.2,0.2-0.6,0.6-1.3l-0.3-0.2
		c-0.3,0-0.5,0-0.5,0.2c-0.2,0.2-0.2,0.3-0.2,0.6C1080.2,194.3,1080.2,194.4,1080.2,194.4z M1092.2,187.7l0.2-0.2c0.2,0,0.3,0,0.3,0
		c-0.2,0-0.3,0-0.3,0L1092.2,187.7z M1093.7,187.4l-0.2,0.2c0,0,0,0.2,0.2,0.2c0.2,0.2,0.5,0.2,1-0.2c0.2,0.2,0.2,0.3,0.3,0.2
		c-0.2,0-0.3,0-0.3,0C1094.3,187.2,1094,187.2,1093.7,187.4z M1095.9,187.7c0,0-0.3-0.2-0.3,0c0,0,0.3,0,0.5,0
		c0.2,0.2,0.5,0.2,0.6,0c0.3,0,0.5,0,0.5,0c-0.5,0-0.5,0-0.5,0C1096.6,187.6,1096.2,187.6,1095.9,187.7z"/>
	<path class="st12" d="M1104.6,230.8c3.2-4.5,6.2-8.6,9.9-13c1.9-2.2,3.8-5.6,5.8-9.9c1.9-4.3,4-8.3,6.4-11.7
		c0.8-1.4,2.1-1.6,3.5-0.5l2.7,2.7c1.1,0.8,1.4,2.1,1.1,3.7l-1.4,2.6c-0.8,0.8-1.6,1.8-2.2,2.9c-1.6,2.2-3,5.8-4.3,10.4
		c-1.1,4.6-0.2,7.8,3,9.3c0.6,0.5,0.8,1,0.5,1.4c-0.5,1-0.8,1.6-1.3,2.1c-0.8,0.8-1.6,1-2.4,0.2c-3.2-1.8-7.7-5.6-8.5-9.4
		c-0.5-1.4-1.3-1.4-2.1-0.2c-1.8,2.4-3.4,4.5-4.8,6.9c-0.8,1.3-2.2,3.4-4.3,6.1c-4.3,5.6-8.2,10.9-11.5,15.7c0,0-0.2,0.2-0.3,0.3
		c-0.6,0.8-0.3,2.6-2.1,2.7c-1.4-1.3-3.5-1-4.6-3.4c0-0.5-0.2-1-0.3-1.3c-0.8-1-1-2.2-0.3-4c1.3-3,2.4-6.2,3.7-9
		c3.4-6.6,6.2-13.6,9.6-20.6l7-15c0.5-1.4,1.3-1.6,2.4-0.8c1.3,1.1,2.4,1.9,3.8,2.6c1.6,1.4,2.2,2.9,1.8,4.5
		c-0.3,0.8-0.8,1.8-1.6,2.9l-9.1,18.2c-1.1,2.4-1.4,4.2-1.3,5c-0.2,0-0.3,0-0.3,0l-0.3,0.2c0.3,0,0.5-0.2,0.5-0.3
		C1103.9,231.4,1104.4,230.9,1104.6,230.8z M1093.8,241c0.6-0.2,1-0.6,1-1.8c0.3-0.5,0.5-0.6,0.5-0.6s-0.2-0.3-0.2-0.5
		c0,0.2-0.2,0.3-0.2,0.3c0,0.5,0,0.8-0.2,1c-0.5,0.3-0.8,1-0.8,1.8c-0.5,0.3-0.8,1-0.8,1.9c-0.3,0.2-0.5,0.5-0.6,0.8
		c0,0,0,0.2,0,0.3c0,0,0.3-0.2,0.3-0.3c0,0,0-0.5,0-1C1093.8,242.9,1094.2,242.3,1093.8,241z M1096.2,236.2V236h-0.2L1096.2,236.2z
		 M1101.7,222.9c2.2-5.3,3.5-8,3.7-8.2c0,0-0.3-0.6-0.3-0.8c-0.2,0.3-0.3,0.5-0.3,0.6C1104.7,214.8,1103.8,217.6,1101.7,222.9
		s-3,7.8-3,8c-0.2,0.2-0.5,0.3-0.6,0.6c0,0.2,0,0.6,0,0.6s0.3-0.3,0.5-0.5c0,0,0-0.6,0-0.8C1098.5,230.8,1099.6,228.2,1101.7,222.9z
		"/>
	<path class="st12" d="M1146.6,231.2c-1.8,3-3.7,5.4-5.1,8.2c-1.8,2.7-3.2,5.4-5.3,7.5c-0.8,0.8-1,1.8-1.8,2.2
		c-0.3,0.6-0.8,0.8-1.3,0.3c-2.4-0.6-3.8-2.6-4-5.9c-0.2-4.3,0.6-8.8,2.4-13.4c1.4-3.8,2.4-8.2,4.8-11.8c0-1.1,0.5-2.2,1.6-3.2
		c2.6-2.4,3.7-5.9,6.4-8.5c1.6-1.4,3.5-2.9,5.9-4.3c2.9-1.4,5.8-1.4,8.5,0c-0.2-0.2,0.5,0.3,1.9,1.3c1.8,1.1,3.2,0.8,4.3-0.8
		c0.2-0.2,0.2-0.3,0.2-0.5c1.8-2.2,3.5-2.2,5.3,0c0.2,0.6,0.6,1.6,1.3,2.4c0.2,0.5,0.2,1.1,0,1.8c-1.8,2.7-2.4,5.6-4.2,8.3
		c-1.9,3-2.7,6.4-4,9.1c-0.6,1.1-0.8,2.2-1.3,3c-2.1,3.7-3.2,7.5-5.6,11.2c-1.3,2.4-1.8,4.6-1.6,7c0,0.2,0.2,0.3,0.3,0.3
		c0.5,0,0.6,0,0.8-0.2c2.7-3.7,5.8-7,8.8-10.7c1.8-2.1,5.6-8.3,7.5-11c-0.2,0.5,0.3,0,1.8-1.4c0.2,1.1-0.3,2.6-1.1,4l-5.3,8
		c-2.1,3.2-3.8,5.8-5.3,7.5c-1.9,2.7-3.5,4.5-4.8,5.6c-2.4,2.7-5,2.6-7.7-0.2c-1.1-0.8-1.6-2.1-1.6-3.5c-0.3-3,0.2-5.9,1.4-8.6
		c0.6-2.1,1.1-4.6,2.6-6.7c1.4-1.8,1.9-4.3,2.7-6.9c0.5-1.6,1.1-3.7,1.6-6.1c0.5-2.6,0.8-3.8,0.8-4c0.6-0.6,1-1.9,1.8-2.7
		c0,0-0.3,0-0.3-0.5l-0.3-0.2c-0.8,0.6-1.9,0.8-2.6,1c-2.6,0.8-4.6,1.8-6.2,2.9c-0.8,0.8-1.1,1.3-1.1,1.4c-0.2,1.9-1.9,2.7-2.6,4.2
		c-2.1,3.4-4.5,6.7-5.6,10.7c-2.4,3.7-3.5,8.2-5,12.2c0.2-0.2,0.3,0,0.3,0.8c0,0,0.5-0.3,0.6-0.5c1.8-2.4,3-4.3,3.8-5.8
		c0.8-0.6,1.1-1.8,1.9-2.6c2.1-1.8,3.7-4.3,5.4-6.7c1.4-2.4,3.2-4.2,4.6-6.9c1.4-2.4,2.7-4.2,3.8-5.1c1.1-1,0.6,0.6-1.8,4.8
		C1152.1,222.9,1149.2,226.9,1146.6,231.2z M1137.4,230.4c0-0.2-0.2-0.5-0.5-0.6c-0.2,0.2-0.3,0.5-0.3,0.8c0,0.2,0.2,0.5,0.5,1
		c0,0,0.3-0.3,0.3-0.8C1137.4,230.6,1137.4,230.4,1137.4,230.4z M1156.2,232.8c0,0.2,0.2,0.6,0.2,0.6l0.3-0.2c0-0.2-0.2-0.3-0.2-1
		C1156.4,232.7,1156.2,232.8,1156.2,232.8z M1157.5,230.8l-0.2-0.2v0.2H1157.5z M1159.4,226c-0.3,0.2-0.5,0.5-0.5,0.8
		c0,0,0,0.3,0.5,0.3c0-0.2,0.2-0.6,0.2-0.8C1159.6,226.3,1159.4,226.1,1159.4,226z M1162.3,220.2c0,0,0-0.2,0-0.6
		c-0.3,0.3-0.5,0.5-0.5,0.5c-0.5,0.2-0.3,0.8-0.3,0.8c-0.3,0.3-0.5,0.5-0.5,0.5s0,0.3,0,1c0,0,0.3-0.3,0.5-0.5c0,0,0-0.5,0-1
		C1162,220.7,1162.2,220.5,1162.3,220.2z"/>
	<path class="st12" d="M1197.5,238.1c-2.7,5.8-5.1,9.9-7.4,12.5c-2.7,3.4-5.6,5.3-8.6,5.9c-1.9,0.2-3.4,0.3-4.2,0.3
		c-3.2,0-5.3-1.4-6.4-4.2c-2.7-5.3-3.5-10.6-2.4-15.8c2.1-10.7,5.3-21.4,9.9-31.8c1.9-4.5,3.7-9.1,6.1-13.8
		c-0.3,0.2-0.8,0.2-1.3,0.2c-1.4,0-3.4,0.2-4.8,0.2c-1.4,0.2-2.7,0.3-4.2,0.3c-0.5,0-0.6-0.2-0.8-0.5c-0.5-0.5-0.5-0.8-0.3-1.3
		l0.8-1.8c0.5-0.5,1-0.8,1.6-0.8c2.1,0.2,3.8,0.2,5.4-0.2h1.1c1.4,0,2.7-0.3,4.2-0.5c2.6-4,5.4-7.8,7.5-12.2
		c0.3-0.2,0.6-0.6,0.8-1.3l1.3-2.2c1.4-0.3,3-0.3,4.6,0c2.4,0.5,3.7,2.1,3.7,5.1c0,0.6-0.5,1.3-0.5,1.9l-5.3,8.5h1
		c1.4,0.2,3.2,0,5,0c1.3,0,4,0.2,5.4,0c0,0,0.6-0.2,0.8-0.2c0.2,0.2,0.3,0.3,0.3,0.3c0,0.8,0,1.6,0.5,2.2c0.3,1-0.2,1.6-1.4,1.9
		c-0.2,0-0.5,0-0.5,0c-1.8,0-3.7,0.2-5.1,0c-2.9-0.2-5.8-0.2-8.5,0h-0.2c-4,6.4-7.5,13.6-10.6,21.4c-4.3,10.6-7.4,20.5-9.3,29.6
		c-0.8,3.7-0.8,6.9,0,9.6c0.5,1.8,1.4,2.4,3,2.1c5.4-1.1,10.1-5.1,13.9-12.3c4-7.2,6.9-13,9-17.3c0.6-2.1,2.7-0.5,2.2,0.3
		C1202.5,227.7,1200.2,232.2,1197.5,238.1z M1172.2,230.8c0,0-0.3-0.2-0.3-0.6c-0.2,0-0.3,0.2-0.3,0.5c-0.3,1.8-0.5,2.7-0.5,2.9
		c0,2.4,0.3,4.2-0.2,6.1c0,0.2,0.2,0.6,0.2,0.6c0.2-0.3,0.3-0.5,0.3-0.6c0.2-2.7,0.3-4.3,0.5-4.8
		C1172.1,233.8,1172.2,232.5,1172.2,230.8z M1172.4,228.2l0.2,0.2c0,0,0.2-0.2,0.3-0.2c0.5-1.4,0.6-1.9,0.3-1.4l-0.2-0.5
		c-0.2,0.2-0.5,0.5-0.5,0.5c-0.2,0.2-0.2,0.3-0.2,0.6C1172.4,228,1172.4,228.2,1172.4,228.2z M1173.2,223.9c0,0,0.2,0.2,0.5,0.5
		c0.2,0,0.3-0.2,0.5-0.5c-0.2,0.3,0-0.2,0.5-1.3c0-0.8,0.6-2.1,0.5-3.5c-1.4,0.8-1.1,2.6-1.6,3.4c-0.2,0.2-0.3,0.6-0.3,1.1V223.9z
		 M1176.1,217c1.1-3,2.2-6.4,4.2-9.4c0.2-0.2,0.2-0.5,0.2-1c0-0.2-0.2-0.3-0.3-0.3c-0.5,1.4-2.1,1-2.6,1.6c-0.5,0.5-0.5,0.8,0.2,0.8
		c0.5,0,0.8,0.3,0.6,0.8c-0.5,1.1-1,2.2-1.6,3.4c-0.5,1.4-1.1,2.7-1.3,4c0,0.2,0.2,0.5,0.2,0.6
		C1175.9,217.3,1176.1,217.2,1176.1,217z M1182.8,198.8l-1.3,1.1c-0.3,0.3-0.3,0.6,0,1.1c0.8,0.8,1.3,0.8,1.8,0
		c0.6-1.4,1.1-2.7,1.6-3.5c0-0.2-0.2-0.6-0.2-1.3c-0.3-0.3-0.5-0.5-0.6-0.5s-0.5,0.3-0.5,0.3c-0.2,0.8-0.6,1.4-1.1,1.9
		c0-0.2,0.2,0.2,0.5,1L1182.8,198.8z M1182.6,188l-0.3-0.2l-0.2,0.2l0.2,0.2L1182.6,188c0.2,0.2,0.5,0.2,1,0c0,0,0.2,0.2,0.2,0h-0.2
		C1183.4,187.9,1183.1,187.9,1182.6,188z M1185,187.9c-0.2,0-0.2,0-0.2,0c-0.2,0-0.3,0.2-0.3,0.2h0.2
		C1184.7,188,1184.9,187.9,1185,187.9z M1186,194.4c0,0.2,0,0.3,0.2,0.5c0,0,0.2,0,0.2-0.5c0-0.2,0.2-0.6,0.6-1.3l-0.3-0.2
		c-0.3,0-0.5,0-0.5,0.2c-0.2,0.2-0.2,0.3-0.2,0.6C1186,194.3,1186,194.4,1186,194.4z M1198,187.7l0.2-0.2c0.2,0,0.3,0,0.3,0
		c-0.2,0-0.3,0-0.3,0L1198,187.7z M1199.4,187.4l-0.2,0.2c0,0,0,0.2,0.2,0.2c0.2,0.2,0.5,0.2,1-0.2c0.2,0.2,0.2,0.3,0.3,0.2
		c-0.2,0-0.3,0-0.3,0C1200.1,187.2,1199.8,187.2,1199.4,187.4z M1201.7,187.7c0,0-0.3-0.2-0.3,0c0,0,0.3,0,0.5,0
		c0.2,0.2,0.5,0.2,0.6,0c0.3,0,0.5,0,0.5,0c-0.5,0-0.5,0-0.5,0C1202.3,187.6,1202,187.6,1201.7,187.7z"/>
	<path class="st12" d="M1214.6,235.1c-2.7,4.5-5.3,7.8-7.7,10.1l-2.2,2.4c-1,0.5-1.6,0.8-2.1,0.8c-2.7,0.3-4.5-0.6-5.3-2.9
		c-1.1-3.2-1.3-6.4-0.5-9.4c1.1-3,1.8-6.1,3.5-9.1l1-2.6c2.6-7.5,6.7-15,9.8-20.6c0.3-0.8,0.8-1.1,1.4-0.6c1,1.1,2.2,1.8,3.7,1.9
		c1.6,0.5,2.1,1.8,1.6,3.5c0.2-0.5,0-0.2-0.5,1.3c-2.4,4.3-4.3,8.3-5.9,12c-2.1,3.8-4.2,8.3-6.2,13.4c-1.3,2.2-2.1,4.8-2.4,7.5
		c-0.3,0.8-0.3,1.4,0,2.1c0,0.6,0.2,0.8,0.6,0.3c2.1-1.1,3.7-2.4,4.8-4.2c1-1.1,2.9-4,5.6-8.5c2.9-4.5,4.8-7.5,5.6-9
		c0,0,2.1-0.6,1.6,0.6C1219.6,226.9,1217.4,230.6,1214.6,235.1z M1199.1,232v0.3c0.2-0.2,0.3-0.3,0.3-0.3c0-0.2,0-0.3-0.2-0.5
		c0.2,0,0.3,0,0.3,0s0-0.3,0-0.5c0,0.2-0.2,0.5-0.2,0.5C1199.3,231.7,1199.1,231.9,1199.1,232z M1200.4,234.8l-0.2,0.2v0.3
		C1200.2,234.9,1200.2,234.8,1200.4,234.8c0.6-0.8,1-1.6,1-2.7c0.3-0.2,0.5-0.6,0.5-1.4c1.6-1.6,2.6-3.7,2.7-6.2
		c0.5,0,1-0.6,1.4-2.1c1.1-1.9,1.9-4.5,3-6.6l1.6-3.5c0.2-0.2,0-0.3-0.2-0.6l-0.2,0.2c-0.5,0.5-0.8,1-1.3,1.8c-1.4,3-2.7,5.9-3.8,9
		c-0.3,0.8-0.5,1.4-0.5,2.1c-0.6,0.5-1.6,1.9-2.7,4.6c-0.2,0.2-0.2,0.6-0.2,1.4c-0.3,0.2-0.5,0.6-0.5,1.4
		C1200.6,232.7,1200.2,233.6,1200.4,234.8z M1201.7,226.8c-0.8,0.2-1,0.6-0.6,1.4c-0.3,0.2-0.5,0.5-0.5,1.3c-0.3,0-0.3,0.2-0.2,0.3
		c0,0,0.2-0.2,0.2-0.3c0.2-0.2,0.3-0.6,0.3-1.4c0.5-0.2,0.8-0.5,0.6-1.3c0.3-0.2,0.5-0.8,0.5-1.6c0.5,0,0.6-0.2,0.2-0.3
		c0,0.2,0,0.5-0.2,0.6C1201.5,225.6,1201.5,226.1,1201.7,226.8z M1203.8,222l0.2-0.2c0-0.8,0.2-1.1,0.5-1.3c0-0.5,0.2-0.8,0.6-1.4
		c0,0,0.2-0.3-0.3-0.2c-0.2,0.8-0.5,1-0.5,1.6c-0.2,0.5-0.5,0.8-0.5,1.3V222z M1206.5,215.4c0.5-0.2,0.6-0.6,0.5-1.3
		c0.5-0.2,1-0.5,1.1-1.3c0,0-0.2,0-0.2-0.5c0,0.2-0.2,0.3-0.2,0.3l-0.6,1.4l-0.5,1.6c-0.2,0.5-0.6,1.1-0.6,1.3l-0.2,0.2v0.2
		c0-0.2,0-0.3,0.2-0.3C1206.3,216.8,1206.5,216.4,1206.5,215.4z M1207.4,222c0,0.2,0.2,0.5,0.2,0.5s0.2-0.2,0.2-0.3c0,0,0-0.2,0-0.8
		h0.2l0.2-0.2c0,0-0.2,0.2-0.3,0.3C1207.8,222,1207.4,222,1207.4,222z M1211.8,209.5c0,0,0-0.3,0.2-0.3c0,0,0,0,0.2,0
		c0-0.2,0.2-0.3,0.3-0.3v0.2c-0.5,0-0.5,0-0.5,0C1211.9,209.2,1211.9,209.3,1211.8,209.5z M1219,203.4c-0.2,0.3-1.3,0-3.2-1
		s-2.7-1.8-2.6-2.2c0.5-1.8,0.6-2.7,0.8-2.9s0.5-1.3,0.8-3c1.3-1.6,2.7-1.6,4.5-0.2c1.8,1.4,2.9,2.7,3.7,3.5c0.8-1.1,0.8-1-0.3,0.3
		C1222,200.4,1219.6,201.3,1219,203.4z"/>
	<path class="st12" d="M1234.3,234.1c-0.8-1.1-1-1.9-0.2-2.6c0-0.2,0.3-0.8,0.8-1.6c3.2-5.3,5.4-11.5,6.7-18.7
		c0.8-5-0.2-9.4-2.7-13.4c-0.5-0.8-1.1-1.9-1.9-3.7c-0.3-0.6-0.3-1.4,0.2-2.6c0.5-1,1-1.1,1.3-0.3c1.1,1.8,3,2.7,5.4,3.2
		c1.4,0.3,2.6,1.3,3.5,2.9c0.8,2.1,1.8,4.8,3,6.9c0.2,0.2,0.2,0.3,0.2,0.8c-0.5,3.2,0.2,6.4-0.3,9.4c-1.6,7.5-5,14.9-9.9,21.8
		l-3.2,4.2c-2.6,3.7-6.4,5.6-10.1,7.5c-2.4,1.1-4.5,0.8-6.6-1.3c-2.7-2.7-4.2-6.1-4-10.4c0.5-6.7,1.9-13.3,4.5-19.8
		c0.6-1.6,1.8-3.8,3.5-6.7c1.4-3,4.3-4.8,7-6.9c0.8-0.6,2.1-0.6,3.7,0l2.4,1.4c1.1,1.1,1.1,2.1,0.3,3.2c-0.8,0.8-1.9,1.9-3.4,3
		c-1.1,1.1-1.6,2.1-1.8,2.9c-0.2,0.5-0.6,1.4-1.8,2.7c-2.7,3.7-4.6,7.7-5.6,12c-1.3,4-2.4,8-2.4,12.3v1.8c0,0.8,0.3,1,1.1,0.8l1.9-1
		c3.4-1.3,5.6-4.6,6.9-7.4c3.7-0.6,5.1,0.8,5.9-2.4c0,0-0.6-0.5-0.8-0.5c-0.5,0-1,0.2-1.4,0.5c-1.1,0.5-1.1,1.9-2.6,1.9H1234.3z
		 M1246.3,211.4c-0.3-0.2-0.6,0-0.8,0.2c-0.3,0.8-0.5,1.1-0.5,1.1c0,1-0.3,2.4-1.1,4.2c-1.1,2.1-1.9,4.5-2.6,6.6
		c0,0.5,0.2,0.8,0.3,0.8c0,0,0.2,0,0.6,0c1.1-0.5,1.8-1.4,2.2-2.7c1-3.8,1.8-6.7,2.4-8.8c0-0.2-0.2-0.3-0.2-1
		C1246.6,211.6,1246.5,211.4,1246.3,211.4z M1243.1,198l0.2-0.2h-0.2V198z M1246.8,206.3c0-0.2-0.2-0.3-0.3-0.5c0,0-0.2,0.2-0.5,0.6
		c0,0.5,0.2,0.6,0.3,0.8c0,0.5,0.2,0.6,0.2,0.6l0.3-0.5C1246.8,206.6,1246.8,206.3,1246.8,206.3z"/>
	<path class="st12" d="M1291.3,235.6c-3.7,5.6-6.1,9-7,10.2c-0.6,1-1.8,2.2-3.2,3.8c-1.4,1.3-3,1.3-4.5,0c-2.9-2.1-4.5-4.3-4.6-6.9
		c-0.3-2.1,0-4.8,1-8c2.1-7,3-12.5,6.7-19.5c2.7-5,3.8-7.5,3.4-7.7c-1.1,0.2-2.2,1.1-3.4,2.6c-2.6,3.4-5.1,6.2-7.7,9.4
		c-4.5,5.8-8.8,11.8-12.5,18.2c-1.1,2.1-2.2,3.7-3.7,5l-1.9,2.7c-0.6,0.6-1.1,1.6-1.6,2.4c-1.1,1.6-2.6,1.8-4.3,0.6
		c-2.9-1.4-3.5-3.8-2.1-7.4c1.9-3.7,3.8-7.7,5.1-11.7c0.5-1.3,1.1-2.2,1.3-3.5c4.3-8.2,7.7-16.5,11.4-25.3c0.5-1.8,1.6-2.4,3.2-1.6
		l4.2,2.6c1.6,1.1,2.1,2.7,1.3,4.6c-2.4,4.6-5,9.6-7,13.9c-1.8,3.8-3.7,7.2-5,10.6c0,0,0,0.3,0,1c0,0,0.3,0,0.5-0.5
		c0.2-0.5,0.8-0.6,1.3-1.4c3.7-5.8,8.3-11.4,13.3-17.1c1.8-2.1,2.1-3.4,4.2-5.9c1.8-2.1,3.8-4.8,5.8-6.9c0.8-0.8,1.3-1,1.6-0.6
		c1.4,1.1,2.9,1,4.3,1.4c0.6,0.6,3.2,2.9,3.2,3.5c0,4.6-3.7,9.9-5.8,14.4c-0.6,1.1-1.4,2.7-2.4,5c-0.2,0-0.2-0.2-0.2-0.2
		c-0.5,0-0.5,0-0.5,0c-0.2,0.2-0.3,0.5-0.3,0.8c0,0.2,0.2,0.5,0.3,0.5l-2.2,5.9c-0.3-0.5-0.5-0.6-0.6-0.6c-0.5,0-0.6,0.3-0.6,1
		c0,0.2,0.3,0.5,0.8,1l0.2-0.6c-0.2,1.1-0.5,1.9-0.6,2.6l-0.5-0.2c0,0,0-0.2,0-0.6l-0.2-0.2c0,0.2,0,0.3,0,0.3
		c0,0.2,0.2,0.3,0.3,0.3v1.3l-0.2,0.2v0.3l0.2-0.3c-1.8,1.1-2.4,2.7-1.9,4.6c-0.2,0.2-0.8,0.3-0.8,0.3l-2.6,4.5
		c-0.2,0.2-0.2,0.3-0.2,0.5c0,0.5,0.2,0.6,0.2,0.6c0.5,0.3,0.6,0.3,0.6,0c1.4-1.8,2.2-3.8,2.7-6.1c0.3-0.3,0.8-0.8,1.3-1.6l-0.3,1.1
		c-0.6,2.7-0.8,4.5-0.6,5.3c2.1,0,3.4-1.9,4.8-3.4c0.5-0.6,2.6-3.4,6.1-8.3c3.5-5,5.6-7.8,6.1-8.3c0.6-1.1,1.9-0.8,1.3,0.6
		C1297.5,226.3,1295.1,230,1291.3,235.6z M1255.3,237c-0.3,0-0.5,0-0.6,0.2c0,0.5-0.2,0.8-0.2,1c0,0.2,0.2,0.5,0.2,0.5
		c0.2,0,0.3-0.2,0.6-0.3c0.2-0.2,0.2-0.3,0.2-0.8C1255.4,237.3,1255.4,237.2,1255.3,237z M1257.2,223.9l-0.2,0.3
		c-0.2,0.5-0.3,0.6-0.3,0.8c0,0,0.2,0.5,0.3,0.5c0,0,0.2,0.2,0.2-0.3c0.2-0.2,0.3-0.5,0.3-0.6
		C1257.4,224.5,1257.2,224.4,1257.2,223.9z M1259.3,217.8c0.2,0.5,0.5,0.8,1,0.8c0.5,0,0.6-0.3,0.5-1c0,0.3-0.2,0.2-0.5-0.6
		C1259.6,217.5,1259.3,217.8,1259.3,217.8z M1260.7,213.6c1.8-0.8,2.4-2.4,2.1-4.5c0,0,0.5-0.3,0.6-0.5l2.6-4.5
		c0.2-0.2,0.3-0.3,0.3-0.5c0,0-0.3-0.2-0.3-0.6c-0.2,0-0.5,0-0.5,0c-1.4,1.9-2.4,4-2.7,6.1c-1.3,1.3-1.9,2.9-1.9,4.6
		c-0.6,0.5-0.6,1,0,1.3c0,0.2,0,0.6,0,0.6l0.2,0.2c0,0,0.2,0,0.2-0.5c-0.2,0-0.5-0.2-0.5-0.3V213.6z M1287.6,211.7
		c0,0,0.3-0.2,0.5-0.3c0,0,0.3-0.3,0.3-1c0,0-0.3-0.3-0.3-0.5c-0.2,0.2-0.5,0.3-0.5,0.3c-0.2,0.2-0.2,0.3-0.2,0.8
		C1287.4,211.4,1287.4,211.6,1287.6,211.7z"/>
	<path class="st12" d="M1299.3,253.8c-3.7-0.6-6.7-1.1-10.4-1.9c-2.4-0.5-3.2-2.6-5.1-4c0,0,0-0.5,0-1.3c0.5-0.8,0.8-1.3,1-2.1
		l7.7-13.8c1.3-2.6,2.2-5.1,3.7-7.7c0.8-2.6,2.2-5,3.4-7.4c1.8-3.5,2.9-6.1,3.4-7.8c0.8-3.7,2.9-7.5,6.2-11.8c0.3-0.5,1-1.1,2.1-1.8
		c1.8-0.6,4.3,1,6.1,1.4c0.2,0,2.9,1.9,2.7,2.7c-1.4,2.4-6.4,7-7.7,9.1c-2.6,4.8-2.9,8.8-1,11.8c1.1,1.9,2.1,3.8,3.4,5.6l2.4,4.3
		c2.4,5,1.4,10.2-2.6,16c-1.4,2.1-3.2,4-5.6,5.9c-1.3,0.6-2.4,1.3-3,1.8C1303.4,253.2,1301,254,1299.3,253.8z M1295.4,229.3
		c-0.2-0.3-0.3-0.5-0.3-0.5c0,0.5,0,0.5,0,0.5c0,0.2,0.3,0.5,0.5,0.5c-0.3,1-0.5,1.4-0.5,1.4c-1.8,1.6-3.2,3.8-4.3,6.7
		c-0.6,2.1-1.8,3.8-2.6,5.9c-0.6,1.9,0.3,4,1.8,3.2c1.8-0.5,2.7-0.2,4.2-0.2c0.8,0,2.1,0.2,3.4,0c5.6-0.2,9.6-3.4,12.3-9.9
		c1.1-2.7,1.1-5,0.3-6.9c-0.8-1.4-2.1-3.5-3.5-6.2c-1.4-1.9-2.4-3.7-3.7-5.6c-0.2-0.5-0.5-0.6-0.6-0.6l-0.6,0.8
		c-1.8,3.8-3.8,7.7-6.2,11.5V229.3z M1312.4,241.2c1.1-2.7,1.1-5.1,0-7c0,0.2-0.2,0.2-0.6-0.3c-0.2,0.2-0.2,0.5-0.2,0.6
		c-0.5,2.7-0.6,5.1-1.1,7.5c-1.8,1.4-2.7,2.7-3,3.8c-0.2,0.2,0,0.3,0.2,0.8c0,0,0.2,0,0.3-0.2c1.8-1.8,2.6-3.2,2.4-4.5
		C1311.4,242,1312.2,241.6,1312.4,241.2z"/>
</g>
</svg>
