<svg version="1.1" id="Layer_1" xmlns="http://www.w3.org/2000/svg" x="0" y="0" viewBox="0 0 2175.8 545.5" xml:space="preserve"><style>.st3{fill:#fff}.st8{fill:#215064}</style><g id="Layer_2_1_"><path d="M-4.1 0h2182.8v450.3H-4.1V0z" fill="#7be3ff"/><circle cx="1621.6" cy="327.5" r="81.9" fill="#f2ff7c"/><path d="M-4.1 389.1h2182.8v156.4H-4.1V389.1z" fill="#38e1da"/><path class="st3" d="M1638.7 416.6c-.1.1-.6.1-1.4-.1-.4-.1-1-.2-1.6-.4-.6-.1-1.3-.2-2.1-.4-3-.6-7.3-1-12.1-.9-9.5.2-17.1 2.3-17.2 1.7-.1-.3 1.7-1.1 4.8-2 3.1-.8 7.5-1.7 12.4-1.8 4.9-.1 9.4.6 12.4 1.5.8.2 1.5.5 2.1.7.6.3 1.1.5 1.5.7.9.6 1.3.9 1.2 1z"/><path d="M647.6 65.7c-.1 0 0-.6-.3-1.3-.2-.4-.5-.8-1-1.1s-1.2-.5-2-.7c-.8-.1-1.7-.2-2.6 0-.9.2-1.9.5-3 .9-1 .4-2.1 1-3.1 1.7-.5.3-1 .7-1.6 1.1l-.6.5-.8.7c-.5.5-1.1.9-1.6 1.4.1-.6.2-1.3.3-1.9 0-.3 0-.5.1-.8v-.7c-.1-.5-.2-.8-.3-1.2-.3-.8-.7-1.5-1.4-2-1.1-1.1-2.6-1.6-4.1-2-1.5-.3-3-.5-4.5-.5-2.9 0-5.4.7-7.5 1.5-4.1 1.6-6.3 3.4-6.5 3.2-.1-.1 1.8-2.3 6-4.3 2.1-1 4.8-1.8 7.9-1.9 1.6-.1 3.2.1 4.8.4 1.6.4 3.4 1 4.8 2.4.8.7 1.4 1.7 1.8 2.7.2.5.3 1 .3 1.5l.2-.1c.6-.4 1.1-.8 1.7-1.1 1.1-.7 2.3-1.3 3.4-1.7 1.1-.4 2.3-.7 3.3-.9 1.1-.1 2.1 0 3 .2s1.7.5 2.3 1c.6.4 1 1 1.1 1.6.3.9-.1 1.5-.1 1.4z" fill="#4cb2e5"/><path d="M1564 389.1s-9.7-7.3-14.1 16.4c-3.5 18.7 2.9 9.8 20.7 21.2 16.9 10.8-6.5 26.1 12.7 23.2s54.7-16.5 71.1-26.1c16.4-9.5 11.4-20.8 36.8-16.4 25.3 4.4 15.6-18.3 0-18.3H1564z" opacity=".2" fill="#f2ff7c"/><path class="st3" d="M1937.5 251.3c9.8-14.7 35.2-15.5 50.7-12.3 4.1-23.7 36.8-34.3 39.2-4.1 8.2-4.1 18.8-4.9 22.1 4.9 10.6-3.3 20.3 3.7 28.4 11.1-46.9 0-140.4.4-140.4.4zm-1649-71.1c0-.4.1-.8.1-1.2 0-8.3-6.7-15-15-15h-.8c-3.4-8.1-11.4-13.4-20.2-13.4h-1.3c-4.1-14.2-17.1-24.5-32.6-24.5-16 0-29.5 11.1-33 26.1-8.1 2.5-14.1 9.8-14.9 18.6-1.7-.5-3.6-.8-5.4-.8-7.3 0-13.7 4.1-17 10.1l140.1.1z"/></g><path class="st3" d="M1294.5 473.1c-11-1.3-23.2-2.5-36-2.6-12.8 0-24.9 1.5-35.9 3m-105.5 20.9c3-.3 6.2-.4 9.4-.5 3.3-.1 6.7.1 10.1.1m-407.9-5.1c0-.1 1.9.1 5.3.5s8.3.9 14.4 1.3c6.1.3 13.3.6 21.3-.4 2-.3 4-.6 6-1.1s4-1.2 5.9-2.1 3.7-2.1 4.9-3.8c.3-.4.6-.9.9-1.3.3-.4.4-.9.6-1.4.1-.2.2-.5.3-.8s.2-.6.4-.9c.1-.3.3-.6.5-.8.2-.3.3-.5.5-.8 1.5-2.1 3.5-3.5 5.6-4.6s4.2-1.9 6.4-2.6c4.3-1.3 8.6-1.9 12.6-2.4 8.1-.8 15.4-.7 21.6-.5 6.1.2 11.1.7 14.5 1.1s5.3.8 5.2.9c0 .1-1.9 0-5.3-.1-3.4-.2-8.3-.4-14.4-.5-6.1 0-13.4 0-21.3.9-4 .5-8.1 1.2-12.3 2.4-2.1.6-4.1 1.4-6 2.4s-3.7 2.4-4.9 4.1c-.2.2-.3.4-.4.7-.1.2-.3.4-.4.7-.1.2-.2.5-.3.7s-.2.5-.3.8c-.3.6-.5 1.2-.8 1.7s-.7 1.1-1 1.5c-1.5 2-3.6 3.3-5.6 4.3-2.1 1-4.2 1.7-6.3 2.2s-4.2.8-6.2 1.1c-8.1.9-15.5.5-21.6 0s-11-1.3-14.4-1.9c-3.6-.7-5.4-1.2-5.4-1.3zm327.1-80.4c2.6.3 5.2.6 7.6 1 4.8.8 9 1.7 12.6 2.3m-59.6 12.8c-2.9-.7-6-1.4-9.2-1.7-1.6-.1-3.2-.2-4.8-.1M242 452c7.6-1.8 16.2-3 25.3-3.1 9-.1 17.7.9 25.3 3m-216 41.4c-3.6.3-8.5-.1-13.8-1.3-10.6-2.5-18.3-6.7-18-7.2m2086.8-56c-2.7.7-5.5 1.5-8.5 2.3s-6.3 1.5-9.7 2.1"/><path class="st8" d="M896.5 255.8c.8-.1 3.8-.4 5-.1l.2.1 1.3-.1c1.3.1 2.3.6 3.2 1.7 0 0 0 .2.5.1.6 1.1.1 1.9-1 2.2-1.8 0-4 .1-6.9.4l-1 .1c-2.7.2-5.6.6-8.6.6-4.9.4-9.4.5-14.4.9-2.1.2-3.8.1-5.8.3-1.7.3-2.8-.8-3-3.3 0-.6.2-1 .7-1 2.7-.2 4.8-.4 6.2-.6 0 0 .5-.2.9-.2 3.9-.9 5.8.5 7.3-2.8s3.7-9.9 4.9-13.4c6.3-16 12.6-32.4 19.3-48.8 0 .2.2.1.2.1 0 .5.2.3.2.3l.8-2.3-.3.2v-.2c3.5-8.6 5.8-14.7 6.8-18.2 1-3.6 2.2-6.7 3.8-9.6-4 .3-7.9.1-11.2.8-2.7.5-4.2-.6-4.4-3.5-.1-.8.4-1.3 1.2-1.4 6.2-.9 12.2-1.6 18.1-2 .2 0 .7.1 1.1.1 2.1-.5 3.6-.6 4.9-.4l-.1.5c.5.1 1 .2 1.3.1.8.4 1.3.5 1.3.5.8-.2.5-.2-.6.2-1.1.2-1.4.3-.7-.3 0 0 .8-.1 2.2-.2.5 0 1.3-.3 2.2-.5l-1.5-.7c1.6-.4 3-.4 4.2 0l-1.4.6h-.2l-1.1.1c.5.1.8.1 1.3-.1 1.7.8 3.1.7 4.2-.2l-1.3-.5c.5-.4.9-.6 1.1-.6 1.3-.1 2.2 0 3.5-.1 1.8-.1 3.3.6 4.3 1.9 0 0 .2.1.5.3.9 1.7.5 2.8-1.2 3.1-4.3.2-7.2.4-8.8.5-1.4-.1-4.2.2-8 .4-1.9 4.5-3.9 9.9-6.2 16.2-2.3 6.1-4.2 10.9-6 14.4-5.1 10.5-9.2 20.4-12.2 30.1-3 9.5-6.6 19.4-10.6 29.7-1.3 4.8-1.2 5 3.8 4.6zm-10.9-10c-.2 0 0 .2.3.3 0 0 0-.2.1-.2v-.5c-.2.1-.4.3-.4.4zm2.3-5.7c-1.3 1.9-2 3.5-1.9 5.1 1.4-1.7 2-3.4 1.9-5.1zm-1.8 5.4v-.3.3zm3-2.5c-.5 1.8-.9 3.1-1.3 4.1 0 0 .2.3.3.3h.5c1.1-2.3 1.6-4.1 1.5-5.2-.7.5-1 .7-1 .8zm-.7-3.5s-.3-.1-.4-.6c0 .2 0 .3-.1.5v.5c.2 0 .3-.2.5-.4zm-.5.4v.2-.2zm.6-3.1c0 .2.2.5.2.5.1-.2.3-.2.3-.3 0 0 .1-.2.1-.6-.3.2-.5.4-.6.4zm2.5-.7c-.2-.9-.6-1.6-.8-2h-.6c-.1.6-.5 1.5-.5 2.1.7-.3 1.4-.3 1.9-.1zm.7 3.2v-.3l-.2-.3c-.5-.3-.7-.3-.6 0-.6.5-.8 1.7-.7 3.3l1.5-2.7zm-1.5 2.8v-.2.2zm1.1-6h-.3.3zm.4.9s.3 0 .5-.2c.1-.7.5-1.5.9-2.3 0 0-.2-.5-.2-.6-.2 0-.3 0-.5.2-.6.7-1 1.4-1.1 2 0 .2.2.5.4.9zm5.3-13.2l-.2-.3-.1.3.2.1.1-.1zm2.1-4.2c-.2 0-.3-.3-.3-.3-.6.2-.9.9-1.1.9v.3s.2.1.3.1c.5-.2.9-.6 1.1-.7v-.3zm4.5 37.1c-.8-.3-1.3-.4-1.6-.4v.6c.4.2.8 0 1.6-.2zm.3 0h-.3.3zm0 0h.3-.3zM903 208h-.5c-.4.8-.5 1.5-.7 2 0 0 0 .2.2.1h.3c.4-.8.7-1.3.8-1.8l-.1-.3zm-1.1-6.4c0 .2.2.5.2.5s.3-.2.3-.3v-.5c-.1.1-.5.3-.5.3zm.4-.3h.2v-.3l-.2.3zm.2-.4c.3-.2.4-.5.4-1.3-.4.4-.5.9-.4 1.3zm.5 2.9l.2.1h.2l-.4-.1zm0-4.2h-.2s.2 0 .1-.2l.1.2zm2.2 5.6c.3-.7-.1-1.1-.9-1.2-1-.4-1.3-.5-1-.1-.1.5-.1 1 0 1.8 0 .5.1.8.2.9.5-.4.6-.5.6-.4l1.1-1zm-2.2-5.8c.5-.2.6-.8.5-2-.5.4-.6 1.1-.5 2zm.5-1.9h.2-.2zm.1 0c.3-.3.4-.8.4-1.6-.3.3-.4.8-.4 1.6zm.7-1.7h-.3.3zm.5 0c-.2-.5-.4-.5-.5 0h.5zm.6 5.6l.3-.3-.2-.5c-.1.2-.4.5-.4.5l.3.3zm-.6-5.6h.2-.2zm.2 0c.2.5.4.5.6 0h-.6zm1.2-.1c-.2-.1-.5-.1-.6 0h.6zm0 0c-.1.8-.4 1.5-.3 2.1 0 .5.1 1 .2 1.1.7.6 1 .2.9-1 .1-1-.1-1.8-.8-2.2zm.4-5.8c.5-.2.6-.7.5-1.3l-.5 1.3zm0 .1v-.2.2zm2.5 2.7c-.6 0-.8-.3-.8-.3-.4.7-.7 1.3-.8 1.8-.2 0 0 .3 0 .3.5 0 .8-.1.8-.1-.5.5-.3-.1.8-1.7zm-2-4.5l.3-.2-.3.5s.1.2 0-.3zm1-2.4c-.1.2 0 .5.2.6v-.3c.1-.2.3-.5.3-.7-.4.2-.5.4-.5.4zm.4-.4c.5-.2.6-.7.5-1.5-.4.4-.5.9-.5 1.5zm.7 4.8l-.1.2s0 .2.2.1h.2c-.1 0-.3-.2-.3-.3zm-.2-6.3c0-.3 0-.6.1-.8v-.2c.3.3.5.4.4.5 0 .2-.2.3-.5.5zm6.2-8c-2.1 4-3.6 8.1-5.2 12.1-.3 0-.3.2.2.6 0 0 .3-.2.5-.4l1.9-2.5.8-1.7c0-1.6.7-3.3 2.3-5.2.7-1 .8-2.1-.1-3.4-.1.3-.4.5-.4.5zm-4.9 5l-.1.3.1-.3.3-.3-.3.3zm1.1-2.3c0-.3.1-.5.3-.7-.2 0-.5.2-.6.5l.2.3.1-.1zm.2-.8c.3-.2.4-.7.4-1.3l-.4 1.3zm0 0v.2-.2zm.4-1.3s.2 0 .1-.2l-.1.2zm1.3-2.4c-.8.5-1.2 1.2-1.1 2.2.7-.2 1.2-1.1 1.1-2.2zm0 0h.2v-.3l-.2.3zm2.3 1.5s0 .2.1-.3c-.1-.1-.1.3-.1.3zm1.5-1.9c-.5 0-.8.1-.8.1-.6.8-.5 1.3-.5 1.5.2 0 .8-.1 1.4-.6 0-.1-.1-.9-.1-1zm-1.2-4.9l-.1.3.1-.3h.2-.2zm.2 0c.3-.3.4-.8.4-1.3l-.4 1.3zm.4-1.3v-.2l.1-.2-.1.2v.2zm2.4.9l-.1.2c-.6.7-.9 1.3-1 2.2-.1.2 0 .3.2.5 0 .2.5.1.5 0 .7-.7 1.2-1.5.9-2.5 0-.1-.4-.2-.5-.4zm2.5-4.2c-.6.2-1.1.4-1.2.6 0 0 0 .3.1 1 1.1-.6 1.4-.7.9-.2-.1-.2 0-.9.2-1.4zm.4-.7c.1-.2 0-.3-.2-.5 0 .2-.1.2-.3.3v.6c.4.1.5 0 .5-.4zm-.5.6v.2c.1-.1.1-.1 0-.2zm.1-7.1h-.2.2zm.3-.7l.5.6-.8.1.3-.7zm-.1 0h.2-.2zm5 .3h-.2l.1-.2.1.2zm2.5 1.4l-.3.2c0 .3 0 .5.2.5h.2c-.1 0-.1-.5-.1-.7zm8.8-1.9h-.2.2zm4.2-.2c-1.5-.4-2.7-.3-4.2.2 1.2.7 2.6.6 4.2-.2zm.1 0h-.2.2zm0 0h.5-.5z"/><path class="st8" d="M913 244.4c.2-1.4.5-2.7.6-3.5.8-2.6 1.8-5.3 2.2-8 2.2-7.5 3.8-12.5 4.6-14.7 1-2.4 2.1-4.6 3.2-7 2.1-5.1 4.6-10.6 6.7-15.8 3-7.5 7-14.9 10.9-22.1.5-.8 1.1-2.2 1.9-4.2.3-1.1 1-1.4 1.9-.8 1.1.6 2.7 1.6 4.6 3 1.6 1.4 1.9 3.2 1.1 5.3l-1.4 2.6c-3.7 5.3-6.6 10.6-8.6 15.7-1.3 2.6-2.9 5-4 7.5-2.2 5.1-4.8 11.5-7.8 19.4-3 7.7-5.3 14.1-6.9 19.4-1.1 3.4-1.8 6.7-2.2 10.1-.2 1.6.5 2.2 2.2 1.9 1.8-.5 3.4-1.4 4.6-2.6.2-.2.3-.2.8-.2 0 .2.2.5.2.6-.3 1.3-1 1.9-1.9 2.1-1.1 1.1-3 2.1-5.9 3.2-2.7 1-5-1.3-6.4-6.7l-.4-5.2zm3-2.1c.8-1.1 1.6-2.2 2.2-3.5.2-.2.2-.3.2-.6-.3-.8-.5-1.1-.5-1.1-.3-.3-.6-.2-1.1.3-.8.8-1.1 2.4-1.1 4.6v.3h.3zm7.9-23.9c0-.2-.2-.6-.2-1.1-.5.3-.6.5-.6.3v1.1c.4-.1.8-.3.8-.3zm13.1 17.8c-3 6.4-5.1 10.4-6.2 11.8 0 .2-1.9 2.6-1.9 2.6-.8-.6-1-1.1-.8-1.3.3-.8 2.6-5.1 6.7-13 4.3-7.8 6.6-12 6.9-12.2 1.4-1.3 2.4.2 1.9.6-1.3 1.3-3.6 4.9-6.6 11.5zm-6.3-34.6c-.2 0-.3.2-.5.5.2.2.3.3.5.3.3 0 .6-.2.8-.3-.1 0-.3-.5-.8-.5zm2.1-5.6v-.5c.2 0 .6.2 1.1.2 0 .3.2.5.3.5.5 0 .8-.2 1-.5v-.2c-.2-.5-.3-.5-.8-.2-.5.2-.6.3-.6.3-.2-.3-.5-.3-1 0v.4zm4.7-5.9h-.3v.3h.3v-.3z"/><path class="st8" d="M935.8 244.4c.2-1.4.5-2.7.6-3.5.8-2.6 1.8-5.3 2.2-8 2.2-7.5 3.8-12.5 4.6-14.7 1-2.4 2.1-4.6 3.2-7 2.1-5.1 4.6-10.6 6.7-15.8 3-7.5 7-14.9 10.9-22.1.5-.8 1.1-2.2 1.9-4.2.3-1.1 1-1.4 1.9-.8 1.1.6 2.7 1.6 4.6 3 1.6 1.4 1.9 3.2 1.1 5.3l-1.4 2.6c-3.7 5.3-6.6 10.6-8.6 15.7-1.3 2.6-2.9 5-4 7.5-2.2 5.1-4.8 11.5-7.8 19.4-3 7.7-5.3 14.1-6.9 19.4-1.1 3.4-1.8 6.7-2.2 10.1-.2 1.6.5 2.2 2.2 1.9 1.8-.5 3.4-1.4 4.6-2.6.2-.2.3-.2.8-.2 0 .2.2.5.2.6-.3 1.3-1 1.9-1.9 2.1-1.1 1.1-3 2.1-5.9 3.2-2.7 1-5-1.3-6.4-6.7l-.4-5.2zm3.1-2.1c.8-1.1 1.6-2.2 2.2-3.5.2-.2.2-.3.2-.6-.3-.8-.5-1.1-.5-1.1-.3-.3-.6-.2-1.1.3-.8.8-1.1 2.4-1.1 4.6v.3h.3zm7.8-23.9c0-.2-.2-.6-.2-1.1-.5.3-.6.5-.6.3v1.1c.5-.1.8-.3.8-.3zm13.1 17.8c-3 6.4-5.1 10.4-6.2 11.8 0 .2-1.9 2.6-1.9 2.6-.8-.6-1-1.1-.8-1.3.3-.8 2.6-5.1 6.7-13 4.3-7.8 6.6-12 6.9-12.2 1.4-1.3 2.4.2 1.9.6-1.3 1.3-3.5 4.9-6.6 11.5zm-6.2-34.6c-.2 0-.3.2-.5.5.2.2.3.3.5.3.3 0 .6-.2.8-.3-.2 0-.3-.5-.8-.5zm2.1-5.6v-.5c.2 0 .6.2 1.1.2 0 .3.2.5.3.5.5 0 .8-.2 1-.5v-.2c-.2-.5-.3-.5-.8-.2-.5.2-.6.3-.6.3-.2-.3-.5-.3-1 0v.4zm4.6-5.9h-.3v.3h.3v-.3z"/><path class="st8" d="M965 223.2l8.2-19 1.6-4.2c.8-1.4 1.4-2.6 2.1-3.2.3-.8 1-1 1.9-.3 1.3.6 2.1 1.8 3.5 2.4 1.4.8 1.9 2.1 1.4 3.5s-.8 2.6-1.3 3c-5 8.8-8 17.9-11.7 26.7-1.4 3-2.2 7-2.6 12.3 0 .6.2 1 .5 1.1.2.2.6.2 1.3-.2 2.4-1.6 5-3.7 7.4-6.4 2.9-3 5.6-7.4 8.3-12.8 3-5.3 5.6-10.9 8.6-16.5l1-2.2c2.2-3.5 3.8-7 4.8-10.6.2-1 .8-1.4 1.9-1.3 2.2.5 4 1.6 5.4 3.4.5.8.5 1.9.3 3.5-.5 1.8-1.3 3.7-2.4 6.1l-5.6 10.9c-2.1 4.3-4.3 9.8-6.4 16-1.1 2.9-1.6 6.2-1.8 9.9-.5 1.4 0 1.9 1.4 1.1 2.2-1.4 3.8-2.6 4.6-3.4 2.7-2.7 5-6.4 7.7-9.8 1.3-1.8 2.4-3.7 3.8-5.6.6-1.4 1.9-3.2 2.7-5.1.3-.2.6-.3 1.1-.3.2 0 .3.3.3.8.3 1 .2 2.2-.6 4-2.7 5.1-5.3 10.1-9 13.9-.6.8-1.1 1.6-1.6 2.4-1.3 1.8-3 3.4-5.3 4.6-5.1 3-9.8 0-11.2-3.7-1.1-2.6-1.4-5-.8-7.2l.6-3.7c0-.5-.2-.6-.5-.6-.2-.2-.5 0-.6.2-.6.6-1 1.1-1.1 1.6-1.4 3.4-4.3 7-8.3 11l-2.9 2.2c-3.7 2.4-6.6 1.6-8.6-2.1-1.4-2.1-2.1-4.2-1.9-6.6.7-4.7 1.8-10.2 3.8-15.8zm3.6-.9c1.3-1.1 2.1-2.4 1.3-2.2-.8.5-1.1 1.1-1.1 2.2l-1 1-.3.3.2-.3.9-1zm3.6-5s.5-.2.6-.2c-.2 0-.3-.6-.3-.8-.2 0-.5.2-.6.2-.1.5.1.8.3.8zm3-5.7s.2.3.5.8c.3-.8.5-1 .5-.8.8-1.4 1.6-3.2 2.2-5 .2-.8.2-1.3-.2-1.4-.5 0-1 .2-1.3.6-1.4 1.4-2.1 2.9-1.8 4.5l.1 1.3zm14.2 26.7c.8-.2 1-1 .8-2.4.3-.2.5-1 .5-2.6 1.3-1.1 1.8-2.4 1.6-4.2.5-.3.8-1 .6-1.8 1.1-.8 1.8-1.8 1.6-3.2 0-.5.8-.3 1-.8 1.4-3.7 3.2-7.4 5.1-11 .5-.5.8-1.1.6-1.9 1.9-1.4 2.9-3.7 2.9-6.7h.3s0-.2.2-.2l-.3.3c-1.1 1.3-2.1 3.5-2.9 6.6-.5.3-.8 1-.8 1.9-.8.2-1.3.6-1.6 1.4-1.3 2.1-2.6 4.3-3.4 6.4-.6 1.4-1 2.7-1.1 4-1 .5-1.4 1.4-1.4 3.2-.5.5-.8 1.1-.8 1.9-1.4.8-1.3 2.6-1.4 4-.5.5-.6 1.4-.6 2.6-.5.2-.6 1.1-.6 2.6-.2.5-.5 1-.6 1.8-.5.3-.6.5-.6.5 0 .2.2.3.2.3s.2-.2.2-.3v-.8c.2-.2.5-.8.5-1.6z"/><path class="st8" d="M1014.1 253.8c-3.7-.6-6.7-1.1-10.4-1.9-2.4-.5-3.2-2.6-5.1-4v-1.3c.5-.8.8-1.3 1-2.1l7.7-13.8c1.3-2.6 2.2-5.1 3.7-7.7.8-2.6 2.2-5 3.4-7.4 1.8-3.5 2.9-6.1 3.4-7.8.8-3.7 2.9-7.5 6.2-11.8.3-.5 1-1.1 2.1-1.8 1.8-.6 4.3 1 6.1 1.4.2 0 2.9 1.9 2.7 2.7-1.4 2.4-6.4 7-7.7 9.1-2.6 4.8-2.9 8.8-1 11.8 1.1 1.9 2.1 3.8 3.4 5.6l2.4 4.3c2.4 5 1.4 10.2-2.6 16-1.4 2.1-3.2 4-5.6 5.9-1.3.6-2.4 1.3-3 1.8-2.6.4-5 1.2-6.7 1zm-3.9-24.5c-.2-.3-.3-.5-.3-.5v.5c0 .2.3.5.5.5-.3 1-.5 1.4-.5 1.4-1.8 1.6-3.2 3.8-4.3 6.7-.6 2.1-1.8 3.8-2.6 5.9-.6 1.9.3 4 1.8 3.2 1.8-.5 2.7-.2 4.2-.2.8 0 2.1.2 3.4 0 5.6-.2 9.6-3.4 12.3-9.9 1.1-2.7 1.1-5 .3-6.9-.8-1.4-2.1-3.5-3.5-6.2-1.4-1.9-2.4-3.7-3.7-5.6-.2-.5-.5-.6-.6-.6l-.6.8c-1.8 3.8-3.8 7.7-6.2 11.5v-.6h-.2zm17 11.9c1.1-2.7 1.1-5.1 0-7 0 .2-.2.2-.6-.3-.2.2-.2.5-.2.6-.5 2.7-.6 5.1-1.1 7.5-1.8 1.4-2.7 2.7-3 3.8-.2.2 0 .3.2.8 0 0 .2 0 .3-.2 1.8-1.8 2.6-3.2 2.4-4.5 1 .1 1.8-.3 2-.7zm40.2-3.1c-2.7 5.8-5.1 9.9-7.4 12.5-2.7 3.4-5.6 5.3-8.6 5.9-1.9.2-3.4.3-4.2.3-3.2 0-5.3-1.4-6.4-4.2-2.7-5.3-3.5-10.6-2.4-15.8 2.1-10.7 5.3-21.4 9.9-31.8 1.9-4.5 3.7-9.1 6.1-13.8-.3.2-.8.2-1.3.2-1.4 0-3.4.2-4.8.2-1.4.2-2.7.3-4.2.3-.5 0-.6-.2-.8-.5-.5-.5-.5-.8-.3-1.3l.8-1.8c.5-.5 1-.8 1.6-.8 2.1.2 3.8.2 5.4-.2h1.1c1.4 0 2.7-.3 4.2-.5 2.6-4 5.4-7.8 7.5-12.2.3-.2.6-.6.8-1.3l1.3-2.2c1.4-.3 3-.3 4.6 0 2.4.5 3.7 2.1 3.7 5.1 0 .6-.5 1.3-.5 1.9l-5.3 8.5h1c1.4.2 3.2 0 5 0 1.3 0 4 .2 5.4 0 0 0 .6-.2.8-.2l.3.3c0 .8 0 1.6.5 2.2.3 1-.2 1.6-1.4 1.9h-.5c-1.8 0-3.7.2-5.1 0-2.9-.2-5.8-.2-8.5 0h-.2c-4 6.4-7.5 13.6-10.6 21.4-4.3 10.6-7.4 20.5-9.3 29.6-.8 3.7-.8 6.9 0 9.6.5 1.8 1.4 2.4 3 2.1 5.4-1.1 10.1-5.1 13.9-12.3 4-7.2 6.9-13 9-17.3.6-2.1 2.7-.5 2.2.3-1.4 3.5-3.6 8-6.3 13.9zm-25.3-7.3s-.3-.2-.3-.6c-.2 0-.3.2-.3.5-.3 1.8-.5 2.7-.5 2.9 0 2.4.3 4.2-.2 6.1 0 .2.2.6.2.6.2-.3.3-.5.3-.6.2-2.7.3-4.3.5-4.8.1-1.1.3-2.4.3-4.1zm.1-2.6l.2.2s.2-.2.3-.2c.5-1.4.6-1.9.3-1.4l-.2-.5-.5.5c-.2.2-.2.3-.2.6.1.6.1.8.1.8zm.8-4.3l.5.5c.2 0 .3-.2.5-.5-.2.3 0-.2.5-1.3 0-.8.6-2.1.5-3.5-1.4.8-1.1 2.6-1.6 3.4-.2.2-.3.6-.3 1.1l-.1.3zm2.9-6.9c1.1-3 2.2-6.4 4.2-9.4.2-.2.2-.5.2-1 0-.2-.2-.3-.3-.3-.5 1.4-2.1 1-2.6 1.6-.5.5-.5.8.2.8.5 0 .8.3.6.8-.5 1.1-1 2.2-1.6 3.4-.5 1.4-1.1 2.7-1.3 4 0 .2.2.5.2.6.3-.2.4-.3.4-.5zm6.7-18.2l-1.3 1.1c-.3.3-.3.6 0 1.1.8.8 1.3.8 1.8 0 .6-1.4 1.1-2.7 1.6-3.5 0-.2-.2-.6-.2-1.3-.3-.3-.5-.5-.6-.5s-.5.3-.5.3c-.2.8-.6 1.4-1.1 1.9 0-.2.2.2.5 1l-.2-.1zm-.1-10.8l-.3-.2-.2.2.2.2.3-.2c.2.2.5.2 1 0 0 0 .2.2.2 0h-.2c-.2-.1-.5-.1-1 0zm2.4-.1h-.2c-.2 0-.3.2-.3.2h.2c0-.1.1-.2.3-.2zm.9 6.5c0 .2 0 .3.2.5 0 0 .2 0 .2-.5 0-.2.2-.6.6-1.3l-.3-.2c-.3 0-.5 0-.5.2-.2.2-.2.3-.2.6v.7zm12-6.7l.2-.2h.3-.3l-.2.2zm1.5-.3l-.2.2s0 .2.2.2c.2.2.5.2 1-.2.2.2.2.3.3.2h-.3c-.4-.6-.7-.6-1-.4zm2.2.3s-.3-.2-.3 0h.5c.2.2.5.2.6 0h.5-.5c-.1-.1-.5-.1-.8 0z"/><path class="st8" d="M1080.2 230.8c3.2-4.5 6.2-8.6 9.9-13 1.9-2.2 3.8-5.6 5.8-9.9 1.9-4.3 4-8.3 6.4-11.7.8-1.4 2.1-1.6 3.5-.5l2.7 2.7c1.1.8 1.4 2.1 1.1 3.7l-1.4 2.6c-.8.8-1.6 1.8-2.2 2.9-1.6 2.2-3 5.8-4.3 10.4-1.1 4.6-.2 7.8 3 9.3.6.5.8 1 .5 1.4-.5 1-.8 1.6-1.3 2.1-.8.8-1.6 1-2.4.2-3.2-1.8-7.7-5.6-8.5-9.4-.5-1.4-1.3-1.4-2.1-.2-1.8 2.4-3.4 4.5-4.8 6.9-.8 1.3-2.2 3.4-4.3 6.1-4.3 5.6-8.2 10.9-11.5 15.7l-.3.3c-.6.8-.3 2.6-2.1 2.7-1.4-1.3-3.5-1-4.6-3.4 0-.5-.2-1-.3-1.3-.8-1-1-2.2-.3-4 1.3-3 2.4-6.2 3.7-9 3.4-6.6 6.2-13.6 9.6-20.6l7-15c.5-1.4 1.3-1.6 2.4-.8 1.3 1.1 2.4 1.9 3.8 2.6 1.6 1.4 2.2 2.9 1.8 4.5-.3.8-.8 1.8-1.6 2.9l-9.1 18.2c-1.1 2.4-1.4 4.2-1.3 5h-.3l-.3.2c.3 0 .5-.2.5-.3.6-.7 1.1-1.2 1.3-1.3zm-10.8 10.2c.6-.2 1-.6 1-1.8.3-.5.5-.6.5-.6s-.2-.3-.2-.5c0 .2-.2.3-.2.3 0 .5 0 .8-.2 1-.5.3-.8 1-.8 1.8-.5.3-.8 1-.8 1.9-.3.2-.5.5-.6.8v.3s.3-.2.3-.3v-1c1 0 1.4-.6 1-1.9zm2.4-4.8v-.2h-.2l.2.2zm5.5-13.3c2.2-5.3 3.5-8 3.7-8.2 0 0-.3-.6-.3-.8-.2.3-.3.5-.3.6-.1.3-1 3.1-3.1 8.4-2.1 5.3-3 7.8-3 8-.2.2-.5.3-.6.6v.6l.5-.5v-.8c-.1 0 1-2.6 3.1-7.9zm44.9 8.3c-1.8 3-3.7 5.4-5.1 8.2-1.8 2.7-3.2 5.4-5.3 7.5-.8.8-1 1.8-1.8 2.2-.3.6-.8.8-1.3.3-2.4-.6-3.8-2.6-4-5.9-.2-4.3.6-8.8 2.4-13.4 1.4-3.8 2.4-8.2 4.8-11.8 0-1.1.5-2.2 1.6-3.2 2.6-2.4 3.7-5.9 6.4-8.5 1.6-1.4 3.5-2.9 5.9-4.3 2.9-1.4 5.8-1.4 8.5 0-.2-.2.5.3 1.9 1.3 1.8 1.1 3.2.8 4.3-.8.2-.2.2-.3.2-.5 1.8-2.2 3.5-2.2 5.3 0 .2.6.6 1.6 1.3 2.4.2.5.2 1.1 0 1.8-1.8 2.7-2.4 5.6-4.2 8.3-1.9 3-2.7 6.4-4 9.1-.6 1.1-.8 2.2-1.3 3-2.1 3.7-3.2 7.5-5.6 11.2-1.3 2.4-1.8 4.6-1.6 7 0 .2.2.3.3.3.5 0 .6 0 .8-.2 2.7-3.7 5.8-7 8.8-10.7 1.8-2.1 5.6-8.3 7.5-11-.2.5.3 0 1.8-1.4.2 1.1-.3 2.6-1.1 4l-5.3 8c-2.1 3.2-3.8 5.8-5.3 7.5-1.9 2.7-3.5 4.5-4.8 5.6-2.4 2.7-5 2.6-7.7-.2-1.1-.8-1.6-2.1-1.6-3.5-.3-3 .2-5.9 1.4-8.6.6-2.1 1.1-4.6 2.6-6.7 1.4-1.8 1.9-4.3 2.7-6.9.5-1.6 1.1-3.7 1.6-6.1.5-2.6.8-3.8.8-4 .6-.6 1-1.9 1.8-2.7 0 0-.3 0-.3-.5l-.3-.2c-.8.6-1.9.8-2.6 1-2.6.8-4.6 1.8-6.2 2.9-.8.8-1.1 1.3-1.1 1.4-.2 1.9-1.9 2.7-2.6 4.2-2.1 3.4-4.5 6.7-5.6 10.7-2.4 3.7-3.5 8.2-5 12.2.2-.2.3 0 .3.8 0 0 .5-.3.6-.5 1.8-2.4 3-4.3 3.8-5.8.8-.6 1.1-1.8 1.9-2.6 2.1-1.8 3.7-4.3 5.4-6.7 1.4-2.4 3.2-4.2 4.6-6.9 1.4-2.4 2.7-4.2 3.8-5.1 1.1-1 .6.6-1.8 4.8-2.1 4.7-5 8.7-7.6 13zm-9.2-.8c0-.2-.2-.5-.5-.6-.2.2-.3.5-.3.8 0 .2.2.5.5 1 0 0 .3-.3.3-.8v-.4zm18.8 2.4c0 .2.2.6.2.6l.3-.2c0-.2-.2-.3-.2-1-.1.5-.3.6-.3.6zm1.3-2l-.2-.2v.2h.2zm1.9-4.8c-.3.2-.5.5-.5.8 0 0 0 .3.5.3 0-.2.2-.6.2-.8 0 0-.2-.2-.2-.3zm2.9-5.8v-.6l-.5.5c-.5.2-.3.8-.3.8l-.5.5v1l.5-.5v-1c.5-.2.7-.4.8-.7z"/><path class="st8" d="M1173.1 238.1c-2.7 5.8-5.1 9.9-7.4 12.5-2.7 3.4-5.6 5.3-8.6 5.9-1.9.2-3.4.3-4.2.3-3.2 0-5.3-1.4-6.4-4.2-2.7-5.3-3.5-10.6-2.4-15.8 2.1-10.7 5.3-21.4 9.9-31.8 1.9-4.5 3.7-9.1 6.1-13.8-.3.2-.8.2-1.3.2-1.4 0-3.4.2-4.8.2-1.4.2-2.7.3-4.2.3-.5 0-.6-.2-.8-.5-.5-.5-.5-.8-.3-1.3l.8-1.8c.5-.5 1-.8 1.6-.8 2.1.2 3.8.2 5.4-.2h1.1c1.4 0 2.7-.3 4.2-.5 2.6-4 5.4-7.8 7.5-12.2.3-.2.6-.6.8-1.3l1.3-2.2c1.4-.3 3-.3 4.6 0 2.4.5 3.7 2.1 3.7 5.1 0 .6-.5 1.3-.5 1.9l-5.3 8.5h1c1.4.2 3.2 0 5 0 1.3 0 4 .2 5.4 0 0 0 .6-.2.8-.2l.3.3c0 .8 0 1.6.5 2.2.3 1-.2 1.6-1.4 1.9h-.5c-1.8 0-3.7.2-5.1 0-2.9-.2-5.8-.2-8.5 0h-.2c-4 6.4-7.5 13.6-10.6 21.4-4.3 10.6-7.4 20.5-9.3 29.6-.8 3.7-.8 6.9 0 9.6.5 1.8 1.4 2.4 3 2.1 5.4-1.1 10.1-5.1 13.9-12.3 4-7.2 6.9-13 9-17.3.6-2.1 2.7-.5 2.2.3-1.3 3.5-3.6 8-6.3 13.9zm-25.3-7.3s-.3-.2-.3-.6c-.2 0-.3.2-.3.5-.3 1.8-.5 2.7-.5 2.9 0 2.4.3 4.2-.2 6.1 0 .2.2.6.2.6.2-.3.3-.5.3-.6.2-2.7.3-4.3.5-4.8.2-1.1.3-2.4.3-4.1zm.2-2.6l.2.2s.2-.2.3-.2c.5-1.4.6-1.9.3-1.4l-.2-.5-.5.5c-.2.2-.2.3-.2.6.1.6.1.8.1.8zm.8-4.3l.5.5c.2 0 .3-.2.5-.5-.2.3 0-.2.5-1.3 0-.8.6-2.1.5-3.5-1.4.8-1.1 2.6-1.6 3.4-.2.2-.3.6-.3 1.1l-.1.3zm2.9-6.9c1.1-3 2.2-6.4 4.2-9.4.2-.2.2-.5.2-1 0-.2-.2-.3-.3-.3-.5 1.4-2.1 1-2.6 1.6-.5.5-.5.8.2.8.5 0 .8.3.6.8-.5 1.1-1 2.2-1.6 3.4-.5 1.4-1.1 2.7-1.3 4 0 .2.2.5.2.6.2-.2.4-.3.4-.5zm6.7-18.2l-1.3 1.1c-.3.3-.3.6 0 1.1.8.8 1.3.8 1.8 0 .6-1.4 1.1-2.7 1.6-3.5 0-.2-.2-.6-.2-1.3-.3-.3-.5-.5-.6-.5s-.5.3-.5.3c-.2.8-.6 1.4-1.1 1.9 0-.2.2.2.5 1l-.2-.1zm-.2-10.8l-.3-.2-.2.2.2.2.3-.2c.2.2.5.2 1 0 0 0 .2.2.2 0h-.2c-.2-.1-.5-.1-1 0zm2.4-.1h-.2c-.2 0-.3.2-.3.2h.2c0-.1.2-.2.3-.2zm1 6.5c0 .2 0 .3.2.5 0 0 .2 0 .2-.5 0-.2.2-.6.6-1.3l-.3-.2c-.3 0-.5 0-.5.2-.2.2-.2.3-.2.6v.7zm12-6.7l.2-.2h.3-.3l-.2.2zm1.4-.3l-.2.2s0 .2.2.2c.2.2.5.2 1-.2.2.2.2.3.3.2h-.3c-.3-.6-.6-.6-1-.4zm2.3.3s-.3-.2-.3 0h.5c.2.2.5.2.6 0h.5-.5c-.2-.1-.5-.1-.8 0z"/><path class="st8" d="M1190.2 235.1c-2.7 4.5-5.3 7.8-7.7 10.1l-2.2 2.4c-1 .5-1.6.8-2.1.8-2.7.3-4.5-.6-5.3-2.9-1.1-3.2-1.3-6.4-.5-9.4 1.1-3 1.8-6.1 3.5-9.1l1-2.6c2.6-7.5 6.7-15 9.8-20.6.3-.8.8-1.1 1.4-.6 1 1.1 2.2 1.8 3.7 1.9 1.6.5 2.1 1.8 1.6 3.5.2-.5 0-.2-.5 1.3-2.4 4.3-4.3 8.3-5.9 12-2.1 3.8-4.2 8.3-6.2 13.4-1.3 2.2-2.1 4.8-2.4 7.5-.3.8-.3 1.4 0 2.1 0 .6.2.8.6.3 2.1-1.1 3.7-2.4 4.8-4.2 1-1.1 2.9-4 5.6-8.5 2.9-4.5 4.8-7.5 5.6-9 0 0 2.1-.6 1.6.6-1.4 2.8-3.6 6.5-6.4 11zm-15.5-3.1v.3l.3-.3c0-.2 0-.3-.2-.5h.3v-.5c0 .2-.2.5-.2.5 0 .2-.2.4-.2.5zm1.3 2.8l-.2.2v.3c0-.4 0-.5.2-.5.6-.8 1-1.6 1-2.7.3-.2.5-.6.5-1.4 1.6-1.6 2.6-3.7 2.7-6.2.5 0 1-.6 1.4-2.1 1.1-1.9 1.9-4.5 3-6.6l1.6-3.5c.2-.2 0-.3-.2-.6l-.2.2c-.5.5-.8 1-1.3 1.8-1.4 3-2.7 5.9-3.8 9-.3.8-.5 1.4-.5 2.1-.6.5-1.6 1.9-2.7 4.6-.2.2-.2.6-.2 1.4-.3.2-.5.6-.5 1.4-.6.5-1 1.4-.8 2.6zm1.3-8c-.8.2-1 .6-.6 1.4-.3.2-.5.5-.5 1.3-.3 0-.3.2-.2.3 0 0 .2-.2.2-.3.2-.2.3-.6.3-1.4.5-.2.8-.5.6-1.3.3-.2.5-.8.5-1.6.5 0 .6-.2.2-.3 0 .2 0 .5-.2.6-.5.1-.5.6-.3 1.3zm2.1-4.8l.2-.2c0-.8.2-1.1.5-1.3 0-.5.2-.8.6-1.4 0 0 .2-.3-.3-.2-.2.8-.5 1-.5 1.6-.2.5-.5.8-.5 1.3v.2zm2.7-6.6c.5-.2.6-.6.5-1.3.5-.2 1-.5 1.1-1.3 0 0-.2 0-.2-.5 0 .2-.2.3-.2.3l-.6 1.4-.5 1.6c-.2.5-.6 1.1-.6 1.3l-.2.2v.2c0-.2 0-.3.2-.3.3-.2.5-.6.5-1.6zm.9 6.6c0 .2.2.5.2.5s.2-.2.2-.3v-.8h.2l.2-.2-.3.3c-.1.5-.5.5-.5.5zm4.4-12.5s0-.3.2-.3h.2c0-.2.2-.3.3-.3v.2h-.5c-.1.1-.1.2-.2.4zm7.2-6.1c-.2.3-1.3 0-3.2-1s-2.7-1.8-2.6-2.2c.5-1.8.6-2.7.8-2.9s.5-1.3.8-3c1.3-1.6 2.7-1.6 4.5-.2 1.8 1.4 2.9 2.7 3.7 3.5.8-1.1.8-1-.3.3-.7 2.5-3.1 3.4-3.7 5.5z"/><path class="st8" d="M1209.9 234.1c-.8-1.1-1-1.9-.2-2.6 0-.2.3-.8.8-1.6 3.2-5.3 5.4-11.5 6.7-18.7.8-5-.2-9.4-2.7-13.4-.5-.8-1.1-1.9-1.9-3.7-.3-.6-.3-1.4.2-2.6.5-1 1-1.1 1.3-.3 1.1 1.8 3 2.7 5.4 3.2 1.4.3 2.6 1.3 3.5 2.9.8 2.1 1.8 4.8 3 6.9.2.2.2.3.2.8-.5 3.2.2 6.4-.3 9.4-1.6 7.5-5 14.9-9.9 21.8l-3.2 4.2c-2.6 3.7-6.4 5.6-10.1 7.5-2.4 1.1-4.5.8-6.6-1.3-2.7-2.7-4.2-6.1-4-10.4.5-6.7 1.9-13.3 4.5-19.8.6-1.6 1.8-3.8 3.5-6.7 1.4-3 4.3-4.8 7-6.9.8-.6 2.1-.6 3.7 0l2.4 1.4c1.1 1.1 1.1 2.1.3 3.2-.8.8-1.9 1.9-3.4 3-1.1 1.1-1.6 2.1-1.8 2.9-.2.5-.6 1.4-1.8 2.7-2.7 3.7-4.6 7.7-5.6 12-1.3 4-2.4 8-2.4 12.3v1.8c0 .8.3 1 1.1.8l1.9-1c3.4-1.3 5.6-4.6 6.9-7.4 3.7-.6 5.1.8 5.9-2.4 0 0-.6-.5-.8-.5-.5 0-1 .2-1.4.5-1.1.5-1.1 1.9-2.6 1.9h.4v.1zm12-22.7c-.3-.2-.6 0-.8.2-.3.8-.5 1.1-.5 1.1 0 1-.3 2.4-1.1 4.2-1.1 2.1-1.9 4.5-2.6 6.6 0 .5.2.8.3.8h.6c1.1-.5 1.8-1.4 2.2-2.7 1-3.8 1.8-6.7 2.4-8.8 0-.2-.2-.3-.2-1 0-.2-.1-.4-.3-.4zm-3.2-13.4l.2-.2h-.2v.2zm3.7 8.3c0-.2-.2-.3-.3-.5 0 0-.2.2-.5.6 0 .5.2.6.3.8 0 .5.2.6.2.6l.3-.5v-1zm44.5 29.3c-3.7 5.6-6.1 9-7 10.2-.6 1-1.8 2.2-3.2 3.8-1.4 1.3-3 1.3-4.5 0-2.9-2.1-4.5-4.3-4.6-6.9-.3-2.1 0-4.8 1-8 2.1-7 3-12.5 6.7-19.5 2.7-5 3.8-7.5 3.4-7.7-1.1.2-2.2 1.1-3.4 2.6-2.6 3.4-5.1 6.2-7.7 9.4-4.5 5.8-8.8 11.8-12.5 18.2-1.1 2.1-2.2 3.7-3.7 5l-1.9 2.7c-.6.6-1.1 1.6-1.6 2.4-1.1 1.6-2.6 1.8-4.3.6-2.9-1.4-3.5-3.8-2.1-7.4 1.9-3.7 3.8-7.7 5.1-11.7.5-1.3 1.1-2.2 1.3-3.5 4.3-8.2 7.7-16.5 11.4-25.3.5-1.8 1.6-2.4 3.2-1.6l4.2 2.6c1.6 1.1 2.1 2.7 1.3 4.6-2.4 4.6-5 9.6-7 13.9-1.8 3.8-3.7 7.2-5 10.6v1s.3 0 .5-.5.8-.6 1.3-1.4c3.7-5.8 8.3-11.4 13.3-17.1 1.8-2.1 2.1-3.4 4.2-5.9 1.8-2.1 3.8-4.8 5.8-6.9.8-.8 1.3-1 1.6-.6 1.4 1.1 2.9 1 4.3 1.4.6.6 3.2 2.9 3.2 3.5 0 4.6-3.7 9.9-5.8 14.4-.6 1.1-1.4 2.7-2.4 5-.2 0-.2-.2-.2-.2h-.5c-.2.2-.3.5-.3.8 0 .2.2.5.3.5l-2.2 5.9c-.3-.5-.5-.6-.6-.6-.5 0-.6.3-.6 1 0 .2.3.5.8 1l.2-.6c-.2 1.1-.5 1.9-.6 2.6l-.5-.2v-.6l-.2-.2v.3c0 .2.2.3.3.3v1.3l-.2.2v.3l.2-.3c-1.8 1.1-2.4 2.7-1.9 4.6-.2.2-.8.3-.8.3l-2.6 4.5c-.2.2-.2.3-.2.5 0 .5.2.6.2.6.5.3.6.3.6 0 1.4-1.8 2.2-3.8 2.7-6.1.3-.3.8-.8 1.3-1.6l-.3 1.1c-.6 2.7-.8 4.5-.6 5.3 2.1 0 3.4-1.9 4.8-3.4.5-.6 2.6-3.4 6.1-8.3 3.5-5 5.6-7.8 6.1-8.3.6-1.1 1.9-.8 1.3.6-1.5 1.5-3.9 5.2-7.7 10.8zm-36 1.4c-.3 0-.5 0-.6.2 0 .5-.2.8-.2 1s.2.5.2.5c.2 0 .3-.2.6-.3.2-.2.2-.3.2-.8-.1-.3-.1-.4-.2-.6zm1.9-13.1l-.2.3c-.2.5-.3.6-.3.8 0 0 .2.5.3.5 0 0 .2.2.2-.3.2-.2.3-.5.3-.6-.1-.1-.3-.2-.3-.7zm2.1-6.1c.2.5.5.8 1 .8s.6-.3.5-1c0 .3-.2.2-.5-.6-.7.5-1 .8-1 .8zm1.4-4.2c1.8-.8 2.4-2.4 2.1-4.5 0 0 .5-.3.6-.5l2.6-4.5c.2-.2.3-.3.3-.5 0 0-.3-.2-.3-.6h-.5c-1.4 1.9-2.4 4-2.7 6.1-1.3 1.3-1.9 2.9-1.9 4.6-.6.5-.6 1 0 1.3v.6l.2.2s.2 0 .2-.5c-.2 0-.5-.2-.5-.3l-.1-1.4zm26.9-1.9s.3-.2.5-.3c0 0 .3-.3.3-1 0 0-.3-.3-.3-.5-.2.2-.5.3-.5.3-.2.2-.2.3-.2.8 0 .4 0 .6.2.7z"/><path class="st8" d="M1274.9 253.8c-3.7-.6-6.7-1.1-10.4-1.9-2.4-.5-3.2-2.6-5.1-4v-1.3c.5-.8.8-1.3 1-2.1l7.7-13.8c1.3-2.6 2.2-5.1 3.7-7.7.8-2.6 2.2-5 3.4-7.4 1.8-3.5 2.9-6.1 3.4-7.8.8-3.7 2.9-7.5 6.2-11.8.3-.5 1-1.1 2.1-1.8 1.8-.6 4.3 1 6.1 1.4.2 0 2.9 1.9 2.7 2.7-1.4 2.4-6.4 7-7.7 9.1-2.6 4.8-2.9 8.8-1 11.8 1.1 1.9 2.1 3.8 3.4 5.6l2.4 4.3c2.4 5 1.4 10.2-2.6 16-1.4 2.1-3.2 4-5.6 5.9-1.3.6-2.4 1.3-3 1.8-2.6.4-5 1.2-6.7 1zm-3.9-24.5c-.2-.3-.3-.5-.3-.5v.5c0 .2.3.5.5.5-.3 1-.5 1.4-.5 1.4-1.8 1.6-3.2 3.8-4.3 6.7-.6 2.1-1.8 3.8-2.6 5.9-.6 1.9.3 4 1.8 3.2 1.8-.5 2.7-.2 4.2-.2.8 0 2.1.2 3.4 0 5.6-.2 9.6-3.4 12.3-9.9 1.1-2.7 1.1-5 .3-6.9-.8-1.4-2.1-3.5-3.5-6.2-1.4-1.9-2.4-3.7-3.7-5.6-.2-.5-.5-.6-.6-.6l-.6.8c-1.8 3.8-3.8 7.7-6.2 11.5v-.6h-.2zm17 11.9c1.1-2.7 1.1-5.1 0-7 0 .2-.2.2-.6-.3-.2.2-.2.5-.2.6-.5 2.7-.6 5.1-1.1 7.5-1.8 1.4-2.7 2.7-3 3.8-.2.2 0 .3.2.8 0 0 .2 0 .3-.2 1.8-1.8 2.6-3.2 2.4-4.5 1 .1 1.8-.3 2-.7z"/></svg>