<?xml version="1.0" encoding="utf-8"?>
<!-- Generator: Adobe Illustrator 22.0.1, SVG Export Plug-In . SVG Version: 6.00 Build 0)  -->
<svg version="1.1" id="Layer_1" xmlns="http://www.w3.org/2000/svg" xmlns:xlink="http://www.w3.org/1999/xlink" x="0px" y="0px"
	 viewBox="0 0 2175.8 545.5" style="enable-background:new 0 0 2175.8 545.5;" xml:space="preserve">
<style type="text/css">
	.st0{fill:#7BE3FF;}
	.st1{fill:#F2FF7C;}
	.st2{fill:#38E1DA;}
	.st3{fill:#FFFFFF;}
	.st4{fill:#4CB2E5;}
	.st5{display:none;}
	.st6{display:inline;fill:#4CB2E5;}
	.st7{opacity:0.2;fill:#F2FF7C;enable-background:new    ;}
	.st8{fill:#215064;}
</style>
<g id="Layer_2_1_">
	<path class="st0" d="M-4.1,0h2182.8v450.3H-4.1V0z"/>
	<circle class="st1" cx="1621.6" cy="327.5" r="81.9"/>
	<path class="st2" d="M-4.1,389.1h2182.8v156.4H-4.1V389.1z"/>
	<path class="st3" d="M1638.7,416.6c-0.1,0.1-0.6,0.1-1.4-0.1c-0.4-0.1-1-0.2-1.6-0.4c-0.6-0.1-1.3-0.2-2.1-0.4
		c-3-0.6-7.3-1-12.1-0.9c-9.5,0.2-17.1,2.3-17.2,1.7c-0.1-0.3,1.7-1.1,4.8-2c3.1-0.8,7.5-1.7,12.4-1.8c4.9-0.1,9.4,0.6,12.4,1.5
		c0.8,0.2,1.5,0.5,2.1,0.7c0.6,0.3,1.1,0.5,1.5,0.7C1638.4,416.2,1638.8,416.5,1638.7,416.6L1638.7,416.6z"/>
	<path class="st4" d="M647.6,65.7c-0.1,0,0-0.6-0.3-1.3c-0.2-0.4-0.5-0.8-1-1.1s-1.2-0.5-2-0.7c-0.8-0.1-1.7-0.2-2.6,0
		c-0.9,0.2-1.9,0.5-3,0.9c-1,0.4-2.1,1-3.1,1.7c-0.5,0.3-1,0.7-1.6,1.1l-0.6,0.5l-0.8,0.7c-0.5,0.5-1.1,0.9-1.6,1.4
		c0.1-0.6,0.2-1.3,0.3-1.9c0-0.3,0-0.5,0.1-0.8v-0.7c-0.1-0.5-0.2-0.8-0.3-1.2c-0.3-0.8-0.7-1.5-1.4-2c-1.1-1.1-2.6-1.6-4.1-2
		c-1.5-0.3-3-0.5-4.5-0.5c-2.9,0-5.4,0.7-7.5,1.5c-4.1,1.6-6.3,3.4-6.5,3.2c-0.1-0.1,1.8-2.3,6-4.3c2.1-1,4.8-1.8,7.9-1.9
		c1.6-0.1,3.2,0.1,4.8,0.4c1.6,0.4,3.4,1,4.8,2.4c0.8,0.7,1.4,1.7,1.8,2.7c0.2,0.5,0.3,1,0.3,1.5l0.2-0.1c0.6-0.4,1.1-0.8,1.7-1.1
		c1.1-0.7,2.3-1.3,3.4-1.7c1.1-0.4,2.3-0.7,3.3-0.9c1.1-0.1,2.1,0,3,0.2s1.7,0.5,2.3,1c0.6,0.4,1,1,1.1,1.6
		C648,65.2,647.6,65.8,647.6,65.7L647.6,65.7z"/>
	<g id="umbrella_2_" class="st5">
		<path class="st6" d="M331.4,527.4c-0.1-0.1,0.9-2.1,3.2-5.9c2.2-3.8,5.6-9.3,10-16.4c2.2-3.6,4.7-7.5,7.4-11.9
			c2.6-4.4,5.5-9.2,8.6-14.4s6.5-10.8,10-16.7c3.5-6,7.2-12.3,11.1-19c15.5-26.8,33.8-59.5,52.8-97.6c2.3-4.8,4.7-9.6,7.2-14.5
			c1.2-2.5,2.4-4.9,3.7-7.4c1.2-2.5,2.4-5,3.6-7.6c2.4-5.1,4.9-10.2,7.3-15.5s4.8-10.6,7.2-16c2.4-5.4,4.7-10.9,7.2-16.5
			c2.4-5.6,4.7-11.2,7.1-16.9c1.1-2.9,2.3-5.8,3.4-8.7c1.2-2.9,2.3-5.8,3.4-8.8c1.1-2.9,2.3-5.9,3.3-8.9l0.8-2.2l0.4-1.2l0.7-2
			c1-2.8,1.9-5.6,2.9-8.4c4.1,4.2,8.3,8.5,12.5,12.8c1.5,1.6,3.1,3,4.6,4.5c1.6,1.5,3.1,3,4.7,4.5s3.2,3,4.7,4.5
			c1.6,1.5,3.3,2.9,4.9,4.4c3.3,2.9,6.6,5.9,9.9,8.8l10.2,8.7c3.4,2.9,6.8,5.9,10.4,8.7c7,5.8,14.1,11.6,21.3,17.4
			c28.9,23.1,59.5,46.3,91.4,69.2c4,2.8,8.1,5.7,12.1,8.5l6,4.2c2,1.4,4,2.8,6,4.1c4,2.7,8,5.5,12,8.2s8.1,5.3,12.1,8l6,3.9
			c2,1.3,4,2.5,6.1,3.8c2,1.3,4,2.5,6,3.8l3,1.9l3,1.8c2,1.2,4.1,2.4,6.1,3.6s4,2.4,6.1,3.5l6.3,3.3l3.1,1.6l2.9,1.6
			c0.2,0.1,0.2,0.1,0.1,0.3l-0.2,0.4l-0.5,0.7l-0.9,1.4l-0.9,1.4c-0.3,0.5-0.6,0.9-0.9,1.4l-1.4,1.9l-1.2,1.4
			c-0.8,1-1.6,1.8-2.5,2.7c-0.8,0.9-1.7,1.7-2.5,2.6c-0.8,0.8-1.7,1.7-2.6,2.4c-3.5,3.2-7.1,6.2-10.7,9.1
			c-7.3,5.7-14.8,11-22.4,15.9c-15.1,9.9-30.6,18.6-45.9,26.5c-7.7,3.9-15.3,7.7-22.9,11.2c-7.6,3.5-15.2,6.9-22.7,10
			c-15,6.3-29.9,11.9-44.4,16.8l-10.8,3.6c-1.8,0.6-3.6,1.1-5.3,1.7c-1.8,0.5-3.6,1-5.4,1.6c-1.8,0.5-3.6,1.1-5.3,1.5
			c-1.8,0.4-3.6,0.9-5.3,1.3c-1.8,0.4-3.5,0.9-5.3,1.3c-1.8,0.4-3.5,0.8-5.3,1.1c-14,3-27.5,4.9-40.5,6.2c-26,2.5-49.6,2.4-70.2,1.3
			c-10.3-0.6-19.9-1.4-28.7-2.3c-8.8-0.9-16.8-2-24-3.1c-14.4-2.2-25.4-4.4-32.9-6.1c-3.7-0.9-6.6-1.6-8.4-2.1
			C332.4,527.9,331.4,527.6,331.4,527.4c0.1-0.2,4,0.5,11.5,1.8s18.6,3.1,33,4.9c7.2,0.9,15.2,1.7,24,2.5c8.8,0.7,18.3,1.3,28.6,1.7
			c20.5,0.8,43.9,0.5,69.6-2.2c12.8-1.4,26.2-3.4,39.9-6.5c1.7-0.4,3.4-0.8,5.2-1.2c1.7-0.4,3.4-0.9,5.2-1.3
			c1.7-0.5,3.5-0.9,5.2-1.4s3.5-1,5.2-1.5s3.5-1.1,5.3-1.6c1.8-0.6,3.5-1.2,5.3-1.7c3.6-1.1,7.1-2.4,10.7-3.6
			c14.3-5,29-10.6,43.9-17c7.4-3.1,14.9-6.6,22.4-10.1c7.5-3.6,15.1-7.3,22.6-11.2c15.1-7.9,30.3-16.6,45.2-26.4
			c7.4-4.9,14.8-10.1,21.9-15.7c3.5-2.8,7-5.7,10.3-8.8c0.8-0.8,1.7-1.5,2.4-2.3l2.4-2.4c0.8-0.8,1.5-1.6,2.2-2.5l1.1-1.3l0.7-0.9
			v-0.1c-2.1-1.1-4.1-2.2-6.2-3.2c-2.2-1.1-4.1-2.3-6.2-3.5c-2.1-1.2-4.1-2.4-6.2-3.6l-3.1-1.8l-3-1.9c-2-1.3-4.1-2.5-6.1-3.8
			s-4.1-2.5-6.1-3.8s-4-2.6-6.1-4c-4-2.7-8.1-5.3-12.2-8c-4-2.7-8-5.5-12.1-8.3c-2-1.4-4-2.8-6.1-4.2l-6-4.2
			c-4-2.8-8.1-5.7-12.1-8.5c-32-22.9-62.7-46.2-91.6-69.5c-7.3-5.8-14.3-11.7-21.4-17.5c-3.5-2.9-7-5.9-10.4-8.8s-6.8-5.9-10.2-8.8
			c-3.3-3-6.7-6-10-8.9c-1.6-1.5-3.3-3-4.9-4.4c-1.6-1.5-3.2-3-4.8-4.6l-4.8-4.5c-1.6-1.5-3.2-3-4.7-4.6s-3-3.1-4.5-4.7l-0.7-0.7
			l-0.1-0.1l-0.2-0.2c-0.5,1.5-1.1,2.9-1.6,4.4c-1.1,3-2.3,6-3.4,9s-2.3,5.9-3.5,8.8s-2.4,5.8-3.5,8.7c-2.4,5.7-4.8,11.4-7.2,17
			c-2.5,5.6-4.9,11.1-7.3,16.5c-2.5,5.4-4.9,10.7-7.4,16c-2.5,5.2-5,10.4-7.4,15.5c-1.2,2.5-2.4,5.1-3.7,7.6c-1.3,2.5-2.5,5-3.7,7.4
			c-2.5,4.9-4.9,9.7-7.3,14.5c-19.5,38-38.2,70.5-54.2,97.1c-4,6.6-7.8,13-11.4,18.9c-3.7,5.9-7.2,11.4-10.4,16.5
			c-3.3,5.1-6.3,9.9-9,14.2c-2.9,4.3-5.5,8.2-7.8,11.7c-4.7,7-8.3,12.3-10.8,15.9C333,525.7,331.6,527.5,331.4,527.4L331.4,527.4z"
			/>
	</g>
	<path class="st7" d="M1564,389.1c0,0-9.7-7.3-14.1,16.4c-3.5,18.7,2.9,9.8,20.7,21.2c16.9,10.8-6.5,26.1,12.7,23.2
		s54.7-16.5,71.1-26.1c16.4-9.5,11.4-20.8,36.8-16.4c25.3,4.4,15.6-18.3,0-18.3L1564,389.1L1564,389.1z"/>
	<path class="st3" d="M1937.5,251.3c9.8-14.7,35.2-15.5,50.7-12.3c4.1-23.7,36.8-34.3,39.2-4.1c8.2-4.1,18.8-4.9,22.1,4.9
		c10.6-3.3,20.3,3.7,28.4,11.1C2031,250.9,1937.5,251.3,1937.5,251.3L1937.5,251.3z M288.5,180.2c0-0.4,0.1-0.8,0.1-1.2
		c0-8.3-6.7-15-15-15h-0.8c-3.4-8.1-11.4-13.4-20.2-13.4h-1.3c-4.1-14.2-17.1-24.5-32.6-24.5c-16,0-29.5,11.1-33,26.1
		c-8.1,2.5-14.1,9.8-14.9,18.6c-1.7-0.5-3.6-0.8-5.4-0.8c-7.3,0-13.7,4.1-17,10.1L288.5,180.2L288.5,180.2z"/>
</g>
<path class="st3" d="M1294.5,473.1c-11-1.3-23.2-2.5-36-2.6c-12.8,0-24.9,1.5-35.9,3 M1117.1,494.4c3-0.3,6.2-0.4,9.4-0.5
	c3.3-0.1,6.7,0.1,10.1,0.1 M728.7,488.9c0-0.1,1.9,0.1,5.3,0.5s8.3,0.9,14.4,1.3c6.1,0.3,13.3,0.6,21.3-0.4c2-0.3,4-0.6,6-1.1
	s4-1.2,5.9-2.1s3.7-2.1,4.9-3.8c0.3-0.4,0.6-0.9,0.9-1.3c0.3-0.4,0.4-0.9,0.6-1.4c0.1-0.2,0.2-0.5,0.3-0.8s0.2-0.6,0.4-0.9
	c0.1-0.3,0.3-0.6,0.5-0.8c0.2-0.3,0.3-0.5,0.5-0.8c1.5-2.1,3.5-3.5,5.6-4.6s4.2-1.9,6.4-2.6c4.3-1.3,8.6-1.9,12.6-2.4
	c8.1-0.8,15.4-0.7,21.6-0.5c6.1,0.2,11.1,0.7,14.5,1.1s5.3,0.8,5.2,0.9c0,0.1-1.9,0-5.3-0.1c-3.4-0.2-8.3-0.4-14.4-0.5
	c-6.1,0-13.4,0-21.3,0.9c-4,0.5-8.1,1.2-12.3,2.4c-2.1,0.6-4.1,1.4-6,2.4s-3.7,2.4-4.9,4.1c-0.2,0.2-0.3,0.4-0.4,0.7
	c-0.1,0.2-0.3,0.4-0.4,0.7c-0.1,0.2-0.2,0.5-0.3,0.7s-0.2,0.5-0.3,0.8c-0.3,0.6-0.5,1.2-0.8,1.7s-0.7,1.1-1,1.5
	c-1.5,2-3.6,3.3-5.6,4.3c-2.1,1-4.2,1.7-6.3,2.2s-4.2,0.8-6.2,1.1c-8.1,0.9-15.5,0.5-21.6,0s-11-1.3-14.4-1.9
	C730.5,489.5,728.7,489,728.7,488.9L728.7,488.9z M1055.8,408.5c2.6,0.3,5.2,0.6,7.6,1c4.8,0.8,9,1.7,12.6,2.3 M1016.4,424.6
	c-2.9-0.7-6-1.4-9.2-1.7c-1.6-0.1-3.2-0.2-4.8-0.1 M242,452c7.6-1.8,16.2-3,25.3-3.1c9-0.1,17.7,0.9,25.3,3 M76.6,493.3
	c-3.6,0.3-8.5-0.1-13.8-1.3c-10.6-2.5-18.3-6.7-18-7.2 M2131.6,428.8c-2.7,0.7-5.5,1.5-8.5,2.3s-6.3,1.5-9.7,2.1"/>
<g>
	<path class="st8" d="M1025.8,257.9h1.4c1.8-0.2,2.9-0.5,3.7-0.8c5.1-1.4,11.7-1.8,17-2.6c7.7-0.8,13.6-1.1,17.9-1.1
		c4.3-0.2,10.6,0.3,18.7,1.3c1,0.2,2.4,0.3,4.5,0.3c1.6,0,2.9,0.3,4,1c0.8,0.8,1.1,1.4,1.1,1.9c0,2.4,0.5,4.2,1.4,5.3
		c0.2,0.8,0.3,1.1,0.2,1.3c-0.6,0.5-1.1,0.6-1.6,0.6c-3.2-0.6-6.2-1-9.3-1.8c-10.2-1.1-20.3-2.6-30.5-2.6c-10.6,0-20.6,1.4-30.4,4.2
		l-12.2,3.4l-0.2,0.3l-0.8,0.2l-7,2.6c-0.8,0.3-2.1,1-3.8,2.1c-0.8,0.6-4-3.8-4.8-6.4c-0.5-0.8,0-1.4,1.1-1.9c4.3-1.8,7-5,10.9-7.5
		c1.8-1.3,1.9-3.2,2.7-5.3c1.4-3.4,2.4-6.7,3.8-10.4l0.2-0.3c0.2-0.8,0.5-2.2,1.1-4.3c0.6-2.2,1-3.4,1-3.5c0.5-0.2,0.6-0.6,0.6-1.1
		c-0.2-3.7,1.8-6.7,2.6-10.1c-0.2-1.6,0.3-3.4,1.8-5.4c1.1-2.1,1.6-3.7,1.4-4.8c0-0.5,0.3-1.1,1-2.1v1.1c0,0,0.2-0.2,0.2-0.3
		c0,0-0.2-0.3-0.3-0.8c-0.3-0.8-0.2-1.4,0.6-1.6c0.6-0.3,1-1,1-1.9l0.2-0.2v0.3c-0.8-1.1-1-2.1-0.2-2.9c0.5-0.5,1.1-1.3,1.8-2.2
		c0.5-0.8,0.8-1.3,0.6-1.6c0.5-4,2.7-6.7,4.2-10.6l3.4-5.6c0-0.5,0.2-0.6,0.6-1.1c1.1-2.4,2.2-4.6,3.7-6.7c0.8-1.4,0.5-2.1,1.8-3.8
		c0-0.2,0.5-0.5,1.6-1.3c0.3-0.2,1-1.1,1.9-2.6c0.8-1.4,2.1-3.7,3.4-5c0.6-0.6,1.3-0.6,1.9-1.3c2.4-2.4,4.8-4,7.5-4.8
		c4.6-1.4,8.3-0.5,10.7,2.9s2.9,6.1,1.1,8.2l-2.1,3.7c0,0.2,0.2,0.5,0.5,0.8c0,0,0.5,0.2,0.6-0.3c1.3-1.8,2.2-3.7,3.7-5.6l0.2-0.2
		v0.2c-1.4,0.8-2.4,1.3-3,1.4c1.9-3,3.5-6.1,5.9-9.1c0.8-1.1,1.6-1.1,2.4,0c0.8,1.3,2.1,2.9,3.2,4.3c1,1.3,1,2.6,0.2,3.7
		c-0.2,0.5-0.5,1-1,1.4c-3.8,5.1-5.1,10.4-9.1,14.7c-2.6,6.2-5.3,13.3-9,18.9c-1.4-0.8-3.2-1-5.4-0.8c-2.1,0.2-2.7-0.5-1.9-2.1
		c0,0,0-0.3,0-1.1l2.4-5.8c0.8-1.4,1.3-2.4,1.3-2.6l1.6-2.7c8.2-12.5,9.4-34.1-10.4-7.4c-4.5,5.9-7.4,12.8-10.4,19.2
		c-1.8,3.7-4.2,9.9-7,18.4c-2.9,8.5-4.5,14.6-5,18.2c-0.8,1.8-1.3,3.4-1.3,4.8l-0.3,0.2c-0.3-0.2-0.5-0.2-0.6,0.3
		c0,0.5-0.2,0.6-0.3,0.8c0,0.3,0.2,0.6,0.3,1c0.2,0.2,0,0.3-0.3,0.5c-0.3-0.2-0.5-0.2-0.6,0.2c-0.8,1.4-2.1,5.1-2.1,6.4
		c0,0.5,0,0.5,0,0.5s0,0.2,0,0.6h0.2c-0.5,0.5-1,1-1.1,1.6c0,0.5-0.2,1.1-0.6,1.9c-0.5,0.8-0.5,1.6-0.2,2.4c0,0.2,0.2,0.3,0.3,0.3
		c0.3,0.2,0.5,0.5,0.5,1c-0.2,0.8-0.3,0.6-0.3,1.1c0.8,0,1.3,0,1.4-0.2c0.8,0,1.8-0.8,2.6-0.8L1025.8,257.9z M1017,258.2
		c-0.3,0.5-0.3,0.8,0,1c0-0.2,0.2-0.6,0.3-1.4C1017.2,257.9,1017,258.2,1017,258.2z M1018.8,257.2h-0.2c0,0.5,0.2,0.3,0.2,0.3
		l0.2-0.3H1018.8z M1022.8,221.9l-0.3-0.3c0,0.5-0.2,0.6-0.2,0.6c0,0.2,0.2,0.3,0.2,0.3L1022.8,221.9z M1022.5,238.7l0.2,0.2
		c0.2-0.2,0.2-0.2,0.2-0.3l-0.3-0.2C1022.5,238.5,1022.5,238.7,1022.5,238.7z M1023.8,234.7c0,0,0-0.3,0-0.5v-0.5
		c-0.2,0.8-0.6,1.1-0.6,1.8c0,0.2,0.2,0.2,0.6,0.3c0-0.5,0-0.6,0.2-0.8C1023.9,234.8,1023.9,234.7,1023.8,234.7z M1025.7,214.5
		l0.2-0.3c0-0.2-0.2-0.5-0.3-0.6c-0.3-0.2-0.6,0-0.8,0.2c-1,1.1-1.3,2.2-1,3.4c-0.2,0.5-0.5,0.6-0.5,1.1c0,0,0.2,0.3,0.3,0.3
		c0.2,0,0.3-0.2,0.3-0.3c0-0.5-0.2-0.6-0.2-1.4c0.6-0.2,1.3-0.6,1.8-1.4C1025.5,215.2,1025.7,215,1025.7,214.5z M1026.8,209.9
		c-0.5,0-0.3,0.2-0.3,0.2c0.2,0.2,0.3,0.2,0.5,0.2v-0.2L1026.8,209.9z M1028.6,204.9l-0.2-0.2h-0.2c0,0.2,0,0.3,0,0.3
		C1028.4,205.1,1028.4,205.1,1028.6,204.9z M1036.5,183.2l1,0.5c1.9-2.1,3.4-4.5,4.5-7c0-0.5,0.2-1,0.6-1.1c1-1,1.4-1.8,1.3-2.4
		c0-0.5,0.2-0.6,0.3-0.6c0.5,0,1-0.5,1.6-1.6c1.3-1.8,1.9-3,2.1-3.5c0.2-0.5,0.2-0.8,0-1c-0.5,0-0.8,0.2-1,0.5l-1.8,2.6
		c-1.6,2.4-2.7,4.3-3.5,5.9c-0.5,1.4-1.1,2.4-1.8,3.2c-0.6,1.1-1.9,1.6-2.1,2.2L1036.5,183.2z M1049,164.6c-0.2,0.2-0.2,0.5-0.2,1
		h0.2c0.5,0.2,0.6,0,0.6-0.5c0.3-0.3,0.6-0.8,0.8-1.6c0.2-0.2,0.3-0.3,0.3-0.3c-0.2,0.2-0.3,0.3-0.3,0.3
		C1050.6,163.5,1050.1,163.8,1049,164.6z M1049.2,168.8c0-0.2,0.2-0.3,0.3-0.3c0.3-0.2,0.5-0.3,0.5-0.3s-0.2,0.2-0.5,0.3
		C1049.2,168.5,1049,168.6,1049.2,168.8z M1050.8,167v0.2V167z M1051.9,166.1c0.2-0.2,0.5-0.3,0.8-0.3c-0.3-0.3-0.5-0.5-0.5-0.5
		s-0.2,0.2-0.6,0.5C1051.7,165.9,1051.9,166.1,1051.9,166.1z M1055.3,163.2l0.3-0.5c0.2-0.2,0.3-0.3,0.3-0.3l-0.3,0.3
		C1055.6,162.7,1055.1,162.6,1055.3,163.2z M1072.7,172.1c-0.8,0-1.3,0-1.3,0.2c-1.8,1.9-4.3,3.2-5,5.8c-0.6,1.4-1.3,2.7-1.8,4.2
		c-0.6,1.3-2.1,2.2-1.6,3.7c2.1,0,2.1-1.6,3.2-2.9c1.8-2.4,2.7-3.8,2.9-4.6c0.3-1.4,1.4-2.9,3.5-4.3c-0.5,0.2-0.2-0.2,0.8-1.1
		C1073.2,172.5,1072.9,172.1,1072.7,172.1z"/>
	<path class="st8" d="M1070.9,236.4c-2.7,4.5-5.3,7.8-7.7,10.1l-2.2,2.4c-1,0.5-1.6,0.8-2.1,0.8c-2.7,0.3-4.5-0.6-5.3-2.9
		c-1.1-3.2-1.3-6.4-0.5-9.4c1.1-3,1.8-6.1,3.5-9.1l1-2.6c2.6-7.5,6.7-15,9.8-20.6c0.3-0.8,0.8-1.1,1.4-0.6c1,1.1,2.2,1.8,3.7,1.9
		c1.6,0.5,2.1,1.8,1.6,3.5c0.2-0.5,0-0.2-0.5,1.3c-2.4,4.3-4.3,8.3-5.9,12c-2.1,3.8-4.2,8.3-6.2,13.4c-1.3,2.2-2.1,4.8-2.4,7.5
		c-0.3,0.8-0.3,1.4,0,2.1c0,0.6,0.2,0.8,0.6,0.3c2.1-1.1,3.7-2.4,4.8-4.2c1-1.1,2.9-4,5.6-8.5c2.9-4.5,4.8-7.5,5.6-9
		c0,0,2.1-0.6,1.6,0.6C1075.9,228.3,1073.7,232,1070.9,236.4z M1055.4,233.4v0.3c0.2-0.2,0.3-0.3,0.3-0.3c0-0.2,0-0.3-0.2-0.5
		c0.2,0,0.3,0,0.3,0s0-0.3,0-0.5c0,0.2-0.2,0.5-0.2,0.5C1055.6,233.1,1055.4,233.2,1055.4,233.4z M1056.7,236.1l-0.2,0.2v0.3
		C1056.5,236.3,1056.5,236.1,1056.7,236.1c0.6-0.8,1-1.6,1-2.7c0.3-0.2,0.5-0.6,0.5-1.4c1.6-1.6,2.6-3.7,2.7-6.2
		c0.5,0,1-0.6,1.4-2.1c1.1-1.9,1.9-4.5,3-6.6l1.6-3.5c0.2-0.2,0-0.3-0.2-0.6l-0.2,0.2c-0.5,0.5-0.8,1-1.3,1.8c-1.4,3-2.7,5.9-3.8,9
		c-0.3,0.8-0.5,1.4-0.5,2.1c-0.6,0.5-1.6,1.9-2.7,4.6c-0.2,0.2-0.2,0.6-0.2,1.4c-0.3,0.2-0.5,0.6-0.5,1.4
		C1056.9,234,1056.5,235,1056.7,236.1z M1058,228.1c-0.8,0.2-1,0.6-0.6,1.4c-0.3,0.2-0.5,0.5-0.5,1.3c-0.3,0-0.3,0.2-0.2,0.3
		c0,0,0.2-0.2,0.2-0.3c0.2-0.2,0.3-0.6,0.3-1.4c0.5-0.2,0.8-0.5,0.6-1.3c0.3-0.2,0.5-0.8,0.5-1.6c0.5,0,0.6-0.2,0.2-0.3
		c0,0.2,0,0.5-0.2,0.6C1057.8,227,1057.8,227.5,1058,228.1z M1060.1,223.3l0.2-0.2c0-0.8,0.2-1.1,0.5-1.3c0-0.5,0.2-0.8,0.6-1.4
		c0,0,0.2-0.3-0.3-0.2c-0.2,0.8-0.5,1-0.5,1.6c-0.2,0.5-0.5,0.8-0.5,1.3V223.3z M1062.8,216.8c0.5-0.2,0.6-0.6,0.5-1.3
		c0.5-0.2,1-0.5,1.1-1.3c0,0-0.2,0-0.2-0.5c0,0.2-0.2,0.3-0.2,0.3l-0.6,1.4l-0.5,1.6c-0.2,0.5-0.6,1.1-0.6,1.3l-0.2,0.2v0.2
		c0-0.2,0-0.3,0.2-0.3C1062.6,218.2,1062.8,217.7,1062.8,216.8z M1063.7,223.3c0,0.2,0.2,0.5,0.2,0.5s0.2-0.2,0.2-0.3
		c0,0,0-0.2,0-0.8h0.2l0.2-0.2c0,0-0.2,0.2-0.3,0.3C1064.1,223.3,1063.7,223.3,1063.7,223.3z M1068.1,210.8c0,0,0-0.3,0.2-0.3
		c0,0,0,0,0.2,0c0-0.2,0.2-0.3,0.3-0.3v0.2c-0.5,0-0.5,0-0.5,0C1068.2,210.5,1068.2,210.7,1068.1,210.8z M1075.3,204.8
		c-0.2,0.3-1.3,0-3.2-1c-1.9-1-2.7-1.8-2.6-2.2c0.5-1.8,0.6-2.7,0.8-2.9c0.2-0.2,0.5-1.3,0.8-3c1.3-1.6,2.7-1.6,4.5-0.2
		s2.9,2.7,3.7,3.5c0.8-1.1,0.8-1-0.3,0.3C1078.3,201.7,1075.9,202.7,1075.3,204.8z"/>
	<path class="st8" d="M1114,236.9c-3.7,5.6-6.1,9-7,10.2c-0.6,1-1.8,2.2-3.2,3.8c-1.4,1.3-3,1.3-4.5,0c-2.9-2.1-4.5-4.3-4.6-6.9
		c-0.3-2.1,0-4.8,1-8c2.1-7,3-12.5,6.7-19.5c2.7-5,3.8-7.5,3.4-7.7c-1.1,0.2-2.2,1.1-3.4,2.6c-2.6,3.4-5.1,6.2-7.7,9.4
		c-4.5,5.8-8.8,11.8-12.5,18.2c-1.1,2.1-2.2,3.7-3.7,5l-1.9,2.7c-0.6,0.6-1.1,1.6-1.6,2.4c-1.1,1.6-2.6,1.8-4.3,0.6
		c-2.9-1.4-3.5-3.8-2.1-7.4c1.9-3.7,3.8-7.7,5.1-11.7c0.5-1.3,1.1-2.2,1.3-3.5c4.3-8.2,7.7-16.5,11.4-25.3c0.5-1.8,1.6-2.4,3.2-1.6
		l4.2,2.6c1.6,1.1,2.1,2.7,1.3,4.6c-2.4,4.6-5,9.6-7,13.9c-1.8,3.8-3.7,7.2-5,10.6c0,0,0,0.3,0,1c0,0,0.3,0,0.5-0.5
		c0.2-0.5,0.8-0.6,1.3-1.4c3.7-5.8,8.3-11.4,13.3-17.1c1.8-2.1,2.1-3.4,4.2-5.9c1.8-2.1,3.8-4.8,5.8-6.9c0.8-0.8,1.3-1,1.6-0.6
		c1.4,1.1,2.9,1,4.3,1.4c0.6,0.6,3.2,2.9,3.2,3.5c0,4.6-3.7,9.9-5.8,14.4c-0.6,1.1-1.4,2.7-2.4,5c-0.2,0-0.2-0.2-0.2-0.2
		c-0.5,0-0.5,0-0.5,0c-0.2,0.2-0.3,0.5-0.3,0.8c0,0.2,0.2,0.5,0.3,0.5l-2.2,5.9c-0.3-0.5-0.5-0.6-0.6-0.6c-0.5,0-0.6,0.3-0.6,1
		c0,0.2,0.3,0.5,0.8,1l0.2-0.6c-0.2,1.1-0.5,1.9-0.6,2.6l-0.5-0.2c0,0,0-0.2,0-0.6l-0.2-0.2c0,0.2,0,0.3,0,0.3
		c0,0.2,0.2,0.3,0.3,0.3v1.3l-0.2,0.2v0.3l0.2-0.3c-1.8,1.1-2.4,2.7-1.9,4.6c-0.2,0.2-0.8,0.3-0.8,0.3l-2.6,4.5
		c-0.2,0.2-0.2,0.3-0.2,0.5c0,0.5,0.2,0.6,0.2,0.6c0.5,0.3,0.6,0.3,0.6,0c1.4-1.8,2.2-3.8,2.7-6.1c0.3-0.3,0.8-0.8,1.3-1.6l-0.3,1.1
		c-0.6,2.7-0.8,4.5-0.6,5.3c2.1,0,3.4-1.9,4.8-3.4c0.5-0.6,2.6-3.4,6.1-8.3s5.6-7.8,6.1-8.3c0.6-1.1,1.9-0.8,1.3,0.6
		C1120.2,227.6,1117.8,231.3,1114,236.9z M1078,238.4c-0.3,0-0.5,0-0.6,0.2c0,0.5-0.2,0.8-0.2,1c0,0.2,0.2,0.5,0.2,0.5
		c0.2,0,0.3-0.2,0.6-0.3c0.2-0.2,0.2-0.3,0.2-0.8C1078.1,238.7,1078.1,238.5,1078,238.4z M1079.9,225.2l-0.2,0.3
		c-0.2,0.5-0.3,0.6-0.3,0.8c0,0,0.2,0.5,0.3,0.5c0,0,0.2,0.2,0.2-0.3c0.2-0.2,0.3-0.5,0.3-0.6C1080,225.9,1079.9,225.7,1079.9,225.2
		z M1082,219.2c0.2,0.5,0.5,0.8,1,0.8s0.6-0.3,0.5-1c0,0.3-0.2,0.2-0.5-0.6C1082.3,218.8,1082,219.2,1082,219.2z M1083.4,215
		c1.8-0.8,2.4-2.4,2.1-4.5c0,0,0.5-0.3,0.6-0.5l2.6-4.5c0.2-0.2,0.3-0.3,0.3-0.5c0,0-0.3-0.2-0.3-0.6c-0.2,0-0.5,0-0.5,0
		c-1.4,1.9-2.4,4-2.7,6.1c-1.3,1.3-1.9,2.9-1.9,4.6c-0.6,0.5-0.6,1,0,1.3c0,0.2,0,0.6,0,0.6l0.2,0.2c0,0,0.2,0,0.2-0.5
		c-0.2,0-0.5-0.2-0.5-0.3V215z M1110.3,213.1c0,0,0.3-0.2,0.5-0.3c0,0,0.3-0.3,0.3-1c0,0-0.3-0.3-0.3-0.5c-0.2,0.2-0.5,0.3-0.5,0.3
		c-0.2,0.2-0.2,0.3-0.2,0.8C1110.1,212.8,1110.1,212.9,1110.3,213.1z"/>
	<path class="st8" d="M1154.7,202.9c0.3,0,0.6,0.2,1,0.3c0.8,1.1,1.1,2.4,1.1,3.5c0.2,4-0.5,7.5-1.8,10.6c-1.1,3-2.4,5.4-3.7,8
		c-1.4,3.4-3.7,6.2-6.4,9c-1.4,1.4-3.2,2.7-5,3.8c-1.8,1.1-3.4,1.4-5.1,0.8l0.2,0.5c-0.2,0.2-0.2,0.3-0.2,0.6
		c0.5,4.8,1.4,9.6,3,14.2c0.3,1.8,1.8,4.2,4.3,7.4c0,0.2,1,0.5,2.7,0.8c0.6,0,1,0.3,1,1c0,0,0,0.6,0,1.8c-0.5,2.6-1.6,3-3.4,1.6
		c-2.6-1.8-4.3-3.4-5.4-5c-4.5-4.8-6.9-10.6-7.4-17.3c-0.5-1.8-0.5-3.5-0.5-5.6c0-0.5-0.3-1-1.1-1.8c-0.3-0.2-0.6-0.2-0.8,0
		c-0.3,0.2-0.8,0.8-1.3,1.6l-6.9,10.7c-0.8,1.3-1.6,1.6-2.7,1c-1.4-0.5-2.4-1.3-2.7-2.4c-0.8-1.1-1.1-1.6-1-1.4
		c-0.6-0.8-0.8-2.2-0.5-4.2c1.1-1.8,1.8-3.5,2.1-5.3l0.2,0.2c0,0,0.2-0.3,0.2-0.5c0.8-0.2,1-0.6,0.6-1.6c0-0.2,0-0.2-0.2-0.3
		c1.4-4,2.6-6.9,3.2-9l7.2-17.3c3-6.6,6.1-13.6,9.4-20.2c2.1-5,4.6-9.8,7.2-14.7c0.2-0.5,0.6-0.6,1.3-0.5c2.1,0.5,3.8,2.1,5.6,4.8
		c0.5,0.8,0.6,1.4,0.5,1.9c-0.6,2.1-1,3.4-1.1,3.5l-4,7.5c-5.3,9.6-9.4,19.5-13.4,29.1c-1.8,3.4-2.9,5.9-3.7,7.7
		c-0.8,1.9-1.1,3.4-0.8,4.2c-0.2-0.2-0.2-0.2-0.2-0.2c1.8-2.4,3.4-4.8,5.3-7.2c5-6.6,10.9-15.2,16.8-21.6c1.4-1.3,3-1.4,5-0.5
		C1153.8,203,1154.3,203,1154.7,202.9z M1114.8,236.1c0,0.2,0,0.6,0,0.6c0,0.2-0.2,0.2-0.2,0.2L1114.8,236.1z M1118.8,233.1v0.2h0.2
		L1118.8,233.1z M1120.2,230.7c0.2-0.2,0-0.3-0.2-0.6l-0.5,0.5v0.6c0,0.5,0,0.8-0.2,0.6c0,0,0.2-0.5,0.2-0.6
		C1120,230.8,1120.2,230.7,1120.2,230.7z M1130.6,201.4c-0.3,0.2-0.5,0.6-0.5,1.4c0,0.2-0.2,0.2-0.3,0.2c-1.3,1.6-2.2,3.5-3,5.9
		c0,0.5,0.2,0.8,0.2,1.3c-0.8,0.2-1.3,0.8-1.4,1.9c-1.8,4.3-3.5,8.3-5.4,12c0,0.5,0.2,0.8,0.2,0.8c0.3,0,0.5,0,0.6-0.2
		c0.8-1.3,1.1-1.8,1.1-1.4c1.4-3.8,3.2-7.5,4.6-11.2c0-0.6,0.2-1.1,0.3-1.9c2.1-1.9,3.2-4,3.4-6.4c0-0.2-0.2-0.5-0.2-1
		C1130.7,202.7,1130.9,202.2,1130.6,201.4c1.1-0.5,1.8-1.3,1.6-2.4C1131.1,199.3,1130.6,200.1,1130.6,201.4z M1121.5,227.5h-0.2v0.2
		L1121.5,227.5z M1121.8,226l0.2-0.2h-0.2V226z M1123.1,222.5l-0.2,0.2l0.2,0.2V222.5z M1124.2,219.8l0.2-0.2l-0.2-0.2V219.8z
		 M1125,218.2c-0.2,0,0-0.2,0.3-0.6c0,0,0.2-0.3,0.2-0.5c-0.2-0.2-0.2,0-0.2,0.5C1125.1,217.7,1125,218.2,1125,218.2z M1126.1,215.5
		l0.2,0.3v-0.3H1126.1z M1127.4,213.1l0.2,0.3v-0.5L1127.4,213.1z M1129.1,209.4c0,0,0.8,0.2,0.2-0.5
		C1129.3,209.1,1129.1,209.4,1129.1,209.4c-0.5,0.3-0.6,1-0.6,1.8c0,0.5-0.2,0.6-0.3,0.5c0,0,0.3-0.3,0.3-0.5
		C1129,211.2,1129.1,210.5,1129.1,209.4z M1129.8,233.4c-0.5-0.8-0.2-1.1,0.8-1.1c1.8,0,2.6,0,2.6,0c1.4,0,2.1,0,2.1,0.2
		c0.8-1.3,2.7-0.6,2.9-2.4c0.3-0.5,0.6-0.6,0.8-0.8c3.8-4,5.3-5.4,7.4-10.1c1.4-2.7,3.4-5.9,4-9.8c0.5-1.1,0.6-2.4,1.1-3.8
		c0-0.2,0-0.2-0.2-0.3l-0.2-0.2c-1,0.8-1.6,1.3-2.1,1.4l-0.5,0.8l-4.5,5.3c-2.4,3-6.1,7.5-8.2,10.6c-2.4,3.4-4.2,6.7-6.6,9.9
		c0,0.2,0.2,0.6,0.2,0.6s0.3,0,0.5,0C1129.9,233.6,1129.9,233.6,1129.8,233.4z M1131.4,205.1c-0.2,0.2-0.3,0.5-0.3,0.5
		c-0.5,0.5-0.8,0.8-0.8,0.8c-0.2,0.2-0.5,0.5-0.5,0.5c0,0.5,0.2,0.6,0.2,0.6c0.2,0,0.3-0.2,0.3-0.3c0,0,0-0.3,0-0.8
		c0,0,0.3-0.3,0.8-0.8C1131.2,205.4,1131.4,205.3,1131.4,205.1z M1132.2,203.7l-0.3-0.2v0.2H1132.2z M1132.7,202.1v-0.2h-0.2
		L1132.7,202.1z M1133.5,236.6c2.9-1.3,4.6-2.7,5.4-4.3c1.4-0.6,2.6-1.4,3.4-2.2l0.2-0.3c-0.5,0-0.6,0-0.6-0.2l-2.2,1.1
		c-0.5,0.2-0.6,0.8-0.6,1.6c-0.6,0-1.3,0.3-2.1,1c-1.8,1.1-3,1.9-4,2.4L1133.5,236.6z M1133.1,200.3v0.2h0.3L1133.1,200.3z
		 M1133.5,233.2l-0.3,0.2l0.3,0.2V233.2z M1134.1,198.4c0,0-0.8,0.3-0.2,0.5c0,0,0.2-0.5,0.2-0.6c0.5,0,0.8-0.5,0.8-1.4
		c0.3-0.2,0.5-0.6,0.5-1.6c0.5-0.2,0.8-0.6,0.6-1.8c1-0.2,1.4-1,1.3-2.4c0.5,0,0.6-0.5,0.6-1.4c0.5-0.2,0.6-0.6,0.6-1.6
		c0.2-0.2,0.3-0.5,0.3-0.6c-0.2,0.5-0.3,0.6-0.3,0.6c-0.6,0.2-0.8,0.8-0.6,1.6c-0.8,0.3-1,0.8-0.5,1.4c-1.3,0.6-1.8,1.4-1.4,2.4
		c-0.5,0.3-0.6,1-0.6,1.8c-0.6,0.3-0.8,0.8-0.5,1.6C1134.4,196.9,1134.1,197.4,1134.1,198.4z M1139.5,186.1l0.2-0.2h-0.2V186.1z
		 M1140,184.3l0.2,0.2v-0.2H1140z M1141.3,180.9v0.2h0.2L1141.3,180.9z M1147.9,223.5c1.6-2.1,2.4-4,2.2-6.1c0.5-1,0.8-1.3,0.8-1.1
		c1-2.4,1.9-5.1,2.9-8.2c0,0-0.2-0.5-0.2-0.6c-0.3,0.3-0.5,0.5-0.5,0.3c-0.8,2.1-1.8,4.5-2.4,6.9c-0.5,1.1-0.8,2.1-0.6,2.7
		c-1,1-1.4,1.3-1.3,1.1L1147.9,223.5c-0.5,0.2-0.6,0.6-0.6,1.4c-0.5,0.2-0.6,0.5-0.8,0.8c-1.3,0.8-2.1,1.6-2.2,2.6
		c0,0.3,0.2,0.5,0.3,0.5c0,0.5,0.2,0.5,0.5,0c0.8-1,1.3-1.9,1.4-3c0.2-0.3,0.3-0.6,0.8-0.8S1147.9,224.3,1147.9,223.5z"/>
	<path class="st8" d="M1160,255.1c-3.7-0.6-6.7-1.1-10.4-1.9c-2.4-0.5-3.2-2.6-5.1-4c0,0,0-0.5,0-1.3c0.5-0.8,0.8-1.3,1-2.1
		l7.7-13.8c1.3-2.6,2.2-5.1,3.7-7.7c0.8-2.6,2.2-5,3.4-7.4c1.8-3.5,2.9-6.1,3.4-7.8c0.8-3.7,2.9-7.5,6.2-11.8c0.3-0.5,1-1.1,2.1-1.8
		c1.8-0.6,4.3,1,6.1,1.4c0.2,0,2.9,1.9,2.7,2.7c-1.4,2.4-6.4,7-7.7,9.1c-2.6,4.8-2.9,8.8-1,11.8c1.1,1.9,2.1,3.8,3.4,5.6l2.4,4.3
		c2.4,5,1.4,10.2-2.6,16c-1.4,2.1-3.2,4-5.6,5.9c-1.3,0.6-2.4,1.3-3,1.8C1164.2,254.5,1161.8,255.3,1160,255.1z M1156.2,230.7
		c-0.2-0.3-0.3-0.5-0.3-0.5c0,0.5,0,0.5,0,0.5c0,0.2,0.3,0.5,0.5,0.5c-0.3,1-0.5,1.4-0.5,1.4c-1.8,1.6-3.2,3.8-4.3,6.7
		c-0.6,2.1-1.8,3.8-2.6,5.9c-0.6,1.9,0.3,4,1.8,3.2c1.8-0.5,2.7-0.2,4.2-0.2c0.8,0,2.1,0.2,3.4,0c5.6-0.2,9.6-3.4,12.3-9.9
		c1.1-2.7,1.1-5,0.3-6.9c-0.8-1.4-2.1-3.5-3.5-6.2c-1.4-1.9-2.4-3.7-3.7-5.6c-0.2-0.5-0.5-0.6-0.6-0.6l-0.6,0.8
		c-1.8,3.8-3.8,7.7-6.2,11.5V230.7z M1173.1,242.5c1.1-2.7,1.1-5.1,0-7c0,0.2-0.2,0.2-0.6-0.3c-0.2,0.2-0.2,0.5-0.2,0.6
		c-0.5,2.7-0.6,5.1-1.1,7.5c-1.8,1.4-2.7,2.7-3,3.8c-0.2,0.2,0,0.3,0.2,0.8c0,0,0.2,0,0.3-0.2c1.8-1.8,2.6-3.2,2.4-4.5
		C1172.2,243.3,1173,243,1173.1,242.5z"/>
</g>
</svg>
