<?xml version="1.0" encoding="utf-8"?>
<!-- Generator: Adobe Illustrator 22.0.1, SVG Export Plug-In . SVG Version: 6.00 Build 0)  -->
<svg version="1.1" id="Layer_1" xmlns="http://www.w3.org/2000/svg" xmlns:xlink="http://www.w3.org/1999/xlink" x="0px" y="0px"
	 viewBox="0 0 2175.8 545.5" style="enable-background:new 0 0 2175.8 545.5;" xml:space="preserve">
<style type="text/css">
	.st0{fill:#7BCEF4;}
	.st1{fill:#F0F9FA;}
	.st2{fill:#30A5CC;}
	.st3{fill:#FFFFFF;}
	.st4{fill:#B6E4F5;}
	.st5{fill:#215064;}
</style>
<path class="st0" d="M2175.9,0v545.5H800.7c1.2,0.8,2.3,1.5,3.5,2.3c-14.9-0.1-46.3-0.9-87.5-2.3H-4.4V0H2175.9z"/>
<g id="mountain_bg_1_">
	<g id="left_mountain_1_">
		<path class="st1" d="M948.8,520.9c-1.3,7.1-3,13.8-4.2,18.1c-0.6,2.1-1,3.6-1.2,4.3c-0.1,0.6-0.2,1.3-0.3,2.1H800.7
			c1.2,0.8,2.3,1.5,3.5,2.3c-14.9-0.1-46.3-0.9-87.5-2.3C536,539.5,166,523.8,166,523.8s12.1-43.5,27.3-67.6c2.6-4.2,5.1-7.3,7.2-10
			c0.9-1.1,1.7-2.3,2.5-3.3c2-2.8,3.7-5.6,4.8-9.2c6.2-17,15.8-34,15.8-34l51-41.2l18.3,5l18.3-21.1c0,0,30-12,32.6-17.2
			s26.7-13.3,32.6-25.5s48.9-15.7,63.9-27.9c15-12.2,48.7-36,56-49.3c0,0,0-0.1,0.1-0.1c0.3-0.5,0.6-1,1.1-1.4
			c0.1-0.1,0.2-0.2,0.3-0.3c10.7-9.3,55.9,12.5,65.1,17.4c9.7,5.2,22.2,19.7,40.4,16.2c18.3-3.5,36.5-2.9,56.1,18.6
			s33.3,36.6,47,42.9c13.7,6.4,40.4,20.4,47,26.5c1,0.9,2.6,2.1,4.6,3.4c0.4,0.3,0.9,0.5,1.3,0.8c10.4,6.6,29.3,15.8,37.9,18.6
			c0.1,0,0.1,0,0.2,0.1c0.6,0.2,1.1,0.3,1.6,0.5c0.2,0,0.3,0.1,0.6,0.2c0.1,0,0.2,0.1,0.3,0.2c9.6,5.3,65.9,60.2,105.4,95.5
			c15.7,14,28.8,25,35.2,28.5c0,0,0.1,0,0.1,0.1h0.1c1,0.5,1.8,0.9,2.4,1c0.1,0,0.1,0,0.2,0C951.8,492.8,951.2,507.5,948.8,520.9z"
			/>
		<path class="st2" d="M948.7,520.9c-1.3,7-3,13.8-4.2,18.1c-0.6,2.1-1,3.7-1.2,4.4c-0.1,0.5-0.2,1.2-0.3,2H800.7
			c-31.6-21-57-37.7-57.7-37.7c-1-0.1-2.6-1.8-4.1-4.1c-1.6-2.3-3.1-5.2-3.8-7.3c-0.5-1.6-0.1-2.8,0.4-3.9c0.8-1.8,1.9-3.2-1.1-5.2
			c-4.8-3.2-7-4.8-17.6-6.5s-8.1-5.9-13.2-8.5c-5.2-2.6-6.6-10.8-17.6-4.6c-11,6.2-12.8-10.7-18.3-14.3
			c-5.5-3.6-12.4-21.8-16.8-24.1c-4.4-2.3-25.2-22.4-30-23.4s-7.3-31.6-6.6-38.3c0.8-6.7-16.4-29.4-21.9-33.3s-13.2-20.5-18.3-22.8
			c-5.2-2.3-8.5-10.1-15.4-7.2s-17.9-6.5-23.8-7.8c-5.9-1.3-0.6-30.9-6.1-33.8c-5.5-3-15-18.2-15.4-25.4c-0.4-7-16.3-14.5-17.1-14.9
			l0,0c0.3-0.6,0.7-1.1,1.2-1.5c0.1-0.1,0.2-0.2,0.3-0.3c10.8-9,55.8,12.6,65,17.5c9.7,5.2,22.1,19.7,40.4,16.2s36.5-2.9,56.1,18.6
			c19.6,21.4,33.3,36.5,47,42.9s40.4,20.5,47,26.5c0.9,0.8,2.1,1.7,3.6,2.8l0,0c10.3,7.1,33.9,19.3,42,20.6c0.1,0,0.1,0,0.2,0l0,0
			c0.1,0,0.3,0,0.4,0.1c57.7,9.8,111.1,93,134.6,118.3l0,0c2.5,2.7,4.7,4.8,6.5,6c0.1,0.1,0.3,0.2,0.4,0.2c0.1,0,0.2,0.1,0.2,0.1
			c0.7,0.4,1.3,0.7,1.9,0.8C951.7,492.9,951.1,507.5,948.7,520.9z"/>
		<path id="mount_left_3_" class="st2" d="M943.4,491.3c-15-2.9-79.2-104.7-144.3-125.6c-8.3-2.7-39.1-17.4-45.7-23.4L943.4,491.3z"
			/>
	</g>
	<path class="st1" d="M1811.5,536.9c6.8,2.9,13.7,5.9,20.3,8.6h-751.1l-0.7-4.7c0.6,0,1.5-1.2,2.6-3.2c5.2-9.3,14.6-35.5,14.6-35.5
		l35.2-21.8l16.2-37.8l34.5-31.1l41.3-27.1c0,0,15.2-32.9,15.9-33.6c2.2-2.1,13.1-14.4,16.8-17.1c3.7-2.7,29.9-13,35.3-16
		c0,0,29.1,14.2,53.2,15.4c24.1,1.3,51.8,3.2,67.3-6.5s74.1-34.3,85.5-31c0.2,0,0.3,0.1,0.5,0.2c0,0,0.1,0,0.1,0.1
		c1.7,0.8,4.4,2.8,7.9,5.7c0.1,0,0.1,0.1,0.1,0.1c19.1,16.1,60.6,59.1,88.4,72.7c1.3,0.6,2.5,1.2,3.7,1.7l0,0
		c4.5,1.8,8.5,2.7,11.9,2.4c1.6-0.1,3.1-0.1,4.6,0c0,0,0,0,0.1,0c2.3,0.2,4.5,0.8,6.6,1.7c0.2,0.1,0.4,0.1,0.5,0.2
		c0.2,0.1,0.3,0.1,0.5,0.2c13.1,5.9,22.4,22.5,31.2,34.6c0,0,0,0,0,0.1c3.7,5.2,7.4,9.6,11.2,12l0,0c1,0.6,2,1.2,3.1,1.5l0,0
		c0.2,0.1,0.3,0.1,0.5,0.2c1.6,0.4,3.2,1.3,4.7,2.4l0,0c11.6,8.8,20.6,36.2,30.8,49.2l0,0c1,1.2,2,2.4,3,3.3c0,0,0,0,0.1,0.1
		c1.3,1.2,2.7,2.2,4.1,2.8c3.9,1.8,8.2,4.6,13,8.1h0.1c3,2.1,6.1,4.4,9.4,6.8c0,0,0,0,0.1,0.1c11.9,8.7,26.2,18.3,43,22.8
		C1787.5,527,1799.4,531.8,1811.5,536.9z"/>
	<path class="st1" d="M2096.4,545.5h-194.7c18.1-10.1,37.7-23.4,46.1-27.6c13.3-6.7,44.9-29,58.7-24.4l0,0c0.8,0.3,1.5,0.6,2.2,1.1
		c8.1,5.6,18.5,10.3,31,14.9c0.3,0.1,0.7,0.3,1,0.4l0,0c6.1,2.2,12.7,4.4,19.8,6.7c22.3,7.1,25,17.5,35.5,28.4
		C2096.1,545.2,2096.2,545.3,2096.4,545.5z"/>
	<path class="st2" d="M1813.6,545.1c0,0.1,0,0.3-0.1,0.4h-254.3c-0.9-4-1.5-8-1.4-11.2c0.4-9.4,13.7-12.8,12.4-18.8
		c-1.3-6.1,0.4-18.6,2-29s5.2-12.2,0-18.2s-19.5-37-19.5-37s-13-37.5-22.8-44.4c-9.8-7-6.5-38-17.6-37.2
		c-11,0.8-18.2-54.5-13.9-54.2c0.1,0,0.3,0.1,0.5,0.2c0,0,0.1,0,0.1,0.1c1.3,0.7,4.1,2.7,7.9,5.7c0.1,0,0.1,0.1,0.1,0.1
		c22.5,17.5,80.4,67.4,88.4,72.7c0.2,0.1,0.3,0.2,0.5,0.3c1.1,0.6,2.1,1,3.2,1.4l0,0c4.9,1.6,10.2,1.3,16.5,2.5c0,0,0,0,0.1,0
		c1.9,0.3,3.9,0.8,6.1,1.5c0.2,0,0.3,0.1,0.5,0.2s0.4,0.1,0.5,0.2c0.2,0.1,0.3,0.1,0.5,0.2c9.4,4.6,23.7,24.3,31.2,34.6
		c0,0,0,0,0,0.1c1.2,1.7,2.3,3.1,3,4.2c3.6,4.9,5.2,6.3,8.1,7.8l0,0c0.9,0.4,1.9,0.9,3.1,1.5l0,0c1.4,0.6,3,1.4,5,2.5
		c0.1,0,0.1,0.1,0.2,0.1l0,0c9.5,5.4,25.3,40.6,30.8,49.2l0,0c0.1,0.2,0.3,0.4,0.4,0.6c0.8,1.2,1.7,2.1,2.6,2.7c0,0,0,0,0.1,0.1
		c4.5,3.2,9.6,0.8,16.9,10.7c0.1,0,0.1,0.1,0.2,0.2h0.1c3.1,2.4,6.2,4.7,9.4,6.8c0,0,0,0,0.1,0.1c33.7,22.6,71.9,30.3,71.9,30.3
		s2.9,1.9,5,5C1813.1,539.1,1814.2,541.9,1813.6,545.1z"/>
	<path class="st2" d="M2061.1,545.5c-4.1-3.7-8.8-7.4-13.9-10.4c-11.9-7-15.8-6.1-26.2-10.3c-10.3-4.2-16-30.9-14.6-31.3l0,0l0,0
		c1.5,0,8.4,4.6,33.2,16c0.2,0.1,0.4,0.2,0.6,0.3c0.1,0,0.3,0,0.4,0.1l0,0c30.8,6.5,40,17.5,46.9,22.2c4.2,2.9,9.1,9,12.4,13.4
		H2061.1z"/>
</g>
<g id="snow_2_">
	<path class="st3" d="M800.7,545.5c1.2,0.8,2.3,1.5,3.5,2.3c-14.9-0.1-46.3-0.9-87.5-2.3H2V457c0,0,36.8-11.8,201-14.2
		c18.7-0.3,39.1-0.4,61.2-0.4c98,0,270.5,23,471.3,50.1c68.4,9.2,140,19,213.2,28.4c0,0,0,0,0.1,0c44.2,5.7,89,11.3,133.9,16.6
		c22.8,2.7,45.6,5.4,68.4,7.9L800.7,545.5L800.7,545.5z"/>
</g>
<g id="snow_shadows">
	<path class="st4" d="M1151.1,545.5h-169c-12.5-2.1-25-4.3-37.5-6.4h-0.1c-69.6-11.9-138.9-24-205.6-35.4
		c-191.8-32.6-361.5-59.2-450.8-59.2c-34.3,0-62.5,0.5-87.6,1.7c-22.5,1-42.5,2.5-62,4.3C33.9,460.6,2,470.3,2,470.3V457
		c0,0,36.8-11.8,201-14.2c18.7-0.3,39.1-0.4,61.2-0.4c98,0,270.5,23,471.3,50.1c68.4,9.2,140,19,213.2,28.4c0,0,0,0,0.1,0
		c44.2,5.7,89,11.3,133.9,16.6C1105.4,540.3,1128.3,542.9,1151.1,545.5z"/>
</g>
<path id="clouds" class="st3" d="M257.6,160.8c0-8.3-6.7-15-15-15h-0.8c-3.4-8.1-11.4-13.4-20.2-13.4h-1.3
	c-4.1-14.2-17.1-24.5-32.6-24.5c-16,0-29.5,11.1-33,26.1c-8.1,2.5-14.1,9.8-14.9,18.6c-1.7-0.5-3.6-0.8-5.4-0.8
	c-7.3,0-13.7,4.1-17,10.1h140.1v0.1C257.5,161.6,257.6,161.2,257.6,160.8z M1710.8,253.9c-3.3-9.8-13.9-9-22.1-4.9
	c-2.4-30.2-35.1-19.6-39.2,4.1c-15.5-3.2-40.9-2.4-50.7,12.3c0,0,93.4-0.4,140.4-0.4C1731.1,257.6,1721.4,250.6,1710.8,253.9z
	 M2088.7,106.8c0-8.3-6.7-15-15-15h-0.8c-3.4-8.1-11.4-13.4-20.2-13.4h-1.3c-4.1-14.2-17.1-24.5-32.6-24.5c-16,0-29.5,11.1-33,26.1
	c-8.1,2.5-14.1,9.8-14.9,18.6c-1.7-0.5-3.6-0.8-5.4-0.8c-7.3,0-13.7,4.1-17,10.1h140.1v0.1C2088.6,107.6,2088.7,107.2,2088.7,106.8z
	"/>
<g>
	<path class="st5" d="M1025.8,258.8h1.4c1.8-0.2,2.9-0.5,3.7-0.8c5.1-1.4,11.7-1.8,17-2.6c7.7-0.8,13.6-1.1,17.9-1.1
		c4.3-0.2,10.6,0.3,18.7,1.3c1,0.2,2.4,0.3,4.5,0.3c1.6,0,2.9,0.3,4,1c0.8,0.8,1.1,1.4,1.1,1.9c0,2.4,0.5,4.2,1.4,5.3
		c0.2,0.8,0.3,1.1,0.2,1.3c-0.6,0.5-1.1,0.6-1.6,0.6c-3.2-0.6-6.2-1-9.3-1.8c-10.2-1.1-20.3-2.6-30.5-2.6c-10.6,0-20.6,1.4-30.4,4.2
		l-12.2,3.4l-0.2,0.3l-0.8,0.2l-7,2.6c-0.8,0.3-2.1,1-3.8,2.1c-0.8,0.6-4-3.8-4.8-6.4c-0.5-0.8,0-1.4,1.1-1.9c4.3-1.8,7-5,10.9-7.5
		c1.8-1.3,1.9-3.2,2.7-5.3c1.4-3.4,2.4-6.7,3.8-10.4l0.2-0.3c0.2-0.8,0.5-2.2,1.1-4.3c0.6-2.2,1-3.4,1-3.5c0.5-0.2,0.6-0.6,0.6-1.1
		c-0.2-3.7,1.8-6.7,2.6-10.1c-0.2-1.6,0.3-3.4,1.8-5.4c1.1-2.1,1.6-3.7,1.4-4.8c0-0.5,0.3-1.1,1-2.1v1.1c0,0,0.2-0.2,0.2-0.3
		c0,0-0.2-0.3-0.3-0.8c-0.3-0.8-0.2-1.4,0.6-1.6c0.6-0.3,1-1,1-1.9l0.2-0.2v0.3c-0.8-1.1-1-2.1-0.2-2.9c0.5-0.5,1.1-1.3,1.8-2.2
		c0.5-0.8,0.8-1.3,0.6-1.6c0.5-4,2.7-6.7,4.2-10.6l3.4-5.6c0-0.5,0.2-0.6,0.6-1.1c1.1-2.4,2.2-4.6,3.7-6.7c0.8-1.4,0.5-2.1,1.8-3.8
		c0-0.2,0.5-0.5,1.6-1.3c0.3-0.2,1-1.1,1.9-2.6c0.8-1.4,2.1-3.7,3.4-5c0.6-0.6,1.3-0.6,1.9-1.3c2.4-2.4,4.8-4,7.5-4.8
		c4.6-1.4,8.3-0.5,10.7,2.9s2.9,6.1,1.1,8.2l-2.1,3.7c0,0.2,0.2,0.5,0.5,0.8c0,0,0.5,0.2,0.6-0.3c1.3-1.8,2.2-3.7,3.7-5.6l0.2-0.2
		v0.2c-1.4,0.8-2.4,1.3-3,1.4c1.9-3,3.5-6.1,5.9-9.1c0.8-1.1,1.6-1.1,2.4,0c0.8,1.3,2.1,2.9,3.2,4.3c1,1.3,1,2.6,0.2,3.7
		c-0.2,0.5-0.5,1-1,1.4c-3.8,5.1-5.1,10.4-9.1,14.7c-2.6,6.2-5.3,13.3-9,18.9c-1.4-0.8-3.2-1-5.4-0.8c-2.1,0.2-2.7-0.5-1.9-2.1
		c0,0,0-0.3,0-1.1l2.4-5.8c0.8-1.4,1.3-2.4,1.3-2.6l1.6-2.7c8.2-12.5,9.4-34.1-10.4-7.4c-4.5,5.9-7.4,12.8-10.4,19.2
		c-1.8,3.7-4.2,9.9-7,18.4c-2.9,8.5-4.5,14.6-5,18.2c-0.8,1.8-1.3,3.4-1.3,4.8l-0.3,0.2c-0.3-0.2-0.5-0.2-0.6,0.3
		c0,0.5-0.2,0.6-0.3,0.8c0,0.3,0.2,0.6,0.3,1c0.2,0.2,0,0.3-0.3,0.5c-0.3-0.2-0.5-0.2-0.6,0.2c-0.8,1.4-2.1,5.1-2.1,6.4
		c0,0.5,0,0.5,0,0.5s0,0.2,0,0.6h0.2c-0.5,0.5-1,1-1.1,1.6c0,0.5-0.2,1.1-0.6,1.9c-0.5,0.8-0.5,1.6-0.2,2.4c0,0.2,0.2,0.3,0.3,0.3
		c0.3,0.2,0.5,0.5,0.5,1c-0.2,0.8-0.3,0.6-0.3,1.1c0.8,0,1.3,0,1.4-0.2c0.8,0,1.8-0.8,2.6-0.8L1025.8,258.8z M1017,259.2
		c-0.3,0.5-0.3,0.8,0,1c0-0.2,0.2-0.6,0.3-1.4C1017.2,258.8,1017,259.2,1017,259.2z M1018.8,258.2h-0.2c0,0.5,0.2,0.3,0.2,0.3
		l0.2-0.3H1018.8z M1022.8,222.9l-0.3-0.3c0,0.5-0.2,0.6-0.2,0.6c0,0.2,0.2,0.3,0.2,0.3L1022.8,222.9z M1022.5,239.6l0.2,0.2
		c0.2-0.2,0.2-0.2,0.2-0.3l-0.3-0.2C1022.5,239.5,1022.5,239.6,1022.5,239.6z M1023.8,235.6c0,0,0-0.3,0-0.5v-0.5
		c-0.2,0.8-0.6,1.1-0.6,1.8c0,0.2,0.2,0.2,0.6,0.3c0-0.5,0-0.6,0.2-0.8C1023.9,235.8,1023.9,235.6,1023.8,235.6z M1025.7,215.5
		l0.2-0.3c0-0.2-0.2-0.5-0.3-0.6c-0.3-0.2-0.6,0-0.8,0.2c-1,1.1-1.3,2.2-1,3.4c-0.2,0.5-0.5,0.6-0.5,1.1c0,0,0.2,0.3,0.3,0.3
		c0.2,0,0.3-0.2,0.3-0.3c0-0.5-0.2-0.6-0.2-1.4c0.6-0.2,1.3-0.6,1.8-1.4C1025.5,216.1,1025.7,216,1025.7,215.5z M1026.8,210.9
		c-0.5,0-0.3,0.2-0.3,0.2c0.2,0.2,0.3,0.2,0.5,0.2V211L1026.8,210.9z M1028.6,205.9l-0.2-0.2h-0.2c0,0.2,0,0.3,0,0.3
		C1028.4,206.1,1028.4,206.1,1028.6,205.9z M1036.5,184.1l1,0.5c1.9-2.1,3.4-4.5,4.5-7c0-0.5,0.2-1,0.6-1.1c1-1,1.4-1.8,1.3-2.4
		c0-0.5,0.2-0.6,0.3-0.6c0.5,0,1-0.5,1.6-1.6c1.3-1.8,1.9-3,2.1-3.5c0.2-0.5,0.2-0.8,0-1c-0.5,0-0.8,0.2-1,0.5l-1.8,2.6
		c-1.6,2.4-2.7,4.3-3.5,5.9c-0.5,1.4-1.1,2.4-1.8,3.2c-0.6,1.1-1.9,1.6-2.1,2.2L1036.5,184.1z M1049,165.6c-0.2,0.2-0.2,0.5-0.2,1
		h0.2c0.5,0.2,0.6,0,0.6-0.5c0.3-0.3,0.6-0.8,0.8-1.6c0.2-0.2,0.3-0.3,0.3-0.3c-0.2,0.2-0.3,0.3-0.3,0.3
		C1050.6,164.5,1050.1,164.8,1049,165.6z M1049.2,169.8c0-0.2,0.2-0.3,0.3-0.3c0.3-0.2,0.5-0.3,0.5-0.3s-0.2,0.2-0.5,0.3
		C1049.2,169.4,1049,169.6,1049.2,169.8z M1050.8,168v0.2V168z M1051.9,167c0.2-0.2,0.5-0.3,0.8-0.3c-0.3-0.3-0.5-0.5-0.5-0.5
		s-0.2,0.2-0.6,0.5C1051.7,166.9,1051.9,167,1051.9,167z M1055.3,164.2l0.3-0.5c0.2-0.2,0.3-0.3,0.3-0.3l-0.3,0.3
		C1055.6,163.7,1055.1,163.5,1055.3,164.2z M1072.7,173.1c-0.8,0-1.3,0-1.3,0.2c-1.8,1.9-4.3,3.2-5,5.8c-0.6,1.4-1.3,2.7-1.8,4.2
		c-0.6,1.3-2.1,2.2-1.6,3.7c2.1,0,2.1-1.6,3.2-2.9c1.8-2.4,2.7-3.8,2.9-4.6c0.3-1.4,1.4-2.9,3.5-4.3c-0.5,0.2-0.2-0.2,0.8-1.1
		C1073.2,173.4,1072.9,173.1,1072.7,173.1z"/>
	<path class="st5" d="M1070.9,237.4c-2.7,4.5-5.3,7.8-7.7,10.1l-2.2,2.4c-1,0.5-1.6,0.8-2.1,0.8c-2.7,0.3-4.5-0.6-5.3-2.9
		c-1.1-3.2-1.3-6.4-0.5-9.4c1.1-3,1.8-6.1,3.5-9.1l1-2.6c2.6-7.5,6.7-15,9.8-20.6c0.3-0.8,0.8-1.1,1.4-0.6c1,1.1,2.2,1.8,3.7,1.9
		c1.6,0.5,2.1,1.8,1.6,3.5c0.2-0.5,0-0.2-0.5,1.3c-2.4,4.3-4.3,8.3-5.9,12c-2.1,3.8-4.2,8.3-6.2,13.4c-1.3,2.2-2.1,4.8-2.4,7.5
		c-0.3,0.8-0.3,1.4,0,2.1c0,0.6,0.2,0.8,0.6,0.3c2.1-1.1,3.7-2.4,4.8-4.2c1-1.1,2.9-4,5.6-8.5c2.9-4.5,4.8-7.5,5.6-9
		c0,0,2.1-0.6,1.6,0.6C1075.9,229.2,1073.7,232.9,1070.9,237.4z M1055.4,234.4v0.3c0.2-0.2,0.3-0.3,0.3-0.3c0-0.2,0-0.3-0.2-0.5
		c0.2,0,0.3,0,0.3,0s0-0.3,0-0.5c0,0.2-0.2,0.5-0.2,0.5C1055.6,234,1055.4,234.2,1055.4,234.4z M1056.7,237.1l-0.2,0.2v0.3
		C1056.5,237.2,1056.5,237.1,1056.7,237.1c0.6-0.8,1-1.6,1-2.7c0.3-0.2,0.5-0.6,0.5-1.4c1.6-1.6,2.6-3.7,2.7-6.2
		c0.5,0,1-0.6,1.4-2.1c1.1-1.9,1.9-4.5,3-6.6l1.6-3.5c0.2-0.2,0-0.3-0.2-0.6l-0.2,0.2c-0.5,0.5-0.8,1-1.3,1.8c-1.4,3-2.7,5.9-3.8,9
		c-0.3,0.8-0.5,1.4-0.5,2.1c-0.6,0.5-1.6,1.9-2.7,4.6c-0.2,0.2-0.2,0.6-0.2,1.4c-0.3,0.2-0.5,0.6-0.5,1.4
		C1056.9,235,1056.5,236,1056.7,237.1z M1058,229.1c-0.8,0.2-1,0.6-0.6,1.4c-0.3,0.2-0.5,0.5-0.5,1.3c-0.3,0-0.3,0.2-0.2,0.3
		c0,0,0.2-0.2,0.2-0.3c0.2-0.2,0.3-0.6,0.3-1.4c0.5-0.2,0.8-0.5,0.6-1.3c0.3-0.2,0.5-0.8,0.5-1.6c0.5,0,0.6-0.2,0.2-0.3
		c0,0.2,0,0.5-0.2,0.6C1057.8,228,1057.8,228.4,1058,229.1z M1060.1,224.3l0.2-0.2c0-0.8,0.2-1.1,0.5-1.3c0-0.5,0.2-0.8,0.6-1.4
		c0,0,0.2-0.3-0.3-0.2c-0.2,0.8-0.5,1-0.5,1.6c-0.2,0.5-0.5,0.8-0.5,1.3V224.3z M1062.8,217.7c0.5-0.2,0.6-0.6,0.5-1.3
		c0.5-0.2,1-0.5,1.1-1.3c0,0-0.2,0-0.2-0.5c0,0.2-0.2,0.3-0.2,0.3l-0.6,1.4l-0.5,1.6c-0.2,0.5-0.6,1.1-0.6,1.3l-0.2,0.2v0.2
		c0-0.2,0-0.3,0.2-0.3C1062.6,219.2,1062.8,218.7,1062.8,217.7z M1063.7,224.3c0,0.2,0.2,0.5,0.2,0.5s0.2-0.2,0.2-0.3
		c0,0,0-0.2,0-0.8h0.2l0.2-0.2c0,0-0.2,0.2-0.3,0.3C1064.1,224.3,1063.7,224.3,1063.7,224.3z M1068.1,211.8c0,0,0-0.3,0.2-0.3
		c0,0,0,0,0.2,0c0-0.2,0.2-0.3,0.3-0.3v0.2c-0.5,0-0.5,0-0.5,0C1068.2,211.5,1068.2,211.7,1068.1,211.8z M1075.3,205.7
		c-0.2,0.3-1.3,0-3.2-1c-1.9-1-2.7-1.8-2.6-2.2c0.5-1.8,0.6-2.7,0.8-2.9c0.2-0.2,0.5-1.3,0.8-3c1.3-1.6,2.7-1.6,4.5-0.2
		s2.9,2.7,3.7,3.5c0.8-1.1,0.8-1-0.3,0.3C1078.3,202.7,1075.9,203.7,1075.3,205.7z"/>
	<path class="st5" d="M1114,237.9c-3.7,5.6-6.1,9-7,10.2c-0.6,1-1.8,2.2-3.2,3.8c-1.4,1.3-3,1.3-4.5,0c-2.9-2.1-4.5-4.3-4.6-6.9
		c-0.3-2.1,0-4.8,1-8c2.1-7,3-12.5,6.7-19.5c2.7-5,3.8-7.5,3.4-7.7c-1.1,0.2-2.2,1.1-3.4,2.6c-2.6,3.4-5.1,6.2-7.7,9.4
		c-4.5,5.8-8.8,11.8-12.5,18.2c-1.1,2.1-2.2,3.7-3.7,5l-1.9,2.7c-0.6,0.6-1.1,1.6-1.6,2.4c-1.1,1.6-2.6,1.8-4.3,0.6
		c-2.9-1.4-3.5-3.8-2.1-7.4c1.9-3.7,3.8-7.7,5.1-11.7c0.5-1.3,1.1-2.2,1.3-3.5c4.3-8.2,7.7-16.5,11.4-25.3c0.5-1.8,1.6-2.4,3.2-1.6
		l4.2,2.6c1.6,1.1,2.1,2.7,1.3,4.6c-2.4,4.6-5,9.6-7,13.9c-1.8,3.8-3.7,7.2-5,10.6c0,0,0,0.3,0,1c0,0,0.3,0,0.5-0.5
		c0.2-0.5,0.8-0.6,1.3-1.4c3.7-5.8,8.3-11.4,13.3-17.1c1.8-2.1,2.1-3.4,4.2-5.9c1.8-2.1,3.8-4.8,5.8-6.9c0.8-0.8,1.3-1,1.6-0.6
		c1.4,1.1,2.9,1,4.3,1.4c0.6,0.6,3.2,2.9,3.2,3.5c0,4.6-3.7,9.9-5.8,14.4c-0.6,1.1-1.4,2.7-2.4,5c-0.2,0-0.2-0.2-0.2-0.2
		c-0.5,0-0.5,0-0.5,0c-0.2,0.2-0.3,0.5-0.3,0.8c0,0.2,0.2,0.5,0.3,0.5l-2.2,5.9c-0.3-0.5-0.5-0.6-0.6-0.6c-0.5,0-0.6,0.3-0.6,1
		c0,0.2,0.3,0.5,0.8,1l0.2-0.6c-0.2,1.1-0.5,1.9-0.6,2.6l-0.5-0.2c0,0,0-0.2,0-0.6l-0.2-0.2c0,0.2,0,0.3,0,0.3
		c0,0.2,0.2,0.3,0.3,0.3v1.3l-0.2,0.2v0.3l0.2-0.3c-1.8,1.1-2.4,2.7-1.9,4.6c-0.2,0.2-0.8,0.3-0.8,0.3l-2.6,4.5
		c-0.2,0.2-0.2,0.3-0.2,0.5c0,0.5,0.2,0.6,0.2,0.6c0.5,0.3,0.6,0.3,0.6,0c1.4-1.8,2.2-3.8,2.7-6.1c0.3-0.3,0.8-0.8,1.3-1.6l-0.3,1.1
		c-0.6,2.7-0.8,4.5-0.6,5.3c2.1,0,3.4-1.9,4.8-3.4c0.5-0.6,2.6-3.4,6.1-8.3s5.6-7.8,6.1-8.3c0.6-1.1,1.9-0.8,1.3,0.6
		C1120.2,228.6,1117.8,232.3,1114,237.9z M1078,239.3c-0.3,0-0.5,0-0.6,0.2c0,0.5-0.2,0.8-0.2,1c0,0.2,0.2,0.5,0.2,0.5
		c0.2,0,0.3-0.2,0.6-0.3c0.2-0.2,0.2-0.3,0.2-0.8C1078.1,239.6,1078.1,239.5,1078,239.3z M1079.9,226.2l-0.2,0.3
		c-0.2,0.5-0.3,0.6-0.3,0.8c0,0,0.2,0.5,0.3,0.5c0,0,0.2,0.2,0.2-0.3c0.2-0.2,0.3-0.5,0.3-0.6C1080,226.8,1079.9,226.7,1079.9,226.2
		z M1082,220.1c0.2,0.5,0.5,0.8,1,0.8s0.6-0.3,0.5-1c0,0.3-0.2,0.2-0.5-0.6C1082.3,219.8,1082,220.1,1082,220.1z M1083.4,216
		c1.8-0.8,2.4-2.4,2.1-4.5c0,0,0.5-0.3,0.6-0.5l2.6-4.5c0.2-0.2,0.3-0.3,0.3-0.5c0,0-0.3-0.2-0.3-0.6c-0.2,0-0.5,0-0.5,0
		c-1.4,1.9-2.4,4-2.7,6.1c-1.3,1.3-1.9,2.9-1.9,4.6c-0.6,0.5-0.6,1,0,1.3c0,0.2,0,0.6,0,0.6l0.2,0.2c0,0,0.2,0,0.2-0.5
		c-0.2,0-0.5-0.2-0.5-0.3V216z M1110.3,214.1c0,0,0.3-0.2,0.5-0.3c0,0,0.3-0.3,0.3-1c0,0-0.3-0.3-0.3-0.5c-0.2,0.2-0.5,0.3-0.5,0.3
		c-0.2,0.2-0.2,0.3-0.2,0.8C1110.1,213.7,1110.1,213.9,1110.3,214.1z"/>
	<path class="st5" d="M1154.7,203.8c0.3,0,0.6,0.2,1,0.3c0.8,1.1,1.1,2.4,1.1,3.5c0.2,4-0.5,7.5-1.8,10.6c-1.1,3-2.4,5.4-3.7,8
		c-1.4,3.4-3.7,6.2-6.4,9c-1.4,1.4-3.2,2.7-5,3.8c-1.8,1.1-3.4,1.4-5.1,0.8l0.2,0.5c-0.2,0.2-0.2,0.3-0.2,0.6
		c0.5,4.8,1.4,9.6,3,14.2c0.3,1.8,1.8,4.2,4.3,7.4c0,0.2,1,0.5,2.7,0.8c0.6,0,1,0.3,1,1c0,0,0,0.6,0,1.8c-0.5,2.6-1.6,3-3.4,1.6
		c-2.6-1.8-4.3-3.4-5.4-5c-4.5-4.8-6.9-10.6-7.4-17.3c-0.5-1.8-0.5-3.5-0.5-5.6c0-0.5-0.3-1-1.1-1.8c-0.3-0.2-0.6-0.2-0.8,0
		c-0.3,0.2-0.8,0.8-1.3,1.6l-6.9,10.7c-0.8,1.3-1.6,1.6-2.7,1c-1.4-0.5-2.4-1.3-2.7-2.4c-0.8-1.1-1.1-1.6-1-1.4
		c-0.6-0.8-0.8-2.2-0.5-4.2c1.1-1.8,1.8-3.5,2.1-5.3l0.2,0.2c0,0,0.2-0.3,0.2-0.5c0.8-0.2,1-0.6,0.6-1.6c0-0.2,0-0.2-0.2-0.3
		c1.4-4,2.6-6.9,3.2-9l7.2-17.3c3-6.6,6.1-13.6,9.4-20.2c2.1-5,4.6-9.8,7.2-14.7c0.2-0.5,0.6-0.6,1.3-0.5c2.1,0.5,3.8,2.1,5.6,4.8
		c0.5,0.8,0.6,1.4,0.5,1.9c-0.6,2.1-1,3.4-1.1,3.5l-4,7.5c-5.3,9.6-9.4,19.5-13.4,29.1c-1.8,3.4-2.9,5.9-3.7,7.7
		c-0.8,1.9-1.1,3.4-0.8,4.2c-0.2-0.2-0.2-0.2-0.2-0.2c1.8-2.4,3.4-4.8,5.3-7.2c5-6.6,10.9-15.2,16.8-21.6c1.4-1.3,3-1.4,5-0.5
		C1153.8,204,1154.3,204,1154.7,203.8z M1114.8,237.1c0,0.2,0,0.6,0,0.6c0,0.2-0.2,0.2-0.2,0.2L1114.8,237.1z M1118.8,234v0.2h0.2
		L1118.8,234z M1120.2,231.6c0.2-0.2,0-0.3-0.2-0.6l-0.5,0.5v0.6c0,0.5,0,0.8-0.2,0.6c0,0,0.2-0.5,0.2-0.6
		C1120,231.8,1120.2,231.6,1120.2,231.6z M1130.6,202.4c-0.3,0.2-0.5,0.6-0.5,1.4c0,0.2-0.2,0.2-0.3,0.2c-1.3,1.6-2.2,3.5-3,5.9
		c0,0.5,0.2,0.8,0.2,1.3c-0.8,0.2-1.3,0.8-1.4,1.9c-1.8,4.3-3.5,8.3-5.4,12c0,0.5,0.2,0.8,0.2,0.8c0.3,0,0.5,0,0.6-0.2
		c0.8-1.3,1.1-1.8,1.1-1.4c1.4-3.8,3.2-7.5,4.6-11.2c0-0.6,0.2-1.1,0.3-1.9c2.1-1.9,3.2-4,3.4-6.4c0-0.2-0.2-0.5-0.2-1
		C1130.7,203.7,1130.9,203.2,1130.6,202.4c1.1-0.5,1.8-1.3,1.6-2.4C1131.1,200.3,1130.6,201.1,1130.6,202.4z M1121.5,228.4h-0.2v0.2
		L1121.5,228.4z M1121.8,227l0.2-0.2h-0.2V227z M1123.1,223.5l-0.2,0.2l0.2,0.2V223.5z M1124.2,220.8l0.2-0.2l-0.2-0.2V220.8z
		 M1125,219.2c-0.2,0,0-0.2,0.3-0.6c0,0,0.2-0.3,0.2-0.5c-0.2-0.2-0.2,0-0.2,0.5C1125.1,218.7,1125,219.2,1125,219.2z M1126.1,216.5
		l0.2,0.3v-0.3H1126.1z M1127.4,214.1l0.2,0.3v-0.5L1127.4,214.1z M1129.1,210.4c0,0,0.8,0.2,0.2-0.5
		C1129.3,210.1,1129.1,210.4,1129.1,210.4c-0.5,0.3-0.6,1-0.6,1.8c0,0.5-0.2,0.6-0.3,0.5c0,0,0.3-0.3,0.3-0.5
		C1129,212.1,1129.1,211.5,1129.1,210.4z M1129.8,234.4c-0.5-0.8-0.2-1.1,0.8-1.1c1.8,0,2.6,0,2.6,0c1.4,0,2.1,0,2.1,0.2
		c0.8-1.3,2.7-0.6,2.9-2.4c0.3-0.5,0.6-0.6,0.8-0.8c3.8-4,5.3-5.4,7.4-10.1c1.4-2.7,3.4-5.9,4-9.8c0.5-1.1,0.6-2.4,1.1-3.8
		c0-0.2,0-0.2-0.2-0.3l-0.2-0.2c-1,0.8-1.6,1.3-2.1,1.4l-0.5,0.8l-4.5,5.3c-2.4,3-6.1,7.5-8.2,10.6c-2.4,3.4-4.2,6.7-6.6,9.9
		c0,0.2,0.2,0.6,0.2,0.6s0.3,0,0.5,0C1129.9,234.5,1129.9,234.5,1129.8,234.4z M1131.4,206.1c-0.2,0.2-0.3,0.5-0.3,0.5
		c-0.5,0.5-0.8,0.8-0.8,0.8c-0.2,0.2-0.5,0.5-0.5,0.5c0,0.5,0.2,0.6,0.2,0.6c0.2,0,0.3-0.2,0.3-0.3c0,0,0-0.3,0-0.8
		c0,0,0.3-0.3,0.8-0.8C1131.2,206.4,1131.4,206.2,1131.4,206.1z M1132.2,204.6l-0.3-0.2v0.2H1132.2z M1132.7,203v-0.2h-0.2
		L1132.7,203z M1133.5,237.6c2.9-1.3,4.6-2.7,5.4-4.3c1.4-0.6,2.6-1.4,3.4-2.2l0.2-0.3c-0.5,0-0.6,0-0.6-0.2l-2.2,1.1
		c-0.5,0.2-0.6,0.8-0.6,1.6c-0.6,0-1.3,0.3-2.1,1c-1.8,1.1-3,1.9-4,2.4L1133.5,237.6z M1133.1,201.3v0.2h0.3L1133.1,201.3z
		 M1133.5,234.2l-0.3,0.2l0.3,0.2V234.2z M1134.1,199.3c0,0-0.8,0.3-0.2,0.5c0,0,0.2-0.5,0.2-0.6c0.5,0,0.8-0.5,0.8-1.4
		c0.3-0.2,0.5-0.6,0.5-1.6c0.5-0.2,0.8-0.6,0.6-1.8c1-0.2,1.4-1,1.3-2.4c0.5,0,0.6-0.5,0.6-1.4c0.5-0.2,0.6-0.6,0.6-1.6
		c0.2-0.2,0.3-0.5,0.3-0.6c-0.2,0.5-0.3,0.6-0.3,0.6c-0.6,0.2-0.8,0.8-0.6,1.6c-0.8,0.3-1,0.8-0.5,1.4c-1.3,0.6-1.8,1.4-1.4,2.4
		c-0.5,0.3-0.6,1-0.6,1.8c-0.6,0.3-0.8,0.8-0.5,1.6C1134.4,197.9,1134.1,198.4,1134.1,199.3z M1139.5,187l0.2-0.2h-0.2V187z
		 M1140,185.3l0.2,0.2v-0.2H1140z M1141.3,181.9v0.2h0.2L1141.3,181.9z M1147.9,224.4c1.6-2.1,2.4-4,2.2-6.1c0.5-1,0.8-1.3,0.8-1.1
		c1-2.4,1.9-5.1,2.9-8.2c0,0-0.2-0.5-0.2-0.6c-0.3,0.3-0.5,0.5-0.5,0.3c-0.8,2.1-1.8,4.5-2.4,6.9c-0.5,1.1-0.8,2.1-0.6,2.7
		c-1,1-1.4,1.3-1.3,1.1L1147.9,224.4c-0.5,0.2-0.6,0.6-0.6,1.4c-0.5,0.2-0.6,0.5-0.8,0.8c-1.3,0.8-2.1,1.6-2.2,2.6
		c0,0.3,0.2,0.5,0.3,0.5c0,0.5,0.2,0.5,0.5,0c0.8-1,1.3-1.9,1.4-3c0.2-0.3,0.3-0.6,0.8-0.8S1147.9,225.2,1147.9,224.4z"/>
	<path class="st5" d="M1160,256.1c-3.7-0.6-6.7-1.1-10.4-1.9c-2.4-0.5-3.2-2.6-5.1-4c0,0,0-0.5,0-1.3c0.5-0.8,0.8-1.3,1-2.1
		l7.7-13.8c1.3-2.6,2.2-5.1,3.7-7.7c0.8-2.6,2.2-5,3.4-7.4c1.8-3.5,2.9-6.1,3.4-7.8c0.8-3.7,2.9-7.5,6.2-11.8c0.3-0.5,1-1.1,2.1-1.8
		c1.8-0.6,4.3,1,6.1,1.4c0.2,0,2.9,1.9,2.7,2.7c-1.4,2.4-6.4,7-7.7,9.1c-2.6,4.8-2.9,8.8-1,11.8c1.1,1.9,2.1,3.8,3.4,5.6l2.4,4.3
		c2.4,5,1.4,10.2-2.6,16c-1.4,2.1-3.2,4-5.6,5.9c-1.3,0.6-2.4,1.3-3,1.8C1164.2,255.5,1161.8,256.3,1160,256.1z M1156.2,231.6
		c-0.2-0.3-0.3-0.5-0.3-0.5c0,0.5,0,0.5,0,0.5c0,0.2,0.3,0.5,0.5,0.5c-0.3,1-0.5,1.4-0.5,1.4c-1.8,1.6-3.2,3.8-4.3,6.7
		c-0.6,2.1-1.8,3.8-2.6,5.9c-0.6,1.9,0.3,4,1.8,3.2c1.8-0.5,2.7-0.2,4.2-0.2c0.8,0,2.1,0.2,3.4,0c5.6-0.2,9.6-3.4,12.3-9.9
		c1.1-2.7,1.1-5,0.3-6.9c-0.8-1.4-2.1-3.5-3.5-6.2c-1.4-1.9-2.4-3.7-3.7-5.6c-0.2-0.5-0.5-0.6-0.6-0.6l-0.6,0.8
		c-1.8,3.8-3.8,7.7-6.2,11.5V231.6z M1173.1,243.5c1.1-2.7,1.1-5.1,0-7c0,0.2-0.2,0.2-0.6-0.3c-0.2,0.2-0.2,0.5-0.2,0.6
		c-0.5,2.7-0.6,5.1-1.1,7.5c-1.8,1.4-2.7,2.7-3,3.8c-0.2,0.2,0,0.3,0.2,0.8c0,0,0.2,0,0.3-0.2c1.8-1.8,2.6-3.2,2.4-4.5
		C1172.2,244.3,1173,244,1173.1,243.5z"/>
</g>
</svg>
