<svg xmlns="http://www.w3.org/2000/svg" viewBox="0 0 2175.8 1067.9"><style>.st2{fill:#f0f9fa}.st3{fill:#30a5cc}.st4{fill:#fff}.st5{fill:#b6e4f5}.st7{fill:#215064}</style><g id="Layer_2"><path fill="#7bcef4" d="M-4.4 0h2180.3v988H-4.4z" id="sky"/><g id="mountain_bg_1_"><g id="left_mountain_1_"><path id="mount_left_5_" class="st2" d="M221.6 654.5l51-41.2 18.3 5 18.3-21.1s30-12 32.6-17.2c2.6-5.2 26.7-13.3 32.6-25.5 5.9-12.2 48.9-15.7 63.9-27.9s48.9-36.1 56.1-49.4c7.2-13.3 56.8 10.5 66.5 15.7s22.2 19.7 40.4 16.2c18.3-3.5 36.5-2.9 56.1 18.6s33.3 36.6 47 42.9c13.7 6.4 40.4 20.4 47 26.5s36.5 21.1 45.7 23.4c9.1 2.3 129.3 122.7 144.3 125.6 15 2.9 1.3 47 0 52.2-1.3 5.2.9 25.5 7 37.1 6.1 11.6 10.6 28.4 9.4 36-6 38.7-129.5-71.8-146.4-68.9-17 2.9-647.4-23.8-647.4-23.8s12.1-43.5 27.3-67.6c6.6-10.4 11.9-14.3 14.5-22.6 6.2-17 15.8-34 15.8-34z"/><path id="mount_left_4_" class="st3" d="M924.4 884.3c17-2.9 30-5.8 33.3-12.8s-3.3-24.4-9.4-36c-6.1-11.6-8.3-31.9-7-37.1 1.3-5.2 15-49.3 0-52.2-15-2.9-76.8-114.8-144.3-125.6-9.3-1.5-39.1-17.4-45.7-23.4s-33.3-20.1-47-26.5c-13.7-6.4-27.4-21.5-47-42.9-19.6-21.5-37.8-22.1-56.1-18.6-18.3 3.5-30.7-11-40.4-16.2s-59.4-29-66.5-15.7c0 0 16.7 7.7 17.1 14.9.4 7.2 9.9 22.4 15.4 25.4 5.5 2.9.2 32.5 6.1 33.8 5.9 1.3 16.9 10.7 23.8 7.8 6.9-2.9 10.2 4.9 15.4 7.2 5.1 2.3 12.8 18.9 18.3 22.8 5.5 3.9 22.7 26.6 21.9 33.3-.7 6.7 1.8 37.3 6.6 38.3s25.6 21.1 30 23.4c4.4 2.3 11.3 20.5 16.8 24.1 5.5 3.6 7.3 20.5 18.3 14.3 11-6.2 12.4 2 17.6 4.6 5.1 2.6 2.6 6.8 13.2 8.5s12.8 3.3 17.6 6.5c4.8 3.3-.7 4.9.7 9.1s5.9 11.2 7.9 11.4c2 0 183.4 121.6 183.4 121.6z"/><path id="mount_left_3_" class="st3" d="M941.4 746.2c-15-2.9-79.2-104.7-144.3-125.6-8.3-2.7-39.1-17.4-45.7-23.4"/></g><path id="end_mount_3_" class="st2" d="M1078 795.7c3.3.1 17.2-38.7 17.2-38.7l35.2-21.8 16.2-37.8 34.5-31.1 41.3-27.1s15.2-32.9 15.9-33.6c2.2-2.1 13.1-14.4 16.8-17.1s29.9-13 35.3-16c0 0 29.1 14.2 53.2 15.4 24.1 1.3 51.8 3.2 67.3-6.5s74.1-34.3 85.5-31c11.4 3.2 84.1 85.3 112.8 82.8 28.7-2.6 41.4 45.9 58.2 50.4 16.8 4.5 27.7 51.1 42.7 57.9 15 6.8 36.4 30 65.5 37.8 29.1 7.8 75.9 33.6 92.8 33.6s63.2-33 77.3-40.1c14.1-7.1 48.7-31.7 60.9-23.3 12.3 8.4 29.6 14.9 51.8 22 22.3 7.1 25 17.5 35.5 28.4 10.5 11 0 24 0 24s-613.9 112.7-1005 41"/><path class="st3" d="M1496.4 550.4c-4.3-.3 2.9 55 13.9 54.2 11.1-.8 7.8 30.2 17.6 37.2 9.8 6.9 22.8 44.4 22.8 44.4s14.3 31 19.5 37c5.2 6 1.6 7.8 0 18.2-1.6 10.4-3.3 22.9-2 29 1.3 6-12 9.4-12.4 18.8-.3 9.4 5.5 25.1 6.5 28.4 1 3.2 3.5 14.3 10.5 21.3 7 6.9 16.4 13.2 27.2 23.2 10.8 10.1 67.9 11.3 93.2 13.3 25.3 1.9 122.7-23.7 127.5-24.1 4.8-.4 2.7-5.5 3.3-15.2s-1-12.5-5.2-18.5-8.5-10.3-7.2-17.6c1.4-7.7-7.1-13.2-7.1-13.2s-46.1-9.3-81.6-37.4c-8.7-11.9-14.4-6.1-19.5-13.5s-21.8-44.9-31.5-50c-9.8-5.1-10.3-3.7-16.2-11.7s-25-36.1-35.8-39.5c-10.8-3.4-18.6-1.4-25.9-5.3-7.1-4-93.2-78.7-97.6-79z" id="end_mount_1_"/><path id="end_mouint_2_right_1_" class="st3" d="M2004.4 748.4c-1.5 0 4.2 27.1 14.6 31.3 10.4 4.2 14.3 3.3 26.2 10.3 11.9 7 21.4 18.2 27.5 22.4s3.9 17.3 13.9 20.1 43.5 0 43.5 0l-28.8-27.2s-8.9-13.6-15.8-18.3c-6.9-4.7-16.2-15.8-47.3-22.3-25.3-11.6-32.3-16.3-33.8-16.3z"/></g><g id="snow_2_"><path id="snow_cover_1_" class="st4" d="M0 711.9s45.7-14.6 262.2-14.6c238.3 0 917.5 136.2 1372.2 136.2s546.4-25.2 546.4-25.2v259.6H0v-356z"/></g><g id="snow_shadows"><path class="st5" d="M0 965.3c172.2 0 793.9 83.9 1113.2 83.9s531.1-57.2 705.4-57.2 362.1 20.7 362.1 20.7v53.4L0 1067.9V965.3z"/><path id="snow_cover_2_" class="st5" d="M0 725.2v-13.3s45.7-14.6 262.2-14.6c238.3 0 917.5 136.2 1372.2 136.2s546.4-25.2 546.4-25.2v11.3s-402.2 57.5-598.8 57.5c-296.9 0-1065.1-177.7-1295.9-177.7-65.1 0-108.5 2-149.6 6C31.9 715.5 0 725.2 0 725.2z"/><path class="st5" d="M1078 816.9s503.9 85.4 880.1 208.7c25.7 0 10.7-.1 10.7-.1l-505.1-154.7-385.7-53.9z"/></g><path class="st4" d="M2101.8 225.9c0-.4.1-.8.1-1.2 0-8.3-6.7-15-15-15h-.8a21.84 21.84 0 0 0-20.2-13.4h-1.3c-4.1-14.2-17.1-24.5-32.6-24.5-16 0-29.5 11.1-33 26.1-8.1 2.5-14.1 9.8-14.9 18.6-1.7-.5-3.6-.8-5.4-.8-7.3 0-13.7 4.1-17 10.1h140.1zM1612 383.3c9.8-14.7 35.2-15.5 50.7-12.3 4.1-23.7 36.8-34.3 39.2-4.1 8.2-4.1 18.8-4.9 22.1 4.9 10.6-3.3 20.3 3.7 28.4 11.1-47 0-140.4.4-140.4.4zM270.7 279.9c0-.4.1-.8.1-1.2 0-8.3-6.7-15-15-15h-.8a21.84 21.84 0 0 0-20.2-13.4h-1.3c-4.1-14.2-17.1-24.5-32.6-24.5-16 0-29.5 11.1-33 26.1-8.1 2.5-14.1 9.8-14.9 18.6-1.7-.5-3.6-.8-5.4-.8-7.3 0-13.7 4.1-17 10.1h140.1z" id="clouds"/><path class="st7" d="M1014.7 278.7c-.5.6-1 1.6-1.4 2.9-.2 1.3-.8 2.6-1.9 3.7-1 1.4-1.9 3.5-2.7 5.9-.5 1.4-1 2.7-1.8 3.5-3 3.4-4.5 9.6-5.9 13.4-.8 1.3.2.6-.6 1.4-.5.8-1.1 1.6-1.6 2.6-1.8 5-2.7 8.6-4.5 12.3-5 16-8.6 30.5-4 40.8.6 1.4.3 2.6-1 3.4-1.1.8-2.9-.2-5-2.9-3.7-5.1-5.6-11-5.9-17.9s1.9-16.2 6.9-27.8c3.4-10.7 9-20.3 13.4-30.7 1.8-4.3 3.5-7.5 5.9-11.8 1.4-1.9 2.4-4.2 3.7-6.1 0 0 .2-.2.2-.3l-.2-.2 1.3-2.9s0-.2.2-.2c1.8-3 3.2-6.1 4.6-9.1.2-.8-.5-1.6-1.3-.5-2.6 3.2-5.1 6.6-7.8 9.6h-.8.8c-.8 1.3-2.2 2.9-3.7 4.2-.2.2-.2.3-.3.3-.8 1.4-1.6 2.2-2.2 3.4-.2.5.8-.8 3.2-3.5 2.4-2.9 3.5-4.2 3.4-3.7-2.4 3.8-6.2 9.6-11.2 17.1-5 7.5-8.8 13.1-11.5 16.8-5.8 9.8-13.1 18.4-18.7 28.1-1.1 1.9-1.9 3.4-2.2 4.2-.8 3.5-2.6 4.6-5.3 3.2-1.8-.8-4.6-3.7-3.8-6.1 1.1-6.1 3.2-12.5 5.9-19.4 4.5-10.9 10.1-22.4 15-33.4l2.2-5.3c.5-.8 1.1-2.4 2.1-5.1 1.8-3.8 1.6-4.6-.6-2.6-2.1 2.1-4.8 5.1-8 9.3-3.2 4.2-6.2 8.3-9.3 12.6l-4.6 6.4c-6.4 9.6-11.7 20-17 29.7-1.9 3.8-3.4 6.7-4.2 8.6-.8 1.8-2.2 4.3-4.3 7.7-.2.5-1.8.2-5.1-1-3.4-1.1-4.3-3-3.2-5.8.6-3 2.1-5.4 2.9-8.2 0-.6.3-1.1.8-1.8.2-.5.3-1 .8-1.3 1.4-4.6 4.5-10.9 6.2-15.5 1.1-5.1 3.4-8.5 4.2-13.6 0-.2.5-1 1.6-2.7 1.1-1.8 1.6-2.7 1.6-3 0-1.8.2-2.9.5-3 .3-.2 1-1.3 1.8-3.4.8-1.9 2.4-4.3 3-6.7l.6-1.6c.6-1.3 1.4-3.4 1.6-4.6 1.9-3.7 2.4-7.2 3.2-11 .5-2.4-.8-3.2-3.7-2.2-6.2 2.6-11.4 5.4-15.7 8.8-1.1.8-1.3.8-.6-.3.8-1.1.6-1.4-.2-.6-.6.8.5.5-.3 1.9l-5 4.5c-2.2 2.1-3.8 4-4.6 5.6-.3.3-.3-.3.2-1.8.5-1.4.8-2.4.8-2.9-.2 0-1.1 4.5-1.8 5.1-7.5 9.8-13.1 20.8-17.8 29.3-.5 1.6-1.3 1-2.6-1.9-1.1-3-1.4-5.6-1-7.7.8-1.3 1.3-.5 2.1-2.6.3-.8.2-.6-.5.5s-.8 1.1-.6.2c.5-1.8 1.8-4.3 3.7-8l4.2-7.7.3-.2c-.5.2.2-.6.2-.6 1.1-1.1 2.1-2.2 2.9-3.4.5-.8-.5 1.1 0 .6.5-.6 2.6-4 3.4-4.8l.6-1.3 2.1-1.6c5.9-5.9 12.8-10.7 20.8-14.4 2.1-.8 4.6-1.6 7.4-2.4 7.2-1.4 11.8-.8 13.6 2.2s2.1 7.4.8 13.1c-1.9 7.7-5.3 15.7-8.3 23.3-4.5 9-8.5 18.4-12.5 27.2-.2.6-.3 1.3-.3 1.8 1-1.1 1.4-1.6 1.4-1.6 4-6.6 7.5-13.3 11.4-20.2 4.2-6.9 8-12.5 11.5-17.1 3.7-4.6 8.3-10.1 14.1-16 2.6-2.9 5.3-3.5 8.3-2.1 3.7 1.8 4.8 4.3 3.4 7.5-.8 2.7-1.6 4.3-2.2 5.1-.5.8-1.4 2.4-2.7 5-4.3 10.9-9.3 21.6-13.6 32.5-.2.2-.3 1-.8 2.4.5-.6 2.4-1 3-1.8l1.4-2.1c-.5.5-.6 1.3-.8 2.2l-.6.6s.2-.2.6-.2c.8-.8 1.4-1.9 2.1-2.7 1.8-2.7 3.2-5 4.5-7.7.3-.2 1.1-.8 2.4-2.1v-1c-.5.3-.6.5-.6.3-.2.5-.8 1.3-1.6 2.7 0 0-.3.2-1 .6l5.3-7.4v.2l.2-.2c.2-.2.2-.2 0-.2l1.8-2.6v.5c.3 0 .6-.2.8-.3-.5.3-.2-.3.6-1.9 1.4-1 1.9-1.3 1.6-1.1 0 0-.5-.2 0-.3-.2 0-.5 0-.6.2-.5.5-1 .8-1 1.3l-1 1.3c6.6-9 13.3-18.6 20.2-27.7 2.2-3.5 4-6.1 5.3-7.7 2.1-2.1 5.8-3.8 7.7-1.4 3.4 3 4.5 5.8 3.7 7.8-.8 2.1-2.2 5.6-4.6 10.4l-.5.2c-1.5 3.6-2.5 5.5-3.3 6.5zm-110.5 17.6s0 .3.2.3c0 0 .2.2.2-.3s0-.8.5-1.6l1.9-3c.2-.6.6-1.4.8-2.1.2-.6.8-1.1 1.6-1.6.2-.3.3-.5.3-.6 0-.3.3-.8.8-1.3l.5-.5s.3-.5.5-.6c0-.3.3-1 1-2.1.6-1.1 0-.5-1.9 1.9l-1.6 1.6c-.2.6-.6.8-.5 1-.8 1.4-1.8 2.2-2.4 3.5-.6 1.1-1.1 2.2-1.6 3.5-.2.5-.3.8-.2 1.3-.1.1-.1.6-.1.6zm25.5 20.8c-.5.2-.6.5-.6.8.1-.5.4-.8.6-.8zm3-7.6c-1.1.6-1.6 1.4-1.8 2.2.2.2.2.3.3.3 0 .5.3 0 .3 0-.1-.5 1-1.3 1.2-2.5.5-.3.6-1 .6-1.8l.2-.5-.2.5c0 .7-.6 1.2-.6 1.8zm3.2-8s-.5-.5-.5-.6v.5s-.2.3-.3.8c-.5.5-.6 1.1-.5 1.9-.2.2-.6.5-.6.5l.6.6s.2 0 .2-.5c0 0-.2-.5-.2-.6.3-.5.5-1.1.3-1.9l1-.7zm-.2 21.3c-.5 0 0 .2 0 .2 0 .2.2 0 .3-.3.1.1-.1.1-.3.1zm1-23.8c0-.3.2-.5.3-.5 0-.2 0-.3.2-.5-.2.2-.2.3-.2.3-.1.2-.3.4-.3.7zm2.1-6.1c1.1-.6 1.4-1.6 1.3-2.9l.2-.3v.3c-1 .6-1.4 1.6-1.3 2.9-.5.5-.6 1.1-.8 1.8-.3.2-.5.5-.6.8 0 0 .2.5.6.5l.2-.3c-.2-.2-.2-.8-.2-1 .4-.2.6-.8.6-1.8zm5.1-11.4s.2-.2.2-.3c-.1.2-.1.3-.2.3-.2.8-.6 1.3-.5 1.9-.2.2-.2.2-.2.3v-.3c.4-.3.5-.9.7-1.9zm3.5 8.8v-.5l-.2.2c.2 0 .2.2.2.3zm.2-.6c0-.2 0-.2.2-.3h-.3v.3h.1zm2-6.6h.2c-.6 1.4-1.3 2.6-1.8 4 0 0-.2.6-.5 1.8.8-.5 1.4-.3 1.9-1 1.3-4 3-8.3 4.8-12.3.2-.3.2-.5 0-.6 0-.2.3-.8.5-1 .5-1 1-2.4 1.3-4.2.2-.8.2-1.3.2-1.4-.5.5-.6.6-.6.8-.5.8-.8 1.9-1 3.4-.3 1-.5 1.3-.5 1.1-.2.2-.3.5-.3 1l-.6.5-3.6 7.9zm7.6-16.6s.2-.5.3-1.4c-.5.5-.8.8-1 .8-.2.2-.3.8-.5 1.9l1.2-1.3zm.3 54.7s.3-.5.8-.6c0-.2-.2-.3-.3-.5 0 .2-.2.3-.2.3-.5.5-.3.8-.3 1-.5.2-.6.8-.8 1.6l-.6.8s0 .5.2.5l.3-.3c0-.2.2-.3.2-1 0-.5.5-1.2.7-1.8zm3.2-8.3c-.8 1.4-1.6 3.8-2.7 6.9v.3s.6-.2.8-.3c.6-2.6 2.2-4.8 2.4-7.2l.5-.5c-.2.2-.2.3-.2.5-.5.1-.8.1-.8.3zm3.3-7.7c-1.4 1.6-1.8 3-1.3 4.2-.5.5-.6 1-.6 1.1 0 .3-.2.6-.6 1.1v.3c-.2-.2-.2-.2 0-.3.2-.2.5-.6.6-1.1 0-.2.2-.6.6-1.1 1.2-1.5 1.5-2.9 1.3-4.2-.2.2 0-.2.2-1.3.2 0 .2-.2 0-.5.2.2.2.5.2.5l-.4 1.3zm1.6 10.9l-.2.2h.3l-.1-.2zm11.1-12.8s0 .3-.2.8c-.2.2-.5.6-.8 1.4l1-2.2zm3.7 50.9c0 .5.2.6.8 1.3 0 0 0 .2.2.2s.3-.2.5-.5c-.2-1.1-.3-2.2-.3-3.4.2-1.4.2-3.7.3-6.7.2-1.8.2-3.4.2-4.6.2-1.4.5-2.6.8-3.4.2-.8.2-1.3.2-1.6 0-.6.3-1.6 1-2.7 0 0 .2-.5.5-1.4.5-1.4.6-1.9.5-1.4-.2-.8-.2-2.2.2-4.5.3-2.4-.5-.6-2.2 5-.6 1.3-1.1 2.7-1.4 4.5-.5.8-.6 1.3-.6 1.8-.3 1.9-.6 4.5-.8 7.5-.5 2.6.2 5.1-.3 7.2.5 1.3.6 2.2.6 2.9h-.2zm9.9-67.5c0-.2.2-.5.3-1h-.3c-.2.2-.2.5-.2 1h.2zm23.5-25.6c-.8 2.1-2.6 4.3-3.8 6.4l.2.3c.5-.2.6-.3.6-.3 2.4-3 3.7-5.4 3.8-6.9 0 0 .2-.2.2-.3 0 .2 0 .2-.2.3-.7.5-1 .6-.8.5z"/><path class="st7" d="M1027.5 315.8c1.8-2.2 2.6-3.8 2.7-4.8v.3c.8-.5.8-1.3 0-2.2v.2c1.4-3 3.4-5.8 5.1-8.8l.2-.5 3.5-3.7c1.1-1.1 1.9-2.6 3.2-4 .6-.8 1.3-1 1.9-.3 2.1 1.4 3.5 2.7 4.3 3.7.5.6.6 1.4.5 2.6 0 .5-.3 1.8-.8 3.5l-1 1.6c-6.2 8.2-9.9 17.3-13 26.7-2.1 7.2-4.8 14.1-7.4 21-.6 2.6-1.9 4.6-2.7 7-1.3 3.4-3.2 6.1-5 8.8-1.8 2.6-4.5 5.1-8.2 7.5-.6.5-2.1 1.1-4.5 1.6-5 .8-9.4-.2-13.6-2.9-3.5-2.1-6.4-5.1-8.6-9-1.3-2.1-1.4-4.3-.5-6.7.2 0 .5-.5.5-.6.2.2.3.5.3.8l.5 1.9c.8 4.3 3.7 7.2 8.6 8.6 6.6 1.9 12 .3 16.3-5 2.7-3.2 5.3-8 7.7-14.2 1.9-5.1 3.5-10.7 5.4-16.3.8-3 1.9-5.6 3.2-8.6 0 0-.2-.3-.2-1-.5.5-.6.6-.6.5-2.1 3-3.4 5.1-3.8 6.2-1.1 2.7-3.5 5.4-7.2 8.2-2.7 2.1-5.1 1.8-7.4-1.3-2.1-2.7-3-5.4-3-8.5.2-5.9 1.6-11.8 4-17.9 1.9-4.5 4.5-8.5 6.6-13 1.3-2.1 2.9-4.6 2.9-7.7-.2-.8 1.1-1 1.8-.8 2.4 2.2 4.3 4 5.4 5.3.8 1 1 2.2.3 4-1.3 3-2.2 5.8-3.5 8.5-1.4 3.2-2.9 5.8-4.2 8.8-2.6 4-3.8 8.6-5.1 13.1-.2.2-.3 1.3-.5 3.7 0 .5.2.8.5.8.5.3 1 .2 1.4-.3 2.2-2.1 4.5-5 6.9-8.6 1.4-2.6 3.2-4.6 5-7.2l-.2-.2c.5.8.8.8 1.1 0l-.2.2 1.1-1.1v.1zm-31.6 54.3h-1c.5.2.8.3 1 .3.6 0 1.3 0 2.1-.2-.9-.1-1.5-.1-2.1-.1zm19.2-9.4v-.3c-.5 0-.5.2-.5.2 0 .3 0 .6-.2 1-.2.2-.5.6-1 .8-3.4 3.2-5.8 5.6-7 7 0 .2-.3.5-.5.5l.2.3c0 .2.2.2.5.2 3.4-2.2 5.6-4.6 6.7-7.2v-1c.2-.2.6-.3 1.1-1 0 0 .2-.3.7-.5zm84.7-61.1c2.1-4.6 5-9.6 7.7-14.7 2.1-4.5 5.4-8.6 7.5-13.3 3-5.8 5.6-11.5 7.5-17.8 1.4-4.8-.5-6.6-5.6-5.4-9 2.4-15 8.6-21.3 15.2-7.7 8.2-10.6 17.6-14.2 27.2-1.1 2.6-2.7 3.7-4.6 3.5-3-.2-4.2-1.6-3.4-4.5 2.4-6.4 4-13.1 7.8-18.9 5.3-9.1 12.6-17.6 22.4-23.3 5.9-3.7 11.8-5.3 17.4-4.6 7.5 1.3 12.5 6.1 10.1 14.2-2.1 7.2-5.6 14.2-9 21.1-5 9.6-10.2 19-15.2 28.6-4 7.5-7.5 15-10.6 22.2-1.9 4.6-3.2 8.6-4 11.8-.2.2 0 .6.3 1.4.8-.2 1.4-.5 1.6-1 4.5-5.8 9.8-11.5 13.4-18.1 6.4-11 12.8-21.3 19.4-32.3 3.7-5.9 7.7-12.8 12.6-18.7 2.4-2.1 3.8-.3 5.6.3 3 1.8 3.8 3.5 2.6 5.4-1.1 1.4-2.2 2.7-3.7 4.2-4.3 6.9-9.9 15.8-16.6 26.9-6.7 11-9.3 20-7.5 27 .8 3.7 2.9 4.2 6.6 1.3l13.1-10.7c.8-.5 1 1 2.1.3.2-.5.5-.8 1-1.4-2.4.5-3.2.3-2.1-.8s1.9-2.1 2.1-2.9c4.5-7.2 9.8-14.7 13.4-22.5 6.6-14.1 13.8-28.1 13.8-42.9 0-5.1.3-9.8-.2-14.9 0-.5.5-1.4 1.6-2.6 1.1-1.1 2.2-1.4 3.4-1l1.1 1.6c2.9 10.7 15.5 36.1 32.1 22.5 2.6 3-.8 6.9-2.9 8.2-2.2 1.9-6.4 2.4-12.3 1.4s-10.1-4.2-12.2-9.6c-2.1 8.8-5.3 18.1-9.4 27.7l-1 2.9c-1.8 3.8-2.1 4.2-3.5 7.5-1.1 2.4-2.6 5-3.4 7.5-1.8 3.8-2.9 6.1-3.7 6.6-.6.5-2.2 2.6-4.8 6.1-5 7.5-10.2 13.9-17.8 19-13.4 9-22.4 4.6-26.1-7-.6-1.9-.5-4.3-.5-6.9-.5-.2-.6-.6-.6-1.3-.8.5-1.3 1-1.4 1.1-4.5 6.6-8.6 13-12.6 19.4-1.9 3-4.3 4-7 2.6-3-1.4-4.3-3.7-4-6.7.2-5.3 1.4-11 3.8-17.4 2.4-6.4 5-12.2 7.5-17.4.8-1.8 2.3-3.7 3.7-6.1zm-21.2-18.9c0 .5-.2.6-.2 1.1 0-.5.6-.5.8-1 1.9-3.7 4.6-6.9 4.5-11.2 1.1-1.3 2.4-2.6 3.8-3.8l-.2-.3c-1 .8-2.1 2.2-3.5 4.3-1.7 3.8-3.8 7.1-5.2 10.9zm10.8-17.5c.5-.6.8-1.1 1-1.6l1.1-1.3c.3-.3.6-.6 1-.8l1.8-2.1v-.2l-1.8 2.1c-.6.6-1 .8-1 .8-.5.8-1 1.3-1.1 1.4-.8 1.1-1.1 1.6-1 1.4v.3zm1.1 60.4l.2-.2v-.5c-.2.2-.2.4-.2.7zm2.4-4.9c0-.5-.2-.5-.2-.6h-.2c-.8.5-1.1 1.3-1 2.1 0 0 0 .2.2.2 0 0 .2 0 .2-.2l1-1.5zm2.3-6.9s.2.2.3.2v.5c0 .2.2.3.5.5 0-.2.3-.3.5-1h-1.1l-.2-.2zm1.1-56.6l-.2-.2.2.2zm4 50.7s-.2-.5-.2-.6c-.3 0-.5 0-.5.2-.3.2-.6.8-.8 1.8-.2.3-.3.6-.8 1 0 0 .3.3.5.3 0 0 .2 0 .2-.2s.2-.5.2-1.1c.8-.3 1.2-.6 1.4-1.4zm3.2-6.8s0 .2.2.2.3 0 .3-.2c.2-.6.3-1.9.8-3.7 0 0 .3 0 .5-.5 0-.2 0-.3-.2-.5 0 .2-.2.3-.2.3 0 .3 0 .5-.2.6-.6.6-1 1.8-1.2 3.8zm3.2-6c.8-1.8 1.4-2.9 1.9-3.5 1.8-1.9 2.2-4.5 3.4-6.6-.2.2-.3-.2-.3-1-.5.2-.6.3-.6.5-1.3 1.9-1.9 4.2-3 5.6-1.1 1.4-1.3 3.4-1.9 4.8 0 0 0 .2.2.2h.3zm1.8 3.2v.3h.3c-.2-.2-.2-.3-.3-.3zm8.3-16h.3s.2-.3.3-.5l-.2-.2-.4.7zm5.3-9.3h-.2l-.2.2.2.2c.2-.2.2-.2.2-.4zm22.2 56.6c0 .2 1.1.3 1.1.3s.2-.2.3-.2c-.1.1-1.4-.1-1.4-.1zm11.5-17.1c-.6 0-.8-.2-.6-.3 1.8-2.7 3.5-8.6 6.7-12.3l.6-1.1c.2-.3.2-.6.2-1.1-1.1 1.4-1.6 2.2-1.6 2.2-2.4 4-4.3 8.2-6.7 12.5v-.2c0 .2-.5.8-1.4 2.2-1 1.4-1.3 2.1-1.1 2.1s1.4-2.4 2.6-3.2c.5-.5 1-.6 1.3-.6v-.2zm9.4-20.6v.2c-.2.2-.2.3-.3.3 0 0-.3.5-.8 1.4-.2 0-.2 0-.2-.2.2-.5.6-.6 1.1-1.1.1 0 .2-.5.2-.6zm3.1-9.2v2.2l1.3-2.4 2.1-5.8c1.1-5.8 2.1-11.2 3.4-17.1 0 0-.2-.3-.5-1.1-.5.5-.6 1-.6 1.1-1.4 7.7-3.2 15.4-4.6 22.9-.7.1-1 .2-1.1.2z"/><path class="st7" d="M1183.8 322.3c-.8-1.1-1-1.9-.2-2.6 0-.2.3-.8.8-1.6 3.2-5.3 5.4-11.5 6.7-18.7.8-5-.2-9.4-2.7-13.4-.5-.8-1.1-1.9-1.9-3.7-.3-.6-.3-1.4.2-2.6.5-1 1-1.1 1.3-.3 1.1 1.8 3 2.7 5.4 3.2 1.4.3 2.6 1.3 3.5 2.9.8 2.1 1.8 4.8 3 6.9.2.2.2.3.2.8-.5 3.2.2 6.4-.3 9.4-1.6 7.5-5 14.9-9.9 21.8l-3.2 4.2c-2.6 3.7-6.4 5.6-10.1 7.5-2.4 1.1-4.5.8-6.6-1.3-2.7-2.7-4.2-6.1-4-10.4.5-6.7 1.9-13.3 4.5-19.8.6-1.6 1.8-3.8 3.5-6.7 1.4-3 4.3-4.8 7-6.9.8-.6 2.1-.6 3.7 0l2.4 1.4c1.1 1.1 1.1 2.1.3 3.2-.8.8-1.9 1.9-3.4 3-1.1 1.1-1.6 2.1-1.8 2.9-.2.5-.6 1.4-1.8 2.7-2.7 3.7-4.6 7.7-5.6 12-1.3 4-2.4 8-2.4 12.3v1.8c0 .8.3 1 1.1.8l1.9-1c3.4-1.3 5.6-4.6 6.9-7.4 3.7-.6 5.1.8 5.9-2.4 0 0-.6-.5-.8-.5-.5 0-1 .2-1.4.5-1.1.5-1.1 1.9-2.6 1.9h.4zm12-22.7c-.3-.2-.6 0-.8.2-.3.8-.5 1.1-.5 1.1 0 1-.3 2.4-1.1 4.2-1.1 2.1-1.9 4.5-2.6 6.6 0 .5.2.8.3.8h.6c1.1-.5 1.8-1.4 2.2-2.7 1-3.8 1.8-6.7 2.4-8.8 0-.2-.2-.3-.2-1 0-.2-.2-.4-.3-.4zm-3.2-13.4l.2-.2h-.2v.2zm3.7 8.3c0-.2-.2-.3-.3-.5 0 0-.2.2-.5.6 0 .5.2.6.3.8 0 .5.2.6.2.6l.3-.5v-1zm15 24.5c3.2-4.5 6.2-8.6 9.9-13 1.9-2.2 3.8-5.6 5.8-9.9 1.9-4.3 4-8.3 6.4-11.7.8-1.4 2.1-1.6 3.5-.5l2.7 2.7c1.1.8 1.4 2.1 1.1 3.7l-1.4 2.6c-.8.8-1.6 1.8-2.2 2.9-1.6 2.2-3 5.8-4.3 10.4-1.1 4.6-.2 7.8 3 9.3.6.5.8 1 .5 1.4-.5 1-.8 1.6-1.3 2.1-.8.8-1.6 1-2.4.2-3.2-1.8-7.7-5.6-8.5-9.4-.5-1.4-1.3-1.4-2.1-.2-1.8 2.4-3.4 4.5-4.8 6.9-.8 1.3-2.2 3.4-4.3 6.1-4.3 5.6-8.2 10.9-11.5 15.7l-.3.3c-.6.8-.3 2.6-2.1 2.7-1.4-1.3-3.5-1-4.6-3.4 0-.5-.2-1-.3-1.3-.8-1-1-2.2-.3-4 1.3-3 2.4-6.2 3.7-9 3.4-6.6 6.2-13.6 9.6-20.6l7-15c.5-1.4 1.3-1.6 2.4-.8 1.3 1.1 2.4 1.9 3.8 2.6 1.6 1.4 2.2 2.9 1.8 4.5-.3.8-.8 1.8-1.6 2.9l-9.1 18.2c-1.1 2.4-1.4 4.2-1.3 5h-.3l-.3.2c.3 0 .5-.2.5-.3.7-.7 1.1-1.2 1.3-1.3zm-10.7 10.2c.6-.2 1-.6 1-1.8.3-.5.5-.6.5-.6s-.2-.3-.2-.5c0 .2-.2.3-.2.3 0 .5 0 .8-.2 1-.5.3-.8 1-.8 1.8-.5.3-.8 1-.8 1.9-.3.2-.5.5-.6.8v.3s.3-.2.3-.3v-1c1 0 1.3-.6 1-1.9zm2.4-4.8v-.2h-.2l.2.2zm5.4-13.3c2.2-5.3 3.5-8 3.7-8.2 0 0-.3-.6-.3-.8-.2.3-.3.5-.3.6 0 .3-1 3.2-3.1 8.4-2.1 5.3-3 7.8-3 8-.2.2-.5.3-.6.6v.6l.5-.5v-.8c0-.2 1-2.6 3.1-7.9zm68-21.4c.3 0 .6.2 1 .3.8 1.1 1.1 2.4 1.1 3.5.2 4-.5 7.5-1.8 10.6-1.1 3-2.4 5.4-3.7 8-1.4 3.4-3.7 6.2-6.4 9-1.4 1.4-3.2 2.7-5 3.8-1.8 1.1-3.4 1.4-5.1.8l.2.5c-.2.2-.2.3-.2.6.5 4.8 1.4 9.6 3 14.2.3 1.8 1.8 4.2 4.3 7.4 0 .2 1 .5 2.7.8.6 0 1 .3 1 1v1.8c-.5 2.6-1.6 3-3.4 1.6-2.6-1.8-4.3-3.4-5.4-5-4.5-4.8-6.9-10.6-7.4-17.3-.5-1.8-.5-3.5-.5-5.6 0-.5-.3-1-1.1-1.8-.3-.2-.6-.2-.8 0-.3.2-.8.8-1.3 1.6l-6.9 10.7c-.8 1.3-1.6 1.6-2.7 1-1.4-.5-2.4-1.3-2.7-2.4-.8-1.1-1.1-1.6-1-1.4-.6-.8-.8-2.2-.5-4.2 1.1-1.8 1.8-3.5 2.1-5.3l.2.2s.2-.3.2-.5c.8-.2 1-.6.6-1.6 0-.2 0-.2-.2-.3 1.4-4 2.6-6.9 3.2-9l7.2-17.3c3-6.6 6.1-13.6 9.4-20.2 2.1-5 4.6-9.8 7.2-14.7.2-.5.6-.6 1.3-.5 2.1.5 3.8 2.1 5.6 4.8.5.8.6 1.4.5 1.9-.6 2.1-1 3.4-1.1 3.5l-4 7.5c-5.3 9.6-9.4 19.5-13.4 29.1-1.8 3.4-2.9 5.9-3.7 7.7-.8 1.9-1.1 3.4-.8 4.2l-.2-.2c1.8-2.4 3.4-4.8 5.3-7.2 5-6.6 10.9-15.2 16.8-21.6 1.4-1.3 3-1.4 5-.5.4.7.9.7 1.4.5zm-40 33.3v.6c0 .2-.2.2-.2.2l.2-.8zm4-3.1v.2h.2l-.2-.2zm1.4-2.4c.2-.2 0-.3-.2-.6l-.5.5v.6c0 .5 0 .8-.2.6 0 0 .2-.5.2-.6.6-.3.7-.5.7-.5zm10.4-29.2c-.3.2-.5.6-.5 1.4 0 .2-.2.2-.3.2-1.3 1.6-2.2 3.5-3 5.9 0 .5.2.8.2 1.3-.8.2-1.3.8-1.4 1.9-1.8 4.3-3.5 8.3-5.4 12 0 .5.2.8.2.8.3 0 .5 0 .6-.2.8-1.3 1.1-1.8 1.1-1.4 1.4-3.8 3.2-7.5 4.6-11.2 0-.6.2-1.1.3-1.9 2.1-1.9 3.2-4 3.4-6.4 0-.2-.2-.5-.2-1 .6-.2.8-.6.4-1.4 1.1-.5 1.8-1.3 1.6-2.4-1.1.3-1.6 1.1-1.6 2.4zm-9.1 26h-.2v.2l.2-.2zm.3-1.4l.2-.2h-.2v.2zm1.3-3.5l-.2.2.2.2v-.4zm1.1-2.7l.2-.2-.2-.2v.4zm.8-1.6c-.2 0 0-.2.3-.6 0 0 .2-.3.2-.5-.2-.2-.2 0-.2.5-.1.1-.3.6-.3.6zm1.2-2.8l.2.3v-.3h-.2zm1.2-2.4l.2.3v-.5l-.2.2zm1.8-3.6s.8.2.2-.5c0 .1-.2.5-.2.5-.5.3-.6 1-.6 1.8 0 .5-.2.6-.3.5 0 0 .3-.3.3-.5.4-.1.6-.7.6-1.8zm.6 23.9c-.5-.8-.2-1.1.8-1.1h2.6c1.4 0 2.1 0 2.1.2.8-1.3 2.7-.6 2.9-2.4.3-.5.6-.6.8-.8 3.8-4 5.3-5.4 7.4-10.1 1.4-2.7 3.4-5.9 4-9.8.5-1.1.6-2.4 1.1-3.8 0-.2 0-.2-.2-.3l-.2-.2c-1 .8-1.6 1.3-2.1 1.4l-.5.8-4.5 5.3c-2.4 3-6.1 7.5-8.2 10.6-2.4 3.4-4.2 6.7-6.6 9.9 0 .2.2.6.2.6h.5c.1-.1.1-.1-.1-.3zm1.6-28.3c-.2.2-.3.5-.3.5l-.8.8-.5.5c0 .5.2.6.2.6.2 0 .3-.2.3-.3v-.8l.8-.8c.2-.1.3-.3.3-.5zm.8-1.4l-.3-.2v.2h.3zm.5-1.6v-.2h-.2l.2.2zm.8 34.5c2.9-1.3 4.6-2.7 5.4-4.3 1.4-.6 2.6-1.4 3.4-2.2l.2-.3c-.5 0-.6 0-.6-.2l-2.2 1.1c-.5.2-.6.8-.6 1.6-.6 0-1.3.3-2.1 1-1.8 1.1-3 1.9-4 2.4l.5.9zm-.3-36.3v.2h.3l-.3-.2zm.3 33l-.3.2.3.2v-.4zm.7-34.9s-.8.3-.2.5c0 0 .2-.5.2-.6.5 0 .8-.5.8-1.4.3-.2.5-.6.5-1.6.5-.2.8-.6.6-1.8 1-.2 1.4-1 1.3-2.4.5 0 .6-.5.6-1.4.5-.2.6-.6.6-1.6.2-.2.3-.5.3-.6-.2.5-.3.6-.3.6-.6.2-.8.8-.6 1.6-.8.3-1 .8-.5 1.4-1.3.6-1.8 1.4-1.4 2.4-.5.3-.6 1-.6 1.8-.6.3-.8.8-.5 1.6-.5.1-.8.6-.8 1.5zm5.4-12.3l.2-.2h-.2v.2zm.5-1.7l.2.2v-.2h-.2zm1.2-3.4v.2h.2l-.2-.2zm6.6 42.5c1.6-2.1 2.4-4 2.2-6.1.5-1 .8-1.3.8-1.1 1-2.4 1.9-5.1 2.9-8.2 0 0-.2-.5-.2-.6-.3.3-.5.5-.5.3-.8 2.1-1.8 4.5-2.4 6.9-.5 1.1-.8 2.1-.6 2.7-1 1-1.4 1.3-1.3 1.1l-.9 5c-.5.2-.6.6-.6 1.4-.5.2-.6.5-.8.8-1.3.8-2.1 1.6-2.2 2.6 0 .3.2.5.3.5 0 .5.2.5.5 0 .8-1 1.3-1.9 1.4-3 .2-.3.3-.6.8-.8.4-.2.6-.7.6-1.5z"/></g></svg>