<?xml version="1.0" encoding="utf-8"?>
<!-- Generator: Adobe Illustrator 22.0.1, SVG Export Plug-In . SVG Version: 6.00 Build 0)  -->
<svg version="1.1" id="Layer_1" xmlns="http://www.w3.org/2000/svg" xmlns:xlink="http://www.w3.org/1999/xlink" x="0px" y="0px"
	 viewBox="0 0 2175.8 545.5" style="enable-background:new 0 0 2175.8 545.5;" xml:space="preserve">
<style type="text/css">
	.st0{fill:#A9F7F5;}
	.st1{fill:#49D33B;}
	.st2{fill:#35C81E;}
	.st3{display:none;}
	.st4{display:inline;fill:#507575;}
	.st5{fill:#549D3D;}
	.st6{fill:#6FE192;}
	.st7{fill:#437F17;}
	.st8{fill:#58CB71;}
	.st9{fill:#FFFFFF;}
	.st10{fill:#4CB0B1;}
	.st11{fill:#507575;}
</style>
<path class="st0" d="M1.4-549.9h2175.9V569.5H1.4V-549.9z"/>
<path class="st1" d="M802,719.6c4.7-7.6,12.6-13.7,19.6-20.1c28.8-26.5,58.9-52.2,91.8-76.1c47.9-34.9,101.4-64.1,160.4-88.1
	c135.4-55.2,279.5-94,430.2-119.9c78.5-13.5,158-23.3,238.1-30.6c44.9-4.1,89.8-7.5,135.1-8.9c16-0.5,32.1-1.7,48.1-1.2
	c14.3,0.5,91.4-0.4,109.9-0.1c44.5,0.8,88.8,3.8,133,7.7c4,0.3,8,0.8,12,0v337.3L802,719.6L802,719.6z"/>
<path class="st2" d="M0.3,644.3c0.9-2.9,0.5-5.9,0.5-8.9V291c0-9.3-2.1-9.1,11.2-11.1c20.1-2.9,40.5-4.5,60.8-6.1
	c35.8-2.8,71.6-4.7,107.6-4.8c19.5-0.1,39-0.3,58.5,0.5c23.9,0.9,47.8,2.8,71.6,4.1c17.8,1,35.6,2.4,53.3,3.9
	c29.7,2.5,59.2,6,88.6,10.3c87.6,12.9,172.1,34.8,254,63.6c78.1,27.4,152.1,61.2,221.5,102.1c37.8,22.2,75,45.1,110,70.3
	c30,21.7,58.1,45,83.8,70.3c14.8,14.6,29.3,29.4,42.9,44.8c1.5,1.7,3.3,3.4,4.2,5.5C779.4,644.3,389.9,644.3,0.3,644.3L0.3,644.3z"
	/>
<g id="Layer_1_1_" class="st3">
	<path class="st4" d="M899.1,257.2c0.8-0.1,3.8-0.4,5-0.1l0.2,0.1l1.3-0.1c1.3,0.1,2.3,0.6,3.2,1.7c0,0,0,0.2,0.5,0.1
		c0.6,1.1,0.1,1.9-1,2.2c-1.8,0-4,0.1-6.9,0.4l-1,0.1c-2.7,0.2-5.6,0.6-8.6,0.6c-4.9,0.4-9.4,0.5-14.4,0.9c-2.1,0.2-3.8,0.1-5.8,0.3
		c-1.7,0.3-2.8-0.8-3-3.3c0-0.6,0.2-1,0.7-1c2.7-0.2,4.8-0.4,6.2-0.6c0,0,0.5-0.2,0.9-0.2c3.9-0.9,5.8,0.5,7.3-2.8s3.7-9.9,4.9-13.4
		c6.3-16,12.6-32.5,19.3-48.9c0,0.2,0.2,0.1,0.2,0.1c0,0.5,0.2,0.3,0.2,0.3l0.8-2.3l-0.3,0.2v-0.2c3.5-8.6,5.8-14.7,6.8-18.2
		c1-3.6,2.2-6.7,3.8-9.6c-4,0.3-7.9,0.1-11.2,0.8c-2.7,0.5-4.2-0.6-4.4-3.5c-0.1-0.8,0.4-1.3,1.2-1.4c6.2-0.9,12.2-1.6,18.1-2
		c0.2,0,0.7,0.1,1.1,0.1c2.1-0.5,3.6-0.6,4.9-0.4l-0.1,0.5c0.5,0.1,1,0.2,1.3,0.1c0.8,0.4,1.3,0.5,1.3,0.5c0.8-0.2,0.5-0.2-0.6,0.2
		c-1.1,0.2-1.4,0.3-0.7-0.3c0,0,0.8-0.1,2.2-0.2c0.5,0,1.3-0.3,2.2-0.5l-1.5-0.7c1.6-0.4,3-0.4,4.2,0l-1.4,0.6h-0.2l-1.1,0.1
		c0.5,0.1,0.8,0.1,1.3-0.1c1.7,0.8,3.1,0.7,4.2-0.2l-1.3-0.5c0.5-0.4,0.9-0.6,1.1-0.6c1.3-0.1,2.2,0,3.5-0.1
		c1.8-0.1,3.3,0.6,4.3,1.9c0,0,0.2,0.1,0.5,0.3c0.9,1.7,0.5,2.8-1.2,3.1c-4.3,0.2-7.2,0.4-8.8,0.5c-1.4-0.1-4.2,0.2-8,0.4
		c-1.9,4.5-3.9,9.9-6.2,16.2c-2.3,6.1-4.2,10.9-6,14.4c-5.1,10.5-9.2,20.4-12.2,30.2c-3,9.5-6.6,19.4-10.6,29.8
		C894,257.4,894.1,257.6,899.1,257.2z M888.2,247.2c-0.2,0,0,0.2,0.3,0.3c0,0,0-0.2,0.1-0.2v-0.5
		C888.4,246.9,888.2,247.1,888.2,247.2L888.2,247.2z M890.5,241.5c-1.3,1.9-2,3.5-1.9,5.1C890,244.9,890.6,243.2,890.5,241.5z
		 M888.7,246.9v-0.3V246.9z M891.7,244.4c-0.5,1.8-0.9,3.1-1.3,4.1c0,0,0.2,0.3,0.3,0.3h0.5c1.1-2.3,1.6-4.1,1.5-5.2
		C892,244.1,891.7,244.3,891.7,244.4L891.7,244.4z M891,240.9c0,0-0.3-0.1-0.4-0.6c0,0.2,0,0.3-0.1,0.5v0.5
		C890.7,241.3,890.8,241.1,891,240.9z M890.5,241.3v0.2V241.3z M891.1,238.2c0,0.2,0.2,0.5,0.2,0.5c0.1-0.2,0.3-0.2,0.3-0.3
		c0,0,0.1-0.2,0.1-0.6C891.4,238,891.2,238.2,891.1,238.2L891.1,238.2z M893.6,237.5c-0.2-0.9-0.6-1.6-0.8-2h-0.6
		c-0.1,0.6-0.5,1.5-0.5,2.1C892.4,237.3,893.1,237.3,893.6,237.5L893.6,237.5z M894.3,240.7v-0.3l-0.2-0.3c-0.5-0.3-0.7-0.3-0.6,0
		c-0.6,0.5-0.8,1.7-0.7,3.3L894.3,240.7z M892.8,243.5v-0.2V243.5z M893.9,237.5h-0.3H893.9z M894.3,238.4c0,0,0.3,0,0.5-0.2
		c0.1-0.7,0.5-1.5,0.9-2.3c0,0-0.2-0.5-0.2-0.6c-0.2,0-0.3,0-0.5,0.2c-0.6,0.7-1,1.4-1.1,2C893.9,237.7,894.1,238,894.3,238.4
		L894.3,238.4z M899.6,225.2l-0.2-0.3l-0.1,0.3l0.2,0.1L899.6,225.2z M901.7,221c-0.2,0-0.3-0.3-0.3-0.3c-0.6,0.2-0.9,0.9-1.1,0.9
		v0.3c0,0,0.2,0.1,0.3,0.1c0.5-0.2,0.9-0.6,1.1-0.7V221z M906.2,258.1c-0.8-0.3-1.3-0.4-1.6-0.4v0.6
		C905,258.5,905.4,258.3,906.2,258.1z M906.5,258.1h-0.3H906.5z M906.5,258.1h0.3H906.5z M905.6,209.3h-0.5c-0.4,0.8-0.5,1.5-0.7,2
		c0,0,0,0.2,0.2,0.1h0.3c0.4-0.8,0.7-1.3,0.8-1.8L905.6,209.3z M904.5,202.9c0,0.2,0.2,0.5,0.2,0.5s0.3-0.2,0.3-0.3v-0.5
		C904.9,202.7,904.5,202.9,904.5,202.9z M904.9,202.6h0.2v-0.3L904.9,202.6z M905.1,202.2c0.3-0.2,0.4-0.5,0.4-1.3
		C905.1,201.3,905,201.8,905.1,202.2z M905.6,205.1l0.2,0.1h0.2L905.6,205.1z M905.6,200.9h-0.2c0,0,0.2,0,0.1-0.2L905.6,200.9
		L905.6,200.9z M907.8,206.5c0.3-0.7-0.1-1.1-0.9-1.2c-1-0.4-1.3-0.5-1-0.1c-0.1,0.5-0.1,1,0,1.8c0,0.5,0.1,0.8,0.2,0.9
		c0.5-0.4,0.6-0.5,0.6-0.4L907.8,206.5L907.8,206.5z M905.6,200.7c0.5-0.2,0.6-0.8,0.5-2C905.6,199.1,905.5,199.8,905.6,200.7z
		 M906.1,198.8h0.2H906.1z M906.2,198.8c0.3-0.3,0.4-0.8,0.4-1.6C906.3,197.5,906.2,198,906.2,198.8z M906.9,197.1h-0.3H906.9z
		 M907.4,197.1c-0.2-0.5-0.4-0.5-0.5,0H907.4z M908,202.7l0.3-0.3l-0.2-0.5c-0.1,0.2-0.4,0.5-0.4,0.5L908,202.7L908,202.7z
		 M907.4,197.1h0.2H907.4z M907.6,197.1c0.2,0.5,0.4,0.5,0.6,0H907.6z M908.8,197c-0.2-0.1-0.5-0.1-0.6,0H908.8z M908.8,197
		c-0.1,0.8-0.4,1.5-0.3,2.1c0,0.5,0.1,1,0.2,1.1c0.7,0.6,1,0.2,0.9-1C909.7,198.2,909.5,197.4,908.8,197L908.8,197z M909.2,191.2
		c0.5-0.2,0.6-0.7,0.5-1.3L909.2,191.2z M909.2,191.3v-0.2V191.3z M911.7,194c-0.6,0-0.8-0.3-0.8-0.3c-0.4,0.7-0.7,1.3-0.8,1.8
		c-0.2,0,0,0.3,0,0.3c0.5,0,0.8-0.1,0.8-0.1C910.4,196.2,910.6,195.6,911.7,194z M909.7,189.5l0.3-0.2l-0.3,0.5
		C909.7,189.8,909.8,190,909.7,189.5z M910.7,187.1c-0.1,0.2,0,0.5,0.2,0.6v-0.3c0.1-0.2,0.3-0.5,0.3-0.7
		C910.8,186.9,910.7,187.1,910.7,187.1z M911.1,186.7c0.5-0.2,0.6-0.7,0.5-1.5C911.2,185.6,911.1,186.1,911.1,186.7z M911.8,191.5
		l-0.1,0.2c0,0,0,0.2,0.2,0.1h0.2C912,191.8,911.8,191.6,911.8,191.5L911.8,191.5z M911.6,185.2c0-0.3,0-0.6,0.1-0.8v-0.2
		c0.3,0.3,0.5,0.4,0.4,0.5C912.1,184.9,911.9,185,911.6,185.2z M917.8,177.2c-2.1,4-3.6,8.1-5.2,12.1c-0.3,0-0.3,0.2,0.2,0.6
		c0,0,0.3-0.2,0.5-0.4l1.9-2.5l0.8-1.7c0-1.6,0.7-3.3,2.3-5.2c0.7-1,0.8-2.1-0.1-3.4C918.1,177,917.8,177.2,917.8,177.2L917.8,177.2
		z M912.9,182.2l-0.1,0.3L912.9,182.2l0.3-0.3L912.9,182.2z M914,179.9c0-0.3,0.1-0.5,0.3-0.7c-0.2,0-0.5,0.2-0.6,0.5l0.2,0.3
		L914,179.9z M914.2,179.1c0.3-0.2,0.4-0.7,0.4-1.3L914.2,179.1z M914.2,179.1v0.2V179.1z M914.6,177.8c0,0,0.2,0,0.1-0.2
		L914.6,177.8z M915.9,175.4c-0.8,0.5-1.2,1.2-1.1,2.2C915.5,177.4,916,176.5,915.9,175.4z M915.9,175.4h0.2v-0.3L915.9,175.4z
		 M918.2,176.9c0,0,0,0.2,0.1-0.3C918.2,176.5,918.2,176.9,918.2,176.9z M919.7,175c-0.5,0-0.8,0.1-0.8,0.1
		c-0.6,0.8-0.5,1.3-0.5,1.5c0.2,0,0.8-0.1,1.4-0.6C919.8,175.9,919.7,175.1,919.7,175L919.7,175z M918.5,170.1l-0.1,0.3L918.5,170.1
		h0.2H918.5z M918.7,170.1c0.3-0.3,0.4-0.8,0.4-1.3L918.7,170.1z M919.1,168.8v-0.2l0.1-0.2l-0.1,0.2V168.8z M921.5,169.7l-0.1,0.2
		c-0.6,0.7-0.9,1.3-1,2.2c-0.1,0.2,0,0.3,0.2,0.5c0,0.2,0.5,0.1,0.5,0c0.7-0.7,1.2-1.5,0.9-2.5C922,170,921.6,169.9,921.5,169.7
		L921.5,169.7z M924,165.5c-0.6,0.2-1.1,0.4-1.2,0.6c0,0,0,0.3,0.1,1c1.1-0.6,1.4-0.7,0.9-0.2C923.7,166.7,923.8,166,924,165.5
		L924,165.5z M924.4,164.8c0.1-0.2,0-0.3-0.2-0.5c0,0.2-0.1,0.2-0.3,0.3v0.6C924.3,165.3,924.4,165.2,924.4,164.8L924.4,164.8z
		 M923.9,165.4v0.2C924,165.5,924,165.5,923.9,165.4z M924,158.3h-0.2H924z M924.3,157.6l0.5,0.6l-0.8,0.1L924.3,157.6L924.3,157.6z
		 M924.2,157.6h0.2H924.2z M929.2,157.9H929l0.1-0.2L929.2,157.9L929.2,157.9z M931.7,159.3l-0.3,0.2c0,0.3,0,0.5,0.2,0.5h0.2
		C931.7,160,931.7,159.5,931.7,159.3L931.7,159.3z M940.6,157.4h-0.2H940.6z M944.8,157.2c-1.5-0.4-2.7-0.3-4.2,0.2
		C941.8,158.1,943.2,158,944.8,157.2z M944.9,157.2h-0.2H944.9z M944.9,157.2h0.5H944.9z"/>
	<path class="st4" d="M915.6,245.8c0.2-1.4,0.5-2.7,0.6-3.5c0.8-2.6,1.8-5.3,2.2-8c2.2-7.5,3.8-12.5,4.6-14.7c1-2.4,2.1-4.6,3.2-7
		c2.1-5.1,4.6-10.6,6.7-15.8c3-7.5,7-14.9,10.9-22.1c0.5-0.8,1.1-2.2,1.9-4.2c0.3-1.1,1-1.4,1.9-0.8c1.1,0.6,2.7,1.6,4.6,3
		c1.6,1.4,1.9,3.2,1.1,5.3l-1.4,2.6c-3.7,5.3-6.6,10.6-8.6,15.7c-1.3,2.6-2.9,5-4,7.5c-2.2,5.1-4.8,11.5-7.8,19.4
		c-3,7.7-5.3,14.1-6.9,19.4c-1.1,3.4-1.8,6.7-2.2,10.1c-0.2,1.6,0.5,2.2,2.2,1.9c1.8-0.5,3.4-1.4,4.6-2.6c0.2-0.2,0.3-0.2,0.8-0.2
		c0,0.2,0.2,0.5,0.2,0.6c-0.3,1.3-1,1.9-1.9,2.1c-1.1,1.1-3,2.1-5.9,3.2c-2.7,1-5-1.3-6.4-6.7L915.6,245.8L915.6,245.8z
		 M918.6,243.7c0.8-1.1,1.6-2.2,2.2-3.5c0.2-0.2,0.2-0.3,0.2-0.6c-0.3-0.8-0.5-1.1-0.5-1.1c-0.3-0.3-0.6-0.2-1.1,0.3
		c-0.8,0.8-1.1,2.4-1.1,4.6v0.3H918.6L918.6,243.7z M926.5,219.8c0-0.2-0.2-0.6-0.2-1.1c-0.5,0.3-0.6,0.5-0.6,0.3v1.1
		C926.1,220,926.5,219.8,926.5,219.8z M939.7,237.6c-3,6.4-5.1,10.4-6.2,11.8c0,0.2-1.9,2.6-1.9,2.6c-0.8-0.6-1-1.1-0.8-1.3
		c0.3-0.8,2.6-5.1,6.7-13c4.3-7.8,6.6-12,6.9-12.2c1.4-1.3,2.4,0.2,1.9,0.6C945,227.4,942.7,231,939.7,237.6L939.7,237.6z
		 M933.4,202.9c-0.2,0-0.3,0.2-0.5,0.5c0.2,0.2,0.3,0.3,0.5,0.3c0.3,0,0.6-0.2,0.8-0.3C934.1,203.4,933.9,202.9,933.4,202.9z
		 M935.5,197.3v-0.5c0.2,0,0.6,0.2,1.1,0.2c0,0.3,0.2,0.5,0.3,0.5c0.5,0,0.8-0.2,1-0.5v-0.2c-0.2-0.5-0.3-0.5-0.8-0.2
		c-0.5,0.2-0.6,0.3-0.6,0.3c-0.2-0.3-0.5-0.3-1,0V197.3z M940.2,191.4h-0.3v0.3h0.3V191.4z"/>
	<path class="st4" d="M938.5,245.8c0.2-1.4,0.5-2.7,0.6-3.5c0.8-2.6,1.8-5.3,2.2-8c2.2-7.5,3.8-12.5,4.6-14.7c1-2.4,2.1-4.6,3.2-7
		c2.1-5.1,4.6-10.6,6.7-15.8c3-7.5,7-14.9,10.9-22.1c0.5-0.8,1.1-2.2,1.9-4.2c0.3-1.1,1-1.4,1.9-0.8c1.1,0.6,2.7,1.6,4.6,3
		c1.6,1.4,1.9,3.2,1.1,5.3l-1.4,2.6c-3.7,5.3-6.6,10.6-8.6,15.7c-1.3,2.6-2.9,5-4,7.5c-2.2,5.1-4.8,11.5-7.8,19.4
		c-3,7.7-5.3,14.1-6.9,19.4c-1.1,3.4-1.8,6.7-2.2,10.1c-0.2,1.6,0.5,2.2,2.2,1.9c1.8-0.5,3.4-1.4,4.6-2.6c0.2-0.2,0.3-0.2,0.8-0.2
		c0,0.2,0.2,0.5,0.2,0.6c-0.3,1.3-1,1.9-1.9,2.1c-1.1,1.1-3,2.1-5.9,3.2c-2.7,1-5-1.3-6.4-6.7L938.5,245.8L938.5,245.8z
		 M941.6,243.7c0.8-1.1,1.6-2.2,2.2-3.5c0.2-0.2,0.2-0.3,0.2-0.6c-0.3-0.8-0.5-1.1-0.5-1.1c-0.3-0.3-0.6-0.2-1.1,0.3
		c-0.8,0.8-1.1,2.4-1.1,4.6v0.3H941.6L941.6,243.7z M949.4,219.8c0-0.2-0.2-0.6-0.2-1.1c-0.5,0.3-0.6,0.5-0.6,0.3v1.1
		C949.1,220,949.4,219.8,949.4,219.8z M962.5,237.6c-3,6.4-5.1,10.4-6.2,11.8c0,0.2-1.9,2.6-1.9,2.6c-0.8-0.6-1-1.1-0.8-1.3
		c0.3-0.8,2.6-5.1,6.7-13c4.3-7.8,6.6-12,6.9-12.2c1.4-1.3,2.4,0.2,1.9,0.6C967.8,227.4,965.6,231,962.5,237.6L962.5,237.6z
		 M956.3,202.9c-0.2,0-0.3,0.2-0.5,0.5c0.2,0.2,0.3,0.3,0.5,0.3c0.3,0,0.6-0.2,0.8-0.3C956.9,203.4,956.8,202.9,956.3,202.9z
		 M958.4,197.3v-0.5c0.2,0,0.6,0.2,1.1,0.2c0,0.3,0.2,0.5,0.3,0.5c0.5,0,0.8-0.2,1-0.5v-0.2c-0.2-0.5-0.3-0.5-0.8-0.2
		c-0.5,0.2-0.6,0.3-0.6,0.3c-0.2-0.3-0.5-0.3-1,0V197.3z M963,191.4h-0.3v0.3h0.3V191.4z"/>
	<path class="st4" d="M967.7,224.6l8.2-19l1.6-4.2c0.8-1.4,1.4-2.6,2.1-3.2c0.3-0.8,1-1,1.9-0.3c1.3,0.6,2.1,1.8,3.5,2.4
		c1.4,0.8,1.9,2.1,1.4,3.5s-0.8,2.6-1.3,3c-5,8.8-8,17.9-11.7,26.7c-1.4,3-2.2,7-2.6,12.3c0,0.6,0.2,1,0.5,1.1
		c0.2,0.2,0.6,0.2,1.3-0.2c2.4-1.6,5-3.7,7.4-6.4c2.9-3,5.6-7.4,8.3-12.8c3-5.3,5.6-10.9,8.6-16.5l1-2.2c2.2-3.5,3.8-7,4.8-10.6
		c0.2-1,0.8-1.4,1.9-1.3c2.2,0.5,4,1.6,5.4,3.4c0.5,0.8,0.5,1.9,0.3,3.5c-0.5,1.8-1.3,3.7-2.4,6.1l-5.6,10.9
		c-2.1,4.3-4.3,9.8-6.4,16c-1.1,2.9-1.6,6.2-1.8,9.9c-0.5,1.4,0,1.9,1.4,1.1c2.2-1.4,3.8-2.6,4.6-3.4c2.7-2.7,5-6.4,7.7-9.8
		c1.3-1.8,2.4-3.7,3.8-5.6c0.6-1.4,1.9-3.2,2.7-5.1c0.3-0.2,0.6-0.3,1.1-0.3c0.2,0,0.3,0.3,0.3,0.8c0.3,1,0.2,2.2-0.6,4
		c-2.7,5.1-5.3,10.1-9,13.9c-0.6,0.8-1.1,1.6-1.6,2.4c-1.3,1.8-3,3.4-5.3,4.6c-5.1,3-9.8,0-11.2-3.7c-1.1-2.6-1.4-5-0.8-7.2l0.6-3.7
		c0-0.5-0.2-0.6-0.5-0.6c-0.2-0.2-0.5,0-0.6,0.2c-0.6,0.6-1,1.1-1.1,1.6c-1.4,3.4-4.3,7-8.3,11l-2.9,2.2c-3.7,2.4-6.6,1.6-8.6-2.1
		c-1.4-2.1-2.1-4.2-1.9-6.6C964.6,235.7,965.7,230.2,967.7,224.6L967.7,224.6z M971.3,223.7c1.3-1.1,2.1-2.4,1.3-2.2
		c-0.8,0.5-1.1,1.1-1.1,2.2l-1,1l-0.3,0.3l0.2-0.3L971.3,223.7L971.3,223.7z M974.9,218.7c0,0,0.5-0.2,0.6-0.2
		c-0.2,0-0.3-0.6-0.3-0.8c-0.2,0-0.5,0.2-0.6,0.2C974.5,218.4,974.7,218.7,974.9,218.7z M977.9,213c0,0,0.2,0.3,0.5,0.8
		c0.3-0.8,0.5-1,0.5-0.8c0.8-1.4,1.6-3.2,2.2-5c0.2-0.8,0.2-1.3-0.2-1.4c-0.5,0-1,0.2-1.3,0.6c-1.4,1.4-2.1,2.9-1.8,4.5L977.9,213
		L977.9,213z M992.2,239.7c0.8-0.2,1-1,0.8-2.4c0.3-0.2,0.5-1,0.5-2.6c1.3-1.1,1.8-2.4,1.6-4.2c0.5-0.3,0.8-1,0.6-1.8
		c1.1-0.8,1.8-1.8,1.6-3.2c0-0.5,0.8-0.3,1-0.8c1.4-3.7,3.2-7.4,5.1-11c0.5-0.5,0.8-1.1,0.6-1.9c1.9-1.4,2.9-3.7,2.9-6.7h0.3
		c0,0,0-0.2,0.2-0.2l-0.3,0.3c-1.1,1.3-2.1,3.5-2.9,6.6c-0.5,0.3-0.8,1-0.8,1.9c-0.8,0.2-1.3,0.6-1.6,1.4c-1.3,2.1-2.6,4.3-3.4,6.4
		c-0.6,1.4-1,2.7-1.1,4c-1,0.5-1.4,1.4-1.4,3.2c-0.5,0.5-0.8,1.1-0.8,1.9c-1.4,0.8-1.3,2.6-1.4,4c-0.5,0.5-0.6,1.4-0.6,2.6
		c-0.5,0.2-0.6,1.1-0.6,2.6c-0.2,0.5-0.5,1-0.6,1.8c-0.5,0.3-0.6,0.5-0.6,0.5c0,0.2,0.2,0.3,0.2,0.3s0.2-0.2,0.2-0.3v-0.8
		C991.9,241.1,992.2,240.5,992.2,239.7z"/>
	<path class="st4" d="M1016.9,255.2c-3.7-0.6-6.7-1.1-10.4-1.9c-2.4-0.5-3.2-2.6-5.1-4V248c0.5-0.8,0.8-1.3,1-2.1l7.7-13.8
		c1.3-2.6,2.2-5.1,3.7-7.7c0.8-2.6,2.2-5,3.4-7.4c1.8-3.5,2.9-6.1,3.4-7.8c0.8-3.7,2.9-7.5,6.2-11.8c0.3-0.5,1-1.1,2.1-1.8
		c1.8-0.6,4.3,1,6.1,1.4c0.2,0,2.9,1.9,2.7,2.7c-1.4,2.4-6.4,7-7.7,9.1c-2.6,4.8-2.9,8.8-1,11.8c1.1,1.9,2.1,3.8,3.4,5.6l2.4,4.3
		c2.4,5,1.4,10.2-2.6,16c-1.4,2.1-3.2,4-5.6,5.9c-1.3,0.6-2.4,1.3-3,1.8C1021,254.6,1018.6,255.4,1016.9,255.2L1016.9,255.2z
		 M1013,230.7c-0.2-0.3-0.3-0.5-0.3-0.5v0.5c0,0.2,0.3,0.5,0.5,0.5c-0.3,1-0.5,1.4-0.5,1.4c-1.8,1.6-3.2,3.8-4.3,6.7
		c-0.6,2.1-1.8,3.8-2.6,5.9c-0.6,1.9,0.3,4,1.8,3.2c1.8-0.5,2.7-0.2,4.2-0.2c0.8,0,2.1,0.2,3.4,0c5.6-0.2,9.6-3.4,12.3-9.9
		c1.1-2.7,1.1-5,0.3-6.9c-0.8-1.4-2.1-3.5-3.5-6.2c-1.4-1.9-2.4-3.7-3.7-5.6c-0.2-0.5-0.5-0.6-0.6-0.6l-0.6,0.8
		c-1.8,3.8-3.8,7.7-6.2,11.5v-0.6L1013,230.7L1013,230.7z M1030,242.6c1.1-2.7,1.1-5.1,0-7c0,0.2-0.2,0.2-0.6-0.3
		c-0.2,0.2-0.2,0.5-0.2,0.6c-0.5,2.7-0.6,5.1-1.1,7.5c-1.8,1.4-2.7,2.7-3,3.8c-0.2,0.2,0,0.3,0.2,0.8c0,0,0.2,0,0.3-0.2
		c1.8-1.8,2.6-3.2,2.4-4.5C1029,243.4,1029.8,243,1030,242.6L1030,242.6z M1070.3,239.5c-2.7,5.8-5.1,9.9-7.4,12.5
		c-2.7,3.4-5.6,5.3-8.6,5.9c-1.9,0.2-3.4,0.3-4.2,0.3c-3.2,0-5.3-1.4-6.4-4.2c-2.7-5.3-3.5-10.6-2.4-15.8
		c2.1-10.7,5.3-21.4,9.9-31.9c1.9-4.5,3.7-9.1,6.1-13.8c-0.3,0.2-0.8,0.2-1.3,0.2c-1.4,0-3.4,0.2-4.8,0.2c-1.4,0.2-2.7,0.3-4.2,0.3
		c-0.5,0-0.6-0.2-0.8-0.5c-0.5-0.5-0.5-0.8-0.3-1.3l0.8-1.8c0.5-0.5,1-0.8,1.6-0.8c2.1,0.2,3.8,0.2,5.4-0.2h1.1
		c1.4,0,2.7-0.3,4.2-0.5c2.6-4,5.4-7.8,7.5-12.2c0.3-0.2,0.6-0.6,0.8-1.3l1.3-2.2c1.4-0.3,3-0.3,4.6,0c2.4,0.5,3.7,2.1,3.7,5.1
		c0,0.6-0.5,1.3-0.5,1.9l-5.3,8.5h1c1.4,0.2,3.2,0,5,0c1.3,0,4,0.2,5.4,0c0,0,0.6-0.2,0.8-0.2l0.3,0.3c0,0.8,0,1.6,0.5,2.2
		c0.3,1-0.2,1.6-1.4,1.9h-0.5c-1.8,0-3.7,0.2-5.1,0c-2.9-0.2-5.8-0.2-8.5,0h-0.2c-4,6.4-7.5,13.6-10.6,21.4
		c-4.3,10.6-7.4,20.5-9.3,29.7c-0.8,3.7-0.8,6.9,0,9.6c0.5,1.8,1.4,2.4,3,2.1c5.4-1.1,10.1-5.1,13.9-12.3c4-7.2,6.9-13,9-17.3
		c0.6-2.1,2.7-0.5,2.2,0.3C1075.2,229.1,1073,233.6,1070.3,239.5L1070.3,239.5z M1044.9,232.2c0,0-0.3-0.2-0.3-0.6
		c-0.2,0-0.3,0.2-0.3,0.5c-0.3,1.8-0.5,2.7-0.5,2.9c0,2.4,0.3,4.2-0.2,6.1c0,0.2,0.2,0.6,0.2,0.6c0.2-0.3,0.3-0.5,0.3-0.6
		c0.2-2.7,0.3-4.3,0.5-4.8C1044.7,235.2,1044.9,233.9,1044.9,232.2L1044.9,232.2z M1045,229.6l0.2,0.2c0,0,0.2-0.2,0.3-0.2
		c0.5-1.4,0.6-1.9,0.3-1.4l-0.2-0.5l-0.5,0.5c-0.2,0.2-0.2,0.3-0.2,0.6C1045,229.4,1045,229.6,1045,229.6L1045,229.6z M1045.9,225.3
		l0.5,0.5c0.2,0,0.3-0.2,0.5-0.5c-0.2,0.3,0-0.2,0.5-1.3c0-0.8,0.6-2.1,0.5-3.5c-1.4,0.8-1.1,2.6-1.6,3.4c-0.2,0.2-0.3,0.6-0.3,1.1
		L1045.9,225.3z M1048.8,218.4c1.1-3,2.2-6.4,4.2-9.4c0.2-0.2,0.2-0.5,0.2-1c0-0.2-0.2-0.3-0.3-0.3c-0.5,1.4-2.1,1-2.6,1.6
		c-0.5,0.5-0.5,0.8,0.2,0.8c0.5,0,0.8,0.3,0.6,0.8c-0.5,1.1-1,2.2-1.6,3.4c-0.5,1.4-1.1,2.7-1.3,4c0,0.2,0.2,0.5,0.2,0.6
		C1048.7,218.7,1048.8,218.6,1048.8,218.4L1048.8,218.4z M1055.5,200.1l-1.3,1.1c-0.3,0.3-0.3,0.6,0,1.1c0.8,0.8,1.3,0.8,1.8,0
		c0.6-1.4,1.1-2.7,1.6-3.5c0-0.2-0.2-0.6-0.2-1.3c-0.3-0.3-0.5-0.5-0.6-0.5s-0.5,0.3-0.5,0.3c-0.2,0.8-0.6,1.4-1.1,1.9
		c0-0.2,0.2,0.2,0.5,1L1055.5,200.1L1055.5,200.1z M1055.4,189.3l-0.3-0.2l-0.2,0.2l0.2,0.2L1055.4,189.3c0.2,0.2,0.5,0.2,1,0
		c0,0,0.2,0.2,0.2,0h-0.2C1056.2,189.2,1055.9,189.2,1055.4,189.3z M1057.8,189.2h-0.2c-0.2,0-0.3,0.2-0.3,0.2h0.2
		C1057.5,189.3,1057.6,189.2,1057.8,189.2z M1058.7,195.7c0,0.2,0,0.3,0.2,0.5c0,0,0.2,0,0.2-0.5c0-0.2,0.2-0.6,0.6-1.3l-0.3-0.2
		c-0.3,0-0.5,0-0.5,0.2c-0.2,0.2-0.2,0.3-0.2,0.6L1058.7,195.7L1058.7,195.7z M1070.7,189l0.2-0.2h0.3h-0.3L1070.7,189z
		 M1072.2,188.7l-0.2,0.2c0,0,0,0.2,0.2,0.2c0.2,0.2,0.5,0.2,1-0.2c0.2,0.2,0.2,0.3,0.3,0.2h-0.3
		C1072.8,188.5,1072.5,188.5,1072.2,188.7z M1074.4,189c0,0-0.3-0.2-0.3,0h0.5c0.2,0.2,0.5,0.2,0.6,0h0.5h-0.5
		C1075.1,188.9,1074.7,188.9,1074.4,189L1074.4,189z"/>
	<path class="st4" d="M1083.1,232.2c3.2-4.5,6.2-8.6,9.9-13c1.9-2.2,3.8-5.6,5.8-9.9c1.9-4.3,4-8.3,6.4-11.7
		c0.8-1.4,2.1-1.6,3.5-0.5l2.7,2.7c1.1,0.8,1.4,2.1,1.1,3.7l-1.4,2.6c-0.8,0.8-1.6,1.8-2.2,2.9c-1.6,2.2-3,5.8-4.3,10.4
		c-1.1,4.6-0.2,7.8,3,9.3c0.6,0.5,0.8,1,0.5,1.4c-0.5,1-0.8,1.6-1.3,2.1c-0.8,0.8-1.6,1-2.4,0.2c-3.2-1.8-7.7-5.6-8.5-9.4
		c-0.5-1.4-1.3-1.4-2.1-0.2c-1.8,2.4-3.4,4.5-4.8,6.9c-0.8,1.3-2.2,3.4-4.3,6.1c-4.3,5.6-8.2,10.9-11.5,15.7l-0.3,0.3
		c-0.6,0.8-0.3,2.6-2.1,2.7c-1.4-1.3-3.5-1-4.6-3.4c0-0.5-0.2-1-0.3-1.3c-0.8-1-1-2.2-0.3-4c1.3-3,2.4-6.2,3.7-9
		c3.4-6.6,6.2-13.6,9.6-20.6l7-15c0.5-1.4,1.3-1.6,2.4-0.8c1.3,1.1,2.4,1.9,3.8,2.6c1.6,1.4,2.2,2.9,1.8,4.5
		c-0.3,0.8-0.8,1.8-1.6,2.9l-9.1,18.2c-1.1,2.4-1.4,4.2-1.3,5h-0.3l-0.3,0.2c0.3,0,0.5-0.2,0.5-0.3
		C1082.4,232.8,1082.9,232.3,1083.1,232.2L1083.1,232.2z M1072.3,242.4c0.6-0.2,1-0.6,1-1.8c0.3-0.5,0.5-0.6,0.5-0.6
		s-0.2-0.3-0.2-0.5c0,0.2-0.2,0.3-0.2,0.3c0,0.5,0,0.8-0.2,1c-0.5,0.3-0.8,1-0.8,1.8c-0.5,0.3-0.8,1-0.8,1.9
		c-0.3,0.2-0.5,0.5-0.6,0.8v0.3c0,0,0.3-0.2,0.3-0.3v-1C1072.3,244.3,1072.7,243.7,1072.3,242.4L1072.3,242.4z M1074.7,237.6v-0.2
		h-0.2L1074.7,237.6z M1080.2,224.3c2.2-5.3,3.5-8,3.7-8.2c0,0-0.3-0.6-0.3-0.8c-0.2,0.3-0.3,0.5-0.3,0.6
		C1083.2,216.2,1082.3,219,1080.2,224.3c-2.1,5.3-3,7.8-3,8c-0.2,0.2-0.5,0.3-0.6,0.6v0.6l0.5-0.5v-0.8
		C1077,232.2,1078.1,229.6,1080.2,224.3L1080.2,224.3z M1125.2,232.6c-1.8,3-3.7,5.4-5.1,8.2c-1.8,2.7-3.2,5.4-5.3,7.5
		c-0.8,0.8-1,1.8-1.8,2.2c-0.3,0.6-0.8,0.8-1.3,0.3c-2.4-0.6-3.8-2.6-4-5.9c-0.2-4.3,0.6-8.8,2.4-13.4c1.4-3.8,2.4-8.2,4.8-11.8
		c0-1.1,0.5-2.2,1.6-3.2c2.6-2.4,3.7-5.9,6.4-8.5c1.6-1.4,3.5-2.9,5.9-4.3c2.9-1.4,5.8-1.4,8.5,0c-0.2-0.2,0.5,0.3,1.9,1.3
		c1.8,1.1,3.2,0.8,4.3-0.8c0.2-0.2,0.2-0.3,0.2-0.5c1.8-2.2,3.5-2.2,5.3,0c0.2,0.6,0.6,1.6,1.3,2.4c0.2,0.5,0.2,1.1,0,1.8
		c-1.8,2.7-2.4,5.6-4.2,8.3c-1.9,3-2.7,6.4-4,9.1c-0.6,1.1-0.8,2.2-1.3,3c-2.1,3.7-3.2,7.5-5.6,11.2c-1.3,2.4-1.8,4.6-1.6,7
		c0,0.2,0.2,0.3,0.3,0.3c0.5,0,0.6,0,0.8-0.2c2.7-3.7,5.8-7,8.8-10.7c1.8-2.1,5.6-8.3,7.5-11c-0.2,0.5,0.3,0,1.8-1.4
		c0.2,1.1-0.3,2.6-1.1,4l-5.3,8c-2.1,3.2-3.8,5.8-5.3,7.5c-1.9,2.7-3.5,4.5-4.8,5.6c-2.4,2.7-5,2.6-7.7-0.2
		c-1.1-0.8-1.6-2.1-1.6-3.5c-0.3-3,0.2-5.9,1.4-8.6c0.6-2.1,1.1-4.6,2.6-6.7c1.4-1.8,1.9-4.3,2.7-6.9c0.5-1.6,1.1-3.7,1.6-6.1
		c0.5-2.6,0.8-3.8,0.8-4c0.6-0.6,1-1.9,1.8-2.7c0,0-0.3,0-0.3-0.5l-0.3-0.2c-0.8,0.6-1.9,0.8-2.6,1c-2.6,0.8-4.6,1.8-6.2,2.9
		c-0.8,0.8-1.1,1.3-1.1,1.4c-0.2,1.9-1.9,2.7-2.6,4.2c-2.1,3.4-4.5,6.7-5.6,10.7c-2.4,3.7-3.5,8.2-5,12.2c0.2-0.2,0.3,0,0.3,0.8
		c0,0,0.5-0.3,0.6-0.5c1.8-2.4,3-4.3,3.8-5.8c0.8-0.6,1.1-1.8,1.9-2.6c2.1-1.8,3.7-4.3,5.4-6.7c1.4-2.4,3.2-4.2,4.6-6.9
		c1.4-2.4,2.7-4.2,3.8-5.1c1.1-1,0.6,0.6-1.8,4.8C1130.7,224.3,1127.8,228.3,1125.2,232.6L1125.2,232.6z M1116,231.8
		c0-0.2-0.2-0.5-0.5-0.6c-0.2,0.2-0.3,0.5-0.3,0.8c0,0.2,0.2,0.5,0.5,1c0,0,0.3-0.3,0.3-0.8V231.8z M1134.8,234.2
		c0,0.2,0.2,0.6,0.2,0.6l0.3-0.2c0-0.2-0.2-0.3-0.2-1C1135,234.1,1134.8,234.2,1134.8,234.2L1134.8,234.2z M1136.1,232.2l-0.2-0.2
		v0.2H1136.1z M1138,227.4c-0.3,0.2-0.5,0.5-0.5,0.8c0,0,0,0.3,0.5,0.3c0-0.2,0.2-0.6,0.2-0.8C1138.2,227.7,1138,227.5,1138,227.4z
		 M1140.9,221.6V221l-0.5,0.5c-0.5,0.2-0.3,0.8-0.3,0.8l-0.5,0.5v1l0.5-0.5v-1C1140.6,222.1,1140.8,221.9,1140.9,221.6z"/>
	<path class="st4" d="M1176.2,239.5c-2.7,5.8-5.1,9.9-7.4,12.5c-2.7,3.4-5.6,5.3-8.6,5.9c-1.9,0.2-3.4,0.3-4.2,0.3
		c-3.2,0-5.3-1.4-6.4-4.2c-2.7-5.3-3.5-10.6-2.4-15.8c2.1-10.7,5.3-21.4,9.9-31.9c1.9-4.5,3.7-9.1,6.1-13.8
		c-0.3,0.2-0.8,0.2-1.3,0.2c-1.4,0-3.4,0.2-4.8,0.2c-1.4,0.2-2.7,0.3-4.2,0.3c-0.5,0-0.6-0.2-0.8-0.5c-0.5-0.5-0.5-0.8-0.3-1.3
		l0.8-1.8c0.5-0.5,1-0.8,1.6-0.8c2.1,0.2,3.8,0.2,5.4-0.2h1.1c1.4,0,2.7-0.3,4.2-0.5c2.6-4,5.4-7.8,7.5-12.2
		c0.3-0.2,0.6-0.6,0.8-1.3l1.3-2.2c1.4-0.3,3-0.3,4.6,0c2.4,0.5,3.7,2.1,3.7,5.1c0,0.6-0.5,1.3-0.5,1.9l-5.3,8.5h1
		c1.4,0.2,3.2,0,5,0c1.3,0,4,0.2,5.4,0c0,0,0.6-0.2,0.8-0.2l0.3,0.3c0,0.8,0,1.6,0.5,2.2c0.3,1-0.2,1.6-1.4,1.9h-0.5
		c-1.8,0-3.7,0.2-5.1,0c-2.9-0.2-5.8-0.2-8.5,0h-0.2c-4,6.4-7.5,13.6-10.6,21.4c-4.3,10.6-7.4,20.5-9.3,29.7c-0.8,3.7-0.8,6.9,0,9.6
		c0.5,1.8,1.4,2.4,3,2.1c5.4-1.1,10.1-5.1,13.9-12.3c4-7.2,6.9-13,9-17.3c0.6-2.1,2.7-0.5,2.2,0.3
		C1181.2,229.1,1178.9,233.6,1176.2,239.5L1176.2,239.5z M1150.8,232.2c0,0-0.3-0.2-0.3-0.6c-0.2,0-0.3,0.2-0.3,0.5
		c-0.3,1.8-0.5,2.7-0.5,2.9c0,2.4,0.3,4.2-0.2,6.1c0,0.2,0.2,0.6,0.2,0.6c0.2-0.3,0.3-0.5,0.3-0.6c0.2-2.7,0.3-4.3,0.5-4.8
		C1150.7,235.2,1150.8,233.9,1150.8,232.2L1150.8,232.2z M1151,229.6l0.2,0.2c0,0,0.2-0.2,0.3-0.2c0.5-1.4,0.6-1.9,0.3-1.4l-0.2-0.5
		l-0.5,0.5c-0.2,0.2-0.2,0.3-0.2,0.6C1151,229.4,1151,229.6,1151,229.6L1151,229.6z M1151.8,225.3l0.5,0.5c0.2,0,0.3-0.2,0.5-0.5
		c-0.2,0.3,0-0.2,0.5-1.3c0-0.8,0.6-2.1,0.5-3.5c-1.4,0.8-1.1,2.6-1.6,3.4c-0.2,0.2-0.3,0.6-0.3,1.1L1151.8,225.3z M1154.7,218.4
		c1.1-3,2.2-6.4,4.2-9.4c0.2-0.2,0.2-0.5,0.2-1c0-0.2-0.2-0.3-0.3-0.3c-0.5,1.4-2.1,1-2.6,1.6c-0.5,0.5-0.5,0.8,0.2,0.8
		c0.5,0,0.8,0.3,0.6,0.8c-0.5,1.1-1,2.2-1.6,3.4c-0.5,1.4-1.1,2.7-1.3,4c0,0.2,0.2,0.5,0.2,0.6
		C1154.5,218.7,1154.7,218.6,1154.7,218.4L1154.7,218.4z M1161.5,200.1l-1.3,1.1c-0.3,0.3-0.3,0.6,0,1.1c0.8,0.8,1.3,0.8,1.8,0
		c0.6-1.4,1.1-2.7,1.6-3.5c0-0.2-0.2-0.6-0.2-1.3c-0.3-0.3-0.5-0.5-0.6-0.5s-0.5,0.3-0.5,0.3c-0.2,0.8-0.6,1.4-1.1,1.9
		c0-0.2,0.2,0.2,0.5,1L1161.5,200.1L1161.5,200.1z M1161.3,189.3l-0.3-0.2l-0.2,0.2l0.2,0.2L1161.3,189.3c0.2,0.2,0.5,0.2,1,0
		c0,0,0.2,0.2,0.2,0h-0.2C1162.1,189.2,1161.8,189.2,1161.3,189.3z M1163.7,189.2h-0.2c-0.2,0-0.3,0.2-0.3,0.2h0.2
		C1163.4,189.3,1163.6,189.2,1163.7,189.2z M1164.7,195.7c0,0.2,0,0.3,0.2,0.5c0,0,0.2,0,0.2-0.5c0-0.2,0.2-0.6,0.6-1.3l-0.3-0.2
		c-0.3,0-0.5,0-0.5,0.2c-0.2,0.2-0.2,0.3-0.2,0.6L1164.7,195.7L1164.7,195.7z M1176.7,189l0.2-0.2h0.3h-0.3L1176.7,189z
		 M1178.1,188.7l-0.2,0.2c0,0,0,0.2,0.2,0.2c0.2,0.2,0.5,0.2,1-0.2c0.2,0.2,0.2,0.3,0.3,0.2h-0.3
		C1178.8,188.5,1178.5,188.5,1178.1,188.7z M1180.4,189c0,0-0.3-0.2-0.3,0h0.5c0.2,0.2,0.5,0.2,0.6,0h0.5h-0.5
		C1181,188.9,1180.7,188.9,1180.4,189L1180.4,189z"/>
	<path class="st4" d="M1193.3,236.5c-2.7,4.5-5.3,7.8-7.7,10.1l-2.2,2.4c-1,0.5-1.6,0.8-2.1,0.8c-2.7,0.3-4.5-0.6-5.3-2.9
		c-1.1-3.2-1.3-6.4-0.5-9.4c1.1-3,1.8-6.1,3.5-9.1l1-2.6c2.6-7.5,6.7-15,9.8-20.6c0.3-0.8,0.8-1.1,1.4-0.6c1,1.1,2.2,1.8,3.7,1.9
		c1.6,0.5,2.1,1.8,1.6,3.5c0.2-0.5,0-0.2-0.5,1.3c-2.4,4.3-4.3,8.3-5.9,12c-2.1,3.8-4.2,8.3-6.2,13.4c-1.3,2.2-2.1,4.8-2.4,7.5
		c-0.3,0.8-0.3,1.4,0,2.1c0,0.6,0.2,0.8,0.6,0.3c2.1-1.1,3.7-2.4,4.8-4.2c1-1.1,2.9-4,5.6-8.5c2.9-4.5,4.8-7.5,5.6-9
		c0,0,2.1-0.6,1.6,0.6C1198.3,228.3,1196.1,232,1193.3,236.5z M1177.8,233.4v0.3l0.3-0.3c0-0.2,0-0.3-0.2-0.5h0.3v-0.5
		c0,0.2-0.2,0.5-0.2,0.5C1178,233.1,1177.8,233.3,1177.8,233.4L1177.8,233.4z M1179.1,236.2l-0.2,0.2v0.3
		C1178.9,236.3,1178.9,236.2,1179.1,236.2c0.6-0.8,1-1.6,1-2.7c0.3-0.2,0.5-0.6,0.5-1.4c1.6-1.6,2.6-3.7,2.7-6.2
		c0.5,0,1-0.6,1.4-2.1c1.1-1.9,1.9-4.5,3-6.6l1.6-3.5c0.2-0.2,0-0.3-0.2-0.6l-0.2,0.2c-0.5,0.5-0.8,1-1.3,1.8c-1.4,3-2.7,5.9-3.8,9
		c-0.3,0.8-0.5,1.4-0.5,2.1c-0.6,0.5-1.6,1.9-2.7,4.6c-0.2,0.2-0.2,0.6-0.2,1.4c-0.3,0.2-0.5,0.6-0.5,1.4
		C1179.3,234.1,1178.9,235,1179.1,236.2z M1180.4,228.2c-0.8,0.2-1,0.6-0.6,1.4c-0.3,0.2-0.5,0.5-0.5,1.3c-0.3,0-0.3,0.2-0.2,0.3
		c0,0,0.2-0.2,0.2-0.3c0.2-0.2,0.3-0.6,0.3-1.4c0.5-0.2,0.8-0.5,0.6-1.3c0.3-0.2,0.5-0.8,0.5-1.6c0.5,0,0.6-0.2,0.2-0.3
		c0,0.2,0,0.5-0.2,0.6C1180.2,227,1180.2,227.5,1180.4,228.2z M1182.5,223.4l0.2-0.2c0-0.8,0.2-1.1,0.5-1.3c0-0.5,0.2-0.8,0.6-1.4
		c0,0,0.2-0.3-0.3-0.2c-0.2,0.8-0.5,1-0.5,1.6c-0.2,0.5-0.5,0.8-0.5,1.3L1182.5,223.4L1182.5,223.4z M1185.2,216.8
		c0.5-0.2,0.6-0.6,0.5-1.3c0.5-0.2,1-0.5,1.1-1.3c0,0-0.2,0-0.2-0.5c0,0.2-0.2,0.3-0.2,0.3l-0.6,1.4l-0.5,1.6
		c-0.2,0.5-0.6,1.1-0.6,1.3l-0.2,0.2v0.2c0-0.2,0-0.3,0.2-0.3C1185,218.2,1185.2,217.8,1185.2,216.8L1185.2,216.8z M1186.1,223.4
		c0,0.2,0.2,0.5,0.2,0.5s0.2-0.2,0.2-0.3v-0.8h0.2l0.2-0.2l-0.3,0.3C1186.5,223.4,1186.1,223.4,1186.1,223.4L1186.1,223.4z
		 M1190.5,210.8c0,0,0-0.3,0.2-0.3h0.2c0-0.2,0.2-0.3,0.3-0.3v0.2h-0.5C1190.6,210.5,1190.6,210.6,1190.5,210.8L1190.5,210.8z
		 M1197.7,204.7c-0.2,0.3-1.3,0-3.2-1c-1.9-1-2.7-1.8-2.6-2.2c0.5-1.8,0.6-2.7,0.8-2.9c0.2-0.2,0.5-1.3,0.8-3
		c1.3-1.6,2.7-1.6,4.5-0.2c1.8,1.4,2.9,2.7,3.7,3.5c0.8-1.1,0.8-1-0.3,0.3C1200.7,201.7,1198.3,202.6,1197.7,204.7L1197.7,204.7z"/>
	<path class="st4" d="M1213,235.5c-0.8-1.1-1-1.9-0.2-2.6c0-0.2,0.3-0.8,0.8-1.6c3.2-5.3,5.4-11.5,6.7-18.7c0.8-5-0.2-9.4-2.7-13.4
		c-0.5-0.8-1.1-1.9-1.9-3.7c-0.3-0.6-0.3-1.4,0.2-2.6c0.5-1,1-1.1,1.3-0.3c1.1,1.8,3,2.7,5.4,3.2c1.4,0.3,2.6,1.3,3.5,2.9
		c0.8,2.1,1.8,4.8,3,6.9c0.2,0.2,0.2,0.3,0.2,0.8c-0.5,3.2,0.2,6.4-0.3,9.4c-1.6,7.5-5,14.9-9.9,21.8l-3.2,4.2
		c-2.6,3.7-6.4,5.6-10.1,7.5c-2.4,1.1-4.5,0.8-6.6-1.3c-2.7-2.7-4.2-6.1-4-10.4c0.5-6.7,1.9-13.3,4.5-19.8c0.6-1.6,1.8-3.8,3.5-6.7
		c1.4-3,4.3-4.8,7-6.9c0.8-0.6,2.1-0.6,3.7,0l2.4,1.4c1.1,1.1,1.1,2.1,0.3,3.2c-0.8,0.8-1.9,1.9-3.4,3c-1.1,1.1-1.6,2.1-1.8,2.9
		c-0.2,0.5-0.6,1.4-1.8,2.7c-2.7,3.7-4.6,7.7-5.6,12c-1.3,4-2.4,8-2.4,12.3v1.8c0,0.8,0.3,1,1.1,0.8l1.9-1c3.4-1.3,5.6-4.6,6.9-7.4
		c3.7-0.6,5.1,0.8,5.9-2.4c0,0-0.6-0.5-0.8-0.5c-0.5,0-1,0.2-1.4,0.5c-1.1,0.5-1.1,1.9-2.6,1.9h0.4V235.5L1213,235.5z M1225.1,212.8
		c-0.3-0.2-0.6,0-0.8,0.2c-0.3,0.8-0.5,1.1-0.5,1.1c0,1-0.3,2.4-1.1,4.2c-1.1,2.1-1.9,4.5-2.6,6.6c0,0.5,0.2,0.8,0.3,0.8h0.6
		c1.1-0.5,1.8-1.4,2.2-2.7c1-3.8,1.8-6.7,2.4-8.8c0-0.2-0.2-0.3-0.2-1C1225.4,213,1225.3,212.8,1225.1,212.8L1225.1,212.8z
		 M1221.9,199.3l0.2-0.2h-0.2V199.3z M1225.6,207.6c0-0.2-0.2-0.3-0.3-0.5c0,0-0.2,0.2-0.5,0.6c0,0.5,0.2,0.6,0.3,0.8
		c0,0.5,0.2,0.6,0.2,0.6l0.3-0.5V207.6L1225.6,207.6z M1270.1,237c-3.7,5.6-6.1,9-7,10.2c-0.6,1-1.8,2.2-3.2,3.8
		c-1.4,1.3-3,1.3-4.5,0c-2.9-2.1-4.5-4.3-4.6-6.9c-0.3-2.1,0-4.8,1-8c2.1-7,3-12.5,6.7-19.5c2.7-5,3.8-7.5,3.4-7.7
		c-1.1,0.2-2.2,1.1-3.4,2.6c-2.6,3.4-5.1,6.2-7.7,9.4c-4.5,5.8-8.8,11.8-12.5,18.2c-1.1,2.1-2.2,3.7-3.7,5l-1.9,2.7
		c-0.6,0.6-1.1,1.6-1.6,2.4c-1.1,1.6-2.6,1.8-4.3,0.6c-2.9-1.4-3.5-3.8-2.1-7.4c1.9-3.7,3.8-7.7,5.1-11.7c0.5-1.3,1.1-2.2,1.3-3.5
		c4.3-8.2,7.7-16.5,11.4-25.3c0.5-1.8,1.6-2.4,3.2-1.6l4.2,2.6c1.6,1.1,2.1,2.7,1.3,4.6c-2.4,4.6-5,9.6-7,13.9
		c-1.8,3.8-3.7,7.2-5,10.6v1c0,0,0.3,0,0.5-0.5s0.8-0.6,1.3-1.4c3.7-5.8,8.3-11.4,13.3-17.1c1.8-2.1,2.1-3.4,4.2-5.9
		c1.8-2.1,3.8-4.8,5.8-6.9c0.8-0.8,1.3-1,1.6-0.6c1.4,1.1,2.9,1,4.3,1.4c0.6,0.6,3.2,2.9,3.2,3.5c0,4.6-3.7,9.9-5.8,14.4
		c-0.6,1.1-1.4,2.7-2.4,5c-0.2,0-0.2-0.2-0.2-0.2h-0.5c-0.2,0.2-0.3,0.5-0.3,0.8c0,0.2,0.2,0.5,0.3,0.5l-2.2,5.9
		c-0.3-0.5-0.5-0.6-0.6-0.6c-0.5,0-0.6,0.3-0.6,1c0,0.2,0.3,0.5,0.8,1l0.2-0.6c-0.2,1.1-0.5,1.9-0.6,2.6l-0.5-0.2v-0.6l-0.2-0.2v0.3
		c0,0.2,0.2,0.3,0.3,0.3v1.3l-0.2,0.2v0.3l0.2-0.3c-1.8,1.1-2.4,2.7-1.9,4.6c-0.2,0.2-0.8,0.3-0.8,0.3l-2.6,4.5
		c-0.2,0.2-0.2,0.3-0.2,0.5c0,0.5,0.2,0.6,0.2,0.6c0.5,0.3,0.6,0.3,0.6,0c1.4-1.8,2.2-3.8,2.7-6.1c0.3-0.3,0.8-0.8,1.3-1.6l-0.3,1.1
		c-0.6,2.7-0.8,4.5-0.6,5.3c2.1,0,3.4-1.9,4.8-3.4c0.5-0.6,2.6-3.4,6.1-8.3c3.5-5,5.6-7.8,6.1-8.3c0.6-1.1,1.9-0.8,1.3,0.6
		C1276.4,227.7,1274,231.4,1270.1,237L1270.1,237z M1234.1,238.4c-0.3,0-0.5,0-0.6,0.2c0,0.5-0.2,0.8-0.2,1s0.2,0.5,0.2,0.5
		c0.2,0,0.3-0.2,0.6-0.3c0.2-0.2,0.2-0.3,0.2-0.8C1234.2,238.7,1234.2,238.6,1234.1,238.4L1234.1,238.4z M1236,225.3l-0.2,0.3
		c-0.2,0.5-0.3,0.6-0.3,0.8c0,0,0.2,0.5,0.3,0.5c0,0,0.2,0.2,0.2-0.3c0.2-0.2,0.3-0.5,0.3-0.6C1236.2,225.9,1236,225.8,1236,225.3z
		 M1238.1,219.2c0.2,0.5,0.5,0.8,1,0.8s0.6-0.3,0.5-1c0,0.3-0.2,0.2-0.5-0.6C1238.4,218.9,1238.1,219.2,1238.1,219.2z M1239.5,215
		c1.8-0.8,2.4-2.4,2.1-4.5c0,0,0.5-0.3,0.6-0.5l2.6-4.5c0.2-0.2,0.3-0.3,0.3-0.5c0,0-0.3-0.2-0.3-0.6h-0.5c-1.4,1.9-2.4,4-2.7,6.1
		c-1.3,1.3-1.9,2.9-1.9,4.6c-0.6,0.5-0.6,1,0,1.3v0.6l0.2,0.2c0,0,0.2,0,0.2-0.5c-0.2,0-0.5-0.2-0.5-0.3L1239.5,215L1239.5,215z
		 M1266.4,213.1c0,0,0.3-0.2,0.5-0.3c0,0,0.3-0.3,0.3-1c0,0-0.3-0.3-0.3-0.5c-0.2,0.2-0.5,0.3-0.5,0.3c-0.2,0.2-0.2,0.3-0.2,0.8
		C1266.2,212.8,1266.2,213,1266.4,213.1z"/>
	<path class="st4" d="M1278.2,255.2c-3.7-0.6-6.7-1.1-10.4-1.9c-2.4-0.5-3.2-2.6-5.1-4V248c0.5-0.8,0.8-1.3,1-2.1l7.7-13.8
		c1.3-2.6,2.2-5.1,3.7-7.7c0.8-2.6,2.2-5,3.4-7.4c1.8-3.5,2.9-6.1,3.4-7.8c0.8-3.7,2.9-7.5,6.2-11.8c0.3-0.5,1-1.1,2.1-1.8
		c1.8-0.6,4.3,1,6.1,1.4c0.2,0,2.9,1.9,2.7,2.7c-1.4,2.4-6.4,7-7.7,9.1c-2.6,4.8-2.9,8.8-1,11.8c1.1,1.9,2.1,3.8,3.4,5.6l2.4,4.3
		c2.4,5,1.4,10.2-2.6,16c-1.4,2.1-3.2,4-5.6,5.9c-1.3,0.6-2.4,1.3-3,1.8C1282.3,254.6,1279.9,255.4,1278.2,255.2z M1274.3,230.7
		c-0.2-0.3-0.3-0.5-0.3-0.5v0.5c0,0.2,0.3,0.5,0.5,0.5c-0.3,1-0.5,1.4-0.5,1.4c-1.8,1.6-3.2,3.8-4.3,6.7c-0.6,2.1-1.8,3.8-2.6,5.9
		c-0.6,1.9,0.3,4,1.8,3.2c1.8-0.5,2.7-0.2,4.2-0.2c0.8,0,2.1,0.2,3.4,0c5.6-0.2,9.6-3.4,12.3-9.9c1.1-2.7,1.1-5,0.3-6.9
		c-0.8-1.4-2.1-3.5-3.5-6.2c-1.4-1.9-2.4-3.7-3.7-5.6c-0.2-0.5-0.5-0.6-0.6-0.6l-0.6,0.8c-1.8,3.8-3.8,7.7-6.2,11.5v-0.6
		L1274.3,230.7L1274.3,230.7z M1291.3,242.6c1.1-2.7,1.1-5.1,0-7c0,0.2-0.2,0.2-0.6-0.3c-0.2,0.2-0.2,0.5-0.2,0.6
		c-0.5,2.7-0.6,5.1-1.1,7.5c-1.8,1.4-2.7,2.7-3,3.8c-0.2,0.2,0,0.3,0.2,0.8c0,0,0.2,0,0.3-0.2c1.8-1.8,2.6-3.2,2.4-4.5
		C1290.3,243.4,1291.1,243,1291.3,242.6L1291.3,242.6z"/>
</g>
<path class="st5" d="M431.6,549.8c-2-11.1-3.7-22.2-4-33.5c-0.7-29.1,6.7-56.3,18.7-82.6c9.1-20.1,20.8-38.7,32.9-57.1
	c13.2-20,27.1-39.4,39.9-59.6c6.5-10.3,12.4-20.9,18.3-31.4c1.1-2,2.2-4,3.6-5.8c2.1-2.7,3.9-2.4,5.4,0.9c0.2,0.5,0.3,1,0.5,1.5
	c2.9,11,7.8,21.1,13.1,31c12.9,24.3,21.2,50.2,24.1,77.6c3.3,30.9-1.1,60.6-14,89c-10.7,23.6-24.2,45.2-41,64.9
	c-1.3,1.6-3.2,2.9-3.5,5.1H431.6L431.6,549.8z M1481.4,551.9c-1-2.2-2.9-3.7-4.5-5.3c-11.1-11.7-21.7-24-30.4-37.7
	c-15.4-24.4-23.5-51-25-79.8c-1.6-29,1.6-57.5,9-85.5c0.5-1.8,1-3.7,1.8-5.4c1.4-3.3,3.3-4.1,6.7-3c3.4,1.1,6.4,2.9,9.4,4.8
	c17.7,11.8,31.8,26.8,42.4,45.2c13.2,22.9,21.4,47.6,26.5,73.4c3.4,17.2,5.5,34.5,5.2,52.1c-0.2,12.3,7.8,23,6.1,35.2
	c-0.2,1.5-0.3,12.2,0,13.7C1515.9,559.6,1494,551.9,1481.4,551.9z M2038.4,550.4c7.9-26.6,23.9-48.2,42.2-68.4
	c17.1-18.9,37.1-34.4,58.7-47.8c9.9-6.2,19.9-12.2,29.9-18.4c1.9-1.2,3.7-2.6,5.6-3.9v138.5H2038.4L2038.4,550.4z"/>
<path class="st6" d="M467.5,549.8c2-3.5,3.7-7.2,6-10.5c10.8-16,21.4-32.2,30.2-49.5c12.9-25.4,22.3-52,29.2-79.6
	c1.3-5.1,2.6-10.2,4-15.3c0.4-1.6,1-3.2,2.3-4.6c-0.1,1.2-0.2,2.4-0.5,3.5c-7.7,36-18.7,70.7-36.4,103.2
	c-7,12.8-14.7,25.2-23.1,37.2c-3.6,5.2-7.2,10.4-10.8,15.7C468.2,549.8,467.8,549.8,467.5,549.8L467.5,549.8z M1498.1,550
	c-2.6-4.7-5.1-9.4-7.7-14.1c-10.1-18.7-17.7-38.4-24.8-58.4c-4.6-13-9-26.1-13.4-39.2c-0.6-1.8-1-3.7-0.7-5.9
	c2.2,6.2,4.5,12.4,6.7,18.6c7.8,22.2,15.5,44.5,25.4,65.9c4.5,9.7,9.7,19,14.5,28.5l2.1,4.5C1499.6,550,1498.8,550,1498.1,550z"/>
<path class="st7" d="M1525.1,550c-4.1-7-8.7-13.6-12.8-20.5c-6.6-10.9-11.6-22.4-16-34.3c-6.4-17.1-10.5-34.7-10.1-53
	c0.3-17.1,4.6-33,15.5-46.6c8.3-10.3,18.7-17,31.9-18.6c8.5-1,16.5,1.4,23.8,5.6c10.7,6.3,18.1,15.9,23.7,26.9
	c8.5,16.4,11.7,34.2,13.6,52.3c2.8,25.5,1.9,51,0.5,76.5c0,0.7,0,1.4,0.5,2.2c0.4-1,0.9-2,1.1-3c3.5-18.3,7.1-36.6,12-54.6
	c5.2-19.4,11.1-38.6,20.8-56.2c12.6-22.9,29.6-41.7,52.9-54.3c12.5-6.8,25.9-9.6,39.8-7c14.1,2.6,23.3,11.5,28,25.1
	c2.5,7.4,2.9,14.9,2,22.4c-0.9,7.8-3.2,15.5-6,22.9c-8.7,22.4-21.9,41.8-38.7,59.1c-17.5,18-35.6,35.5-53.2,53.4
	c-0.5,0.5-0.7,1.2-1.1,1.8C1610.5,550,1567.8,550,1525.1,550L1525.1,550z M1938.6,549.6c-0.3-13.3,1.3-26.5,3.5-39.6
	c2.4-14.6,6.1-29,11.1-43c10.2-28.4,23.9-55,41.8-79.3c16.8-22.6,35.7-43.3,59.2-59.3c7.1-4.8,14.8-8.6,22.6-12
	c4.9-2.1,7.2-0.2,6.8,5.2c-1.5,17-2.7,34.1-4.5,51.1c-1.8,16.8-4.6,33.5-9.1,49.9c-10.7,39.6-30.8,74.2-55.6,106.4
	c-4.3,5.5-8.7,10.9-13.1,16.3c-1.1,1.3-2.4,2.5-2.9,4.3H1938.6z M0.4,551.5c0-36.3,0.1-72.7-0.1-109c0-5.3,1.5-9.6,4.4-14
	c15.3-23.2,34.7-42.7,55.9-60.6c16.2-13.8,33.1-26.9,47.9-42.2c10.1-10.4,20.1-21,27.1-33.8c0.4-0.7,0.9-1.1,2.1-1.3
	c1.4,1.5,0.6,3.2,0.3,4.9c-1.4,7.1-2.8,14.1-4.4,21.1c-2.3,10-3.9,20.1-4.9,30.3c-2,19.1-3.5,38.3-5.9,57.4
	c-1.7,13.5-5.2,26.8-8.6,40.1c-3.1,11.7-6.8,23.1-11.9,34.1c-8.3,18-20,33.8-33.1,48.7c-7.5,8.4-15.6,16.3-23.4,24.4
	C30.7,551.5,15.5,551.5,0.4,551.5L0.4,551.5z M477,549.8c-28.9-26.7-53.4-57.1-75.9-89.3c-11.2-16-19-33.6-22.7-52.8
	c-2.2-11.5-3-23-0.4-34.5c2.6-11.4,8.2-20.7,19.1-25.6c10.3-4.6,21-3.6,31.2,0.7c14.1,6,24,16.8,32.8,28.8
	c11.1,15.1,19.1,31.8,26.2,49.1c6.9,16.7,12.9,33.7,17.9,51.1c3.7,13,5.9,26.4,7.3,39.8c1.2,10.8,2.1,21.7,2.4,32.6
	C502.3,549.8,489.7,549.8,477,549.8L477,549.8z M563.6,549.8c3.4-8.5,6.1-17.2,9.8-25.5c10.7-24.3,23.7-47,42.8-65.9
	c15.5-15.3,33.7-25.9,55-30.4c10.5-2.2,21.3-3,31.7,1.1c16.5,6.4,21.7,21.3,15.9,37.6c-4.9,13.9-14.1,25-24.3,35.3
	c-15.8,15.9-33.7,29.1-51.5,42.6c-2.2,1.7-4.8,2.9-6.5,5.3C612.2,549.8,587.9,549.8,563.6,549.8z"/>
<path class="st8" d="M1627.3,550c1.4-4.6,2.5-9.2,4.2-13.7c1.5-4.1,2-8,1.7-12.3c-1-13.1-0.4-26.1,1.2-39.1
	c1.1-8.8,2.4-17.5,3.6-26.2c0.1-0.9,0.4-1.7,1.6-2.5c-0.1,2.9-0.2,5.9-0.4,8.8c-1.2,15.6-2.6,31.2-3.7,46.7c-0.2,3,0.1,6.1,1.3,9.3
	c0.6-1,1.3-1.9,1.8-3c5.3-11.4,10.6-22.7,15.6-34.1c1.5-3.5,2.5-7.3,2.9-11.1c2.1-20.2,6.2-40,11.8-59.5c0.1-0.5,0.5-1,1.1-1.4
	c-3.2,19.9-8.4,39.5-10.1,60.7c1.3-1.7,2.1-2.8,2.9-3.9c7-10.6,14-21.2,20.9-31.9c1.2-1.9,2.1-4.3,2.7-6.5c1.9-7.3,3.5-14.7,5.3-22
	c0.6-2.3,1.5-4.5,3.1-6.5c-1.8,8.3-3.6,16.5-5.4,24.8l1.2,0.6c7.6-8.1,13.7-17.7,22.2-25.1c-4.8,9-12,16.4-18.4,25.9
	c6.3-1.6,10.9-4.6,15.9-6.4c4.9-1.8,9.8-3.7,14.7-5.5c0.2,0.4,0.3,0.8,0.5,1.2c-1.6,0.7-3.1,1.5-4.7,2.2c-9,4.1-18.1,8.1-27.1,12.3
	c-2.1,1-4.3,2.5-5.5,4.3c-7.4,11-14.6,22.1-21.9,33.2c-0.3,0.4-0.3,1-0.9,2.9c14.4-9.3,27.3-19.2,42.5-25c-1.1,0.8-2.2,1.6-3.3,2.3
	c-13.7,8.3-27.3,16.8-39.5,27.2c-4.1,3.5-7.6,7.4-9.9,12.4c-4.3,9.8-8.8,19.4-13.2,29.1c-0.7,1.5-1.1,3-2.1,5.8
	c2.1-1.2,3.3-1.8,4.4-2.5c10.5-7.1,21-14.3,31.5-21.4c2.4-1.6,5-2.7,7.5-4c0.2,0.4,0.5,0.7,0.7,1.1c-2.3,1.7-4.6,3.3-6.9,5
	c-12,8.5-24,17.1-36,25.5c-3,2.1-5,4.8-6.3,8.2c-1.7,4.7-3.4,9.3-5.1,14C1628.8,550,1628.1,550,1627.3,550L1627.3,550z M1.6,527.8
	c5.3-7.6,10.8-15,13-24.5c4-17.5,8.5-34.9,12.9-52.4c0.8-3.3,2-6.5,3.6-9.6c-4.5,20.4-10,40.5-12.9,61.4c4.8-6.5,9.6-12.9,14.2-19.5
	c1.3-1.9,1.7-4.3,2.4-6.6c5.6-18.8,11.2-37.6,16.8-56.3c0.5-1.8,1.3-3.6,2-5.3c0.4,0.1,0.7,0.2,1.1,0.4c-5.7,19.9-11.3,39.9-17,59.8
	c0.4,0.4,0.9,0.7,1.3,1.1c0.3-0.8,0.5-1.8,1-2.5c6.1-8.2,12.4-16.3,18.4-24.6c1.4-2,2.2-4.5,2.8-6.9c4-14.4,7.8-28.8,11.7-43.2
	c0.9-3.3,2.1-6.5,3.1-9.7c0.4,0.1,0.7,0.2,1.1,0.3c-4.2,16.3-8.4,32.5-12.6,48.8c0.4,0.2,0.7,0.3,1.1,0.5
	c14.2-19.9,24.9-41.8,36.4-63.3c0.1,7.2-13.1,32.5-33,65.6c5-4.1,9.9-8.2,14.9-12.2s10.1-8,15.9-11.3c-0.8,0.9-1.5,2-2.5,2.8
	c-10.3,8.7-20.7,17.3-30.9,26.1c-2.7,2.3-5.3,4.9-7.6,7.6c-4.8,6-9.3,12.1-13.3,18.8c9.2-6.5,18.4-12.9,27.6-19.4
	c0.2,0.2,0.4,0.5,0.6,0.7c-0.8,0.8-1.5,1.7-2.4,2.3c-9.7,7.2-19.4,14.4-29,21.6c-1.9,1.4-3.9,2.7-5.3,4.5
	c-6.9,8.9-13.7,18-20.1,27.5c4.5-1.6,8.3-4.3,12.3-6.7c4-2.4,8-4.9,12-7.2c4.1-2.4,8.3-4.8,13-6.4c-0.9,0.7-1.7,1.4-2.7,2.1
	c-11,7.1-22.1,14.2-33,21.4c-5.1,3.4-9.5,7.5-12.2,13.3c-0.9,1.9-1.3,4.8-4.7,4.2L1.6,527.8L1.6,527.8z M498.1,549.8
	c-3.8-11.5-7.4-23.1-11.5-34.5c-1.1-3-3.2-5.8-5.5-8.2c-12.3-13.2-26.4-24.3-40.7-35.1c-1.8-1.4-3.6-2.8-5.1-4.6
	c3.1,0.7,5.5,2.7,8,4.5c2.6,1.9,5.1,3.8,7.6,5.7c2.7,2,5.3,4,8,6.1c2.6,2.1,5.2,4.3,7.7,6.4c2.4,2.1,4.8,4.1,7.1,6.3
	c2.4,2.3,4.8,4.6,8.1,7.8c-0.4-2.2-0.5-3.3-0.9-4.3c-6.7-16.3-13.9-32.4-23.6-47.1c-4.8-7.4-11.5-13.8-18-19.8
	c-5.8-5.3-12.7-9.4-19.1-14c-1-0.7-2-1.3-2.8-2.4c2.8,0.4,5.2,1.9,7.5,3.3c2.5,1.6,5.1,3.2,7.5,4.9c2.4,1.7,4.8,3.5,7.2,5.4
	c2.3,1.8,4.5,3.7,7.4,4.9c-7.4-11.8-14.8-23.6-22.3-35.4l0.9-0.6c9.1,11.5,16.4,24.4,25.6,36c-2.4-9.3-4.7-18.5-7.1-27.8
	c0.4-0.1,0.8-0.2,1.2-0.4c0.7,2.4,1.5,4.8,2.2,7.2c1.4,4.9,2.6,9.9,4.1,14.7c3.2,10.6,7.3,20.8,12.9,30.5
	c6.1,10.8,11,22.4,16.5,33.6c0.5,1.1,1,2.1,2,3.1c-1.6-15.5-2.3-30.9-0.9-46.4c0.5,8.2,0.9,16.5,1.6,24.7c1,11,2.4,22,3.7,33
	c0.2,1.6,0.7,3.1,1.2,4.6c4,12.6,8,25.1,12,37.7C499.5,549.8,498.8,549.8,498.1,549.8L498.1,549.8z M1567.7,550
	c-1-4.9-1.6-9.8-3-14.6c-0.8-2.7-2.4-5.5-4.4-7.5c-10.1-10.2-20.4-20.2-30.6-30.3c-2.4-2.4-4.9-4.7-6.9-7.4
	c13.7,10.7,26.4,22.5,39.2,34.8c-0.5-1.8-0.8-3.7-1.4-5.5c-4.7-14.3-9.4-28.7-14.4-42.9c-1.1-3-3-6-5.3-8.2
	c-5.5-5.4-11.4-10.4-17-15.4c3,0.5,3.7,0.9,8.7,4.9c2.8,2.3,5.6,4.6,9.1,6.5c-3.9-11-7.7-21.9-11.6-32.9c0.4-0.2,0.9-0.3,1.3-0.5
	c4.9,10.4,8.2,21.5,13.6,31.8c0.6-6.6,1.2-13.3,1.8-19.9c0.3,0,0.6,0,0.9,0.1c0,7.2,0.1,14.3,0,21.5c-0.1,5.6,0.9,10.9,2.7,16.2
	c3.9,11.1,7.5,22.3,11.2,33.5c0.6,1.7,1.2,3.4,2.2,5c2.8-18.5,6.2-36.8,11.5-54.7c0.4,0.1,0.8,0.2,1.2,0.2
	c-0.9,4.4-1.8,8.9-2.7,13.3c-2.1,11.2-4.3,22.4-6.2,33.6c-1.7,9.9-1.6,19.8,1.1,29.6c0.8,2.8,0.9,5.8,1.3,8.7
	C1569.2,550,1568.4,550,1567.7,550L1567.7,550z M1961.7,549.6c3.8-13.2,7.5-26.6,11.6-39.7c5.8-18.7,12.9-37,22.1-54.3
	c10.2-19.1,21-37.9,32.2-56.4c7.4-12.2,15.9-23.8,24-35.6c1.2-1.8,2.8-3.4,4.9-5.9c0.3,3.5-1.3,5-2.3,6.6
	c-7.5,11.4-15.1,22.7-22.5,34.1c-12,18.5-23.1,37.5-33.1,57.1c-14.1,27.7-24.3,56.8-32.5,86.7c-0.7,2.5-1.4,5-2.2,7.5
	C1963.1,549.6,1962.4,549.6,1961.7,549.6L1961.7,549.6z M592.1,549.8c7.6-11.9,16.3-23,25.8-33.3c15.3-16.7,31.4-32.8,49.5-46.5
	c1.4-1,2.8-2,4.8-2.4c-0.8,0.9-1.6,2-2.5,2.8c-13.5,12.8-27.2,25.5-40.4,38.6c-12.7,12.5-23.8,26.3-34,40.9
	C594.2,549.8,593.2,549.8,592.1,549.8L592.1,549.8z"/>
<path class="st9" d="M1865.4,248.9c0-0.4,0.1-0.8,0.1-1.2c0-8.3-6.7-15-15-15h-0.8c-3.4-8.1-11.4-13.4-20.2-13.4h-1.3
	c-4.1-14.2-17.1-24.5-32.6-24.5c-16,0-29.5,11.1-33,26.1c-8.1,2.5-14.1,9.8-14.9,18.6c-1.7-0.5-3.6-0.8-5.4-0.8
	c-7.3,0-13.7,4.1-17,10.1L1865.4,248.9L1865.4,248.9z"/>
<path class="st10" d="M392.4,175.8c2.9-4.9,7.2-6.9,13-6.2c5.6,0.7,8.6,4.8,12,9.6c2.1-2.3,3.7-4.6,5.7-6.2c6.8-5.6,15.3-3.2,18.6,5
	c0.4,1,1,2.2-0.2,2.9c-1.3,0.7-1.9-0.7-2.5-1.5c-6.5-8.3-10-8.5-17.1-0.7c-1.3,1.5-2.5,3.1-3.8,4.6s-2.5,1.3-3.4-0.3
	c-0.6-1.1-1-2.3-1.6-3.5c-3.9-7.9-10.5-9.8-18-5.2C394.2,174.8,393.6,176,392.4,175.8L392.4,175.8z"/>
<g>
	<path class="st11" d="M1017.8,261.2h1.4c1.8-0.2,2.9-0.5,3.7-0.8c5.1-1.4,11.7-1.8,17-2.6c7.7-0.8,13.6-1.1,17.9-1.1
		c4.3-0.2,10.6,0.3,18.7,1.3c1,0.2,2.4,0.3,4.5,0.3c1.6,0,2.9,0.3,4,1c0.8,0.8,1.1,1.4,1.1,1.9c0,2.4,0.5,4.2,1.4,5.3
		c0.2,0.8,0.3,1.1,0.2,1.3c-0.6,0.5-1.1,0.6-1.6,0.6c-3.2-0.6-6.2-1-9.3-1.8c-10.2-1.1-20.3-2.6-30.5-2.6c-10.6,0-20.6,1.4-30.4,4.2
		l-12.2,3.4l-0.2,0.3l-0.8,0.2l-7,2.6c-0.8,0.3-2.1,1-3.8,2.1c-0.8,0.6-4-3.8-4.8-6.4c-0.5-0.8,0-1.4,1.1-1.9c4.3-1.8,7-5,10.9-7.5
		c1.8-1.3,1.9-3.2,2.7-5.3c1.4-3.4,2.4-6.7,3.8-10.4l0.2-0.3c0.2-0.8,0.5-2.2,1.1-4.3c0.6-2.2,1-3.4,1-3.5c0.5-0.2,0.6-0.6,0.6-1.1
		c-0.2-3.7,1.8-6.7,2.6-10.1c-0.2-1.6,0.3-3.4,1.8-5.4c1.1-2.1,1.6-3.7,1.4-4.8c0-0.5,0.3-1.1,1-2.1v1.1c0,0,0.2-0.2,0.2-0.3
		c0,0-0.2-0.3-0.3-0.8c-0.3-0.8-0.2-1.4,0.6-1.6c0.6-0.3,1-1,1-1.9l0.2-0.2v0.3c-0.8-1.1-1-2.1-0.2-2.9c0.5-0.5,1.1-1.3,1.8-2.2
		c0.5-0.8,0.8-1.3,0.6-1.6c0.5-4,2.7-6.7,4.2-10.6l3.4-5.6c0-0.5,0.2-0.6,0.6-1.1c1.1-2.4,2.2-4.6,3.7-6.7c0.8-1.4,0.5-2.1,1.8-3.8
		c0-0.2,0.5-0.5,1.6-1.3c0.3-0.2,1-1.1,1.9-2.6c0.8-1.4,2.1-3.7,3.4-5c0.6-0.6,1.3-0.6,1.9-1.3c2.4-2.4,4.8-4,7.5-4.8
		c4.6-1.4,8.3-0.5,10.7,2.9s2.9,6.1,1.1,8.2l-2.1,3.7c0,0.2,0.2,0.5,0.5,0.8c0,0,0.5,0.2,0.6-0.3c1.3-1.8,2.2-3.7,3.7-5.6l0.2-0.2
		v0.2c-1.4,0.8-2.4,1.3-3,1.4c1.9-3,3.5-6.1,5.9-9.1c0.8-1.1,1.6-1.1,2.4,0c0.8,1.3,2.1,2.9,3.2,4.3c1,1.3,1,2.6,0.2,3.7
		c-0.2,0.5-0.5,1-1,1.4c-3.8,5.1-5.1,10.4-9.1,14.7c-2.6,6.2-5.3,13.3-9,18.9c-1.4-0.8-3.2-1-5.4-0.8c-2.1,0.2-2.7-0.5-1.9-2.1
		c0,0,0-0.3,0-1.1l2.4-5.8c0.8-1.4,1.3-2.4,1.3-2.6l1.6-2.7c8.2-12.5,9.4-34.1-10.4-7.4c-4.5,5.9-7.4,12.8-10.4,19.2
		c-1.8,3.7-4.2,9.9-7,18.4c-2.9,8.5-4.5,14.6-5,18.2c-0.8,1.8-1.3,3.4-1.3,4.8l-0.3,0.2c-0.3-0.2-0.5-0.2-0.6,0.3
		c0,0.5-0.2,0.6-0.3,0.8c0,0.3,0.2,0.6,0.3,1c0.2,0.2,0,0.3-0.3,0.5c-0.3-0.2-0.5-0.2-0.6,0.2c-0.8,1.4-2.1,5.1-2.1,6.4
		c0,0.5,0,0.5,0,0.5s0,0.2,0,0.6h0.2c-0.5,0.5-1,1-1.1,1.6c0,0.5-0.2,1.1-0.6,1.9c-0.5,0.8-0.5,1.6-0.2,2.4c0,0.2,0.2,0.3,0.3,0.3
		c0.3,0.2,0.5,0.5,0.5,1c-0.2,0.8-0.3,0.6-0.3,1.1c0.8,0,1.3,0,1.4-0.2c0.8,0,1.8-0.8,2.6-0.8L1017.8,261.2z M1009,261.5
		c-0.3,0.5-0.3,0.8,0,1c0-0.2,0.2-0.6,0.3-1.4C1009.2,261.2,1009,261.5,1009,261.5z M1010.8,260.6h-0.2c0,0.5,0.2,0.3,0.2,0.3
		l0.2-0.3H1010.8z M1014.8,225.2l-0.3-0.3c0,0.5-0.2,0.6-0.2,0.6c0,0.2,0.2,0.3,0.2,0.3L1014.8,225.2z M1014.5,242l0.2,0.2
		c0.2-0.2,0.2-0.2,0.2-0.3l-0.3-0.2C1014.5,241.9,1014.5,242,1014.5,242z M1015.8,238c0,0,0-0.3,0-0.5v-0.5
		c-0.2,0.8-0.6,1.1-0.6,1.8c0,0.2,0.2,0.2,0.6,0.3c0-0.5,0-0.6,0.2-0.8C1015.9,238.2,1015.9,238,1015.8,238z M1017.7,217.9l0.2-0.3
		c0-0.2-0.2-0.5-0.3-0.6c-0.3-0.2-0.6,0-0.8,0.2c-1,1.1-1.3,2.2-1,3.4c-0.2,0.5-0.5,0.6-0.5,1.1c0,0,0.2,0.3,0.3,0.3
		c0.2,0,0.3-0.2,0.3-0.3c0-0.5-0.2-0.6-0.2-1.4c0.6-0.2,1.3-0.6,1.8-1.4C1017.5,218.5,1017.7,218.4,1017.7,217.9z M1018.8,213.2
		c-0.5,0-0.3,0.2-0.3,0.2c0.2,0.2,0.3,0.2,0.5,0.2v-0.2L1018.8,213.2z M1020.6,208.3l-0.2-0.2h-0.2c0,0.2,0,0.3,0,0.3
		C1020.4,208.4,1020.4,208.4,1020.6,208.3z M1028.5,186.5l1,0.5c1.9-2.1,3.4-4.5,4.5-7c0-0.5,0.2-1,0.6-1.1c1-1,1.4-1.8,1.3-2.4
		c0-0.5,0.2-0.6,0.3-0.6c0.5,0,1-0.5,1.6-1.6c1.3-1.8,1.9-3,2.1-3.5c0.2-0.5,0.2-0.8,0-1c-0.5,0-0.8,0.2-1,0.5l-1.8,2.6
		c-1.6,2.4-2.7,4.3-3.5,5.9c-0.5,1.4-1.1,2.4-1.8,3.2c-0.6,1.1-1.9,1.6-2.1,2.2L1028.5,186.5z M1041,168c-0.2,0.2-0.2,0.5-0.2,1h0.2
		c0.5,0.2,0.6,0,0.6-0.5c0.3-0.3,0.6-0.8,0.8-1.6c0.2-0.2,0.3-0.3,0.3-0.3c-0.2,0.2-0.3,0.3-0.3,0.3
		C1042.6,166.9,1042.1,167.2,1041,168z M1041.2,172.1c0-0.2,0.2-0.3,0.3-0.3c0.3-0.2,0.5-0.3,0.5-0.3s-0.2,0.2-0.5,0.3
		C1041.2,171.8,1041,172,1041.2,172.1z M1042.8,170.4v0.2V170.4z M1043.9,169.4c0.2-0.2,0.5-0.3,0.8-0.3c-0.3-0.3-0.5-0.5-0.5-0.5
		s-0.2,0.2-0.6,0.5C1043.7,169.3,1043.9,169.4,1043.9,169.4z M1047.3,166.5l0.3-0.5c0.2-0.2,0.3-0.3,0.3-0.3l-0.3,0.3
		C1047.6,166.1,1047.1,165.9,1047.3,166.5z M1064.7,175.5c-0.8,0-1.3,0-1.3,0.2c-1.8,1.9-4.3,3.2-5,5.8c-0.6,1.4-1.3,2.7-1.8,4.2
		c-0.6,1.3-2.1,2.2-1.6,3.7c2.1,0,2.1-1.6,3.2-2.9c1.8-2.4,2.7-3.8,2.9-4.6c0.3-1.4,1.4-2.9,3.5-4.3c-0.5,0.2-0.2-0.2,0.8-1.1
		C1065.2,175.8,1064.9,175.5,1064.7,175.5z"/>
	<path class="st11" d="M1062.9,239.8c-2.7,4.5-5.3,7.8-7.7,10.1l-2.2,2.4c-1,0.5-1.6,0.8-2.1,0.8c-2.7,0.3-4.5-0.6-5.3-2.9
		c-1.1-3.2-1.3-6.4-0.5-9.4c1.1-3,1.8-6.1,3.5-9.1l1-2.6c2.6-7.5,6.7-15,9.8-20.6c0.3-0.8,0.8-1.1,1.4-0.6c1,1.1,2.2,1.8,3.7,1.9
		c1.6,0.5,2.1,1.8,1.6,3.5c0.2-0.5,0-0.2-0.5,1.3c-2.4,4.3-4.3,8.3-5.9,12c-2.1,3.8-4.2,8.3-6.2,13.4c-1.3,2.2-2.1,4.8-2.4,7.5
		c-0.3,0.8-0.3,1.4,0,2.1c0,0.6,0.2,0.8,0.6,0.3c2.1-1.1,3.7-2.4,4.8-4.2c1-1.1,2.9-4,5.6-8.5c2.9-4.5,4.8-7.5,5.6-9
		c0,0,2.1-0.6,1.6,0.6C1067.9,231.6,1065.7,235.3,1062.9,239.8z M1047.4,236.8v0.3c0.2-0.2,0.3-0.3,0.3-0.3c0-0.2,0-0.3-0.2-0.5
		c0.2,0,0.3,0,0.3,0s0-0.3,0-0.5c0,0.2-0.2,0.5-0.2,0.5C1047.6,236.4,1047.4,236.6,1047.4,236.8z M1048.7,239.5l-0.2,0.2v0.3
		C1048.5,239.6,1048.5,239.5,1048.7,239.5c0.6-0.8,1-1.6,1-2.7c0.3-0.2,0.5-0.6,0.5-1.4c1.6-1.6,2.6-3.7,2.7-6.2
		c0.5,0,1-0.6,1.4-2.1c1.1-1.9,1.9-4.5,3-6.6l1.6-3.5c0.2-0.2,0-0.3-0.2-0.6l-0.2,0.2c-0.5,0.5-0.8,1-1.3,1.8c-1.4,3-2.7,5.9-3.8,9
		c-0.3,0.8-0.5,1.4-0.5,2.1c-0.6,0.5-1.6,1.9-2.7,4.6c-0.2,0.2-0.2,0.6-0.2,1.4c-0.3,0.2-0.5,0.6-0.5,1.4
		C1048.9,237.4,1048.5,238.3,1048.7,239.5z M1050,231.5c-0.8,0.2-1,0.6-0.6,1.4c-0.3,0.2-0.5,0.5-0.5,1.3c-0.3,0-0.3,0.2-0.2,0.3
		c0,0,0.2-0.2,0.2-0.3c0.2-0.2,0.3-0.6,0.3-1.4c0.5-0.2,0.8-0.5,0.6-1.3c0.3-0.2,0.5-0.8,0.5-1.6c0.5,0,0.6-0.2,0.2-0.3
		c0,0.2,0,0.5-0.2,0.6C1049.8,230.4,1049.8,230.8,1050,231.5z M1052.1,226.7l0.2-0.2c0-0.8,0.2-1.1,0.5-1.3c0-0.5,0.2-0.8,0.6-1.4
		c0,0,0.2-0.3-0.3-0.2c-0.2,0.8-0.5,1-0.5,1.6c-0.2,0.5-0.5,0.8-0.5,1.3V226.7z M1054.8,220.1c0.5-0.2,0.6-0.6,0.5-1.3
		c0.5-0.2,1-0.5,1.1-1.3c0,0-0.2,0-0.2-0.5c0,0.2-0.2,0.3-0.2,0.3l-0.6,1.4l-0.5,1.6c-0.2,0.5-0.6,1.1-0.6,1.3l-0.2,0.2v0.2
		c0-0.2,0-0.3,0.2-0.3C1054.6,221.6,1054.8,221.1,1054.8,220.1z M1055.7,226.7c0,0.2,0.2,0.5,0.2,0.5s0.2-0.2,0.2-0.3
		c0,0,0-0.2,0-0.8h0.2l0.2-0.2c0,0-0.2,0.2-0.3,0.3C1056.1,226.7,1055.7,226.7,1055.7,226.7z M1060.1,214.2c0,0,0-0.3,0.2-0.3
		c0,0,0,0,0.2,0c0-0.2,0.2-0.3,0.3-0.3v0.2c-0.5,0-0.5,0-0.5,0C1060.2,213.9,1060.2,214,1060.1,214.2z M1067.3,208.1
		c-0.2,0.3-1.3,0-3.2-1c-1.9-1-2.7-1.8-2.6-2.2c0.5-1.8,0.6-2.7,0.8-2.9c0.2-0.2,0.5-1.3,0.8-3c1.3-1.6,2.7-1.6,4.5-0.2
		s2.9,2.7,3.7,3.5c0.8-1.1,0.8-1-0.3,0.3C1070.3,205.1,1067.9,206,1067.3,208.1z"/>
	<path class="st11" d="M1106,240.3c-3.7,5.6-6.1,9-7,10.2c-0.6,1-1.8,2.2-3.2,3.8c-1.4,1.3-3,1.3-4.5,0c-2.9-2.1-4.5-4.3-4.6-6.9
		c-0.3-2.1,0-4.8,1-8c2.1-7,3-12.5,6.7-19.5c2.7-5,3.8-7.5,3.4-7.7c-1.1,0.2-2.2,1.1-3.4,2.6c-2.6,3.4-5.1,6.2-7.7,9.4
		c-4.5,5.8-8.8,11.8-12.5,18.2c-1.1,2.1-2.2,3.7-3.7,5l-1.9,2.7c-0.6,0.6-1.1,1.6-1.6,2.4c-1.1,1.6-2.6,1.8-4.3,0.6
		c-2.9-1.4-3.5-3.8-2.1-7.4c1.9-3.7,3.8-7.7,5.1-11.7c0.5-1.3,1.1-2.2,1.3-3.5c4.3-8.2,7.7-16.5,11.4-25.3c0.5-1.8,1.6-2.4,3.2-1.6
		l4.2,2.6c1.6,1.1,2.1,2.7,1.3,4.6c-2.4,4.6-5,9.6-7,13.9c-1.8,3.8-3.7,7.2-5,10.6c0,0,0,0.3,0,1c0,0,0.3,0,0.5-0.5
		c0.2-0.5,0.8-0.6,1.3-1.4c3.7-5.8,8.3-11.4,13.3-17.1c1.8-2.1,2.1-3.4,4.2-5.9c1.8-2.1,3.8-4.8,5.8-6.9c0.8-0.8,1.3-1,1.6-0.6
		c1.4,1.1,2.9,1,4.3,1.4c0.6,0.6,3.2,2.9,3.2,3.5c0,4.6-3.7,9.9-5.8,14.4c-0.6,1.1-1.4,2.7-2.4,5c-0.2,0-0.2-0.2-0.2-0.2
		c-0.5,0-0.5,0-0.5,0c-0.2,0.2-0.3,0.5-0.3,0.8c0,0.2,0.2,0.5,0.3,0.5l-2.2,5.9c-0.3-0.5-0.5-0.6-0.6-0.6c-0.5,0-0.6,0.3-0.6,1
		c0,0.2,0.3,0.5,0.8,1l0.2-0.6c-0.2,1.1-0.5,1.9-0.6,2.6l-0.5-0.2c0,0,0-0.2,0-0.6l-0.2-0.2c0,0.2,0,0.3,0,0.3
		c0,0.2,0.2,0.3,0.3,0.3v1.3l-0.2,0.2v0.3l0.2-0.3c-1.8,1.1-2.4,2.7-1.9,4.6c-0.2,0.2-0.8,0.3-0.8,0.3l-2.6,4.5
		c-0.2,0.2-0.2,0.3-0.2,0.5c0,0.5,0.2,0.6,0.2,0.6c0.5,0.3,0.6,0.3,0.6,0c1.4-1.8,2.2-3.8,2.7-6.1c0.3-0.3,0.8-0.8,1.3-1.6l-0.3,1.1
		c-0.6,2.7-0.8,4.5-0.6,5.3c2.1,0,3.4-1.9,4.8-3.4c0.5-0.6,2.6-3.4,6.1-8.3s5.6-7.8,6.1-8.3c0.6-1.1,1.9-0.8,1.3,0.6
		C1112.2,231,1109.8,234.7,1106,240.3z M1070,241.7c-0.3,0-0.5,0-0.6,0.2c0,0.5-0.2,0.8-0.2,1c0,0.2,0.2,0.5,0.2,0.5
		c0.2,0,0.3-0.2,0.6-0.3c0.2-0.2,0.2-0.3,0.2-0.8C1070.1,242,1070.1,241.9,1070,241.7z M1071.9,228.6l-0.2,0.3
		c-0.2,0.5-0.3,0.6-0.3,0.8c0,0,0.2,0.5,0.3,0.5c0,0,0.2,0.2,0.2-0.3c0.2-0.2,0.3-0.5,0.3-0.6C1072,229.2,1071.9,229.1,1071.9,228.6
		z M1074,222.5c0.2,0.5,0.5,0.8,1,0.8s0.6-0.3,0.5-1c0,0.3-0.2,0.2-0.5-0.6C1074.3,222.2,1074,222.5,1074,222.5z M1075.4,218.4
		c1.8-0.8,2.4-2.4,2.1-4.5c0,0,0.5-0.3,0.6-0.5l2.6-4.5c0.2-0.2,0.3-0.3,0.3-0.5c0,0-0.3-0.2-0.3-0.6c-0.2,0-0.5,0-0.5,0
		c-1.4,1.9-2.4,4-2.7,6.1c-1.3,1.3-1.9,2.9-1.9,4.6c-0.6,0.5-0.6,1,0,1.3c0,0.2,0,0.6,0,0.6l0.2,0.2c0,0,0.2,0,0.2-0.5
		c-0.2,0-0.5-0.2-0.5-0.3V218.4z M1102.3,216.4c0,0,0.3-0.2,0.5-0.3c0,0,0.3-0.3,0.3-1c0,0-0.3-0.3-0.3-0.5
		c-0.2,0.2-0.5,0.3-0.5,0.3c-0.2,0.2-0.2,0.3-0.2,0.8C1102.1,216.1,1102.1,216.3,1102.3,216.4z"/>
	<path class="st11" d="M1146.7,206.2c0.3,0,0.6,0.2,1,0.3c0.8,1.1,1.1,2.4,1.1,3.5c0.2,4-0.5,7.5-1.8,10.6c-1.1,3-2.4,5.4-3.7,8
		c-1.4,3.4-3.7,6.2-6.4,9c-1.4,1.4-3.2,2.7-5,3.8c-1.8,1.1-3.4,1.4-5.1,0.8l0.2,0.5c-0.2,0.2-0.2,0.3-0.2,0.6
		c0.5,4.8,1.4,9.6,3,14.2c0.3,1.8,1.8,4.2,4.3,7.4c0,0.2,1,0.5,2.7,0.8c0.6,0,1,0.3,1,1c0,0,0,0.6,0,1.8c-0.5,2.6-1.6,3-3.4,1.6
		c-2.6-1.8-4.3-3.4-5.4-5c-4.5-4.8-6.9-10.6-7.4-17.3c-0.5-1.8-0.5-3.5-0.5-5.6c0-0.5-0.3-1-1.1-1.8c-0.3-0.2-0.6-0.2-0.8,0
		c-0.3,0.2-0.8,0.8-1.3,1.6l-6.9,10.7c-0.8,1.3-1.6,1.6-2.7,1c-1.4-0.5-2.4-1.3-2.7-2.4c-0.8-1.1-1.1-1.6-1-1.4
		c-0.6-0.8-0.8-2.2-0.5-4.2c1.1-1.8,1.8-3.5,2.1-5.3l0.2,0.2c0,0,0.2-0.3,0.2-0.5c0.8-0.2,1-0.6,0.6-1.6c0-0.2,0-0.2-0.2-0.3
		c1.4-4,2.6-6.9,3.2-9l7.2-17.3c3-6.6,6.1-13.6,9.4-20.2c2.1-5,4.6-9.8,7.2-14.7c0.2-0.5,0.6-0.6,1.3-0.5c2.1,0.5,3.8,2.1,5.6,4.8
		c0.5,0.8,0.6,1.4,0.5,1.9c-0.6,2.1-1,3.4-1.1,3.5l-4,7.5c-5.3,9.6-9.4,19.5-13.4,29.1c-1.8,3.4-2.9,5.9-3.7,7.7
		c-0.8,1.9-1.1,3.4-0.8,4.2c-0.2-0.2-0.2-0.2-0.2-0.2c1.8-2.4,3.4-4.8,5.3-7.2c5-6.6,10.9-15.2,16.8-21.6c1.4-1.3,3-1.4,5-0.5
		C1145.8,206.4,1146.3,206.4,1146.7,206.2z M1106.8,239.5c0,0.2,0,0.6,0,0.6c0,0.2-0.2,0.2-0.2,0.2L1106.8,239.5z M1110.8,236.4v0.2
		h0.2L1110.8,236.4z M1112.2,234c0.2-0.2,0-0.3-0.2-0.6l-0.5,0.5v0.6c0,0.5,0,0.8-0.2,0.6c0,0,0.2-0.5,0.2-0.6
		C1112,234.2,1112.2,234,1112.2,234z M1122.6,204.8c-0.3,0.2-0.5,0.6-0.5,1.4c0,0.2-0.2,0.2-0.3,0.2c-1.3,1.6-2.2,3.5-3,5.9
		c0,0.5,0.2,0.8,0.2,1.3c-0.8,0.2-1.3,0.8-1.4,1.9c-1.8,4.3-3.5,8.3-5.4,12c0,0.5,0.2,0.8,0.2,0.8c0.3,0,0.5,0,0.6-0.2
		c0.8-1.3,1.1-1.8,1.1-1.4c1.4-3.8,3.2-7.5,4.6-11.2c0-0.6,0.2-1.1,0.3-1.9c2.1-1.9,3.2-4,3.4-6.4c0-0.2-0.2-0.5-0.2-1
		C1122.7,206,1122.9,205.6,1122.6,204.8c1.1-0.5,1.8-1.3,1.6-2.4C1123.1,202.7,1122.6,203.5,1122.6,204.8z M1113.5,230.8h-0.2v0.2
		L1113.5,230.8z M1113.8,229.4l0.2-0.2h-0.2V229.4z M1115.1,225.9l-0.2,0.2l0.2,0.2V225.9z M1116.2,223.2l0.2-0.2l-0.2-0.2V223.2z
		 M1117,221.6c-0.2,0,0-0.2,0.3-0.6c0,0,0.2-0.3,0.2-0.5c-0.2-0.2-0.2,0-0.2,0.5C1117.1,221.1,1117,221.6,1117,221.6z M1118.1,218.8
		l0.2,0.3v-0.3H1118.1z M1119.4,216.4l0.2,0.3v-0.5L1119.4,216.4z M1121.1,212.8c0,0,0.8,0.2,0.2-0.5
		C1121.3,212.4,1121.1,212.8,1121.1,212.8c-0.5,0.3-0.6,1-0.6,1.8c0,0.5-0.2,0.6-0.3,0.5c0,0,0.3-0.3,0.3-0.5
		C1121,214.5,1121.1,213.9,1121.1,212.8z M1121.8,236.8c-0.5-0.8-0.2-1.1,0.8-1.1c1.8,0,2.6,0,2.6,0c1.4,0,2.1,0,2.1,0.2
		c0.8-1.3,2.7-0.6,2.9-2.4c0.3-0.5,0.6-0.6,0.8-0.8c3.8-4,5.3-5.4,7.4-10.1c1.4-2.7,3.4-5.9,4-9.8c0.5-1.1,0.6-2.4,1.1-3.8
		c0-0.2,0-0.2-0.2-0.3l-0.2-0.2c-1,0.8-1.6,1.3-2.1,1.4l-0.5,0.8l-4.5,5.3c-2.4,3-6.1,7.5-8.2,10.6c-2.4,3.4-4.2,6.7-6.6,9.9
		c0,0.2,0.2,0.6,0.2,0.6s0.3,0,0.5,0C1121.9,236.9,1121.9,236.9,1121.8,236.8z M1123.4,208.4c-0.2,0.2-0.3,0.5-0.3,0.5
		c-0.5,0.5-0.8,0.8-0.8,0.8c-0.2,0.2-0.5,0.5-0.5,0.5c0,0.5,0.2,0.6,0.2,0.6c0.2,0,0.3-0.2,0.3-0.3c0,0,0-0.3,0-0.8
		c0,0,0.3-0.3,0.8-0.8C1123.2,208.8,1123.4,208.6,1123.4,208.4z M1124.2,207l-0.3-0.2v0.2H1124.2z M1124.7,205.4v-0.2h-0.2
		L1124.7,205.4z M1125.5,239.9c2.9-1.3,4.6-2.7,5.4-4.3c1.4-0.6,2.6-1.4,3.4-2.2l0.2-0.3c-0.5,0-0.6,0-0.6-0.2l-2.2,1.1
		c-0.5,0.2-0.6,0.8-0.6,1.6c-0.6,0-1.3,0.3-2.1,1c-1.8,1.1-3,1.9-4,2.4L1125.5,239.9z M1125.1,203.6v0.2h0.3L1125.1,203.6z
		 M1125.5,236.6l-0.3,0.2l0.3,0.2V236.6z M1126.1,201.7c0,0-0.8,0.3-0.2,0.5c0,0,0.2-0.5,0.2-0.6c0.5,0,0.8-0.5,0.8-1.4
		c0.3-0.2,0.5-0.6,0.5-1.6c0.5-0.2,0.8-0.6,0.6-1.8c1-0.2,1.4-1,1.3-2.4c0.5,0,0.6-0.5,0.6-1.4c0.5-0.2,0.6-0.6,0.6-1.6
		c0.2-0.2,0.3-0.5,0.3-0.6c-0.2,0.5-0.3,0.6-0.3,0.6c-0.6,0.2-0.8,0.8-0.6,1.6c-0.8,0.3-1,0.8-0.5,1.4c-1.3,0.6-1.8,1.4-1.4,2.4
		c-0.5,0.3-0.6,1-0.6,1.8c-0.6,0.3-0.8,0.8-0.5,1.6C1126.4,200.3,1126.1,200.8,1126.1,201.7z M1131.5,189.4l0.2-0.2h-0.2V189.4z
		 M1132,187.7l0.2,0.2v-0.2H1132z M1133.3,184.3v0.2h0.2L1133.3,184.3z M1139.9,226.8c1.6-2.1,2.4-4,2.2-6.1c0.5-1,0.8-1.3,0.8-1.1
		c1-2.4,1.9-5.1,2.9-8.2c0,0-0.2-0.5-0.2-0.6c-0.3,0.3-0.5,0.5-0.5,0.3c-0.8,2.1-1.8,4.5-2.4,6.9c-0.5,1.1-0.8,2.1-0.6,2.7
		c-1,1-1.4,1.3-1.3,1.1L1139.9,226.8c-0.5,0.2-0.6,0.6-0.6,1.4c-0.5,0.2-0.6,0.5-0.8,0.8c-1.3,0.8-2.1,1.6-2.2,2.6
		c0,0.3,0.2,0.5,0.3,0.5c0,0.5,0.2,0.5,0.5,0c0.8-1,1.3-1.9,1.4-3c0.2-0.3,0.3-0.6,0.8-0.8S1139.9,227.6,1139.9,226.8z"/>
	<path class="st11" d="M1152,258.5c-3.7-0.6-6.7-1.1-10.4-1.9c-2.4-0.5-3.2-2.6-5.1-4c0,0,0-0.5,0-1.3c0.5-0.8,0.8-1.3,1-2.1
		l7.7-13.8c1.3-2.6,2.2-5.1,3.7-7.7c0.8-2.6,2.2-5,3.4-7.4c1.8-3.5,2.9-6.1,3.4-7.8c0.8-3.7,2.9-7.5,6.2-11.8c0.3-0.5,1-1.1,2.1-1.8
		c1.8-0.6,4.3,1,6.1,1.4c0.2,0,2.9,1.9,2.7,2.7c-1.4,2.4-6.4,7-7.7,9.1c-2.6,4.8-2.9,8.8-1,11.8c1.1,1.9,2.1,3.8,3.4,5.6l2.4,4.3
		c2.4,5,1.4,10.2-2.6,16c-1.4,2.1-3.2,4-5.6,5.9c-1.3,0.6-2.4,1.3-3,1.8C1156.2,257.9,1153.8,258.7,1152,258.5z M1148.2,234
		c-0.2-0.3-0.3-0.5-0.3-0.5c0,0.5,0,0.5,0,0.5c0,0.2,0.3,0.5,0.5,0.5c-0.3,1-0.5,1.4-0.5,1.4c-1.8,1.6-3.2,3.8-4.3,6.7
		c-0.6,2.1-1.8,3.8-2.6,5.9c-0.6,1.9,0.3,4,1.8,3.2c1.8-0.5,2.7-0.2,4.2-0.2c0.8,0,2.1,0.2,3.4,0c5.6-0.2,9.6-3.4,12.3-9.9
		c1.1-2.7,1.1-5,0.3-6.9c-0.8-1.4-2.1-3.5-3.5-6.2c-1.4-1.9-2.4-3.7-3.7-5.6c-0.2-0.5-0.5-0.6-0.6-0.6l-0.6,0.8
		c-1.8,3.8-3.8,7.7-6.2,11.5V234z M1165.1,245.9c1.1-2.7,1.1-5.1,0-7c0,0.2-0.2,0.2-0.6-0.3c-0.2,0.2-0.2,0.5-0.2,0.6
		c-0.5,2.7-0.6,5.1-1.1,7.5c-1.8,1.4-2.7,2.7-3,3.8c-0.2,0.2,0,0.3,0.2,0.8c0,0,0.2,0,0.3-0.2c1.8-1.8,2.6-3.2,2.4-4.5
		C1164.2,246.7,1165,246.3,1165.1,245.9z"/>
</g>
</svg>
