<svg version="1.1" id="Layer_1" xmlns="http://www.w3.org/2000/svg" x="0" y="0" viewBox="0 0 2175.8 545.5" xml:space="preserve"><style>.st3{fill:#fff}.st9{fill:#215064}</style><g id="Layer_2_1_"><path fill="#7be3ff" d="M-4.1 0h2182.8v450.3H-4.1z"/><circle cx="1621.6" cy="327.5" r="81.9" fill="#f2ff7c"/><path fill="#38e1da" d="M-4.1 389.1h2182.8v156.4H-4.1z"/><path class="st3" d="M1638.7 416.6c-.1.1-.6.1-1.4-.1-.4-.1-1-.2-1.6-.4-.6-.1-1.3-.2-2.1-.4-3-.6-7.3-1-12.1-.9-9.5.2-17.1 2.3-17.2 1.7-.1-.3 1.7-1.1 4.8-2 3.1-.8 7.5-1.7 12.4-1.8 4.9-.1 9.4.6 12.4 1.5.8.2 1.5.5 2.1.7.6.3 1.1.5 1.5.7.9.6 1.3.9 1.2 1z"/><path d="M647.6 65.7c-.1 0 0-.6-.3-1.3-.2-.4-.5-.8-1-1.1s-1.2-.5-2-.7c-.8-.1-1.7-.2-2.6 0-.9.2-1.9.5-3 .9-1 .4-2.1 1-3.1 1.7-.5.3-1 .7-1.6 1.1l-.6.5-.8.7c-.5.5-1.1.9-1.6 1.4.1-.6.2-1.3.3-1.9 0-.3 0-.5.1-.8v-.7c-.1-.5-.2-.8-.3-1.2-.3-.8-.7-1.5-1.4-2-1.1-1.1-2.6-1.6-4.1-2-1.5-.3-3-.5-4.5-.5-2.9 0-5.4.7-7.5 1.5-4.1 1.6-6.3 3.4-6.5 3.2-.1-.1 1.8-2.3 6-4.3 2.1-1 4.8-1.8 7.9-1.9 1.6-.1 3.2.1 4.8.4 1.6.4 3.4 1 4.8 2.4.8.7 1.4 1.7 1.8 2.7.2.5.3 1 .3 1.5l.2-.1c.6-.4 1.1-.8 1.7-1.1 1.1-.7 2.3-1.3 3.4-1.7 1.1-.4 2.3-.7 3.3-.9 1.1-.1 2.1 0 3 .2s1.7.5 2.3 1c.6.4 1 1 1.1 1.6.3.9-.1 1.5-.1 1.4z" fill="#4cb2e5"/><path d="M1564 389.1s-9.7-7.3-14.1 16.4c-3.5 18.7 2.9 9.8 20.7 21.2 16.9 10.8-6.5 26.1 12.7 23.2s54.7-16.5 71.1-26.1c16.4-9.5 11.4-20.8 36.8-16.4 25.3 4.4 15.6-18.3 0-18.3H1564z" opacity=".2" fill="#f2ff7c"/><path class="st3" d="M1937.5 251.3c9.8-14.7 35.2-15.5 50.7-12.3 4.1-23.7 36.8-34.3 39.2-4.1 8.2-4.1 18.8-4.9 22.1 4.9 10.6-3.3 20.3 3.7 28.4 11.1-46.9 0-140.4.4-140.4.4zm-1649-71.1c0-.4.1-.8.1-1.2 0-8.3-6.7-15-15-15h-.8c-3.4-8.1-11.4-13.4-20.2-13.4h-1.3c-4.1-14.2-17.1-24.5-32.6-24.5-16 0-29.5 11.1-33 26.1-8.1 2.5-14.1 9.8-14.9 18.6-1.7-.5-3.6-.8-5.4-.8-7.3 0-13.7 4.1-17 10.1l140.1.1z"/></g><path class="st9" d="M949.7 189.9c-.5.6-1 1.6-1.4 2.9-.2 1.3-.8 2.6-1.9 3.7-1 1.4-1.9 3.5-2.7 5.9-.5 1.4-1 2.7-1.8 3.5-3 3.4-4.5 9.6-5.9 13.4-.8 1.3.2.6-.6 1.4-.5.8-1.1 1.6-1.6 2.6-1.8 5-2.7 8.6-4.5 12.3-5 16-8.6 30.5-4 40.8.6 1.4.3 2.6-1 3.4-1.1.8-2.9-.2-5-2.9-3.7-5.1-5.6-11-5.9-17.9-.3-6.9 1.9-16.2 6.9-27.8 3.4-10.7 9-20.3 13.4-30.7 1.8-4.3 3.5-7.5 5.9-11.8 1.4-1.9 2.4-4.2 3.7-6.1 0 0 .2-.2.2-.3l-.2-.2 1.3-2.9s0-.2.2-.2c1.8-3 3.2-6.1 4.6-9.1.2-.8-.5-1.6-1.3-.5-2.6 3.2-5.1 6.6-7.8 9.6h-.8.8c-.8 1.3-2.2 2.9-3.7 4.2-.2.2-.2.3-.3.3-.8 1.4-1.6 2.2-2.2 3.4-.2.5.8-.8 3.2-3.5 2.4-2.9 3.5-4.2 3.4-3.7-2.4 3.8-6.2 9.6-11.2 17.1s-8.8 13.1-11.5 16.8c-5.8 9.8-13.1 18.4-18.7 28.1-1.1 1.9-1.9 3.4-2.2 4.2-.8 3.5-2.6 4.6-5.3 3.2-1.8-.8-4.6-3.7-3.8-6.1 1.1-6.1 3.2-12.5 5.9-19.4 4.5-10.9 10.1-22.4 15-33.4l2.2-5.3c.5-.8 1.1-2.4 2.1-5.1 1.8-3.8 1.6-4.6-.6-2.6-2.1 2.1-4.8 5.1-8 9.3-3.2 4.2-6.2 8.3-9.3 12.6l-4.6 6.4c-6.4 9.6-11.7 20-17 29.7-1.9 3.8-3.4 6.7-4.2 8.6-.8 1.8-2.2 4.3-4.3 7.7-.2.5-1.8.2-5.1-1-3.4-1.1-4.3-3-3.2-5.8.6-3 2.1-5.4 2.9-8.2 0-.6.3-1.1.8-1.8.2-.5.3-1 .8-1.3 1.4-4.6 4.5-10.9 6.2-15.5 1.1-5.1 3.4-8.5 4.2-13.6 0-.2.5-1 1.6-2.7 1.1-1.8 1.6-2.7 1.6-3 0-1.8.2-2.9.5-3 .3-.2 1-1.3 1.8-3.4.8-1.9 2.4-4.3 3-6.7l.6-1.6c.6-1.3 1.4-3.4 1.6-4.6 1.9-3.7 2.4-7.2 3.2-11 .5-2.4-.8-3.2-3.7-2.2-6.2 2.6-11.4 5.4-15.7 8.8-1.1.8-1.3.8-.6-.3.8-1.1.6-1.4-.2-.6-.6.8.5.5-.3 1.9l-5 4.5c-2.2 2.1-3.8 4-4.6 5.6-.3.3-.3-.3.2-1.8.5-1.4.8-2.4.8-2.9-.2 0-1.1 4.5-1.8 5.1-7.5 9.8-13.1 20.8-17.8 29.3-.5 1.6-1.3 1-2.6-1.9-1.1-3-1.4-5.6-1-7.7.8-1.3 1.3-.5 2.1-2.6.3-.8.2-.6-.5.5s-.8 1.1-.6.2c.5-1.8 1.8-4.3 3.7-8l4.2-7.7.3-.2c-.5.2.2-.6.2-.6 1.1-1.1 2.1-2.2 2.9-3.4.5-.8-.5 1.1 0 .6.5-.6 2.6-4 3.4-4.8l.6-1.3 2.1-1.6c5.9-5.9 12.8-10.7 20.8-14.4 2.1-.8 4.6-1.6 7.4-2.4 7.2-1.4 11.8-.8 13.6 2.2s2.1 7.4.8 13.1c-1.9 7.7-5.3 15.7-8.3 23.3-4.5 9-8.5 18.4-12.5 27.2-.2.6-.3 1.3-.3 1.8 1-1.1 1.4-1.6 1.4-1.6 4-6.6 7.5-13.3 11.4-20.2 4.2-6.9 8-12.5 11.5-17.1 3.7-4.6 8.3-10.1 14.1-16 2.6-2.9 5.3-3.5 8.3-2.1 3.7 1.8 4.8 4.3 3.4 7.5-.8 2.7-1.6 4.3-2.2 5.1-.5.8-1.4 2.4-2.7 5-4.3 10.9-9.3 21.6-13.6 32.5-.2.2-.3 1-.8 2.4.5-.6 2.4-1 3-1.8l1.4-2.1c-.5.5-.6 1.3-.8 2.2l-.6.6s.2-.2.6-.2c.8-.8 1.4-1.9 2.1-2.7 1.8-2.7 3.2-5 4.5-7.7.3-.2 1.1-.8 2.4-2.1v-1c-.5.3-.6.5-.6.3-.2.5-.8 1.3-1.6 2.7 0 0-.3.2-1 .6l5.3-7.4v.2l.2-.2c.2-.2.2-.2 0-.2l1.8-2.6v.5c.3 0 .6-.2.8-.3-.5.3-.2-.3.6-1.9 1.4-1 1.9-1.3 1.6-1.1 0 0-.5-.2 0-.3-.2 0-.5 0-.6.2-.5.5-1 .8-1 1.3l-1 1.3c6.6-9 13.3-18.6 20.2-27.7 2.2-3.5 4-6.1 5.3-7.7 2.1-2.1 5.8-3.8 7.7-1.4 3.4 3 4.5 5.8 3.7 7.8-.8 2.1-2.2 5.6-4.6 10.4l-.5.2c-1.5 3.6-2.5 5.5-3.3 6.5zm-110.5 17.6s0 .3.2.3c0 0 .2.2.2-.3s0-.8.5-1.6l1.9-3c.2-.6.6-1.4.8-2.1.2-.6.8-1.1 1.6-1.6.2-.3.3-.5.3-.6 0-.3.3-.8.8-1.3l.5-.5s.3-.5.5-.6c0-.3.3-1 1-2.1.6-1.1 0-.5-1.9 1.9l-1.6 1.6c-.2.6-.6.8-.5 1-.8 1.4-1.8 2.2-2.4 3.5-.6 1.1-1.1 2.2-1.6 3.5-.2.5-.3.8-.2 1.3-.1.1-.1.6-.1.6zm25.5 20.8c-.5.2-.6.5-.6.8.1-.5.4-.8.6-.8zm3-7.6c-1.1.6-1.6 1.4-1.8 2.2.2.2.2.3.3.3 0 .5.3 0 .3 0-.1-.5 1-1.3 1.2-2.5.5-.3.6-1 .6-1.8l.2-.5-.2.5c0 .7-.6 1.2-.6 1.8zm3.2-8s-.5-.5-.5-.6v.5s-.2.3-.3.8c-.5.5-.6 1.1-.5 1.9-.2.2-.6.5-.6.5l.6.6s.2 0 .2-.5c0 0-.2-.5-.2-.6.3-.5.5-1.1.3-1.9l1-.7zm-.2 21.3c-.5 0 0 .2 0 .2 0 .2.2 0 .3-.3.1.1-.1.1-.3.1zm1-23.8c0-.3.2-.5.3-.5 0-.2 0-.3.2-.5-.2.2-.2.3-.2.3-.1.2-.3.4-.3.7zm2.1-6.1c1.1-.6 1.4-1.6 1.3-2.9l.2-.3v.3c-1 .6-1.4 1.6-1.3 2.9-.5.5-.6 1.1-.8 1.8-.3.2-.5.5-.6.8 0 0 .2.5.6.5l.2-.3c-.2-.2-.2-.8-.2-1 .4-.2.6-.8.6-1.8zm5.1-11.4s.2-.2.2-.3c-.1.2-.1.3-.2.3-.2.8-.6 1.3-.5 1.9-.2.2-.2.2-.2.3v-.3c.4-.3.5-.9.7-1.9zm3.5 8.8v-.5l-.2.2c.2 0 .2.2.2.3zm.2-.6c0-.2 0-.2.2-.3h-.3l.1.3zm2-6.6h.2c-.6 1.4-1.3 2.6-1.8 4 0 0-.2.6-.5 1.8.8-.5 1.4-.3 1.9-1 1.3-4 3-8.3 4.8-12.3.2-.3.2-.5 0-.6 0-.2.3-.8.5-1 .5-1 1-2.4 1.3-4.2.2-.8.2-1.3.2-1.4-.5.5-.6.6-.6.8-.5.8-.8 1.9-1 3.4-.3 1-.5 1.3-.5 1.1-.2.2-.3.5-.3 1l-.6.5-3.6 7.9zm7.6-16.6s.2-.5.3-1.4c-.5.5-.8.8-1 .8-.2.2-.3.8-.5 1.9l1.2-1.3zm.3 54.7s.3-.5.8-.6c0-.2-.2-.3-.3-.5 0 .2-.2.3-.2.3-.5.5-.3.8-.3 1-.5.2-.6.8-.8 1.6l-.6.8s0 .5.2.5l.3-.3c0-.2.2-.3.2-1 0-.5.5-1.2.7-1.8zm3.2-8.3c-.8 1.4-1.6 3.8-2.7 6.9v.3s.6-.2.8-.3c.6-2.6 2.2-4.8 2.4-7.2l.5-.5c-.2.2-.2.3-.2.5-.5.1-.8.1-.8.3zm3.3-7.7c-1.4 1.6-1.8 3-1.3 4.2-.5.5-.6 1-.6 1.1 0 .3-.2.6-.6 1.1v.3c-.2-.2-.2-.2 0-.3.2-.2.5-.6.6-1.1 0-.2.2-.6.6-1.1 1.2-1.5 1.5-2.9 1.3-4.2-.2.2 0-.2.2-1.3.2 0 .2-.2 0-.5.2.2.2.5.2.5l-.4 1.3zm1.6 10.9l-.2.2h.3l-.1-.2zm11.1-12.8s0 .3-.2.8c-.2.2-.5.6-.8 1.4l1-2.2zm3.7 50.9c0 .5.2.6.8 1.3 0 0 0 .2.2.2s.3-.2.5-.5c-.2-1.1-.3-2.2-.3-3.4.2-1.4.2-3.7.3-6.7.2-1.8.2-3.4.2-4.6.2-1.4.5-2.6.8-3.4.2-.8.2-1.3.2-1.6 0-.6.3-1.6 1-2.7 0 0 .2-.5.5-1.4.5-1.4.6-1.9.5-1.4-.2-.8-.2-2.2.2-4.5.3-2.4-.5-.6-2.2 5-.6 1.3-1.1 2.7-1.4 4.5-.5.8-.6 1.3-.6 1.8-.3 1.9-.6 4.5-.8 7.5-.5 2.6.2 5.1-.3 7.2.5 1.3.6 2.2.6 2.9h-.2v-.2zm9.9-67.5c0-.2.2-.5.3-1h-.3c-.2.2-.2.5-.2 1h.2zm23.5-25.6c-.8 2.1-2.6 4.3-3.8 6.4l.2.3c.5-.2.6-.3.6-.3 2.4-3 3.7-5.4 3.8-6.9 0 0 .2-.2.2-.3 0 .2 0 .2-.2.3-.7.5-1 .6-.8.5z"/><path class="st9" d="M962.5 227c1.8-2.2 2.6-3.8 2.7-4.8v.3c.8-.5.8-1.3 0-2.2v.2c1.4-3 3.4-5.8 5.1-8.8l.2-.5 3.5-3.7c1.1-1.1 1.9-2.6 3.2-4 .6-.8 1.3-1 1.9-.3 2.1 1.4 3.5 2.7 4.3 3.7.5.6.6 1.4.5 2.6 0 .5-.3 1.8-.8 3.5l-1 1.6c-6.2 8.2-9.9 17.3-13 26.7-2.1 7.2-4.8 14.1-7.4 21-.6 2.6-1.9 4.6-2.7 7-1.3 3.4-3.2 6.1-5 8.8-1.8 2.6-4.5 5.1-8.2 7.5-.6.5-2.1 1.1-4.5 1.6-5 .8-9.4-.2-13.6-2.9-3.5-2.1-6.4-5.1-8.6-9-1.3-2.1-1.4-4.3-.5-6.7.2 0 .5-.5.5-.6.2.2.3.5.3.8l.5 1.9c.8 4.3 3.7 7.2 8.6 8.6 6.6 1.9 12 .3 16.3-5 2.7-3.2 5.3-8 7.7-14.2 1.9-5.1 3.5-10.7 5.4-16.3.8-3 1.9-5.6 3.2-8.6 0 0-.2-.3-.2-1-.5.5-.6.6-.6.5-2.1 3-3.4 5.1-3.8 6.2-1.1 2.7-3.5 5.4-7.2 8.2-2.7 2.1-5.1 1.8-7.4-1.3-2.1-2.7-3-5.4-3-8.5.2-5.9 1.6-11.8 4-17.9 1.9-4.5 4.5-8.5 6.6-13 1.3-2.1 2.9-4.6 2.9-7.7-.2-.8 1.1-1 1.8-.8 2.4 2.2 4.3 4 5.4 5.3.8 1 1 2.2.3 4-1.3 3-2.2 5.8-3.5 8.5-1.4 3.2-2.9 5.8-4.2 8.8-2.6 4-3.8 8.6-5.1 13.1-.2.2-.3 1.3-.5 3.7 0 .5.2.8.5.8.5.3 1 .2 1.4-.3 2.2-2.1 4.5-5 6.9-8.6 1.4-2.6 3.2-4.6 5-7.2l-.2-.2c.5.8.8.8 1.1 0l-.2.2 1.1-1.1v.1h.3zm-31.6 54.3h-1c.5.2.8.3 1 .3.6 0 1.3 0 2.1-.2-.9-.1-1.5-.1-2.1-.1zm19.2-9.4v-.3c-.5 0-.5.2-.5.2 0 .3 0 .6-.2 1-.2.2-.5.6-1 .8-3.4 3.2-5.8 5.6-7 7 0 .2-.3.5-.5.5l.2.3c0 .2.2.2.5.2 3.4-2.2 5.6-4.6 6.7-7.2v-1c.2-.2.6-.3 1.1-1 0 0 .2-.3.7-.5zm84.7-61.1c2.1-4.6 5-9.6 7.7-14.7 2.1-4.5 5.4-8.6 7.5-13.3 3-5.8 5.6-11.5 7.5-17.8 1.4-4.8-.5-6.6-5.6-5.4-9 2.4-15 8.6-21.3 15.2-7.7 8.2-10.6 17.6-14.2 27.2-1.1 2.6-2.7 3.7-4.6 3.5-3-.2-4.2-1.6-3.4-4.5 2.4-6.4 4-13.1 7.8-18.9 5.3-9.1 12.6-17.6 22.4-23.3 5.9-3.7 11.8-5.3 17.4-4.6 7.5 1.3 12.5 6.1 10.1 14.2-2.1 7.2-5.6 14.2-9 21.1-5 9.6-10.2 19-15.2 28.6-4 7.5-7.5 15-10.6 22.2-1.9 4.6-3.2 8.6-4 11.8-.2.2 0 .6.3 1.4.8-.2 1.4-.5 1.6-1 4.5-5.8 9.8-11.5 13.4-18.1 6.4-11 12.8-21.3 19.4-32.3 3.7-5.9 7.7-12.8 12.6-18.7 2.4-2.1 3.8-.3 5.6.3 3 1.8 3.8 3.5 2.6 5.4-1.1 1.4-2.2 2.7-3.7 4.2-4.3 6.9-9.9 15.8-16.6 26.9-6.7 11-9.3 20-7.5 27 .8 3.7 2.9 4.2 6.6 1.3l13.1-10.7c.8-.5 1 1 2.1.3.2-.5.5-.8 1-1.4-2.4.5-3.2.3-2.1-.8s1.9-2.1 2.1-2.9c4.5-7.2 9.8-14.7 13.4-22.5 6.6-14.1 13.8-28.1 13.8-42.9 0-5.1.3-9.8-.2-14.9 0-.5.5-1.4 1.6-2.6 1.1-1.1 2.2-1.4 3.4-1l1.1 1.6c2.9 10.7 15.5 36.1 32.1 22.5 2.6 3-.8 6.9-2.9 8.2-2.2 1.9-6.4 2.4-12.3 1.4s-10.1-4.2-12.2-9.6c-2.1 8.8-5.3 18.1-9.4 27.7l-1 2.9c-1.8 3.8-2.1 4.2-3.5 7.5-1.1 2.4-2.6 5-3.4 7.5-1.8 3.8-2.9 6.1-3.7 6.6-.6.5-2.2 2.6-4.8 6.1-5 7.5-10.2 13.9-17.8 19-13.4 9-22.4 4.6-26.1-7-.6-1.9-.5-4.3-.5-6.9-.5-.2-.6-.6-.6-1.3-.8.5-1.3 1-1.4 1.1-4.5 6.6-8.6 13-12.6 19.4-1.9 3-4.3 4-7 2.6-3-1.4-4.3-3.7-4-6.7.2-5.3 1.4-11 3.8-17.4s5-12.2 7.5-17.4c.8-1.8 2.3-3.7 3.7-6.1zm-21.2-18.9c0 .5-.2.6-.2 1.1 0-.5.6-.5.8-1 1.9-3.7 4.6-6.9 4.5-11.2 1.1-1.3 2.4-2.6 3.8-3.8l-.2-.3c-1 .8-2.1 2.2-3.5 4.3-1.7 3.8-3.8 7.1-5.2 10.9zm10.8-17.5c.5-.6.8-1.1 1-1.6l1.1-1.3c.3-.3.6-.6 1-.8l1.8-2.1v-.2l-1.8 2.1c-.6.6-1 .8-1 .8-.5.8-1 1.3-1.1 1.4-.8 1.1-1.1 1.6-1 1.4v.3zm1.1 60.4l.2-.2v-.5c-.2.2-.2.4-.2.7zm2.4-4.9c0-.5-.2-.5-.2-.6h-.2c-.8.5-1.1 1.3-1 2.1 0 0 0 .2.2.2 0 0 .2 0 .2-.2l1-1.5zm2.3-6.9s.2.2.3.2v.5c0 .2.2.3.5.5 0-.2.3-.3.5-1h-1.1l-.2-.2zm1.1-56.6l-.2-.2.2.2zm4 50.7s-.2-.5-.2-.6c-.3 0-.5 0-.5.2-.3.2-.6.8-.8 1.8-.2.3-.3.6-.8 1 0 0 .3.3.5.3 0 0 .2 0 .2-.2s.2-.5.2-1.1c.8-.3 1.2-.6 1.4-1.4zm3.2-6.8s0 .2.2.2.3 0 .3-.2c.2-.6.3-1.9.8-3.7 0 0 .3 0 .5-.5 0-.2 0-.3-.2-.5 0 .2-.2.3-.2.3 0 .3 0 .5-.2.6-.6.6-1 1.8-1.2 3.8zm3.2-6c.8-1.8 1.4-2.9 1.9-3.5 1.8-1.9 2.2-4.5 3.4-6.6-.2.2-.3-.2-.3-1-.5.2-.6.3-.6.5-1.3 1.9-1.9 4.2-3 5.6s-1.3 3.4-1.9 4.8c0 0 0 .2.2.2h.3zm1.8 3.2v.3h.3c-.2-.2-.2-.3-.3-.3zm8.3-16h.3s.2-.3.3-.5l-.2-.2-.4.7zm5.3-9.3h-.2l-.2.2.2.2c.2-.2.2-.2.2-.4zm22.2 56.6c0 .2 1.1.3 1.1.3s.2-.2.3-.2c-.1.1-1.4-.1-1.4-.1zm11.5-17.1c-.6 0-.8-.2-.6-.3 1.8-2.7 3.5-8.6 6.7-12.3l.6-1.1c.2-.3.2-.6.2-1.1-1.1 1.4-1.6 2.2-1.6 2.2-2.4 4-4.3 8.2-6.7 12.5v-.2c0 .2-.5.8-1.4 2.2-1 1.4-1.3 2.1-1.1 2.1s1.4-2.4 2.6-3.2c.5-.5 1-.6 1.3-.6v-.2zm9.4-20.6v.2c-.2.2-.2.3-.3.3 0 0-.3.5-.8 1.4-.2 0-.2 0-.2-.2.2-.5.6-.6 1.1-1.1.1 0 .2-.5.2-.6zm3.1-9.2v2.2l1.3-2.4 2.1-5.8c1.1-5.8 2.1-11.2 3.4-17.1 0 0-.2-.3-.5-1.1-.5.5-.6 1-.6 1.1-1.4 7.7-3.2 15.4-4.6 22.9-.7.1-1 .2-1.1.2z"/><path class="st9" d="M1118.8 233.5c-.8-1.1-1-1.9-.2-2.6 0-.2.3-.8.8-1.6 3.2-5.3 5.4-11.5 6.7-18.7.8-5-.2-9.4-2.7-13.4-.5-.8-1.1-1.9-1.9-3.7-.3-.6-.3-1.4.2-2.6.5-1 1-1.1 1.3-.3 1.1 1.8 3 2.7 5.4 3.2 1.4.3 2.6 1.3 3.5 2.9.8 2.1 1.8 4.8 3 6.9.2.2.2.3.2.8-.5 3.2.2 6.4-.3 9.4-1.6 7.5-5 14.9-9.9 21.8l-3.2 4.2c-2.6 3.7-6.4 5.6-10.1 7.5-2.4 1.1-4.5.8-6.6-1.3-2.7-2.7-4.2-6.1-4-10.4.5-6.7 1.9-13.3 4.5-19.8.6-1.6 1.8-3.8 3.5-6.7 1.4-3 4.3-4.8 7-6.9.8-.6 2.1-.6 3.7 0l2.4 1.4c1.1 1.1 1.1 2.1.3 3.2-.8.8-1.9 1.9-3.4 3-1.1 1.1-1.6 2.1-1.8 2.9-.2.5-.6 1.4-1.8 2.7-2.7 3.7-4.6 7.7-5.6 12-1.3 4-2.4 8-2.4 12.3v1.8c0 .8.3 1 1.1.8l1.9-1c3.4-1.3 5.6-4.6 6.9-7.4 3.7-.6 5.1.8 5.9-2.4 0 0-.6-.5-.8-.5-.5 0-1 .2-1.4.5-1.1.5-1.1 1.9-2.6 1.9h.4v.1zm12-22.7c-.3-.2-.6 0-.8.2-.3.8-.5 1.1-.5 1.1 0 1-.3 2.4-1.1 4.2-1.1 2.1-1.9 4.5-2.6 6.6 0 .5.2.8.3.8h.6c1.1-.5 1.8-1.4 2.2-2.7 1-3.8 1.8-6.7 2.4-8.8 0-.2-.2-.3-.2-1 0-.2-.2-.4-.3-.4zm-3.2-13.4l.2-.2h-.2v.2zm3.7 8.3c0-.2-.2-.3-.3-.5 0 0-.2.2-.5.6 0 .5.2.6.3.8 0 .5.2.6.2.6l.3-.5v-1zm15 24.5c3.2-4.5 6.2-8.6 9.9-13 1.9-2.2 3.8-5.6 5.8-9.9 1.9-4.3 4-8.3 6.4-11.7.8-1.4 2.1-1.6 3.5-.5l2.7 2.7c1.1.8 1.4 2.1 1.1 3.7l-1.4 2.6c-.8.8-1.6 1.8-2.2 2.9-1.6 2.2-3 5.8-4.3 10.4-1.1 4.6-.2 7.8 3 9.3.6.5.8 1 .5 1.4-.5 1-.8 1.6-1.3 2.1-.8.8-1.6 1-2.4.2-3.2-1.8-7.7-5.6-8.5-9.4-.5-1.4-1.3-1.4-2.1-.2-1.8 2.4-3.4 4.5-4.8 6.9-.8 1.3-2.2 3.4-4.3 6.1-4.3 5.6-8.2 10.9-11.5 15.7l-.3.3c-.6.8-.3 2.6-2.1 2.7-1.4-1.3-3.5-1-4.6-3.4 0-.5-.2-1-.3-1.3-.8-1-1-2.2-.3-4 1.3-3 2.4-6.2 3.7-9 3.4-6.6 6.2-13.6 9.6-20.6l7-15c.5-1.4 1.3-1.6 2.4-.8 1.3 1.1 2.4 1.9 3.8 2.6 1.6 1.4 2.2 2.9 1.8 4.5-.3.8-.8 1.8-1.6 2.9l-9.1 18.2c-1.1 2.4-1.4 4.2-1.3 5h-.3l-.3.2c.3 0 .5-.2.5-.3.7-.7 1.1-1.2 1.3-1.3zm-10.7 10.2c.6-.2 1-.6 1-1.8.3-.5.5-.6.5-.6s-.2-.3-.2-.5c0 .2-.2.3-.2.3 0 .5 0 .8-.2 1-.5.3-.8 1-.8 1.8-.5.3-.8 1-.8 1.9-.3.2-.5.5-.6.8v.3s.3-.2.3-.3v-1c1 0 1.3-.6 1-1.9zm2.4-4.8v-.2h-.2l.2.2zm5.4-13.3c2.2-5.3 3.5-8 3.7-8.2 0 0-.3-.6-.3-.8-.2.3-.3.5-.3.6 0 .3-1 3.2-3.1 8.4-2.1 5.3-3 7.8-3 8-.2.2-.5.3-.6.6v.6l.5-.5v-.8c0-.2 1-2.6 3.1-7.9zm68-21.4c.3 0 .6.2 1 .3.8 1.1 1.1 2.4 1.1 3.5.2 4-.5 7.5-1.8 10.6-1.1 3-2.4 5.4-3.7 8-1.4 3.4-3.7 6.2-6.4 9-1.4 1.4-3.2 2.7-5 3.8-1.8 1.1-3.4 1.4-5.1.8l.2.5c-.2.2-.2.3-.2.6.5 4.8 1.4 9.6 3 14.2.3 1.8 1.8 4.2 4.3 7.4 0 .2 1 .5 2.7.8.6 0 1 .3 1 1v1.8c-.5 2.6-1.6 3-3.4 1.6-2.6-1.8-4.3-3.4-5.4-5-4.5-4.8-6.9-10.6-7.4-17.3-.5-1.8-.5-3.5-.5-5.6 0-.5-.3-1-1.1-1.8-.3-.2-.6-.2-.8 0-.3.2-.8.8-1.3 1.6l-6.9 10.7c-.8 1.3-1.6 1.6-2.7 1-1.4-.5-2.4-1.3-2.7-2.4-.8-1.1-1.1-1.6-1-1.4-.6-.8-.8-2.2-.5-4.2 1.1-1.8 1.8-3.5 2.1-5.3l.2.2s.2-.3.2-.5c.8-.2 1-.6.6-1.6 0-.2 0-.2-.2-.3 1.4-4 2.6-6.9 3.2-9l7.2-17.3c3-6.6 6.1-13.6 9.4-20.2 2.1-5 4.6-9.8 7.2-14.7.2-.5.6-.6 1.3-.5 2.1.5 3.8 2.1 5.6 4.8.5.8.6 1.4.5 1.9-.6 2.1-1 3.4-1.1 3.5l-4 7.5c-5.3 9.6-9.4 19.5-13.4 29.1-1.8 3.4-2.9 5.9-3.7 7.7-.8 1.9-1.1 3.4-.8 4.2l-.2-.2c1.8-2.4 3.4-4.8 5.3-7.2 5-6.6 10.9-15.2 16.8-21.6 1.4-1.3 3-1.4 5-.5.4.7.9.7 1.4.5zm-40 33.3v.6c0 .2-.2.2-.2.2l.2-.8zm4-3.1v.2h.2l-.2-.2zm1.4-2.4c.2-.2 0-.3-.2-.6l-.5.5v.6c0 .5 0 .8-.2.6 0 0 .2-.5.2-.6.6-.3.7-.5.7-.5zm10.4-29.2c-.3.2-.5.6-.5 1.4 0 .2-.2.2-.3.2-1.3 1.6-2.2 3.5-3 5.9 0 .5.2.8.2 1.3-.8.2-1.3.8-1.4 1.9-1.8 4.3-3.5 8.3-5.4 12 0 .5.2.8.2.8.3 0 .5 0 .6-.2.8-1.3 1.1-1.8 1.1-1.4 1.4-3.8 3.2-7.5 4.6-11.2 0-.6.2-1.1.3-1.9 2.1-1.9 3.2-4 3.4-6.4 0-.2-.2-.5-.2-1 .6-.2.8-.6.4-1.4 1.1-.5 1.8-1.3 1.6-2.4-1.1.3-1.6 1.1-1.6 2.4zm-9.1 26h-.2v.2l.2-.2zm.3-1.4l.2-.2h-.2v.2zm1.3-3.5l-.2.2.2.2v-.4zm1.1-2.7l.2-.2-.2-.2v.4zm.8-1.6c-.2 0 0-.2.3-.6 0 0 .2-.3.2-.5-.2-.2-.2 0-.2.5-.1.1-.3.6-.3.6zm1.2-2.8l.2.3v-.3h-.2zm1.2-2.4l.2.3v-.5l-.2.2zm1.8-3.6s.8.2.2-.5c0 .1-.2.5-.2.5-.5.3-.6 1-.6 1.8 0 .5-.2.6-.3.5 0 0 .3-.3.3-.5.4-.1.6-.7.6-1.8zm.6 23.9c-.5-.8-.2-1.1.8-1.1h2.6c1.4 0 2.1 0 2.1.2.8-1.3 2.7-.6 2.9-2.4.3-.5.6-.6.8-.8 3.8-4 5.3-5.4 7.4-10.1 1.4-2.7 3.4-5.9 4-9.8.5-1.1.6-2.4 1.1-3.8 0-.2 0-.2-.2-.3l-.2-.2c-1 .8-1.6 1.3-2.1 1.4l-.5.8-4.5 5.3c-2.4 3-6.1 7.5-8.2 10.6-2.4 3.4-4.2 6.7-6.6 9.9 0 .2.2.6.2.6h.5c.1-.1.1-.1-.1-.3zm1.6-28.3c-.2.2-.3.5-.3.5l-.8.8-.5.5c0 .5.2.6.2.6.2 0 .3-.2.3-.3v-.8l.8-.8c.2-.1.3-.3.3-.5zm.8-1.4l-.3-.2v.2h.3zm.5-1.6v-.2h-.2l.2.2zm.8 34.5c2.9-1.3 4.6-2.7 5.4-4.3 1.4-.6 2.6-1.4 3.4-2.2l.2-.3c-.5 0-.6 0-.6-.2l-2.2 1.1c-.5.2-.6.8-.6 1.6-.6 0-1.3.3-2.1 1-1.8 1.1-3 1.9-4 2.4l.5.9zm-.3-36.3v.2h.3l-.3-.2zm.3 33l-.3.2.3.2v-.4zm.7-34.9s-.8.3-.2.5c0 0 .2-.5.2-.6.5 0 .8-.5.8-1.4.3-.2.5-.6.5-1.6.5-.2.8-.6.6-1.8 1-.2 1.4-1 1.3-2.4.5 0 .6-.5.6-1.4.5-.2.6-.6.6-1.6.2-.2.3-.5.3-.6-.2.5-.3.6-.3.6-.6.2-.8.8-.6 1.6-.8.3-1 .8-.5 1.4-1.3.6-1.8 1.4-1.4 2.4-.5.3-.6 1-.6 1.8-.6.3-.8.8-.5 1.6-.5.1-.8.6-.8 1.5zm5.4-12.3l.2-.2h-.2v.2zm.5-1.7l.2.2v-.2h-.2zm1.2-3.4v.2h.2l-.2-.2zm6.6 42.5c1.6-2.1 2.4-4 2.2-6.1.5-1 .8-1.3.8-1.1 1-2.4 1.9-5.1 2.9-8.2 0 0-.2-.5-.2-.6-.3.3-.5.5-.5.3-.8 2.1-1.8 4.5-2.4 6.9-.5 1.1-.8 2.1-.6 2.7-1 1-1.4 1.3-1.3 1.1l-.9 5c-.5.2-.6.6-.6 1.4-.5.2-.6.5-.8.8-1.3.8-2.1 1.6-2.2 2.6 0 .3.2.5.3.5 0 .5.2.5.5 0 .8-1 1.3-1.9 1.4-3 .2-.3.3-.6.8-.8.4-.2.6-.7.6-1.5z"/><path class="st3" d="M1294.5 473.1c-11-1.3-23.2-2.5-36-2.6-12.8 0-24.9 1.5-35.9 3m-105.5 20.9c3-.3 6.2-.4 9.4-.5 3.3-.1 6.7.1 10.1.1m-407.9-5.1c0-.1 1.9.1 5.3.5s8.3.9 14.4 1.3c6.1.3 13.3.6 21.3-.4 2-.3 4-.6 6-1.1s4-1.2 5.9-2.1c1.9-.9 3.7-2.1 4.9-3.8.3-.4.6-.9.9-1.3.3-.4.4-.9.6-1.4.1-.2.2-.5.3-.8s.2-.6.4-.9c.1-.3.3-.6.5-.8.2-.3.3-.5.5-.8 1.5-2.1 3.5-3.5 5.6-4.6s4.2-1.9 6.4-2.6c4.3-1.3 8.6-1.9 12.6-2.4 8.1-.8 15.4-.7 21.6-.5 6.1.2 11.1.7 14.5 1.1 3.4.4 5.3.8 5.2.9 0 .1-1.9 0-5.3-.1-3.4-.2-8.3-.4-14.4-.5-6.1 0-13.4 0-21.3.9-4 .5-8.1 1.2-12.3 2.4-2.1.6-4.1 1.4-6 2.4s-3.7 2.4-4.9 4.1c-.2.2-.3.4-.4.7-.1.2-.3.4-.4.7-.1.2-.2.5-.3.7s-.2.5-.3.8c-.3.6-.5 1.2-.8 1.7s-.7 1.1-1 1.5c-1.5 2-3.6 3.3-5.6 4.3-2.1 1-4.2 1.7-6.3 2.2s-4.2.8-6.2 1.1c-8.1.9-15.5.5-21.6 0s-11-1.3-14.4-1.9c-3.6-.7-5.4-1.2-5.4-1.3zm327.1-80.4c2.6.3 5.2.6 7.6 1 4.8.8 9 1.7 12.6 2.3m-59.6 12.8c-2.9-.7-6-1.4-9.2-1.7-1.6-.1-3.2-.2-4.8-.1M242 452c7.6-1.8 16.2-3 25.3-3.1 9-.1 17.7.9 25.3 3m-216 41.4c-3.6.3-8.5-.1-13.8-1.3-10.6-2.5-18.3-6.7-18-7.2m2086.8-56c-2.7.7-5.5 1.5-8.5 2.3s-6.3 1.5-9.7 2.1"/></svg>