<svg version="1.1" id="Layer_1" xmlns="http://www.w3.org/2000/svg" x="0" y="0" viewBox="0 0 2175.8 1067" xml:space="preserve"><style>.st1{fill:#fff}.st13{fill:#507575}.st18{fill:#ffe1cb}</style><g id="Layer_1_1_"><path d="M1.1 1h2172.1v1117.4H1.1V1z" fill="#a9f7f5"/><path class="st1" d="M918.5 574.8s-23.2-6.6-23.2-66.9 29.2-102.4 80.7-102.4c57.4 0 102.7 30.3 96 90.5-.7 2 41.7-13.2 68.2 9.3s17.9 45.7 17.9 45.7 47.7-21.2 83.4-10.6 39.1 51 35.1 58.3-358.1-23.9-358.1-23.9zm-456.3-301c-2.3-.2-4.4-1.1-6-2.7-1.2-1.3-2.2-3-2.2-5.5 0-6.2 14.5-20.7 31.7-19.9 0 .3-13.2-14.5-12.9-29.3.3-14.8 12.6-41.9 66.9-41.9s34.4 39.3 34.4 39.3 18.6-4.3 28.8 3.2 10.8 17.2 9.1 21.2c-.3.5 54.9-1.6 54.6 24.5-.2 24.5-183.3 12.6-204.4 11.1zm1206.7-24.4c-.2.3-.7.1-.7-.3 1.5-9.6 5.1-51.5-41.8-51.5-53 0-56.5 53.8-56.5 71.5 0 16.3 14.5 51.5 52 51.5s164.5 4 164.5 4 22-1.5 22-24-22.3-48.3-48-48.3c-22.4 0-38.2 11.8-41.8 14.6-.3.3-.8.1-.8-.3-.4-5.3-3.1-30.3-21.2-30.3-17.2.1-25.1 9.2-27.7 13.1z"/><path d="M2175.8 662.8c-4 1.2-7.9 2.4-11.9 3.6-23.3 6.8-46.5 14-70 20.4-17.1 4.7-34.6 8.5-52 12.3-33.2 7.1-66.5 14-99.9 20.8-7.5 1.5-15.3 2.3-22.9 3.6-3 .5-5.9 1.6-9 2.1-11.9 1.9-23.9 3.6-35.9 5.4-1.9.3-3.8 1-5.8 1-1.1 0-2.5-.6-3.3-1.3-.4-.4.1-1.8.8-2.3 5.8-4.5 11.7-8.9 17.5-13.4 2.1-1.6 4.3-1.5 6.8-.7 2.6.8 5.4 1.1 8.1 1.6 2.1-5.8.2-10.1-5.1-12.7-4.1-2-10.5-1.3-14.4 1.4-11.3 7.9-22.7 15.7-34.1 23.6-1.4.9-3 1.7-4.1 2.8-5.6 6-13.7 6.3-21.9 6.7-2.6.1-5.2 1.4-7.7 1.2-5.6-.4-11 1.1-16.4 1.1-7.8 0-15.3.3-23 1.2-7.5.8-15.2.3-22.7.3-15.8 0-31.6.1-47.4-.1-3.5 0-6.9-1.1-10.4-1.5-2.6-.3-5.3-.7-7.7-.2-4.7.8-9.2 1.1-13.8-.4-.6-.2-1.3-.6-1.9-.5-5.6.5-10.9-.1-16.4-1-6.4-1.1-13-1.2-19.5-1.8-7-.7-14-1.5-20.9-2.4-12.7-1.7-25.4-3.2-37.9-5.5-15.2-2.8-30.3-6-45.1-9.7-10.6-2.6-20.9-6.2-31.2-9.6-10.3-3.4-20.7-6.7-30.5-10.8-11.6-4.9-22.7-10.7-33.9-16.2-4.4-2.1-9-4.1-12.9-6.8-6.4-4.3-6.2-6.8.6-11.1 9.7-6.1 19.3-12.4 29.3-18.1 31.1-17.7 62.6-34.9 95.3-50.7 25.2-12.2 51-23.3 78-32.5 17-5.7 113.9-32.6 212.9-32.6s221.9 40 233.2 43.4c14.2 4.3 92.2 37 102.9 42.3 1.3.7 2.9 1 4.3 1.5-.1 15.1-.1 30.3-.1 45.6zm-671.6-70.4c6.5-.7 12.9 2.5 18.2-2.3 2.1 1.7 3.6 3.1 5.6 4.7-2 1.3-3.4 2.2-4.8 3-30.9 17-61.8 33.8-92.6 50.9-7.5 4.2-14.3 9.3-21.5 13.8-5 3.2-6.2 3-10.9-.4-8.1-6-14.9-12.9-19.4-21.2-1.4-2.6-3.5-5.1-5.2-7.6-.7-.9-1.4-1.9-1.9-2.9-5-9.6-7.9-19.7-7.9-30.1 0-4.8 1.2-9.7 2.5-14.4 1.5-5.5 5.1-7.5 12.1-8.2 1.5-.1 3.2-.2 4.5-.8 4.2-1.8 8.1-1.9 12.8-1 2.8.6 6.5-.6 9.5-1.6 5.9-2 8-1.6 10.5 2.8 2.9 5.1 6.1 6.7 12 4.2 6.3-2.7 10.8-.7 16.1 1.4 15.1 6.2 30.5 12 45.8 17.9 1.6.6 3.4 1 5.1 1.3 6.1.9 9.2-1.3 9.4-6.4.1-.8.1-1.7.1-3.1zM1129.8 713c-12.9-4.7-24.9-10.7-38-14.9-2.8-.8-5.7-1.6-8.6-2.2-8.6-2-17.3-3.3-26.2-3.1-2.1 0-4.3.1-6.4.3s-4.3.4-6.4.8c-2.3.2-4.5.4-6.8.7-2.3.2-4.5.4-6.8.7-2.2.2-4.4.2-6.5.2-11.1 0-22.2.1-33.3 0-18.2 0-36.2-1.4-54.2-4-17.3-2.5-34.4-5.6-51.2-10.2-19.3-5.4-37.8-12.8-55.3-22.8-7.1-4-14-8.4-21-12.6-1.6-1-3-2.4-5.1-4.1 2.9-2.5 5.2-4.7 7.8-6.7 27.3-20.9 56-39.6 85.8-56.8 13.6-7.8 27.6-14.7 42.3-20 8.4-3 54.2-20.2 110.8-20.2 58.3 0 164 32.6 188.7 44.5 10 4.8 19.2 11.1 28.7 16.7 2.7 1.6 3.5 3.9 3.5 6.9-.1 8.2-.1 16.4 0 24.5.1 4.1-1.6 6.4-5.4 7.7-15.1 5.4-29.9 11.3-45.1 16.2-8.8 2.8-17.7 5.4-26.6 7.9-3 .8-5.9 1.7-8.9 2.5-1.9.3-3.9 1.3-5.9 3.3-10 12-5 31-18 41 2-3 3-6 3-9 0 1-1 2-1 3-2-10-15-10-22-17 5 3 11 10 9 16-3 6-11 5-16 3 1 3 8 6 1 7.7.6.5-.9.6-5.9 0zM781.3 569.8c3 2.3 6.1 2.1 9.2.5.6-.3 1.5-.6 2.1-.4 3.5 1.5 6.6.4 9.9-1 2.7-1.2 4.4.4 5.6 2.8 2.2 4.1 3.6 4.8 7.7 2.8 4.9-2.4 9.6-5.2 14.2-8.1 3.1-1.9 5.9-2.2 9.2-.8 1.9.8 4.2.8 6.3.9 2 .1 4 .1 5.9-.1 3.2-.4 6.4-1 10.2-1.6.7 1.9 1.8 4 2.2 6.2.5 2.7 1.5 4.5 4.4 4.5 2.5 0 3.9 1 4.6 3.6.6 2 2.1 3.7 3.5 6.2-1.9 1.4-3.9 2.9-5.9 4.3-19.2 13.1-38.4 26.1-57.6 39.3-3.4 2.4-6.5 5.2-9.7 8-2.2 1.9-4.1 1.8-6.2-.2-15.1-14.5-22.9-32-21.3-53.2.5-4.9 2.1-9.5 5.7-13.7z" fill="#6cef6c"/><path d="M2177.1 624v565H.3c-.1-3.3-.2-6.6-.2-9.8V632.8c0-2 .2-4 0-6-.5-4.4 2.2-7.6 7.1-10.3 14.2-8 29.2-15.2 45.1-21.5 50.5-20 104.1-34.9 160.5-44.7 96.9-16.8 194.8-30.6 294.2-38.3 25.8-2 51.9-2.9 77.9-3.2 25.2-.3 50.4 1.6 75.4 3.8 55.1 4.9 108.6 13.9 160.8 26.8 39.7 9.8 76.4 23.7 112.7 38.3 45.1 18.2 86 40.1 122.9 65.6 6.9 4.8 14 9.5 21 14.2 23.1 15.8-12.5-12.5-29.9-24.3-7.5-5.5-5.2-6.4 3.6-11.2 22.3-14.6 48.5-24.7 78.1-30.7 69.1-14.1 139.8-21.8 211.8-24 35.8-1.1 71.7-.8 107.5 1.9 47.2 3.6 93.4 10 137.8 21.9 71.3 19.1 139.3 42.4 201.6 73.2 13.7 6.8 25.8 14.5 38.1 22.3 2.3 1.5 4.4 3.2 6.5 4.8 6.5 5.2 6.4 5.7-1.3 9.8-7.9 4.3-16.1 8.4-23.7 12.9-16.6 9.9-.6 5.1-17 15.2-2.6 1.6 58.1-33.2 8.2-6.6.9.6 4.4-.5 5.3-1.1 2.9-1.6-8.2 2.7-5.3 1.1 13.7-7.8-8.4 6.7 5.3-1.1 29.3-16.5 58.4-33.4 93-44.8 9.8-3.2 19.4-6.8 29.1-10.2 78.8-26.8 162.6-40.5 250.7-42.6z" fill="#63db63"/></g><path d="M200.5 222.7c2.9-4.9 7.2-6.9 13-6.2 5.6.7 8.6 4.8 12 9.6 2.1-2.3 3.7-4.6 5.7-6.2 6.8-5.6 15.3-3.2 18.6 5 .4 1 1 2.2-.2 2.9-1.3.7-1.9-.7-2.5-1.5-6.5-8.3-10-8.5-17.1-.7-1.3 1.5-2.5 3.1-3.8 4.6s-2.5 1.3-3.4-.4c-.6-1.1-1-2.3-1.6-3.5-3.9-7.9-10.5-9.8-18-5.2-.8.6-1.4 1.8-2.7 1.6zM1610.7 468c-4.5-4.4-5.6-11.8-13.1-11.8-7-.1-10.4 4.8-13.2 10.2-2.9-1.8-2.3-4.4-3.1-6.3-3.1-7.5-8.9-9.6-15.9-5.5-4.6 2.6-7.6 6.8-11.3 10.4 2.9-7.6 7.6-13.3 15.5-15.6 5.2-1.4 9.3 1 12.5 5.2s3.2 4.2 7.9 1.3c9.8-5.7 19.5-1.1 21.5 10.2.3.4-.2.9-.8 1.9z" fill="#68afb1" id="birds_and_clouds"/><g id="Trees"><path d="M476.2 459.2c7.9-.8 14.7.1 21 3 15.7 7.1 23.9 19.9 25.9 36.4 2.1 17.8-2.2 34.3-13.3 48.7-11.4 14.8-26.2 23.7-44.5 27.1-20.5 3.8-37.7-1.8-52-16.7-3.4-3.5-6.9-7-9.6-11.1-2.8-4.1-4.1-4-7.4-.1-6.8 7.8-13.7 15.6-22.1 21.7-11.1 8.2-23.5 13.8-37.3 15.7-9.5 1.3-18-1.9-25.5-7.4-11.8-8.7-20-20.2-23.8-34.3-6-22.3.5-41.9 18.8-56.3 3.6-2.8 7.9-4.4 12.4-5.3 3.7-.7 4-1.4 2.2-4.7-2.9-5.5-5.7-11-7.5-16.9-5-16.4-3.9-32.3 4.5-47.5 2.8-5 6.6-9.2 11-12.7 4.6-3.7 10-4.9 15.9-4.4 6.2.6 6.4.5 6.2-5.9-.1-7.3.1-14.6 2.9-21.5 7.7-19 21.2-31.5 42-33.3 15.8-1.4 30.6 7.4 36 24.9 3.4 11.1 2 21.9-1.4 32.7-2.4 7.4-2.2 7.5 5.3 6.1 12.9-2.4 25 .2 36.2 6.8 10.3 6.1 16 19 14 31-1.1 6.7-3 13.1-6.9 18.8-1.1 1.4-1.7 2.9-3 5.2zm1336.4 411.5c-3.8 5.3-7.4 9.8-10.5 14.7-9.2 14.1-23.4 17.8-38.6 13.9-7.1-1.8-12.2-6.7-15.8-12.6-9.4-15.2-9.7-31.3-3.1-47.6 4.8-11.8 12.2-21.9 22.8-29.3 3.3-2.3 3.2-2.8-.2-4.6-4.4-2.3-8.4-5.1-12.1-8.3-14.6-12.5-12.9-30.9-7.6-42.4 6-12.8 17.6-19.5 31.7-18.7 4 .2 7.5 2.2 11.3 3.3.9-2-.4-3.1-.9-4.4-4.8-12.3-7.8-24.9-7.8-38.2 0-10.6 3.9-19.6 10.1-27.6 4.3-5.6 9.8-10.2 16.3-13.4 14.5-7.1 26.8-4.4 36.5 8.6 4.8 6.4 7.3 13.8 8.1 21.7 1.1 11.3-.4 22.1-6 32.2-.6 1.1-1.6 2.1-1.3 3.5 1.2 1.3 2.3.3 3.4-.1 12.7-4.2 24-2.1 33.6 7.5 9.6 9.7 13.1 21.2 9.2 34.5-2.7 9.1-7.5 16.9-15.1 22.8-.9.7-1.7 1.4-2.4 2.2-.8 1-.6 2 .6 2.6.3.2.7.3 1 .4 15.2 4.5 21.2 16.2 23.5 30.5 2.6 16.1 0 31.5-7.8 45.9-7.9 14.6-20.3 23-36.7 23.7-16.2.7-30.4-4.8-40.3-18.6-.5-.6-.9-1.1-1.9-2.2zm-585.7-296c-4.9 8.5-13 11.4-21.3 13.7-7.1 1.9-12.9-1.8-17.3-6.8-5.7-6.4-9.1-14-8.1-23 .2-1.8.2-3.6 0-5.4-.8-8.8 3.9-15 10.1-20 2.9-2.3 4.2-4.6 4.1-8.2-.1-7.7 2.6-14.2 8.5-19.3 2.1-1.8 4.1-3.6 7-3.9 3.3-.3 4.1-2.3 4.1-5.2 0-4.4.8-8.7 2.4-12.8 1.8-4.7 4.9-8.4 8.9-11.4 5.3-3.9 9.8-3.9 14.8.5 5.2 4.5 7.6 10.5 8.6 17.2.8 4.8.8 4.8 5.5 3.6 2.8-.7 5.6-1.7 8.5-1.5 12.7.7 21.4 16 14 27.6-1.2 1.8-2.5 3.6-3.6 5.5-1.3 2.3-.9 3.9 1.9 5 10.5 4.4 15.5 13.3 18.1 23.7 1.6 6.6-2.1 12.1-6 16.9-10.7 12.8-25 16.9-41 15.9-7.7-.7-12.5-4-19.2-12.1z" fill="#ffc7c0"/><path d="M390.8 533c1.4-1.8.2-3.6-.3-5.2-8.3-24.9-11.1-50.7-13.3-76.6-1-11.8-2.3-23.5-3.6-35.2-.5-4.4-.6-8.7-.5-13.1 0-1.8.6-3.4 2.5-3.7 2.6-.4 5.3-2.1 7.9-.4 1.4.9 1.1 2.6 1.1 4v16.9c.3 33.2 5.9 65.4 16.4 96.9 1.1 3.4 2.1 6.9 4.6 10 1.9-1.4 2-3.2 2.5-4.9 3.4-10.7 6.5-21.6 10.9-32 2-4.7 3.8-5.4 8.4-3.6 2.1.8 3 2 1.9 4.1-.6 1.3-1.2 2.6-1.9 3.9-4 8.4-6.8 17.2-8.5 26.4-.5 2.8-1 5.6-.5 8.3 2.1.2 2.8-1 3.7-1.8 6.9-6.4 15.4-9.5 24.5-11 4.3-.7 4.7 0 3.9 4.3-.7 3.8-2.3 5.8-6.3 6.9-13.4 3.8-22.4 12.9-28.9 24.9-1.2 2.2-.9 4.6-1 6.9-1.8 44.1-1.7 88.3-1.3 132.5.1 7.8 0 7.6-7.7 8.1-8.2.5-16.3 1.1-24.3 3.3-4.2 1.2-5 .5-4.3-3.8 1.4-9.3 3-18.6 4.3-28 2.3-16.4 3-32.9 3.9-49.4.9-16.9 1.3-33.8 2-50.7.6-12-3.6-22.6-10.3-32.1-8.8-12.3-17.4-24.6-27-36.3-2.1-2.5-3-4.8-.9-7.7 2.3-3.2 3.4-3.6 6.7-1.7 3.5 2.1 6.1 5.1 8.6 8.3 7.4 9.4 13.9 19.6 22.5 28 1.3 1.6 2.2 3.4 4.3 3.5zm1418.9 310.8c1.8-4.2 2.1-8.3 2.9-12.4.8-4.1 1.7-8.2 3.5-12 .6-1.3 1-2.8 2.3-3.6 1.8-1.2 3.9-2.9 5.9-1.6 2 1.2.2 3.3-.3 4.9-1.6 6-3.6 11.8-4.5 18-.2 1.2-.4 2.5-.4 3.8 0 .7.4 1.5 1.2 1.6.8.1 1.4-.4 1.7-1.1.6-1.5 1.2-3 1.6-4.6 3.4-12.1 7.1-24 11.7-35.7 1.9-4.7 4-9.4 6.5-13.8.7-1.2 1.5-2.6 2.6-3.4 1.7-1.3 4-2.7 6-1.3 2.2 1.6.3 3.7-.6 5.3-11.1 22.4-19.6 45.7-24.1 70.4-3.2 17.7-5.8 35.5-4.9 53.6.8 15.3 3.5 30.3 5.9 45.4.2 1.3.5 2.5.6 3.8.2 3.6-.8 4.9-4.4 5.6-.7.1-1.4.2-2.2.2-9.5 0-18.9.3-28.3 1.3-6.4.7-8.1-1.4-6.8-7.6 4.4-21 7.2-42.3 9.7-63.5 2-17 2.3-34 .2-51.1-1.2-9.9-1.3-19.9-2.6-29.8-.2-1.8-.5-3.8 1.6-4.8 2.6-1.1 4.8-3.5 8-3 1.8.3 1.9 2 2.1 3.4.7 5.2 1.4 10.4 2 15.7.5 4.5.8 9 1.3 13.6.2.6.3 1.5 1.8 2.7zm-582.2-286.4v-13.1c0-1.6-.3-3.6 1.9-3.9 2.6-.3 2.8 1.7 2.9 3.6.2 3.2-.1 6.5 1.5 9.5 1.3-.1 1.5-1.1 1.9-1.8.9-1.7 2.3-2.5 4-1.6 1.9 1 .7 2.6 0 3.7-5.7 10.1-5.7 21.3-5.9 32.3-.3 13.4-.8 26.9 0 40.3.3 4.7.1 4.7-4.7 5.1-3.6.3-7.2.6-10.8 1.4-4.3 1-4.5.4-3.7-4.1 2.4-13 5.3-25.9 6.5-39.2 1.6-17 .5-33.7-4-50.2-.3-1.2-.8-2.4-.6-3.7.2-1.4 1.1-2.4 2.4-2.7 1.7-.4 2.2.9 2.5 2.2 1.1 5.1 2.2 10.3 3.2 15.5.5 2 .7 4 2.9 6.7z" fill="#b26e62"/></g><path d="M630.1 942.1c-4.9.9-9.4-.9-13.8-2.3-16.9-5.6-28.7-17.2-36-33.9-1.4-3.3-3-5.7-6.9-6.1-3.4-.3-4.5-3.4-5-6.6-1.9-12.5.1-24.2 5-35.8 7.4-17.3 19.6-30.1 33.4-41.7 10.6-8.9 21.9-16.9 33.7-23.9 3.5-2.1 6.7-4.5 9.9-7 10.2-7.7 21.1-14.3 33.3-17.8 9.8-2.8 19.8-4.7 29.9-6.1 16.6-2.4 33.3-2.4 50-2.2 17.1.2 34.2 0 51.1-2.4 13.1-1.9 26.2-4.3 38.4-10.2 18-8.8 37.1-12.2 56.9-13.7 21.1-1.6 42.1 1.7 63.2.3 3.1-.2 6.1-.3 9.2-.7 17.6-2.8 35.2-5.5 53-6.9 11.4-.9 22.8-1.8 34.3-1.5 14.6.4 28.9-1.3 43.2-4.6 19.1-4.4 38.6-7.4 57.8-11.4 13.2-2.7 26.4-5.4 39.7-7.1 1.1-.1 2.2-.5 3.2-.4 12.7.3 25.4-2 38.1-1.2 6.7.4 13.4 1.1 20.1 1.9 5.8.7 11.5 1.5 17.4 1.5 8.8 0 17.4 2 25.7 4.4 19 5.3 38.2 9.2 57.6 12.5 12 2 24 4.3 36 6.1 14 2 28.1 3.7 42.2 5.3 6 .7 11.8 2.4 17.5 4.3 10.5 3.5 21.3 6.4 31.6 10.7 4.8 2 9.1 4.7 13.2 7.9 3.2 2.4 5.4 5.7 6.4 9.6 1.3 4.9 4.3 8.2 8.1 10.9 5 3.6 10.1 6.7 15.8 8.9 13.3 5 25.1 12.7 36.9 20.5 10.5 6.9 21.9 11.9 33.4 16.5 10.1 4.1 20.2 8.4 30.4 12.5 8.7 3.5 12.3 18.2 10 25.8-1.2 4-2.9 7.8-5.8 10.8-4.8 5.1-9.6 10.3-14.9 14.9-8.7 7.6-11.9 18.1-13.6 29.4-2.1 13.6-3.7 27.3-9.8 39.8-.8 1.7-1.5 3.4-2.6 5-1.8 2.7-2.9 5.5-2.9 8.9-.1 5.4-2.8 9.1-7.5 11.5-6.4 3.3-12.9 6.2-19.6 8.7-20.8 7.6-40.9 16.7-60.6 26.8-16.9 8.6-33.8 17.5-50.2 27.3-10.5 6.4-21.3 12.2-31.9 18.5-8.8 5.2-17.6 10.6-26.2 16.2-17.6 11.6-35 23.7-52.4 35.7-17.1 11.7-34.2 23.6-52.1 34.1-17.6 10.2-36.6 15.5-56.4 18.1-18.7 2.5-37.4 2.5-55.8-2.3-22.8-5.9-44.6-14.6-65-27.1-14.7-9.1-28.2 16.4-42.1 6.1-20.9-15.6-41.3-32.1-62.8-46.7-13.8-9.4-28.1-18-43.2-25.1-12.4-5.8-24.8-11.8-37.6-16.5-16.8-6.1-33.9-47.6-51.4-51.2-14.3-2.9-28.7-5.1-43-7.1-14.2-2-28.5-3.5-42.7-5.3-12.3-1.6-24.5-3.4-36.7-4.9-14.4-1.8-28.8-3.9-43.1-6.6-15.6-2.9-30.9-7.1-45.9-12.3-8.1-2.8-16.1-5.8-24-9.4-4.9-2.2-9.4-5-13.9-7.8-5.5-3.5-8.3-8.8-9-15.3-.4-3.8-1-7.5-3-10.8-1.6-2.6-1.2-5.5-1.6-8.2-1-5.7-3.1-7-7.8-3.9-5.8 4-11.4 3.9-17.4.8-2.3-1.2-5-1-7.5-.7-3.2.3-3.6 1.3-2.1 4.5 4.4 8.7 11.2 14.7 19.4 19.1 3.9 2.1 7.7 4.1 12 5.4 2.7.4 5.1 1.2 6.8 3.5z" fill="#95e5e1" id="Lake"/><path id="white_waves" d="M858.4 802.5c12.2-18.7 82.6-31 106.7-18.6-2.5 1.4-4.8.7-7 .4-7.4-.9-14.8-1.7-22.2-1.8-25.9-.6-49.9 6.1-72.6 18.4-1.4.7-2.7 2.3-4.9 1.6zm307.6 230.2c4.2-.7 7.7-.4 11.3 0 11.8 1 23.6 1.4 35.3-.3 9.6-1.4 18.8-4.2 26.8-9.9 1.3-.9 2.5-2.2 4.8-1.5-1.3 2.6-3.4 4.2-5.5 5.7-7.9 5.5-16.7 8.9-26.3 9.4-14.5.8-29 .7-43.4-1.8-.9-.1-1.9 0-3-1.6zm-85.6-167.6c8.2.3 16 3.3 24.1 3.6 8.2.2 16.3.4 24.5 0 8.3-.4 16.3-2.7 25.4-4.2-12.2 10.8-62.6 11.1-74 .6zm-53.1 94.3c9.6.9 20.3 2.4 31.1 4.2.5.1 1.1.2 1.6.4.7.2 1.4.7 1.1 1.5-.1.4-.7.9-1.1 1-1.4.2-2.9.4-4.3.2-8.3-.9-16.5-2-24.8-2.8-3.8-.4-7.6-.2-11.4-.4-.9 0-2-.1-2.2-1.2-.3-1.4.9-1.8 1.9-2.2 2.1-.9 4.5-.6 8.1-.7zM1212 737c-10.2 5.5-58 13.7-65.3 11.9 1.2-1.6 2.8-1.7 4.3-1.9l45.6-6.9c5.2-.8 10.3-2.1 15.4-3.1zm166.8 68c8.2-4.6 15.8-2 24.1-2.6-3.1 1.9-17.8 3.4-24.1 2.6zM1161 1032.3c-2.9 1-4.6 1-6.6-.4 2.1-1 3.7-.9 6.6.4zm-20.2-282.2c-.3.1-.6.4-.9.4-.6 0-1-.4-.6-1 .1-.2.7-.3 1-.2.2.1.3.5.5.8z" opacity=".57" fill="#fff"/><path id="blue_waves" d="M858.4 800.5c12.2-18.7 82.6-31 106.7-18.6-2.5 1.4-4.8.7-7 .4-7.4-.9-14.8-1.7-22.2-1.8-25.9-.6-49.9 6.1-72.6 18.4-1.4.7-2.7 2.3-4.9 1.6zm307.6 234.2c4.2-.7 7.7-.4 11.3 0 11.8 1 23.6 1.4 35.3-.3 9.6-1.4 18.8-4.2 26.8-9.9 1.3-.9 2.5-2.2 4.8-1.5-1.3 2.6-3.4 4.2-5.5 5.7-7.9 5.5-16.7 8.9-26.3 9.4-14.5.8-29 .7-43.4-1.8-.9-.1-1.9 0-3-1.6zm-85.6-171.6c8.2.3 16 3.3 24.1 3.6 8.2.2 16.3.4 24.5 0 8.3-.4 16.3-2.7 25.4-4.2-12.2 10.8-62.6 11.1-74 .6zm-53.1 94.3c9.6.9 20.3 2.4 31.1 4.2.5.1 1.1.2 1.6.4.7.2 1.4.7 1.1 1.5-.1.4-.7.9-1.1 1-1.4.2-2.9.4-4.3.2-8.3-.9-16.5-2-24.8-2.8-3.8-.4-7.6-.2-11.4-.4-.9 0-2-.1-2.2-1.2-.3-1.4.9-1.8 1.9-2.2 2.1-.9 4.5-.6 8.1-.7zM1212 735c-10.2 5.5-58 13.7-65.3 11.9 1.2-1.6 2.8-1.7 4.3-1.9l45.6-6.9c5.2-.8 10.3-2.1 15.4-3.1zm166.8 68c8.2-4.6 15.8-2 24.1-2.6-3.1 1.9-17.8 3.4-24.1 2.6zM1161 1034.3c-2.9 1-4.6 1-6.6-.4 2.1-1 3.7-.9 6.6.4zm-20.2-286.2c-.3.1-.6.4-.9.4-.6 0-1-.4-.6-1 .1-.2.7-.3 1-.2.2.1.3.5.5.8z" fill="#9edfde"/><g id="fields_front"><path d="M915.3 1268.2c4.3-7 11.5-12.5 17.9-18.4 26.3-24.3 53.9-47.7 83.9-69.6 43.8-31.9 92.7-58.6 146.7-80.6 123.9-50.5 255.6-86 393.5-109.6 71.8-12.3 144.5-21.3 217.8-28 41-3.7 82.2-6.8 123.6-8.2 14.7-.5 29.4-1.6 44-1.1 13 .4 25.9.4 38.8-1.1 3.6-.4 7.5-.6 11 0 16.9 2.6 33.9.7 50.8 1 40.7.7 81.2 3.5 121.7 7 3.7.3 7.3.7 10.9 0v308.6H915.3z" fill="#73d154"/><path d="M0 1193c.9-2.9.5-5.9.5-8.9V840.3c0-9.3-2.1-9.1 11.2-11.1 20.1-2.9 40.4-4.5 60.7-6.1 35.7-2.7 71.5-4.7 107.4-4.8 19.5-.1 39-.3 58.4.5 23.9.9 47.7 2.8 71.5 4.1 17.8 1 35.5 2.4 53.2 3.9 29.6 2.5 59.1 6 88.4 10.3 87.5 12.8 171.8 34.8 253.6 63.5 77.9 27.4 151.8 61.1 221.1 101.9 37.7 22.2 74.8 45 109.8 70.2 30 21.6 58 44.9 83.7 70.2 14.8 14.6 29.2 29.4 42.9 44.7 1.5 1.7 3.3 3.4 4.2 5.5-388.9-.1-777.8-.1-1166.6-.1z" fill="#66c642"/></g><path id="Rocks" d="M369.4 709.7c-5.4-.4-10.8-.7-16.2-1.2-2.6-.2-5.1-.8-6.1-3.7s-.1-6.2 2.7-8.2c5.6-4.1 12.1-5.8 19-4.9 5 .6 9.8 2.5 14.6 4.4 2.9 1.1 4.9 3.1 4.7 6.5-.2 3.1-2.1 5.1-6.2 5.8-4.2.7-8.3 1.6-12.5 1.3zm1521.2 254.9c-10.3-1.7-19.9-1.9-29.5-2.7-.9-.1-1.8-.3-2.7-.6-2.6-1-3-2.4-1.2-4.5 2.9-3.5 6.9-5.8 11.2-6.1 8.6-.7 16.7.6 22.4 8.2.4.6.9 1.1 1.3 1.8.5.9 1.1 1.9.5 3.1-.6 1.1-1.7.8-2 .8zM909.8 671.4c-3.3 0-5.1-.7-6-2.8-.9-2-.4-3.9 1-5.6 1.7-2 3.9-3.5 6.6-3.1 4.3.7 8.5 1.7 12.7 2.9 1.9.5 3.9 1.6 3.4 4.2-.5 2.3-2.6 2.4-4.4 2.3-4.9-.3-9.6 1-13.3 2.1zm337.3-33.3c-2.4-.4-5.5.7-6.1-2.4-.6-3 2.2-4.3 4.4-5.4 1.6-.9 3.5-.9 5.3-.7 2.1.2 4 1.1 4.2 3.5.3 2.6-1.4 4-3.7 4.6-1.3.2-2.8.3-4.1.4zm598.6 323.8c-2-.1-3.6-.5-3.7-2.5-.1-1.5 1.1-2.2 2.5-2.1 1.7.1 3.4.6 3.5 2.6.2 1.6-1.3 1.7-2.3 2zm-611.6-317.4c-.1 1.9-1.4 2.1-2.7 2.1-1.4 0-3.1-.1-3.2-2-.1-1.6 1.3-1.9 2.6-2 1.5 0 2.8.5 3.3 1.9z" fill="#e3eaac"/><g id="I_x27_m_Hristina"><g id="Layer_1_2_"><path class="st13" d="M867.7 238.5c-1 2.1-1.3 3.4-1 3.8s1.7.6 4.2.6h2.4c1.2 0 2 .1 2.6.3l.2.2h1.3c1.3.1 2.3.7 3 1.9.1.1.3.2.5.2.4 1.2.1 1.9-1.1 2.1-1.7-.1-4-.2-6.9-.2h-1c-1.4 0-2.8 0-4.2.1s-2.9 0-4.4-.1c-2.5 0-4.9 0-7.2-.1s-4.7-.1-7.2-.1c-1.1 0-2.1 0-3-.1s-1.8-.1-2.8-.1c-1.8.2-2.7-1-2.7-3.5 0-.6.3-1 .8-1 2.8 0 4.9-.1 6.2-.2.4-.1.7-.2 1-.2 2-.3 3.6-.4 4.6-.2 1.1.2 2-.5 2.9-2.1s1.9-3.7 3-6.4c1.2-2.7 2.1-4.9 2.9-6.6 3.7-7.8 7.5-15.6 11.3-23.5s7.6-15.8 11.6-23.7c0 .1.1.2.2.2 0 .2.1.3.2.3l1-2.2-.3.2v-.2c4.2-8.3 6.9-14.2 8.2-17.7s2.8-6.5 4.5-9.2c-2 0-4-.1-5.8-.2-1.9-.1-3.7-.1-5.4.2-2.8.3-4.2-1-4.2-3.8 0-.9.4-1.3 1.3-1.3 6.3-.4 12.4-.6 18.2-.6.1 0 .3 0 .5.1s.4.1.6.1c2-.3 3.7-.3 5 0l-.2.5c.5.2 1 .3 1.3.2l1.3.6c.7-.2.5-.2-.6.1-1.2.3-1.4.2-.6-.2h2.2c.5 0 1.3-.1 2.2-.3l-1.4-.8c1.6-.3 3-.2 4.2.3l-1.4.5h-1.3c.4.2.9.2 1.3 0 1.6 1 3 1 4.2.2l-1.3-.6c.5-.3.9-.5 1.1-.5.6 0 1.2 0 1.8.1.5.1 1.1.1 1.8.1 1.8 0 3.2.7 4.2 2.2l.5.3c.7 1.8.3 2.8-1.4 3-4.3-.1-7.2-.2-8.7-.2-1.5-.1-4.2-.1-8.1-.1-2.2 4.4-4.7 9.6-7.4 15.6s-5 10.7-7 14c-5.9 10-10.7 19.7-14.4 29-4.2 9.5-8.5 19.1-13.3 29z"/><path class="st13" d="M861.3 232c-.3 0-.5.1-.5.3-.1 0 0 .1.3.3 0-.1.1-.2.2-.2v-.4zm0-.3c1.5-1.6 2.2-3.3 2.2-5-1.5 1.7-2.2 3.4-2.2 5zm0 .3v-.3.3zm4.3-3c-.7.4-1.1.7-1.1.8-.6 1.7-1.2 3-1.6 4 .1.2.2.3.3.3h.5c1.3-2.3 1.9-4 1.9-5.1zm-1.6-2.8c-.2-.2-.3-.4-.3-.6 0 .2-.1.4-.2.5v.5c.1 0 .3-.2.5-.4zm-.5.4v.2-.2zm1.5-3.6c-.3.3-.5.5-.6.5 0 .1.1.3.2.5.2-.1.3-.2.3-.3 0-.2.1-.4.1-.7zm0 0c.7-.3 1.4-.3 1.9 0-.2-1-.4-1.7-.6-2.1h-.6c-.1.3-.2.7-.4 1-.2.5-.3.8-.3 1.1zm2.4 3.2v-.3l-.2-.3c-.4-.3-.6-.3-.6 0-.6.5-1 1.6-1 3.2l1.8-2.6zm-1.8 2.6v.2-.2zm1.6-5.8h-.3.3zm0 0c0 .2.1.5.3 1 .2 0 .4-.1.5-.2.1-.3.3-.7.5-1l.6-1.2c-.1-.3-.2-.5-.2-.6-.2 0-.4.1-.5.2-.3.3-.6.6-.8 1-.1.2-.3.5-.4.8zm6.6-11.8l-.2-.3-.2.3.2.2.2-.2zm2.4-3.7v-.3c-.1 0-.2-.1-.3-.3-.3.1-.6.3-.7.5-.2.2-.3.3-.4.3v.3c.1.1.2.2.3.2.5-.3.9-.5 1.1-.7zm1.7 37c-.7-.3-1.3-.5-1.6-.5v.6c.3.1.9.1 1.6-.1zm.3 0h-.3.3zm0 0h.3-.3zm2.9-48.3l-.2-.3h-.5c-.4.7-.7 1.4-.8 1.9 0 .1.1.2.2.2h.3c.6-.8.9-1.4 1-1.8zm-.3-7.1c0 .1-.2.2-.5.3 0 .1.1.3.2.5.2-.1.3-.2.3-.3v-.5zm.2-.3l-.2.3h.2v-.3zm.4-1.3c-.3.3-.5.7-.5 1.3.4-.1.5-.5.5-1.3zm0 4.3l-.2-.2.2.2zm.2-4.4v.2h-.2c.2-.1.2-.1.2-.2zm.6 6.8c.2-.1.6-.4 1.1-1 .3-.6.1-1.1-.8-1.3-1-.5-1.3-.6-1-.2-.1.4-.2 1-.2 1.8 0 .4.1.7.2 1 .5-.3.7-.4.7-.3zm0-8.7c0 1.2-.2 1.8-.6 1.9 0-1 .2-1.6.6-1.9zm.2 0h-.2.2zm.5-1.6c0 .7-.2 1.3-.5 1.6 0-.8.2-1.3.5-1.6zm.3 0h-.3.3zm.5 0c-.2-.4-.4-.4-.5 0h.5zm.1 5.5l.3-.3-.2-.5-.5.5.4.3zm0-5.5h-.2.2zm.7 0h-.6c0 .4.3.4.6 0zm.6 0c-.2-.2-.4-.2-.6 0h.6zm.7 2.2c.2-1 0-1.7-.6-2.2-.1.4-.2.8-.3 1.1s-.2.6-.2 1c0 .5.1.9.2 1.1.5.6.9.3.9-1zm.1-8c.4-.2.6-.6.6-1.3l-.6 1.3zm0 .2v-.2.2zm2.3 2.8c-.3 0-.6-.1-.8-.3-.5.6-.9 1.2-1 1.8-.1 0-.1.1 0 .3h.8c-.4.3-.1-.3 1-1.8zm-1.3-4.8l-.3.2v.3l.3-.5zm1.3-2.5l-.5.3c-.1.2-.1.4.2.6v-.3c.2-.2.3-.4.3-.6zm.6-1.5c0 .7-.2 1.2-.6 1.4 0-.6.2-1 .6-1.4zm-.2 6.6c-.1-.1-.2-.2-.2-.3l-.2.2c0 .1.1.2.2.2l.2-.1zm.7-7c.1 0 0-.2-.3-.5v.2c-.1.2-.2.5-.2.8.3-.3.5-.4.5-.5zm6.7-7.4c.7 1.3.7 2.4-.2 3.4-1.7 1.7-2.6 3.4-2.7 5-.1.2-.4.7-1 1.6-.4.5-1.1 1.3-2.1 2.4-.1.1-.3.2-.5.3-.4-.4-.5-.6-.2-.6 1-1.9 1.9-3.9 2.9-5.8 1-2 2-3.9 3.2-5.8.3-.3.5-.4.6-.5zm-5.8 5l-.2.3.2-.3.3-.3-.3.3zm1.3-2.3c0-.3.1-.5.3-.6-.2 0-.4.2-.6.5l.2.3.1-.2zm.3-.8c.3-.2.5-.6.5-1.3l-.5 1.3zm0 0v.2-.2z"/><path class="st13" d="M892.3 165.1c.1 0 .2-.1.2-.2v.2h-.2zm.2-.1c.9-.2 1.3-.9 1.3-2.1-.9.4-1.3 1.1-1.3 2.1zm1.4-2.1v-.3l-.2.3h.2zm2.3 1.3l-.2.3c0-.2.1-.3.2-.3zm1.4-.5v-1h-.8c-.3.4-.5.7-.6 1-.1.2-.1.4-.1.5.1 0 .3 0 .6-.1s.6-.2.9-.4zm-.8-5.9l-.2.3.2-.3h.2-.2zm.2 0c.3-.3.5-.7.5-1.3l-.5 1.3zm.4-1.3v-.2l.2-.2-.2.2v.2zm2.9 1.4c-.3-.1-.5-.2-.5-.3l-.2.2c-.6.6-1 1.3-1.1 2.1-.1.1-.1.3.2.5 0 .1.1.2.2.2.2 0 .2-.1.2-.2 1-.7 1.3-1.5 1.2-2.5zm1.9-3c0-.1 0-.3.1-.6s.1-.5.2-.7c-.6.2-1.1.4-1.3.5v1c1.1-.6 1.5-.6 1-.2zm.8-1.9c.1-.1.1-.3-.2-.5 0 .1-.1.2-.3.3v.6c.4.1.5-.1.5-.4zm-.4.5v.2-.2zm.6-7.1h-.2.2zm.3-.6l.5.6h-.8l.3-.6zm-.1 0h.2-.2zm4.9.5l-.2.2h.2v-.2zm2.4 1.7l-.3.2c0 .3.1.5.2.5h.2c-.1-.4-.1-.6-.1-.7zm9-1.3h-.2.2zm0 0c1.2.7 2.6.8 4.2.2-1.5-.4-2.8-.5-4.2-.2zm4.3.2h-.2.2zm0 0h.5-.5zm16.4-.1c1.8 0 2.8 1.1 2.8 3.5 0 3.6-2 8.3-6 14.2-1.6 2.4-3.6 4.6-5.8 6.6-1.4 1.3-2.6 2-3.4 2s-1.5-.4-2.1-1.1c-.4-.5-.5-1.1-.5-1.7 0-.8.8-2.1 2.6-3.7 4.9-4.7 7.7-10.1 8.5-16.3.2-1.1.8-2.1 1.6-2.7.8-.6 1.6-.8 2.3-.8zm29.4 41.9c.6-1 2.2-.3 4.6 1.9 2.4 2.2 3.1 4.1 2.2 5.4-1.2 1.6-2.2 3.1-3.1 4.6-.9 1.5-1.8 3-2.6 4.5-3.8 6.3-7 12.8-9.4 19.5-1 2.8-1.3 5.9-1 9.3 0 1 .4 1.5 1.3 1.8 2.1.1 5.3-3.2 9.4-10 4.1-6.8 6.7-11.2 7.8-13.2.3-1.3.8-1.7 1.5-1.3s.8 1 .4 1.8c-2.2 4.7-4.4 8.8-6.6 12.4-2.1 3.6-5 7-8.6 10.3-1.6 1.3-2.5 1.9-2.6 1.9-3.2 2.1-5.5 1.7-7-1.3-.7-1.2-1.3-2.6-1.6-4.2-.4-1.3-.4-3.9.2-8 .5-4.1 1.8-9 3.8-14.9-2.3 3.4-4.9 6.9-7.5 10.4-1 1.2-1.9 2.3-2.8 3.5-.9 1.2-1.8 2.2-2.8 3.2l-.3.3h-.2c-.4.7-.8 1.5-1 2.2-.3.7-.6 1.5-1 2.2-1 1.6-2.2 2-3.8 1.1-.3-.2-.8-.9-1.5-2.1-.7-1.2-.7-2.9.1-5.1.4-1.5.9-3 1.5-4.4s1.1-2.9 1.7-4.4l1-1 .8.3c0-.1 0-.2.1-.3s.1-.3.1-.5l-1.1.6c-.2-.6-.1-1.2.3-1.8 2.1-4.7 4.1-8.7 5.9-12-.7.7-1.4 1.5-1.8 2.4-.5.9-1 1.7-1.5 2.4-.3.3-.6.7-.9 1.3-.3.5-.6 1-.9 1.3h.2c.1-1.3.4-2.3.8-3.2l-.2.3c-2 2.8-4 5.5-5.8 8.2-1.9 2.7-3.8 5.4-5.7 7.9-2.1 3.2-3.8 5.4-5 6.7-.1.1-.2.3-.3.5-.5.7-1 1.5-1.4 2.2s-.7 1.4-1 2c-.5.7-.9 1.2-1 1.3-1.2 1.3-2.6 1.8-4.3 1.5s-2.9-1.1-3.7-2.6c-.3-1.3-.3-2.3.2-3 1-1.9 1.7-3.8 2.2-5.8.5-1.9 1-3.9 1.7-6.1 1.1-3.4 2.2-6.9 3.4-10.4s2.7-7 4.4-10.4l1.2-2.7c.4-1 .7-2 1-3.2.2-1 1-1.2 2.2-.8.7.2 1.3.4 1.6.6 3.5 2.1 4.5 5 2.9 8.5-1.3 2.6-2.5 5.1-3.6 7.5-1.1 2.5-2.2 4.9-3.3 7.4-1.4 3.3-2.5 6.3-3.2 9.1v.2c1.1-1.5 2.1-3 3-4.6l3-4.8c1.2-1.7 2.4-3.4 3.6-5 1.2-1.6 2.4-3.3 3.6-5 1.2-1.6 2.4-3.2 3.6-4.9 1.2-1.7 2.4-3.3 3.4-5 1.1-2 2-3.2 2.9-3.5l1-1c1.1-1 2.3-1.1 3.7-.3 1.5 1 2.6 1.8 3.2 2.4 1.4 1.2 1.6 2.7.6 4.5-1.1 2.1-2.2 4.3-3.4 6.6-1.2 2.2-2.3 4.4-3.4 6.6-1.3 2.2-2.2 4.3-2.9 6.2.5-.6 1-1.4 1.5-2.2s1-1.6 1.7-2.3c1.3-1.7 2.6-3.4 3.9-5 1.3-1.6 2.6-3.4 3.8-5.3 1.3-1.6 2.6-3.2 3.8-4.9 1.3-1.7 2.5-3.4 3.7-5.2 1.2-1.6 2.4-2.7 3.3-3.1zm-51.5 40.9c0-.4-.1-.6-.2-.6l-.2-.2c-1.4.5-1.8 1.4-1.1 2.7.2.3.5.3.8-.2.1-.2.2-.5.4-.8s.3-.6.3-.9zm.8-4l-.3.5c0 .1.1.2.2.3.1-.1.2-.2.2-.3v-.5h-.1zm4.8-1l.3.2h-.3c0-.6 0-1.3.1-1.9.1-.6.1-1.2.2-1.8.2-1 .3-1.7.3-2.2 0-.1 0-.2-.1-.4s-.1-.3-.1-.4l-.5.6c-.5 1-.9 1.7-1 2.2-.3.6-.9 1-1.8 1 0-.5.1-1.1.2-1.8.2-.7.3-1.4.4-2.2-.1-.3-.2-.5-.2-.6l-.5.5c-.4.9-.7 1.7-.8 2.6-.1.9-.4 1.7-.8 2.4 0 .1.2.3.5.6.2-.3.4-.6.5-.8l.6-.6c-.3 2.2-.5 4-.6 5.3 0 .1.1.3.2.6.7-.3 1.1-.4 1-.3.3-.3.6-.8.8-1.4.4-.8.9-1.2 1.6-1.6zm-4 6.8v.3c.1-.1.2-.2.2-.3v-.2l-.2.2zm2.7-17.3c0 .1-.1.2-.2.3 0 .1.1.3.2.5.1-.2.2-.4.2-.5-.1-.1-.2-.2-.2-.3zm1.8-4.7c-.1 0-.1.1 0 .2 0-.1 0-.2.1-.3s.2-.3.4-.5c.1-.1.2-.3.3-.5-.1.2-.2.4-.3.5-.3.2-.5.4-.5.6zm3.2.8c.2-.1.4-.3.6-.6 0-.1-.1-.3-.3-.5 0 .1-.1.2-.2.3l-.1.8-.9 1.1c-.9.7-1.2 1.7-1 2.9l-.3.3.2-.3c.6-.4 1-1.4 1-2.9.6-.5.9-.8 1-1.1zm-1.1-4.3c.2 0 .3-.1.3-.2l1.4-2.9-.3-.2h-.3c-.2.5-.5 1.1-.7 1.6-.3.5-.5 1-.6 1.3-.1.2 0 .3.2.4zm14.7 12.2c0 .4-.1.7-.2.8l.2.2c0-.1.1-.2.2-.3.1-.1.2-.3.3-.6l-.2-.2c-.1-.1-.2 0-.3.1zm7.2-17.6c0-.1.1-.3.2-.5l.3-.6c-.4.3-.5.7-.5 1.1zm1.1-1.9c.2-.3.4-.5.5-.6v-.6l.4-.4c.2-.2.3-.4.6-.7l.5-.5c0-.1.1-.2.2-.3-.1 0-.3.1-.5.2v1c-.2.1-.6.4-1.1.8l-.6 1.1zM957 228l.3-1.8-.3-.8c0 .3-.1.5-.2.6-.1.1-.2.2-.2.3.1 0 .2.5.4 1.7zm14.4-31.5c-2.9 3.5-5.3 7.2-7.4 11-2 3.8-3.9 7.7-5.6 11.7-.7 2-.9 3.3-.5 3.7.9-.1 1.3-.5 1.4-1.3.1-.7.2-1.4.6-1.9.6-1.2 1.2-2.3 1.7-3.5s1.1-2.3 1.8-3.4c.7-1.5 1.5-3 2.4-4.4s1.7-2.9 2.4-4.4c4-7.4 5-9.9 3.2-7.5zm84.1 24.6c-1.3 0-2.2.1-2.7.2-2.1.2-4.2.4-6.2.5s-3.9.1-5.8 0c-1.6 0-2.8.1-3.7.2-.7 0-2.9.1-6.5.2-3.6.2-7.4.2-11.4.2-4.1 0-7.7 0-11-.1s-5-.3-5.1-.7c-.1-.6-.4-1.1-.9-1.3s-.9-.6-1.4-1.1c-.6-1-.6-2 0-3 .4-.4 1.4-.5 2.8-.3s2.6.3 3.6.3h7.8l18.9-.2 11.7-.6c3.8-.2 7.7-.3 11.5-.6 1.1-.5 2.1-2 3-4.3 3.6-8.4 7.4-16.8 11.2-25.2 3.8-8.4 7.6-16.8 11.2-25.2 1.5-3.3 2.3-6.1 2.6-8.4.2-2.3 1-3.4 2.4-3.4.6 0 1.8.4 3.4 1.1 1.6.7 2.8 1.7 3.5 2.9.3 1.4-.1 3.6-1.1 6.6-3 6.8-5.9 13.6-8.8 20.4-2.9 6.8-5.7 13.5-8.5 20.1-1.1 2.1-2 4.2-2.9 6.1-.9 1.9-1.7 3.9-2.6 5.9-1 1.9-.6 2.9 1 3 .5 0 .9-.2 1.1-.5h2.4l14.7-.8c1.6-.9 3-2.7 4.2-5.6 3.8-8.8 7.8-17.6 11.9-26.2 4.1-8.6 8.2-17.3 12.2-26.1.5-1.1 1.4-1.5 2.6-1.3 1.6.5 3 1.8 4.1 3.9 1.1 2.1 1.3 3.8.6 5-2.1 4.1-4.3 8.1-6.4 12s-4.1 7.9-5.9 11.8l-.2-.5-.5.6h.6c-.4.7-.8 1.4-1 2l-.9 1.8-.6 1.6c-.9.5-1.1 1-.6 1.3-1.5 3.2-2.9 6.4-4.2 9.6-1.3 3.2-2.6 6.5-3.8 9.8.4.6.8 1.4 1.1 2.2.3.9.5 1.3.6 1.3-.3 1-1.7 1.8-4.2 2.4-.7 1.8-1.5 3.5-2.2 5.2s-1.4 3.3-2.2 5c-.7 1.9-1.1 3.9-1.1 6s-1.2 2.7-3.5 2c-4.5-1.2-6.2-3.6-5.3-7.4.2-1.2.6-2.4 1.1-3.6.5-1.2 1-2.4 1.4-3.6.3-.6.6-1.7.8-3.2l-.3-.2-18.4 1c-2 .7-3.5 2-4.5 3.8s-2.2 4.6-3.7 8.6c-1.5 3.7-3 7.4-4.6 10.9-1.5 3.5-3 7.1-4.4 10.7-.7 1.8-2.4 2.1-5 1-3.4-1.4-4.5-3.7-3.4-7 1.5-3.7 3.1-7.5 4.7-11.2 1.7-3.7 3.3-7.5 5-11.4l1.8-4.2zm-46.3-.5h-.6.8-.2zm.1 0h2.1c-.3-.2-1-.2-2.1 0zm4.8 0l.8.3v-.3h-.8zm2.3 0c-.6-.1-1.1-.1-1.4 0h1.4zm.3 0h-.4.4zm1.6 0c-.7-.2-1.3-.2-1.6 0h1.6zm0 0h.2-.2zm1.7 0c-.7-.2-1.3-.2-1.6 0 .8.4 1.3.4 1.6 0zm1.6 0c-.5-.3-1.1-.3-1.6 0 .8.4 1.3.4 1.6 0zm0-.1v.2h.3l-.3-.2zm1.8 0c-.9 0-1.3.1-1.4.2.8-.1 1.3-.1 1.4-.2zm0 0c0 .1.1.2.2.2v-.2h-.2zm1.8 0h-1.6c.7.3 1.2.3 1.6 0zm.7-.2l-.8.2.8-.2zm7.4 0c-1.4-.3-3.2-.3-5.4 0-.1.1-.2.2-.3.2.1 0 .2.1.3.2 2.4-.1 4.2-.2 5.4-.4zm0 0h.2-.2zm4.8 0l-1-.3c-.7 0-2 .1-3.7.3 2 .8 3.5.8 4.7 0zm6.7-.1c.1 0 .3-.1.6-.3-.1 0-.4-.1-.8-.2-.7 0-1.5 0-2.2.1s-1.4.1-2.1.1c-.3 0-.6.1-.8.3l.3.3c.9 0 1.7 0 2.6-.1s1.7-.1 2.4-.2zm6.6-.8l-1.9.5 1.3-.2.6-.3zm11-7.4l4.3-12.5c.9-1.5 1.4-2.5 1.6-3 3-6.9 5.4-12.2 7.2-15.7.4-.4.6-.7.6-.8l4.6-9.1c1-1.5 1.1-2.2.6-2.2-.6 0-.1-.9 1.4-2.7.4-.7.9-1.5 1.3-2.3s.8-1.6 1.1-2.3l-.3-.3c-1.5 1.8-2.4 3.2-2.8 4.2s-1 2.5-1.8 4.6c-.3.6-.9 1.8-1.6 3.6s-1.7 3.8-2.9 6c-1.1 2-2.1 4-3 5.9s-1.8 3.8-2.6 5.6c-.2.4-.5 1.2-.8 2.4-.7 1.5-1.4 2.8-2.1 3.9-.6 1.1-1 1.8-1.1 2.2-1.1 2.1-1.8 4.3-2.3 6.5s-1.1 4.2-1.8 6h.4zm25.9 16.3c-.4.3-.4.5 0 .6v-.6zm0 0c1.3-.5 1.7-1.6 1.3-3.2-.9.9-1.3 1.9-1.3 3.2zm1.5-3.2l1.8-4.2h-.3l-1.8 4 .2.2h.1zm1.7-4.1l.6-1.3-.3.2.2.2-.5.9zm1.8-8.7v.5c.1-.1.1-.3 0-.5zm20.8-29.7l.3-.3-.3-.2v.5zm2.4-11.5h-.3.3zm1.1-4.7l.2-.5v-.2l-.2.7zm.2-.6c.2 0 .3-.3.3-1-.2.1-.3.4-.3 1zm.3-1c.3 0 .4-.1.2-.3l-.2.3zm.9 55.2c.7-.5 1.2-.9 1.4-1.1l4.8-6.6c1.6-2.1 3.3-4.3 5.1-6.4 1.9-2.2 3.8-5.5 5.8-9.9 1.9-4.4 4.1-8.3 6.4-11.7.9-1.4 2-1.5 3.5-.5l2.7 2.7c1.1.9 1.4 2.1 1.1 3.7-.1.2-.6 1.1-1.4 2.6-.4.4-.8.9-1.2 1.4-.4.5-.7 1-1 1.5-1.6 2.2-3 5.7-4.2 10.4s-.2 7.8 3 9.3c.6.5.8 1 .5 1.4-.4 1-.9 1.7-1.3 2.1-.9.9-1.7.9-2.4.2-1.6-.9-3.3-2.2-5.1-3.9-1.8-1.8-2.9-3.6-3.4-5.5-.5-1.4-1.2-1.4-2.1-.2s-1.7 2.3-2.5 3.4-1.6 2.3-2.3 3.4c-.9 1.3-2.3 3.3-4.3 6.1-4.4 5.7-8.2 10.9-11.5 15.7l-.3.3c-.3.4-.5 1-.6 1.6-.1.6-.6 1-1.4 1.1-.7-.6-1.6-1.1-2.5-1.3s-1.6-.9-2.2-2.1c0-.5-.1-1-.3-1.3-.9-1-1-2.3-.3-4 .6-1.5 1.3-3 1.8-4.6.6-1.5 1.2-3 1.8-4.4 1.7-3.3 3.3-6.7 4.8-10.2s3.1-7 4.8-10.5c1.2-2.5 2.3-4.9 3.5-7.4s2.3-5 3.5-7.6c.5-1.4 1.3-1.7 2.4-.8.6.5 1.3 1 1.8 1.4.6.4 1.3.8 2 1.1 1.6 1.4 2.2 2.9 1.8 4.5-.3.7-.9 1.7-1.6 2.9-1.6 3.1-3.1 6.2-4.6 9.2s-3 6.1-4.5 9c-1.1 2.5-1.5 4.1-1.3 5h-.2l-.4.2c.3.1.4 0 .4-.2zm-10.2 11c1 0 1.3-.6 1-1.9.6-.1 1-.7 1-1.8l.5-.6c-.1-.2-.2-.4-.2-.5 0 .1-.1.2-.2.3 0 .4-.1.7-.2 1-.5.3-.8.9-.8 1.8-.5.3-.8 1-.8 1.9-.3.2-.5.5-.6.8v.3c.2-.1.3-.2.3-.3v-1zm3.4-6.7v-.2h-.2l.2.2zm2.2-5.3c0-.1 1.1-2.8 3.3-8 2.2-5.2 3.4-7.9 3.6-8.2-.2-.4-.3-.7-.3-.8-.2.3-.3.5-.3.6 0 .2-1 3-3 8.2-2 5.3-3 8-3 8.1-.2.1-.4.3-.6.6v.6l.5-.5c-.2-.2-.2-.5-.2-.6zm54.8-6.7c-1.5 2.8-3.6 6.4-6.4 10.9s-5.3 7.8-7.7 10.1c-.3.3-.7.7-1 1.1-.4.4-.8.9-1.2 1.3-1 .5-1.7.8-2.1.8-2.7.3-4.4-.6-5.3-2.9-1.2-3.2-1.3-6.3-.5-9.4.5-1.5 1-3 1.5-4.6.5-1.5 1.1-3.1 2-4.6.1-.4.4-1.3 1-2.6 1.3-3.7 2.9-7.4 4.7-11 1.9-3.6 3.5-6.8 5-9.6.3-.9.8-1.1 1.4-.6 1 1.1 2.2 1.7 3.7 1.9 1.6.5 2.1 1.7 1.6 3.5.1-.5-.1-.1-.5 1.3-2.3 4.4-4.3 8.4-5.9 12-2 3.8-4.1 8.3-6.2 13.4-1.3 2.2-2.1 4.7-2.4 7.5-.3.7-.3 1.4 0 2.1 0 .6.2.7.6.3 2-1.1 3.6-2.5 4.8-4.2 1-1.2 2.9-4 5.7-8.5 2.8-4.5 4.7-7.5 5.5-9 1.4 0 2 .2 1.7.8zm-21.9 7.9v.3l.3-.3c0-.2-.1-.4-.2-.5h.3v-.5c0 .1-.1.3-.2.5s-.2.4-.2.5zm2.3 0c-.7.6-1.1 1.5-1 2.7l-.2.2v.3c0-.3.1-.5.2-.5.7-.8 1-1.7 1-2.7.3-.2.5-.7.5-1.4 1.6-1.6 2.5-3.7 2.7-6.2.4 0 .9-.7 1.4-2.1.5-1 1-2 1.5-3.2s1-2.3 1.5-3.4c.2-.5.5-1.1.7-1.7l.9-1.8c.1-.1.1-.3-.2-.6l-.2.2c-.4.4-.9 1-1.3 1.8l-2.1 4.5-1.8 4.5c-.3.7-.5 1.4-.5 2.1-.6.4-1.5 2-2.7 4.6-.1.2-.2.7-.2 1.4-.1 0-.2.5-.2 1.3zm.6-6.6c-.4.2-.5.6-.3 1.3-.7.2-1 .7-.6 1.4-.3.1-.5.5-.5 1.3-.3 0-.4.1-.2.3.1-.1.2-.2.2-.3.2-.1.3-.6.3-1.4.5-.1.7-.5.6-1.3.3-.2.5-.7.5-1.6.5 0 .6-.1.2-.3 0 .2-.1.4-.2.6zm1.8-3.7v.2l.2-.2c0-.7.2-1.2.5-1.3 0-.2.1-.4.2-.6.1-.2.3-.5.5-.8 0-.2-.1-.3-.3-.2-.1.4-.2.7-.3.9-.1.2-.2.4-.2.7l-.3.6c-.3.3-.3.5-.3.7zm2.2-4.8c.3-.1.5-.6.5-1.6.4-.2.6-.6.5-1.3.5-.1.9-.5 1.1-1.3-.1-.1-.2-.3-.2-.5 0 .1-.1.2-.2.3-.1.3-.3.8-.6 1.4-.1.3-.3.9-.5 1.6-.1.2-.2.5-.4.7-.1.4-.2.6-.2.7l-.2.2v.2c.1-.3.1-.4.2-.4zm1.8 4.5c0 .2-.1.4-.3.5 0 .1.1.3.2.5.1-.1.2-.2.2-.3v-.8h.2l.2-.2-.5.3zm4.1-12.5h.5v-.2c-.2 0-.3.1-.3.3h-.2c-.1 0-.2.1-.2.3.2-.1.2-.3.2-.4zm10.7-11c-.3 1.2-.9 2.1-1.8 2.8s-1.5 1.6-1.8 2.6c-.2.3-1.3 0-3.2-1-1.9-1-2.8-1.7-2.6-2.2.4-1.8.7-2.8.9-3 .2-.2.4-1.1.7-3 1.3-1.6 2.8-1.7 4.5-.2s2.9 2.7 3.7 3.5c.8-.9.7-.8-.4.5z"/><path class="st13" d="M1177.2 241.1c-1.2.1-2.3.3-3.5.6-1.2.3-2.2.3-3 .2-1.8-.3-3.5-.6-5.2-.9s-3.4-.6-5.2-1c-1.2-.2-2.1-.7-2.7-1.6-.6-.9-1.4-1.7-2.4-2.4v-1.3c.2-.4.4-.8.6-1 .2-.3.3-.6.4-1 1.3-2.2 2.6-4.5 3.8-6.8 1.3-2.3 2.6-4.6 3.8-7 .6-1.3 1.2-2.6 1.8-3.8.5-1.3 1.2-2.6 1.9-3.8.4-1.3 1-2.5 1.6-3.8l1.8-3.6c1.8-3.5 2.9-6.1 3.4-7.8.9-3.6 2.9-7.6 6.2-11.8.3-.5 1-1.1 2.1-1.8.9-.3 1.9-.2 3 .3 1.2.5 2.2.9 3 1.1.1 0 .6.3 1.5 1s1.3 1.3 1.2 1.7c-.7 1.2-2.1 2.7-3.9 4.6-1.9 1.9-3.1 3.4-3.8 4.5-2.6 4.8-2.9 8.7-1 11.8.5 1 1.1 1.9 1.6 2.9s1.1 1.9 1.8 2.7c.9 1.5 1.7 2.9 2.4 4.3 2.3 4.9 1.5 10.2-2.6 16-1.4 2-3.3 4-5.6 5.9-.6.3-1.2.6-1.8 1-.4.3-.8.6-1.2.8zm-10.4-23v-.6l-.3-.5v.5c0 .1.1.2.2.3s.2.2.3.2l-.5 1.4c-1.7 1.6-3.1 3.8-4.3 6.7-.3 1.1-.7 2.1-1.2 3s-.9 1.9-1.4 3c-.3 1-.3 1.8.1 2.6s.9 1 1.7.6c.9-.2 1.6-.3 2.2-.2s1.3.1 2 .1c.4 0 .9 0 1.5.1s1.2 0 1.8-.1c5.5-.1 9.6-3.4 12.3-9.9 1.1-2.7 1.2-5 .3-6.9-.9-1.4-2-3.5-3.5-6.2-.7-1-1.4-1.9-1.9-2.8-.5-.9-1.1-1.8-1.8-2.8-.2-.4-.4-.6-.6-.6l-.6.8c-1.7 3.6-3.8 7.4-6.3 11.3zm14.9 12c1.2 0 1.9-.3 2.1-.8 1.1-2.8 1.1-5.1 0-7 0 .2-.2.1-.6-.3-.1.2-.2.4-.2.6-.2 1.4-.4 2.7-.6 3.9s-.3 2.4-.6 3.6c-1.7 1.5-2.7 2.8-3 3.8-.1.1-.1.4.2.8.1 0 .2-.1.3-.2 1.7-1.7 2.5-3.1 2.4-4.4zm48.8-17.5c-1.6 3.2-3.8 7.7-6.5 13.5s-5.2 10-7.4 12.6c-2.7 3.3-5.5 5.3-8.6 5.9-1.9.2-3.3.3-4.2.3-3.2 0-5.3-1.4-6.4-4.2-2.8-5.2-3.6-10.5-2.4-15.8 2-10.8 5.3-21.4 9.9-31.8 1-2.2 1.9-4.5 2.9-6.8s2-4.6 3.2-7c-.3.1-.7.2-1.3.2-.7 0-1.5 0-2.4.1s-1.7.1-2.4.1c-.7.1-1.4.2-2.1.2-.6.1-1.3.1-2.1.1-.4 0-.7-.2-.8-.5-.4-.4-.5-.9-.3-1.3.3-.7.6-1.3.8-1.8.4-.5 1-.8 1.6-.8 2 .2 3.8.2 5.4-.2h1.1c.7 0 1.4-.1 2.1-.2.6-.1 1.3-.2 2.1-.3l3.9-6c1.3-2 2.5-4 3.6-6.2.3-.2.6-.6.8-1.3.6-1.3 1.1-2 1.3-2.2 1.5-.3 3-.3 4.6 0 2.5.4 3.7 2.1 3.7 5.1 0 .3-.1.6-.2 1-.2.3-.2.6-.2 1l-5.3 8.5h.9c.7.1 1.5.1 2.4.1.9-.1 1.7-.1 2.6-.1.6 0 1.5 0 2.6.1s2.1 0 2.8-.1c.4-.1.7-.2.8-.2l.3.3c0 .4 0 .8.1 1.2s.2.7.4 1c.3 1-.2 1.6-1.4 1.9h-.5c-.9 0-1.7 0-2.6.1s-1.7 0-2.5-.1c-2.9-.2-5.7-.2-8.5 0h-.2c-3.9 6.4-7.5 13.5-10.6 21.4-4.3 10.6-7.4 20.4-9.3 29.6-.9 3.6-.9 6.8 0 9.6.4 1.7 1.4 2.4 3 2.1 5.4-1.1 10.1-5.2 14-12.3s6.8-12.9 8.9-17.3c.3-1.1.8-1.4 1.5-1 .9.7 1.1 1.1.9 1.5zm-32.1 10.3c.2-1 .3-2.3.3-4-.2-.2-.3-.4-.3-.6-.2 0-.3.2-.3.5-.3 1.8-.5 2.8-.5 2.9 0 1.2 0 2.2.1 3.2s0 1.9-.2 2.9c0 .1.1.3.2.6.2-.3.3-.5.3-.6.1-2.8.2-4.4.4-4.9zm.4-7.4v.8l.2.2c.1-.1.2-.2.3-.2.5-1.5.6-2 .3-1.4l-.2-.5-.5.5c0 .1-.1.3-.1.6zm.8-3.8v.3l.5.5c.1 0 .3-.2.5-.5-.1.3.1-.1.5-1.3 0-.4.1-.9.3-1.5.2-.6.3-1.3.2-2-.7.4-1.1 1-1.2 1.7s-.2 1.3-.4 1.7c-.3.2-.4.5-.4 1.1zm2.4-6.1c.3-.2.5-.4.5-.5.5-1.5 1.1-3.1 1.8-4.7.6-1.7 1.4-3.2 2.4-4.7.1-.1.2-.4.2-1 0-.2-.1-.3-.3-.3-.2.7-.6 1.1-1.3 1.1-.6 0-1.1.2-1.3.5-.5.5-.5.8.2.8.5 0 .7.3.6.8-.4 1.1-1 2.2-1.6 3.4-.2.7-.5 1.4-.7 2.1-.3.6-.5 1.3-.6 1.9 0 .1 0 .2.1.3v.3zm7.4-18.5l-.2-.2c-.4.4-.9.8-1.3 1.1-.3.3-.3.7 0 1.1.7.7 1.3.7 1.8 0 .6-1.5 1.2-2.7 1.6-3.5 0-.1 0-.3-.1-.5s-.1-.5-.1-.8c-.3-.3-.5-.5-.6-.5s-.3.1-.5.3c-.2.9-.6 1.5-1.1 1.9 0 0 .2.3.5 1.1zm-.3-10.9l-.3-.2-.2.2.2.2.3-.2c.2.2.5.2 1 0 .1.1.2.1.2 0h-.2c-.3-.1-.6-.1-1 0zm2.4-.2h-.2c-.1 0-.2.1-.3.2h.2c.1-.1.2-.2.3-.2zm.9 5.9v.6c0 .2.1.4.2.5.1-.1.2-.3.2-.5 0-.1.1-.3.2-.5s.3-.5.5-.8l-.3-.2c-.3 0-.5.1-.5.2-.2.2-.3.4-.3.7zm12-6l.2-.2h.3-.3l-.2.2zm1.5-.4l-.2.2c0 .1.1.2.2.2.2.2.5.2 1-.2.1.2.2.3.3.2h-.3c-.4-.5-.7-.6-1-.4zm2.2.4c-.2-.1-.3-.1-.3 0h.5c.2.2.4.2.6 0h.5-.5c-.2-.1-.5-.1-.8 0z"/><path class="st13" d="M1247.4 212.3c-1.5 2.8-3.6 6.4-6.4 10.9s-5.3 7.8-7.7 10.1c-.3.3-.7.7-1 1.1-.4.4-.8.9-1.2 1.3-1 .5-1.7.8-2.1.8-2.7.3-4.4-.6-5.3-2.9-1.2-3.2-1.3-6.3-.5-9.4.5-1.5 1-3 1.5-4.6.5-1.5 1.1-3.1 2-4.6.1-.4.4-1.3 1-2.6 1.3-3.7 2.9-7.4 4.7-11 1.9-3.6 3.5-6.8 5-9.6.3-.9.8-1.1 1.4-.6 1 1.1 2.2 1.7 3.7 1.9 1.6.5 2.1 1.7 1.6 3.5.1-.5-.1-.1-.5 1.3-2.3 4.4-4.3 8.4-5.9 12-2 3.8-4.1 8.3-6.2 13.4-1.3 2.2-2.1 4.7-2.4 7.5-.3.7-.3 1.4 0 2.1 0 .6.2.7.6.3 2-1.1 3.6-2.5 4.8-4.2 1-1.2 2.9-4 5.7-8.5 2.8-4.5 4.7-7.5 5.5-9 1.4 0 2 .2 1.7.8zm-21.9 7.9v.3l.3-.3c0-.2-.1-.4-.2-.5h.3v-.5c0 .1-.1.3-.2.5s-.2.4-.2.5zm2.3 0c-.7.6-1.1 1.5-1 2.7l-.2.2v.3c0-.3.1-.5.2-.5.7-.8 1-1.7 1-2.7.3-.2.5-.7.5-1.4 1.6-1.6 2.5-3.7 2.7-6.2.4 0 .9-.7 1.4-2.1.5-1 1-2 1.5-3.2s1-2.3 1.5-3.4c.2-.5.5-1.1.7-1.7l.9-1.8c.1-.1.1-.3-.2-.6l-.2.2c-.4.4-.9 1-1.3 1.8l-2.1 4.5-1.8 4.5c-.3.7-.5 1.4-.5 2.1-.6.4-1.5 2-2.7 4.6-.1.2-.2.7-.2 1.4-.1 0-.2.5-.2 1.3zm.6-6.6c-.4.2-.5.6-.3 1.3-.7.2-1 .7-.6 1.4-.3.1-.5.5-.5 1.3-.3 0-.4.1-.2.3.1-.1.2-.2.2-.3.2-.1.3-.6.3-1.4.5-.1.7-.5.6-1.3.3-.2.5-.7.5-1.6.5 0 .6-.1.2-.3 0 .2-.1.4-.2.6zm1.8-3.7v.2l.2-.2c0-.7.2-1.2.5-1.3 0-.2.1-.4.2-.6.1-.2.3-.5.5-.8 0-.2-.1-.3-.3-.2-.1.4-.2.7-.3.9-.1.2-.2.4-.2.7l-.3.6c-.3.3-.3.5-.3.7zm2.2-4.8c.3-.1.5-.6.5-1.6.4-.2.6-.6.5-1.3.5-.1.9-.5 1.1-1.3-.1-.1-.2-.3-.2-.5 0 .1-.1.2-.2.3-.1.3-.3.8-.6 1.4-.1.3-.3.9-.5 1.6-.1.2-.2.5-.4.7-.1.4-.2.6-.2.7l-.2.2v.2c.1-.3.1-.4.2-.4zm1.8 4.5c0 .2-.1.4-.3.5 0 .1.1.3.2.5.1-.1.2-.2.2-.3v-.8h.2l.2-.2-.5.3zm4.1-12.5h.5v-.2c-.2 0-.3.1-.3.3h-.2c-.1 0-.2.1-.2.3.2-.1.2-.3.2-.4zm10.7-11c-.3 1.2-.9 2.1-1.8 2.8s-1.5 1.6-1.8 2.6c-.2.3-1.3 0-3.2-1-1.9-1-2.8-1.7-2.6-2.2.4-1.8.7-2.8.9-3 .2-.2.4-1.1.7-3 1.3-1.6 2.8-1.7 4.5-.2s2.9 2.7 3.7 3.5c.8-.9.7-.8-.4.5z"/><path class="st13" d="M1291.4 213c-1.1 1.5-3.5 5-7.3 10.6s-6.2 9-7.1 10.3c-.6 1-1.7 2.2-3.2 3.8-1.5 1.3-3 1.3-4.5 0-2.9-2-4.4-4.3-4.6-6.9-.3-2.1 0-4.8 1-8 1.1-3.5 2-6.8 2.8-9.8s2.1-6.2 3.9-9.8c2.7-4.9 3.8-7.5 3.4-7.7-1.1.2-2.2 1.1-3.4 2.6-1.3 1.7-2.6 3.3-3.8 4.8-1.3 1.5-2.6 3-3.8 4.6-2.2 2.9-4.4 5.8-6.6 8.9-2.1 3-4.1 6.2-5.9 9.4-1.1 2-2.3 3.7-3.7 5-.3.3-1 1.2-1.9 2.7-.3.3-.6.7-.9 1.1-.3.4-.5.9-.7 1.3-1.1 1.6-2.5 1.8-4.3.6-2.9-1.4-3.6-3.8-2.1-7.4 1-1.8 1.9-3.7 2.8-5.7s1.7-4 2.3-6c.2-.6.5-1.2.7-1.8.3-.5.5-1.1.6-1.8 2.1-4.1 4.1-8.2 5.9-12.4s3.6-8.5 5.4-12.9c.5-1.8 1.6-2.3 3.2-1.6 1.4.7 2.8 1.6 4.2 2.6 1.6 1.2 2 2.7 1.3 4.6-1.2 2.3-2.4 4.7-3.6 7.1-1.2 2.4-2.4 4.7-3.4 6.8-.9 1.9-1.7 3.7-2.6 5.4s-1.7 3.4-2.3 5.1v1c.2-.1.4-.3.5-.5s.3-.4.6-.6c.3-.2.5-.5.7-.9 1.8-2.9 3.9-5.7 6.2-8.6 2.3-2.8 4.7-5.7 7.1-8.6.9-1.1 1.5-2 1.9-2.8s1.2-1.8 2.2-3.1c.9-1.1 1.8-2.2 2.8-3.4s2-2.4 3-3.4c.7-.7 1.3-1 1.6-.6.7.5 1.5.9 2.2 1s1.4.3 2.2.5l1.8 1.8c.9.9 1.4 1.4 1.4 1.8 0 2.3-.7 4.8-2.1 7.3s-2.6 4.9-3.7 7.1c-.6 1.1-1.4 2.7-2.4 5-.1 0-.2-.1-.2-.2h-.5c-.2.2-.3.5-.3.8 0 .1 0 .2.1.3s.1.2.2.2c-.4 1.1-.8 2.1-1.1 3-.3 1-.7 1.9-1.1 2.9-.3-.4-.5-.6-.6-.6-.4 0-.6.3-.6 1 0 .1.3.4.8 1l.2-.6c-.2 1.1-.4 1.9-.6 2.6l-.5-.2v-.6l-.2-.2v.3c0 .2.1.3.3.3v1.3l-.2.2v.3l.2-.3c-1.8 1.2-2.5 2.7-1.9 4.6-.1.1-.4.2-.8.3-.4.7-.9 1.5-1.3 2.2s-.9 1.5-1.3 2.2c-.1.1-.2.3-.2.5s.1.4.2.6c.4.3.6.3.6 0 1.4-1.8 2.3-3.8 2.7-6.1.3-.3.7-.9 1.3-1.6l-.3 1.1c-.6 2.8-.9 4.5-.6 5.3 1.1 0 1.9-.4 2.6-1.1.7-.7 1.4-1.5 2.2-2.2.5-.6 2.6-3.4 6.1-8.4s5.5-7.7 6.1-8.2c.3-.5.7-.7 1.1-.6.1.2.2.6-.2 1.4zm-43.2 12.6c0-.2-.1-.4-.2-.5-.3 0-.5.1-.6.2 0 .2 0 .4-.1.6-.1.2-.1.3-.1.4 0 .1.1.3.2.5.1 0 .3-.1.6-.3.2-.2.2-.5.2-.9zm2.1-13c-.1 0-.2-.1-.2-.2-.1-.1-.1-.3-.1-.5l-.2.3c-.2.4-.3.7-.3.8.1.3.2.5.3.5.1 0 .2-.1.2-.3.2-.1.3-.3.3-.6zm2.7-7.5c-.3.2-.6.5-1 .8.2.5.5.8 1 .8.4 0 .6-.3.5-1 0 .4-.1.2-.5-.6zm.5-1.9v-1.5c1.7-.9 2.4-2.3 2.1-4.5.3-.2.5-.4.6-.5.4-.7.9-1.5 1.3-2.2s.9-1.5 1.3-2.2c.2-.1.3-.3.3-.5-.2-.2-.3-.4-.3-.6h-.5c-1.5 1.9-2.4 3.9-2.7 6.1-1.3 1.3-1.9 2.8-1.9 4.6-.6.5-.6 1 0 1.3v.6l.2.2c.1-.1.2-.3.2-.5-.1 0-.2 0-.3-.1-.2 0-.3-.1-.3-.2zm26.7-4c0 .3.1.5.2.6.2-.1.4-.2.5-.3.2-.3.3-.6.3-1-.2-.2-.3-.4-.3-.5-.1.1-.3.2-.5.3-.1.2-.2.5-.2.9z"/><path class="st13" d="M1309.8 206.4c-1.3 2.3-2.6 4.6-4 6.6-1.4 2.1-2.7 4.2-4 6.3-.9 1.5-1.7 2.9-2.6 4.2s-1.7 2.6-2.5 4c-.9 1.4-1.7 2.7-2.5 4s-1.7 2.5-2.8 3.5c-.4.4-.7.9-.9 1.3-.2.4-.5.7-.9 1-.3.6-.7.7-1.3.3-2.5-.6-3.8-2.6-4-5.9-.2-4.4.6-8.8 2.4-13.4.7-1.9 1.4-3.9 2.1-6s1.5-4 2.7-5.8c0-1.2.5-2.2 1.6-3.2 1.3-1.2 2.3-2.6 3.1-4.2s1.9-3 3.3-4.3c1.6-1.5 3.6-2.9 5.9-4.3 2.9-1.5 5.7-1.5 8.5 0-.2-.1.4.3 1.9 1.3 1.7 1.1 3.1.8 4.3-.8.1-.1.2-.3.2-.5 1.7-2.2 3.5-2.2 5.3 0 .1.3.3.7.5 1.1.2.4.5.9.8 1.3.1.5.1 1.1 0 1.8-.9 1.4-1.5 2.8-2.1 4.2-.5 1.4-1.2 2.8-2.1 4.2-1 1.5-1.7 3-2.2 4.6s-1.1 3.1-1.8 4.5c-.3.5-.6 1.1-.7 1.6-.2.5-.3 1-.6 1.4-1.1 1.8-2 3.7-2.7 5.6-.7 1.9-1.7 3.8-2.9 5.6-1.3 2.3-1.8 4.7-1.6 7 0 .2.1.3.3.3.4 0 .7-.1.8-.2 1.4-1.8 2.8-3.6 4.3-5.4 1.5-1.8 3-3.5 4.5-5.4.9-1.1 2.1-2.8 3.7-5.3s2.9-4.4 3.8-5.8c-.2.4.4-.1 1.8-1.4.1 1.2-.3 2.5-1.1 4-1.4 2.1-3.1 4.8-5.2 8s-3.9 5.7-5.4 7.5c-1.9 2.7-3.5 4.5-4.8 5.6-2.5 2.7-5 2.6-7.7-.2-1.1-.9-1.6-2-1.6-3.5-.3-3.1.2-6 1.4-8.6.3-1.1.6-2.2 1-3.4.3-1.2.9-2.3 1.6-3.4.7-.9 1.3-1.9 1.6-3.1.3-1.2.7-2.5 1.1-3.8.5-1.6 1.1-3.7 1.6-6.2s.8-3.8.8-3.9c.3-.3.6-.7.8-1.3.2-.5.5-1 1-1.4-.2-.1-.3-.3-.3-.5l-.3-.2c-.4.3-.9.5-1.4.6s-.9.2-1.2.3c-2.6.7-4.6 1.7-6.2 2.9-.7.7-1.1 1.2-1.1 1.4-.1 1-.5 1.7-1.1 2.2s-1.1 1.2-1.4 1.9c-1.1 1.7-2.1 3.4-3.2 5.1-1.1 1.7-1.9 3.6-2.4 5.6-1.2 1.8-2.1 3.8-2.8 5.9-.7 2.1-1.4 4.2-2.2 6.2.2-.2.3.1.3.8.3-.2.5-.4.6-.5 1.7-2.5 3-4.4 3.8-5.8.4-.3.7-.7 1-1.2.2-.5.5-.9 1-1.4 1.1-.9 2-1.9 2.9-3.1.9-1.2 1.7-2.4 2.6-3.6.7-1.2 1.5-2.3 2.3-3.3s1.6-2.2 2.3-3.6c1.4-2.5 2.7-4.2 3.8-5.1 1.3-.5.7 1.1-1.7 5.3zm-17.3 12.5v-.3c0-.2-.2-.4-.5-.6-.2.2-.3.5-.3.8 0 .2.2.5.5 1 .2-.4.3-.7.3-.9zm19.2 1.6l-.3.5c0 .1.1.3.2.6l.3-.2c0-.1 0-.2-.1-.3 0-.1-.1-.3-.1-.6zm1-1.6l-.2-.2v.2h.2zm2.1-4.5c-.1-.1-.2-.2-.2-.3-.3.2-.5.5-.5.8.1.2.3.3.5.3 0-.1 0-.2.1-.4s.1-.3.1-.4zm1.9-5.4c.4-.1.7-.3.8-.6v-.6l-.5.5c-.2 0-.3.2-.3.7l-.5.5v1l.5-.5v-1zm11.2 26.7c.2-1.5.3-2.6.3-3.2 0-.1.1-.2.2-.3.5-2 1.7-2.7 3.4-2.1 1.5.5 2.3 1 2.5 1.5s0 1.6-.6 3.3l-.2 1.1-1.1 2.1c-1.2.2-2.1 0-2.9-.6-.3 0-.6-.2-.9-.6-.3-.4-.5-.8-.7-1.2z"/></g></g><path id="Layer_14_xA0_Image_1_" d="M496.7 1097.2c-2.3-12.7-4.2-25.5-4.6-38.5-.9-33.5 7.8-64.9 21.5-95.1 10.5-23.1 23.9-44.6 37.9-65.7 15.2-23 31.3-45.3 46-68.6 7.5-11.8 14.3-24 21.1-36.2 1.3-2.3 4.1-6.7 4.1-6.7s15.7 27 21.8 38.4c14.9 28 24.4 57.8 27.8 89.3 3.8 35.6-1.2 69.8-16.1 102.5-12.3 27.1-27.9 52.1-47.2 74.7-1.5 1.8-3.6 3.3-4 5.9H496.7zm879.9 2.4c-1.1-2.6-3.3-4.2-5.2-6.1-12.8-13.5-25-27.6-35-43.4-17.7-28.1-27-58.8-28.8-91.9-1.8-33.4 1.8-66.2 10.3-98.5.6-2.1 1.2-4.3 2-6.3 1.7-3.8 46.8 25.5 64.8 54.1 15.3 26.4 27.1 54.9 33 84.6 3.9 19.8 6.3 39.8 6 60-.2 14.2 9 26.5 7.1 40.6-.2 1.7-.4 14.1 0 15.8-14.4 0-39.6-8.9-54.2-8.9zm641.5-1.7c9.1-30.7 27.6-55.5 48.7-78.8 19.7-21.8 42.7-39.6 67.6-55 11.4-7.1 22.9-14.1 34.4-21.2 2.2-1.4 4.3-3 6.4-4.4V1098c-52.4-.1-104.8-.1-157.1-.1z" fill="#669c4a"/><path id="Layer_17_xA0_Image_1_" d="M538 1097.2c2.3-4 4.3-8.3 6.9-12.1 12.5-18.5 24.7-37.1 34.8-57 14.9-29.2 25.7-59.9 33.7-91.7 1.5-5.9 3-11.8 4.6-17.6.5-1.9 1.2-3.7 2.6-5.3-.2 1.3-.2 2.7-.5 4-8.8 41.4-21.5 81.5-41.9 118.8-8.1 14.8-16.9 29.1-26.6 42.8-4.2 6-8.3 12-12.4 18-.4.1-.8.1-1.2.1zm857.9.2c-2.9-5.4-5.9-10.8-8.8-16.2-11.7-21.5-20.4-44.3-28.5-67.2-5.3-15-10.3-30.1-15.4-45.1-.7-2.1-1.2-4.3-.8-6.7 2.6 7.1 5.2 14.2 7.7 21.4 9 25.6 17.8 51.3 29.2 75.9 5.2 11.1 11.2 21.9 16.7 32.8.9 1.7 1.6 3.4 2.4 5.2-.8-.1-1.7-.1-2.5-.1z" fill="#8ddf9a"/><path id="Layer_13_xA0_Image_1_" d="M1427 1097.4c-4.7-8-10-15.7-14.8-23.6-7.6-12.5-13.4-25.8-18.5-39.5-7.4-19.7-12.1-40-11.7-61.1.4-19.7 5.2-38 17.9-53.7 9.5-11.8 21.5-19.6 36.7-21.4 9.8-1.2 19 1.6 27.4 6.5 12.3 7.3 20.8 18.4 27.3 30.9 9.8 18.9 13.4 39.4 15.7 60.2 3.2 29.3 2.2 58.8.6 88.2 0 .8 0 1.6.6 2.6.4-1.1 1-2.3 1.3-3.4 4-21.1 8.2-42.1 13.8-62.9 6-22.3 12.7-44.4 24-64.8 14.6-26.3 34.1-48 60.9-62.6 14.3-7.8 29.8-11.1 45.8-8.1 16.2 3 26.8 13.2 32.3 28.9 2.9 8.5 3.3 17.2 2.3 25.8-1.1 9-3.6 17.9-6.9 26.4-10 25.8-25.3 48.2-44.5 68-20.1 20.8-41 40.9-61.3 61.4-.6.6-.9 1.4-1.3 2.1-49.3.1-98.5.1-147.6.1zm476.2-.5c-.4-15.4 1.5-30.5 4-45.6 2.8-16.9 7-33.4 12.8-49.5 11.7-32.7 27.5-63.4 48.2-91.3 19.3-26.1 41.1-49.9 68.1-68.3 8.2-5.6 17-9.9 26-13.8 5.7-2.5 8.3-.2 7.8 6-1.7 19.6-3.1 39.3-5.2 58.9-2.1 19.4-5.4 38.6-10.5 57.4-12.3 45.6-35.4 85.4-64 122.5-4.9 6.4-10.1 12.5-15.1 18.8-1.2 1.6-2.8 2.9-3.3 5-22.9-.1-45.8-.1-68.8-.1zM.1 1099.2c0-41.9.1-83.7-.1-125.6 0-6.1 1.8-11.1 5.1-16.1 17.6-26.7 40-49.2 64.4-69.8 18.7-15.8 38.1-31 55.2-48.6 11.7-12 23.1-24.2 31.2-39 .4-.8-6.7 51.6-7.9 63.3-2.3 22-4 44.1-6.8 66.1-2 15.6-5.9 30.9-9.9 46.1-3.5 13.4-7.9 26.5-13.7 39.2-9.5 20.8-23 39-38.2 56.1-8.6 9.7-17.9 18.8-26.9 28.1-17.6.2-35 .2-52.4.2zm548.9-2c-33.3-30.7-61.5-65.8-87.4-102.8-12.9-18.4-21.9-38.7-26.1-60.8-2.5-13.2-3.4-26.5-.4-39.8 2.9-13.1 9.4-23.8 22-29.5 11.9-5.3 24.2-4.2 36 .9 16.2 6.9 27.6 19.4 37.8 33.2 12.8 17.4 22 36.7 30.2 56.5 7.9 19.3 14.9 38.9 20.6 58.9 4.3 15 6.8 30.4 8.5 45.9 1.3 12.5 2.4 25 2.7 37.5H549zm99.7 0c3.9-9.8 7-19.8 11.3-29.4 12.3-28 27.3-54.2 49.3-75.9 17.9-17.6 38.9-29.8 63.4-35 12.1-2.6 24.5-3.4 36.5 1.2 19 7.4 24.9 24.5 18.3 43.3-5.7 16-16.3 28.8-28 40.6-18.2 18.3-38.9 33.5-59.3 49-2.6 1.9-5.6 3.4-7.4 6.2h-84.1z" fill="#527e2b"/><path id="Layer_16_xA0_Image_1_" d="M1544.7 1097.4c1.6-5.3 2.9-10.6 4.8-15.7 1.8-4.7 2.3-9.2 1.9-14.2-1.1-15-.5-30.1 1.4-45 1.3-10.1 2.8-20.1 4.2-30.2.1-1 .5-2 1.8-2.9-.2 3.4-.2 6.8-.5 10.2-1.4 17.9-2.9 35.9-4.3 53.8-.3 3.5.1 7 1.4 10.7.7-1.1 1.5-2.2 2.1-3.4 6.1-13.1 12.2-26.1 18-39.3 1.7-4 2.9-8.4 3.3-12.8 2.5-23.3 7.1-46.1 13.6-68.5.2-.6.5-1.1 1.2-1.6-3.6 22.9-9.7 45.5-11.6 69.9 1.5-2 2.5-3.2 3.3-4.5 8-12.2 16.1-24.4 24-36.7 1.4-2.2 2.4-4.9 3.1-7.5 2.1-8.4 4-16.9 6.1-25.3.7-2.6 1.7-5.2 3.6-7.5-2.1 9.5-4.2 19-6.2 28.5.5.2.9.5 1.4.7 8.8-9.4 15.8-20.4 25.6-28.9-5.6 10.4-13.8 18.9-21.1 29.8 7.3-1.9 12.5-5.3 18.3-7.3 5.7-2 11.3-4.2 17-6.4.2.5.4.9.6 1.4-1.8.9-3.6 1.7-5.4 2.6-10.4 4.7-20.9 9.3-31.2 14.2-2.4 1.1-4.9 2.9-6.4 5-8.6 12.6-16.8 25.4-25.2 38.2-.3.5-.4 1.2-1.1 3.3 16.6-10.8 31.4-22.1 49-28.8-1.3.9-2.5 1.8-3.8 2.6-15.8 9.5-31.4 19.3-45.5 31.4-4.7 4.1-8.8 8.5-11.3 14.3-5 11.2-10.2 22.4-15.3 33.6-.8 1.7-1.3 3.5-2.5 6.6 2.4-1.4 3.8-2.1 5-2.9 12.1-8.2 24.1-16.5 36.3-24.6 2.7-1.8 5.8-3.1 8.7-4.7.3.4.5.9.8 1.3-2.7 1.9-5.3 3.8-8 5.7-13.8 9.8-27.6 19.7-41.5 29.4-3.5 2.4-5.8 5.5-7.2 9.4-1.9 5.4-3.9 10.8-5.8 16.2-.9-.1-1.7-.1-2.6-.1zM1.4 1071.8c6.2-8.8 12.5-17.3 15-28.2 4.7-20.2 9.8-40.2 14.9-60.3 1-3.8 2.3-7.5 4.1-11-5.1 23.5-11.6 46.6-14.9 70.7 5.5-7.5 11.1-14.8 16.3-22.4 1.5-2.1 2-5 2.7-7.6 6.5-21.6 12.9-43.3 19.4-64.9.6-2.1 1.5-4.1 2.3-6.2.4.1.8.3 1.2.4-6.5 23-13 45.9-19.5 68.9.5.4 1 .8 1.5 1.3.4-1 .6-2.1 1.2-2.9 7.1-9.5 14.3-18.8 21.2-28.4 1.6-2.3 2.5-5.2 3.2-8 4.6-16.6 8.9-33.2 13.5-49.8 1-3.8 2.4-7.4 3.6-11.2l1.2.3c-4.8 18.7-9.7 37.5-14.5 56.2l1.2.6c16.3-22.9 28.7-48.1 41.9-72.9.1 8.3-15.1 37.4-38 75.6 5.7-4.7 11.4-9.4 17.2-14.1 5.8-4.7 11.7-9.2 18.4-13-.9 1.1-1.8 2.3-2.8 3.2-11.9 10-23.8 20-35.6 30.1-3.1 2.7-6.1 5.6-8.7 8.8-5.5 6.9-10.7 14-15.3 21.7 10.6-7.4 21.2-14.9 31.8-22.3.2.3.5.5.7.8-.9.9-1.7 1.9-2.7 2.7-11.1 8.3-22.3 16.5-33.4 24.8-2.1 1.6-4.5 3.2-6.1 5.2-8 10.3-15.8 20.7-23.2 31.7 5.2-1.8 9.5-5 14.1-7.7 4.6-2.8 9.2-5.6 13.8-8.3 4.7-2.8 9.5-5.6 14.9-7.4-1 .8-2 1.7-3.1 2.4-12.7 8.2-25.5 16.3-38 24.7-5.9 3.9-10.9 8.7-14.1 15.3-1 2.2-1.5 5.6-5.4 4.9v-3.7zm571.9 25.4c-4.4-13.3-8.5-26.6-13.2-39.8-1.2-3.5-3.7-6.7-6.3-9.5-14.1-15.2-30.4-28-46.9-40.4-2.1-1.6-4.1-3.2-5.9-5.3 3.6.8 6.3 3.1 9.2 5.2 2.9 2.1 5.9 4.3 8.8 6.5 3.1 2.3 6.2 4.6 9.2 7s5.9 4.9 8.9 7.4c2.8 2.4 5.5 4.8 8.2 7.2 2.8 2.6 5.5 5.3 9.3 9-.5-2.6-.6-3.8-1-4.9-7.7-18.8-16.1-37.3-27.2-54.3-5.6-8.5-13.2-15.9-20.8-22.8-6.7-6.1-14.6-10.8-22-16.1-1.1-.8-2.3-1.5-3.2-2.8 3.3.4 6 2.2 8.7 3.9 2.9 1.8 5.8 3.7 8.6 5.7s5.5 4.1 8.2 6.2c2.6 2.1 5.1 4.2 8.5 5.6-8.6-13.6-17.1-27.2-25.7-40.8.4-.2.7-.5 1.1-.7 10.5 13.3 18.9 28.1 29.5 41.5-2.7-10.7-5.4-21.3-8.2-32 .5-.1 1-.3 1.4-.4.8 2.8 1.7 5.5 2.5 8.3 1.6 5.7 3 11.4 4.7 17 3.7 12.2 8.4 23.9 14.8 35.2 7.1 12.5 12.7 25.8 18.9 38.7.6 1.2 1.2 2.4 2.3 3.5-1.8-17.9-2.6-35.6-1.1-53.5.6 9.5 1 19 1.9 28.4 1.2 12.7 2.7 25.4 4.2 38 .2 1.8.8 3.6 1.3 5.3 4.6 14.5 9.2 29 13.8 43.4-.9.3-1.7.3-2.5.3zm902.7.2c-1.1-5.6-1.9-11.3-3.5-16.8-.9-3.1-2.8-6.3-5.1-8.6-11.6-11.8-23.5-23.3-35.3-34.8-2.8-2.7-5.6-5.4-8-8.6 15.8 12.3 30.4 26 45.2 40-.5-2.1-.9-4.2-1.6-6.3-5.5-16.5-10.8-33-16.6-49.4-1.2-3.5-3.5-6.9-6.1-9.5-6.3-6.2-13.1-11.9-19.6-17.8 3.5.6 4.3 1 10.1 5.7 3.2 2.6 6.5 5.3 10.5 7.5-4.4-12.6-8.9-25.2-13.3-37.9l1.5-.6c5.6 12 9.5 24.8 15.6 36.7.7-7.6 1.3-15.3 2-22.9.4 0 .7 0 1.1.1 0 8.2.1 16.5 0 24.7-.1 6.5 1 12.6 3.1 18.7 4.5 12.8 8.6 25.7 12.9 38.6.7 1.9 1.4 3.9 2.5 5.8 3.3-21.3 7.2-42.4 13.3-63 .5.1.9.2 1.4.3-1 5.1-2.1 10.2-3.1 15.4-2.4 12.9-4.9 25.8-7.2 38.7-2 11.4-1.8 22.8 1.2 34 .9 3.2 1 6.7 1.5 10h-2.5zm453.8-.5c4.4-15.3 8.6-30.6 13.3-45.8 6.7-21.6 14.8-42.6 25.4-62.6 11.7-22 24.2-43.6 37-65 8.5-14.1 18.3-27.4 27.6-41 1.4-2.1 3.2-3.9 5.6-6.8.4 4-1.5 5.7-2.7 7.6-8.6 13.1-17.3 26.2-25.9 39.3-13.8 21.3-26.6 43.2-38.1 65.8-16.2 31.9-28 65.4-37.4 99.9-.8 2.9-1.7 5.8-2.5 8.7-.7-.1-1.5-.1-2.3-.1zm-1248.3.3c8.8-13.7 18.8-26.4 29.7-38.4 17.7-19.3 36.1-37.7 57-53.6 1.6-1.2 3.3-2.3 5.6-2.8-1 1.1-1.8 2.3-2.9 3.3-15.5 14.8-31.3 29.3-46.6 44.4-14.6 14.4-27.5 30.3-39.2 47.1h-3.6z" fill="#78c97a"/><path class="st1" d="M1228.8 497.8s-.3-6.7 3.8-6.7c4.2 0 5.8 3.3 5.8 3.3s5.3 5 2.2 7c-3.1 2-10.9 4-13.2 0-.6-1.9 1.4-3.6 1.4-3.6zm42.8 33.5s2.9-5 6.3-4 5.8 5.7 5.1 7.2 2.8 4-.7 5.3-13.3-.2-13.2-4.7c.2-4.4 2.5-3.8 2.5-3.8zm-83.4 12.7s2.3-3.3 4.7-1.7c2.3 1.7.8 4.5.8 4.5s5.3 4.8 2.2 8c-3.2 3.2-7.7 2.3-7.7 2.3s-2.7 2.2-4.8.8c-2.2-1.3 0-4.2 0-4.2s-3.5-2-2-6.8 6.8-2.9 6.8-2.9zm607.1 126.9s-3.5-2.9 0-7.8 8.4 0 8.4 0 10.1 5.5 6.5 11.7c-3.6 6.1-14.9 3.9-14.9-3.9zm52.8 21s-1.5-7.1 3.3-7.1 3.5 4.9 3.5 4.9 2.6-1.6 4.8 2.3c1.1 2-1.5 4.2-1.5 4.2s3.2 7.8-1.9 8.8c-5.2 1-6.8-4.9-6.8-4.9s-4.2 1.9-5.2-1.3c-1.7-5.6 3.8-6.9 3.8-6.9zM1783 754s2.5-3.7 6.8-2.5 3.5 5.2 3.5 5.2 5.3 2.8 4 6.8-6.2 2.7-6.2 2.7.5 3.2-4.3 2.7-3.8-5.3-3.8-5.3-5.4-1.2-5.5-4.5c-.1-3.8 3.5-6.3 5.5-5.1zm67.5-11.5s.8-6.3 5-6.3 4.5 5.5 4.5 5.5 4.3 2.5 4 4.8-4 3.7-4 3.7-1.5 5.3-5.2 5.3-4.3-5-4.3-5-3.7-.5-3.3-4.7c.3-4.1 3.3-3.3 3.3-3.3zm39.7 66.2s1.7-4.7 5.7-4.3c4 .3 3 5.7 3 5.7s5.2 1.7 5 4.7-4.3 4.7-4.3 4.7-1 3.7-4.2 3.7-5.2-4.8-5.2-4.8-4.3-2.2-4.2-4.5 4.2-5.2 4.2-5.2zm-132.4 50.5s3.3 0 4.5 3.3-2.3 4-2.3 4 1.1 4.5-2.3 6.2c-3.3 1.7-5.8-1.8-5.8-1.8s-4 1.2-5.2-2.8 3-5.3 3-5.3-1-6.3 2.5-7c2.6-.6 5.6 1.6 5.6 3.4z"/><circle class="st18" cx="1894.9" cy="813.7" r="1.3"/><ellipse class="st18" cx="1853.7" cy="694.9" rx="1.8" ry="2.1"/><ellipse class="st18" cx="1754.6" cy="864.4" rx="2.1" ry="1.8"/><ellipse transform="rotate(-30 1855.55 745.754)" class="st18" cx="1855.6" cy="745.7" rx="2.1" ry="1.8"/><ellipse transform="rotate(-24.591 1787.582 760.088)" class="st18" cx="1787.6" cy="760.2" rx="1.8" ry="2.1"/><ellipse transform="rotate(-24.591 1802.06 670.466)" class="st18" cx="1802" cy="670.6" rx="1.8" ry="2.1"/><path class="st1" d="M413.5 346.1c8.6 2.2 6.8 8.3 6.8 8.3s5.1-.3 4.8 4.8c-.3 5.1-5.8 3.6-5.8 3.6s-2 4.3-5.8 4.6c-3.8.3-7.1-6.3-7.1-6.3s-5.6-.4-5.6-4.3c0-5.6 7.9-6.4 7.9-6.4s.2-5.4 4.8-4.3zm-72.4 51.6c4.5.4 3.8 5 3.8 5s7.1-1.8 7.1 3.6-6.9 4.2-6.9 4.2-.2 4.3-5.2 4.3-4-6.3-4-6.3-4.8.2-4.2-4.1c.6-4.3 7-2.6 7-2.6s-.4-4.4 2.4-4.1zm106.8 26.5s-2.3-8.3 2.8-7.4c5.1.9 3.8 7.4 3.8 7.4s6.4-1.3 6 3.9c-.4 5.1-6.6 1.6-6.6 1.6s.7 5.3-3.8 5.3-2.8-5.5-2.8-5.5-6.6 2.7-6.2-2.3 6.8-3 6.8-3zM316 512.5s-8.1-6.3-2.5-9.1 9 4.4 9 4.4 5.2-5.8 8.5-.5c3.3 5.2-5.1 6.3-5.1 6.3s4.5 4.7.2 7.8c-4.3 3.2-6.7-3.3-6.7-3.3s-4.4 7.3-7.6 2.2c-3.2-5.1 4.2-7.8 4.2-7.8zm169.4 10.9s-8.4.6-6.5-4.1c1.8-4.8 7.8-2.3 7.8-2.3s0-6.4 4.8-5c4.9 1.4.3 6.6.3 6.6s5.3.3 4.4 4.6c-.8 4.3-5.9 1.7-5.9 1.7s1.3 6.8-3.3 5.5-1.6-7-1.6-7zm-48.8 37.9c-1.4 4.2-5.9 2.5-5.9 2.5s.2 7.1-5.2 6c-5.5-1.1-2.7-7.4-2.7-7.4s-4.3-1.1-3.1-5.8c1.1-4.7 7.3-2.5 7.3-2.5s.9-4.6 5.1-3.1 1 7.2 1 7.2 4.3.5 3.5 3.1z"/><path class="st18" d="M321.2 511.5c1 0 1.9.9 1.9 1.9s-.9 1.9-1.9 1.9-1.9-.9-1.9-1.9.9-1.9 1.9-1.9z"/><ellipse class="st18" cx="488.7" cy="521.2" rx="2.1" ry="2.5"/><ellipse class="st18" cx="427.3" cy="559.7" rx="3.1" ry="2.4"/><ellipse transform="rotate(-30 451.383 427.205)" class="st18" cx="451.4" cy="427.2" rx="2.6" ry="2.2"/><ellipse transform="rotate(-24.591 341.511 406.21)" class="st18" cx="341.5" cy="406.2" rx="2.5" ry="3"/><ellipse transform="rotate(-24.591 412.208 357.585)" class="st18" cx="412.2" cy="357.6" rx="2.7" ry="3.2"/></svg>