<?xml version="1.0" encoding="utf-8"?>
<!-- Generator: Adobe Illustrator 22.0.1, SVG Export Plug-In . SVG Version: 6.00 Build 0)  -->
<svg version="1.1" id="Layer_1" xmlns="http://www.w3.org/2000/svg" xmlns:xlink="http://www.w3.org/1999/xlink" x="0px" y="0px"
	 viewBox="0 0 2175.8 489.8" style="enable-background:new 0 0 2175.8 489.8;" xml:space="preserve">
<style type="text/css">
	.st0{fill:#7BCEF4;}
	.st1{fill:#F0F9FA;}
	.st2{fill:#30A5CC;}
	.st3{fill:#FFFFFF;}
	.st4{fill:#B6E4F5;}
	.st5{fill:#215064;}
</style>
<path class="st0" d="M2175.9,0v545.5H800.7c1.2,0.8,2.3,1.5,3.5,2.3c-14.9-0.1-46.3-0.9-87.5-2.3H-4.4V0H2175.9L2175.9,0z"/>
<g id="mountain_bg_1_">
	<g id="left_mountain_1_">
		<path class="st1" d="M948.8,520.9c-1.3,7.1-3,13.8-4.2,18.1c-0.6,2.1-1,3.6-1.2,4.3c-0.1,0.6-0.2,1.3-0.3,2.1H800.7
			c1.2,0.8,2.3,1.5,3.5,2.3c-14.9-0.1-46.3-0.9-87.5-2.3C536,539.5,166,523.8,166,523.8s12.1-43.5,27.3-67.6c2.6-4.2,5.1-7.3,7.2-10
			c0.9-1.1,1.7-2.3,2.5-3.3c2-2.8,3.7-5.6,4.8-9.2c6.2-17,15.8-34,15.8-34l51-41.2l18.3,5l18.3-21.1c0,0,30-12,32.6-17.2
			s26.7-13.3,32.6-25.5s48.9-15.7,63.9-27.9s48.7-36,56-49.3c0,0,0-0.1,0.1-0.1c0.3-0.5,0.6-1,1.1-1.4l0.3-0.3
			c10.7-9.3,55.9,12.5,65.1,17.4c9.7,5.2,22.2,19.7,40.4,16.2c18.3-3.5,36.5-2.9,56.1,18.6s33.3,36.6,47,42.9
			c13.7,6.4,40.4,20.4,47,26.5c1,0.9,2.6,2.1,4.6,3.4c0.4,0.3,0.9,0.5,1.3,0.8c10.4,6.6,29.3,15.8,37.9,18.6c0.1,0,0.1,0,0.2,0.1
			c0.6,0.2,1.1,0.3,1.6,0.5c0.2,0,0.3,0.1,0.6,0.2c0.1,0,0.2,0.1,0.3,0.2c9.6,5.3,65.9,60.2,105.4,95.5c15.7,14,28.8,25,35.2,28.5
			c0,0,0.1,0,0.1,0.1h0.1c1,0.5,1.8,0.9,2.4,1h0.2C951.8,492.8,951.2,507.5,948.8,520.9L948.8,520.9z"/>
		<path class="st2" d="M948.7,520.9c-1.3,7-3,13.8-4.2,18.1c-0.6,2.1-1,3.7-1.2,4.4c-0.1,0.5-0.2,1.2-0.3,2H800.7
			c-31.6-21-57-37.7-57.7-37.7c-1-0.1-2.6-1.8-4.1-4.1c-1.6-2.3-3.1-5.2-3.8-7.3c-0.5-1.6-0.1-2.8,0.4-3.9c0.8-1.8,1.9-3.2-1.1-5.2
			c-4.8-3.2-7-4.8-17.6-6.5s-8.1-5.9-13.2-8.5c-5.2-2.6-6.6-10.8-17.6-4.6c-11,6.2-12.8-10.7-18.3-14.3
			c-5.5-3.6-12.4-21.8-16.8-24.1c-4.4-2.3-25.2-22.4-30-23.4s-7.3-31.6-6.6-38.3c0.8-6.7-16.4-29.4-21.9-33.3s-13.2-20.5-18.3-22.8
			c-5.2-2.3-8.5-10.1-15.4-7.2s-17.9-6.5-23.8-7.8c-5.9-1.3-0.6-30.9-6.1-33.8c-5.5-3-15-18.2-15.4-25.4c-0.4-7-16.3-14.5-17.1-14.9
			c0.3-0.6,0.7-1.1,1.2-1.5l0.3-0.3c10.8-9,55.8,12.6,65,17.5c9.7,5.2,22.1,19.7,40.4,16.2c18.3-3.5,36.5-2.9,56.1,18.6
			c19.6,21.4,33.3,36.5,47,42.9s40.4,20.5,47,26.5c0.9,0.8,2.1,1.7,3.6,2.8c10.3,7.1,33.9,19.3,42,20.6h0.2c0.1,0,0.3,0,0.4,0.1
			c57.7,9.8,111.1,93,134.6,118.3c2.5,2.7,4.7,4.8,6.5,6c0.1,0.1,0.3,0.2,0.4,0.2c0.1,0,0.2,0.1,0.2,0.1c0.7,0.4,1.3,0.7,1.9,0.8
			C951.7,492.9,951.1,507.5,948.7,520.9L948.7,520.9z"/>
		<path id="mount_left_3_" class="st2" d="M943.4,491.3c-15-2.9-79.2-104.7-144.3-125.6c-8.3-2.7-39.1-17.4-45.7-23.4L943.4,491.3z"
			/>
	</g>
	<path class="st1" d="M1811.5,536.9c6.8,2.9,13.7,5.9,20.3,8.6h-751.1l-0.7-4.7c0.6,0,1.5-1.2,2.6-3.2c5.2-9.3,14.6-35.5,14.6-35.5
		l35.2-21.8l16.2-37.8l34.5-31.1l41.3-27.1c0,0,15.2-32.9,15.9-33.6c2.2-2.1,13.1-14.4,16.8-17.1c3.7-2.7,29.9-13,35.3-16
		c0,0,29.1,14.2,53.2,15.4c24.1,1.3,51.8,3.2,67.3-6.5s74.1-34.3,85.5-31c0.2,0,0.3,0.1,0.5,0.2c0,0,0.1,0,0.1,0.1
		c1.7,0.8,4.4,2.8,7.9,5.7c0.1,0,0.1,0.1,0.1,0.1c19.1,16.1,60.6,59.1,88.4,72.7c1.3,0.6,2.5,1.2,3.7,1.7c4.5,1.8,8.5,2.7,11.9,2.4
		c1.6-0.1,3.1-0.1,4.6,0h0.1c2.3,0.2,4.5,0.8,6.6,1.7c0.2,0.1,0.4,0.1,0.5,0.2c0.2,0.1,0.3,0.1,0.5,0.2
		c13.1,5.9,22.4,22.5,31.2,34.6v0.1c3.7,5.2,7.4,9.6,11.2,12c1,0.6,2,1.2,3.1,1.5c0.2,0.1,0.3,0.1,0.5,0.2c1.6,0.4,3.2,1.3,4.7,2.4
		c11.6,8.8,20.6,36.2,30.8,49.2c1,1.2,2,2.4,3,3.3l0.1,0.1c1.3,1.2,2.7,2.2,4.1,2.8c3.9,1.8,8.2,4.6,13,8.1h0.1
		c3,2.1,6.1,4.4,9.4,6.8l0.1,0.1c11.9,8.7,26.2,18.3,43,22.8C1787.5,527,1799.4,531.8,1811.5,536.9L1811.5,536.9z M2096.4,545.5
		h-194.7c18.1-10.1,37.7-23.4,46.1-27.6c13.3-6.7,44.9-29,58.7-24.4c0.8,0.3,1.5,0.6,2.2,1.1c8.1,5.6,18.5,10.3,31,14.9
		c0.3,0.1,0.7,0.3,1,0.4c6.1,2.2,12.7,4.4,19.8,6.7c22.3,7.1,25,17.5,35.5,28.4C2096.1,545.2,2096.2,545.3,2096.4,545.5
		L2096.4,545.5z"/>
	<path class="st2" d="M1813.6,545.1c0,0.1,0,0.3-0.1,0.4h-254.3c-0.9-4-1.5-8-1.4-11.2c0.4-9.4,13.7-12.8,12.4-18.8
		c-1.3-6.1,0.4-18.6,2-29s5.2-12.2,0-18.2s-19.5-37-19.5-37s-13-37.5-22.8-44.4c-9.8-7-6.5-38-17.6-37.2
		c-11,0.8-18.2-54.5-13.9-54.2c0.1,0,0.3,0.1,0.5,0.2c0,0,0.1,0,0.1,0.1c1.3,0.7,4.1,2.7,7.9,5.7c0.1,0,0.1,0.1,0.1,0.1
		c22.5,17.5,80.4,67.4,88.4,72.7c0.2,0.1,0.3,0.2,0.5,0.3c1.1,0.6,2.1,1,3.2,1.4c4.9,1.6,10.2,1.3,16.5,2.5h0.1
		c1.9,0.3,3.9,0.8,6.1,1.5c0.2,0,0.3,0.1,0.5,0.2s0.4,0.1,0.5,0.2c0.2,0.1,0.3,0.1,0.5,0.2c9.4,4.6,23.7,24.3,31.2,34.6v0.1
		c1.2,1.7,2.3,3.1,3,4.2c3.6,4.9,5.2,6.3,8.1,7.8c0.9,0.4,1.9,0.9,3.1,1.5c1.4,0.6,3,1.4,5,2.5c0.1,0,0.1,0.1,0.2,0.1
		c9.5,5.4,25.3,40.6,30.8,49.2c0.1,0.2,0.3,0.4,0.4,0.6c0.8,1.2,1.7,2.1,2.6,2.7l0.1,0.1c4.5,3.2,9.6,0.8,16.9,10.7
		c0.1,0,0.1,0.1,0.2,0.2h0.1c3.1,2.4,6.2,4.7,9.4,6.8l0.1,0.1c33.7,22.6,71.9,30.3,71.9,30.3s2.9,1.9,5,5
		C1813.1,539.1,1814.2,541.9,1813.6,545.1L1813.6,545.1z M2061.1,545.5c-4.1-3.7-8.8-7.4-13.9-10.4c-11.9-7-15.8-6.1-26.2-10.3
		c-10.3-4.2-16-30.9-14.6-31.3c1.5,0,8.4,4.6,33.2,16l0.6,0.3c0.1,0,0.3,0,0.4,0.1c30.8,6.5,40,17.5,46.9,22.2
		c4.2,2.9,9.1,9,12.4,13.4H2061.1L2061.1,545.5z"/>
</g>
<path id="snow_2_" class="st3" d="M800.7,545.5c1.2,0.8,2.3,1.5,3.5,2.3c-14.9-0.1-46.3-0.9-87.5-2.3H2V457c0,0,36.8-11.8,201-14.2
	c18.7-0.3,39.1-0.4,61.2-0.4c98,0,270.5,23,471.3,50.1c68.4,9.2,140,19,213.2,28.4h0.1c44.2,5.7,89,11.3,133.9,16.6
	c22.8,2.7,45.6,5.4,68.4,7.9L800.7,545.5L800.7,545.5z"/>
<path id="snow_shadows" class="st4" d="M1151.1,545.5h-169c-12.5-2.1-25-4.3-37.5-6.4h-0.1c-69.6-11.9-138.9-24-205.6-35.4
	c-191.8-32.6-361.5-59.2-450.8-59.2c-34.3,0-62.5,0.5-87.6,1.7c-22.5,1-42.5,2.5-62,4.3C33.9,460.6,2,470.3,2,470.3V457
	c0,0,36.8-11.8,201-14.2c18.7-0.3,39.1-0.4,61.2-0.4c98,0,270.5,23,471.3,50.1c68.4,9.2,140,19,213.2,28.4h0.1
	c44.2,5.7,89,11.3,133.9,16.6C1105.4,540.3,1128.3,542.9,1151.1,545.5z"/>
<path id="clouds" class="st3" d="M257.6,235.3c0-8.3-6.7-15-15-15h-0.8c-3.4-8.1-11.4-13.4-20.2-13.4h-1.3
	c-4.1-14.2-17.1-24.5-32.6-24.5c-16,0-29.5,11.1-33,26.1c-8.1,2.5-14.1,9.8-14.9,18.6c-1.7-0.5-3.6-0.8-5.4-0.8
	c-7.3,0-13.7,4.1-17,10.1h140.1v0.1C257.5,236.1,257.6,235.7,257.6,235.3L257.6,235.3z M2088.7,306.2c0-8.3-6.7-15-15-15h-0.8
	c-3.4-8.1-11.4-13.4-20.2-13.4h-1.3c-4.1-14.2-17.1-24.5-32.6-24.5c-16,0-29.5,11.1-33,26.1c-8.1,2.5-14.1,9.8-14.9,18.6
	c-1.7-0.5-3.6-0.8-5.4-0.8c-7.3,0-13.7,4.1-17,10.1h140.1v0.1C2088.6,307,2088.7,306.6,2088.7,306.2z"/>
<g>
	<path class="st5" d="M1032.5,246.8c-0.5,0-0.9,0.2-1.1,0.2c0.5-0.5,0.8-0.8,0.8-0.8c11.2-10,24.9-16.6,40.8-20.3c0,0,0.9,0,2.7,0
		l-2.5,1.3l-5.7,1.9c-0.5,0.5-0.8,0.6-0.9,0.6c0,0,0,0.3,0.5,0.3l0.5-0.9c1.7,0,3.5,0.5,5.5,0.3c4.3-0.5,7.6-0.9,10.1-1.4h1.4
		c-0.6,0-0.9-0.2-1.4-0.3c-0.9,0-1.4,0-1.4,0c-0.8,0-1.3-0.5-1.9-0.9c0.8-0.2,1.4-0.3,1.9-0.3c7.1-0.6,13.9,4.4,13.9,10.9
		c0,3-1,5.9-2.7,8.9c-4.9,9-11.6,17.1-19.9,23.9c1.7-0.6,4.4-0.3,8.1,0.9c3.6,1.1,6.3,2.1,7.8,2.8c8.4,3.8,9.7,10.9,5.2,19
		c-5.5,9.8-12,18-19.2,24.5c-1.7,1.4-3.8,3.5-5.9,4.6l-10.3,5.7c-4.3,2.1-8.2,2.1-12-0.2c-3.6-2.2-5.2-5.7-4.6-10.4
		c0.6-6.5,4-12.2,10-17.3c3.2-2.7,6.8-5.9,10.6-8.2c0.8-0.5,2.2-0.6,4.3-0.3c3.8,0.8,5.2,3.2,0.8,5.1c-8.1,3.3-14.2,9.8-18.7,19.5
		c0,0.2-0.2,0.6-0.3,1.1c-1.3,4.6-2.2,7.3,5.2,4.7c6.5-2.4,12.5-6.6,18-12.7c5.9-6.5,11.1-14.4,15.7-23.7c2.1-4.7,0.8-7.8-3.8-8.9
		c-9.2-2.1-17.6-1.1-25,2.5c-2.7,1.4-4.6,1.3-5.7-0.8c-1.7-2.4-1.1-4.6,1.9-6.5c4.9-3,9.8-6,14.7-9.8c8.1-6,14.4-13.9,19.2-23.7
		c2.1-4.6,0.6-7-4.1-7.1c-6.2,0-11.2,0.6-15.5,1.7c-18.4,5.2-32.8,15.5-45.9,28.7c-2.7,2.7-5.2,5.4-8.2,7.4c-1.3,1.3-2.4,1.3-3.5,0
		c-0.2-0.2-1.1-3.5-0.5-4.6c3-4.9,8.2-9.3,15.7-13l0.9-1.9l0.8,0.5l-2.1,1.1c-1.1,1.7-2.2,3.2-3,4.6c-0.2,0.2-0.8,0.6-0.8,0.6
		c0.2,0,0.3,0,0.5,0.2c0,0,0.2-0.6,0.2-0.8c2.4-1.4,4.9-3.2,7.6-4.9l12.2-8.4l2.7-1.9c-0.2,0.2,0.5-0.6,1.6-2.1
		c-1.7,0.5-2.5,0.6-2.4,0.5c-3,2.1-6,4.1-9,6L1032.5,246.8z M1042.2,273.9v-0.2V273.9c3.6-7.1,7.4-14.6,11.1-22.2
		c1.1-2.1,2.5-4.6,3.6-7.1c1.4-3.2,3.5-4.1,6.2-3c3.6,1.9,4.6,4.4,2.8,7.8c-1.7,3.2-4.1,6-5.9,9.2c-4.3,7.4-7.9,14.9-11.7,22.5
		c-5.5,11.9-10.8,23.9-16,35.5c-1.4,3-3,3.2-4.7,0.8c-1.9-2.5-2.4-5.1-1.3-7.4c4.6-10.6,9.3-21.1,14.4-31.7c0.5-1.4,0.8-3,1.4-4.4
		V273.9z M1061.8,230.8c-4,1.7-8.1,3.3-11.7,5.1c0.3-0.2,0,0.5-0.8,1.6c1.4,0,2.2,0,2.2,0c4-1.7,7.3-3.3,10-4.9
		c-0.5,0.3,0.2-0.2,1.9-1.3C1062.6,231,1062,230.8,1061.8,230.8z M1051.5,304c-0.2,0.2-0.3,0.3-0.3,0.5c0,0,0.2,0.2,0.5,0.6
		c0-0.2,0.2-0.3,0.3-0.6C1051.8,304.4,1051.5,304.1,1051.5,304z M1054.8,300.5c-0.8,0.8-1.3,0.9-1.7,1.4c0.8,0.5,1.1,0.6,0.9,0.8
		c0.2,0,0.8-0.3,1.6-0.9C1054.8,300.6,1054.7,300.3,1054.8,300.5z M1065.3,294.3c-0.5-0.5-0.8-0.6-1-0.5c-0.6,0.5-1.3,0.6-1.7,1.1
		c0.2,0.5,0.5,0.6,0.8,0.6L1065.3,294.3z M1072.1,270.9l-1,0.6c-0.2,0.2-0.8,0.6-0.8,0.6s0.3,0,0.5,0c0,0,0.2-0.5,0.3-0.6l0.8-0.6
		H1072.1z M1072.2,270.9c4,2.1,8.7,2.8,13.9,2.7c-2.7-0.5-7.3-1.3-7.3-1.3c-0.2,0-1.3-0.2-3-0.5L1072.2,270.9z"/>
	<path class="st5" d="M1093.9,314.9c0.2-1.4,0.5-2.7,0.6-3.5c0.8-2.5,1.7-5.2,2.2-7.9c2.2-7.4,3.8-12.3,4.6-14.6
		c0.9-2.4,2.1-4.6,3.2-7c2.1-5.1,4.6-10.4,6.6-15.7c3-7.4,7-14.7,10.8-21.8c0.5-0.8,1.1-2.2,1.9-4.1c0.3-1.1,0.9-1.4,1.9-0.8
		c1.1,0.6,2.7,1.6,4.6,3c1.6,1.4,1.9,3.2,1.1,5.2l-1.4,2.5c-3.6,5.2-6.5,10.4-8.5,15.5c-1.3,2.5-2.8,4.9-4,7.4
		c-2.2,5.1-4.7,11.4-7.8,19.2c-3,7.6-5.2,13.9-6.8,19.2c-1.1,3.3-1.7,6.6-2.2,10c-0.2,1.6,0.5,2.2,2.2,1.9c1.7-0.5,3.3-1.4,4.6-2.5
		c0.2-0.2,0.3-0.2,0.8-0.2c0,0.2,0.2,0.5,0.2,0.6c-0.3,1.3-1,1.9-1.9,2.1c-1.1,1.1-3,2.1-5.9,3.2c-2.7,1-4.9-1.3-6.3-6.6
		L1093.9,314.9z M1096.9,312.8c0.8-1.1,1.6-2.2,2.2-3.5c0.2-0.2,0.2-0.3,0.2-0.6c-0.3-0.8-0.5-1.1-0.5-1.1c-0.3-0.3-0.6-0.2-1.1,0.3
		c-0.8,0.8-1.1,2.4-1.1,4.6c0,0.2,0,0.3,0,0.3H1096.9z M1104.7,289.2c0-0.2-0.2-0.6-0.2-1.1c-0.5,0.3-0.6,0.5-0.6,0.3
		c0,0,0,0.3,0,1.1C1104.4,289.4,1104.7,289.2,1104.7,289.2z M1117.7,306.8c-3,6.3-5.1,10.3-6.2,11.7c0,0.2-1.9,2.5-1.9,2.5
		c-0.8-0.6-0.9-1.1-0.8-1.3c0.3-0.8,2.5-5.1,6.6-12.8c4.3-7.8,6.5-11.9,6.8-12c1.4-1.3,2.4,0.2,1.9,0.6
		C1122.9,296.7,1120.7,300.3,1117.7,306.8z M1111.5,272.6c-0.2,0-0.3,0.2-0.5,0.5c0.2,0.2,0.3,0.3,0.5,0.3c0.3,0,0.6-0.2,0.8-0.3
		C1112.1,273.1,1112,272.6,1111.5,272.6z M1113.6,267.1c0,0,0-0.3,0-0.5c0.2,0,0.6,0.2,1.1,0.2c0,0.3,0.2,0.5,0.3,0.5
		c0.5,0,0.8-0.2,0.9-0.5v-0.2c-0.2-0.5-0.3-0.5-0.8-0.2c-0.5,0.2-0.6,0.3-0.6,0.3c-0.2-0.3-0.5-0.3-0.9,0V267.1z M1118.1,261.2
		c-0.2,0-0.3,0-0.3,0c0,0.2,0,0.3,0,0.3h0.3V261.2z"/>
	<path class="st5" d="M1137.1,304.7c-0.8-1.1-0.9-1.9-0.2-2.5c0-0.2,0.3-0.8,0.8-1.6c3.2-5.2,5.4-11.4,6.6-18.5
		c0.8-4.9-0.2-9.3-2.7-13.3c-0.5-0.8-1.1-1.9-1.9-3.6c-0.3-0.6-0.3-1.4,0.2-2.5c0.5-0.9,1-1.1,1.3-0.3c1.1,1.7,3,2.7,5.4,3.2
		c1.4,0.3,2.5,1.3,3.5,2.8c0.8,2.1,1.7,4.7,3,6.8c0.2,0.2,0.2,0.3,0.2,0.8c-0.5,3.2,0.2,6.3-0.3,9.3c-1.6,7.4-4.9,14.7-9.8,21.5
		l-3.2,4.1c-2.5,3.6-6.3,5.5-10,7.4c-2.4,1.1-4.4,0.8-6.5-1.3c-2.7-2.7-4.1-6-4-10.3c0.5-6.6,1.9-13.1,4.4-19.6
		c0.6-1.6,1.7-3.8,3.5-6.6c1.4-3,4.3-4.7,7-6.8c0.8-0.6,2.1-0.6,3.6,0l2.4,1.4c1.1,1.1,1.1,2.1,0.3,3.2c-0.8,0.8-1.9,1.9-3.3,3
		c-1.1,1.1-1.6,2.1-1.7,2.8c-0.2,0.5-0.6,1.4-1.7,2.7c-2.7,3.6-4.6,7.6-5.5,11.9c-1.3,4-2.4,7.9-2.4,12.2v1.7c0,0.8,0.3,0.9,1.1,0.8
		l1.9-0.9c3.3-1.3,5.5-4.6,6.8-7.3c3.6-0.6,5.1,0.8,5.9-2.4c0,0-0.6-0.5-0.8-0.5c-0.5,0-1,0.2-1.4,0.5c-1.1,0.5-1.1,1.9-2.5,1.9
		H1137.1z M1149,282.3c-0.3-0.2-0.6,0-0.8,0.2c-0.3,0.8-0.5,1.1-0.5,1.1c0,1-0.3,2.4-1.1,4.1c-1.1,2.1-1.9,4.4-2.5,6.5
		c0,0.5,0.2,0.8,0.3,0.8c0,0,0.2,0,0.6,0c1.1-0.5,1.7-1.4,2.2-2.7c1-3.8,1.7-6.6,2.4-8.7c0-0.2-0.2-0.3-0.2-0.9
		C1149.3,282.4,1149.2,282.3,1149,282.3z M1145.8,269l0.2-0.2h-0.2V269z M1149.5,277.2c0-0.2-0.2-0.3-0.3-0.5c0,0-0.2,0.2-0.5,0.6
		c0,0.5,0.2,0.6,0.3,0.8c0,0.5,0.2,0.6,0.2,0.6l0.3-0.5C1149.5,277.5,1149.5,277.2,1149.5,277.2z"/>
	<path class="st5" d="M1167.2,316.3c2.1-3.2,3-7,4.4-10.8c1.4-3.3,2.5-7,4-10.6c0.6-1.6,1-2.8,0.8-3.6c-1.7,2.4-3.8,5.2-6.5,8.4
		l-4.7,5.7c-2.1,2.4-3.2,4-3.3,5.1c0,0.3-0.3,0.9-0.9,1.7c-2.1,2.4-4,2.4-6-0.2c-1.4-1.7-2.2-3.6-2.4-6c-0.2-3.2,0.6-6.6,2.1-10.6
		c2.2-6.5,4.7-11.7,7.8-15.4c1.7-2.1,2.8-4.4,4.9-6.3c1.9-1.7,3.6-2.8,5.4-3.3c0.8-0.2,1.4-0.3,1.6-0.3c1.7,0.8,3.2,0.3,4.4-1.3
		c0.3-0.6,1-0.6,2.1-0.2c2.2,1.4,4.6,3,7,4.7c0.2,0.2,0.8,1.1,0.8,1.1c-0.5,0.5-1,0.6-1.3,0.6l-6.8,1.1c-2.5,0.5-4.4,1.4-5.7,2.7
		l-3.2,3c-2.4,1.7-4.7,4.6-7,8.4c-0.2,0.2-0.6,1.3-1.7,3c-2.7,3.8-4.4,8.2-5.4,13.3c0,0.5,0,0.8,0.2,0.9c0.5,0,0.6,0,0.8-0.2
		c1.4-0.5,3-1.7,4.9-3.6l6.3-7.3l6.5-7.3c0,0,0.2-0.6,0.3-0.8c0.2-0.3-0.2-0.8-0.6-1.4c-0.5-0.3-0.5-0.6,0.3-1.1
		c2.1-0.8,3.8-0.6,5.1,0.2c0.6,0.8,1.7,0.8,2.5,1.3c0.8,0.6,1.3,1.3,1.4,1.9c0.5,2.1,0.5,3.8,0,5.2c-2.7,5.9-4.3,12-6.3,17.9
		c-2.1,5.9-4.7,11.1-7.9,15.5c-0.6,0.8-0.6,1.9-1.4,2.7c-0.6,1.1-1.3,1.6-1.7,1.6c-1.1,0-2.7,0.8-4.7,2.4c-1.9,1.4-3.6,2.5-5.4,3.3
		c-3,1.7-5.9,2.2-8.5,1.3c-1.9-0.6-4.7,0.2-6.2-2.2c-0.6-1.3-3-2.1-2.5-4.1c0.8-2.4,0.2-1.6,3.3-0.2c0.5,0.2,0.6,0.6,0.6,1.4
		c0,0.6,0.2,0.9,0.6,0.9c3.3,0.5,6.2,0,8.5-1.7c3.2-2.4,6-5.4,8.7-9c1.3-1.6,2.1-2.5,2.5-2.8v-0.2c-0.3,1.4-0.5,2.2-0.5,2.2l-2.4,4
		c0.2-0.2,0.2,0.2,0.2,0.9c0.3-0.3,0.5-0.5,0.5-0.3c2.4-3.2,3.8-5.7,4.1-7.6v0.2c1.1-1.1,1.3-2.1,0.6-3
		C1167.2,316.8,1167.2,316.3,1167.2,316.3z M1142.4,334l0.2-0.2l-0.3-0.3L1142.4,334z M1164.8,284.5c1.3-0.8,2.1-1.7,2.5-2.7
		l1.7-1.9c0,0,0.2-0.2,0.2-0.3c0,0.2,0,0.3,0,0.3c-1.1,0.3-1.6,0.9-1.6,2.1C1165.9,281.8,1165,282.7,1164.8,284.5
		c-0.5,0-0.6,0.3-0.8,0.9l-0.8,0.8c-2.1,1.4-3.3,3.8-4.1,5.7c0,0,0,0.6,0,1.9c-1.4,0.5-1.9,1.6-1.6,3.6c-1.1,0.8-1.9,2.4-2.4,4.4
		c0,0.3,0.2,0.5,0.5,0.5c0,0,0.2,0,0.3,0c1.1-1.1,1.6-2.8,1.4-4.9c1.4-0.8,1.9-2.2,1.7-4c0.2,0,0.3,0,0.3,0c1.4-2.1,2.8-4.3,3.6-7.3
		c0.6,0,1-0.3,1-0.8C1164.2,285,1164.4,284.6,1164.8,284.5z M1157.1,333.6c0-0.2,0-0.2,0.2-0.3c0-0.2,0.6-0.5,0.8-1.1
		c0.8,0.3,1.4,0.2,1.9-0.6c0,0,0-0.2,0.2-0.2l-0.2,0.3c-0.5-0.2-1.1,0.2-1.7,0.6c-0.2,0.3-0.5,0.6-1,1.1L1157.1,333.6z M1162,333.4
		c-0.8-0.2-1.4,0.2-1.9,0.8c0,0.2-0.2,0.2-0.3,0.2c0,0.2,0,0.3,0,0.3s0.2-0.3,0.2-0.5c1.1,0,1.7-0.3,1.9-0.9c0.6,0,1-0.3,1-0.9
		l0.8-0.8c1.1-0.5,1.7-1.4,1.7-2.8c2.4-1.3,4-4,4.9-8.2c0.5-0.3,0.8-0.9,0.6-1.9c0.5,0,0.8-0.6,0.8-1.7c1.6-0.8,2.1-1.9,1.6-3.6
		c1.3-1.3,1.9-2.5,1.7-4c0.3-0.2,0.6-0.3,0.8-0.8c1.3-3.5,2.4-6.5,3.2-9.2c0.5-1.4,1-2.8,1.1-4.3c0.2-0.3,0-0.6-0.8-0.9
		c-0.3-0.2-0.6,0-1.1,0.3c-0.2,0-0.3,0.3-0.3,0.8c-1.1,3.8-2.1,7.9-2.7,11.6v2.8c-0.9,0-1.6,0.5-1.7,1.6c0,0,0,0.6,0,2.1
		c-1.4,0.5-1.9,1.6-1.6,3.6c-0.8,0.5-0.9,1.1-0.8,1.7c-0.6,0.2-0.8,0.9-0.6,2.1c-2.5,1.7-4.3,4.4-5.1,8.1c-1.4,0.8-1.9,1.7-1.6,3
		c-0.8-0.2-1.1,0.2-0.8,1C1162.3,332.4,1162,332.6,1162,333.4z M1163.3,282.3l-0.2,0.2h-0.3c-0.5,0.8-0.6,1.4-0.6,2.1
		c-0.6,0.6,0,0,0,0c0.2-0.2,0.3-0.8,0.8-1.9C1162.9,282.6,1163.1,282.4,1163.3,282.3z M1165.2,280.1v0.3c0-0.3,0.2-0.5,0.3-0.5
		c0,0,0.2-0.2,0.2-0.3c0,0.2,0,0.2-0.2,0.3L1165.2,280.1z M1175.4,314.6c0,0.2-0.2,0.3-0.2,0.3c-0.2,0.6-0.8,1.1-0.8,1.9l-0.2,0.2
		c0.2,0,0.2,0,0.3-0.2c0-1.1,0.3-1.7,0.8-1.9C1175.4,314.9,1175.4,314.7,1175.4,314.6z M1181.5,293.8c0,0.5,0.2,0.5,0.3,0
		c0,0,0-0.3,0-0.5c-0.2,0-0.3,0-0.3,0C1181.5,293.5,1181.5,293.8,1181.5,293.8z"/>
</g>
</svg>
