<svg version="1.1" id="Layer_1" xmlns="http://www.w3.org/2000/svg" x="0" y="0" viewBox="0 0 2175.8 545.5" xml:space="preserve"><style>.st9{fill:#507575}</style><path d="M1.4-549.9h2175.9V569.5H1.4V-549.9z" fill="#a9f7f5"/><path d="M802 719.6c4.7-7.6 12.6-13.7 19.6-20.1 28.8-26.5 58.9-52.2 91.8-76.1 47.9-34.9 101.4-64.1 160.4-88.1 135.4-55.2 279.5-94 430.2-119.9 78.5-13.5 158-23.3 238.1-30.6 44.9-4.1 89.8-7.5 135.1-8.9 16-.5 32.1-1.7 48.1-1.2 14.3.5 91.4-.4 109.9-.1 44.5.8 88.8 3.8 133 7.7 4 .3 8 .8 12 0v337.3H802z" fill="#49d33b"/><path d="M.3 644.3c.9-2.9.5-5.9.5-8.9V291c0-9.3-2.1-9.1 11.2-11.1 20.1-2.9 40.5-4.5 60.8-6.1 35.8-2.8 71.6-4.7 107.6-4.8 19.5-.1 39-.3 58.5.5 23.9.9 47.8 2.8 71.6 4.1 17.8 1 35.6 2.4 53.3 3.9 29.7 2.5 59.2 6 88.6 10.3 87.6 12.9 172.1 34.8 254 63.6 78.1 27.4 152.1 61.2 221.5 102.1 37.8 22.2 75 45.1 110 70.3 30 21.7 58.1 45 83.8 70.3 14.8 14.6 29.3 29.4 42.9 44.8 1.5 1.7 3.3 3.4 4.2 5.5-389.4-.1-778.9-.1-1168.5-.1z" fill="#35c81e"/><path d="M431.6 549.8c-2-11.1-3.7-22.2-4-33.5-.7-29.1 6.7-56.3 18.7-82.6 9.1-20.1 20.8-38.7 32.9-57.1 13.2-20 27.1-39.4 39.9-59.6 6.5-10.3 12.4-20.9 18.3-31.4 1.1-2 2.2-4 3.6-5.8 2.1-2.7 3.9-2.4 5.4.9.2.5.3 1 .5 1.5 2.9 11 7.8 21.1 13.1 31 12.9 24.3 21.2 50.2 24.1 77.6 3.3 30.9-1.1 60.6-14 89-10.7 23.6-24.2 45.2-41 64.9-1.3 1.6-3.2 2.9-3.5 5.1h-94zm1049.8 2.1c-1-2.2-2.9-3.7-4.5-5.3-11.1-11.7-21.7-24-30.4-37.7-15.4-24.4-23.5-51-25-79.8-1.6-29 1.6-57.5 9-85.5.5-1.8 1-3.7 1.8-5.4 1.4-3.3 3.3-4.1 6.7-3 3.4 1.1 6.4 2.9 9.4 4.8 17.7 11.8 31.8 26.8 42.4 45.2 13.2 22.9 21.4 47.6 26.5 73.4 3.4 17.2 5.5 34.5 5.2 52.1-.2 12.3 7.8 23 6.1 35.2-.2 1.5-.3 12.2 0 13.7-12.7 0-34.6-7.7-47.2-7.7zm557-1.5c7.9-26.6 23.9-48.2 42.2-68.4 17.1-18.9 37.1-34.4 58.7-47.8 9.9-6.2 19.9-12.2 29.9-18.4 1.9-1.2 3.7-2.6 5.6-3.9v138.5h-136.4z" fill="#549d3d"/><path d="M467.5 549.8c2-3.5 3.7-7.2 6-10.5 10.8-16 21.4-32.2 30.2-49.5 12.9-25.4 22.3-52 29.2-79.6 1.3-5.1 2.6-10.2 4-15.3.4-1.6 1-3.2 2.3-4.6-.1 1.2-.2 2.4-.5 3.5-7.7 36-18.7 70.7-36.4 103.2-7 12.8-14.7 25.2-23.1 37.2-3.6 5.2-7.2 10.4-10.8 15.7-.2-.1-.6-.1-.9-.1zm1030.6.2c-2.6-4.7-5.1-9.4-7.7-14.1-10.1-18.7-17.7-38.4-24.8-58.4-4.6-13-9-26.1-13.4-39.2-.6-1.8-1-3.7-.7-5.9 2.2 6.2 4.5 12.4 6.7 18.6 7.8 22.2 15.5 44.5 25.4 65.9 4.5 9.7 9.7 19 14.5 28.5l2.1 4.5c-.6.1-1.4.1-2.1.1z" fill="#6fe192"/><path d="M1525.1 550c-4.1-7-8.7-13.6-12.8-20.5-6.6-10.9-11.6-22.4-16-34.3-6.4-17.1-10.5-34.7-10.1-53 .3-17.1 4.6-33 15.5-46.6 8.3-10.3 18.7-17 31.9-18.6 8.5-1 16.5 1.4 23.8 5.6 10.7 6.3 18.1 15.9 23.7 26.9 8.5 16.4 11.7 34.2 13.6 52.3 2.8 25.5 1.9 51 .5 76.5 0 .7 0 1.4.5 2.2.4-1 .9-2 1.1-3 3.5-18.3 7.1-36.6 12-54.6 5.2-19.4 11.1-38.6 20.8-56.2 12.6-22.9 29.6-41.7 52.9-54.3 12.5-6.8 25.9-9.6 39.8-7 14.1 2.6 23.3 11.5 28 25.1 2.5 7.4 2.9 14.9 2 22.4-.9 7.8-3.2 15.5-6 22.9-8.7 22.4-21.9 41.8-38.7 59.1-17.5 18-35.6 35.5-53.2 53.4-.5.5-.7 1.2-1.1 1.8-42.8-.1-85.5-.1-128.2-.1zm413.5-.4c-.3-13.3 1.3-26.5 3.5-39.6 2.4-14.6 6.1-29 11.1-43 10.2-28.4 23.9-55 41.8-79.3 16.8-22.6 35.7-43.3 59.2-59.3 7.1-4.8 14.8-8.6 22.6-12 4.9-2.1 7.2-.2 6.8 5.2-1.5 17-2.7 34.1-4.5 51.1-1.8 16.8-4.6 33.5-9.1 49.9-10.7 39.6-30.8 74.2-55.6 106.4-4.3 5.5-8.7 10.9-13.1 16.3-1.1 1.3-2.4 2.5-2.9 4.3h-59.8zM.4 551.5c0-36.3.1-72.7-.1-109 0-5.3 1.5-9.6 4.4-14 15.3-23.2 34.7-42.7 55.9-60.6 16.2-13.8 33.1-26.9 47.9-42.2 10.1-10.4 20.1-21 27.1-33.8.4-.7.9-1.1 2.1-1.3 1.4 1.5.6 3.2.3 4.9-1.4 7.1-2.8 14.1-4.4 21.1-2.3 10-3.9 20.1-4.9 30.3-2 19.1-3.5 38.3-5.9 57.4-1.7 13.5-5.2 26.8-8.6 40.1-3.1 11.7-6.8 23.1-11.9 34.1-8.3 18-20 33.8-33.1 48.7-7.5 8.4-15.6 16.3-23.4 24.4-15.1-.1-30.3-.1-45.4-.1zm476.6-1.7c-28.9-26.7-53.4-57.1-75.9-89.3-11.2-16-19-33.6-22.7-52.8-2.2-11.5-3-23-.4-34.5 2.6-11.4 8.2-20.7 19.1-25.6 10.3-4.6 21-3.6 31.2.7 14.1 6 24 16.8 32.8 28.8 11.1 15.1 19.1 31.8 26.2 49.1 6.9 16.7 12.9 33.7 17.9 51.1 3.7 13 5.9 26.4 7.3 39.8 1.2 10.8 2.1 21.7 2.4 32.6-12.6.1-25.2.1-37.9.1zm86.6 0c3.4-8.5 6.1-17.2 9.8-25.5 10.7-24.3 23.7-47 42.8-65.9 15.5-15.3 33.7-25.9 55-30.4 10.5-2.2 21.3-3 31.7 1.1 16.5 6.4 21.7 21.3 15.9 37.6-4.9 13.9-14.1 25-24.3 35.3-15.8 15.9-33.7 29.1-51.5 42.6-2.2 1.7-4.8 2.9-6.5 5.3-24.3-.1-48.6-.1-72.9-.1z" fill="#437f17"/><path d="M1627.3 550c1.4-4.6 2.5-9.2 4.2-13.7 1.5-4.1 2-8 1.7-12.3-1-13.1-.4-26.1 1.2-39.1 1.1-8.8 2.4-17.5 3.6-26.2.1-.9.4-1.7 1.6-2.5-.1 2.9-.2 5.9-.4 8.8-1.2 15.6-2.6 31.2-3.7 46.7-.2 3 .1 6.1 1.3 9.3.6-1 1.3-1.9 1.8-3 5.3-11.4 10.6-22.7 15.6-34.1 1.5-3.5 2.5-7.3 2.9-11.1 2.1-20.2 6.2-40 11.8-59.5.1-.5.5-1 1.1-1.4-3.2 19.9-8.4 39.5-10.1 60.7 1.3-1.7 2.1-2.8 2.9-3.9 7-10.6 14-21.2 20.9-31.9 1.2-1.9 2.1-4.3 2.7-6.5 1.9-7.3 3.5-14.7 5.3-22 .6-2.3 1.5-4.5 3.1-6.5-1.8 8.3-3.6 16.5-5.4 24.8l1.2.6c7.6-8.1 13.7-17.7 22.2-25.1-4.8 9-12 16.4-18.4 25.9 6.3-1.6 10.9-4.6 15.9-6.4 4.9-1.8 9.8-3.7 14.7-5.5.2.4.3.8.5 1.2-1.6.7-3.1 1.5-4.7 2.2-9 4.1-18.1 8.1-27.1 12.3-2.1 1-4.3 2.5-5.5 4.3-7.4 11-14.6 22.1-21.9 33.2-.3.4-.3 1-.9 2.9 14.4-9.3 27.3-19.2 42.5-25-1.1.8-2.2 1.6-3.3 2.3-13.7 8.3-27.3 16.8-39.5 27.2-4.1 3.5-7.6 7.4-9.9 12.4-4.3 9.8-8.8 19.4-13.2 29.1-.7 1.5-1.1 3-2.1 5.8 2.1-1.2 3.3-1.8 4.4-2.5 10.5-7.1 21-14.3 31.5-21.4 2.4-1.6 5-2.7 7.5-4 .2.4.5.7.7 1.1-2.3 1.7-4.6 3.3-6.9 5-12 8.5-24 17.1-36 25.5-3 2.1-5 4.8-6.3 8.2-1.7 4.7-3.4 9.3-5.1 14-.9.1-1.6.1-2.4.1zM1.6 527.8c5.3-7.6 10.8-15 13-24.5 4-17.5 8.5-34.9 12.9-52.4.8-3.3 2-6.5 3.6-9.6-4.5 20.4-10 40.5-12.9 61.4 4.8-6.5 9.6-12.9 14.2-19.5 1.3-1.9 1.7-4.3 2.4-6.6 5.6-18.8 11.2-37.6 16.8-56.3.5-1.8 1.3-3.6 2-5.3.4.1.7.2 1.1.4-5.7 19.9-11.3 39.9-17 59.8.4.4.9.7 1.3 1.1.3-.8.5-1.8 1-2.5 6.1-8.2 12.4-16.3 18.4-24.6 1.4-2 2.2-4.5 2.8-6.9 4-14.4 7.8-28.8 11.7-43.2.9-3.3 2.1-6.5 3.1-9.7.4.1.7.2 1.1.3-4.2 16.3-8.4 32.5-12.6 48.8.4.2.7.3 1.1.5 14.2-19.9 24.9-41.8 36.4-63.3.1 7.2-13.1 32.5-33 65.6 5-4.1 9.9-8.2 14.9-12.2s10.1-8 15.9-11.3c-.8.9-1.5 2-2.5 2.8-10.3 8.7-20.7 17.3-30.9 26.1-2.7 2.3-5.3 4.9-7.6 7.6-4.8 6-9.3 12.1-13.3 18.8 9.2-6.5 18.4-12.9 27.6-19.4.2.2.4.5.6.7-.8.8-1.5 1.7-2.4 2.3-9.7 7.2-19.4 14.4-29 21.6-1.9 1.4-3.9 2.7-5.3 4.5-6.9 8.9-13.7 18-20.1 27.5 4.5-1.6 8.3-4.3 12.3-6.7 4-2.4 8-4.9 12-7.2 4.1-2.4 8.3-4.8 13-6.4-.9.7-1.7 1.4-2.7 2.1-11 7.1-22.1 14.2-33 21.4-5.1 3.4-9.5 7.5-12.2 13.3-.9 1.9-1.3 4.8-4.7 4.2v-3.2zm496.5 22c-3.8-11.5-7.4-23.1-11.5-34.5-1.1-3-3.2-5.8-5.5-8.2-12.3-13.2-26.4-24.3-40.7-35.1-1.8-1.4-3.6-2.8-5.1-4.6 3.1.7 5.5 2.7 8 4.5 2.6 1.9 5.1 3.8 7.6 5.7 2.7 2 5.3 4 8 6.1 2.6 2.1 5.2 4.3 7.7 6.4 2.4 2.1 4.8 4.1 7.1 6.3 2.4 2.3 4.8 4.6 8.1 7.8-.4-2.2-.5-3.3-.9-4.3-6.7-16.3-13.9-32.4-23.6-47.1-4.8-7.4-11.5-13.8-18-19.8-5.8-5.3-12.7-9.4-19.1-14-1-.7-2-1.3-2.8-2.4 2.8.4 5.2 1.9 7.5 3.3 2.5 1.6 5.1 3.2 7.5 4.9 2.4 1.7 4.8 3.5 7.2 5.4 2.3 1.8 4.5 3.7 7.4 4.9-7.4-11.8-14.8-23.6-22.3-35.4l.9-.6c9.1 11.5 16.4 24.4 25.6 36-2.4-9.3-4.7-18.5-7.1-27.8.4-.1.8-.2 1.2-.4.7 2.4 1.5 4.8 2.2 7.2 1.4 4.9 2.6 9.9 4.1 14.7 3.2 10.6 7.3 20.8 12.9 30.5 6.1 10.8 11 22.4 16.5 33.6.5 1.1 1 2.1 2 3.1-1.6-15.5-2.3-30.9-.9-46.4.5 8.2.9 16.5 1.6 24.7 1 11 2.4 22 3.7 33 .2 1.6.7 3.1 1.2 4.6 4 12.6 8 25.1 12 37.7-1.1.2-1.8.2-2.5.2zm1069.6.2c-1-4.9-1.6-9.8-3-14.6-.8-2.7-2.4-5.5-4.4-7.5-10.1-10.2-20.4-20.2-30.6-30.3-2.4-2.4-4.9-4.7-6.9-7.4 13.7 10.7 26.4 22.5 39.2 34.8-.5-1.8-.8-3.7-1.4-5.5-4.7-14.3-9.4-28.7-14.4-42.9-1.1-3-3-6-5.3-8.2-5.5-5.4-11.4-10.4-17-15.4 3 .5 3.7.9 8.7 4.9 2.8 2.3 5.6 4.6 9.1 6.5-3.9-11-7.7-21.9-11.6-32.9.4-.2.9-.3 1.3-.5 4.9 10.4 8.2 21.5 13.6 31.8.6-6.6 1.2-13.3 1.8-19.9.3 0 .6 0 .9.1 0 7.2.1 14.3 0 21.5-.1 5.6.9 10.9 2.7 16.2 3.9 11.1 7.5 22.3 11.2 33.5.6 1.7 1.2 3.4 2.2 5 2.8-18.5 6.2-36.8 11.5-54.7.4.1.8.2 1.2.2-.9 4.4-1.8 8.9-2.7 13.3-2.1 11.2-4.3 22.4-6.2 33.6-1.7 9.9-1.6 19.8 1.1 29.6.8 2.8.9 5.8 1.3 8.7-.8.1-1.6.1-2.3.1zm394-.4c3.8-13.2 7.5-26.6 11.6-39.7 5.8-18.7 12.9-37 22.1-54.3 10.2-19.1 21-37.9 32.2-56.4 7.4-12.2 15.9-23.8 24-35.6 1.2-1.8 2.8-3.4 4.9-5.9.3 3.5-1.3 5-2.3 6.6-7.5 11.4-15.1 22.7-22.5 34.1-12 18.5-23.1 37.5-33.1 57.1-14.1 27.7-24.3 56.8-32.5 86.7-.7 2.5-1.4 5-2.2 7.5-.8-.1-1.5-.1-2.2-.1zm-1369.6.2c7.6-11.9 16.3-23 25.8-33.3 15.3-16.7 31.4-32.8 49.5-46.5 1.4-1 2.8-2 4.8-2.4-.8.9-1.6 2-2.5 2.8-13.5 12.8-27.2 25.5-40.4 38.6-12.7 12.5-23.8 26.3-34 40.9-1.1-.1-2.1-.1-3.2-.1z" fill="#58cb71"/><path d="M1865.4 248.9c0-.4.1-.8.1-1.2 0-8.3-6.7-15-15-15h-.8c-3.4-8.1-11.4-13.4-20.2-13.4h-1.3c-4.1-14.2-17.1-24.5-32.6-24.5-16 0-29.5 11.1-33 26.1-8.1 2.5-14.1 9.8-14.9 18.6-1.7-.5-3.6-.8-5.4-.8-7.3 0-13.7 4.1-17 10.1l140.1.1z" fill="#fff"/><path d="M392.4 175.8c2.9-4.9 7.2-6.9 13-6.2 5.6.7 8.6 4.8 12 9.6 2.1-2.3 3.7-4.6 5.7-6.2 6.8-5.6 15.3-3.2 18.6 5 .4 1 1 2.2-.2 2.9-1.3.7-1.9-.7-2.5-1.5-6.5-8.3-10-8.5-17.1-.7-1.3 1.5-2.5 3.1-3.8 4.6s-2.5 1.3-3.4-.3c-.6-1.1-1-2.3-1.6-3.5-3.9-7.9-10.5-9.8-18-5.2-.9.5-1.5 1.7-2.7 1.5z" fill="#4cb0b1"/><path class="st9" d="M1014.2 189.9c-.5.6-1 1.6-1.4 2.9-.2 1.3-.8 2.6-1.9 3.7-1 1.4-1.9 3.5-2.7 5.9-.5 1.4-1 2.7-1.8 3.5-3 3.4-4.5 9.6-5.9 13.4-.8 1.3.2.6-.6 1.4-.5.8-1.1 1.6-1.6 2.6-1.8 5-2.7 8.6-4.5 12.3-5 16-8.6 30.5-4 40.8.6 1.4.3 2.6-1 3.4-1.1.8-2.9-.2-5-2.9-3.7-5.1-5.6-11-5.9-17.9-.3-6.9 1.9-16.2 6.9-27.8 3.4-10.7 9-20.3 13.4-30.7 1.8-4.3 3.5-7.5 5.9-11.8 1.4-1.9 2.4-4.2 3.7-6.1 0 0 .2-.2.2-.3l-.2-.2 1.3-2.9s0-.2.2-.2c1.8-3 3.2-6.1 4.6-9.1.2-.8-.5-1.6-1.3-.5-2.6 3.2-5.1 6.6-7.8 9.6h-.8.8c-.8 1.3-2.2 2.9-3.7 4.2-.2.2-.2.3-.3.3-.8 1.4-1.6 2.2-2.2 3.4-.2.5.8-.8 3.2-3.5 2.4-2.9 3.5-4.2 3.4-3.7-2.4 3.8-6.2 9.6-11.2 17.1s-8.8 13.1-11.5 16.8c-5.8 9.8-13.1 18.4-18.7 28.1-1.1 1.9-1.9 3.4-2.2 4.2-.8 3.5-2.6 4.6-5.3 3.2-1.8-.8-4.6-3.7-3.8-6.1 1.1-6.1 3.2-12.5 5.9-19.4 4.5-10.9 10.1-22.4 15-33.4l2.2-5.3c.5-.8 1.1-2.4 2.1-5.1 1.8-3.8 1.6-4.6-.6-2.6-2.1 2.1-4.8 5.1-8 9.3s-6.2 8.3-9.3 12.6l-4.6 6.4c-6.4 9.6-11.7 20-17 29.7-1.9 3.8-3.4 6.7-4.2 8.6-.8 1.8-2.2 4.3-4.3 7.7-.2.5-1.8.2-5.1-1-3.4-1.1-4.3-3-3.2-5.8.6-3 2.1-5.4 2.9-8.2 0-.6.3-1.1.8-1.8.2-.5.3-1 .8-1.3 1.4-4.6 4.5-10.9 6.2-15.5 1.1-5.1 3.4-8.5 4.2-13.6 0-.2.5-1 1.6-2.7 1.1-1.8 1.6-2.7 1.6-3 0-1.8.2-2.9.5-3 .3-.2 1-1.3 1.8-3.4.8-1.9 2.4-4.3 3-6.7l.6-1.6c.6-1.3 1.4-3.4 1.6-4.6 1.9-3.7 2.4-7.2 3.2-11 .5-2.4-.8-3.2-3.7-2.2-6.2 2.6-11.4 5.4-15.7 8.8-1.1.8-1.3.8-.6-.3.8-1.1.6-1.4-.2-.6-.6.8.5.5-.3 1.9l-5 4.5c-2.2 2.1-3.8 4-4.6 5.6-.3.3-.3-.3.2-1.8.5-1.4.8-2.4.8-2.9-.2 0-1.1 4.5-1.8 5.1-7.5 9.8-13.1 20.8-17.8 29.3-.5 1.6-1.3 1-2.6-1.9-1.1-3-1.4-5.6-1-7.7.8-1.3 1.3-.5 2.1-2.6.3-.8.2-.6-.5.5s-.8 1.1-.6.2c.5-1.8 1.8-4.3 3.7-8l4.2-7.7.3-.2c-.5.2.2-.6.2-.6 1.1-1.1 2.1-2.2 2.9-3.4.5-.8-.5 1.1 0 .6.5-.6 2.6-4 3.4-4.8l.6-1.3 2.1-1.6c5.9-5.9 12.8-10.7 20.8-14.4 2.1-.8 4.6-1.6 7.4-2.4 7.2-1.4 11.8-.8 13.6 2.2s2.1 7.4.8 13.1c-1.9 7.7-5.3 15.7-8.3 23.3-4.5 9-8.5 18.4-12.5 27.2-.2.6-.3 1.3-.3 1.8 1-1.1 1.4-1.6 1.4-1.6 4-6.6 7.5-13.3 11.4-20.2 4.2-6.9 8-12.5 11.5-17.1 3.7-4.6 8.3-10.1 14.1-16 2.6-2.9 5.3-3.5 8.3-2.1 3.7 1.8 4.8 4.3 3.4 7.5-.8 2.7-1.6 4.3-2.2 5.1-.5.8-1.4 2.4-2.7 5-4.3 10.9-9.3 21.6-13.6 32.5-.2.2-.3 1-.8 2.4.5-.6 2.4-1 3-1.8l1.4-2.1c-.5.5-.6 1.3-.8 2.2l-.6.6s.2-.2.6-.2c.8-.8 1.4-1.9 2.1-2.7 1.8-2.7 3.2-5 4.5-7.7.3-.2 1.1-.8 2.4-2.1v-1c-.5.3-.6.5-.6.3-.2.5-.8 1.3-1.6 2.7 0 0-.3.2-1 .6l5.3-7.4v.2l.2-.2c.2-.2.2-.2 0-.2l1.8-2.6v.5c.3 0 .6-.2.8-.3-.5.3-.2-.3.6-1.9 1.4-1 1.9-1.3 1.6-1.1 0 0-.5-.2 0-.3-.2 0-.5 0-.6.2-.5.5-1 .8-1 1.3l-1 1.3c6.6-9 13.3-18.6 20.2-27.7 2.2-3.5 4-6.1 5.3-7.7 2.1-2.1 5.8-3.8 7.7-1.4 3.4 3 4.5 5.8 3.7 7.8-.8 2.1-2.2 5.6-4.6 10.4l-.5.2c-1.5 3.6-2.5 5.5-3.3 6.5zm-110.5 17.6s0 .3.2.3c0 0 .2.2.2-.3s0-.8.5-1.6l1.9-3c.2-.6.6-1.4.8-2.1.2-.6.8-1.1 1.6-1.6.2-.3.3-.5.3-.6 0-.3.3-.8.8-1.3l.5-.5s.3-.5.5-.6c0-.3.3-1 1-2.1.6-1.1 0-.5-1.9 1.9l-1.6 1.6c-.2.6-.6.8-.5 1-.8 1.4-1.8 2.2-2.4 3.5-.6 1.1-1.1 2.2-1.6 3.5-.2.5-.3.8-.2 1.3-.1.1-.1.6-.1.6zm25.5 20.8c-.5.2-.6.5-.6.8.1-.5.4-.8.6-.8zm3-7.6c-1.1.6-1.6 1.4-1.8 2.2.2.2.2.3.3.3 0 .5.3 0 .3 0-.1-.5 1-1.3 1.2-2.5.5-.3.6-1 .6-1.8l.2-.5-.2.5c0 .7-.6 1.2-.6 1.8zm3.2-8s-.5-.5-.5-.6v.5s-.2.3-.3.8c-.5.5-.6 1.1-.5 1.9-.2.2-.6.5-.6.5l.6.6s.2 0 .2-.5c0 0-.2-.5-.2-.6.3-.5.5-1.1.3-1.9l1-.7zm-.2 21.3c-.5 0 0 .2 0 .2 0 .2.2 0 .3-.3.1.1-.1.1-.3.1zm1-23.8c0-.3.2-.5.3-.5 0-.2 0-.3.2-.5-.2.2-.2.3-.2.3-.1.2-.3.4-.3.7zm2.1-6.1c1.1-.6 1.4-1.6 1.3-2.9l.2-.3v.3c-1 .6-1.4 1.6-1.3 2.9-.5.5-.6 1.1-.8 1.8-.3.2-.5.5-.6.8 0 0 .2.5.6.5l.2-.3c-.2-.2-.2-.8-.2-1 .4-.2.6-.8.6-1.8zm5.1-11.4s.2-.2.2-.3c-.1.2-.1.3-.2.3-.2.8-.6 1.3-.5 1.9-.2.2-.2.2-.2.3v-.3c.4-.3.5-.9.7-1.9zm3.5 8.8v-.5l-.2.2c.2 0 .2.2.2.3zm.2-.6c0-.2 0-.2.2-.3h-.3l.1.3zm2-6.6h.2c-.6 1.4-1.3 2.6-1.8 4 0 0-.2.6-.5 1.8.8-.5 1.4-.3 1.9-1 1.3-4 3-8.3 4.8-12.3.2-.3.2-.5 0-.6 0-.2.3-.8.5-1 .5-1 1-2.4 1.3-4.2.2-.8.2-1.3.2-1.4-.5.5-.6.6-.6.8-.5.8-.8 1.9-1 3.4-.3 1-.5 1.3-.5 1.1-.2.2-.3.5-.3 1l-.6.5-3.6 7.9zm7.6-16.6s.2-.5.3-1.4c-.5.5-.8.8-1 .8-.2.2-.3.8-.5 1.9l1.2-1.3zm.3 54.7s.3-.5.8-.6c0-.2-.2-.3-.3-.5 0 .2-.2.3-.2.3-.5.5-.3.8-.3 1-.5.2-.6.8-.8 1.6l-.6.8s0 .5.2.5l.3-.3c0-.2.2-.3.2-1 0-.5.5-1.2.7-1.8zm3.2-8.3c-.8 1.4-1.6 3.8-2.7 6.9v.3s.6-.2.8-.3c.6-2.6 2.2-4.8 2.4-7.2l.5-.5c-.2.2-.2.3-.2.5-.5.1-.8.1-.8.3zm3.3-7.7c-1.4 1.6-1.8 3-1.3 4.2-.5.5-.6 1-.6 1.1 0 .3-.2.6-.6 1.1v.3c-.2-.2-.2-.2 0-.3.2-.2.5-.6.6-1.1 0-.2.2-.6.6-1.1 1.2-1.5 1.5-2.9 1.3-4.2-.2.2 0-.2.2-1.3.2 0 .2-.2 0-.5.2.2.2.5.2.5l-.4 1.3zm1.6 10.9l-.2.2h.3l-.1-.2zm11.1-12.8s0 .3-.2.8c-.2.2-.5.6-.8 1.4l1-2.2zm3.7 50.9c0 .5.2.6.8 1.3 0 0 0 .2.2.2s.3-.2.5-.5c-.2-1.1-.3-2.2-.3-3.4.2-1.4.2-3.7.3-6.7.2-1.8.2-3.4.2-4.6.2-1.4.5-2.6.8-3.4.2-.8.2-1.3.2-1.6 0-.6.3-1.6 1-2.7 0 0 .2-.5.5-1.4.5-1.4.6-1.9.5-1.4-.2-.8-.2-2.2.2-4.5.3-2.4-.5-.6-2.2 5-.6 1.3-1.1 2.7-1.4 4.5-.5.8-.6 1.3-.6 1.8-.3 1.9-.6 4.5-.8 7.5-.5 2.6.2 5.1-.3 7.2.5 1.3.6 2.2.6 2.9h-.2v-.2zm9.9-67.5c0-.2.2-.5.3-1h-.3c-.2.2-.2.5-.2 1h.2zm23.5-25.6c-.8 2.1-2.6 4.3-3.8 6.4l.2.3c.5-.2.6-.3.6-.3 2.4-3 3.7-5.4 3.8-6.9 0 0 .2-.2.2-.3 0 .2 0 .2-.2.3-.7.5-1 .6-.8.5z"/><path class="st9" d="M1027 227c1.8-2.2 2.6-3.8 2.7-4.8v.3c.8-.5.8-1.3 0-2.2v.2c1.4-3 3.4-5.8 5.1-8.8l.2-.5 3.5-3.7c1.1-1.1 1.9-2.6 3.2-4 .6-.8 1.3-1 1.9-.3 2.1 1.4 3.5 2.7 4.3 3.7.5.6.6 1.4.5 2.6 0 .5-.3 1.8-.8 3.5l-1 1.6c-6.2 8.2-9.9 17.3-13 26.7-2.1 7.2-4.8 14.1-7.4 21-.6 2.6-1.9 4.6-2.7 7-1.3 3.4-3.2 6.1-5 8.8-1.8 2.6-4.5 5.1-8.2 7.5-.6.5-2.1 1.1-4.5 1.6-5 .8-9.4-.2-13.6-2.9-3.5-2.1-6.4-5.1-8.6-9-1.3-2.1-1.4-4.3-.5-6.7.2 0 .5-.5.5-.6.2.2.3.5.3.8l.5 1.9c.8 4.3 3.7 7.2 8.6 8.6 6.6 1.9 12 .3 16.3-5 2.7-3.2 5.3-8 7.7-14.2 1.9-5.1 3.5-10.7 5.4-16.3.8-3 1.9-5.6 3.2-8.6 0 0-.2-.3-.2-1-.5.5-.6.6-.6.5-2.1 3-3.4 5.1-3.8 6.2-1.1 2.7-3.5 5.4-7.2 8.2-2.7 2.1-5.1 1.8-7.4-1.3-2.1-2.7-3-5.4-3-8.5.2-5.9 1.6-11.8 4-17.9 1.9-4.5 4.5-8.5 6.6-13 1.3-2.1 2.9-4.6 2.9-7.7-.2-.8 1.1-1 1.8-.8 2.4 2.2 4.3 4 5.4 5.3.8 1 1 2.2.3 4-1.3 3-2.2 5.8-3.5 8.5-1.4 3.2-2.9 5.8-4.2 8.8-2.6 4-3.8 8.6-5.1 13.1-.2.2-.3 1.3-.5 3.7 0 .5.2.8.5.8.5.3 1 .2 1.4-.3 2.2-2.1 4.5-5 6.9-8.6 1.4-2.6 3.2-4.6 5-7.2l-.2-.2c.5.8.8.8 1.1 0l-.2.2 1.1-1.1v.1h.3zm-31.6 54.3h-1c.5.2.8.3 1 .3.6 0 1.3 0 2.1-.2-.9-.1-1.5-.1-2.1-.1zm19.2-9.4v-.3c-.5 0-.5.2-.5.2 0 .3 0 .6-.2 1-.2.2-.5.6-1 .8-3.4 3.2-5.8 5.6-7 7 0 .2-.3.5-.5.5l.2.3c0 .2.2.2.5.2 3.4-2.2 5.6-4.6 6.7-7.2v-1c.2-.2.6-.3 1.1-1 0 0 .2-.3.7-.5zm84.7-61.1c2.1-4.6 5-9.6 7.7-14.7 2.1-4.5 5.4-8.6 7.5-13.3 3-5.8 5.6-11.5 7.5-17.8 1.4-4.8-.5-6.6-5.6-5.4-9 2.4-15 8.6-21.3 15.2-7.7 8.2-10.6 17.6-14.2 27.2-1.1 2.6-2.7 3.7-4.6 3.5-3-.2-4.2-1.6-3.4-4.5 2.4-6.4 4-13.1 7.8-18.9 5.3-9.1 12.6-17.6 22.4-23.3 5.9-3.7 11.8-5.3 17.4-4.6 7.5 1.3 12.5 6.1 10.1 14.2-2.1 7.2-5.6 14.2-9 21.1-5 9.6-10.2 19-15.2 28.6-4 7.5-7.5 15-10.6 22.2-1.9 4.6-3.2 8.6-4 11.8-.2.2 0 .6.3 1.4.8-.2 1.4-.5 1.6-1 4.5-5.8 9.8-11.5 13.4-18.1 6.4-11 12.8-21.3 19.4-32.3 3.7-5.9 7.7-12.8 12.6-18.7 2.4-2.1 3.8-.3 5.6.3 3 1.8 3.8 3.5 2.6 5.4-1.1 1.4-2.2 2.7-3.7 4.2-4.3 6.9-9.9 15.8-16.6 26.9-6.7 11-9.3 20-7.5 27 .8 3.7 2.9 4.2 6.6 1.3l13.1-10.7c.8-.5 1 1 2.1.3.2-.5.5-.8 1-1.4-2.4.5-3.2.3-2.1-.8s1.9-2.1 2.1-2.9c4.5-7.2 9.8-14.7 13.4-22.5 6.6-14.1 13.8-28.1 13.8-42.9 0-5.1.3-9.8-.2-14.9 0-.5.5-1.4 1.6-2.6 1.1-1.1 2.2-1.4 3.4-1l1.1 1.6c2.9 10.7 15.5 36.1 32.1 22.5 2.6 3-.8 6.9-2.9 8.2-2.2 1.9-6.4 2.4-12.3 1.4s-10.1-4.2-12.2-9.6c-2.1 8.8-5.3 18.1-9.4 27.7l-1 2.9c-1.8 3.8-2.1 4.2-3.5 7.5-1.1 2.4-2.6 5-3.4 7.5-1.8 3.8-2.9 6.1-3.7 6.6-.6.5-2.2 2.6-4.8 6.1-5 7.5-10.2 13.9-17.8 19-13.4 9-22.4 4.6-26.1-7-.6-1.9-.5-4.3-.5-6.9-.5-.2-.6-.6-.6-1.3-.8.5-1.3 1-1.4 1.1-4.5 6.6-8.6 13-12.6 19.4-1.9 3-4.3 4-7 2.6-3-1.4-4.3-3.7-4-6.7.2-5.3 1.4-11 3.8-17.4s5-12.2 7.5-17.4c.8-1.8 2.3-3.7 3.7-6.1zm-21.2-18.9c0 .5-.2.6-.2 1.1 0-.5.6-.5.8-1 1.9-3.7 4.6-6.9 4.5-11.2 1.1-1.3 2.4-2.6 3.8-3.8l-.2-.3c-1 .8-2.1 2.2-3.5 4.3-1.7 3.8-3.8 7.1-5.2 10.9zm10.8-17.5c.5-.6.8-1.1 1-1.6l1.1-1.3c.3-.3.6-.6 1-.8l1.8-2.1v-.2l-1.8 2.1c-.6.6-1 .8-1 .8-.5.8-1 1.3-1.1 1.4-.8 1.1-1.1 1.6-1 1.4v.3zm1.1 60.4l.2-.2v-.5c-.2.2-.2.4-.2.7zm2.4-4.9c0-.5-.2-.5-.2-.6h-.2c-.8.5-1.1 1.3-1 2.1 0 0 0 .2.2.2 0 0 .2 0 .2-.2l1-1.5zm2.3-6.9s.2.2.3.2v.5c0 .2.2.3.5.5 0-.2.3-.3.5-1h-1.1l-.2-.2zm1.1-56.6l-.2-.2.2.2zm4 50.7s-.2-.5-.2-.6c-.3 0-.5 0-.5.2-.3.2-.6.8-.8 1.8-.2.3-.3.6-.8 1 0 0 .3.3.5.3 0 0 .2 0 .2-.2s.2-.5.2-1.1c.8-.3 1.2-.6 1.4-1.4zm3.2-6.8s0 .2.2.2.3 0 .3-.2c.2-.6.3-1.9.8-3.7 0 0 .3 0 .5-.5 0-.2 0-.3-.2-.5 0 .2-.2.3-.2.3 0 .3 0 .5-.2.6-.6.6-1 1.8-1.2 3.8zm3.2-6c.8-1.8 1.4-2.9 1.9-3.5 1.8-1.9 2.2-4.5 3.4-6.6-.2.2-.3-.2-.3-1-.5.2-.6.3-.6.5-1.3 1.9-1.9 4.2-3 5.6s-1.3 3.4-1.9 4.8c0 0 0 .2.2.2h.3zm1.8 3.2v.3h.3c-.2-.2-.2-.3-.3-.3zm8.3-16h.3s.2-.3.3-.5l-.2-.2-.4.7zm5.3-9.3h-.2l-.2.2.2.2c.2-.2.2-.2.2-.4zm22.2 56.6c0 .2 1.1.3 1.1.3s.2-.2.3-.2c-.1.1-1.4-.1-1.4-.1zm11.5-17.1c-.6 0-.8-.2-.6-.3 1.8-2.7 3.5-8.6 6.7-12.3l.6-1.1c.2-.3.2-.6.2-1.1-1.1 1.4-1.6 2.2-1.6 2.2-2.4 4-4.3 8.2-6.7 12.5v-.2c0 .2-.5.8-1.4 2.2-1 1.4-1.3 2.1-1.1 2.1s1.4-2.4 2.6-3.2c.5-.5 1-.6 1.3-.6v-.2zm9.4-20.6v.2c-.2.2-.2.3-.3.3 0 0-.3.5-.8 1.4-.2 0-.2 0-.2-.2.2-.5.6-.6 1.1-1.1.1 0 .2-.5.2-.6zm3.1-9.2v2.2l1.3-2.4 2.1-5.8c1.1-5.8 2.1-11.2 3.4-17.1 0 0-.2-.3-.5-1.1-.5.5-.6 1-.6 1.1-1.4 7.7-3.2 15.4-4.6 22.9-.7.1-1 .2-1.1.2z"/><path class="st9" d="M1183.3 233.5c-.8-1.1-1-1.9-.2-2.6 0-.2.3-.8.8-1.6 3.2-5.3 5.4-11.5 6.7-18.7.8-5-.2-9.4-2.7-13.4-.5-.8-1.1-1.9-1.9-3.7-.3-.6-.3-1.4.2-2.6.5-1 1-1.1 1.3-.3 1.1 1.8 3 2.7 5.4 3.2 1.4.3 2.6 1.3 3.5 2.9.8 2.1 1.8 4.8 3 6.9.2.2.2.3.2.8-.5 3.2.2 6.4-.3 9.4-1.6 7.5-5 14.9-9.9 21.8l-3.2 4.2c-2.6 3.7-6.4 5.6-10.1 7.5-2.4 1.1-4.5.8-6.6-1.3-2.7-2.7-4.2-6.1-4-10.4.5-6.7 1.9-13.3 4.5-19.8.6-1.6 1.8-3.8 3.5-6.7 1.4-3 4.3-4.8 7-6.9.8-.6 2.1-.6 3.7 0l2.4 1.4c1.1 1.1 1.1 2.1.3 3.2-.8.8-1.9 1.9-3.4 3-1.1 1.1-1.6 2.1-1.8 2.9-.2.5-.6 1.4-1.8 2.7-2.7 3.7-4.6 7.7-5.6 12-1.3 4-2.4 8-2.4 12.3v1.8c0 .8.3 1 1.1.8l1.9-1c3.4-1.3 5.6-4.6 6.9-7.4 3.7-.6 5.1.8 5.9-2.4 0 0-.6-.5-.8-.5-.5 0-1 .2-1.4.5-1.1.5-1.1 1.9-2.6 1.9h.4v.1zm12-22.7c-.3-.2-.6 0-.8.2-.3.8-.5 1.1-.5 1.1 0 1-.3 2.4-1.1 4.2-1.1 2.1-1.9 4.5-2.6 6.6 0 .5.2.8.3.8h.6c1.1-.5 1.8-1.4 2.2-2.7 1-3.8 1.8-6.7 2.4-8.8 0-.2-.2-.3-.2-1 0-.2-.2-.4-.3-.4zm-3.2-13.4l.2-.2h-.2v.2zm3.7 8.3c0-.2-.2-.3-.3-.5 0 0-.2.2-.5.6 0 .5.2.6.3.8 0 .5.2.6.2.6l.3-.5v-1zm15 24.5c3.2-4.5 6.2-8.6 9.9-13 1.9-2.2 3.8-5.6 5.8-9.9 1.9-4.3 4-8.3 6.4-11.7.8-1.4 2.1-1.6 3.5-.5l2.7 2.7c1.1.8 1.4 2.1 1.1 3.7l-1.4 2.6c-.8.8-1.6 1.8-2.2 2.9-1.6 2.2-3 5.8-4.3 10.4-1.1 4.6-.2 7.8 3 9.3.6.5.8 1 .5 1.4-.5 1-.8 1.6-1.3 2.1-.8.8-1.6 1-2.4.2-3.2-1.8-7.7-5.6-8.5-9.4-.5-1.4-1.3-1.4-2.1-.2-1.8 2.4-3.4 4.5-4.8 6.9-.8 1.3-2.2 3.4-4.3 6.1-4.3 5.6-8.2 10.9-11.5 15.7l-.3.3c-.6.8-.3 2.6-2.1 2.7-1.4-1.3-3.5-1-4.6-3.4 0-.5-.2-1-.3-1.3-.8-1-1-2.2-.3-4 1.3-3 2.4-6.2 3.7-9 3.4-6.6 6.2-13.6 9.6-20.6l7-15c.5-1.4 1.3-1.6 2.4-.8 1.3 1.1 2.4 1.9 3.8 2.6 1.6 1.4 2.2 2.9 1.8 4.5-.3.8-.8 1.8-1.6 2.9l-9.1 18.2c-1.1 2.4-1.4 4.2-1.3 5h-.3l-.3.2c.3 0 .5-.2.5-.3.7-.7 1.1-1.2 1.3-1.3zm-10.7 10.2c.6-.2 1-.6 1-1.8.3-.5.5-.6.5-.6s-.2-.3-.2-.5c0 .2-.2.3-.2.3 0 .5 0 .8-.2 1-.5.3-.8 1-.8 1.8-.5.3-.8 1-.8 1.9-.3.2-.5.5-.6.8v.3s.3-.2.3-.3v-1c1 0 1.3-.6 1-1.9zm2.4-4.8v-.2h-.2l.2.2zm5.4-13.3c2.2-5.3 3.5-8 3.7-8.2 0 0-.3-.6-.3-.8-.2.3-.3.5-.3.6 0 .3-1 3.2-3.1 8.4-2.1 5.3-3 7.8-3 8-.2.2-.5.3-.6.6v.6l.5-.5v-.8c0-.2 1-2.6 3.1-7.9zm68-21.4c.3 0 .6.2 1 .3.8 1.1 1.1 2.4 1.1 3.5.2 4-.5 7.5-1.8 10.6-1.1 3-2.4 5.4-3.7 8-1.4 3.4-3.7 6.2-6.4 9-1.4 1.4-3.2 2.7-5 3.8s-3.4 1.4-5.1.8l.2.5c-.2.2-.2.3-.2.6.5 4.8 1.4 9.6 3 14.2.3 1.8 1.8 4.2 4.3 7.4 0 .2 1 .5 2.7.8.6 0 1 .3 1 1v1.8c-.5 2.6-1.6 3-3.4 1.6-2.6-1.8-4.3-3.4-5.4-5-4.5-4.8-6.9-10.6-7.4-17.3-.5-1.8-.5-3.5-.5-5.6 0-.5-.3-1-1.1-1.8-.3-.2-.6-.2-.8 0-.3.2-.8.8-1.3 1.6l-6.9 10.7c-.8 1.3-1.6 1.6-2.7 1-1.4-.5-2.4-1.3-2.7-2.4-.8-1.1-1.1-1.6-1-1.4-.6-.8-.8-2.2-.5-4.2 1.1-1.8 1.8-3.5 2.1-5.3l.2.2s.2-.3.2-.5c.8-.2 1-.6.6-1.6 0-.2 0-.2-.2-.3 1.4-4 2.6-6.9 3.2-9l7.2-17.3c3-6.6 6.1-13.6 9.4-20.2 2.1-5 4.6-9.8 7.2-14.7.2-.5.6-.6 1.3-.5 2.1.5 3.8 2.1 5.6 4.8.5.8.6 1.4.5 1.9-.6 2.1-1 3.4-1.1 3.5l-4 7.5c-5.3 9.6-9.4 19.5-13.4 29.1-1.8 3.4-2.9 5.9-3.7 7.7-.8 1.9-1.1 3.4-.8 4.2l-.2-.2c1.8-2.4 3.4-4.8 5.3-7.2 5-6.6 10.9-15.2 16.8-21.6 1.4-1.3 3-1.4 5-.5.4.7.9.7 1.4.5zm-40 33.3v.6c0 .2-.2.2-.2.2l.2-.8zm4-3.1v.2h.2l-.2-.2zm1.4-2.4c.2-.2 0-.3-.2-.6l-.5.5v.6c0 .5 0 .8-.2.6 0 0 .2-.5.2-.6.6-.3.7-.5.7-.5zm10.4-29.2c-.3.2-.5.6-.5 1.4 0 .2-.2.2-.3.2-1.3 1.6-2.2 3.5-3 5.9 0 .5.2.8.2 1.3-.8.2-1.3.8-1.4 1.9-1.8 4.3-3.5 8.3-5.4 12 0 .5.2.8.2.8.3 0 .5 0 .6-.2.8-1.3 1.1-1.8 1.1-1.4 1.4-3.8 3.2-7.5 4.6-11.2 0-.6.2-1.1.3-1.9 2.1-1.9 3.2-4 3.4-6.4 0-.2-.2-.5-.2-1 .6-.2.8-.6.4-1.4 1.1-.5 1.8-1.3 1.6-2.4-1.1.3-1.6 1.1-1.6 2.4zm-9.1 26h-.2v.2l.2-.2zm.3-1.4l.2-.2h-.2v.2zm1.3-3.5l-.2.2.2.2v-.4zm1.1-2.7l.2-.2-.2-.2v.4zm.8-1.6c-.2 0 0-.2.3-.6 0 0 .2-.3.2-.5-.2-.2-.2 0-.2.5-.1.1-.3.6-.3.6zm1.2-2.8l.2.3v-.3h-.2zm1.2-2.4l.2.3v-.5l-.2.2zm1.8-3.6s.8.2.2-.5c0 .1-.2.5-.2.5-.5.3-.6 1-.6 1.8 0 .5-.2.6-.3.5 0 0 .3-.3.3-.5.4-.1.6-.7.6-1.8zm.6 23.9c-.5-.8-.2-1.1.8-1.1h2.6c1.4 0 2.1 0 2.1.2.8-1.3 2.7-.6 2.9-2.4.3-.5.6-.6.8-.8 3.8-4 5.3-5.4 7.4-10.1 1.4-2.7 3.4-5.9 4-9.8.5-1.1.6-2.4 1.1-3.8 0-.2 0-.2-.2-.3l-.2-.2c-1 .8-1.6 1.3-2.1 1.4l-.5.8-4.5 5.3c-2.4 3-6.1 7.5-8.2 10.6-2.4 3.4-4.2 6.7-6.6 9.9 0 .2.2.6.2.6h.5c.1-.1.1-.1-.1-.3zm1.6-28.3c-.2.2-.3.5-.3.5l-.8.8-.5.5c0 .5.2.6.2.6.2 0 .3-.2.3-.3v-.8l.8-.8c.2-.1.3-.3.3-.5zm.8-1.4l-.3-.2v.2h.3zm.5-1.6v-.2h-.2l.2.2zm.8 34.5c2.9-1.3 4.6-2.7 5.4-4.3 1.4-.6 2.6-1.4 3.4-2.2l.2-.3c-.5 0-.6 0-.6-.2l-2.2 1.1c-.5.2-.6.8-.6 1.6-.6 0-1.3.3-2.1 1-1.8 1.1-3 1.9-4 2.4l.5.9zm-.3-36.3v.2h.3l-.3-.2zm.3 33l-.3.2.3.2v-.4zm.7-34.9s-.8.3-.2.5c0 0 .2-.5.2-.6.5 0 .8-.5.8-1.4.3-.2.5-.6.5-1.6.5-.2.8-.6.6-1.8 1-.2 1.4-1 1.3-2.4.5 0 .6-.5.6-1.4.5-.2.6-.6.6-1.6.2-.2.3-.5.3-.6-.2.5-.3.6-.3.6-.6.2-.8.8-.6 1.6-.8.3-1 .8-.5 1.4-1.3.6-1.8 1.4-1.4 2.4-.5.3-.6 1-.6 1.8-.6.3-.8.8-.5 1.6-.5.1-.8.6-.8 1.5zm5.4-12.3l.2-.2h-.2v.2zm.5-1.7l.2.2v-.2h-.2zm1.2-3.4v.2h.2l-.2-.2zm6.6 42.5c1.6-2.1 2.4-4 2.2-6.1.5-1 .8-1.3.8-1.1 1-2.4 1.9-5.1 2.9-8.2 0 0-.2-.5-.2-.6-.3.3-.5.5-.5.3-.8 2.1-1.8 4.5-2.4 6.9-.5 1.1-.8 2.1-.6 2.7-1 1-1.4 1.3-1.3 1.1l-.9 5c-.5.2-.6.6-.6 1.4-.5.2-.6.5-.8.8-1.3.8-2.1 1.6-2.2 2.6 0 .3.2.5.3.5 0 .5.2.5.5 0 .8-1 1.3-1.9 1.4-3 .2-.3.3-.6.8-.8.4-.2.6-.7.6-1.5z"/></svg>